0
SECTION
2
HEADER
9
$ACADVER
1
AC1024
9
$INSUNITS
70
4
9
$LTSCALE
40
1
9
$MEASUREMENT
70
1
999
CONDUIT:{"parameters":{"grid":"10","pipeWidth":"2","valveSize":"64"},"constraints":[],"metadata":{"author":"","description":"Sensor, I/O, PLC and drive function chain; signal topology, not
999
CONDUIT: a power wiring diagram.","industry":"Process automation","drawingType":"Control architecture","templateId":"automation-io","standardRefs":["PROJECT"],"geometryRevision":3,"approva
999
CONDUIT:l":"Concept schematic; engineering approval required"}}
0
ENDSEC
0
SECTION
2
TABLES
0
TABLE
2
LTYPE
5
100
330
0
100
AcDbSymbolTable
70
1
0
LTYPE
5
101
100
AcDbSymbolTableRecord
100
AcDbLinetypeTableRecord
2
CONTINUOUS
70
0
3
Solid line
72
65
73
0
40
0
0
LTYPE
5
102
100
AcDbSymbolTableRecord
100
AcDbLinetypeTableRecord
2
DASHED
70
0
3
DASHED
72
65
73
2
40
12
49
8
74
0
49
-4
74
0
0
LTYPE
5
103
100
AcDbSymbolTableRecord
100
AcDbLinetypeTableRecord
2
CENTER
70
0
3
CENTER
72
65
73
4
40
20
49
12
74
0
49
-3
74
0
49
2
74
0
49
-3
74
0
0
LTYPE
5
104
100
AcDbSymbolTableRecord
100
AcDbLinetypeTableRecord
2
HIDDEN
70
0
3
HIDDEN
72
65
73
2
40
7
49
4
74
0
49
-3
74
0
0
LTYPE
5
105
100
AcDbSymbolTableRecord
100
AcDbLinetypeTableRecord
2
CC_DASH_6_4
70
0
3
CC_DASH_6_4
72
65
73
2
40
10
49
6
74
0
49
-4
74
0
0
LTYPE
5
106
100
AcDbSymbolTableRecord
100
AcDbLinetypeTableRecord
2
CC_DASH_10_3_2_3
70
0
3
CC_DASH_10_3_2_3
72
65
73
4
40
18
49
10
74
0
49
-3
74
0
49
2
74
0
49
-3
74
0
0
ENDTAB
0
TABLE
2
LAYER
5
107
330
0
100
AcDbSymbolTable
70
13
0
LAYER
5
108
100
AcDbSymbolTableRecord
100
AcDbLayerTableRecord
2
0
70
0
62
7
420
3426133
6
CONTINUOUS
0
LAYER
5
109
100
AcDbSymbolTableRecord
100
AcDbLayerTableRecord
2
Equipment
70
0
62
7
420
3495011
6
CONTINUOUS
0
LAYER
5
10A
100
AcDbSymbolTableRecord
100
AcDbLayerTableRecord
2
Process
70
0
62
7
420
1342583
6
CONTINUOUS
0
LAYER
5
10B
100
AcDbSymbolTableRecord
100
AcDbLayerTableRecord
2
Instruments
70
0
62
7
420
10187334
6
CONTINUOUS
0
LAYER
5
10C
100
AcDbSymbolTableRecord
100
AcDbLayerTableRecord
2
Electrical
70
0
62
7
420
6584250
6
CONTINUOUS
0
LAYER
5
10D
100
AcDbSymbolTableRecord
100
AcDbLayerTableRecord
2
Annotations
70
0
62
7
420
7438474
6
CONTINUOUS
0
LAYER
5
10E
100
AcDbSymbolTableRecord
100
AcDbLayerTableRecord
2
Hydraulics
70
0
62
7
420
3495011
6
CONTINUOUS
0
LAYER
5
10F
100
AcDbSymbolTableRecord
100
AcDbLayerTableRecord
2
Pneumatics
70
0
62
7
420
3495011
6
CONTINUOUS
0
LAYER
5
110
100
AcDbSymbolTableRecord
100
AcDbLayerTableRecord
2
HVAC
70
0
62
7
420
3495011
6
CONTINUOUS
0
LAYER
5
111
100
AcDbSymbolTableRecord
100
AcDbLayerTableRecord
2
Water
70
0
62
7
420
3495011
6
CONTINUOUS
0
LAYER
5
112
100
AcDbSymbolTableRecord
100
AcDbLayerTableRecord
2
Automation
70
0
62
7
420
3495011
6
CONTINUOUS
0
LAYER
5
113
100
AcDbSymbolTableRecord
100
AcDbLayerTableRecord
2
Fire
70
0
62
7
420
3495011
6
CONTINUOUS
0
LAYER
5
114
100
AcDbSymbolTableRecord
100
AcDbLayerTableRecord
2
Network
70
0
62
7
420
3495011
6
CONTINUOUS
0
ENDTAB
0
TABLE
2
STYLE
5
115
330
0
100
AcDbSymbolTable
70
1
0
STYLE
5
116
100
AcDbSymbolTableRecord
100
AcDbTextStyleTableRecord
2
STANDARD
70
0
40
0
41
1
50
0
71
0
42
2.5
3
txt
4

0
ENDTAB
0
TABLE
2
APPID
5
117
330
0
100
AcDbSymbolTable
70
1
0
APPID
5
118
100
AcDbSymbolTableRecord
100
AcDbRegAppTableRecord
2
CONDUITCAD
70
0
0
ENDTAB
0
TABLE
2
BLOCK_RECORD
5
119
330
0
100
AcDbSymbolTable
70
8
0
BLOCK_RECORD
5
11A
100
AcDbSymbolTableRecord
100
AcDbBlockTableRecord
2
*Model_Space
0
BLOCK_RECORD
5
11B
100
AcDbSymbolTableRecord
100
AcDbBlockTableRecord
2
*Paper_Space
0
BLOCK_RECORD
5
11C
100
AcDbSymbolTableRecord
100
AcDbBlockTableRecord
2
CC_AUTO_PROXIMITY
0
BLOCK_RECORD
5
11D
100
AcDbSymbolTableRecord
100
AcDbBlockTableRecord
2
CC_AUTO_DI
0
BLOCK_RECORD
5
11E
100
AcDbSymbolTableRecord
100
AcDbBlockTableRecord
2
CC_AUTO_PLC
0
BLOCK_RECORD
5
11F
100
AcDbSymbolTableRecord
100
AcDbBlockTableRecord
2
CC_AUTO_AO
0
BLOCK_RECORD
5
120
100
AcDbSymbolTableRecord
100
AcDbBlockTableRecord
2
CC_AUTO_VFD
0
BLOCK_RECORD
5
121
100
AcDbSymbolTableRecord
100
AcDbBlockTableRecord
2
CC_AUTO_HMI
0
ENDTAB
0
ENDSEC
0
SECTION
2
BLOCKS
0
BLOCK
5
122
330
11A
100
AcDbEntity
8
0
100
AcDbBlockBegin
2
*Model_Space
70
0
10
0
20
0
30
0
3
*Model_Space
1

1001
CONDUITCAD
1000
{"ports":[]}
0
ENDBLK
5
123
330
11A
100
AcDbEntity
8
0
100
AcDbBlockEnd
0
BLOCK
5
124
330
11B
100
AcDbEntity
8
0
100
AcDbBlockBegin
2
*Paper_Space
70
0
10
0
20
0
30
0
3
*Paper_Space
1

1001
CONDUITCAD
1000
{"ports":[]}
0
ENDBLK
5
125
330
11B
100
AcDbEntity
8
0
100
AcDbBlockEnd
0
BLOCK
5
126
330
11C
100
AcDbEntity
8
0
100
AcDbBlockBegin
2
CC_AUTO_PROXIMITY
70
0
10
0
20
0
30
0
3
CC_AUTO_PROXIMITY
1

1001
CONDUITCAD
1000
{"ports":[{"name":"in","x":-45,"y":0,"dx":-1,"dy":0,"medium":"signal","role":"connection"},{"name":"out","x":45,"y":0,"dx":1,"dy":0,"medium":"signal","role":"connection"}],"symbol":{"name":"Inductive 
1000
proximity sensor","category":"Automation","group":"Sensors","geometryRevision":3,"standardRefs":["PROJECT"],"convention":"Explicit project drafting convention","conformity":"Original master; not stand
1000
ards-certified","normativeEntry":null,"review":{"level":"geometry-and-convention","dimensionalConformance":"not-verified","note":"New independently constructed CAD master with explicit terminal topolo
1000
gy."},"aliases":["auto proximity"],"defaultLayer":"Automation","labelOffset":48,"extents":{"minX":-45,"minY":-18,"maxX":45,"maxY":18}}}
0
LWPOLYLINE
5
127
330
11C
100
AcDbEntity
8
0
62
0
6
CONTINUOUS
100
AcDbPolyline
90
4
70
1
10
-27
20
-18
10
27
20
-18
10
27
20
18
10
-27
20
18
1001
CONDUITCAD
1000
{"id":"master-auto-proximity-0"}
0
LINE
5
128
330
11C
100
AcDbEntity
8
0
62
0
6
CONTINUOUS
100
AcDbLine
10
-45
20
0
30
0
11
-27
21
0
31
0
1001
CONDUITCAD
1000
{"id":"master-auto-proximity-1"}
0
LINE
5
129
330
11C
100
AcDbEntity
8
0
62
0
6
CONTINUOUS
100
AcDbLine
10
27
20
0
30
0
11
45
21
0
31
0
1001
CONDUITCAD
1000
{"id":"master-auto-proximity-2"}
0
LINE
5
12A
330
11C
100
AcDbEntity
8
0
62
0
6
CONTINUOUS
100
AcDbLine
10
-18
20
-8
30
0
11
-18
21
8
31
0
1001
CONDUITCAD
1000
{"id":"master-auto-proximity-3"}
0
ARC
5
12B
330
11C
100
AcDbEntity
8
0
62
0
6
CONTINUOUS
100
AcDbCircle
10
-8
20
0
30
0
40
7
100
AcDbArc
50
-90
51
90
1001
CONDUITCAD
1000
{"id":"master-auto-proximity-4"}
0
ARC
5
12C
330
11C
100
AcDbEntity
8
0
62
0
6
CONTINUOUS
100
AcDbCircle
10
1
20
0
30
0
40
7
100
AcDbArc
50
-90
51
90
1001
CONDUITCAD
1000
{"id":"master-auto-proximity-5"}
0
ARC
5
12D
330
11C
100
AcDbEntity
8
0
62
0
6
CONTINUOUS
100
AcDbCircle
10
10
20
0
30
0
40
7
100
AcDbArc
50
-90
51
90
1001
CONDUITCAD
1000
{"id":"master-auto-proximity-6"}
0
ENDBLK
5
12E
330
11C
100
AcDbEntity
8
0
100
AcDbBlockEnd
0
BLOCK
5
12F
330
11D
100
AcDbEntity
8
0
100
AcDbBlockBegin
2
CC_AUTO_DI
70
0
10
0
20
0
30
0
3
CC_AUTO_DI
1

1001
CONDUITCAD
1000
{"ports":[{"name":"in","x":-45,"y":0,"dx":-1,"dy":0,"medium":"signal","role":"connection"},{"name":"out","x":45,"y":0,"dx":1,"dy":0,"medium":"signal","role":"connection"}],"symbol":{"name":"Digital in
1000
put module","category":"Automation","group":"Control & I/O","representation":"functional block","geometryRevision":3,"standardRefs":["PROJECT"],"convention":"Explicit project drafting convention","con
1000
formity":"Original master; not standards-certified","normativeEntry":null,"review":{"level":"geometry-and-convention","dimensionalConformance":"not-verified","note":"New independently constructed CAD 
1000
master with explicit terminal topology."},"aliases":["auto di"],"defaultLayer":"Automation","labelOffset":48,"extents":{"minX":-45,"minY":-22,"maxX":45,"maxY":22}}}
0
LWPOLYLINE
5
130
330
11D
100
AcDbEntity
8
0
62
0
6
CONTINUOUS
100
AcDbPolyline
90
4
70
1
10
-32
20
-22
10
32
20
-22
10
32
20
22
10
-32
20
22
1001
CONDUITCAD
1000
{"id":"master-auto-di-0"}
0
LINE
5
131
330
11D
100
AcDbEntity
8
0
62
0
6
CONTINUOUS
100
AcDbLine
10
-45
20
0
30
0
11
-32
21
0
31
0
1001
CONDUITCAD
1000
{"id":"master-auto-di-1"}
0
LINE
5
132
330
11D
100
AcDbEntity
8
0
62
0
6
CONTINUOUS
100
AcDbLine
10
32
20
0
30
0
11
45
21
0
31
0
1001
CONDUITCAD
1000
{"id":"master-auto-di-2"}
0
TEXT
5
133
330
11D
100
AcDbEntity
8
0
62
0
6
CONTINUOUS
100
AcDbText
10
0
20
-4
30
0
40
11
1
DI
50
0
41
1
7
STANDARD
72
1
11
0
21
-4
31
0
100
AcDbText
73
0
1001
CONDUITCAD
1000
{"id":"master-auto-di-3"}
0
ENDBLK
5
134
330
11D
100
AcDbEntity
8
0
100
AcDbBlockEnd
0
BLOCK
5
135
330
11E
100
AcDbEntity
8
0
100
AcDbBlockBegin
2
CC_AUTO_PLC
70
0
10
0
20
0
30
0
3
CC_AUTO_PLC
1

1001
CONDUITCAD
1000
{"ports":[{"name":"in","x":-45,"y":0,"dx":-1,"dy":0,"medium":"signal","role":"connection"},{"name":"out","x":45,"y":0,"dx":1,"dy":0,"medium":"signal","role":"connection"}],"symbol":{"name":"Programmab
1000
le logic controller","category":"Automation","group":"Control & I/O","representation":"functional block","geometryRevision":3,"standardRefs":["PROJECT"],"convention":"Explicit project drafting convent
1000
ion","conformity":"Original master; not standards-certified","normativeEntry":null,"review":{"level":"geometry-and-convention","dimensionalConformance":"not-verified","note":"New independently constru
1000
cted CAD master with explicit terminal topology."},"aliases":["auto plc"],"defaultLayer":"Automation","labelOffset":48,"extents":{"minX":-45,"minY":-22,"maxX":45,"maxY":22}}}
0
LWPOLYLINE
5
136
330
11E
100
AcDbEntity
8
0
62
0
6
CONTINUOUS
100
AcDbPolyline
90
4
70
1
10
-32
20
-22
10
32
20
-22
10
32
20
22
10
-32
20
22
1001
CONDUITCAD
1000
{"id":"master-auto-plc-0"}
0
LINE
5
137
330
11E
100
AcDbEntity
8
0
62
0
6
CONTINUOUS
100
AcDbLine
10
-45
20
0
30
0
11
-32
21
0
31
0
1001
CONDUITCAD
1000
{"id":"master-auto-plc-1"}
0
LINE
5
138
330
11E
100
AcDbEntity
8
0
62
0
6
CONTINUOUS
100
AcDbLine
10
32
20
0
30
0
11
45
21
0
31
0
1001
CONDUITCAD
1000
{"id":"master-auto-plc-2"}
0
TEXT
5
139
330
11E
100
AcDbEntity
8
0
62
0
6
CONTINUOUS
100
AcDbText
10
0
20
-4
30
0
40
11
1
PLC
50
0
41
1
7
STANDARD
72
1
11
0
21
-4
31
0
100
AcDbText
73
0
1001
CONDUITCAD
1000
{"id":"master-auto-plc-3"}
0
ENDBLK
5
13A
330
11E
100
AcDbEntity
8
0
100
AcDbBlockEnd
0
BLOCK
5
13B
330
11F
100
AcDbEntity
8
0
100
AcDbBlockBegin
2
CC_AUTO_AO
70
0
10
0
20
0
30
0
3
CC_AUTO_AO
1

1001
CONDUITCAD
1000
{"ports":[{"name":"in","x":-45,"y":0,"dx":-1,"dy":0,"medium":"signal","role":"connection"},{"name":"out","x":45,"y":0,"dx":1,"dy":0,"medium":"signal","role":"connection"}],"symbol":{"name":"Analog out
1000
put module","category":"Automation","group":"Control & I/O","representation":"functional block","geometryRevision":3,"standardRefs":["PROJECT"],"convention":"Explicit project drafting convention","con
1000
formity":"Original master; not standards-certified","normativeEntry":null,"review":{"level":"geometry-and-convention","dimensionalConformance":"not-verified","note":"New independently constructed CAD 
1000
master with explicit terminal topology."},"aliases":["auto ao"],"defaultLayer":"Automation","labelOffset":48,"extents":{"minX":-45,"minY":-22,"maxX":45,"maxY":22}}}
0
LWPOLYLINE
5
13C
330
11F
100
AcDbEntity
8
0
62
0
6
CONTINUOUS
100
AcDbPolyline
90
4
70
1
10
-32
20
-22
10
32
20
-22
10
32
20
22
10
-32
20
22
1001
CONDUITCAD
1000
{"id":"master-auto-ao-0"}
0
LINE
5
13D
330
11F
100
AcDbEntity
8
0
62
0
6
CONTINUOUS
100
AcDbLine
10
-45
20
0
30
0
11
-32
21
0
31
0
1001
CONDUITCAD
1000
{"id":"master-auto-ao-1"}
0
LINE
5
13E
330
11F
100
AcDbEntity
8
0
62
0
6
CONTINUOUS
100
AcDbLine
10
32
20
0
30
0
11
45
21
0
31
0
1001
CONDUITCAD
1000
{"id":"master-auto-ao-2"}
0
TEXT
5
13F
330
11F
100
AcDbEntity
8
0
62
0
6
CONTINUOUS
100
AcDbText
10
0
20
-4
30
0
40
11
1
AO
50
0
41
1
7
STANDARD
72
1
11
0
21
-4
31
0
100
AcDbText
73
0
1001
CONDUITCAD
1000
{"id":"master-auto-ao-3"}
0
ENDBLK
5
140
330
11F
100
AcDbEntity
8
0
100
AcDbBlockEnd
0
BLOCK
5
141
330
120
100
AcDbEntity
8
0
100
AcDbBlockBegin
2
CC_AUTO_VFD
70
0
10
0
20
0
30
0
3
CC_AUTO_VFD
1

1001
CONDUITCAD
1000
{"ports":[{"name":"in","x":-45,"y":0,"dx":-1,"dy":0,"medium":"signal","role":"connection"},{"name":"out","x":45,"y":0,"dx":1,"dy":0,"medium":"signal","role":"connection"}],"symbol":{"name":"Variable-f
1000
requency drive","category":"Automation","group":"Control & I/O","representation":"functional block","geometryRevision":3,"standardRefs":["PROJECT"],"convention":"Explicit project drafting convention",
1000
"conformity":"Original master; not standards-certified","normativeEntry":null,"review":{"level":"geometry-and-convention","dimensionalConformance":"not-verified","note":"New independently constructed 
1000
CAD master with explicit terminal topology."},"aliases":["auto vfd"],"defaultLayer":"Automation","labelOffset":48,"extents":{"minX":-45,"minY":-22,"maxX":45,"maxY":22}}}
0
LWPOLYLINE
5
142
330
120
100
AcDbEntity
8
0
62
0
6
CONTINUOUS
100
AcDbPolyline
90
4
70
1
10
-32
20
-22
10
32
20
-22
10
32
20
22
10
-32
20
22
1001
CONDUITCAD
1000
{"id":"master-auto-vfd-0"}
0
LINE
5
143
330
120
100
AcDbEntity
8
0
62
0
6
CONTINUOUS
100
AcDbLine
10
-45
20
0
30
0
11
-32
21
0
31
0
1001
CONDUITCAD
1000
{"id":"master-auto-vfd-1"}
0
LINE
5
144
330
120
100
AcDbEntity
8
0
62
0
6
CONTINUOUS
100
AcDbLine
10
32
20
0
30
0
11
45
21
0
31
0
1001
CONDUITCAD
1000
{"id":"master-auto-vfd-2"}
0
TEXT
5
145
330
120
100
AcDbEntity
8
0
62
0
6
CONTINUOUS
100
AcDbText
10
0
20
-4
30
0
40
11
1
VFD
50
0
41
1
7
STANDARD
72
1
11
0
21
-4
31
0
100
AcDbText
73
0
1001
CONDUITCAD
1000
{"id":"master-auto-vfd-3"}
0
ENDBLK
5
146
330
120
100
AcDbEntity
8
0
100
AcDbBlockEnd
0
BLOCK
5
147
330
121
100
AcDbEntity
8
0
100
AcDbBlockBegin
2
CC_AUTO_HMI
70
0
10
0
20
0
30
0
3
CC_AUTO_HMI
1

1001
CONDUITCAD
1000
{"ports":[{"name":"in","x":-45,"y":0,"dx":-1,"dy":0,"medium":"signal","role":"connection"},{"name":"out","x":45,"y":0,"dx":1,"dy":0,"medium":"signal","role":"connection"}],"symbol":{"name":"Operator H
1000
MI","category":"Automation","group":"Control & I/O","geometryRevision":3,"standardRefs":["PROJECT"],"convention":"Explicit project drafting convention","conformity":"Original master; not standards-cer
1000
tified","normativeEntry":null,"review":{"level":"geometry-and-convention","dimensionalConformance":"not-verified","note":"New independently constructed CAD master with explicit terminal topology."},"a
1000
liases":["auto hmi"],"defaultLayer":"Automation","labelOffset":48,"extents":{"minX":-45,"minY":-24,"maxX":45,"maxY":24}}}
0
LWPOLYLINE
5
148
330
121
100
AcDbEntity
8
0
62
0
6
CONTINUOUS
100
AcDbPolyline
90
4
70
1
10
-32
20
-24
10
32
20
-24
10
32
20
24
10
-32
20
24
1001
CONDUITCAD
1000
{"id":"master-auto-hmi-0"}
0
LWPOLYLINE
5
149
330
121
100
AcDbEntity
8
0
62
0
6
CONTINUOUS
100
AcDbPolyline
90
4
70
1
10
-25
20
-14
10
25
20
-14
10
25
20
17
10
-25
20
17
1001
CONDUITCAD
1000
{"id":"master-auto-hmi-1"}
0
CIRCLE
5
14A
330
121
100
AcDbEntity
8
0
62
0
6
CONTINUOUS
100
AcDbCircle
10
0
20
-19
30
0
40
2
1001
CONDUITCAD
1000
{"id":"master-auto-hmi-2"}
0
LINE
5
14B
330
121
100
AcDbEntity
8
0
62
0
6
CONTINUOUS
100
AcDbLine
10
-45
20
0
30
0
11
-32
21
0
31
0
1001
CONDUITCAD
1000
{"id":"master-auto-hmi-3"}
0
LINE
5
14C
330
121
100
AcDbEntity
8
0
62
0
6
CONTINUOUS
100
AcDbLine
10
32
20
0
30
0
11
45
21
0
31
0
1001
CONDUITCAD
1000
{"id":"master-auto-hmi-4"}
0
TEXT
5
14D
330
121
100
AcDbEntity
8
0
62
0
6
CONTINUOUS
100
AcDbText
10
0
20
-2
30
0
40
12
1
HMI
50
0
41
1
7
STANDARD
72
1
11
0
21
-2
31
0
100
AcDbText
73
0
1001
CONDUITCAD
1000
{"id":"master-auto-hmi-5"}
0
ENDBLK
5
14E
330
121
100
AcDbEntity
8
0
100
AcDbBlockEnd
0
ENDSEC
0
SECTION
2
ENTITIES
0
INSERT
5
14F
330
11A
100
AcDbEntity
8
Automation
100
AcDbBlockReference
2
CC_AUTO_PROXIMITY
10
130
20
350
30
0
41
1
42
1
43
1
50
0
66
1
1001
CONDUITCAD
1000
{"id":"e-mugr5p6e-1dd","tag":"B1"}
0
ATTRIB
5
150
330
11A
100
AcDbEntity
8
Automation
100
AcDbText
10
130
20
302
30
0
40
12
1
B1
50
0
41
1
7
STANDARD
72
1
11
130
21
302
31
0
100
AcDbAttribute
2
TAG
70
0
74
0
0
SEQEND
5
151
100
AcDbEntity
8
Automation
0
INSERT
5
152
330
11A
100
AcDbEntity
8
Automation
100
AcDbBlockReference
2
CC_AUTO_DI
10
320
20
350
30
0
41
1
42
1
43
1
50
0
66
1
1001
CONDUITCAD
1000
{"id":"e-mugr5p6e-1de","tag":"DI1"}
0
ATTRIB
5
153
330
11A
100
AcDbEntity
8
Automation
100
AcDbText
10
320
20
302
30
0
40
12
1
DI1
50
0
41
1
7
STANDARD
72
1
11
320
21
302
31
0
100
AcDbAttribute
2
TAG
70
0
74
0
0
SEQEND
5
154
100
AcDbEntity
8
Automation
0
INSERT
5
155
330
11A
100
AcDbEntity
8
Automation
100
AcDbBlockReference
2
CC_AUTO_PLC
10
510
20
350
30
0
41
1
42
1
43
1
50
0
66
1
1001
CONDUITCAD
1000
{"id":"e-mugr5p6e-1df","tag":"PLC1"}
0
ATTRIB
5
156
330
11A
100
AcDbEntity
8
Automation
100
AcDbText
10
510
20
302
30
0
40
12
1
PLC1
50
0
41
1
7
STANDARD
72
1
11
510
21
302
31
0
100
AcDbAttribute
2
TAG
70
0
74
0
0
SEQEND
5
157
100
AcDbEntity
8
Automation
0
INSERT
5
158
330
11A
100
AcDbEntity
8
Automation
100
AcDbBlockReference
2
CC_AUTO_AO
10
700
20
350
30
0
41
1
42
1
43
1
50
0
66
1
1001
CONDUITCAD
1000
{"id":"e-mugr5p6e-1dg","tag":"AO1"}
0
ATTRIB
5
159
330
11A
100
AcDbEntity
8
Automation
100
AcDbText
10
700
20
302
30
0
40
12
1
AO1
50
0
41
1
7
STANDARD
72
1
11
700
21
302
31
0
100
AcDbAttribute
2
TAG
70
0
74
0
0
SEQEND
5
15A
100
AcDbEntity
8
Automation
0
INSERT
5
15B
330
11A
100
AcDbEntity
8
Automation
100
AcDbBlockReference
2
CC_AUTO_VFD
10
890
20
350
30
0
41
1
42
1
43
1
50
0
66
1
1001
CONDUITCAD
1000
{"id":"e-mugr5p6e-1dh","tag":"VFD1"}
0
ATTRIB
5
15C
330
11A
100
AcDbEntity
8
Automation
100
AcDbText
10
890
20
302
30
0
40
12
1
VFD1
50
0
41
1
7
STANDARD
72
1
11
890
21
302
31
0
100
AcDbAttribute
2
TAG
70
0
74
0
0
SEQEND
5
15D
100
AcDbEntity
8
Automation
0
INSERT
5
15E
330
11A
100
AcDbEntity
8
Automation
100
AcDbBlockReference
2
CC_AUTO_HMI
10
510
20
490
30
0
41
1
42
1
43
1
50
0
66
1
1001
CONDUITCAD
1000
{"id":"e-mugr5p6e-1di","tag":"HMI1"}
0
ATTRIB
5
15F
330
11A
100
AcDbEntity
8
Automation
100
AcDbText
10
510
20
442
30
0
40
12
1
HMI1
50
0
41
1
7
STANDARD
72
1
11
510
21
442
31
0
100
AcDbAttribute
2
TAG
70
0
74
0
0
SEQEND
5
160
100
AcDbEntity
8
Automation
0
LWPOLYLINE
5
161
330
11A
100
AcDbEntity
8
Instruments
62
7
420
11172939
6
CC_DASH_6_4
100
AcDbPolyline
90
2
70
0
10
175
20
350
10
275
20
350
1001
CONDUITCAD
1000
{"id":"e-mugr5p6f-1dj","connector":{"from":{"entityId":"e-mugr5p6e-1dd","port":"out"},"to":{"entityId":"e-mugr5p6e-1de","port":"in"},"style":"signal","arrow":"none","waypoints":[],"status":"routed"},"
1000
label":"","dash":[6,4],"width":1.5}
0
LWPOLYLINE
5
162
330
11A
100
AcDbEntity
8
Instruments
62
7
420
11172939
6
CC_DASH_6_4
100
AcDbPolyline
90
2
70
0
10
365
20
350
10
465
20
350
1001
CONDUITCAD
1000
{"id":"e-mugr5p6f-1dk","connector":{"from":{"entityId":"e-mugr5p6e-1de","port":"out"},"to":{"entityId":"e-mugr5p6e-1df","port":"in"},"style":"signal","arrow":"none","waypoints":[],"status":"routed"},"
1000
label":"","dash":[6,4],"width":1.5}
0
LWPOLYLINE
5
163
330
11A
100
AcDbEntity
8
Instruments
62
7
420
11172939
6
CC_DASH_6_4
100
AcDbPolyline
90
2
70
0
10
555
20
350
10
655
20
350
1001
CONDUITCAD
1000
{"id":"e-mugr5p6f-1dl","connector":{"from":{"entityId":"e-mugr5p6e-1df","port":"out"},"to":{"entityId":"e-mugr5p6e-1dg","port":"in"},"style":"signal","arrow":"none","waypoints":[],"status":"routed"},"
1000
label":"","dash":[6,4],"width":1.5}
0
LWPOLYLINE
5
164
330
11A
100
AcDbEntity
8
Instruments
62
7
420
11172939
6
CC_DASH_6_4
100
AcDbPolyline
90
2
70
0
10
745
20
350
10
845
20
350
1001
CONDUITCAD
1000
{"id":"e-mugr5p6f-1dm","connector":{"from":{"entityId":"e-mugr5p6e-1dg","port":"out"},"to":{"entityId":"e-mugr5p6e-1dh","port":"in"},"style":"signal","arrow":"none","waypoints":[],"status":"routed"},"
1000
label":"","dash":[6,4],"width":1.5}
0
LWPOLYLINE
5
165
330
11A
100
AcDbEntity
8
Electrical
62
7
420
8943271
6
CC_DASH_10_3_2_3
100
AcDbPolyline
90
4
70
0
10
465
20
490
10
447
20
490
10
447
20
350
10
465
20
350
1001
CONDUITCAD
1000
{"id":"e-mugr5p6f-1dn","connector":{"from":{"entityId":"e-mugr5p6e-1di","port":"in"},"to":{"entityId":"e-mugr5p6e-1df","port":"in"},"style":"data","arrow":"end","waypoints":[],"status":"routed"},"labe
1000
l":"","dash":[10,3,2,3],"width":1.5}
0
TEXT
5
166
330
11A
100
AcDbEntity
8
Annotations
100
AcDbText
10
40
20
620
30
0
40
27
1
Automation I/O architecture
50
0
41
1
7
STANDARD
100
AcDbText
73
0
1001
CONDUITCAD
1000
{"id":"e-mugr5p6f-1do"}
0
TEXT
5
167
330
11A
100
AcDbEntity
8
Annotations
100
AcDbText
10
40
20
584
30
0
40
13
1
Process automation  /  Control architecture
50
0
41
1
7
STANDARD
100
AcDbText
73
0
1001
CONDUITCAD
1000
{"id":"e-mugr5p6f-1dp"}
0
LINE
5
168
330
11A
100
AcDbEntity
8
Annotations
100
AcDbLine
10
40
20
562
30
0
11
1120
21
562
31
0
1001
CONDUITCAD
1000
{"id":"e-mugr5p6f-1dq"}
0
TEXT
5
169
330
11A
100
AcDbEntity
8
Annotations
100
AcDbText
10
40
20
42
30
0
40
11
1
CONCEPT SCHEMATIC — NOT FOR CONSTRUCTION
50
0
41
1
7
STANDARD
100
AcDbText
73
0
1001
CONDUITCAD
1000
{"id":"e-mugr5p6f-1dr"}
0
TEXT
5
16A
330
11A
100
AcDbEntity
8
Annotations
100
AcDbText
10
650
20
42
30
0
40
11
1
AUTOMATION-IO  |  REV 03  |  mm
50
0
41
1
7
STANDARD
100
AcDbText
73
0
1001
CONDUITCAD
1000
{"id":"e-mugr5p6f-1ds"}
0
ENDSEC
0
EOF
