0
SECTION
2
HEADER
9
$ACADVER
1
AC1024
9
$INSUNITS
70
4
9
$LTSCALE
40
1
9
$MEASUREMENT
70
1
999
CONDUIT:{"parameters":{"grid":"10","pipeWidth":"2","valveSize":"64"},"constraints":[],"metadata":{"author":"","description":"Agitated vessel, control valve, circulation pump and exchanger.
999
CONDUIT: Process values require engineering.","industry":"Chemical & petrochemical","drawingType":"Piping & instrumentation","templateId":"chemical-batch","standardRefs":["ISO-10628-2","IS
999
CONDUIT:A-5.1"],"geometryRevision":3,"approval":"Concept schematic; engineering approval required"}}
0
ENDSEC
0
SECTION
2
TABLES
0
TABLE
2
LTYPE
5
100
330
0
100
AcDbSymbolTable
70
1
0
LTYPE
5
101
100
AcDbSymbolTableRecord
100
AcDbLinetypeTableRecord
2
CONTINUOUS
70
0
3
Solid line
72
65
73
0
40
0
0
LTYPE
5
102
100
AcDbSymbolTableRecord
100
AcDbLinetypeTableRecord
2
DASHED
70
0
3
DASHED
72
65
73
2
40
12
49
8
74
0
49
-4
74
0
0
LTYPE
5
103
100
AcDbSymbolTableRecord
100
AcDbLinetypeTableRecord
2
CENTER
70
0
3
CENTER
72
65
73
4
40
20
49
12
74
0
49
-3
74
0
49
2
74
0
49
-3
74
0
0
LTYPE
5
104
100
AcDbSymbolTableRecord
100
AcDbLinetypeTableRecord
2
HIDDEN
70
0
3
HIDDEN
72
65
73
2
40
7
49
4
74
0
49
-3
74
0
0
LTYPE
5
105
100
AcDbSymbolTableRecord
100
AcDbLinetypeTableRecord
2
CC_DASH_6_4
70
0
3
CC_DASH_6_4
72
65
73
2
40
10
49
6
74
0
49
-4
74
0
0
ENDTAB
0
TABLE
2
LAYER
5
106
330
0
100
AcDbSymbolTable
70
13
0
LAYER
5
107
100
AcDbSymbolTableRecord
100
AcDbLayerTableRecord
2
0
70
0
62
7
420
3426133
6
CONTINUOUS
0
LAYER
5
108
100
AcDbSymbolTableRecord
100
AcDbLayerTableRecord
2
Equipment
70
0
62
7
420
3495011
6
CONTINUOUS
0
LAYER
5
109
100
AcDbSymbolTableRecord
100
AcDbLayerTableRecord
2
Process
70
0
62
7
420
1342583
6
CONTINUOUS
0
LAYER
5
10A
100
AcDbSymbolTableRecord
100
AcDbLayerTableRecord
2
Instruments
70
0
62
7
420
10187334
6
CONTINUOUS
0
LAYER
5
10B
100
AcDbSymbolTableRecord
100
AcDbLayerTableRecord
2
Electrical
70
0
62
7
420
6584250
6
CONTINUOUS
0
LAYER
5
10C
100
AcDbSymbolTableRecord
100
AcDbLayerTableRecord
2
Annotations
70
0
62
7
420
7438474
6
CONTINUOUS
0
LAYER
5
10D
100
AcDbSymbolTableRecord
100
AcDbLayerTableRecord
2
Hydraulics
70
0
62
7
420
3495011
6
CONTINUOUS
0
LAYER
5
10E
100
AcDbSymbolTableRecord
100
AcDbLayerTableRecord
2
Pneumatics
70
0
62
7
420
3495011
6
CONTINUOUS
0
LAYER
5
10F
100
AcDbSymbolTableRecord
100
AcDbLayerTableRecord
2
HVAC
70
0
62
7
420
3495011
6
CONTINUOUS
0
LAYER
5
110
100
AcDbSymbolTableRecord
100
AcDbLayerTableRecord
2
Water
70
0
62
7
420
3495011
6
CONTINUOUS
0
LAYER
5
111
100
AcDbSymbolTableRecord
100
AcDbLayerTableRecord
2
Automation
70
0
62
7
420
3495011
6
CONTINUOUS
0
LAYER
5
112
100
AcDbSymbolTableRecord
100
AcDbLayerTableRecord
2
Fire
70
0
62
7
420
3495011
6
CONTINUOUS
0
LAYER
5
113
100
AcDbSymbolTableRecord
100
AcDbLayerTableRecord
2
Network
70
0
62
7
420
3495011
6
CONTINUOUS
0
ENDTAB
0
TABLE
2
STYLE
5
114
330
0
100
AcDbSymbolTable
70
1
0
STYLE
5
115
100
AcDbSymbolTableRecord
100
AcDbTextStyleTableRecord
2
STANDARD
70
0
40
0
41
1
50
0
71
0
42
2.5
3
txt
4

0
ENDTAB
0
TABLE
2
APPID
5
116
330
0
100
AcDbSymbolTable
70
1
0
APPID
5
117
100
AcDbSymbolTableRecord
100
AcDbRegAppTableRecord
2
CONDUITCAD
70
0
0
ENDTAB
0
TABLE
2
BLOCK_RECORD
5
118
330
0
100
AcDbSymbolTable
70
8
0
BLOCK_RECORD
5
119
100
AcDbSymbolTableRecord
100
AcDbBlockTableRecord
2
*Model_Space
0
BLOCK_RECORD
5
11A
100
AcDbSymbolTableRecord
100
AcDbBlockTableRecord
2
*Paper_Space
0
BLOCK_RECORD
5
11B
100
AcDbSymbolTableRecord
100
AcDbBlockTableRecord
2
CC_GATE_VALVE
0
BLOCK_RECORD
5
11C
100
AcDbSymbolTableRecord
100
AcDbBlockTableRecord
2
CC_MIXER
0
BLOCK_RECORD
5
11D
100
AcDbSymbolTableRecord
100
AcDbBlockTableRecord
2
CC_CONTROL_VALVE
0
BLOCK_RECORD
5
11E
100
AcDbSymbolTableRecord
100
AcDbBlockTableRecord
2
CC_PLATE_EXCHANGER
0
BLOCK_RECORD
5
11F
100
AcDbSymbolTableRecord
100
AcDbBlockTableRecord
2
CC_PUMP
0
BLOCK_RECORD
5
120
100
AcDbSymbolTableRecord
100
AcDbBlockTableRecord
2
CC_TEMPERATURE_CONTROLLER
0
ENDTAB
0
ENDSEC
0
SECTION
2
BLOCKS
0
BLOCK
5
121
330
119
100
AcDbEntity
8
0
100
AcDbBlockBegin
2
*Model_Space
70
0
10
0
20
0
30
0
3
*Model_Space
1

1001
CONDUITCAD
1000
{"ports":[]}
0
ENDBLK
5
122
330
119
100
AcDbEntity
8
0
100
AcDbBlockEnd
0
BLOCK
5
123
330
11A
100
AcDbEntity
8
0
100
AcDbBlockBegin
2
*Paper_Space
70
0
10
0
20
0
30
0
3
*Paper_Space
1

1001
CONDUITCAD
1000
{"ports":[]}
0
ENDBLK
5
124
330
11A
100
AcDbEntity
8
0
100
AcDbBlockEnd
0
BLOCK
5
125
330
11B
100
AcDbEntity
8
0
100
AcDbBlockBegin
2
CC_GATE_VALVE
70
0
10
0
20
0
30
0
3
CC_GATE_VALVE
1

1001
CONDUITCAD
1000
{"ports":[{"name":"in","x":-45,"y":0,"dx":-1,"dy":0,"medium":"process","role":"connection"},{"name":"out","x":45,"y":0,"dx":1,"dy":0,"medium":"process","role":"connection"}],"symbol":{"name":"Gate val
1000
ve","category":"P&ID","labelOffset":48,"geometryRevision":3,"convention":"ISO-10628-2 family","conformity":"Original master; not standards-certified","standardRefs":["ISO-10628-2"],"normativeEntry":nu
1000
ll,"review":{"level":"geometry-and-convention","dimensionalConformance":"not-verified","note":"Two separate non-self-intersecting triangles with exact common apex."},"group":"Valves & actuators","alia
1000
ses":["gate valve"],"defaultLayer":"Equipment","extents":{"minX":-45,"minY":-18,"maxX":45,"maxY":18}}}
0
LINE
5
126
330
11B
100
AcDbEntity
8
0
62
0
6
CONTINUOUS
100
AcDbLine
10
-45
20
0
30
0
11
-25
21
0
31
0
1001
CONDUITCAD
1000
{"id":"master-gate-valve-0"}
0
LINE
5
127
330
11B
100
AcDbEntity
8
0
62
0
6
CONTINUOUS
100
AcDbLine
10
25
20
0
30
0
11
45
21
0
31
0
1001
CONDUITCAD
1000
{"id":"master-gate-valve-1"}
0
LWPOLYLINE
5
128
330
11B
100
AcDbEntity
8
0
62
0
6
CONTINUOUS
100
AcDbPolyline
90
3
70
1
10
-25
20
-18
10
0
20
0
10
-25
20
18
1001
CONDUITCAD
1000
{"id":"master-gate-valve-2"}
0
LWPOLYLINE
5
129
330
11B
100
AcDbEntity
8
0
62
0
6
CONTINUOUS
100
AcDbPolyline
90
3
70
1
10
25
20
-18
10
0
20
0
10
25
20
18
1001
CONDUITCAD
1000
{"id":"master-gate-valve-3"}
0
ENDBLK
5
12A
330
11B
100
AcDbEntity
8
0
100
AcDbBlockEnd
0
BLOCK
5
12B
330
11C
100
AcDbEntity
8
0
100
AcDbBlockBegin
2
CC_MIXER
70
0
10
0
20
0
30
0
3
CC_MIXER
1

1001
CONDUITCAD
1000
{"ports":[{"name":"in","x":-45,"y":0,"dx":-1,"dy":0,"medium":"process","role":"connection"},{"name":"out","x":45,"y":0,"dx":1,"dy":0,"medium":"process","role":"connection"},{"name":"top","x":0,"y":83,
1000
"dx":0,"dy":1,"medium":"mechanical","role":"connection"},{"name":"bottom","x":0,"y":-55,"dx":0,"dy":-1,"medium":"process","role":"connection"}],"symbol":{"name":"Agitated vessel","category":"P&ID","la
1000
belOffset":77,"geometryRevision":3,"convention":"ISO-10628-2 family","conformity":"Original master; not standards-certified","standardRefs":["ISO-10628-2"],"normativeEntry":null,"review":{"level":"geo
1000
metry-and-convention","dimensionalConformance":"not-verified","note":"Domed process vessel and impeller; motor port moved to its actual exposed terminal."},"group":"Equipment & instruments","aliases":
1000
["mixer"],"defaultLayer":"Equipment","extents":{"minX":-45,"minY":-54.97116691854981,"maxX":45,"maxY":83}}}
0
LINE
5
12C
330
11C
100
AcDbEntity
8
0
62
0
6
CONTINUOUS
100
AcDbLine
10
-32
20
-23
30
0
11
-32
21
23
31
0
1001
CONDUITCAD
1000
{"id":"master-mixer-0"}
0
ARC
5
12D
330
11C
100
AcDbEntity
8
0
62
0
6
CONTINUOUS
100
AcDbCircle
10
0
20
23
30
0
40
32
100
AcDbArc
50
0
51
180
1001
CONDUITCAD
1000
{"id":"master-mixer-1"}
0
LINE
5
12E
330
11C
100
AcDbEntity
8
0
62
0
6
CONTINUOUS
100
AcDbLine
10
32
20
23
30
0
11
32
21
-23
31
0
1001
CONDUITCAD
1000
{"id":"master-mixer-2"}
0
ARC
5
12F
330
11C
100
AcDbEntity
8
0
62
0
6
CONTINUOUS
100
AcDbCircle
10
0
20
-23
30
0
40
32
100
AcDbArc
50
180
51
360
1001
CONDUITCAD
1000
{"id":"master-mixer-3"}
0
LINE
5
130
330
11C
100
AcDbEntity
8
0
62
0
6
CONTINUOUS
100
AcDbLine
10
-45
20
0
30
0
11
-32
21
0
31
0
1001
CONDUITCAD
1000
{"id":"master-mixer-4"}
0
LINE
5
131
330
11C
100
AcDbEntity
8
0
62
0
6
CONTINUOUS
100
AcDbLine
10
32
20
0
30
0
11
45
21
0
31
0
1001
CONDUITCAD
1000
{"id":"master-mixer-5"}
0
LINE
5
132
330
11C
100
AcDbEntity
8
0
62
0
6
CONTINUOUS
100
AcDbLine
10
0
20
55
30
0
11
0
21
65
31
0
1001
CONDUITCAD
1000
{"id":"master-mixer-6"}
0
LWPOLYLINE
5
133
330
11C
100
AcDbEntity
8
0
62
0
6
CONTINUOUS
100
AcDbPolyline
90
4
70
1
10
-12
20
65
10
12
20
65
10
12
20
83
10
-12
20
83
1001
CONDUITCAD
1000
{"id":"master-mixer-7"}
0
LINE
5
134
330
11C
100
AcDbEntity
8
0
62
0
6
CONTINUOUS
100
AcDbLine
10
0
20
65
30
0
11
0
21
-25
31
0
1001
CONDUITCAD
1000
{"id":"master-mixer-8"}
0
LINE
5
135
330
11C
100
AcDbEntity
8
0
62
0
6
CONTINUOUS
100
AcDbLine
10
-24
20
-15
30
0
11
24
21
-25
31
0
1001
CONDUITCAD
1000
{"id":"master-mixer-9"}
0
ENDBLK
5
136
330
11C
100
AcDbEntity
8
0
100
AcDbBlockEnd
0
BLOCK
5
137
330
11D
100
AcDbEntity
8
0
100
AcDbBlockBegin
2
CC_CONTROL_VALVE
70
0
10
0
20
0
30
0
3
CC_CONTROL_VALVE
1

1001
CONDUITCAD
1000
{"ports":[{"name":"in","x":-45,"y":0,"dx":-1,"dy":0,"medium":"process","role":"connection"},{"name":"out","x":45,"y":0,"dx":1,"dy":0,"medium":"process","role":"connection"},{"name":"signal","x":0,"y":
1000
50,"dx":0,"dy":1,"medium":"signal","role":"connection"}],"symbol":{"name":"Control valve","category":"P&ID","labelOffset":48,"geometryRevision":3,"convention":"ISO-10628-2 family","conformity":"Origin
1000
al master; not standards-certified","standardRefs":["ISO-10628-2"],"normativeEntry":null,"review":{"level":"geometry-and-convention","dimensionalConformance":"not-verified","note":"Native elliptical d
1000
iaphragm cap and a connected signal terminal."},"group":"Valves & actuators","aliases":["control valve"],"defaultLayer":"Equipment","extents":{"minX":-45,"minY":-18,"maxX":45,"maxY":50}}}
0
LINE
5
138
330
11D
100
AcDbEntity
8
0
62
0
6
CONTINUOUS
100
AcDbLine
10
-45
20
0
30
0
11
-25
21
0
31
0
1001
CONDUITCAD
1000
{"id":"master-control-valve-0"}
0
LINE
5
139
330
11D
100
AcDbEntity
8
0
62
0
6
CONTINUOUS
100
AcDbLine
10
25
20
0
30
0
11
45
21
0
31
0
1001
CONDUITCAD
1000
{"id":"master-control-valve-1"}
0
LWPOLYLINE
5
13A
330
11D
100
AcDbEntity
8
0
62
0
6
CONTINUOUS
100
AcDbPolyline
90
3
70
1
10
-25
20
-18
10
0
20
0
10
-25
20
18
1001
CONDUITCAD
1000
{"id":"master-control-valve-2"}
0
LWPOLYLINE
5
13B
330
11D
100
AcDbEntity
8
0
62
0
6
CONTINUOUS
100
AcDbPolyline
90
3
70
1
10
25
20
-18
10
0
20
0
10
25
20
18
1001
CONDUITCAD
1000
{"id":"master-control-valve-3"}
0
LINE
5
13C
330
11D
100
AcDbEntity
8
0
62
0
6
CONTINUOUS
100
AcDbLine
10
0
20
0
30
0
11
0
21
30
31
0
1001
CONDUITCAD
1000
{"id":"master-control-valve-4"}
0
LINE
5
13D
330
11D
100
AcDbEntity
8
0
62
0
6
CONTINUOUS
100
AcDbLine
10
-20
20
30
30
0
11
20
21
30
31
0
1001
CONDUITCAD
1000
{"id":"master-control-valve-5"}
0
ELLIPSE
5
13E
330
11D
100
AcDbEntity
8
0
62
0
6
CONTINUOUS
100
AcDbEllipse
10
0
20
30
30
0
11
20
21
0
31
0
40
0.7
41
0
42
3.141592653589793
1001
CONDUITCAD
1000
{"id":"master-control-valve-6"}
0
LINE
5
13F
330
11D
100
AcDbEntity
8
0
62
0
6
CONTINUOUS
100
AcDbLine
10
0
20
44
30
0
11
0
21
50
31
0
1001
CONDUITCAD
1000
{"id":"master-control-valve-7"}
0
ENDBLK
5
140
330
11D
100
AcDbEntity
8
0
100
AcDbBlockEnd
0
BLOCK
5
141
330
11E
100
AcDbEntity
8
0
100
AcDbBlockBegin
2
CC_PLATE_EXCHANGER
70
0
10
0
20
0
30
0
3
CC_PLATE_EXCHANGER
1

1001
CONDUITCAD
1000
{"ports":[{"name":"in","x":-45,"y":0,"dx":-1,"dy":0,"medium":"process","role":"connection"},{"name":"out","x":45,"y":0,"dx":1,"dy":0,"medium":"process","role":"connection"},{"name":"top","x":0,"y":45,
1000
"dx":0,"dy":1,"medium":"process","role":"connection"},{"name":"bottom","x":0,"y":-45,"dx":0,"dy":-1,"medium":"process","role":"connection"}],"symbol":{"name":"Plate heat exchanger","category":"P&ID","
1000
group":"Equipment","geometryRevision":3,"standardRefs":["ISO-10628-2"],"convention":"ISO-10628-2 family","conformity":"Original master; not standards-certified","normativeEntry":null,"review":{"level"
1000
:"geometry-and-convention","dimensionalConformance":"not-verified","note":"New independently constructed CAD master with explicit terminal topology."},"aliases":["plate exchanger"],"defaultLayer":"Equ
1000
ipment","labelOffset":67,"extents":{"minX":-45,"minY":-45,"maxX":45,"maxY":45}}}
0
LWPOLYLINE
5
142
330
11E
100
AcDbEntity
8
0
62
0
6
CONTINUOUS
100
AcDbPolyline
90
4
70
1
10
-30
20
-35
10
30
20
-35
10
30
20
35
10
-30
20
35
1001
CONDUITCAD
1000
{"id":"master-plate-exchanger-0"}
0
LINE
5
143
330
11E
100
AcDbEntity
8
0
62
0
6
CONTINUOUS
100
AcDbLine
10
-45
20
0
30
0
11
-30
21
0
31
0
1001
CONDUITCAD
1000
{"id":"master-plate-exchanger-1"}
0
LINE
5
144
330
11E
100
AcDbEntity
8
0
62
0
6
CONTINUOUS
100
AcDbLine
10
30
20
0
30
0
11
45
21
0
31
0
1001
CONDUITCAD
1000
{"id":"master-plate-exchanger-2"}
0
LINE
5
145
330
11E
100
AcDbEntity
8
0
62
0
6
CONTINUOUS
100
AcDbLine
10
0
20
35
30
0
11
0
21
45
31
0
1001
CONDUITCAD
1000
{"id":"master-plate-exchanger-3"}
0
LINE
5
146
330
11E
100
AcDbEntity
8
0
62
0
6
CONTINUOUS
100
AcDbLine
10
0
20
-35
30
0
11
0
21
-45
31
0
1001
CONDUITCAD
1000
{"id":"master-plate-exchanger-4"}
0
LINE
5
147
330
11E
100
AcDbEntity
8
0
62
0
6
CONTINUOUS
100
AcDbLine
10
-25
20
-27
30
0
11
-11
21
27
31
0
1001
CONDUITCAD
1000
{"id":"master-plate-exchanger-5"}
0
LINE
5
148
330
11E
100
AcDbEntity
8
0
62
0
6
CONTINUOUS
100
AcDbLine
10
-13
20
-27
30
0
11
1
21
27
31
0
1001
CONDUITCAD
1000
{"id":"master-plate-exchanger-6"}
0
LINE
5
149
330
11E
100
AcDbEntity
8
0
62
0
6
CONTINUOUS
100
AcDbLine
10
-1
20
-27
30
0
11
13
21
27
31
0
1001
CONDUITCAD
1000
{"id":"master-plate-exchanger-7"}
0
LINE
5
14A
330
11E
100
AcDbEntity
8
0
62
0
6
CONTINUOUS
100
AcDbLine
10
11
20
-27
30
0
11
25
21
27
31
0
1001
CONDUITCAD
1000
{"id":"master-plate-exchanger-8"}
0
ENDBLK
5
14B
330
11E
100
AcDbEntity
8
0
100
AcDbBlockEnd
0
BLOCK
5
14C
330
11F
100
AcDbEntity
8
0
100
AcDbBlockBegin
2
CC_PUMP
70
0
10
0
20
0
30
0
3
CC_PUMP
1

1001
CONDUITCAD
1000
{"ports":[{"name":"in","x":-45,"y":0,"dx":-1,"dy":0,"medium":"process","role":"connection"},{"name":"out","x":45,"y":0,"dx":1,"dy":0,"medium":"process","role":"connection"},{"name":"top","x":0,"y":45,
1000
"dx":0,"dy":1,"medium":"process","role":"connection"},{"name":"bottom","x":0,"y":-45,"dx":0,"dy":-1,"medium":"process","role":"connection"}],"symbol":{"name":"Centrifugal pump","category":"P&ID","labe
1000
lOffset":67,"geometryRevision":3,"convention":"ISO-10628-2 family","conformity":"Original master; not standards-certified","standardRefs":["ISO-10628-2"],"normativeEntry":null,"review":{"level":"geome
1000
try-and-convention","dimensionalConformance":"not-verified","note":"Reviewed: silhouette, terminal positions, normal state and distinct function retained."},"group":"Equipment & instruments","aliases"
1000
:["pump"],"defaultLayer":"Equipment","extents":{"minX":-45,"minY":-45,"maxX":45,"maxY":45}}}
0
LINE
5
14D
330
11F
100
AcDbEntity
8
0
62
0
6
CONTINUOUS
100
AcDbLine
10
-45
20
0
30
0
11
-27
21
0
31
0
1001
CONDUITCAD
1000
{"id":"master-pump-0"}
0
LINE
5
14E
330
11F
100
AcDbEntity
8
0
62
0
6
CONTINUOUS
100
AcDbLine
10
27
20
0
30
0
11
45
21
0
31
0
1001
CONDUITCAD
1000
{"id":"master-pump-1"}
0
LINE
5
14F
330
11F
100
AcDbEntity
8
0
62
0
6
CONTINUOUS
100
AcDbLine
10
0
20
27
30
0
11
0
21
45
31
0
1001
CONDUITCAD
1000
{"id":"master-pump-2"}
0
LINE
5
150
330
11F
100
AcDbEntity
8
0
62
0
6
CONTINUOUS
100
AcDbLine
10
0
20
-27
30
0
11
0
21
-45
31
0
1001
CONDUITCAD
1000
{"id":"master-pump-3"}
0
CIRCLE
5
151
330
11F
100
AcDbEntity
8
0
62
0
6
CONTINUOUS
100
AcDbCircle
10
0
20
0
30
0
40
27
1001
CONDUITCAD
1000
{"id":"master-pump-4"}
0
LWPOLYLINE
5
152
330
11F
100
AcDbEntity
8
0
62
0
6
CONTINUOUS
100
AcDbPolyline
90
3
70
1
10
-15
20
-18
10
23
20
0
10
-15
20
18
1001
CONDUITCAD
1000
{"id":"master-pump-5"}
0
LINE
5
153
330
11F
100
AcDbEntity
8
0
62
0
6
CONTINUOUS
100
AcDbLine
10
-22
20
-31
30
0
11
22
21
-31
31
0
1001
CONDUITCAD
1000
{"id":"master-pump-6"}
0
ENDBLK
5
154
330
11F
100
AcDbEntity
8
0
100
AcDbBlockEnd
0
BLOCK
5
155
330
120
100
AcDbEntity
8
0
100
AcDbBlockBegin
2
CC_TEMPERATURE_CONTROLLER
70
0
10
0
20
0
30
0
3
CC_TEMPERATURE_CONTROLLER
1

1001
CONDUITCAD
1000
{"ports":[{"name":"sense","x":0,"y":-45,"dx":0,"dy":-1,"medium":"signal","role":"connection"}],"symbol":{"name":"Temperature indicating controller","category":"Instrumentation","group":"Control functi
1000
ons","functionCode":"TIC","instrumentLocation":"field","aliases":["TIC","temperature controller"],"geometryRevision":3,"standardRefs":["ISA-5.1"],"convention":"ISA-5.1 family","conformity":"Original m
1000
aster; not standards-certified","normativeEntry":null,"review":{"level":"geometry-and-convention","dimensionalConformance":"not-verified","note":"New independently constructed CAD master with explicit
1000
 terminal topology."},"defaultLayer":"Instruments","labelOffset":67,"extents":{"minX":-26,"minY":-45,"maxX":26,"maxY":25.970550818758205}}}
0
CIRCLE
5
156
330
120
100
AcDbEntity
8
0
62
0
6
CONTINUOUS
100
AcDbCircle
10
0
20
0
30
0
40
26
1001
CONDUITCAD
1000
{"id":"master-temperature-controller-0"}
0
TEXT
5
157
330
120
100
AcDbEntity
8
0
62
0
6
CONTINUOUS
100
AcDbText
10
0
20
-5
30
0
40
12
1
TIC
50
0
41
1
7
STANDARD
72
1
11
0
21
-5
31
0
100
AcDbText
73
0
1001
CONDUITCAD
1000
{"id":"master-temperature-controller-1"}
0
LINE
5
158
330
120
100
AcDbEntity
8
0
62
0
6
CONTINUOUS
100
AcDbLine
10
0
20
-26
30
0
11
0
21
-45
31
0
1001
CONDUITCAD
1000
{"id":"master-temperature-controller-2"}
0
ENDBLK
5
159
330
120
100
AcDbEntity
8
0
100
AcDbBlockEnd
0
ENDSEC
0
SECTION
2
ENTITIES
0
INSERT
5
15A
330
119
100
AcDbEntity
8
Equipment
100
AcDbBlockReference
2
CC_GATE_VALVE
10
130
20
360
30
0
41
1
42
1
43
1
50
0
66
1
1001
CONDUITCAD
1000
{"id":"e-mugr5p3t-18u","tag":"HV-101"}
0
ATTRIB
5
15B
330
119
100
AcDbEntity
8
Equipment
100
AcDbText
10
130
20
312
30
0
40
12
1
HV-101
50
0
41
1
7
STANDARD
72
1
11
130
21
312
31
0
100
AcDbAttribute
2
TAG
70
0
74
0
0
SEQEND
5
15C
100
AcDbEntity
8
Equipment
0
INSERT
5
15D
330
119
100
AcDbEntity
8
Equipment
100
AcDbBlockReference
2
CC_MIXER
10
360
20
360
30
0
41
1
42
1
43
1
50
0
66
1
1001
CONDUITCAD
1000
{"id":"e-mugr5p3t-18v","tag":"R-101"}
0
ATTRIB
5
15E
330
119
100
AcDbEntity
8
Equipment
100
AcDbText
10
360
20
283
30
0
40
12
1
R-101
50
0
41
1
7
STANDARD
72
1
11
360
21
283
31
0
100
AcDbAttribute
2
TAG
70
0
74
0
0
SEQEND
5
15F
100
AcDbEntity
8
Equipment
0
INSERT
5
160
330
119
100
AcDbEntity
8
Equipment
100
AcDbBlockReference
2
CC_CONTROL_VALVE
10
600
20
360
30
0
41
1
42
1
43
1
50
0
66
1
1001
CONDUITCAD
1000
{"id":"e-mugr5p3t-18w","tag":"TCV-101"}
0
ATTRIB
5
161
330
119
100
AcDbEntity
8
Equipment
100
AcDbText
10
600
20
312
30
0
40
12
1
TCV-101
50
0
41
1
7
STANDARD
72
1
11
600
21
312
31
0
100
AcDbAttribute
2
TAG
70
0
74
0
0
SEQEND
5
162
100
AcDbEntity
8
Equipment
0
INSERT
5
163
330
119
100
AcDbEntity
8
Equipment
100
AcDbBlockReference
2
CC_PLATE_EXCHANGER
10
860
20
360
30
0
41
1
42
1
43
1
50
0
66
1
1001
CONDUITCAD
1000
{"id":"e-mugr5p3t-18x","tag":"E-101"}
0
ATTRIB
5
164
330
119
100
AcDbEntity
8
Equipment
100
AcDbText
10
860
20
293
30
0
40
12
1
E-101
50
0
41
1
7
STANDARD
72
1
11
860
21
293
31
0
100
AcDbAttribute
2
TAG
70
0
74
0
0
SEQEND
5
165
100
AcDbEntity
8
Equipment
0
INSERT
5
166
330
119
100
AcDbEntity
8
Equipment
100
AcDbBlockReference
2
CC_PUMP
10
600
20
160
30
0
41
1
42
1
43
1
50
0
66
1
1001
CONDUITCAD
1000
{"id":"e-mugr5p3t-18y","tag":"P-101"}
0
ATTRIB
5
167
330
119
100
AcDbEntity
8
Equipment
100
AcDbText
10
600
20
93
30
0
40
12
1
P-101
50
0
41
1
7
STANDARD
72
1
11
600
21
93
31
0
100
AcDbAttribute
2
TAG
70
0
74
0
0
SEQEND
5
168
100
AcDbEntity
8
Equipment
0
INSERT
5
169
330
119
100
AcDbEntity
8
Instruments
100
AcDbBlockReference
2
CC_TEMPERATURE_CONTROLLER
10
600
20
490
30
0
41
1
42
1
43
1
50
0
66
1
1001
CONDUITCAD
1000
{"id":"e-mugr5p3t-18z","tag":"TIC-101"}
0
ATTRIB
5
16A
330
119
100
AcDbEntity
8
Instruments
100
AcDbText
10
600
20
423
30
0
40
12
1
TIC-101
50
0
41
1
7
STANDARD
72
1
11
600
21
423
31
0
100
AcDbAttribute
2
TAG
70
0
74
0
0
SEQEND
5
16B
100
AcDbEntity
8
Instruments
0
LWPOLYLINE
5
16C
330
119
100
AcDbEntity
8
Process
62
7
420
1342583
100
AcDbPolyline
90
2
70
0
10
175
20
360
10
315
20
360
1001
CONDUITCAD
1000
{"id":"e-mugr5p3t-190","connector":{"from":{"entityId":"e-mugr5p3t-18u","port":"out"},"to":{"entityId":"e-mugr5p3t-18v","port":"in"},"style":"process","arrow":"end","waypoints":[],"status":"routed"},"
1000
label":"","dash":[],"width":2}
0
LWPOLYLINE
5
16D
330
119
100
AcDbEntity
8
Process
62
7
420
1342583
100
AcDbPolyline
90
2
70
0
10
405
20
360
10
555
20
360
1001
CONDUITCAD
1000
{"id":"e-mugr5p3t-191","connector":{"from":{"entityId":"e-mugr5p3t-18v","port":"out"},"to":{"entityId":"e-mugr5p3t-18w","port":"in"},"style":"process","arrow":"end","waypoints":[],"status":"routed"},"
1000
label":"","dash":[],"width":2}
0
LWPOLYLINE
5
16E
330
119
100
AcDbEntity
8
Process
62
7
420
1342583
100
AcDbPolyline
90
2
70
0
10
645
20
360
10
815
20
360
1001
CONDUITCAD
1000
{"id":"e-mugr5p3t-192","connector":{"from":{"entityId":"e-mugr5p3t-18w","port":"out"},"to":{"entityId":"e-mugr5p3t-18x","port":"in"},"style":"process","arrow":"end","waypoints":[],"status":"routed"},"
1000
label":"","dash":[],"width":2}
0
LWPOLYLINE
5
16F
330
119
100
AcDbEntity
8
Process
62
7
420
1342583
100
AcDbPolyline
90
6
70
0
10
905
20
360
10
923
20
360
10
923
20
213.001
10
537
20
213.001
10
537
20
160
10
555
20
160
1001
CONDUITCAD
1000
{"id":"e-mugr5p3u-193","connector":{"from":{"entityId":"e-mugr5p3t-18x","port":"out"},"to":{"entityId":"e-mugr5p3t-18y","port":"in"},"style":"process","arrow":"end","waypoints":[],"status":"routed"},"
1000
label":"","dash":[],"width":2}
0
LWPOLYLINE
5
170
330
119
100
AcDbEntity
8
Process
62
7
420
1342583
100
AcDbPolyline
90
5
70
0
10
645
20
160
10
663
20
160
10
663
20
287
10
360
20
287
10
360
20
305
1001
CONDUITCAD
1000
{"id":"e-mugr5p3u-194","connector":{"from":{"entityId":"e-mugr5p3t-18y","port":"out"},"to":{"entityId":"e-mugr5p3t-18v","port":"bottom"},"style":"process","arrow":"end","waypoints":[],"status":"routed
1000
"},"label":"","dash":[],"width":2}
0
LWPOLYLINE
5
171
330
119
100
AcDbEntity
8
Instruments
62
7
420
11172939
6
CC_DASH_6_4
100
AcDbPolyline
90
4
70
0
10
600
20
445
10
600
20
427
10
600
20
428
10
600
20
410
1001
CONDUITCAD
1000
{"id":"e-mugr5p3u-195","connector":{"from":{"entityId":"e-mugr5p3t-18z","port":"sense"},"to":{"entityId":"e-mugr5p3t-18w","port":"signal"},"style":"signal","arrow":"none","waypoints":[],"status":"rout
1000
ed"},"label":"","dash":[6,4],"width":1.5}
0
TEXT
5
172
330
119
100
AcDbEntity
8
Annotations
100
AcDbText
10
40
20
620
30
0
40
27
1
Batch reactor and heat transfer
50
0
41
1
7
STANDARD
100
AcDbText
73
0
1001
CONDUITCAD
1000
{"id":"e-mugr5p3u-196"}
0
TEXT
5
173
330
119
100
AcDbEntity
8
Annotations
100
AcDbText
10
40
20
584
30
0
40
13
1
Chemical & petrochemical  /  Piping & instrumentation
50
0
41
1
7
STANDARD
100
AcDbText
73
0
1001
CONDUITCAD
1000
{"id":"e-mugr5p3u-197"}
0
LINE
5
174
330
119
100
AcDbEntity
8
Annotations
100
AcDbLine
10
40
20
562
30
0
11
1120
21
562
31
0
1001
CONDUITCAD
1000
{"id":"e-mugr5p3u-198"}
0
TEXT
5
175
330
119
100
AcDbEntity
8
Annotations
100
AcDbText
10
40
20
42
30
0
40
11
1
CONCEPT SCHEMATIC — NOT FOR CONSTRUCTION
50
0
41
1
7
STANDARD
100
AcDbText
73
0
1001
CONDUITCAD
1000
{"id":"e-mugr5p3u-199"}
0
TEXT
5
176
330
119
100
AcDbEntity
8
Annotations
100
AcDbText
10
650
20
42
30
0
40
11
1
CHEMICAL-BATCH  |  REV 03  |  mm
50
0
41
1
7
STANDARD
100
AcDbText
73
0
1001
CONDUITCAD
1000
{"id":"e-mugr5p3u-19a"}
0
ENDSEC
0
EOF
