0
SECTION
2
HEADER
9
$ACADVER
1
AC1024
9
$INSUNITS
70
4
9
$LTSCALE
40
1
9
$MEASUREMENT
70
1
999
CONDUIT:{"parameters":{"grid":"10","pipeWidth":"2","valveSize":"64"},"constraints":[],"metadata":{"author":"","description":"Panel, detection, call point and alarm devices. Functional diag
999
CONDUIT:ram, not fire signage or compliance design.","industry":"Fire protection","drawingType":"Alarm-system topology","templateId":"fire-alarm","standardRefs":["PROJECT"],"geometryRevisi
999
CONDUIT:on":3,"approval":"Concept schematic; engineering approval required"}}
0
ENDSEC
0
SECTION
2
TABLES
0
TABLE
2
LTYPE
5
100
330
0
100
AcDbSymbolTable
70
1
0
LTYPE
5
101
100
AcDbSymbolTableRecord
100
AcDbLinetypeTableRecord
2
CONTINUOUS
70
0
3
Solid line
72
65
73
0
40
0
0
LTYPE
5
102
100
AcDbSymbolTableRecord
100
AcDbLinetypeTableRecord
2
DASHED
70
0
3
DASHED
72
65
73
2
40
12
49
8
74
0
49
-4
74
0
0
LTYPE
5
103
100
AcDbSymbolTableRecord
100
AcDbLinetypeTableRecord
2
CENTER
70
0
3
CENTER
72
65
73
4
40
20
49
12
74
0
49
-3
74
0
49
2
74
0
49
-3
74
0
0
LTYPE
5
104
100
AcDbSymbolTableRecord
100
AcDbLinetypeTableRecord
2
HIDDEN
70
0
3
HIDDEN
72
65
73
2
40
7
49
4
74
0
49
-3
74
0
0
ENDTAB
0
TABLE
2
LAYER
5
105
330
0
100
AcDbSymbolTable
70
13
0
LAYER
5
106
100
AcDbSymbolTableRecord
100
AcDbLayerTableRecord
2
0
70
0
62
7
420
3426133
6
CONTINUOUS
0
LAYER
5
107
100
AcDbSymbolTableRecord
100
AcDbLayerTableRecord
2
Equipment
70
0
62
7
420
3495011
6
CONTINUOUS
0
LAYER
5
108
100
AcDbSymbolTableRecord
100
AcDbLayerTableRecord
2
Process
70
0
62
7
420
1342583
6
CONTINUOUS
0
LAYER
5
109
100
AcDbSymbolTableRecord
100
AcDbLayerTableRecord
2
Instruments
70
0
62
7
420
10187334
6
CONTINUOUS
0
LAYER
5
10A
100
AcDbSymbolTableRecord
100
AcDbLayerTableRecord
2
Electrical
70
0
62
7
420
6584250
6
CONTINUOUS
0
LAYER
5
10B
100
AcDbSymbolTableRecord
100
AcDbLayerTableRecord
2
Annotations
70
0
62
7
420
7438474
6
CONTINUOUS
0
LAYER
5
10C
100
AcDbSymbolTableRecord
100
AcDbLayerTableRecord
2
Hydraulics
70
0
62
7
420
3495011
6
CONTINUOUS
0
LAYER
5
10D
100
AcDbSymbolTableRecord
100
AcDbLayerTableRecord
2
Pneumatics
70
0
62
7
420
3495011
6
CONTINUOUS
0
LAYER
5
10E
100
AcDbSymbolTableRecord
100
AcDbLayerTableRecord
2
HVAC
70
0
62
7
420
3495011
6
CONTINUOUS
0
LAYER
5
10F
100
AcDbSymbolTableRecord
100
AcDbLayerTableRecord
2
Water
70
0
62
7
420
3495011
6
CONTINUOUS
0
LAYER
5
110
100
AcDbSymbolTableRecord
100
AcDbLayerTableRecord
2
Automation
70
0
62
7
420
3495011
6
CONTINUOUS
0
LAYER
5
111
100
AcDbSymbolTableRecord
100
AcDbLayerTableRecord
2
Fire
70
0
62
7
420
3495011
6
CONTINUOUS
0
LAYER
5
112
100
AcDbSymbolTableRecord
100
AcDbLayerTableRecord
2
Network
70
0
62
7
420
3495011
6
CONTINUOUS
0
ENDTAB
0
TABLE
2
STYLE
5
113
330
0
100
AcDbSymbolTable
70
1
0
STYLE
5
114
100
AcDbSymbolTableRecord
100
AcDbTextStyleTableRecord
2
STANDARD
70
0
40
0
41
1
50
0
71
0
42
2.5
3
txt
4

0
ENDTAB
0
TABLE
2
APPID
5
115
330
0
100
AcDbSymbolTable
70
1
0
APPID
5
116
100
AcDbSymbolTableRecord
100
AcDbRegAppTableRecord
2
CONDUITCAD
70
0
0
ENDTAB
0
TABLE
2
BLOCK_RECORD
5
117
330
0
100
AcDbSymbolTable
70
7
0
BLOCK_RECORD
5
118
100
AcDbSymbolTableRecord
100
AcDbBlockTableRecord
2
*Model_Space
0
BLOCK_RECORD
5
119
100
AcDbSymbolTableRecord
100
AcDbBlockTableRecord
2
*Paper_Space
0
BLOCK_RECORD
5
11A
100
AcDbSymbolTableRecord
100
AcDbBlockTableRecord
2
CC_FIRE_PANEL
0
BLOCK_RECORD
5
11B
100
AcDbSymbolTableRecord
100
AcDbBlockTableRecord
2
CC_FIRE_SMOKE
0
BLOCK_RECORD
5
11C
100
AcDbSymbolTableRecord
100
AcDbBlockTableRecord
2
CC_FIRE_HEAT
0
BLOCK_RECORD
5
11D
100
AcDbSymbolTableRecord
100
AcDbBlockTableRecord
2
CC_FIRE_CALL
0
BLOCK_RECORD
5
11E
100
AcDbSymbolTableRecord
100
AcDbBlockTableRecord
2
CC_FIRE_SOUNDER
0
ENDTAB
0
ENDSEC
0
SECTION
2
BLOCKS
0
BLOCK
5
11F
330
118
100
AcDbEntity
8
0
100
AcDbBlockBegin
2
*Model_Space
70
0
10
0
20
0
30
0
3
*Model_Space
1

1001
CONDUITCAD
1000
{"ports":[]}
0
ENDBLK
5
120
330
118
100
AcDbEntity
8
0
100
AcDbBlockEnd
0
BLOCK
5
121
330
119
100
AcDbEntity
8
0
100
AcDbBlockBegin
2
*Paper_Space
70
0
10
0
20
0
30
0
3
*Paper_Space
1

1001
CONDUITCAD
1000
{"ports":[]}
0
ENDBLK
5
122
330
119
100
AcDbEntity
8
0
100
AcDbBlockEnd
0
BLOCK
5
123
330
11A
100
AcDbEntity
8
0
100
AcDbBlockBegin
2
CC_FIRE_PANEL
70
0
10
0
20
0
30
0
3
CC_FIRE_PANEL
1

1001
CONDUITCAD
1000
{"ports":[{"name":"in","x":-45,"y":0,"dx":-1,"dy":0,"medium":"alarm","role":"connection"},{"name":"out","x":45,"y":0,"dx":1,"dy":0,"medium":"alarm","role":"connection"}],"symbol":{"name":"Fire-alarm c
1000
ontrol panel","category":"Fire","group":"Alarm system topology","representation":"project functional symbol","safetySign":false,"geometryRevision":3,"standardRefs":["PROJECT"],"convention":"Explicit p
1000
roject drafting convention","conformity":"Original master; not standards-certified","normativeEntry":null,"review":{"level":"geometry-and-convention","dimensionalConformance":"not-verified","note":"Ne
1000
w independently constructed CAD master with explicit terminal topology."},"aliases":["fire panel"],"defaultLayer":"Fire","labelOffset":48,"extents":{"minX":-45,"minY":-22,"maxX":45,"maxY":22}}}
0
LWPOLYLINE
5
124
330
11A
100
AcDbEntity
8
0
62
0
6
CONTINUOUS
100
AcDbPolyline
90
4
70
1
10
-32
20
-22
10
32
20
-22
10
32
20
22
10
-32
20
22
1001
CONDUITCAD
1000
{"id":"master-fire-panel-0"}
0
LINE
5
125
330
11A
100
AcDbEntity
8
0
62
0
6
CONTINUOUS
100
AcDbLine
10
-45
20
0
30
0
11
-32
21
0
31
0
1001
CONDUITCAD
1000
{"id":"master-fire-panel-1"}
0
LINE
5
126
330
11A
100
AcDbEntity
8
0
62
0
6
CONTINUOUS
100
AcDbLine
10
32
20
0
30
0
11
45
21
0
31
0
1001
CONDUITCAD
1000
{"id":"master-fire-panel-2"}
0
TEXT
5
127
330
11A
100
AcDbEntity
8
0
62
0
6
CONTINUOUS
100
AcDbText
10
0
20
-4
30
0
40
11
1
FACP
50
0
41
1
7
STANDARD
72
1
11
0
21
-4
31
0
100
AcDbText
73
0
1001
CONDUITCAD
1000
{"id":"master-fire-panel-3"}
0
ENDBLK
5
128
330
11A
100
AcDbEntity
8
0
100
AcDbBlockEnd
0
BLOCK
5
129
330
11B
100
AcDbEntity
8
0
100
AcDbBlockBegin
2
CC_FIRE_SMOKE
70
0
10
0
20
0
30
0
3
CC_FIRE_SMOKE
1

1001
CONDUITCAD
1000
{"ports":[{"name":"in","x":-45,"y":0,"dx":-1,"dy":0,"medium":"alarm","role":"connection"},{"name":"out","x":45,"y":0,"dx":1,"dy":0,"medium":"alarm","role":"connection"}],"symbol":{"name":"Smoke detect
1000
or","category":"Fire","group":"Alarm system topology","representation":"project functional symbol","safetySign":false,"geometryRevision":3,"standardRefs":["PROJECT"],"convention":"Explicit project dra
1000
fting convention","conformity":"Original master; not standards-certified","normativeEntry":null,"review":{"level":"geometry-and-convention","dimensionalConformance":"not-verified","note":"New independ
1000
ently constructed CAD master with explicit terminal topology."},"aliases":["fire smoke"],"defaultLayer":"Fire","labelOffset":48,"extents":{"minX":-45,"minY":-25.970550818758205,"maxX":45,"maxY":25.970
1000
550818758205}}}
0
LINE
5
12A
330
11B
100
AcDbEntity
8
0
62
0
6
CONTINUOUS
100
AcDbLine
10
-45
20
0
30
0
11
-26
21
0
31
0
1001
CONDUITCAD
1000
{"id":"master-fire-smoke-0"}
0
LINE
5
12B
330
11B
100
AcDbEntity
8
0
62
0
6
CONTINUOUS
100
AcDbLine
10
26
20
0
30
0
11
45
21
0
31
0
1001
CONDUITCAD
1000
{"id":"master-fire-smoke-1"}
0
CIRCLE
5
12C
330
11B
100
AcDbEntity
8
0
62
0
6
CONTINUOUS
100
AcDbCircle
10
0
20
0
30
0
40
26
1001
CONDUITCAD
1000
{"id":"master-fire-smoke-2"}
0
TEXT
5
12D
330
11B
100
AcDbEntity
8
0
62
0
6
CONTINUOUS
100
AcDbText
10
0
20
-4
30
0
40
11
1
SD
50
0
41
1
7
STANDARD
72
1
11
0
21
-4
31
0
100
AcDbText
73
0
1001
CONDUITCAD
1000
{"id":"master-fire-smoke-3"}
0
ENDBLK
5
12E
330
11B
100
AcDbEntity
8
0
100
AcDbBlockEnd
0
BLOCK
5
12F
330
11C
100
AcDbEntity
8
0
100
AcDbBlockBegin
2
CC_FIRE_HEAT
70
0
10
0
20
0
30
0
3
CC_FIRE_HEAT
1

1001
CONDUITCAD
1000
{"ports":[{"name":"in","x":-45,"y":0,"dx":-1,"dy":0,"medium":"alarm","role":"connection"},{"name":"out","x":45,"y":0,"dx":1,"dy":0,"medium":"alarm","role":"connection"}],"symbol":{"name":"Heat detecto
1000
r","category":"Fire","group":"Alarm system topology","representation":"project functional symbol","safetySign":false,"geometryRevision":3,"standardRefs":["PROJECT"],"convention":"Explicit project draf
1000
ting convention","conformity":"Original master; not standards-certified","normativeEntry":null,"review":{"level":"geometry-and-convention","dimensionalConformance":"not-verified","note":"New independe
1000
ntly constructed CAD master with explicit terminal topology."},"aliases":["fire heat"],"defaultLayer":"Fire","labelOffset":48,"extents":{"minX":-45,"minY":-25.970550818758205,"maxX":45,"maxY":25.97055
1000
0818758205}}}
0
LINE
5
130
330
11C
100
AcDbEntity
8
0
62
0
6
CONTINUOUS
100
AcDbLine
10
-45
20
0
30
0
11
-26
21
0
31
0
1001
CONDUITCAD
1000
{"id":"master-fire-heat-0"}
0
LINE
5
131
330
11C
100
AcDbEntity
8
0
62
0
6
CONTINUOUS
100
AcDbLine
10
26
20
0
30
0
11
45
21
0
31
0
1001
CONDUITCAD
1000
{"id":"master-fire-heat-1"}
0
CIRCLE
5
132
330
11C
100
AcDbEntity
8
0
62
0
6
CONTINUOUS
100
AcDbCircle
10
0
20
0
30
0
40
26
1001
CONDUITCAD
1000
{"id":"master-fire-heat-2"}
0
TEXT
5
133
330
11C
100
AcDbEntity
8
0
62
0
6
CONTINUOUS
100
AcDbText
10
0
20
-4
30
0
40
11
1
HD
50
0
41
1
7
STANDARD
72
1
11
0
21
-4
31
0
100
AcDbText
73
0
1001
CONDUITCAD
1000
{"id":"master-fire-heat-3"}
0
ENDBLK
5
134
330
11C
100
AcDbEntity
8
0
100
AcDbBlockEnd
0
BLOCK
5
135
330
11D
100
AcDbEntity
8
0
100
AcDbBlockBegin
2
CC_FIRE_CALL
70
0
10
0
20
0
30
0
3
CC_FIRE_CALL
1

1001
CONDUITCAD
1000
{"ports":[{"name":"in","x":-45,"y":0,"dx":-1,"dy":0,"medium":"alarm","role":"connection"},{"name":"out","x":45,"y":0,"dx":1,"dy":0,"medium":"alarm","role":"connection"}],"symbol":{"name":"Manual call 
1000
point","category":"Fire","group":"Alarm system topology","representation":"project functional symbol","safetySign":false,"geometryRevision":3,"standardRefs":["PROJECT"],"convention":"Explicit project 
1000
drafting convention","conformity":"Original master; not standards-certified","normativeEntry":null,"review":{"level":"geometry-and-convention","dimensionalConformance":"not-verified","note":"New indep
1000
endently constructed CAD master with explicit terminal topology."},"aliases":["fire call"],"defaultLayer":"Fire","labelOffset":48,"extents":{"minX":-45,"minY":-22,"maxX":45,"maxY":22}}}
0
LWPOLYLINE
5
136
330
11D
100
AcDbEntity
8
0
62
0
6
CONTINUOUS
100
AcDbPolyline
90
4
70
1
10
-32
20
-22
10
32
20
-22
10
32
20
22
10
-32
20
22
1001
CONDUITCAD
1000
{"id":"master-fire-call-0"}
0
LINE
5
137
330
11D
100
AcDbEntity
8
0
62
0
6
CONTINUOUS
100
AcDbLine
10
-45
20
0
30
0
11
-32
21
0
31
0
1001
CONDUITCAD
1000
{"id":"master-fire-call-1"}
0
LINE
5
138
330
11D
100
AcDbEntity
8
0
62
0
6
CONTINUOUS
100
AcDbLine
10
32
20
0
30
0
11
45
21
0
31
0
1001
CONDUITCAD
1000
{"id":"master-fire-call-2"}
0
TEXT
5
139
330
11D
100
AcDbEntity
8
0
62
0
6
CONTINUOUS
100
AcDbText
10
0
20
-4
30
0
40
11
1
MCP
50
0
41
1
7
STANDARD
72
1
11
0
21
-4
31
0
100
AcDbText
73
0
1001
CONDUITCAD
1000
{"id":"master-fire-call-3"}
0
ENDBLK
5
13A
330
11D
100
AcDbEntity
8
0
100
AcDbBlockEnd
0
BLOCK
5
13B
330
11E
100
AcDbEntity
8
0
100
AcDbBlockBegin
2
CC_FIRE_SOUNDER
70
0
10
0
20
0
30
0
3
CC_FIRE_SOUNDER
1

1001
CONDUITCAD
1000
{"ports":[{"name":"in","x":-45,"y":0,"dx":-1,"dy":0,"medium":"alarm","role":"connection"},{"name":"out","x":45,"y":0,"dx":1,"dy":0,"medium":"alarm","role":"connection"}],"symbol":{"name":"Alarm sounde
1000
r","category":"Fire","group":"Alarm system topology","representation":"project functional symbol","safetySign":false,"geometryRevision":3,"standardRefs":["PROJECT"],"convention":"Explicit project draf
1000
ting convention","conformity":"Original master; not standards-certified","normativeEntry":null,"review":{"level":"geometry-and-convention","dimensionalConformance":"not-verified","note":"New independe
1000
ntly constructed CAD master with explicit terminal topology."},"aliases":["fire sounder"],"defaultLayer":"Fire","labelOffset":48,"extents":{"minX":-45,"minY":-25.970550818758205,"maxX":45,"maxY":25.97
1000
0550818758205}}}
0
LINE
5
13C
330
11E
100
AcDbEntity
8
0
62
0
6
CONTINUOUS
100
AcDbLine
10
-45
20
0
30
0
11
-26
21
0
31
0
1001
CONDUITCAD
1000
{"id":"master-fire-sounder-0"}
0
LINE
5
13D
330
11E
100
AcDbEntity
8
0
62
0
6
CONTINUOUS
100
AcDbLine
10
26
20
0
30
0
11
45
21
0
31
0
1001
CONDUITCAD
1000
{"id":"master-fire-sounder-1"}
0
CIRCLE
5
13E
330
11E
100
AcDbEntity
8
0
62
0
6
CONTINUOUS
100
AcDbCircle
10
0
20
0
30
0
40
26
1001
CONDUITCAD
1000
{"id":"master-fire-sounder-2"}
0
TEXT
5
13F
330
11E
100
AcDbEntity
8
0
62
0
6
CONTINUOUS
100
AcDbText
10
0
20
-4
30
0
40
11
1
SND
50
0
41
1
7
STANDARD
72
1
11
0
21
-4
31
0
100
AcDbText
73
0
1001
CONDUITCAD
1000
{"id":"master-fire-sounder-3"}
0
ENDBLK
5
140
330
11E
100
AcDbEntity
8
0
100
AcDbBlockEnd
0
ENDSEC
0
SECTION
2
ENTITIES
0
INSERT
5
141
330
118
100
AcDbEntity
8
Fire
100
AcDbBlockReference
2
CC_FIRE_PANEL
10
130
20
350
30
0
41
1
42
1
43
1
50
0
66
1
1001
CONDUITCAD
1000
{"id":"e-mugr5p6m-1dt","tag":"FACP1"}
0
ATTRIB
5
142
330
118
100
AcDbEntity
8
Fire
100
AcDbText
10
130
20
302
30
0
40
12
1
FACP1
50
0
41
1
7
STANDARD
72
1
11
130
21
302
31
0
100
AcDbAttribute
2
TAG
70
0
74
0
0
SEQEND
5
143
100
AcDbEntity
8
Fire
0
INSERT
5
144
330
118
100
AcDbEntity
8
Fire
100
AcDbBlockReference
2
CC_FIRE_SMOKE
10
320
20
350
30
0
41
1
42
1
43
1
50
0
66
1
1001
CONDUITCAD
1000
{"id":"e-mugr5p6m-1du","tag":"SD1"}
0
ATTRIB
5
145
330
118
100
AcDbEntity
8
Fire
100
AcDbText
10
320
20
302
30
0
40
12
1
SD1
50
0
41
1
7
STANDARD
72
1
11
320
21
302
31
0
100
AcDbAttribute
2
TAG
70
0
74
0
0
SEQEND
5
146
100
AcDbEntity
8
Fire
0
INSERT
5
147
330
118
100
AcDbEntity
8
Fire
100
AcDbBlockReference
2
CC_FIRE_HEAT
10
510
20
350
30
0
41
1
42
1
43
1
50
0
66
1
1001
CONDUITCAD
1000
{"id":"e-mugr5p6m-1dv","tag":"HD1"}
0
ATTRIB
5
148
330
118
100
AcDbEntity
8
Fire
100
AcDbText
10
510
20
302
30
0
40
12
1
HD1
50
0
41
1
7
STANDARD
72
1
11
510
21
302
31
0
100
AcDbAttribute
2
TAG
70
0
74
0
0
SEQEND
5
149
100
AcDbEntity
8
Fire
0
INSERT
5
14A
330
118
100
AcDbEntity
8
Fire
100
AcDbBlockReference
2
CC_FIRE_CALL
10
700
20
350
30
0
41
1
42
1
43
1
50
0
66
1
1001
CONDUITCAD
1000
{"id":"e-mugr5p6m-1dw","tag":"MCP1"}
0
ATTRIB
5
14B
330
118
100
AcDbEntity
8
Fire
100
AcDbText
10
700
20
302
30
0
40
12
1
MCP1
50
0
41
1
7
STANDARD
72
1
11
700
21
302
31
0
100
AcDbAttribute
2
TAG
70
0
74
0
0
SEQEND
5
14C
100
AcDbEntity
8
Fire
0
INSERT
5
14D
330
118
100
AcDbEntity
8
Fire
100
AcDbBlockReference
2
CC_FIRE_SOUNDER
10
890
20
350
30
0
41
1
42
1
43
1
50
0
66
1
1001
CONDUITCAD
1000
{"id":"e-mugr5p6m-1dx","tag":"SND1"}
0
ATTRIB
5
14E
330
118
100
AcDbEntity
8
Fire
100
AcDbText
10
890
20
302
30
0
40
12
1
SND1
50
0
41
1
7
STANDARD
72
1
11
890
21
302
31
0
100
AcDbAttribute
2
TAG
70
0
74
0
0
SEQEND
5
14F
100
AcDbEntity
8
Fire
0
LWPOLYLINE
5
150
330
118
100
AcDbEntity
8
Fire
62
7
420
12411989
100
AcDbPolyline
90
2
70
0
10
175
20
350
10
275
20
350
1001
CONDUITCAD
1000
{"id":"e-mugr5p6n-1dy","connector":{"from":{"entityId":"e-mugr5p6m-1dt","port":"out"},"to":{"entityId":"e-mugr5p6m-1du","port":"in"},"style":"alarm","arrow":"none","waypoints":[],"status":"routed"},"l
1000
abel":"","dash":[],"width":1.6}
0
LWPOLYLINE
5
151
330
118
100
AcDbEntity
8
Fire
62
7
420
12411989
100
AcDbPolyline
90
2
70
0
10
365
20
350
10
465
20
350
1001
CONDUITCAD
1000
{"id":"e-mugr5p6n-1dz","connector":{"from":{"entityId":"e-mugr5p6m-1du","port":"out"},"to":{"entityId":"e-mugr5p6m-1dv","port":"in"},"style":"alarm","arrow":"none","waypoints":[],"status":"routed"},"l
1000
abel":"","dash":[],"width":1.6}
0
LWPOLYLINE
5
152
330
118
100
AcDbEntity
8
Fire
62
7
420
12411989
100
AcDbPolyline
90
2
70
0
10
555
20
350
10
655
20
350
1001
CONDUITCAD
1000
{"id":"e-mugr5p6n-1e0","connector":{"from":{"entityId":"e-mugr5p6m-1dv","port":"out"},"to":{"entityId":"e-mugr5p6m-1dw","port":"in"},"style":"alarm","arrow":"none","waypoints":[],"status":"routed"},"l
1000
abel":"","dash":[],"width":1.6}
0
LWPOLYLINE
5
153
330
118
100
AcDbEntity
8
Fire
62
7
420
12411989
100
AcDbPolyline
90
2
70
0
10
745
20
350
10
845
20
350
1001
CONDUITCAD
1000
{"id":"e-mugr5p6n-1e1","connector":{"from":{"entityId":"e-mugr5p6m-1dw","port":"out"},"to":{"entityId":"e-mugr5p6m-1dx","port":"in"},"style":"alarm","arrow":"none","waypoints":[],"status":"routed"},"l
1000
abel":"","dash":[],"width":1.6}
0
TEXT
5
154
330
118
100
AcDbEntity
8
Annotations
100
AcDbText
10
40
20
620
30
0
40
27
1
Fire-alarm topology
50
0
41
1
7
STANDARD
100
AcDbText
73
0
1001
CONDUITCAD
1000
{"id":"e-mugr5p6n-1e2"}
0
TEXT
5
155
330
118
100
AcDbEntity
8
Annotations
100
AcDbText
10
40
20
584
30
0
40
13
1
Fire protection  /  Alarm-system topology
50
0
41
1
7
STANDARD
100
AcDbText
73
0
1001
CONDUITCAD
1000
{"id":"e-mugr5p6n-1e3"}
0
LINE
5
156
330
118
100
AcDbEntity
8
Annotations
100
AcDbLine
10
40
20
562
30
0
11
1120
21
562
31
0
1001
CONDUITCAD
1000
{"id":"e-mugr5p6n-1e4"}
0
TEXT
5
157
330
118
100
AcDbEntity
8
Annotations
100
AcDbText
10
40
20
42
30
0
40
11
1
CONCEPT SCHEMATIC — NOT FOR CONSTRUCTION
50
0
41
1
7
STANDARD
100
AcDbText
73
0
1001
CONDUITCAD
1000
{"id":"e-mugr5p6n-1e5"}
0
TEXT
5
158
330
118
100
AcDbEntity
8
Annotations
100
AcDbText
10
650
20
42
30
0
40
11
1
FIRE-ALARM  |  REV 03  |  mm
50
0
41
1
7
STANDARD
100
AcDbText
73
0
1001
CONDUITCAD
1000
{"id":"e-mugr5p6n-1e6"}
0
ENDSEC
0
EOF
