0
SECTION
2
HEADER
9
$ACADVER
1
AC1024
9
$INSUNITS
70
4
9
$LTSCALE
40
1
9
$MEASUREMENT
70
1
999
CONDUIT:{"parameters":{"grid":"10","pipeWidth":"2","valveSize":"64"},"constraints":[],"metadata":{"author":"","description":"Storage, pumping, heat exchange and sample point; hygienic desi
999
CONDUIT:gn is not inferred from the symbol.","industry":"Food & beverage","drawingType":"Process flow diagram","templateId":"food-beverage","standardRefs":["ISO-10628-2","PROJECT"],"geomet
999
CONDUIT:ryRevision":3,"approval":"Concept schematic; engineering approval required"}}
9
$HANDSEED
5
174
9
$DWGCODEPAGE
3
ANSI_1252
9
$CLAYER
8
0
9
$TILEMODE
70
1
0
ENDSEC
0
SECTION
2
TABLES
0
TABLE
2
LTYPE
5
131
330
0
100
AcDbSymbolTable
70
4
0
LTYPE
5
132
100
AcDbSymbolTableRecord
100
AcDbLinetypeTableRecord
2
CONTINUOUS
70
0
3
Solid line
72
65
73
0
40
0
330
131
0
LTYPE
5
133
100
AcDbSymbolTableRecord
100
AcDbLinetypeTableRecord
2
DASHED
70
0
3
DASHED
72
65
73
2
40
12
49
8
74
0
49
-4
74
0
330
131
0
LTYPE
5
134
100
AcDbSymbolTableRecord
100
AcDbLinetypeTableRecord
2
CENTER
70
0
3
CENTER
72
65
73
4
40
20
49
12
74
0
49
-3
74
0
49
2
74
0
49
-3
74
0
330
131
0
LTYPE
5
135
100
AcDbSymbolTableRecord
100
AcDbLinetypeTableRecord
2
HIDDEN
70
0
3
HIDDEN
72
65
73
2
40
7
49
4
74
0
49
-3
74
0
330
131
0
ENDTAB
0
TABLE
2
LAYER
5
136
330
0
100
AcDbSymbolTable
70
13
0
LAYER
5
137
100
AcDbSymbolTableRecord
100
AcDbLayerTableRecord
2
0
70
0
62
7
420
3426133
6
CONTINUOUS
330
136
0
LAYER
5
138
100
AcDbSymbolTableRecord
100
AcDbLayerTableRecord
2
Equipment
70
0
62
7
420
3495011
6
CONTINUOUS
330
136
0
LAYER
5
139
100
AcDbSymbolTableRecord
100
AcDbLayerTableRecord
2
Process
70
0
62
7
420
1342583
6
CONTINUOUS
330
136
0
LAYER
5
13A
100
AcDbSymbolTableRecord
100
AcDbLayerTableRecord
2
Instruments
70
0
62
7
420
10187334
6
CONTINUOUS
330
136
0
LAYER
5
13B
100
AcDbSymbolTableRecord
100
AcDbLayerTableRecord
2
Electrical
70
0
62
7
420
6584250
6
CONTINUOUS
330
136
0
LAYER
5
13C
100
AcDbSymbolTableRecord
100
AcDbLayerTableRecord
2
Annotations
70
0
62
7
420
7438474
6
CONTINUOUS
330
136
0
LAYER
5
13D
100
AcDbSymbolTableRecord
100
AcDbLayerTableRecord
2
Hydraulics
70
0
62
7
420
3495011
6
CONTINUOUS
330
136
0
LAYER
5
13E
100
AcDbSymbolTableRecord
100
AcDbLayerTableRecord
2
Pneumatics
70
0
62
7
420
3495011
6
CONTINUOUS
330
136
0
LAYER
5
13F
100
AcDbSymbolTableRecord
100
AcDbLayerTableRecord
2
HVAC
70
0
62
7
420
3495011
6
CONTINUOUS
330
136
0
LAYER
5
140
100
AcDbSymbolTableRecord
100
AcDbLayerTableRecord
2
Water
70
0
62
7
420
3495011
6
CONTINUOUS
330
136
0
LAYER
5
141
100
AcDbSymbolTableRecord
100
AcDbLayerTableRecord
2
Automation
70
0
62
7
420
3495011
6
CONTINUOUS
330
136
0
LAYER
5
142
100
AcDbSymbolTableRecord
100
AcDbLayerTableRecord
2
Fire
70
0
62
7
420
3495011
6
CONTINUOUS
330
136
0
LAYER
5
143
100
AcDbSymbolTableRecord
100
AcDbLayerTableRecord
2
Network
70
0
62
7
420
3495011
6
CONTINUOUS
330
136
0
ENDTAB
0
TABLE
2
STYLE
5
144
330
0
100
AcDbSymbolTable
70
1
0
STYLE
5
145
100
AcDbSymbolTableRecord
100
AcDbTextStyleTableRecord
2
STANDARD
70
0
40
0
41
1
50
0
71
0
42
2.5
3
txt
4

330
144
0
ENDTAB
0
TABLE
2
APPID
5
146
330
0
100
AcDbSymbolTable
70
2
0
APPID
5
147
100
AcDbSymbolTableRecord
100
AcDbRegAppTableRecord
2
CONDUITCAD
70
0
330
146
0
APPID
5
16D
100
AcDbSymbolTableRecord
100
AcDbRegAppTableRecord
2
ACAD
70
0
330
146
0
ENDTAB
0
TABLE
2
BLOCK_RECORD
5
148
330
0
100
AcDbSymbolTable
70
7
0
BLOCK_RECORD
5
149
100
AcDbSymbolTableRecord
100
AcDbBlockTableRecord
2
*Model_Space
340
171
330
148
0
BLOCK_RECORD
5
14A
100
AcDbSymbolTableRecord
100
AcDbBlockTableRecord
2
*Paper_Space
340
172
330
148
0
BLOCK_RECORD
5
14B
100
AcDbSymbolTableRecord
100
AcDbBlockTableRecord
2
CC_TANK
330
148
0
BLOCK_RECORD
5
14C
100
AcDbSymbolTableRecord
100
AcDbBlockTableRecord
2
CC_PUMP
330
148
0
BLOCK_RECORD
5
14D
100
AcDbSymbolTableRecord
100
AcDbBlockTableRecord
2
CC_PLATE_EXCHANGER
330
148
0
BLOCK_RECORD
5
14E
100
AcDbSymbolTableRecord
100
AcDbBlockTableRecord
2
CC_SAMPLING_POINT
330
148
0
BLOCK_RECORD
5
14F
100
AcDbSymbolTableRecord
100
AcDbBlockTableRecord
2
CC_DIAPHRAGM_VALVE
330
148
0
ENDTAB
0
TABLE
2
VPORT
5
168
330
0
100
AcDbSymbolTable
70
0
0
ENDTAB
0
TABLE
2
VIEW
5
169
330
0
100
AcDbSymbolTable
70
0
0
ENDTAB
0
TABLE
2
UCS
5
16A
330
0
100
AcDbSymbolTable
70
0
0
ENDTAB
0
TABLE
2
DIMSTYLE
5
16B
330
0
100
AcDbSymbolTable
70
1
100
AcDbDimStyleTable
71
0
0
DIMSTYLE
105
16C
330
16B
100
AcDbSymbolTableRecord
100
AcDbDimStyleTableRecord
2
STANDARD
70
0
340
145
0
ENDTAB
0
ENDSEC
0
SECTION
2
BLOCKS
0
BLOCK
5
150
330
149
100
AcDbEntity
8
0
100
AcDbBlockBegin
2
*Model_Space
70
1
10
0
20
0
30
0
3
*Model_Space
1

1001
CONDUITCAD
1000
{"ports":[]}
0
ENDBLK
5
151
330
149
100
AcDbEntity
8
0
100
AcDbBlockEnd
0
BLOCK
5
152
330
14A
100
AcDbEntity
8
0
100
AcDbBlockBegin
2
*Paper_Space
70
1
10
0
20
0
30
0
3
*Paper_Space
1

1001
CONDUITCAD
1000
{"ports":[]}
0
ENDBLK
5
153
330
14A
100
AcDbEntity
8
0
100
AcDbBlockEnd
0
BLOCK
5
154
330
14B
100
AcDbEntity
8
0
100
AcDbBlockBegin
2
CC_TANK
70
0
10
0
20
0
30
0
3
CC_TANK
1

1001
CONDUITCAD
1000
{"ports":[{"name":"in","x":-45,"y":0,"dx":-1,"dy":0,"medium":"process","role":"connection"},{"name":"out","x":45,"y":0,"dx":1,"dy":0,"medium":"process","role":"connection"},{"name":"top","x":0,"y":75,
1000
"dx":0,"dy":1,"medium":"process","role":"connection"},{"name":"bottom","x":0,"y":-88,"dx":0,"dy":-1,"medium":"process","role":"connection"}],"symbol":{"name":"Storage tank","category":"P&ID","labelOff
1000
set":110,"geometryRevision":3,"convention":"ISO-10628-2 family","conformity":"Original master; not standards-certified","standardRefs":["ISO-10628-2"],"normativeEntry":null,"review":{"level":"geometry
1000
-and-convention","dimensionalConformance":"not-verified","note":"Flat-bottom storage tank is distinct from a domed pressure vessel."},"group":"Equipment & instruments","aliases":["tank"],"defaultLayer
1000
":"Equipment","extents":{"minX":-45,"minY":-88,"maxX":45,"maxY":75}}}
0
LINE
5
10E
330
14B
100
AcDbEntity
8
0
62
0
6
CONTINUOUS
100
AcDbLine
10
-35
20
-45
30
0
11
-35
21
35
31
0
1001
CONDUITCAD
1000
{"id":"master-tank-0"}
0
LINE
5
10F
330
14B
100
AcDbEntity
8
0
62
0
6
CONTINUOUS
100
AcDbLine
10
35
20
-45
30
0
11
35
21
35
31
0
1001
CONDUITCAD
1000
{"id":"master-tank-1"}
0
LINE
5
110
330
14B
100
AcDbEntity
8
0
62
0
6
CONTINUOUS
100
AcDbLine
10
-35
20
-45
30
0
11
35
21
-45
31
0
1001
CONDUITCAD
1000
{"id":"master-tank-2"}
0
ELLIPSE
5
111
330
14B
100
AcDbEntity
8
0
62
0
6
CONTINUOUS
100
AcDbEllipse
10
0
20
35
30
0
11
35
21
0
31
0
40
0.2857142857142857
41
0
42
6.283185307179586
1001
CONDUITCAD
1000
{"id":"master-tank-3"}
0
LINE
5
112
330
14B
100
AcDbEntity
8
0
62
0
6
CONTINUOUS
100
AcDbLine
10
-45
20
0
30
0
11
-35
21
0
31
0
1001
CONDUITCAD
1000
{"id":"master-tank-4"}
0
LINE
5
113
330
14B
100
AcDbEntity
8
0
62
0
6
CONTINUOUS
100
AcDbLine
10
35
20
0
30
0
11
45
21
0
31
0
1001
CONDUITCAD
1000
{"id":"master-tank-5"}
0
LINE
5
114
330
14B
100
AcDbEntity
8
0
62
0
6
CONTINUOUS
100
AcDbLine
10
0
20
45
30
0
11
0
21
75
31
0
1001
CONDUITCAD
1000
{"id":"master-tank-6"}
0
LINE
5
115
330
14B
100
AcDbEntity
8
0
62
0
6
CONTINUOUS
100
AcDbLine
10
0
20
-45
30
0
11
0
21
-88
31
0
1001
CONDUITCAD
1000
{"id":"master-tank-7"}
0
ENDBLK
5
155
330
14B
100
AcDbEntity
8
0
100
AcDbBlockEnd
0
BLOCK
5
156
330
14C
100
AcDbEntity
8
0
100
AcDbBlockBegin
2
CC_PUMP
70
0
10
0
20
0
30
0
3
CC_PUMP
1

1001
CONDUITCAD
1000
{"ports":[{"name":"in","x":-45,"y":0,"dx":-1,"dy":0,"medium":"process","role":"connection"},{"name":"out","x":45,"y":0,"dx":1,"dy":0,"medium":"process","role":"connection"},{"name":"top","x":0,"y":45,
1000
"dx":0,"dy":1,"medium":"process","role":"connection"},{"name":"bottom","x":0,"y":-45,"dx":0,"dy":-1,"medium":"process","role":"connection"}],"symbol":{"name":"Centrifugal pump","category":"P&ID","labe
1000
lOffset":67,"geometryRevision":3,"convention":"ISO-10628-2 family","conformity":"Original master; not standards-certified","standardRefs":["ISO-10628-2"],"normativeEntry":null,"review":{"level":"geome
1000
try-and-convention","dimensionalConformance":"not-verified","note":"Reviewed: silhouette, terminal positions, normal state and distinct function retained."},"group":"Equipment & instruments","aliases"
1000
:["pump"],"defaultLayer":"Equipment","extents":{"minX":-45,"minY":-45,"maxX":45,"maxY":45}}}
0
LINE
5
116
330
14C
100
AcDbEntity
8
0
62
0
6
CONTINUOUS
100
AcDbLine
10
-45
20
0
30
0
11
-27
21
0
31
0
1001
CONDUITCAD
1000
{"id":"master-pump-0"}
0
LINE
5
117
330
14C
100
AcDbEntity
8
0
62
0
6
CONTINUOUS
100
AcDbLine
10
27
20
0
30
0
11
45
21
0
31
0
1001
CONDUITCAD
1000
{"id":"master-pump-1"}
0
LINE
5
118
330
14C
100
AcDbEntity
8
0
62
0
6
CONTINUOUS
100
AcDbLine
10
0
20
27
30
0
11
0
21
45
31
0
1001
CONDUITCAD
1000
{"id":"master-pump-2"}
0
LINE
5
119
330
14C
100
AcDbEntity
8
0
62
0
6
CONTINUOUS
100
AcDbLine
10
0
20
-27
30
0
11
0
21
-45
31
0
1001
CONDUITCAD
1000
{"id":"master-pump-3"}
0
CIRCLE
5
11A
330
14C
100
AcDbEntity
8
0
62
0
6
CONTINUOUS
100
AcDbCircle
10
0
20
0
30
0
40
27
1001
CONDUITCAD
1000
{"id":"master-pump-4"}
0
LWPOLYLINE
5
11B
330
14C
100
AcDbEntity
8
0
62
0
6
CONTINUOUS
100
AcDbPolyline
90
3
70
1
10
-15
20
-18
10
23
20
0
10
-15
20
18
1001
CONDUITCAD
1000
{"id":"master-pump-5"}
0
LINE
5
11C
330
14C
100
AcDbEntity
8
0
62
0
6
CONTINUOUS
100
AcDbLine
10
-22
20
-31
30
0
11
22
21
-31
31
0
1001
CONDUITCAD
1000
{"id":"master-pump-6"}
0
ENDBLK
5
157
330
14C
100
AcDbEntity
8
0
100
AcDbBlockEnd
0
BLOCK
5
158
330
14D
100
AcDbEntity
8
0
100
AcDbBlockBegin
2
CC_PLATE_EXCHANGER
70
0
10
0
20
0
30
0
3
CC_PLATE_EXCHANGER
1

1001
CONDUITCAD
1000
{"ports":[{"name":"in","x":-45,"y":0,"dx":-1,"dy":0,"medium":"process","role":"connection"},{"name":"out","x":45,"y":0,"dx":1,"dy":0,"medium":"process","role":"connection"},{"name":"top","x":0,"y":45,
1000
"dx":0,"dy":1,"medium":"process","role":"connection"},{"name":"bottom","x":0,"y":-45,"dx":0,"dy":-1,"medium":"process","role":"connection"}],"symbol":{"name":"Plate heat exchanger","category":"P&ID","
1000
group":"Equipment","geometryRevision":3,"standardRefs":["ISO-10628-2"],"convention":"ISO-10628-2 family","conformity":"Original master; not standards-certified","normativeEntry":null,"review":{"level"
1000
:"geometry-and-convention","dimensionalConformance":"not-verified","note":"New independently constructed CAD master with explicit terminal topology."},"aliases":["plate exchanger"],"defaultLayer":"Equ
1000
ipment","labelOffset":67,"extents":{"minX":-45,"minY":-45,"maxX":45,"maxY":45}}}
0
LWPOLYLINE
5
11D
330
14D
100
AcDbEntity
8
0
62
0
6
CONTINUOUS
100
AcDbPolyline
90
4
70
1
10
-30
20
-35
10
30
20
-35
10
30
20
35
10
-30
20
35
1001
CONDUITCAD
1000
{"id":"master-plate-exchanger-0"}
0
LINE
5
11E
330
14D
100
AcDbEntity
8
0
62
0
6
CONTINUOUS
100
AcDbLine
10
-45
20
0
30
0
11
-30
21
0
31
0
1001
CONDUITCAD
1000
{"id":"master-plate-exchanger-1"}
0
LINE
5
11F
330
14D
100
AcDbEntity
8
0
62
0
6
CONTINUOUS
100
AcDbLine
10
30
20
0
30
0
11
45
21
0
31
0
1001
CONDUITCAD
1000
{"id":"master-plate-exchanger-2"}
0
LINE
5
120
330
14D
100
AcDbEntity
8
0
62
0
6
CONTINUOUS
100
AcDbLine
10
0
20
35
30
0
11
0
21
45
31
0
1001
CONDUITCAD
1000
{"id":"master-plate-exchanger-3"}
0
LINE
5
121
330
14D
100
AcDbEntity
8
0
62
0
6
CONTINUOUS
100
AcDbLine
10
0
20
-35
30
0
11
0
21
-45
31
0
1001
CONDUITCAD
1000
{"id":"master-plate-exchanger-4"}
0
LINE
5
122
330
14D
100
AcDbEntity
8
0
62
0
6
CONTINUOUS
100
AcDbLine
10
-25
20
-27
30
0
11
-11
21
27
31
0
1001
CONDUITCAD
1000
{"id":"master-plate-exchanger-5"}
0
LINE
5
123
330
14D
100
AcDbEntity
8
0
62
0
6
CONTINUOUS
100
AcDbLine
10
-13
20
-27
30
0
11
1
21
27
31
0
1001
CONDUITCAD
1000
{"id":"master-plate-exchanger-6"}
0
LINE
5
124
330
14D
100
AcDbEntity
8
0
62
0
6
CONTINUOUS
100
AcDbLine
10
-1
20
-27
30
0
11
13
21
27
31
0
1001
CONDUITCAD
1000
{"id":"master-plate-exchanger-7"}
0
LINE
5
125
330
14D
100
AcDbEntity
8
0
62
0
6
CONTINUOUS
100
AcDbLine
10
11
20
-27
30
0
11
25
21
27
31
0
1001
CONDUITCAD
1000
{"id":"master-plate-exchanger-8"}
0
ENDBLK
5
159
330
14D
100
AcDbEntity
8
0
100
AcDbBlockEnd
0
BLOCK
5
15A
330
14E
100
AcDbEntity
8
0
100
AcDbBlockBegin
2
CC_SAMPLING_POINT
70
0
10
0
20
0
30
0
3
CC_SAMPLING_POINT
1

1001
CONDUITCAD
1000
{"ports":[{"name":"in","x":-45,"y":0,"dx":-1,"dy":0,"medium":"process","role":"connection"},{"name":"out","x":45,"y":0,"dx":1,"dy":0,"medium":"process","role":"connection"},{"name":"sample","x":0,"y":
1000
-45,"dx":0,"dy":-1,"medium":"process","role":"connection"}],"symbol":{"name":"Sampling point","category":"P&ID","group":"Fittings & connections","geometryRevision":3,"standardRefs":["ISO-10628-2"],"co
1000
nvention":"ISO-10628-2 family","conformity":"Original master; not standards-certified","normativeEntry":null,"review":{"level":"geometry-and-convention","dimensionalConformance":"not-verified","note":
1000
"New independently constructed CAD master with explicit terminal topology."},"aliases":["sampling point"],"defaultLayer":"Equipment","labelOffset":67,"extents":{"minX":-45,"minY":-45,"maxX":45,"maxY":
1000
0}}}
0
LINE
5
126
330
14E
100
AcDbEntity
8
0
62
0
6
CONTINUOUS
100
AcDbLine
10
-45
20
0
30
0
11
45
21
0
31
0
1001
CONDUITCAD
1000
{"id":"master-sampling-point-0"}
0
LINE
5
127
330
14E
100
AcDbEntity
8
0
62
0
6
CONTINUOUS
100
AcDbLine
10
0
20
0
30
0
11
0
21
-32
31
0
1001
CONDUITCAD
1000
{"id":"master-sampling-point-1"}
0
LWPOLYLINE
5
128
330
14E
100
AcDbEntity
8
0
62
0
6
CONTINUOUS
100
AcDbPolyline
90
3
70
1
10
-8
20
-17
10
8
20
-17
10
0
20
-25
1001
CONDUITCAD
1000
{"id":"master-sampling-point-2"}
0
LWPOLYLINE
5
129
330
14E
100
AcDbEntity
8
0
62
0
6
CONTINUOUS
100
AcDbPolyline
90
3
70
1
10
-8
20
-33
10
8
20
-33
10
0
20
-25
1001
CONDUITCAD
1000
{"id":"master-sampling-point-3"}
0
LINE
5
12A
330
14E
100
AcDbEntity
8
0
62
0
6
CONTINUOUS
100
AcDbLine
10
0
20
-33
30
0
11
0
21
-45
31
0
1001
CONDUITCAD
1000
{"id":"master-sampling-point-4"}
0
ENDBLK
5
15B
330
14E
100
AcDbEntity
8
0
100
AcDbBlockEnd
0
BLOCK
5
15C
330
14F
100
AcDbEntity
8
0
100
AcDbBlockBegin
2
CC_DIAPHRAGM_VALVE
70
0
10
0
20
0
30
0
3
CC_DIAPHRAGM_VALVE
1

1001
CONDUITCAD
1000
{"ports":[{"name":"in","x":-45,"y":0,"dx":-1,"dy":0,"medium":"process","role":"connection"},{"name":"out","x":45,"y":0,"dx":1,"dy":0,"medium":"process","role":"connection"}],"symbol":{"name":"Diaphrag
1000
m valve","category":"P&ID","group":"Valves & actuators","geometryRevision":3,"standardRefs":["ISO-10628-2"],"convention":"ISO-10628-2 family","conformity":"Original master; not standards-certified","n
1000
ormativeEntry":null,"review":{"level":"geometry-and-convention","dimensionalConformance":"not-verified","note":"New independently constructed CAD master with explicit terminal topology."},"aliases":["
1000
diaphragm valve"],"defaultLayer":"Equipment","labelOffset":48,"extents":{"minX":-45,"minY":-15,"maxX":45,"maxY":35}}}
0
LINE
5
12B
330
14F
100
AcDbEntity
8
0
62
0
6
CONTINUOUS
100
AcDbLine
10
-45
20
0
30
0
11
-25
21
0
31
0
1001
CONDUITCAD
1000
{"id":"master-diaphragm-valve-0"}
0
LINE
5
12C
330
14F
100
AcDbEntity
8
0
62
0
6
CONTINUOUS
100
AcDbLine
10
25
20
0
30
0
11
45
21
0
31
0
1001
CONDUITCAD
1000
{"id":"master-diaphragm-valve-1"}
0
LWPOLYLINE
5
12D
330
14F
100
AcDbEntity
8
0
62
0
6
CONTINUOUS
100
AcDbPolyline
90
4
70
0
10
-25
20
-15
10
-25
20
12
10
25
20
12
10
25
20
-15
1001
CONDUITCAD
1000
{"id":"master-diaphragm-valve-2"}
0
ELLIPSE
5
12E
330
14F
100
AcDbEntity
8
0
62
0
6
CONTINUOUS
100
AcDbEllipse
10
0
20
12
30
0
11
25
21
0
31
0
40
0.72
41
3.141592653589793
42
6.283185307179586
1001
CONDUITCAD
1000
{"id":"master-diaphragm-valve-3"}
0
LINE
5
12F
330
14F
100
AcDbEntity
8
0
62
0
6
CONTINUOUS
100
AcDbLine
10
0
20
12
30
0
11
0
21
35
31
0
1001
CONDUITCAD
1000
{"id":"master-diaphragm-valve-4"}
0
LINE
5
130
330
14F
100
AcDbEntity
8
0
62
0
6
CONTINUOUS
100
AcDbLine
10
-12
20
35
30
0
11
12
21
35
31
0
1001
CONDUITCAD
1000
{"id":"master-diaphragm-valve-5"}
0
ENDBLK
5
15D
330
14F
100
AcDbEntity
8
0
100
AcDbBlockEnd
0
ENDSEC
0
SECTION
2
ENTITIES
0
INSERT
5
100
330
149
100
AcDbEntity
8
Equipment
100
AcDbBlockReference
2
CC_TANK
10
130
20
350
30
0
41
1
42
1
43
1
50
0
66
1
1001
CONDUITCAD
1000
{"id":"e-muhairlo-19r","tag":"TK-101"}
0
ATTRIB
5
15E
330
100
100
AcDbEntity
8
Equipment
100
AcDbText
10
130
20
240
30
0
40
12
1
TK-101
50
0
41
1
7
STANDARD
72
1
11
130
21
240
31
0
100
AcDbAttribute
2
TAG
70
0
74
0
0
SEQEND
5
15F
330
100
100
AcDbEntity
8
Equipment
0
INSERT
5
101
330
149
100
AcDbEntity
8
Equipment
100
AcDbBlockReference
2
CC_PUMP
10
320
20
350
30
0
41
1
42
1
43
1
50
0
66
1
1001
CONDUITCAD
1000
{"id":"e-muhairlo-19s","tag":"P-101"}
0
ATTRIB
5
160
330
101
100
AcDbEntity
8
Equipment
100
AcDbText
10
320
20
283
30
0
40
12
1
P-101
50
0
41
1
7
STANDARD
72
1
11
320
21
283
31
0
100
AcDbAttribute
2
TAG
70
0
74
0
0
SEQEND
5
161
330
101
100
AcDbEntity
8
Equipment
0
INSERT
5
102
330
149
100
AcDbEntity
8
Equipment
100
AcDbBlockReference
2
CC_PLATE_EXCHANGER
10
510
20
350
30
0
41
1
42
1
43
1
50
0
66
1
1001
CONDUITCAD
1000
{"id":"e-muhairlo-19t","tag":"HX-101"}
0
ATTRIB
5
162
330
102
100
AcDbEntity
8
Equipment
100
AcDbText
10
510
20
283
30
0
40
12
1
HX-101
50
0
41
1
7
STANDARD
72
1
11
510
21
283
31
0
100
AcDbAttribute
2
TAG
70
0
74
0
0
SEQEND
5
163
330
102
100
AcDbEntity
8
Equipment
0
INSERT
5
103
330
149
100
AcDbEntity
8
Equipment
100
AcDbBlockReference
2
CC_SAMPLING_POINT
10
700
20
350
30
0
41
1
42
1
43
1
50
0
66
1
1001
CONDUITCAD
1000
{"id":"e-muhairlo-19u","tag":"SP-101"}
0
ATTRIB
5
164
330
103
100
AcDbEntity
8
Equipment
100
AcDbText
10
700
20
283
30
0
40
12
1
SP-101
50
0
41
1
7
STANDARD
72
1
11
700
21
283
31
0
100
AcDbAttribute
2
TAG
70
0
74
0
0
SEQEND
5
165
330
103
100
AcDbEntity
8
Equipment
0
INSERT
5
104
330
149
100
AcDbEntity
8
Equipment
100
AcDbBlockReference
2
CC_DIAPHRAGM_VALVE
10
890
20
350
30
0
41
1
42
1
43
1
50
0
66
1
1001
CONDUITCAD
1000
{"id":"e-muhairlo-19v","tag":"DV-101"}
0
ATTRIB
5
166
330
104
100
AcDbEntity
8
Equipment
100
AcDbText
10
890
20
302
30
0
40
12
1
DV-101
50
0
41
1
7
STANDARD
72
1
11
890
21
302
31
0
100
AcDbAttribute
2
TAG
70
0
74
0
0
SEQEND
5
167
330
104
100
AcDbEntity
8
Equipment
0
LWPOLYLINE
5
105
330
149
100
AcDbEntity
8
Process
62
7
420
1342583
100
AcDbPolyline
90
2
70
0
10
175
20
350
10
275
20
350
1001
CONDUITCAD
1000
{"id":"e-muhairlp-19w","connector":{"from":{"entityId":"e-muhairlo-19r","port":"out"},"to":{"entityId":"e-muhairlo-19s","port":"in"},"style":"process","arrow":"end","waypoints":[],"status":"routed"},"
1000
label":"","dash":[],"width":2}
0
LWPOLYLINE
5
106
330
149
100
AcDbEntity
8
Process
62
7
420
1342583
100
AcDbPolyline
90
2
70
0
10
365
20
350
10
465
20
350
1001
CONDUITCAD
1000
{"id":"e-muhairlp-19x","connector":{"from":{"entityId":"e-muhairlo-19s","port":"out"},"to":{"entityId":"e-muhairlo-19t","port":"in"},"style":"process","arrow":"end","waypoints":[],"status":"routed"},"
1000
label":"","dash":[],"width":2}
0
LWPOLYLINE
5
107
330
149
100
AcDbEntity
8
Process
62
7
420
1342583
100
AcDbPolyline
90
2
70
0
10
555
20
350
10
655
20
350
1001
CONDUITCAD
1000
{"id":"e-muhairlp-19y","connector":{"from":{"entityId":"e-muhairlo-19t","port":"out"},"to":{"entityId":"e-muhairlo-19u","port":"in"},"style":"process","arrow":"end","waypoints":[],"status":"routed"},"
1000
label":"","dash":[],"width":2}
0
LWPOLYLINE
5
108
330
149
100
AcDbEntity
8
Process
62
7
420
1342583
100
AcDbPolyline
90
2
70
0
10
745
20
350
10
845
20
350
1001
CONDUITCAD
1000
{"id":"e-muhairlp-19z","connector":{"from":{"entityId":"e-muhairlo-19u","port":"out"},"to":{"entityId":"e-muhairlo-19v","port":"in"},"style":"process","arrow":"end","waypoints":[],"status":"routed"},"
1000
label":"","dash":[],"width":2}
0
TEXT
5
109
330
149
100
AcDbEntity
8
Annotations
100
AcDbText
10
40
20
620
30
0
40
27
1
Product transfer and heating
50
0
41
1
7
STANDARD
100
AcDbText
73
0
1001
CONDUITCAD
1000
{"id":"e-muhairlp-1a0"}
0
TEXT
5
10A
330
149
100
AcDbEntity
8
Annotations
100
AcDbText
10
40
20
584
30
0
40
13
1
Food & beverage  /  Process flow diagram
50
0
41
1
7
STANDARD
100
AcDbText
73
0
1001
CONDUITCAD
1000
{"id":"e-muhairlp-1a1"}
0
LINE
5
10B
330
149
100
AcDbEntity
8
Annotations
100
AcDbLine
10
40
20
562
30
0
11
1120
21
562
31
0
1001
CONDUITCAD
1000
{"id":"e-muhairlp-1a2"}
0
TEXT
5
10C
330
149
100
AcDbEntity
8
Annotations
100
AcDbText
10
40
20
42
30
0
40
11
1
CONCEPT SCHEMATIC — NOT FOR CONSTRUCTION
50
0
41
1
7
STANDARD
100
AcDbText
73
0
1001
CONDUITCAD
1000
{"id":"e-muhairlp-1a3"}
0
TEXT
5
10D
330
149
100
AcDbEntity
8
Annotations
100
AcDbText
10
650
20
42
30
0
40
11
1
FOOD-BEVERAGE  |  REV 03  |  mm
50
0
41
1
7
STANDARD
100
AcDbText
73
0
1001
CONDUITCAD
1000
{"id":"e-muhairlp-1a4"}
0
ENDSEC
0
SECTION
2
OBJECTS
0
DICTIONARY
5
16E
330
0
100
AcDbDictionary
281
1
3
ACAD_LAYOUT
350
16F
3
ACAD_GROUP
350
170
3
CONDUITCAD_METADATA
350
173
0
DICTIONARY
5
16F
330
16E
100
AcDbDictionary
281
1
3
Model
350
171
3
Layout1
350
172
0
DICTIONARY
5
170
330
16E
100
AcDbDictionary
281
1
0
LAYOUT
5
171
330
16F
100
AcDbPlotSettings
1

2

4

6

40
0
41
0
42
0
43
0
44
420
45
297
46
0
47
0
48
0
49
0
140
0
141
0
142
1
143
1
70
0
72
1
73
0
74
5
7

75
16
76
0
77
0
78
300
147
1
148
0
149
0
100
AcDbLayout
1
Model
70
1
71
0
10
0
20
0
11
420
21
297
12
0
22
0
32
0
14
0
24
0
34
0
15
420
25
297
35
0
146
0
13
0
23
0
33
0
16
1
26
0
36
0
17
0
27
1
37
0
76
0
330
149
0
LAYOUT
5
172
330
16F
100
AcDbPlotSettings
1

2

4

6

40
0
41
0
42
0
43
0
44
420
45
297
46
0
47
0
48
0
49
0
140
0
141
0
142
1
143
1
70
0
72
1
73
0
74
5
7

75
16
76
0
77
0
78
300
147
1
148
0
149
0
100
AcDbLayout
1
Layout1
70
1
71
1
10
0
20
0
11
420
21
297
12
0
22
0
32
0
14
0
24
0
34
0
15
420
25
297
35
0
146
0
13
0
23
0
33
0
16
1
26
0
36
0
17
0
27
1
37
0
76
0
330
14A
0
XRECORD
5
173
330
16E
100
AcDbXrecord
280
1
1
{"parameters":{"grid":"10","pipeWidth":"2","valveSize":"64"},"constraints":[],"metadata":{"author":"","description":"Storage, pumping, heat exchange and sample point; hygienic design is not inferred f
1
rom the symbol.","industry":"Food & beverage","drawingType":"Process flow diagram","templateId":"food-beverage","standardRefs":["ISO-10628-2","PROJECT"],"geometryRevision":3,"approval":"Concept schema
1
tic; engineering approval required"}}
0
ENDSEC
0
EOF
