0
SECTION
2
HEADER
9
$ACADVER
1
AC1024
9
$INSUNITS
70
4
9
$LTSCALE
40
1
9
$MEASUREMENT
70
1
999
CONDUIT:{"parameters":{"grid":"10","pipeWidth":"2","valveSize":"64"},"constraints":[],"metadata":{"author":"","description":"Filter, heating and cooling coils, fan and controlled air outle
999
CONDUIT:t.","industry":"Building services","drawingType":"Air-system schematic","templateId":"hvac-air","standardRefs":["PROJECT"],"geometryRevision":3,"approval":"Concept schematic; engin
999
CONDUIT:eering approval required"}}
9
$HANDSEED
5
173
9
$DWGCODEPAGE
3
ANSI_1252
9
$CLAYER
8
0
9
$TILEMODE
70
1
0
ENDSEC
0
SECTION
2
TABLES
0
TABLE
2
LTYPE
5
12F
330
0
100
AcDbSymbolTable
70
5
0
LTYPE
5
130
100
AcDbSymbolTableRecord
100
AcDbLinetypeTableRecord
2
CONTINUOUS
70
0
3
Solid line
72
65
73
0
40
0
330
12F
0
LTYPE
5
131
100
AcDbSymbolTableRecord
100
AcDbLinetypeTableRecord
2
DASHED
70
0
3
DASHED
72
65
73
2
40
12
49
8
74
0
49
-4
74
0
330
12F
0
LTYPE
5
132
100
AcDbSymbolTableRecord
100
AcDbLinetypeTableRecord
2
CENTER
70
0
3
CENTER
72
65
73
4
40
20
49
12
74
0
49
-3
74
0
49
2
74
0
49
-3
74
0
330
12F
0
LTYPE
5
133
100
AcDbSymbolTableRecord
100
AcDbLinetypeTableRecord
2
HIDDEN
70
0
3
HIDDEN
72
65
73
2
40
7
49
4
74
0
49
-3
74
0
330
12F
0
LTYPE
5
134
100
AcDbSymbolTableRecord
100
AcDbLinetypeTableRecord
2
CC_DASH_4_3
70
0
3
CC_DASH_4_3
72
65
73
2
40
7
49
4
74
0
49
-3
74
0
330
12F
0
ENDTAB
0
TABLE
2
LAYER
5
135
330
0
100
AcDbSymbolTable
70
13
0
LAYER
5
136
100
AcDbSymbolTableRecord
100
AcDbLayerTableRecord
2
0
70
0
62
7
420
3426133
6
CONTINUOUS
330
135
0
LAYER
5
137
100
AcDbSymbolTableRecord
100
AcDbLayerTableRecord
2
Equipment
70
0
62
7
420
3495011
6
CONTINUOUS
330
135
0
LAYER
5
138
100
AcDbSymbolTableRecord
100
AcDbLayerTableRecord
2
Process
70
0
62
7
420
1342583
6
CONTINUOUS
330
135
0
LAYER
5
139
100
AcDbSymbolTableRecord
100
AcDbLayerTableRecord
2
Instruments
70
0
62
7
420
10187334
6
CONTINUOUS
330
135
0
LAYER
5
13A
100
AcDbSymbolTableRecord
100
AcDbLayerTableRecord
2
Electrical
70
0
62
7
420
6584250
6
CONTINUOUS
330
135
0
LAYER
5
13B
100
AcDbSymbolTableRecord
100
AcDbLayerTableRecord
2
Annotations
70
0
62
7
420
7438474
6
CONTINUOUS
330
135
0
LAYER
5
13C
100
AcDbSymbolTableRecord
100
AcDbLayerTableRecord
2
Hydraulics
70
0
62
7
420
3495011
6
CONTINUOUS
330
135
0
LAYER
5
13D
100
AcDbSymbolTableRecord
100
AcDbLayerTableRecord
2
Pneumatics
70
0
62
7
420
3495011
6
CONTINUOUS
330
135
0
LAYER
5
13E
100
AcDbSymbolTableRecord
100
AcDbLayerTableRecord
2
HVAC
70
0
62
7
420
3495011
6
CONTINUOUS
330
135
0
LAYER
5
13F
100
AcDbSymbolTableRecord
100
AcDbLayerTableRecord
2
Water
70
0
62
7
420
3495011
6
CONTINUOUS
330
135
0
LAYER
5
140
100
AcDbSymbolTableRecord
100
AcDbLayerTableRecord
2
Automation
70
0
62
7
420
3495011
6
CONTINUOUS
330
135
0
LAYER
5
141
100
AcDbSymbolTableRecord
100
AcDbLayerTableRecord
2
Fire
70
0
62
7
420
3495011
6
CONTINUOUS
330
135
0
LAYER
5
142
100
AcDbSymbolTableRecord
100
AcDbLayerTableRecord
2
Network
70
0
62
7
420
3495011
6
CONTINUOUS
330
135
0
ENDTAB
0
TABLE
2
STYLE
5
143
330
0
100
AcDbSymbolTable
70
1
0
STYLE
5
144
100
AcDbSymbolTableRecord
100
AcDbTextStyleTableRecord
2
STANDARD
70
0
40
0
41
1
50
0
71
0
42
2.5
3
txt
4

330
143
0
ENDTAB
0
TABLE
2
APPID
5
145
330
0
100
AcDbSymbolTable
70
2
0
APPID
5
146
100
AcDbSymbolTableRecord
100
AcDbRegAppTableRecord
2
CONDUITCAD
70
0
330
145
0
APPID
5
16C
100
AcDbSymbolTableRecord
100
AcDbRegAppTableRecord
2
ACAD
70
0
330
145
0
ENDTAB
0
TABLE
2
BLOCK_RECORD
5
147
330
0
100
AcDbSymbolTable
70
7
0
BLOCK_RECORD
5
148
100
AcDbSymbolTableRecord
100
AcDbBlockTableRecord
2
*Model_Space
340
170
330
147
0
BLOCK_RECORD
5
149
100
AcDbSymbolTableRecord
100
AcDbBlockTableRecord
2
*Paper_Space
340
171
330
147
0
BLOCK_RECORD
5
14A
100
AcDbSymbolTableRecord
100
AcDbBlockTableRecord
2
CC_HVAC_FILTER
330
147
0
BLOCK_RECORD
5
14B
100
AcDbSymbolTableRecord
100
AcDbBlockTableRecord
2
CC_HVAC_HEATING_COIL
330
147
0
BLOCK_RECORD
5
14C
100
AcDbSymbolTableRecord
100
AcDbBlockTableRecord
2
CC_HVAC_COOLING_COIL
330
147
0
BLOCK_RECORD
5
14D
100
AcDbSymbolTableRecord
100
AcDbBlockTableRecord
2
CC_HVAC_FAN
330
147
0
BLOCK_RECORD
5
14E
100
AcDbSymbolTableRecord
100
AcDbBlockTableRecord
2
CC_HVAC_MOTOR_DAMPER
330
147
0
ENDTAB
0
TABLE
2
VPORT
5
167
330
0
100
AcDbSymbolTable
70
0
0
ENDTAB
0
TABLE
2
VIEW
5
168
330
0
100
AcDbSymbolTable
70
0
0
ENDTAB
0
TABLE
2
UCS
5
169
330
0
100
AcDbSymbolTable
70
0
0
ENDTAB
0
TABLE
2
DIMSTYLE
5
16A
330
0
100
AcDbSymbolTable
70
1
100
AcDbDimStyleTable
71
0
0
DIMSTYLE
105
16B
330
16A
100
AcDbSymbolTableRecord
100
AcDbDimStyleTableRecord
2
STANDARD
70
0
340
144
0
ENDTAB
0
ENDSEC
0
SECTION
2
BLOCKS
0
BLOCK
5
14F
330
148
100
AcDbEntity
8
0
100
AcDbBlockBegin
2
*Model_Space
70
0
10
0
20
0
30
0
3
*Model_Space
1

1001
CONDUITCAD
1000
{"ports":[]}
0
ENDBLK
5
150
330
148
100
AcDbEntity
8
0
100
AcDbBlockEnd
0
BLOCK
5
151
330
149
100
AcDbEntity
8
0
100
AcDbBlockBegin
2
*Paper_Space
70
0
10
0
20
0
30
0
3
*Paper_Space
1

1001
CONDUITCAD
1000
{"ports":[]}
0
ENDBLK
5
152
330
149
100
AcDbEntity
8
0
100
AcDbBlockEnd
0
BLOCK
5
153
330
14A
100
AcDbEntity
8
0
100
AcDbBlockBegin
2
CC_HVAC_FILTER
70
0
10
0
20
0
30
0
3
CC_HVAC_FILTER
1

1001
CONDUITCAD
1000
{"ports":[{"name":"in","x":-45,"y":0,"dx":-1,"dy":0,"medium":"air","role":"connection"},{"name":"out","x":45,"y":0,"dx":1,"dy":0,"medium":"air","role":"connection"}],"symbol":{"name":"Duct filter","ca
1000
tegory":"HVAC","group":"Air & hydronic systems","geometryRevision":3,"standardRefs":["PROJECT"],"convention":"Explicit project drafting convention","conformity":"Original master; not standards-certifi
1000
ed","normativeEntry":null,"review":{"level":"geometry-and-convention","dimensionalConformance":"not-verified","note":"New independently constructed CAD master with explicit terminal topology."},"alias
1000
es":["hvac filter"],"defaultLayer":"HVAC","labelOffset":48,"extents":{"minX":-45,"minY":-25,"maxX":45,"maxY":25}}}
0
LWPOLYLINE
5
10E
330
14A
100
AcDbEntity
8
0
62
0
6
CONTINUOUS
100
AcDbPolyline
90
4
70
1
10
-30
20
-25
10
30
20
-25
10
30
20
25
10
-30
20
25
1001
CONDUITCAD
1000
{"id":"master-hvac-filter-0"}
0
LINE
5
10F
330
14A
100
AcDbEntity
8
0
62
0
6
CONTINUOUS
100
AcDbLine
10
-45
20
0
30
0
11
-30
21
0
31
0
1001
CONDUITCAD
1000
{"id":"master-hvac-filter-1"}
0
LINE
5
110
330
14A
100
AcDbEntity
8
0
62
0
6
CONTINUOUS
100
AcDbLine
10
30
20
0
30
0
11
45
21
0
31
0
1001
CONDUITCAD
1000
{"id":"master-hvac-filter-2"}
0
LINE
5
111
330
14A
100
AcDbEntity
8
0
62
0
6
CC_DASH_4_3
100
AcDbLine
10
-22
20
-25
30
0
11
22
21
25
31
0
1001
CONDUITCAD
1000
{"id":"master-hvac-filter-3","dash":[4,3]}
0
ENDBLK
5
154
330
14A
100
AcDbEntity
8
0
100
AcDbBlockEnd
0
BLOCK
5
155
330
14B
100
AcDbEntity
8
0
100
AcDbBlockBegin
2
CC_HVAC_HEATING_COIL
70
0
10
0
20
0
30
0
3
CC_HVAC_HEATING_COIL
1

1001
CONDUITCAD
1000
{"ports":[{"name":"in","x":-45,"y":0,"dx":-1,"dy":0,"medium":"air","role":"connection"},{"name":"out","x":45,"y":0,"dx":1,"dy":0,"medium":"air","role":"connection"}],"symbol":{"name":"Air heating coil
1000
","category":"HVAC","group":"Air & hydronic systems","geometryRevision":3,"standardRefs":["PROJECT"],"convention":"Explicit project drafting convention","conformity":"Original master; not standards-ce
1000
rtified","normativeEntry":null,"review":{"level":"geometry-and-convention","dimensionalConformance":"not-verified","note":"New independently constructed CAD master with explicit terminal topology."},"
1000
aliases":["hvac heating coil"],"defaultLayer":"HVAC","labelOffset":48,"extents":{"minX":-45,"minY":-25,"maxX":45,"maxY":25}}}
0
LWPOLYLINE
5
112
330
14B
100
AcDbEntity
8
0
62
0
6
CONTINUOUS
100
AcDbPolyline
90
4
70
1
10
-30
20
-25
10
30
20
-25
10
30
20
25
10
-30
20
25
1001
CONDUITCAD
1000
{"id":"master-hvac-heating-coil-0"}
0
LINE
5
113
330
14B
100
AcDbEntity
8
0
62
0
6
CONTINUOUS
100
AcDbLine
10
-45
20
0
30
0
11
-30
21
0
31
0
1001
CONDUITCAD
1000
{"id":"master-hvac-heating-coil-1"}
0
LINE
5
114
330
14B
100
AcDbEntity
8
0
62
0
6
CONTINUOUS
100
AcDbLine
10
30
20
0
30
0
11
45
21
0
31
0
1001
CONDUITCAD
1000
{"id":"master-hvac-heating-coil-2"}
0
LINE
5
115
330
14B
100
AcDbEntity
8
0
62
0
6
CONTINUOUS
100
AcDbLine
10
-18
20
-23
30
0
11
-18
21
23
31
0
1001
CONDUITCAD
1000
{"id":"master-hvac-heating-coil-3"}
0
LINE
5
116
330
14B
100
AcDbEntity
8
0
62
0
6
CONTINUOUS
100
AcDbLine
10
-6
20
-23
30
0
11
-6
21
23
31
0
1001
CONDUITCAD
1000
{"id":"master-hvac-heating-coil-4"}
0
LINE
5
117
330
14B
100
AcDbEntity
8
0
62
0
6
CONTINUOUS
100
AcDbLine
10
6
20
-23
30
0
11
6
21
23
31
0
1001
CONDUITCAD
1000
{"id":"master-hvac-heating-coil-5"}
0
LINE
5
118
330
14B
100
AcDbEntity
8
0
62
0
6
CONTINUOUS
100
AcDbLine
10
18
20
-23
30
0
11
18
21
23
31
0
1001
CONDUITCAD
1000
{"id":"master-hvac-heating-coil-6"}
0
TEXT
5
119
330
14B
100
AcDbEntity
8
0
62
0
6
CONTINUOUS
100
AcDbText
10
0
20
33
30
0
40
16
1
+
50
0
41
1
7
STANDARD
72
1
11
0
21
33
31
0
100
AcDbText
73
0
1001
CONDUITCAD
1000
{"id":"master-hvac-heating-coil-7"}
0
ENDBLK
5
156
330
14B
100
AcDbEntity
8
0
100
AcDbBlockEnd
0
BLOCK
5
157
330
14C
100
AcDbEntity
8
0
100
AcDbBlockBegin
2
CC_HVAC_COOLING_COIL
70
0
10
0
20
0
30
0
3
CC_HVAC_COOLING_COIL
1

1001
CONDUITCAD
1000
{"ports":[{"name":"in","x":-45,"y":0,"dx":-1,"dy":0,"medium":"air","role":"connection"},{"name":"out","x":45,"y":0,"dx":1,"dy":0,"medium":"air","role":"connection"}],"symbol":{"name":"Air cooling coil
1000
","category":"HVAC","group":"Air & hydronic systems","geometryRevision":3,"standardRefs":["PROJECT"],"convention":"Explicit project drafting convention","conformity":"Original master; not standards-ce
1000
rtified","normativeEntry":null,"review":{"level":"geometry-and-convention","dimensionalConformance":"not-verified","note":"New independently constructed CAD master with explicit terminal topology."},"
1000
aliases":["hvac cooling coil"],"defaultLayer":"HVAC","labelOffset":48,"extents":{"minX":-45,"minY":-25,"maxX":45,"maxY":25}}}
0
LWPOLYLINE
5
11A
330
14C
100
AcDbEntity
8
0
62
0
6
CONTINUOUS
100
AcDbPolyline
90
4
70
1
10
-30
20
-25
10
30
20
-25
10
30
20
25
10
-30
20
25
1001
CONDUITCAD
1000
{"id":"master-hvac-cooling-coil-0"}
0
LINE
5
11B
330
14C
100
AcDbEntity
8
0
62
0
6
CONTINUOUS
100
AcDbLine
10
-45
20
0
30
0
11
-30
21
0
31
0
1001
CONDUITCAD
1000
{"id":"master-hvac-cooling-coil-1"}
0
LINE
5
11C
330
14C
100
AcDbEntity
8
0
62
0
6
CONTINUOUS
100
AcDbLine
10
30
20
0
30
0
11
45
21
0
31
0
1001
CONDUITCAD
1000
{"id":"master-hvac-cooling-coil-2"}
0
LINE
5
11D
330
14C
100
AcDbEntity
8
0
62
0
6
CONTINUOUS
100
AcDbLine
10
-18
20
-23
30
0
11
-18
21
23
31
0
1001
CONDUITCAD
1000
{"id":"master-hvac-cooling-coil-3"}
0
LINE
5
11E
330
14C
100
AcDbEntity
8
0
62
0
6
CONTINUOUS
100
AcDbLine
10
-6
20
-23
30
0
11
-6
21
23
31
0
1001
CONDUITCAD
1000
{"id":"master-hvac-cooling-coil-4"}
0
LINE
5
11F
330
14C
100
AcDbEntity
8
0
62
0
6
CONTINUOUS
100
AcDbLine
10
6
20
-23
30
0
11
6
21
23
31
0
1001
CONDUITCAD
1000
{"id":"master-hvac-cooling-coil-5"}
0
LINE
5
120
330
14C
100
AcDbEntity
8
0
62
0
6
CONTINUOUS
100
AcDbLine
10
18
20
-23
30
0
11
18
21
23
31
0
1001
CONDUITCAD
1000
{"id":"master-hvac-cooling-coil-6"}
0
TEXT
5
121
330
14C
100
AcDbEntity
8
0
62
0
6
CONTINUOUS
100
AcDbText
10
0
20
33
30
0
40
16
1
−
50
0
41
1
7
STANDARD
72
1
11
0
21
33
31
0
100
AcDbText
73
0
1001
CONDUITCAD
1000
{"id":"master-hvac-cooling-coil-7"}
0
ENDBLK
5
158
330
14C
100
AcDbEntity
8
0
100
AcDbBlockEnd
0
BLOCK
5
159
330
14D
100
AcDbEntity
8
0
100
AcDbBlockBegin
2
CC_HVAC_FAN
70
0
10
0
20
0
30
0
3
CC_HVAC_FAN
1

1001
CONDUITCAD
1000
{"ports":[{"name":"in","x":-45,"y":0,"dx":-1,"dy":0,"medium":"air","role":"connection"},{"name":"out","x":45,"y":0,"dx":1,"dy":0,"medium":"air","role":"connection"}],"symbol":{"name":"Duct fan","categ
1000
ory":"HVAC","group":"Air & hydronic systems","geometryRevision":3,"standardRefs":["PROJECT"],"convention":"Explicit project drafting convention","conformity":"Original master; not standards-certified"
1000
,"normativeEntry":null,"review":{"level":"geometry-and-convention","dimensionalConformance":"not-verified","note":"New independently constructed CAD master with explicit terminal topology."},"aliases"
1000
:["hvac fan"],"defaultLayer":"HVAC","labelOffset":52,"extents":{"minX":-45,"minY":-30,"maxX":45,"maxY":30}}}
0
LWPOLYLINE
5
122
330
14D
100
AcDbEntity
8
0
62
0
6
CONTINUOUS
100
AcDbPolyline
90
4
70
1
10
-32
20
-30
10
32
20
-30
10
32
20
30
10
-32
20
30
1001
CONDUITCAD
1000
{"id":"master-hvac-fan-0"}
0
LINE
5
123
330
14D
100
AcDbEntity
8
0
62
0
6
CONTINUOUS
100
AcDbLine
10
-45
20
0
30
0
11
-32
21
0
31
0
1001
CONDUITCAD
1000
{"id":"master-hvac-fan-1"}
0
LINE
5
124
330
14D
100
AcDbEntity
8
0
62
0
6
CONTINUOUS
100
AcDbLine
10
32
20
0
30
0
11
45
21
0
31
0
1001
CONDUITCAD
1000
{"id":"master-hvac-fan-2"}
0
CIRCLE
5
125
330
14D
100
AcDbEntity
8
0
62
0
6
CONTINUOUS
100
AcDbCircle
10
0
20
0
30
0
40
24
1001
CONDUITCAD
1000
{"id":"master-hvac-fan-3"}
0
LINE
5
126
330
14D
100
AcDbEntity
8
0
62
0
6
CONTINUOUS
100
AcDbLine
10
-16
20
0
30
0
11
16
21
0
31
0
1001
CONDUITCAD
1000
{"id":"master-hvac-fan-4"}
0
LWPOLYLINE
5
127
330
14D
100
AcDbEntity
8
0
62
0
6
CONTINUOUS
100
AcDbPolyline
90
3
70
1
10
16
20
0
10
9
20
3.15
10
9
20
-3.15
1001
CONDUITCAD
1000
{"id":"master-hvac-fan-5"}
0
ENDBLK
5
15A
330
14D
100
AcDbEntity
8
0
100
AcDbBlockEnd
0
BLOCK
5
15B
330
14E
100
AcDbEntity
8
0
100
AcDbBlockBegin
2
CC_HVAC_MOTOR_DAMPER
70
0
10
0
20
0
30
0
3
CC_HVAC_MOTOR_DAMPER
1

1001
CONDUITCAD
1000
{"ports":[{"name":"in","x":-45,"y":0,"dx":-1,"dy":0,"medium":"air","role":"connection"},{"name":"out","x":45,"y":0,"dx":1,"dy":0,"medium":"air","role":"connection"}],"symbol":{"name":"Motorized duct d
1000
amper","category":"HVAC","group":"Air & hydronic systems","geometryRevision":3,"standardRefs":["PROJECT"],"convention":"Explicit project drafting convention","conformity":"Original master; not standar
1000
ds-certified","normativeEntry":null,"review":{"level":"geometry-and-convention","dimensionalConformance":"not-verified","note":"New independently constructed CAD master with explicit terminal topology
1000
."},"aliases":["hvac motor damper"],"defaultLayer":"HVAC","labelOffset":48,"extents":{"minX":-45,"minY":-25,"maxX":45,"maxY":55.992661810508096}}}
0
LWPOLYLINE
5
128
330
14E
100
AcDbEntity
8
0
62
0
6
CONTINUOUS
100
AcDbPolyline
90
4
70
1
10
-30
20
-25
10
30
20
-25
10
30
20
25
10
-30
20
25
1001
CONDUITCAD
1000
{"id":"master-hvac-motor-damper-0"}
0
LINE
5
129
330
14E
100
AcDbEntity
8
0
62
0
6
CONTINUOUS
100
AcDbLine
10
-45
20
0
30
0
11
-30
21
0
31
0
1001
CONDUITCAD
1000
{"id":"master-hvac-motor-damper-1"}
0
LINE
5
12A
330
14E
100
AcDbEntity
8
0
62
0
6
CONTINUOUS
100
AcDbLine
10
30
20
0
30
0
11
45
21
0
31
0
1001
CONDUITCAD
1000
{"id":"master-hvac-motor-damper-2"}
0
LINE
5
12B
330
14E
100
AcDbEntity
8
0
62
0
6
CONTINUOUS
100
AcDbLine
10
-24
20
-18
30
0
11
24
21
18
31
0
1001
CONDUITCAD
1000
{"id":"master-hvac-motor-damper-3"}
0
LINE
5
12C
330
14E
100
AcDbEntity
8
0
62
0
6
CONTINUOUS
100
AcDbLine
10
0
20
25
30
0
11
0
21
36
31
0
1001
CONDUITCAD
1000
{"id":"master-hvac-motor-damper-4"}
0
CIRCLE
5
12D
330
14E
100
AcDbEntity
8
0
62
0
6
CONTINUOUS
100
AcDbCircle
10
0
20
46
30
0
40
10
1001
CONDUITCAD
1000
{"id":"master-hvac-motor-damper-5"}
0
TEXT
5
12E
330
14E
100
AcDbEntity
8
0
62
0
6
CONTINUOUS
100
AcDbText
10
0
20
42
30
0
40
10
1
M
50
0
41
1
7
STANDARD
72
1
11
0
21
42
31
0
100
AcDbText
73
0
1001
CONDUITCAD
1000
{"id":"master-hvac-motor-damper-6"}
0
ENDBLK
5
15C
330
14E
100
AcDbEntity
8
0
100
AcDbBlockEnd
0
ENDSEC
0
SECTION
2
ENTITIES
0
INSERT
5
100
330
148
100
AcDbEntity
8
HVAC
100
AcDbBlockReference
2
CC_HVAC_FILTER
10
130
20
350
30
0
41
1
42
1
43
1
50
0
66
1
1001
CONDUITCAD
1000
{"id":"e-muh4r622-1bb","tag":"F-101"}
0
ATTRIB
5
15D
330
100
100
AcDbEntity
8
HVAC
100
AcDbText
10
130
20
302
30
0
40
12
1
F-101
50
0
41
1
7
STANDARD
72
1
11
130
21
302
31
0
100
AcDbAttribute
2
TAG
70
0
74
0
0
SEQEND
5
15E
330
100
100
AcDbEntity
8
HVAC
0
INSERT
5
101
330
148
100
AcDbEntity
8
HVAC
100
AcDbBlockReference
2
CC_HVAC_HEATING_COIL
10
320
20
350
30
0
41
1
42
1
43
1
50
0
66
1
1001
CONDUITCAD
1000
{"id":"e-muh4r622-1bc","tag":"HC-101"}
0
ATTRIB
5
15F
330
101
100
AcDbEntity
8
HVAC
100
AcDbText
10
320
20
302
30
0
40
12
1
HC-101
50
0
41
1
7
STANDARD
72
1
11
320
21
302
31
0
100
AcDbAttribute
2
TAG
70
0
74
0
0
SEQEND
5
160
330
101
100
AcDbEntity
8
HVAC
0
INSERT
5
102
330
148
100
AcDbEntity
8
HVAC
100
AcDbBlockReference
2
CC_HVAC_COOLING_COIL
10
510
20
350
30
0
41
1
42
1
43
1
50
0
66
1
1001
CONDUITCAD
1000
{"id":"e-muh4r622-1bd","tag":"CC-101"}
0
ATTRIB
5
161
330
102
100
AcDbEntity
8
HVAC
100
AcDbText
10
510
20
302
30
0
40
12
1
CC-101
50
0
41
1
7
STANDARD
72
1
11
510
21
302
31
0
100
AcDbAttribute
2
TAG
70
0
74
0
0
SEQEND
5
162
330
102
100
AcDbEntity
8
HVAC
0
INSERT
5
103
330
148
100
AcDbEntity
8
HVAC
100
AcDbBlockReference
2
CC_HVAC_FAN
10
700
20
350
30
0
41
1
42
1
43
1
50
0
66
1
1001
CONDUITCAD
1000
{"id":"e-muh4r622-1be","tag":"SF-101"}
0
ATTRIB
5
163
330
103
100
AcDbEntity
8
HVAC
100
AcDbText
10
700
20
298
30
0
40
12
1
SF-101
50
0
41
1
7
STANDARD
72
1
11
700
21
298
31
0
100
AcDbAttribute
2
TAG
70
0
74
0
0
SEQEND
5
164
330
103
100
AcDbEntity
8
HVAC
0
INSERT
5
104
330
148
100
AcDbEntity
8
HVAC
100
AcDbBlockReference
2
CC_HVAC_MOTOR_DAMPER
10
890
20
350
30
0
41
1
42
1
43
1
50
0
66
1
1001
CONDUITCAD
1000
{"id":"e-muh4r622-1bf","tag":"MD-101"}
0
ATTRIB
5
165
330
104
100
AcDbEntity
8
HVAC
100
AcDbText
10
890
20
302
30
0
40
12
1
MD-101
50
0
41
1
7
STANDARD
72
1
11
890
21
302
31
0
100
AcDbAttribute
2
TAG
70
0
74
0
0
SEQEND
5
166
330
104
100
AcDbEntity
8
HVAC
0
LWPOLYLINE
5
105
330
148
100
AcDbEntity
8
HVAC
62
7
420
5409920
100
AcDbPolyline
90
2
70
0
10
175
20
350
10
275
20
350
1001
CONDUITCAD
1000
{"id":"e-muh4r622-1bg","connector":{"from":{"entityId":"e-muh4r622-1bb","port":"out"},"to":{"entityId":"e-muh4r622-1bc","port":"in"},"style":"air","arrow":"end","waypoints":[],"status":"routed"},"labe
1000
l":"","dash":[],"width":2.5}
0
LWPOLYLINE
5
106
330
148
100
AcDbEntity
8
HVAC
62
7
420
5409920
100
AcDbPolyline
90
2
70
0
10
365
20
350
10
465
20
350
1001
CONDUITCAD
1000
{"id":"e-muh4r622-1bh","connector":{"from":{"entityId":"e-muh4r622-1bc","port":"out"},"to":{"entityId":"e-muh4r622-1bd","port":"in"},"style":"air","arrow":"end","waypoints":[],"status":"routed"},"labe
1000
l":"","dash":[],"width":2.5}
0
LWPOLYLINE
5
107
330
148
100
AcDbEntity
8
HVAC
62
7
420
5409920
100
AcDbPolyline
90
2
70
0
10
555
20
350
10
655
20
350
1001
CONDUITCAD
1000
{"id":"e-muh4r622-1bi","connector":{"from":{"entityId":"e-muh4r622-1bd","port":"out"},"to":{"entityId":"e-muh4r622-1be","port":"in"},"style":"air","arrow":"end","waypoints":[],"status":"routed"},"labe
1000
l":"","dash":[],"width":2.5}
0
LWPOLYLINE
5
108
330
148
100
AcDbEntity
8
HVAC
62
7
420
5409920
100
AcDbPolyline
90
2
70
0
10
745
20
350
10
845
20
350
1001
CONDUITCAD
1000
{"id":"e-muh4r622-1bj","connector":{"from":{"entityId":"e-muh4r622-1be","port":"out"},"to":{"entityId":"e-muh4r622-1bf","port":"in"},"style":"air","arrow":"end","waypoints":[],"status":"routed"},"labe
1000
l":"","dash":[],"width":2.5}
0
TEXT
5
109
330
148
100
AcDbEntity
8
Annotations
100
AcDbText
10
40
20
620
30
0
40
27
1
Air handling system
50
0
41
1
7
STANDARD
100
AcDbText
73
0
1001
CONDUITCAD
1000
{"id":"e-muh4r622-1bk"}
0
TEXT
5
10A
330
148
100
AcDbEntity
8
Annotations
100
AcDbText
10
40
20
584
30
0
40
13
1
Building services  /  Air-system schematic
50
0
41
1
7
STANDARD
100
AcDbText
73
0
1001
CONDUITCAD
1000
{"id":"e-muh4r622-1bl"}
0
LINE
5
10B
330
148
100
AcDbEntity
8
Annotations
100
AcDbLine
10
40
20
562
30
0
11
1120
21
562
31
0
1001
CONDUITCAD
1000
{"id":"e-muh4r622-1bm"}
0
TEXT
5
10C
330
148
100
AcDbEntity
8
Annotations
100
AcDbText
10
40
20
42
30
0
40
11
1
CONCEPT SCHEMATIC — NOT FOR CONSTRUCTION
50
0
41
1
7
STANDARD
100
AcDbText
73
0
1001
CONDUITCAD
1000
{"id":"e-muh4r622-1bn"}
0
TEXT
5
10D
330
148
100
AcDbEntity
8
Annotations
100
AcDbText
10
650
20
42
30
0
40
11
1
HVAC-AIR  |  REV 03  |  mm
50
0
41
1
7
STANDARD
100
AcDbText
73
0
1001
CONDUITCAD
1000
{"id":"e-muh4r622-1bo"}
0
ENDSEC
0
SECTION
2
OBJECTS
0
DICTIONARY
5
16D
330
0
100
AcDbDictionary
281
1
3
ACAD_LAYOUT
350
16E
3
ACAD_GROUP
350
16F
3
CONDUITCAD_METADATA
350
172
0
DICTIONARY
5
16E
330
16D
100
AcDbDictionary
281
1
3
Model
350
170
3
Layout1
350
171
0
DICTIONARY
5
16F
330
16D
100
AcDbDictionary
281
1
0
LAYOUT
5
170
330
16E
100
AcDbPlotSettings
1

2

4

6

40
0
41
0
42
0
43
0
44
420
45
297
46
0
47
0
48
0
49
0
140
0
141
0
142
1
143
1
70
0
72
1
73
0
74
5
7

75
16
76
0
77
0
78
300
147
1
148
0
149
0
100
AcDbLayout
1
Model
70
1
71
0
10
0
20
0
11
420
21
297
12
0
22
0
32
0
14
0
24
0
34
0
15
420
25
297
35
0
146
0
13
0
23
0
33
0
16
1
26
0
36
0
17
0
27
1
37
0
76
0
330
148
0
LAYOUT
5
171
330
16E
100
AcDbPlotSettings
1

2

4

6

40
0
41
0
42
0
43
0
44
420
45
297
46
0
47
0
48
0
49
0
140
0
141
0
142
1
143
1
70
0
72
1
73
0
74
5
7

75
16
76
0
77
0
78
300
147
1
148
0
149
0
100
AcDbLayout
1
Layout1
70
1
71
1
10
0
20
0
11
420
21
297
12
0
22
0
32
0
14
0
24
0
34
0
15
420
25
297
35
0
146
0
13
0
23
0
33
0
16
1
26
0
36
0
17
0
27
1
37
0
76
0
330
149
0
XRECORD
5
172
330
16D
100
AcDbXrecord
280
1
1
{"parameters":{"grid":"10","pipeWidth":"2","valveSize":"64"},"constraints":[],"metadata":{"author":"","description":"Filter, heating and cooling coils, fan and controlled air outlet.","industry":"Buil
1
ding services","drawingType":"Air-system schematic","templateId":"hvac-air","standardRefs":["PROJECT"],"geometryRevision":3,"approval":"Concept schematic; engineering approval required"}}
0
ENDSEC
0
EOF
