0
SECTION
2
HEADER
9
$ACADVER
1
AC1024
9
$INSUNITS
70
4
9
$LTSCALE
40
1
9
$MEASUREMENT
70
1
999
CONDUIT:{"parameters":{"grid":"10","pipeWidth":"2","valveSize":"64"},"constraints":[],"metadata":{"author":"","description":"Boiler circulation, radiator, isolation and expansion connectio
999
CONDUIT:n.","industry":"Building services","drawingType":"Hydronic schematic","templateId":"hvac-hydronic","standardRefs":["PROJECT"],"geometryRevision":3,"approval":"Concept schematic; en
999
CONDUIT:gineering approval required"}}
0
ENDSEC
0
SECTION
2
TABLES
0
TABLE
2
LTYPE
5
100
330
0
100
AcDbSymbolTable
70
1
0
LTYPE
5
101
100
AcDbSymbolTableRecord
100
AcDbLinetypeTableRecord
2
CONTINUOUS
70
0
3
Solid line
72
65
73
0
40
0
0
LTYPE
5
102
100
AcDbSymbolTableRecord
100
AcDbLinetypeTableRecord
2
DASHED
70
0
3
DASHED
72
65
73
2
40
12
49
8
74
0
49
-4
74
0
0
LTYPE
5
103
100
AcDbSymbolTableRecord
100
AcDbLinetypeTableRecord
2
CENTER
70
0
3
CENTER
72
65
73
4
40
20
49
12
74
0
49
-3
74
0
49
2
74
0
49
-3
74
0
0
LTYPE
5
104
100
AcDbSymbolTableRecord
100
AcDbLinetypeTableRecord
2
HIDDEN
70
0
3
HIDDEN
72
65
73
2
40
7
49
4
74
0
49
-3
74
0
0
LTYPE
5
105
100
AcDbSymbolTableRecord
100
AcDbLinetypeTableRecord
2
CC_DASH_12_4
70
0
3
CC_DASH_12_4
72
65
73
2
40
16
49
12
74
0
49
-4
74
0
0
ENDTAB
0
TABLE
2
LAYER
5
106
330
0
100
AcDbSymbolTable
70
13
0
LAYER
5
107
100
AcDbSymbolTableRecord
100
AcDbLayerTableRecord
2
0
70
0
62
7
420
3426133
6
CONTINUOUS
0
LAYER
5
108
100
AcDbSymbolTableRecord
100
AcDbLayerTableRecord
2
Equipment
70
0
62
7
420
3495011
6
CONTINUOUS
0
LAYER
5
109
100
AcDbSymbolTableRecord
100
AcDbLayerTableRecord
2
Process
70
0
62
7
420
1342583
6
CONTINUOUS
0
LAYER
5
10A
100
AcDbSymbolTableRecord
100
AcDbLayerTableRecord
2
Instruments
70
0
62
7
420
10187334
6
CONTINUOUS
0
LAYER
5
10B
100
AcDbSymbolTableRecord
100
AcDbLayerTableRecord
2
Electrical
70
0
62
7
420
6584250
6
CONTINUOUS
0
LAYER
5
10C
100
AcDbSymbolTableRecord
100
AcDbLayerTableRecord
2
Annotations
70
0
62
7
420
7438474
6
CONTINUOUS
0
LAYER
5
10D
100
AcDbSymbolTableRecord
100
AcDbLayerTableRecord
2
Hydraulics
70
0
62
7
420
3495011
6
CONTINUOUS
0
LAYER
5
10E
100
AcDbSymbolTableRecord
100
AcDbLayerTableRecord
2
Pneumatics
70
0
62
7
420
3495011
6
CONTINUOUS
0
LAYER
5
10F
100
AcDbSymbolTableRecord
100
AcDbLayerTableRecord
2
HVAC
70
0
62
7
420
3495011
6
CONTINUOUS
0
LAYER
5
110
100
AcDbSymbolTableRecord
100
AcDbLayerTableRecord
2
Water
70
0
62
7
420
3495011
6
CONTINUOUS
0
LAYER
5
111
100
AcDbSymbolTableRecord
100
AcDbLayerTableRecord
2
Automation
70
0
62
7
420
3495011
6
CONTINUOUS
0
LAYER
5
112
100
AcDbSymbolTableRecord
100
AcDbLayerTableRecord
2
Fire
70
0
62
7
420
3495011
6
CONTINUOUS
0
LAYER
5
113
100
AcDbSymbolTableRecord
100
AcDbLayerTableRecord
2
Network
70
0
62
7
420
3495011
6
CONTINUOUS
0
ENDTAB
0
TABLE
2
STYLE
5
114
330
0
100
AcDbSymbolTable
70
1
0
STYLE
5
115
100
AcDbSymbolTableRecord
100
AcDbTextStyleTableRecord
2
STANDARD
70
0
40
0
41
1
50
0
71
0
42
2.5
3
txt
4

0
ENDTAB
0
TABLE
2
APPID
5
116
330
0
100
AcDbSymbolTable
70
1
0
APPID
5
117
100
AcDbSymbolTableRecord
100
AcDbRegAppTableRecord
2
CONDUITCAD
70
0
0
ENDTAB
0
TABLE
2
BLOCK_RECORD
5
118
330
0
100
AcDbSymbolTable
70
7
0
BLOCK_RECORD
5
119
100
AcDbSymbolTableRecord
100
AcDbBlockTableRecord
2
*Model_Space
0
BLOCK_RECORD
5
11A
100
AcDbSymbolTableRecord
100
AcDbBlockTableRecord
2
*Paper_Space
0
BLOCK_RECORD
5
11B
100
AcDbSymbolTableRecord
100
AcDbBlockTableRecord
2
CC_HVAC_BOILER
0
BLOCK_RECORD
5
11C
100
AcDbSymbolTableRecord
100
AcDbBlockTableRecord
2
CC_PUMP
0
BLOCK_RECORD
5
11D
100
AcDbSymbolTableRecord
100
AcDbBlockTableRecord
2
CC_CONTROL_VALVE
0
BLOCK_RECORD
5
11E
100
AcDbSymbolTableRecord
100
AcDbBlockTableRecord
2
CC_HVAC_RADIATOR
0
BLOCK_RECORD
5
11F
100
AcDbSymbolTableRecord
100
AcDbBlockTableRecord
2
CC_HVAC_EXPANSION_VESSEL
0
ENDTAB
0
ENDSEC
0
SECTION
2
BLOCKS
0
BLOCK
5
120
330
119
100
AcDbEntity
8
0
100
AcDbBlockBegin
2
*Model_Space
70
0
10
0
20
0
30
0
3
*Model_Space
1

1001
CONDUITCAD
1000
{"ports":[]}
0
ENDBLK
5
121
330
119
100
AcDbEntity
8
0
100
AcDbBlockEnd
0
BLOCK
5
122
330
11A
100
AcDbEntity
8
0
100
AcDbBlockBegin
2
*Paper_Space
70
0
10
0
20
0
30
0
3
*Paper_Space
1

1001
CONDUITCAD
1000
{"ports":[]}
0
ENDBLK
5
123
330
11A
100
AcDbEntity
8
0
100
AcDbBlockEnd
0
BLOCK
5
124
330
11B
100
AcDbEntity
8
0
100
AcDbBlockBegin
2
CC_HVAC_BOILER
70
0
10
0
20
0
30
0
3
CC_HVAC_BOILER
1

1001
CONDUITCAD
1000
{"ports":[{"name":"in","x":-45,"y":0,"dx":-1,"dy":0,"medium":"water","role":"connection"},{"name":"out","x":45,"y":0,"dx":1,"dy":0,"medium":"water","role":"connection"},{"name":"flue","x":0,"y":45,"dx
1000
":0,"dy":1,"medium":"water","role":"connection"}],"symbol":{"name":"Boiler \u00b7 functional","category":"HVAC","group":"Air & hydronic systems","geometryRevision":3,"standardRefs":["PROJECT"],"conven
1000
tion":"Explicit project drafting convention","conformity":"Original master; not standards-certified","normativeEntry":null,"review":{"level":"geometry-and-convention","dimensionalConformance":"not-ver
1000
ified","note":"New independently constructed CAD master with explicit terminal topology."},"aliases":["hvac boiler"],"defaultLayer":"HVAC","labelOffset":48,"extents":{"minX":-45,"minY":-22,"maxX":45,"
1000
maxY":45}}}
0
LWPOLYLINE
5
125
330
11B
100
AcDbEntity
8
0
62
0
6
CONTINUOUS
100
AcDbPolyline
90
4
70
1
10
-32
20
-22
10
32
20
-22
10
32
20
22
10
-32
20
22
1001
CONDUITCAD
1000
{"id":"master-hvac-boiler-0"}
0
LINE
5
126
330
11B
100
AcDbEntity
8
0
62
0
6
CONTINUOUS
100
AcDbLine
10
-45
20
0
30
0
11
-32
21
0
31
0
1001
CONDUITCAD
1000
{"id":"master-hvac-boiler-1"}
0
LINE
5
127
330
11B
100
AcDbEntity
8
0
62
0
6
CONTINUOUS
100
AcDbLine
10
32
20
0
30
0
11
45
21
0
31
0
1001
CONDUITCAD
1000
{"id":"master-hvac-boiler-2"}
0
TEXT
5
128
330
11B
100
AcDbEntity
8
0
62
0
6
CONTINUOUS
100
AcDbText
10
0
20
-4
30
0
40
11
1
BOILER
50
0
41
1
7
STANDARD
72
1
11
0
21
-4
31
0
100
AcDbText
73
0
1001
CONDUITCAD
1000
{"id":"master-hvac-boiler-3"}
0
LINE
5
129
330
11B
100
AcDbEntity
8
0
62
0
6
CONTINUOUS
100
AcDbLine
10
0
20
22
30
0
11
0
21
45
31
0
1001
CONDUITCAD
1000
{"id":"master-hvac-boiler-4"}
0
ENDBLK
5
12A
330
11B
100
AcDbEntity
8
0
100
AcDbBlockEnd
0
BLOCK
5
12B
330
11C
100
AcDbEntity
8
0
100
AcDbBlockBegin
2
CC_PUMP
70
0
10
0
20
0
30
0
3
CC_PUMP
1

1001
CONDUITCAD
1000
{"ports":[{"name":"in","x":-45,"y":0,"dx":-1,"dy":0,"medium":"process","role":"connection"},{"name":"out","x":45,"y":0,"dx":1,"dy":0,"medium":"process","role":"connection"},{"name":"top","x":0,"y":45,
1000
"dx":0,"dy":1,"medium":"process","role":"connection"},{"name":"bottom","x":0,"y":-45,"dx":0,"dy":-1,"medium":"process","role":"connection"}],"symbol":{"name":"Centrifugal pump","category":"P&ID","labe
1000
lOffset":67,"geometryRevision":3,"convention":"ISO-10628-2 family","conformity":"Original master; not standards-certified","standardRefs":["ISO-10628-2"],"normativeEntry":null,"review":{"level":"geome
1000
try-and-convention","dimensionalConformance":"not-verified","note":"Reviewed: silhouette, terminal positions, normal state and distinct function retained."},"group":"Equipment & instruments","aliases"
1000
:["pump"],"defaultLayer":"Equipment","extents":{"minX":-45,"minY":-45,"maxX":45,"maxY":45}}}
0
LINE
5
12C
330
11C
100
AcDbEntity
8
0
62
0
6
CONTINUOUS
100
AcDbLine
10
-45
20
0
30
0
11
-27
21
0
31
0
1001
CONDUITCAD
1000
{"id":"master-pump-0"}
0
LINE
5
12D
330
11C
100
AcDbEntity
8
0
62
0
6
CONTINUOUS
100
AcDbLine
10
27
20
0
30
0
11
45
21
0
31
0
1001
CONDUITCAD
1000
{"id":"master-pump-1"}
0
LINE
5
12E
330
11C
100
AcDbEntity
8
0
62
0
6
CONTINUOUS
100
AcDbLine
10
0
20
27
30
0
11
0
21
45
31
0
1001
CONDUITCAD
1000
{"id":"master-pump-2"}
0
LINE
5
12F
330
11C
100
AcDbEntity
8
0
62
0
6
CONTINUOUS
100
AcDbLine
10
0
20
-27
30
0
11
0
21
-45
31
0
1001
CONDUITCAD
1000
{"id":"master-pump-3"}
0
CIRCLE
5
130
330
11C
100
AcDbEntity
8
0
62
0
6
CONTINUOUS
100
AcDbCircle
10
0
20
0
30
0
40
27
1001
CONDUITCAD
1000
{"id":"master-pump-4"}
0
LWPOLYLINE
5
131
330
11C
100
AcDbEntity
8
0
62
0
6
CONTINUOUS
100
AcDbPolyline
90
3
70
1
10
-15
20
-18
10
23
20
0
10
-15
20
18
1001
CONDUITCAD
1000
{"id":"master-pump-5"}
0
LINE
5
132
330
11C
100
AcDbEntity
8
0
62
0
6
CONTINUOUS
100
AcDbLine
10
-22
20
-31
30
0
11
22
21
-31
31
0
1001
CONDUITCAD
1000
{"id":"master-pump-6"}
0
ENDBLK
5
133
330
11C
100
AcDbEntity
8
0
100
AcDbBlockEnd
0
BLOCK
5
134
330
11D
100
AcDbEntity
8
0
100
AcDbBlockBegin
2
CC_CONTROL_VALVE
70
0
10
0
20
0
30
0
3
CC_CONTROL_VALVE
1

1001
CONDUITCAD
1000
{"ports":[{"name":"in","x":-45,"y":0,"dx":-1,"dy":0,"medium":"process","role":"connection"},{"name":"out","x":45,"y":0,"dx":1,"dy":0,"medium":"process","role":"connection"},{"name":"signal","x":0,"y":
1000
50,"dx":0,"dy":1,"medium":"signal","role":"connection"}],"symbol":{"name":"Control valve","category":"P&ID","labelOffset":48,"geometryRevision":3,"convention":"ISO-10628-2 family","conformity":"Origin
1000
al master; not standards-certified","standardRefs":["ISO-10628-2"],"normativeEntry":null,"review":{"level":"geometry-and-convention","dimensionalConformance":"not-verified","note":"Native elliptical d
1000
iaphragm cap and a connected signal terminal."},"group":"Valves & actuators","aliases":["control valve"],"defaultLayer":"Equipment","extents":{"minX":-45,"minY":-18,"maxX":45,"maxY":50}}}
0
LINE
5
135
330
11D
100
AcDbEntity
8
0
62
0
6
CONTINUOUS
100
AcDbLine
10
-45
20
0
30
0
11
-25
21
0
31
0
1001
CONDUITCAD
1000
{"id":"master-control-valve-0"}
0
LINE
5
136
330
11D
100
AcDbEntity
8
0
62
0
6
CONTINUOUS
100
AcDbLine
10
25
20
0
30
0
11
45
21
0
31
0
1001
CONDUITCAD
1000
{"id":"master-control-valve-1"}
0
LWPOLYLINE
5
137
330
11D
100
AcDbEntity
8
0
62
0
6
CONTINUOUS
100
AcDbPolyline
90
3
70
1
10
-25
20
-18
10
0
20
0
10
-25
20
18
1001
CONDUITCAD
1000
{"id":"master-control-valve-2"}
0
LWPOLYLINE
5
138
330
11D
100
AcDbEntity
8
0
62
0
6
CONTINUOUS
100
AcDbPolyline
90
3
70
1
10
25
20
-18
10
0
20
0
10
25
20
18
1001
CONDUITCAD
1000
{"id":"master-control-valve-3"}
0
LINE
5
139
330
11D
100
AcDbEntity
8
0
62
0
6
CONTINUOUS
100
AcDbLine
10
0
20
0
30
0
11
0
21
30
31
0
1001
CONDUITCAD
1000
{"id":"master-control-valve-4"}
0
LINE
5
13A
330
11D
100
AcDbEntity
8
0
62
0
6
CONTINUOUS
100
AcDbLine
10
-20
20
30
30
0
11
20
21
30
31
0
1001
CONDUITCAD
1000
{"id":"master-control-valve-5"}
0
ELLIPSE
5
13B
330
11D
100
AcDbEntity
8
0
62
0
6
CONTINUOUS
100
AcDbEllipse
10
0
20
30
30
0
11
20
21
0
31
0
40
0.7
41
0
42
3.141592653589793
1001
CONDUITCAD
1000
{"id":"master-control-valve-6"}
0
LINE
5
13C
330
11D
100
AcDbEntity
8
0
62
0
6
CONTINUOUS
100
AcDbLine
10
0
20
44
30
0
11
0
21
50
31
0
1001
CONDUITCAD
1000
{"id":"master-control-valve-7"}
0
ENDBLK
5
13D
330
11D
100
AcDbEntity
8
0
100
AcDbBlockEnd
0
BLOCK
5
13E
330
11E
100
AcDbEntity
8
0
100
AcDbBlockBegin
2
CC_HVAC_RADIATOR
70
0
10
0
20
0
30
0
3
CC_HVAC_RADIATOR
1

1001
CONDUITCAD
1000
{"ports":[{"name":"in","x":-45,"y":0,"dx":-1,"dy":0,"medium":"water","role":"connection"},{"name":"out","x":45,"y":0,"dx":1,"dy":0,"medium":"water","role":"connection"}],"symbol":{"name":"Hydronic rad
1000
iator","category":"HVAC","group":"Air & hydronic systems","geometryRevision":3,"standardRefs":["PROJECT"],"convention":"Explicit project drafting convention","conformity":"Original master; not standar
1000
ds-certified","normativeEntry":null,"review":{"level":"geometry-and-convention","dimensionalConformance":"not-verified","note":"New independently constructed CAD master with explicit terminal topology
1000
."},"aliases":["hvac radiator"],"defaultLayer":"HVAC","labelOffset":48,"extents":{"minX":-45,"minY":-20,"maxX":45,"maxY":20}}}
0
LWPOLYLINE
5
13F
330
11E
100
AcDbEntity
8
0
62
0
6
CONTINUOUS
100
AcDbPolyline
90
4
70
1
10
-30
20
-20
10
30
20
-20
10
30
20
20
10
-30
20
20
1001
CONDUITCAD
1000
{"id":"master-hvac-radiator-0"}
0
LINE
5
140
330
11E
100
AcDbEntity
8
0
62
0
6
CONTINUOUS
100
AcDbLine
10
-45
20
0
30
0
11
-30
21
0
31
0
1001
CONDUITCAD
1000
{"id":"master-hvac-radiator-1"}
0
LINE
5
141
330
11E
100
AcDbEntity
8
0
62
0
6
CONTINUOUS
100
AcDbLine
10
30
20
0
30
0
11
45
21
0
31
0
1001
CONDUITCAD
1000
{"id":"master-hvac-radiator-2"}
0
LINE
5
142
330
11E
100
AcDbEntity
8
0
62
0
6
CONTINUOUS
100
AcDbLine
10
-20
20
-20
30
0
11
-20
21
20
31
0
1001
CONDUITCAD
1000
{"id":"master-hvac-radiator-3"}
0
LINE
5
143
330
11E
100
AcDbEntity
8
0
62
0
6
CONTINUOUS
100
AcDbLine
10
-10
20
-20
30
0
11
-10
21
20
31
0
1001
CONDUITCAD
1000
{"id":"master-hvac-radiator-4"}
0
LINE
5
144
330
11E
100
AcDbEntity
8
0
62
0
6
CONTINUOUS
100
AcDbLine
10
0
20
-20
30
0
11
0
21
20
31
0
1001
CONDUITCAD
1000
{"id":"master-hvac-radiator-5"}
0
LINE
5
145
330
11E
100
AcDbEntity
8
0
62
0
6
CONTINUOUS
100
AcDbLine
10
10
20
-20
30
0
11
10
21
20
31
0
1001
CONDUITCAD
1000
{"id":"master-hvac-radiator-6"}
0
LINE
5
146
330
11E
100
AcDbEntity
8
0
62
0
6
CONTINUOUS
100
AcDbLine
10
20
20
-20
30
0
11
20
21
20
31
0
1001
CONDUITCAD
1000
{"id":"master-hvac-radiator-7"}
0
ENDBLK
5
147
330
11E
100
AcDbEntity
8
0
100
AcDbBlockEnd
0
BLOCK
5
148
330
11F
100
AcDbEntity
8
0
100
AcDbBlockBegin
2
CC_HVAC_EXPANSION_VESSEL
70
0
10
0
20
0
30
0
3
CC_HVAC_EXPANSION_VESSEL
1

1001
CONDUITCAD
1000
{"ports":[{"name":"water","x":0,"y":-45,"dx":0,"dy":-1,"medium":"water","role":"connection"}],"symbol":{"name":"Expansion vessel","category":"HVAC","group":"Air & hydronic systems","geometryRevision":
1000
3,"standardRefs":["PROJECT"],"convention":"Explicit project drafting convention","conformity":"Original master; not standards-certified","normativeEntry":null,"review":{"level":"geometry-and-conventio
1000
n","dimensionalConformance":"not-verified","note":"New independently constructed CAD master with explicit terminal topology."},"aliases":["hvac expansion vessel"],"defaultLayer":"HVAC","labelOffset":6
1000
7,"extents":{"minX":-22,"minY":-45,"maxX":22,"maxY":34.971763157763164}}}
0
LINE
5
149
330
11F
100
AcDbEntity
8
0
62
0
6
CONTINUOUS
100
AcDbLine
10
-22
20
-13
30
0
11
-22
21
13
31
0
1001
CONDUITCAD
1000
{"id":"master-hvac-expansion-vessel-0"}
0
ARC
5
14A
330
11F
100
AcDbEntity
8
0
62
0
6
CONTINUOUS
100
AcDbCircle
10
0
20
13
30
0
40
22
100
AcDbArc
50
0
51
180
1001
CONDUITCAD
1000
{"id":"master-hvac-expansion-vessel-1"}
0
LINE
5
14B
330
11F
100
AcDbEntity
8
0
62
0
6
CONTINUOUS
100
AcDbLine
10
22
20
13
30
0
11
22
21
-13
31
0
1001
CONDUITCAD
1000
{"id":"master-hvac-expansion-vessel-2"}
0
ARC
5
14C
330
11F
100
AcDbEntity
8
0
62
0
6
CONTINUOUS
100
AcDbCircle
10
0
20
-13
30
0
40
22
100
AcDbArc
50
180
51
360
1001
CONDUITCAD
1000
{"id":"master-hvac-expansion-vessel-3"}
0
LINE
5
14D
330
11F
100
AcDbEntity
8
0
62
0
6
CONTINUOUS
100
AcDbLine
10
-22
20
0
30
0
11
22
21
0
31
0
1001
CONDUITCAD
1000
{"id":"master-hvac-expansion-vessel-4"}
0
LINE
5
14E
330
11F
100
AcDbEntity
8
0
62
0
6
CONTINUOUS
100
AcDbLine
10
0
20
-35
30
0
11
0
21
-45
31
0
1001
CONDUITCAD
1000
{"id":"master-hvac-expansion-vessel-5"}
0
ENDBLK
5
14F
330
11F
100
AcDbEntity
8
0
100
AcDbBlockEnd
0
ENDSEC
0
SECTION
2
ENTITIES
0
INSERT
5
150
330
119
100
AcDbEntity
8
HVAC
100
AcDbBlockReference
2
CC_HVAC_BOILER
10
150
20
350
30
0
41
1
42
1
43
1
50
0
66
1
1001
CONDUITCAD
1000
{"id":"e-mugr5p5h-1bp","tag":"B-101"}
0
ATTRIB
5
151
330
119
100
AcDbEntity
8
HVAC
100
AcDbText
10
150
20
302
30
0
40
12
1
B-101
50
0
41
1
7
STANDARD
72
1
11
150
21
302
31
0
100
AcDbAttribute
2
TAG
70
0
74
0
0
SEQEND
5
152
100
AcDbEntity
8
HVAC
0
INSERT
5
153
330
119
100
AcDbEntity
8
Equipment
100
AcDbBlockReference
2
CC_PUMP
10
390
20
350
30
0
41
1
42
1
43
1
50
0
66
1
1001
CONDUITCAD
1000
{"id":"e-mugr5p5h-1bq","tag":"P-101"}
0
ATTRIB
5
154
330
119
100
AcDbEntity
8
Equipment
100
AcDbText
10
390
20
283
30
0
40
12
1
P-101
50
0
41
1
7
STANDARD
72
1
11
390
21
283
31
0
100
AcDbAttribute
2
TAG
70
0
74
0
0
SEQEND
5
155
100
AcDbEntity
8
Equipment
0
INSERT
5
156
330
119
100
AcDbEntity
8
Equipment
100
AcDbBlockReference
2
CC_CONTROL_VALVE
10
630
20
350
30
0
41
1
42
1
43
1
50
0
66
1
1001
CONDUITCAD
1000
{"id":"e-mugr5p5h-1br","tag":"CV-101"}
0
ATTRIB
5
157
330
119
100
AcDbEntity
8
Equipment
100
AcDbText
10
630
20
302
30
0
40
12
1
CV-101
50
0
41
1
7
STANDARD
72
1
11
630
21
302
31
0
100
AcDbAttribute
2
TAG
70
0
74
0
0
SEQEND
5
158
100
AcDbEntity
8
Equipment
0
INSERT
5
159
330
119
100
AcDbEntity
8
HVAC
100
AcDbBlockReference
2
CC_HVAC_RADIATOR
10
870
20
350
30
0
41
1
42
1
43
1
50
0
66
1
1001
CONDUITCAD
1000
{"id":"e-mugr5p5h-1bs","tag":"RAD-101"}
0
ATTRIB
5
15A
330
119
100
AcDbEntity
8
HVAC
100
AcDbText
10
870
20
302
30
0
40
12
1
RAD-101
50
0
41
1
7
STANDARD
72
1
11
870
21
302
31
0
100
AcDbAttribute
2
TAG
70
0
74
0
0
SEQEND
5
15B
100
AcDbEntity
8
HVAC
0
INSERT
5
15C
330
119
100
AcDbEntity
8
HVAC
100
AcDbBlockReference
2
CC_HVAC_EXPANSION_VESSEL
10
390
20
480
30
0
41
1
42
1
43
1
50
0
66
1
1001
CONDUITCAD
1000
{"id":"e-mugr5p5h-1bt","tag":"EV-101"}
0
ATTRIB
5
15D
330
119
100
AcDbEntity
8
HVAC
100
AcDbText
10
390
20
413
30
0
40
12
1
EV-101
50
0
41
1
7
STANDARD
72
1
11
390
21
413
31
0
100
AcDbAttribute
2
TAG
70
0
74
0
0
SEQEND
5
15E
100
AcDbEntity
8
HVAC
0
LWPOLYLINE
5
15F
330
119
100
AcDbEntity
8
Water
62
7
420
2456747
100
AcDbPolyline
90
2
70
0
10
195
20
350
10
345
20
350
1001
CONDUITCAD
1000
{"id":"e-mugr5p5i-1bu","connector":{"from":{"entityId":"e-mugr5p5h-1bp","port":"out"},"to":{"entityId":"e-mugr5p5h-1bq","port":"in"},"style":"water","arrow":"end","waypoints":[],"status":"routed"},"la
1000
bel":"","dash":[],"width":2}
0
LWPOLYLINE
5
160
330
119
100
AcDbEntity
8
Water
62
7
420
2456747
100
AcDbPolyline
90
2
70
0
10
435
20
350
10
585
20
350
1001
CONDUITCAD
1000
{"id":"e-mugr5p5i-1bv","connector":{"from":{"entityId":"e-mugr5p5h-1bq","port":"out"},"to":{"entityId":"e-mugr5p5h-1br","port":"in"},"style":"water","arrow":"end","waypoints":[],"status":"routed"},"la
1000
bel":"","dash":[],"width":2}
0
LWPOLYLINE
5
161
330
119
100
AcDbEntity
8
Water
62
7
420
2456747
100
AcDbPolyline
90
2
70
0
10
675
20
350
10
825
20
350
1001
CONDUITCAD
1000
{"id":"e-mugr5p5i-1bw","connector":{"from":{"entityId":"e-mugr5p5h-1br","port":"out"},"to":{"entityId":"e-mugr5p5h-1bs","port":"in"},"style":"water","arrow":"end","waypoints":[],"status":"routed"},"la
1000
bel":"","dash":[],"width":2}
0
LWPOLYLINE
5
162
330
119
100
AcDbEntity
8
HVAC
62
7
420
5535881
6
CC_DASH_12_4
100
AcDbPolyline
90
7
70
0
10
915
20
350
10
1020
20
350
10
1020
20
130
10
60
20
130
10
87
20
130
10
87
20
350
10
105
20
350
1001
CONDUITCAD
1000
{"id":"e-mugr5p5i-1bx","connector":{"from":{"entityId":"e-mugr5p5h-1bs","port":"out"},"to":{"entityId":"e-mugr5p5h-1bp","port":"in"},"style":"return","arrow":"end","waypoints":[{"x":1020,"y":130},{"x"
1000
:60,"y":130}],"status":"routed"},"label":"","dash":[12,4],"width":1.8}
0
LWPOLYLINE
5
163
330
119
100
AcDbEntity
8
Water
62
7
420
2456747
100
AcDbPolyline
90
2
70
0
10
390
20
395
10
390
20
435
1001
CONDUITCAD
1000
{"id":"e-mugr5p5i-1by","connector":{"from":{"entityId":"e-mugr5p5h-1bq","port":"top"},"to":{"entityId":"e-mugr5p5h-1bt","port":"water"},"style":"water","arrow":"end","waypoints":[],"status":"routed"},
1000
"label":"","dash":[],"width":2}
0
TEXT
5
164
330
119
100
AcDbEntity
8
Annotations
100
AcDbText
10
40
20
620
30
0
40
27
1
Hydronic heating circuit
50
0
41
1
7
STANDARD
100
AcDbText
73
0
1001
CONDUITCAD
1000
{"id":"e-mugr5p5i-1bz"}
0
TEXT
5
165
330
119
100
AcDbEntity
8
Annotations
100
AcDbText
10
40
20
584
30
0
40
13
1
Building services  /  Hydronic schematic
50
0
41
1
7
STANDARD
100
AcDbText
73
0
1001
CONDUITCAD
1000
{"id":"e-mugr5p5i-1c0"}
0
LINE
5
166
330
119
100
AcDbEntity
8
Annotations
100
AcDbLine
10
40
20
562
30
0
11
1120
21
562
31
0
1001
CONDUITCAD
1000
{"id":"e-mugr5p5i-1c1"}
0
TEXT
5
167
330
119
100
AcDbEntity
8
Annotations
100
AcDbText
10
40
20
42
30
0
40
11
1
CONCEPT SCHEMATIC — NOT FOR CONSTRUCTION
50
0
41
1
7
STANDARD
100
AcDbText
73
0
1001
CONDUITCAD
1000
{"id":"e-mugr5p5i-1c2"}
0
TEXT
5
168
330
119
100
AcDbEntity
8
Annotations
100
AcDbText
10
650
20
42
30
0
40
11
1
HVAC-HYDRONIC  |  REV 03  |  mm
50
0
41
1
7
STANDARD
100
AcDbText
73
0
1001
CONDUITCAD
1000
{"id":"e-mugr5p5i-1c3"}
0
ENDSEC
0
EOF
