0
SECTION
2
HEADER
9
$ACADVER
1
AC1024
9
$INSUNITS
70
4
9
$LTSCALE
40
1
9
$MEASUREMENT
70
1
999
CONDUIT:{"parameters":{"grid":"10","pipeWidth":"2","valveSize":"64"},"constraints":[],"metadata":{"author":"","description":"Pump, relief valve, reservoir and closed-centre directional val
999
CONDUIT:ve driving a double-acting cylinder.","industry":"Industrial machinery","drawingType":"Fluid-power circuit","templateId":"hydraulic-actuator","standardRefs":["ISO-1219-1"],"geometr
999
CONDUIT:yRevision":3,"approval":"Concept schematic; engineering approval required"}}
9
$HANDSEED
5
184
9
$DWGCODEPAGE
3
ANSI_1252
9
$CLAYER
8
0
9
$TILEMODE
70
1
0
ENDSEC
0
SECTION
2
TABLES
0
TABLE
2
LTYPE
5
140
330
0
100
AcDbSymbolTable
70
5
0
LTYPE
5
141
100
AcDbSymbolTableRecord
100
AcDbLinetypeTableRecord
2
CONTINUOUS
70
0
3
Solid line
72
65
73
0
40
0
330
140
0
LTYPE
5
142
100
AcDbSymbolTableRecord
100
AcDbLinetypeTableRecord
2
DASHED
70
0
3
DASHED
72
65
73
2
40
12
49
8
74
0
49
-4
74
0
330
140
0
LTYPE
5
143
100
AcDbSymbolTableRecord
100
AcDbLinetypeTableRecord
2
CENTER
70
0
3
CENTER
72
65
73
4
40
20
49
12
74
0
49
-3
74
0
49
2
74
0
49
-3
74
0
330
140
0
LTYPE
5
144
100
AcDbSymbolTableRecord
100
AcDbLinetypeTableRecord
2
HIDDEN
70
0
3
HIDDEN
72
65
73
2
40
7
49
4
74
0
49
-3
74
0
330
140
0
LTYPE
5
145
100
AcDbSymbolTableRecord
100
AcDbLinetypeTableRecord
2
CC_DASH_4_3
70
0
3
CC_DASH_4_3
72
65
73
2
40
7
49
4
74
0
49
-3
74
0
330
140
0
ENDTAB
0
TABLE
2
LAYER
5
146
330
0
100
AcDbSymbolTable
70
13
0
LAYER
5
147
100
AcDbSymbolTableRecord
100
AcDbLayerTableRecord
2
0
70
0
62
7
420
3426133
6
CONTINUOUS
330
146
0
LAYER
5
148
100
AcDbSymbolTableRecord
100
AcDbLayerTableRecord
2
Equipment
70
0
62
7
420
3495011
6
CONTINUOUS
330
146
0
LAYER
5
149
100
AcDbSymbolTableRecord
100
AcDbLayerTableRecord
2
Process
70
0
62
7
420
1342583
6
CONTINUOUS
330
146
0
LAYER
5
14A
100
AcDbSymbolTableRecord
100
AcDbLayerTableRecord
2
Instruments
70
0
62
7
420
10187334
6
CONTINUOUS
330
146
0
LAYER
5
14B
100
AcDbSymbolTableRecord
100
AcDbLayerTableRecord
2
Electrical
70
0
62
7
420
6584250
6
CONTINUOUS
330
146
0
LAYER
5
14C
100
AcDbSymbolTableRecord
100
AcDbLayerTableRecord
2
Annotations
70
0
62
7
420
7438474
6
CONTINUOUS
330
146
0
LAYER
5
14D
100
AcDbSymbolTableRecord
100
AcDbLayerTableRecord
2
Hydraulics
70
0
62
7
420
3495011
6
CONTINUOUS
330
146
0
LAYER
5
14E
100
AcDbSymbolTableRecord
100
AcDbLayerTableRecord
2
Pneumatics
70
0
62
7
420
3495011
6
CONTINUOUS
330
146
0
LAYER
5
14F
100
AcDbSymbolTableRecord
100
AcDbLayerTableRecord
2
HVAC
70
0
62
7
420
3495011
6
CONTINUOUS
330
146
0
LAYER
5
150
100
AcDbSymbolTableRecord
100
AcDbLayerTableRecord
2
Water
70
0
62
7
420
3495011
6
CONTINUOUS
330
146
0
LAYER
5
151
100
AcDbSymbolTableRecord
100
AcDbLayerTableRecord
2
Automation
70
0
62
7
420
3495011
6
CONTINUOUS
330
146
0
LAYER
5
152
100
AcDbSymbolTableRecord
100
AcDbLayerTableRecord
2
Fire
70
0
62
7
420
3495011
6
CONTINUOUS
330
146
0
LAYER
5
153
100
AcDbSymbolTableRecord
100
AcDbLayerTableRecord
2
Network
70
0
62
7
420
3495011
6
CONTINUOUS
330
146
0
ENDTAB
0
TABLE
2
STYLE
5
154
330
0
100
AcDbSymbolTable
70
1
0
STYLE
5
155
100
AcDbSymbolTableRecord
100
AcDbTextStyleTableRecord
2
STANDARD
70
0
40
0
41
1
50
0
71
0
42
2.5
3
txt
4

330
154
0
ENDTAB
0
TABLE
2
APPID
5
156
330
0
100
AcDbSymbolTable
70
2
0
APPID
5
157
100
AcDbSymbolTableRecord
100
AcDbRegAppTableRecord
2
CONDUITCAD
70
0
330
156
0
APPID
5
17D
100
AcDbSymbolTableRecord
100
AcDbRegAppTableRecord
2
ACAD
70
0
330
156
0
ENDTAB
0
TABLE
2
BLOCK_RECORD
5
158
330
0
100
AcDbSymbolTable
70
7
0
BLOCK_RECORD
5
159
100
AcDbSymbolTableRecord
100
AcDbBlockTableRecord
2
*Model_Space
340
181
330
158
0
BLOCK_RECORD
5
15A
100
AcDbSymbolTableRecord
100
AcDbBlockTableRecord
2
*Paper_Space
340
182
330
158
0
BLOCK_RECORD
5
15B
100
AcDbSymbolTableRecord
100
AcDbBlockTableRecord
2
CC_HYD_RESERVOIR
330
158
0
BLOCK_RECORD
5
15C
100
AcDbSymbolTableRecord
100
AcDbBlockTableRecord
2
CC_HYD_PUMP
330
158
0
BLOCK_RECORD
5
15D
100
AcDbSymbolTableRecord
100
AcDbBlockTableRecord
2
CC_HYD_VALVE_43
330
158
0
BLOCK_RECORD
5
15E
100
AcDbSymbolTableRecord
100
AcDbBlockTableRecord
2
CC_HYD_CYLINDER
330
158
0
BLOCK_RECORD
5
15F
100
AcDbSymbolTableRecord
100
AcDbBlockTableRecord
2
CC_HYD_RELIEF
330
158
0
ENDTAB
0
TABLE
2
VPORT
5
178
330
0
100
AcDbSymbolTable
70
0
0
ENDTAB
0
TABLE
2
VIEW
5
179
330
0
100
AcDbSymbolTable
70
0
0
ENDTAB
0
TABLE
2
UCS
5
17A
330
0
100
AcDbSymbolTable
70
0
0
ENDTAB
0
TABLE
2
DIMSTYLE
5
17B
330
0
100
AcDbSymbolTable
70
1
100
AcDbDimStyleTable
71
0
0
DIMSTYLE
105
17C
330
17B
100
AcDbSymbolTableRecord
100
AcDbDimStyleTableRecord
2
STANDARD
70
0
340
155
0
ENDTAB
0
ENDSEC
0
SECTION
2
BLOCKS
0
BLOCK
5
160
330
159
100
AcDbEntity
8
0
100
AcDbBlockBegin
2
*Model_Space
70
1
10
0
20
0
30
0
3
*Model_Space
1

1001
CONDUITCAD
1000
{"ports":[]}
0
ENDBLK
5
161
330
159
100
AcDbEntity
8
0
100
AcDbBlockEnd
0
BLOCK
5
162
330
15A
100
AcDbEntity
8
0
100
AcDbBlockBegin
2
*Paper_Space
70
1
10
0
20
0
30
0
3
*Paper_Space
1

1001
CONDUITCAD
1000
{"ports":[]}
0
ENDBLK
5
163
330
15A
100
AcDbEntity
8
0
100
AcDbBlockEnd
0
BLOCK
5
164
330
15B
100
AcDbEntity
8
0
100
AcDbBlockBegin
2
CC_HYD_RESERVOIR
70
0
10
0
20
0
30
0
3
CC_HYD_RESERVOIR
1

1001
CONDUITCAD
1000
{"ports":[{"name":"suction","x":-11,"y":45,"dx":0,"dy":1,"medium":"hydraulic","role":"connection"},{"name":"return","x":11,"y":45,"dx":0,"dy":1,"medium":"hydraulic","role":"connection"}],"symbol":{"na
1000
me":"Vented hydraulic reservoir","category":"Hydraulics","group":"Sources & drives","geometryRevision":3,"standardRefs":["ISO-1219-1","NFPC-FLUID"],"convention":"ISO-1219-1 / NFPC-FLUID family","confo
1000
rmity":"Original master; not standards-certified","normativeEntry":null,"review":{"level":"geometry-and-convention","dimensionalConformance":"not-verified","note":"New independently constructed CAD ma
1000
ster with explicit terminal topology."},"aliases":["hyd reservoir"],"defaultLayer":"Hydraulics","labelOffset":48,"extents":{"minX":-30,"minY":-22,"maxX":30,"maxY":45}}}
0
LWPOLYLINE
5
111
330
15B
100
AcDbEntity
8
0
62
0
6
CONTINUOUS
100
AcDbPolyline
90
4
70
0
10
-30
20
20
10
-30
20
-22
10
30
20
-22
10
30
20
20
1001
CONDUITCAD
1000
{"id":"master-hyd-reservoir-0"}
0
LINE
5
112
330
15B
100
AcDbEntity
8
0
62
0
6
CONTINUOUS
100
AcDbLine
10
-11
20
45
30
0
11
-11
21
-8
31
0
1001
CONDUITCAD
1000
{"id":"master-hyd-reservoir-1"}
0
LINE
5
113
330
15B
100
AcDbEntity
8
0
62
0
6
CONTINUOUS
100
AcDbLine
10
11
20
45
30
0
11
11
21
-8
31
0
1001
CONDUITCAD
1000
{"id":"master-hyd-reservoir-2"}
0
LINE
5
114
330
15B
100
AcDbEntity
8
0
62
0
6
CONTINUOUS
100
AcDbLine
10
-25
20
0
30
0
11
25
21
0
31
0
1001
CONDUITCAD
1000
{"id":"master-hyd-reservoir-3"}
0
ENDBLK
5
165
330
15B
100
AcDbEntity
8
0
100
AcDbBlockEnd
0
BLOCK
5
166
330
15C
100
AcDbEntity
8
0
100
AcDbBlockBegin
2
CC_HYD_PUMP
70
0
10
0
20
0
30
0
3
CC_HYD_PUMP
1

1001
CONDUITCAD
1000
{"ports":[{"name":"in","x":-45,"y":0,"dx":-1,"dy":0,"medium":"hydraulic","role":"connection"},{"name":"out","x":45,"y":0,"dx":1,"dy":0,"medium":"hydraulic","role":"connection"}],"symbol":{"name":"Fixe
1000
d-displacement pump","category":"Hydraulics","group":"Sources & drives","energy":"liquid/filled triangle","geometryRevision":3,"standardRefs":["ISO-1219-1","NFPC-FLUID"],"convention":"ISO-1219-1 / NFP
1000
C-FLUID family","conformity":"Original master; not standards-certified","normativeEntry":null,"review":{"level":"geometry-and-convention","dimensionalConformance":"not-verified","note":"New independen
1000
tly constructed CAD master with explicit terminal topology."},"aliases":["hyd pump"],"defaultLayer":"Hydraulics","labelOffset":48,"extents":{"minX":-45,"minY":-25.970550818758205,"maxX":45,"maxY":25.9
1000
70550818758205}}}
0
CIRCLE
5
115
330
15C
100
AcDbEntity
8
0
62
0
6
CONTINUOUS
100
AcDbCircle
10
0
20
0
30
0
40
26
1001
CONDUITCAD
1000
{"id":"master-hyd-pump-0"}
0
LINE
5
116
330
15C
100
AcDbEntity
8
0
62
0
6
CONTINUOUS
100
AcDbLine
10
-45
20
0
30
0
11
-26
21
0
31
0
1001
CONDUITCAD
1000
{"id":"master-hyd-pump-1"}
0
LINE
5
117
330
15C
100
AcDbEntity
8
0
62
0
6
CONTINUOUS
100
AcDbLine
10
26
20
0
30
0
11
45
21
0
31
0
1001
CONDUITCAD
1000
{"id":"master-hyd-pump-2"}
0
SOLID
5
118
330
15C
100
AcDbEntity
8
0
62
0
6
CONTINUOUS
100
AcDbTrace
10
10
20
-8
30
0
11
10
21
8
31
0
12
24
22
0
32
0
13
24
23
0
33
0
1001
CONDUITCAD
1000
{"id":"master-hyd-pump-3"}
0
ENDBLK
5
167
330
15C
100
AcDbEntity
8
0
100
AcDbBlockEnd
0
BLOCK
5
168
330
15D
100
AcDbEntity
8
0
100
AcDbBlockBegin
2
CC_HYD_VALVE_43
70
0
10
0
20
0
30
0
3
CC_HYD_VALVE_43
1

1001
CONDUITCAD
1000
{"ports":[{"name":"A","x":-11,"y":45,"dx":0,"dy":1,"medium":"hydraulic","role":"connection"},{"name":"B","x":11,"y":45,"dx":0,"dy":1,"medium":"hydraulic","role":"connection"},{"name":"P","x":-11,"y":-
1000
45,"dx":0,"dy":-1,"medium":"hydraulic","role":"connection"},{"name":"T","x":11,"y":-45,"dx":0,"dy":-1,"medium":"hydraulic","role":"connection"}],"symbol":{"name":"4/3 valve \u00b7 closed centre","cate
1000
gory":"Hydraulics","group":"Directional valves","positions":3,"workingPorts":4,"normalState":"all ports closed","geometryRevision":3,"standardRefs":["ISO-1219-1","NFPC-FLUID"],"convention":"ISO-1219-1
1000
 / NFPC-FLUID family","conformity":"Original master; not standards-certified","normativeEntry":null,"review":{"level":"geometry-and-convention","dimensionalConformance":"not-verified","note":"New inde
1000
pendently constructed CAD master with explicit terminal topology."},"aliases":["hyd valve 43"],"defaultLayer":"Hydraulics","labelOffset":67,"extents":{"minX":-88,"minY":-45,"maxX":88,"maxY":45}}}
0
LWPOLYLINE
5
119
330
15D
100
AcDbEntity
8
0
62
0
6
CONTINUOUS
100
AcDbPolyline
90
4
70
1
10
-66
20
-22
10
-22
20
-22
10
-22
20
22
10
-66
20
22
1001
CONDUITCAD
1000
{"id":"master-hyd-valve-43-0"}
0
LWPOLYLINE
5
11A
330
15D
100
AcDbEntity
8
0
62
0
6
CONTINUOUS
100
AcDbPolyline
90
4
70
1
10
-22
20
-22
10
22
20
-22
10
22
20
22
10
-22
20
22
1001
CONDUITCAD
1000
{"id":"master-hyd-valve-43-1"}
0
LWPOLYLINE
5
11B
330
15D
100
AcDbEntity
8
0
62
0
6
CONTINUOUS
100
AcDbPolyline
90
4
70
1
10
22
20
-22
10
66
20
-22
10
66
20
22
10
22
20
22
1001
CONDUITCAD
1000
{"id":"master-hyd-valve-43-2"}
0
LWPOLYLINE
5
11C
330
15D
100
AcDbEntity
8
0
62
0
6
CONTINUOUS
100
AcDbPolyline
90
10
70
0
10
-88
20
0
10
-85.8
20
0
10
-83.38
20
6
10
-80.96
20
-6
10
-78.53999999999999
20
6
10
-76.12
20
-6
10
-73.7
20
6
10
-71.28
20
-6
10
-68.2
20
0
10
-66
20
0
1001
CONDUITCAD
1000
{"id":"master-hyd-valve-43-3"}
0
LWPOLYLINE
5
11D
330
15D
100
AcDbEntity
8
0
62
0
6
CONTINUOUS
100
AcDbPolyline
90
10
70
0
10
66
20
0
10
68.2
20
0
10
70.62
20
6
10
73.04
20
-6
10
75.46000000000001
20
6
10
77.88
20
-6
10
80.3
20
6
10
82.72
20
-6
10
85.8
20
0
10
88
20
0
1001
CONDUITCAD
1000
{"id":"master-hyd-valve-43-4"}
0
LINE
5
11E
330
15D
100
AcDbEntity
8
0
62
0
6
CONTINUOUS
100
AcDbLine
10
-11
20
22
30
0
11
-11
21
45
31
0
1001
CONDUITCAD
1000
{"id":"master-hyd-valve-43-5"}
0
LINE
5
11F
330
15D
100
AcDbEntity
8
0
62
0
6
CONTINUOUS
100
AcDbLine
10
-11
20
-22
30
0
11
-11
21
-45
31
0
1001
CONDUITCAD
1000
{"id":"master-hyd-valve-43-6"}
0
LINE
5
120
330
15D
100
AcDbEntity
8
0
62
0
6
CONTINUOUS
100
AcDbLine
10
-11
20
22
30
0
11
-11
21
10
31
0
1001
CONDUITCAD
1000
{"id":"master-hyd-valve-43-7"}
0
LINE
5
121
330
15D
100
AcDbEntity
8
0
62
0
6
CONTINUOUS
100
AcDbLine
10
-16
20
10
30
0
11
-6
21
10
31
0
1001
CONDUITCAD
1000
{"id":"master-hyd-valve-43-8"}
0
LINE
5
122
330
15D
100
AcDbEntity
8
0
62
0
6
CONTINUOUS
100
AcDbLine
10
11
20
22
30
0
11
11
21
45
31
0
1001
CONDUITCAD
1000
{"id":"master-hyd-valve-43-9"}
0
LINE
5
123
330
15D
100
AcDbEntity
8
0
62
0
6
CONTINUOUS
100
AcDbLine
10
11
20
-22
30
0
11
11
21
-45
31
0
1001
CONDUITCAD
1000
{"id":"master-hyd-valve-43-10"}
0
LINE
5
124
330
15D
100
AcDbEntity
8
0
62
0
6
CONTINUOUS
100
AcDbLine
10
11
20
22
30
0
11
11
21
10
31
0
1001
CONDUITCAD
1000
{"id":"master-hyd-valve-43-11"}
0
LINE
5
125
330
15D
100
AcDbEntity
8
0
62
0
6
CONTINUOUS
100
AcDbLine
10
6
20
10
30
0
11
16
21
10
31
0
1001
CONDUITCAD
1000
{"id":"master-hyd-valve-43-12"}
0
LINE
5
126
330
15D
100
AcDbEntity
8
0
62
0
6
CONTINUOUS
100
AcDbLine
10
-11
20
-22
30
0
11
-11
21
-10
31
0
1001
CONDUITCAD
1000
{"id":"master-hyd-valve-43-13"}
0
LINE
5
127
330
15D
100
AcDbEntity
8
0
62
0
6
CONTINUOUS
100
AcDbLine
10
-16
20
-10
30
0
11
-6
21
-10
31
0
1001
CONDUITCAD
1000
{"id":"master-hyd-valve-43-14"}
0
LINE
5
128
330
15D
100
AcDbEntity
8
0
62
0
6
CONTINUOUS
100
AcDbLine
10
11
20
-22
30
0
11
11
21
-10
31
0
1001
CONDUITCAD
1000
{"id":"master-hyd-valve-43-15"}
0
LINE
5
129
330
15D
100
AcDbEntity
8
0
62
0
6
CONTINUOUS
100
AcDbLine
10
6
20
-10
30
0
11
16
21
-10
31
0
1001
CONDUITCAD
1000
{"id":"master-hyd-valve-43-16"}
0
LINE
5
12A
330
15D
100
AcDbEntity
8
0
62
0
6
CONTINUOUS
100
AcDbLine
10
-55
20
-16
30
0
11
-33
21
16
31
0
1001
CONDUITCAD
1000
{"id":"master-hyd-valve-43-17"}
0
LWPOLYLINE
5
12B
330
15D
100
AcDbEntity
8
0
62
0
6
CONTINUOUS
100
AcDbPolyline
90
3
70
1
10
-33
20
16
10
-39.56143382143746
20
12.016272322698683
10
-34.36996969898145
20
8.447140738510171
1001
CONDUITCAD
1000
{"id":"master-hyd-valve-43-18"}
0
LINE
5
12C
330
15D
100
AcDbEntity
8
0
62
0
6
CONTINUOUS
100
AcDbLine
10
-55
20
16
30
0
11
-33
21
-16
31
0
1001
CONDUITCAD
1000
{"id":"master-hyd-valve-43-19"}
0
LWPOLYLINE
5
12D
330
15D
100
AcDbEntity
8
0
62
0
6
CONTINUOUS
100
AcDbPolyline
90
3
70
1
10
-33
20
-16
10
-34.36996969898145
20
-8.447140738510171
10
-39.56143382143746
20
-12.016272322698683
1001
CONDUITCAD
1000
{"id":"master-hyd-valve-43-20"}
0
LINE
5
12E
330
15D
100
AcDbEntity
8
0
62
0
6
CONTINUOUS
100
AcDbLine
10
33
20
-16
30
0
11
33
21
16
31
0
1001
CONDUITCAD
1000
{"id":"master-hyd-valve-43-21"}
0
LWPOLYLINE
5
12F
330
15D
100
AcDbEntity
8
0
62
0
6
CONTINUOUS
100
AcDbPolyline
90
3
70
1
10
33
20
16
10
29.85
20
9
10
36.15
20
9
1001
CONDUITCAD
1000
{"id":"master-hyd-valve-43-22"}
0
LINE
5
130
330
15D
100
AcDbEntity
8
0
62
0
6
CONTINUOUS
100
AcDbLine
10
55
20
16
30
0
11
55
21
-16
31
0
1001
CONDUITCAD
1000
{"id":"master-hyd-valve-43-23"}
0
LWPOLYLINE
5
131
330
15D
100
AcDbEntity
8
0
62
0
6
CONTINUOUS
100
AcDbPolyline
90
3
70
1
10
55
20
-16
10
58.15
20
-9
10
51.85
20
-9
1001
CONDUITCAD
1000
{"id":"master-hyd-valve-43-24"}
0
ENDBLK
5
169
330
15D
100
AcDbEntity
8
0
100
AcDbBlockEnd
0
BLOCK
5
16A
330
15E
100
AcDbEntity
8
0
100
AcDbBlockBegin
2
CC_HYD_CYLINDER
70
0
10
0
20
0
30
0
3
CC_HYD_CYLINDER
1

1001
CONDUITCAD
1000
{"ports":[{"name":"A","x":-23,"y":-45,"dx":0,"dy":-1,"medium":"hydraulic","role":"connection"},{"name":"B","x":23,"y":-45,"dx":0,"dy":-1,"medium":"hydraulic","role":"connection"}],"symbol":{"name":"Do
1000
uble-acting cylinder","category":"Hydraulics","group":"Actuators","geometryRevision":3,"standardRefs":["ISO-1219-1","NFPC-FLUID"],"convention":"ISO-1219-1 / NFPC-FLUID family","conformity":"Original m
1000
aster; not standards-certified","normativeEntry":null,"review":{"level":"geometry-and-convention","dimensionalConformance":"not-verified","note":"New independently constructed CAD master with explicit
1000
 terminal topology."},"aliases":["hyd cylinder"],"defaultLayer":"Hydraulics","labelOffset":67,"extents":{"minX":-34,"minY":-45,"maxX":49,"maxY":22}}}
0
LWPOLYLINE
5
132
330
15E
100
AcDbEntity
8
0
62
0
6
CONTINUOUS
100
AcDbPolyline
90
4
70
1
10
-34
20
-22
10
34
20
-22
10
34
20
22
10
-34
20
22
1001
CONDUITCAD
1000
{"id":"master-hyd-cylinder-0"}
0
LINE
5
133
330
15E
100
AcDbEntity
8
0
62
0
6
CONTINUOUS
100
AcDbLine
10
-8
20
-22
30
0
11
-8
21
22
31
0
1001
CONDUITCAD
1000
{"id":"master-hyd-cylinder-1"}
0
LINE
5
134
330
15E
100
AcDbEntity
8
0
62
0
6
CONTINUOUS
100
AcDbLine
10
-8
20
-5
30
0
11
49
21
-5
31
0
1001
CONDUITCAD
1000
{"id":"master-hyd-cylinder-2"}
0
LINE
5
135
330
15E
100
AcDbEntity
8
0
62
0
6
CONTINUOUS
100
AcDbLine
10
49
20
-5
30
0
11
49
21
5
31
0
1001
CONDUITCAD
1000
{"id":"master-hyd-cylinder-3"}
0
LINE
5
136
330
15E
100
AcDbEntity
8
0
62
0
6
CONTINUOUS
100
AcDbLine
10
49
20
5
30
0
11
-8
21
5
31
0
1001
CONDUITCAD
1000
{"id":"master-hyd-cylinder-4"}
0
LINE
5
137
330
15E
100
AcDbEntity
8
0
62
0
6
CONTINUOUS
100
AcDbLine
10
-23
20
-22
30
0
11
-23
21
-45
31
0
1001
CONDUITCAD
1000
{"id":"master-hyd-cylinder-5"}
0
LINE
5
138
330
15E
100
AcDbEntity
8
0
62
0
6
CONTINUOUS
100
AcDbLine
10
23
20
-22
30
0
11
23
21
-45
31
0
1001
CONDUITCAD
1000
{"id":"master-hyd-cylinder-6"}
0
ENDBLK
5
16B
330
15E
100
AcDbEntity
8
0
100
AcDbBlockEnd
0
BLOCK
5
16C
330
15F
100
AcDbEntity
8
0
100
AcDbBlockBegin
2
CC_HYD_RELIEF
70
0
10
0
20
0
30
0
3
CC_HYD_RELIEF
1

1001
CONDUITCAD
1000
{"ports":[{"name":"in","x":-45,"y":0,"dx":-1,"dy":0,"medium":"hydraulic","role":"connection"},{"name":"out","x":45,"y":0,"dx":1,"dy":0,"medium":"hydraulic","role":"connection"}],"symbol":{"name":"Pres
1000
sure relief valve","category":"Hydraulics","group":"Flow & pressure","geometryRevision":3,"standardRefs":["ISO-1219-1","NFPC-FLUID"],"convention":"ISO-1219-1 / NFPC-FLUID family","conformity":"Origina
1000
l master; not standards-certified","normativeEntry":null,"review":{"level":"geometry-and-convention","dimensionalConformance":"not-verified","note":"New independently constructed CAD master with expli
1000
cit terminal topology."},"aliases":["hyd relief"],"defaultLayer":"Hydraulics","labelOffset":56,"extents":{"minX":-45,"minY":-34,"maxX":45,"maxY":48}}}
0
LWPOLYLINE
5
139
330
15F
100
AcDbEntity
8
0
62
0
6
CONTINUOUS
100
AcDbPolyline
90
4
70
1
10
-22
20
-22
10
22
20
-22
10
22
20
22
10
-22
20
22
1001
CONDUITCAD
1000
{"id":"master-hyd-relief-0"}
0
LINE
5
13A
330
15F
100
AcDbEntity
8
0
62
0
6
CONTINUOUS
100
AcDbLine
10
-45
20
0
30
0
11
-22
21
0
31
0
1001
CONDUITCAD
1000
{"id":"master-hyd-relief-1"}
0
LINE
5
13B
330
15F
100
AcDbEntity
8
0
62
0
6
CONTINUOUS
100
AcDbLine
10
22
20
0
30
0
11
45
21
0
31
0
1001
CONDUITCAD
1000
{"id":"master-hyd-relief-2"}
0
LINE
5
13C
330
15F
100
AcDbEntity
8
0
62
0
6
CONTINUOUS
100
AcDbLine
10
-16
20
0
30
0
11
16
21
0
31
0
1001
CONDUITCAD
1000
{"id":"master-hyd-relief-3"}
0
SOLID
5
13D
330
15F
100
AcDbEntity
8
0
62
0
6
CONTINUOUS
100
AcDbTrace
10
16
20
0
30
0
11
9
21
3.15
31
0
12
9
22
-3.15
32
0
13
9
23
-3.15
33
0
1001
CONDUITCAD
1000
{"id":"master-hyd-relief-4"}
0
LWPOLYLINE
5
13E
330
15F
100
AcDbEntity
8
0
62
0
6
CONTINUOUS
100
AcDbPolyline
90
10
70
0
10
0
20
22
10
0
20
24.6
10
6
20
27.46
10
-6
20
30.32
10
6
20
33.18
10
-6
20
36.04
10
6
20
38.900000000000006
10
-6
20
41.760000000000005
10
0
20
45.400000000000006
10
0
20
48
1001
CONDUITCAD
1000
{"id":"master-hyd-relief-5"}
0
LWPOLYLINE
5
13F
330
15F
100
AcDbEntity
8
0
62
0
6
CC_DASH_4_3
100
AcDbPolyline
90
4
70
0
10
-34
20
0
10
-34
20
-34
10
0
20
-34
10
0
20
-22
1001
CONDUITCAD
1000
{"id":"master-hyd-relief-6","dash":[4,3]}
0
ENDBLK
5
16D
330
15F
100
AcDbEntity
8
0
100
AcDbBlockEnd
0
ENDSEC
0
SECTION
2
ENTITIES
0
INSERT
5
100
330
159
100
AcDbEntity
8
Hydraulics
100
AcDbBlockReference
2
CC_HYD_RESERVOIR
10
150
20
140
30
0
41
1
42
1
43
1
50
0
66
1
1001
CONDUITCAD
1000
{"id":"e-muio64nf-1c4","tag":"TK-1"}
0
ATTRIB
5
16E
330
100
100
AcDbEntity
8
Hydraulics
100
AcDbText
10
150
20
92
30
0
40
12
1
TK-1
50
0
41
1
7
STANDARD
72
1
11
150
21
92
31
0
100
AcDbAttribute
2
TAG
70
0
74
0
0
SEQEND
5
16F
330
100
100
AcDbEntity
8
Hydraulics
0
INSERT
5
101
330
159
100
AcDbEntity
8
Hydraulics
100
AcDbBlockReference
2
CC_HYD_PUMP
10
150
20
350
30
0
41
1
42
1
43
1
50
0
66
1
1001
CONDUITCAD
1000
{"id":"e-muio64nf-1c5","tag":"P-1"}
0
ATTRIB
5
170
330
101
100
AcDbEntity
8
Hydraulics
100
AcDbText
10
150
20
302
30
0
40
12
1
P-1
50
0
41
1
7
STANDARD
72
1
11
150
21
302
31
0
100
AcDbAttribute
2
TAG
70
0
74
0
0
SEQEND
5
171
330
101
100
AcDbEntity
8
Hydraulics
0
INSERT
5
102
330
159
100
AcDbEntity
8
Hydraulics
100
AcDbBlockReference
2
CC_HYD_VALVE_43
10
570
20
280
30
0
41
1
42
1
43
1
50
0
66
1
1001
CONDUITCAD
1000
{"id":"e-muio64nf-1c6","tag":"V-1"}
0
ATTRIB
5
172
330
102
100
AcDbEntity
8
Hydraulics
100
AcDbText
10
570
20
213
30
0
40
12
1
V-1
50
0
41
1
7
STANDARD
72
1
11
570
21
213
31
0
100
AcDbAttribute
2
TAG
70
0
74
0
0
SEQEND
5
173
330
102
100
AcDbEntity
8
Hydraulics
0
INSERT
5
103
330
159
100
AcDbEntity
8
Hydraulics
100
AcDbBlockReference
2
CC_HYD_CYLINDER
10
570
20
470
30
0
41
1
42
1
43
1
50
0
66
1
1001
CONDUITCAD
1000
{"id":"e-muio64nf-1c7","tag":"A-1"}
0
ATTRIB
5
174
330
103
100
AcDbEntity
8
Hydraulics
100
AcDbText
10
570
20
403
30
0
40
12
1
A-1
50
0
41
1
7
STANDARD
72
1
11
570
21
403
31
0
100
AcDbAttribute
2
TAG
70
0
74
0
0
SEQEND
5
175
330
103
100
AcDbEntity
8
Hydraulics
0
INSERT
5
104
330
159
100
AcDbEntity
8
Hydraulics
100
AcDbBlockReference
2
CC_HYD_RELIEF
10
330
20
160
30
0
41
1
42
1
43
1
50
0
66
1
1001
CONDUITCAD
1000
{"id":"e-muio64nf-1c8","tag":"RV-1"}
0
ATTRIB
5
176
330
104
100
AcDbEntity
8
Hydraulics
100
AcDbText
10
330
20
104
30
0
40
12
1
RV-1
50
0
41
1
7
STANDARD
72
1
11
330
21
104
31
0
100
AcDbAttribute
2
TAG
70
0
74
0
0
SEQEND
5
177
330
104
100
AcDbEntity
8
Hydraulics
0
LWPOLYLINE
5
105
330
159
100
AcDbEntity
8
Hydraulics
62
7
420
5602713
100
AcDbPolyline
90
5
70
0
10
139
20
185
10
139
20
203
10
87
20
203
10
87
20
350
10
105
20
350
1001
CONDUITCAD
1000
{"id":"e-muio64ng-1c9","connector":{"from":{"entityId":"e-muio64nf-1c4","port":"suction"},"to":{"entityId":"e-muio64nf-1c5","port":"in"},"style":"hydraulic","arrow":"none","waypoints":[],"status":"rou
1000
ted"},"label":"","dash":[],"width":2.8}
0
LWPOLYLINE
5
106
330
159
100
AcDbEntity
8
Hydraulics
62
7
420
5602713
100
AcDbPolyline
90
5
70
0
10
195
20
350
10
213
20
350
10
213
20
217
10
559
20
217
10
559
20
235
1001
CONDUITCAD
1000
{"id":"e-muio64ng-1ca","connector":{"from":{"entityId":"e-muio64nf-1c5","port":"out"},"to":{"entityId":"e-muio64nf-1c6","port":"P"},"style":"hydraulic","arrow":"none","waypoints":[],"status":"routed"}
1000
,"label":"","dash":[],"width":2.8}
0
LWPOLYLINE
5
107
330
159
100
AcDbEntity
8
Hydraulics
62
7
420
5602713
100
AcDbPolyline
90
4
70
0
10
559
20
325
10
559
20
343
10
547
20
343
10
547
20
425
1001
CONDUITCAD
1000
{"id":"e-muio64ng-1cb","connector":{"from":{"entityId":"e-muio64nf-1c6","port":"A"},"to":{"entityId":"e-muio64nf-1c7","port":"A"},"style":"hydraulic","arrow":"none","waypoints":[],"status":"routed"},"
1000
label":"","dash":[],"width":2.8}
0
LWPOLYLINE
5
108
330
159
100
AcDbEntity
8
Hydraulics
62
7
420
5602713
100
AcDbPolyline
90
4
70
0
10
581
20
325
10
581
20
343
10
593
20
343
10
593
20
425
1001
CONDUITCAD
1000
{"id":"e-muio64ng-1cc","connector":{"from":{"entityId":"e-muio64nf-1c6","port":"B"},"to":{"entityId":"e-muio64nf-1c7","port":"B"},"style":"hydraulic","arrow":"none","waypoints":[],"status":"routed"},"
1000
label":"","dash":[],"width":2.8}
0
LWPOLYLINE
5
109
330
159
100
AcDbEntity
8
Hydraulics
62
7
420
5798811
100
AcDbPolyline
90
8
70
0
10
581
20
235
10
581
20
217
10
760
20
217
10
760
20
90
10
210
20
90
10
210
20
203
10
161
20
203
10
161
20
185
1001
CONDUITCAD
1000
{"id":"e-muio64ng-1cd","connector":{"from":{"entityId":"e-muio64nf-1c6","port":"T"},"to":{"entityId":"e-muio64nf-1c4","port":"return"},"style":"hyd-return","arrow":"none","waypoints":[{"x":760,"y":90}
1000
,{"x":210,"y":90}],"status":"routed"},"label":"","dash":[],"width":1.8}
0
LWPOLYLINE
5
10A
330
159
100
AcDbEntity
8
Hydraulics
62
7
420
5602713
100
AcDbPolyline
90
4
70
0
10
195
20
350
10
267
20
350
10
267
20
160
10
285
20
160
1001
CONDUITCAD
1000
{"id":"e-muio64ng-1ce","connector":{"from":{"entityId":"e-muio64nf-1c5","port":"out"},"to":{"entityId":"e-muio64nf-1c8","port":"in"},"style":"hydraulic","arrow":"none","waypoints":[],"status":"routed"
1000
},"label":"","dash":[],"width":2.8}
0
LWPOLYLINE
5
10B
330
159
100
AcDbEntity
8
Hydraulics
62
7
420
5798811
100
AcDbPolyline
90
5
70
0
10
375
20
160
10
393
20
160
10
393
20
216.001
10
161
20
216.001
10
161
20
185
1001
CONDUITCAD
1000
{"id":"e-muio64nh-1cf","connector":{"from":{"entityId":"e-muio64nf-1c8","port":"out"},"to":{"entityId":"e-muio64nf-1c4","port":"return"},"style":"hyd-return","arrow":"none","waypoints":[],"status":"ro
1000
uted"},"label":"","dash":[],"width":1.8}
0
TEXT
5
10C
330
159
100
AcDbEntity
8
Annotations
100
AcDbText
10
40
20
620
30
0
40
27
1
Hydraulic actuator circuit
50
0
41
1
7
STANDARD
100
AcDbText
73
0
1001
CONDUITCAD
1000
{"id":"e-muio64nh-1cg"}
0
TEXT
5
10D
330
159
100
AcDbEntity
8
Annotations
100
AcDbText
10
40
20
584
30
0
40
13
1
Industrial machinery  /  Fluid-power circuit
50
0
41
1
7
STANDARD
100
AcDbText
73
0
1001
CONDUITCAD
1000
{"id":"e-muio64nh-1ch"}
0
LINE
5
10E
330
159
100
AcDbEntity
8
Annotations
100
AcDbLine
10
40
20
562
30
0
11
1120
21
562
31
0
1001
CONDUITCAD
1000
{"id":"e-muio64nh-1ci"}
0
TEXT
5
10F
330
159
100
AcDbEntity
8
Annotations
100
AcDbText
10
40
20
42
30
0
40
11
1
CONCEPT SCHEMATIC — NOT FOR CONSTRUCTION
50
0
41
1
7
STANDARD
100
AcDbText
73
0
1001
CONDUITCAD
1000
{"id":"e-muio64nh-1cj"}
0
TEXT
5
110
330
159
100
AcDbEntity
8
Annotations
100
AcDbText
10
650
20
42
30
0
40
11
1
HYDRAULIC-ACTUATOR  |  REV 03  |  mm
50
0
41
1
7
STANDARD
100
AcDbText
73
0
1001
CONDUITCAD
1000
{"id":"e-muio64nh-1ck"}
0
ENDSEC
0
SECTION
2
OBJECTS
0
DICTIONARY
5
17E
330
0
100
AcDbDictionary
281
1
3
ACAD_LAYOUT
350
17F
3
ACAD_GROUP
350
180
3
CONDUITCAD_METADATA
350
183
0
DICTIONARY
5
17F
330
17E
100
AcDbDictionary
281
1
3
Model
350
181
3
Layout1
350
182
0
DICTIONARY
5
180
330
17E
100
AcDbDictionary
281
1
0
LAYOUT
5
181
330
17F
100
AcDbPlotSettings
1

2

4

6

40
0
41
0
42
0
43
0
44
420
45
297
46
0
47
0
48
0
49
0
140
0
141
0
142
1
143
1
70
0
72
1
73
0
74
5
7

75
16
76
0
77
0
78
300
147
1
148
0
149
0
100
AcDbLayout
1
Model
70
1
71
0
10
0
20
0
11
420
21
297
12
0
22
0
32
0
14
0
24
0
34
0
15
420
25
297
35
0
146
0
13
0
23
0
33
0
16
1
26
0
36
0
17
0
27
1
37
0
76
0
330
159
0
LAYOUT
5
182
330
17F
100
AcDbPlotSettings
1

2

4

6

40
0
41
0
42
0
43
0
44
420
45
297
46
0
47
0
48
0
49
0
140
0
141
0
142
1
143
1
70
0
72
1
73
0
74
5
7

75
16
76
0
77
0
78
300
147
1
148
0
149
0
100
AcDbLayout
1
Layout1
70
1
71
1
10
0
20
0
11
420
21
297
12
0
22
0
32
0
14
0
24
0
34
0
15
420
25
297
35
0
146
0
13
0
23
0
33
0
16
1
26
0
36
0
17
0
27
1
37
0
76
0
330
15A
0
XRECORD
5
183
330
17E
100
AcDbXrecord
280
1
1
{"parameters":{"grid":"10","pipeWidth":"2","valveSize":"64"},"constraints":[],"metadata":{"author":"","description":"Pump, relief valve, reservoir and closed-centre directional valve driving a double-
1
acting cylinder.","industry":"Industrial machinery","drawingType":"Fluid-power circuit","templateId":"hydraulic-actuator","standardRefs":["ISO-1219-1"],"geometryRevision":3,"approval":"Concept schemat
1
ic; engineering approval required"}}
0
ENDSEC
0
EOF
