0
SECTION
2
HEADER
9
$ACADVER
1
AC1024
9
$INSUNITS
70
4
9
$LTSCALE
40
1
9
$MEASUREMENT
70
1
999
CONDUIT:{"parameters":{"grid":"10","pipeWidth":"2","valveSize":"64"},"constraints":[],"metadata":{"author":"","description":"Field transmitter, controller, current-to-pressure converter an
999
CONDUIT:d valve actuator.","industry":"Process automation","drawingType":"Instrument functional loop","templateId":"instrument-loop","standardRefs":["ISA-5.1","PROJECT"],"geometryRevision"
999
CONDUIT::3,"approval":"Concept schematic; engineering approval required"}}
9
$HANDSEED
5
161
9
$DWGCODEPAGE
3
ANSI_1252
9
$CLAYER
8
0
9
$TILEMODE
70
1
0
ENDSEC
0
SECTION
2
TABLES
0
TABLE
2
LTYPE
5
121
330
0
100
AcDbSymbolTable
70
6
0
LTYPE
5
122
100
AcDbSymbolTableRecord
100
AcDbLinetypeTableRecord
2
CONTINUOUS
70
0
3
Solid line
72
65
73
0
40
0
330
121
0
LTYPE
5
123
100
AcDbSymbolTableRecord
100
AcDbLinetypeTableRecord
2
DASHED
70
0
3
DASHED
72
65
73
2
40
12
49
8
74
0
49
-4
74
0
330
121
0
LTYPE
5
124
100
AcDbSymbolTableRecord
100
AcDbLinetypeTableRecord
2
CENTER
70
0
3
CENTER
72
65
73
4
40
20
49
12
74
0
49
-3
74
0
49
2
74
0
49
-3
74
0
330
121
0
LTYPE
5
125
100
AcDbSymbolTableRecord
100
AcDbLinetypeTableRecord
2
HIDDEN
70
0
3
HIDDEN
72
65
73
2
40
7
49
4
74
0
49
-3
74
0
330
121
0
LTYPE
5
126
100
AcDbSymbolTableRecord
100
AcDbLinetypeTableRecord
2
CC_DASH_6_4
70
0
3
CC_DASH_6_4
72
65
73
2
40
10
49
6
74
0
49
-4
74
0
330
121
0
LTYPE
5
127
100
AcDbSymbolTableRecord
100
AcDbLinetypeTableRecord
2
CC_DASH_10_3_2_3_2_3
70
0
3
CC_DASH_10_3_2_3_2_3
72
65
73
6
40
23
49
10
74
0
49
-3
74
0
49
2
74
0
49
-3
74
0
49
2
74
0
49
-3
74
0
330
121
0
ENDTAB
0
TABLE
2
LAYER
5
128
330
0
100
AcDbSymbolTable
70
13
0
LAYER
5
129
100
AcDbSymbolTableRecord
100
AcDbLayerTableRecord
2
0
70
0
62
7
420
3426133
6
CONTINUOUS
330
128
0
LAYER
5
12A
100
AcDbSymbolTableRecord
100
AcDbLayerTableRecord
2
Equipment
70
0
62
7
420
3495011
6
CONTINUOUS
330
128
0
LAYER
5
12B
100
AcDbSymbolTableRecord
100
AcDbLayerTableRecord
2
Process
70
0
62
7
420
1342583
6
CONTINUOUS
330
128
0
LAYER
5
12C
100
AcDbSymbolTableRecord
100
AcDbLayerTableRecord
2
Instruments
70
0
62
7
420
10187334
6
CONTINUOUS
330
128
0
LAYER
5
12D
100
AcDbSymbolTableRecord
100
AcDbLayerTableRecord
2
Electrical
70
0
62
7
420
6584250
6
CONTINUOUS
330
128
0
LAYER
5
12E
100
AcDbSymbolTableRecord
100
AcDbLayerTableRecord
2
Annotations
70
0
62
7
420
7438474
6
CONTINUOUS
330
128
0
LAYER
5
12F
100
AcDbSymbolTableRecord
100
AcDbLayerTableRecord
2
Hydraulics
70
0
62
7
420
3495011
6
CONTINUOUS
330
128
0
LAYER
5
130
100
AcDbSymbolTableRecord
100
AcDbLayerTableRecord
2
Pneumatics
70
0
62
7
420
3495011
6
CONTINUOUS
330
128
0
LAYER
5
131
100
AcDbSymbolTableRecord
100
AcDbLayerTableRecord
2
HVAC
70
0
62
7
420
3495011
6
CONTINUOUS
330
128
0
LAYER
5
132
100
AcDbSymbolTableRecord
100
AcDbLayerTableRecord
2
Water
70
0
62
7
420
3495011
6
CONTINUOUS
330
128
0
LAYER
5
133
100
AcDbSymbolTableRecord
100
AcDbLayerTableRecord
2
Automation
70
0
62
7
420
3495011
6
CONTINUOUS
330
128
0
LAYER
5
134
100
AcDbSymbolTableRecord
100
AcDbLayerTableRecord
2
Fire
70
0
62
7
420
3495011
6
CONTINUOUS
330
128
0
LAYER
5
135
100
AcDbSymbolTableRecord
100
AcDbLayerTableRecord
2
Network
70
0
62
7
420
3495011
6
CONTINUOUS
330
128
0
ENDTAB
0
TABLE
2
STYLE
5
136
330
0
100
AcDbSymbolTable
70
1
0
STYLE
5
137
100
AcDbSymbolTableRecord
100
AcDbTextStyleTableRecord
2
STANDARD
70
0
40
0
41
1
50
0
71
0
42
2.5
3
txt
4

330
136
0
ENDTAB
0
TABLE
2
APPID
5
138
330
0
100
AcDbSymbolTable
70
2
0
APPID
5
139
100
AcDbSymbolTableRecord
100
AcDbRegAppTableRecord
2
CONDUITCAD
70
0
330
138
0
APPID
5
15A
100
AcDbSymbolTableRecord
100
AcDbRegAppTableRecord
2
ACAD
70
0
330
138
0
ENDTAB
0
TABLE
2
BLOCK_RECORD
5
13A
330
0
100
AcDbSymbolTable
70
6
0
BLOCK_RECORD
5
13B
100
AcDbSymbolTableRecord
100
AcDbBlockTableRecord
2
*Model_Space
340
15E
330
13A
0
BLOCK_RECORD
5
13C
100
AcDbSymbolTableRecord
100
AcDbBlockTableRecord
2
*Paper_Space
340
15F
330
13A
0
BLOCK_RECORD
5
13D
100
AcDbSymbolTableRecord
100
AcDbBlockTableRecord
2
CC_FLOW_TRANSMITTER
330
13A
0
BLOCK_RECORD
5
13E
100
AcDbSymbolTableRecord
100
AcDbBlockTableRecord
2
CC_FLOW_CONTROLLER_PANEL
330
13A
0
BLOCK_RECORD
5
13F
100
AcDbSymbolTableRecord
100
AcDbBlockTableRecord
2
CC_IP_CONVERTER
330
13A
0
BLOCK_RECORD
5
140
100
AcDbSymbolTableRecord
100
AcDbBlockTableRecord
2
CC_CONTROL_VALVE
330
13A
0
ENDTAB
0
TABLE
2
VPORT
5
155
330
0
100
AcDbSymbolTable
70
0
0
ENDTAB
0
TABLE
2
VIEW
5
156
330
0
100
AcDbSymbolTable
70
0
0
ENDTAB
0
TABLE
2
UCS
5
157
330
0
100
AcDbSymbolTable
70
0
0
ENDTAB
0
TABLE
2
DIMSTYLE
5
158
330
0
100
AcDbSymbolTable
70
1
100
AcDbDimStyleTable
71
0
0
DIMSTYLE
105
159
330
158
100
AcDbSymbolTableRecord
100
AcDbDimStyleTableRecord
2
STANDARD
70
0
340
137
0
ENDTAB
0
ENDSEC
0
SECTION
2
BLOCKS
0
BLOCK
5
141
330
13B
100
AcDbEntity
8
0
100
AcDbBlockBegin
2
*Model_Space
70
0
10
0
20
0
30
0
3
*Model_Space
1

1001
CONDUITCAD
1000
{"ports":[]}
0
ENDBLK
5
142
330
13B
100
AcDbEntity
8
0
100
AcDbBlockEnd
0
BLOCK
5
143
330
13C
100
AcDbEntity
8
0
100
AcDbBlockBegin
2
*Paper_Space
70
0
10
0
20
0
30
0
3
*Paper_Space
1

1001
CONDUITCAD
1000
{"ports":[]}
0
ENDBLK
5
144
330
13C
100
AcDbEntity
8
0
100
AcDbBlockEnd
0
BLOCK
5
145
330
13D
100
AcDbEntity
8
0
100
AcDbBlockBegin
2
CC_FLOW_TRANSMITTER
70
0
10
0
20
0
30
0
3
CC_FLOW_TRANSMITTER
1

1001
CONDUITCAD
1000
{"ports":[{"name":"sense","x":0,"y":-45,"dx":0,"dy":-1,"medium":"signal","role":"connection"}],"symbol":{"name":"Flow transmitter","category":"P&ID","labelOffset":67,"geometryRevision":3,"convention":
1000
"ISA-5.1 family","conformity":"Original master; not standards-certified","standardRefs":["ISA-5.1"],"group":"Field & panel instruments","normativeEntry":null,"review":{"level":"geometry-and-convention
1000
","dimensionalConformance":"not-verified","note":"Reviewed: silhouette, terminal positions, normal state and distinct function retained."},"aliases":["flow transmitter"],"defaultLayer":"Equipment","ex
1000
tents":{"minX":-26,"minY":-45,"maxX":26,"maxY":25.970550818758205}}}
0
CIRCLE
5
10C
330
13D
100
AcDbEntity
8
0
62
0
6
CONTINUOUS
100
AcDbCircle
10
0
20
0
30
0
40
26
1001
CONDUITCAD
1000
{"id":"master-flow-transmitter-0"}
0
TEXT
5
10D
330
13D
100
AcDbEntity
8
0
62
0
6
CONTINUOUS
100
AcDbText
10
0
20
-5
30
0
40
15
1
FT
50
0
41
1
7
STANDARD
72
1
11
0
21
-5
31
0
100
AcDbText
73
0
1001
CONDUITCAD
1000
{"id":"master-flow-transmitter-1"}
0
LINE
5
10E
330
13D
100
AcDbEntity
8
0
62
0
6
CONTINUOUS
100
AcDbLine
10
0
20
-26
30
0
11
0
21
-45
31
0
1001
CONDUITCAD
1000
{"id":"master-flow-transmitter-2"}
0
ENDBLK
5
146
330
13D
100
AcDbEntity
8
0
100
AcDbBlockEnd
0
BLOCK
5
147
330
13E
100
AcDbEntity
8
0
100
AcDbBlockBegin
2
CC_FLOW_CONTROLLER_PANEL
70
0
10
0
20
0
30
0
3
CC_FLOW_CONTROLLER_PANEL
1

1001
CONDUITCAD
1000
{"ports":[{"name":"sense","x":0,"y":-45,"dx":0,"dy":-1,"medium":"signal","role":"connection"}],"symbol":{"name":"Flow controller \u00b7 accessible panel","category":"Instrumentation","group":"Location
1000
 variants","functionCode":"FIC","instrumentLocation":"primary accessible panel","geometryRevision":3,"standardRefs":["ISA-5.1"],"convention":"ISA-5.1 family","conformity":"Original master; not standar
1000
ds-certified","normativeEntry":null,"review":{"level":"geometry-and-convention","dimensionalConformance":"not-verified","note":"New independently constructed CAD master with explicit terminal topology
1000
."},"aliases":["flow controller panel"],"defaultLayer":"Instruments","labelOffset":67,"extents":{"minX":-26,"minY":-45,"maxX":26,"maxY":25.970550818758205}}}
0
CIRCLE
5
10F
330
13E
100
AcDbEntity
8
0
62
0
6
CONTINUOUS
100
AcDbCircle
10
0
20
0
30
0
40
26
1001
CONDUITCAD
1000
{"id":"master-flow-controller-panel-0"}
0
LINE
5
110
330
13E
100
AcDbEntity
8
0
62
0
6
CONTINUOUS
100
AcDbLine
10
-26
20
0
30
0
11
26
21
0
31
0
1001
CONDUITCAD
1000
{"id":"master-flow-controller-panel-1"}
0
TEXT
5
111
330
13E
100
AcDbEntity
8
0
62
0
6
CONTINUOUS
100
AcDbText
10
0
20
7
30
0
40
12
1
FIC
50
0
41
1
7
STANDARD
72
1
11
0
21
7
31
0
100
AcDbText
73
0
1001
CONDUITCAD
1000
{"id":"master-flow-controller-panel-2"}
0
LINE
5
112
330
13E
100
AcDbEntity
8
0
62
0
6
CONTINUOUS
100
AcDbLine
10
0
20
-26
30
0
11
0
21
-45
31
0
1001
CONDUITCAD
1000
{"id":"master-flow-controller-panel-3"}
0
ENDBLK
5
148
330
13E
100
AcDbEntity
8
0
100
AcDbBlockEnd
0
BLOCK
5
149
330
13F
100
AcDbEntity
8
0
100
AcDbBlockBegin
2
CC_IP_CONVERTER
70
0
10
0
20
0
30
0
3
CC_IP_CONVERTER
1

1001
CONDUITCAD
1000
{"ports":[{"name":"in","x":-45,"y":0,"dx":-1,"dy":0,"medium":"signal","role":"connection"},{"name":"out","x":45,"y":0,"dx":1,"dy":0,"medium":"pneumatic","role":"connection"}],"symbol":{"name":"Current
1000
 / pressure converter","category":"Instrumentation","group":"Control functions","standardRefs":["PROJECT"],"aliases":["I/P","electropneumatic","ip converter"],"geometryRevision":3,"convention":"Explic
1000
it project drafting convention","conformity":"Original master; not standards-certified","normativeEntry":null,"review":{"level":"geometry-and-convention","dimensionalConformance":"not-verified","note"
1000
:"New independently constructed CAD master with explicit terminal topology."},"defaultLayer":"Instruments","labelOffset":48,"extents":{"minX":-45,"minY":-24,"maxX":45,"maxY":24}}}
0
LWPOLYLINE
5
113
330
13F
100
AcDbEntity
8
0
62
0
6
CONTINUOUS
100
AcDbPolyline
90
4
70
1
10
-26
20
-24
10
26
20
-24
10
26
20
24
10
-26
20
24
1001
CONDUITCAD
1000
{"id":"master-ip-converter-0"}
0
LINE
5
114
330
13F
100
AcDbEntity
8
0
62
0
6
CONTINUOUS
100
AcDbLine
10
-45
20
0
30
0
11
-26
21
0
31
0
1001
CONDUITCAD
1000
{"id":"master-ip-converter-1"}
0
LINE
5
115
330
13F
100
AcDbEntity
8
0
62
0
6
CONTINUOUS
100
AcDbLine
10
26
20
0
30
0
11
45
21
0
31
0
1001
CONDUITCAD
1000
{"id":"master-ip-converter-2"}
0
LINE
5
116
330
13F
100
AcDbEntity
8
0
62
0
6
CONTINUOUS
100
AcDbLine
10
-26
20
-24
30
0
11
26
21
24
31
0
1001
CONDUITCAD
1000
{"id":"master-ip-converter-3"}
0
TEXT
5
117
330
13F
100
AcDbEntity
8
0
62
0
6
CONTINUOUS
100
AcDbText
10
-13
20
8
30
0
40
14
1
I
50
0
41
1
7
STANDARD
72
1
11
-13
21
8
31
0
100
AcDbText
73
0
1001
CONDUITCAD
1000
{"id":"master-ip-converter-4"}
0
TEXT
5
118
330
13F
100
AcDbEntity
8
0
62
0
6
CONTINUOUS
100
AcDbText
10
13
20
-17
30
0
40
14
1
P
50
0
41
1
7
STANDARD
72
1
11
13
21
-17
31
0
100
AcDbText
73
0
1001
CONDUITCAD
1000
{"id":"master-ip-converter-5"}
0
ENDBLK
5
14A
330
13F
100
AcDbEntity
8
0
100
AcDbBlockEnd
0
BLOCK
5
14B
330
140
100
AcDbEntity
8
0
100
AcDbBlockBegin
2
CC_CONTROL_VALVE
70
0
10
0
20
0
30
0
3
CC_CONTROL_VALVE
1

1001
CONDUITCAD
1000
{"ports":[{"name":"in","x":-45,"y":0,"dx":-1,"dy":0,"medium":"process","role":"connection"},{"name":"out","x":45,"y":0,"dx":1,"dy":0,"medium":"process","role":"connection"},{"name":"signal","x":0,"y":
1000
50,"dx":0,"dy":1,"medium":"signal","role":"connection"}],"symbol":{"name":"Control valve","category":"P&ID","labelOffset":48,"geometryRevision":3,"convention":"ISO-10628-2 family","conformity":"Origin
1000
al master; not standards-certified","standardRefs":["ISO-10628-2"],"normativeEntry":null,"review":{"level":"geometry-and-convention","dimensionalConformance":"not-verified","note":"Native elliptical d
1000
iaphragm cap and a connected signal terminal."},"group":"Valves & actuators","aliases":["control valve"],"defaultLayer":"Equipment","extents":{"minX":-45,"minY":-18,"maxX":45,"maxY":50}}}
0
LINE
5
119
330
140
100
AcDbEntity
8
0
62
0
6
CONTINUOUS
100
AcDbLine
10
-45
20
0
30
0
11
-25
21
0
31
0
1001
CONDUITCAD
1000
{"id":"master-control-valve-0"}
0
LINE
5
11A
330
140
100
AcDbEntity
8
0
62
0
6
CONTINUOUS
100
AcDbLine
10
25
20
0
30
0
11
45
21
0
31
0
1001
CONDUITCAD
1000
{"id":"master-control-valve-1"}
0
LWPOLYLINE
5
11B
330
140
100
AcDbEntity
8
0
62
0
6
CONTINUOUS
100
AcDbPolyline
90
3
70
1
10
-25
20
-18
10
0
20
0
10
-25
20
18
1001
CONDUITCAD
1000
{"id":"master-control-valve-2"}
0
LWPOLYLINE
5
11C
330
140
100
AcDbEntity
8
0
62
0
6
CONTINUOUS
100
AcDbPolyline
90
3
70
1
10
25
20
-18
10
0
20
0
10
25
20
18
1001
CONDUITCAD
1000
{"id":"master-control-valve-3"}
0
LINE
5
11D
330
140
100
AcDbEntity
8
0
62
0
6
CONTINUOUS
100
AcDbLine
10
0
20
0
30
0
11
0
21
30
31
0
1001
CONDUITCAD
1000
{"id":"master-control-valve-4"}
0
LINE
5
11E
330
140
100
AcDbEntity
8
0
62
0
6
CONTINUOUS
100
AcDbLine
10
-20
20
30
30
0
11
20
21
30
31
0
1001
CONDUITCAD
1000
{"id":"master-control-valve-5"}
0
ELLIPSE
5
11F
330
140
100
AcDbEntity
8
0
62
0
6
CONTINUOUS
100
AcDbEllipse
10
0
20
30
30
0
11
20
21
0
31
0
40
0.7
41
0
42
3.141592653589793
1001
CONDUITCAD
1000
{"id":"master-control-valve-6"}
0
LINE
5
120
330
140
100
AcDbEntity
8
0
62
0
6
CONTINUOUS
100
AcDbLine
10
0
20
44
30
0
11
0
21
50
31
0
1001
CONDUITCAD
1000
{"id":"master-control-valve-7"}
0
ENDBLK
5
14C
330
140
100
AcDbEntity
8
0
100
AcDbBlockEnd
0
ENDSEC
0
SECTION
2
ENTITIES
0
INSERT
5
100
330
13B
100
AcDbEntity
8
Equipment
100
AcDbBlockReference
2
CC_FLOW_TRANSMITTER
10
150
20
420
30
0
41
1
42
1
43
1
50
0
66
1
1001
CONDUITCAD
1000
{"id":"e-muh4r63d-1d1","tag":"FT-101"}
0
ATTRIB
5
14D
330
100
100
AcDbEntity
8
Equipment
100
AcDbText
10
150
20
353
30
0
40
12
1
FT-101
50
0
41
1
7
STANDARD
72
1
11
150
21
353
31
0
100
AcDbAttribute
2
TAG
70
0
74
0
0
SEQEND
5
14E
330
100
100
AcDbEntity
8
Equipment
0
INSERT
5
101
330
13B
100
AcDbEntity
8
Instruments
100
AcDbBlockReference
2
CC_FLOW_CONTROLLER_PANEL
10
390
20
420
30
0
41
1
42
1
43
1
50
0
66
1
1001
CONDUITCAD
1000
{"id":"e-muh4r63d-1d2","tag":"FIC-101"}
0
ATTRIB
5
14F
330
101
100
AcDbEntity
8
Instruments
100
AcDbText
10
390
20
353
30
0
40
12
1
FIC-101
50
0
41
1
7
STANDARD
72
1
11
390
21
353
31
0
100
AcDbAttribute
2
TAG
70
0
74
0
0
SEQEND
5
150
330
101
100
AcDbEntity
8
Instruments
0
INSERT
5
102
330
13B
100
AcDbEntity
8
Instruments
100
AcDbBlockReference
2
CC_IP_CONVERTER
10
630
20
300
30
0
41
1
42
1
43
1
50
0
66
1
1001
CONDUITCAD
1000
{"id":"e-muh4r63d-1d3","tag":"FY-101"}
0
ATTRIB
5
151
330
102
100
AcDbEntity
8
Instruments
100
AcDbText
10
630
20
252
30
0
40
12
1
FY-101
50
0
41
1
7
STANDARD
72
1
11
630
21
252
31
0
100
AcDbAttribute
2
TAG
70
0
74
0
0
SEQEND
5
152
330
102
100
AcDbEntity
8
Instruments
0
INSERT
5
103
330
13B
100
AcDbEntity
8
Equipment
100
AcDbBlockReference
2
CC_CONTROL_VALVE
10
880
20
300
30
0
41
1
42
1
43
1
50
0
66
1
1001
CONDUITCAD
1000
{"id":"e-muh4r63d-1d4","tag":"FCV-101"}
0
ATTRIB
5
153
330
103
100
AcDbEntity
8
Equipment
100
AcDbText
10
880
20
252
30
0
40
12
1
FCV-101
50
0
41
1
7
STANDARD
72
1
11
880
21
252
31
0
100
AcDbAttribute
2
TAG
70
0
74
0
0
SEQEND
5
154
330
103
100
AcDbEntity
8
Equipment
0
LWPOLYLINE
5
104
330
13B
100
AcDbEntity
8
Instruments
62
7
420
11172939
6
CC_DASH_6_4
100
AcDbPolyline
90
4
70
0
10
150
20
375
10
150
20
300
10
390
20
300
10
390
20
375
1001
CONDUITCAD
1000
{"id":"e-muh4r63d-1d5","connector":{"from":{"entityId":"e-muh4r63d-1d1","port":"sense"},"to":{"entityId":"e-muh4r63d-1d2","port":"sense"},"style":"signal","arrow":"none","waypoints":[{"x":150,"y":300}
1000
,{"x":390,"y":300}],"status":"routed"},"label":"4\u201320 mA","dash":[6,4],"width":1.5}
0
LWPOLYLINE
5
105
330
13B
100
AcDbEntity
8
Instruments
62
7
420
11172939
6
CC_DASH_6_4
100
AcDbPolyline
90
5
70
0
10
390
20
375
10
390
20
357
10
567
20
357
10
567
20
300
10
585
20
300
1001
CONDUITCAD
1000
{"id":"e-muh4r63e-1d6","connector":{"from":{"entityId":"e-muh4r63d-1d2","port":"sense"},"to":{"entityId":"e-muh4r63d-1d3","port":"in"},"style":"signal","arrow":"none","waypoints":[],"status":"routed"}
1000
,"label":"","dash":[6,4],"width":1.5}
0
LWPOLYLINE
5
106
330
13B
100
AcDbEntity
8
Instruments
62
7
420
10716512
6
CC_DASH_10_3_2_3_2_3
100
AcDbPolyline
90
5
70
0
10
675
20
300
10
693
20
300
10
693
20
368
10
880
20
368
10
880
20
350
1001
CONDUITCAD
1000
{"id":"e-muh4r63e-1d7","connector":{"from":{"entityId":"e-muh4r63d-1d3","port":"out"},"to":{"entityId":"e-muh4r63d-1d4","port":"signal"},"style":"pneumatic","arrow":"none","waypoints":[],"status":"rou
1000
ted"},"label":"AIR","dash":[10,3,2,3,2,3],"width":1.5}
0
TEXT
5
107
330
13B
100
AcDbEntity
8
Annotations
100
AcDbText
10
40
20
620
30
0
40
27
1
Flow-control loop
50
0
41
1
7
STANDARD
100
AcDbText
73
0
1001
CONDUITCAD
1000
{"id":"e-muh4r63e-1d8"}
0
TEXT
5
108
330
13B
100
AcDbEntity
8
Annotations
100
AcDbText
10
40
20
584
30
0
40
13
1
Process automation  /  Instrument functional loop
50
0
41
1
7
STANDARD
100
AcDbText
73
0
1001
CONDUITCAD
1000
{"id":"e-muh4r63e-1d9"}
0
LINE
5
109
330
13B
100
AcDbEntity
8
Annotations
100
AcDbLine
10
40
20
562
30
0
11
1120
21
562
31
0
1001
CONDUITCAD
1000
{"id":"e-muh4r63e-1da"}
0
TEXT
5
10A
330
13B
100
AcDbEntity
8
Annotations
100
AcDbText
10
40
20
42
30
0
40
11
1
CONCEPT SCHEMATIC — NOT FOR CONSTRUCTION
50
0
41
1
7
STANDARD
100
AcDbText
73
0
1001
CONDUITCAD
1000
{"id":"e-muh4r63e-1db"}
0
TEXT
5
10B
330
13B
100
AcDbEntity
8
Annotations
100
AcDbText
10
650
20
42
30
0
40
11
1
INSTRUMENT-LOOP  |  REV 03  |  mm
50
0
41
1
7
STANDARD
100
AcDbText
73
0
1001
CONDUITCAD
1000
{"id":"e-muh4r63e-1dc"}
0
ENDSEC
0
SECTION
2
OBJECTS
0
DICTIONARY
5
15B
330
0
100
AcDbDictionary
281
1
3
ACAD_LAYOUT
350
15C
3
ACAD_GROUP
350
15D
3
CONDUITCAD_METADATA
350
160
0
DICTIONARY
5
15C
330
15B
100
AcDbDictionary
281
1
3
Model
350
15E
3
Layout1
350
15F
0
DICTIONARY
5
15D
330
15B
100
AcDbDictionary
281
1
0
LAYOUT
5
15E
330
15C
100
AcDbPlotSettings
1

2

4

6

40
0
41
0
42
0
43
0
44
420
45
297
46
0
47
0
48
0
49
0
140
0
141
0
142
1
143
1
70
0
72
1
73
0
74
5
7

75
16
76
0
77
0
78
300
147
1
148
0
149
0
100
AcDbLayout
1
Model
70
1
71
0
10
0
20
0
11
420
21
297
12
0
22
0
32
0
14
0
24
0
34
0
15
420
25
297
35
0
146
0
13
0
23
0
33
0
16
1
26
0
36
0
17
0
27
1
37
0
76
0
330
13B
0
LAYOUT
5
15F
330
15C
100
AcDbPlotSettings
1

2

4

6

40
0
41
0
42
0
43
0
44
420
45
297
46
0
47
0
48
0
49
0
140
0
141
0
142
1
143
1
70
0
72
1
73
0
74
5
7

75
16
76
0
77
0
78
300
147
1
148
0
149
0
100
AcDbLayout
1
Layout1
70
1
71
1
10
0
20
0
11
420
21
297
12
0
22
0
32
0
14
0
24
0
34
0
15
420
25
297
35
0
146
0
13
0
23
0
33
0
16
1
26
0
36
0
17
0
27
1
37
0
76
0
330
13C
0
XRECORD
5
160
330
15B
100
AcDbXrecord
280
1
1
{"parameters":{"grid":"10","pipeWidth":"2","valveSize":"64"},"constraints":[],"metadata":{"author":"","description":"Field transmitter, controller, current-to-pressure converter and valve actuator.","
1
industry":"Process automation","drawingType":"Instrument functional loop","templateId":"instrument-loop","standardRefs":["ISA-5.1","PROJECT"],"geometryRevision":3,"approval":"Concept schematic; engine
1
ering approval required"}}
0
ENDSEC
0
EOF
