0
SECTION
2
HEADER
9
$ACADVER
1
AC1024
9
$INSUNITS
70
4
9
$LTSCALE
40
1
9
$MEASUREMENT
70
1
999
CONDUIT:{"parameters":{"grid":"10","pipeWidth":"2","valveSize":"64"},"constraints":[],"metadata":{"author":"","description":"WAN, perimeter firewall, switch and server with a wireless bran
999
CONDUIT:ch.","industry":"IT & telecom","drawingType":"Network topology","templateId":"network","standardRefs":["PROJECT"],"geometryRevision":3,"approval":"Concept schematic; engineering ap
999
CONDUIT:proval required"}}
9
$HANDSEED
5
183
9
$DWGCODEPAGE
3
ANSI_1252
9
$CLAYER
8
0
9
$TILEMODE
70
1
0
ENDSEC
0
SECTION
2
TABLES
0
TABLE
2
LTYPE
5
13A
330
0
100
AcDbSymbolTable
70
5
0
LTYPE
5
13B
100
AcDbSymbolTableRecord
100
AcDbLinetypeTableRecord
2
CONTINUOUS
70
0
3
Solid line
72
65
73
0
40
0
330
13A
0
LTYPE
5
13C
100
AcDbSymbolTableRecord
100
AcDbLinetypeTableRecord
2
DASHED
70
0
3
DASHED
72
65
73
2
40
12
49
8
74
0
49
-4
74
0
330
13A
0
LTYPE
5
13D
100
AcDbSymbolTableRecord
100
AcDbLinetypeTableRecord
2
CENTER
70
0
3
CENTER
72
65
73
4
40
20
49
12
74
0
49
-3
74
0
49
2
74
0
49
-3
74
0
330
13A
0
LTYPE
5
13E
100
AcDbSymbolTableRecord
100
AcDbLinetypeTableRecord
2
HIDDEN
70
0
3
HIDDEN
72
65
73
2
40
7
49
4
74
0
49
-3
74
0
330
13A
0
LTYPE
5
13F
100
AcDbSymbolTableRecord
100
AcDbLinetypeTableRecord
2
CC_DASH_10_3_2_3
70
0
3
CC_DASH_10_3_2_3
72
65
73
4
40
18
49
10
74
0
49
-3
74
0
49
2
74
0
49
-3
74
0
330
13A
0
ENDTAB
0
TABLE
2
LAYER
5
140
330
0
100
AcDbSymbolTable
70
13
0
LAYER
5
141
100
AcDbSymbolTableRecord
100
AcDbLayerTableRecord
2
0
70
0
62
7
420
3426133
6
CONTINUOUS
330
140
0
LAYER
5
142
100
AcDbSymbolTableRecord
100
AcDbLayerTableRecord
2
Equipment
70
0
62
7
420
3495011
6
CONTINUOUS
330
140
0
LAYER
5
143
100
AcDbSymbolTableRecord
100
AcDbLayerTableRecord
2
Process
70
0
62
7
420
1342583
6
CONTINUOUS
330
140
0
LAYER
5
144
100
AcDbSymbolTableRecord
100
AcDbLayerTableRecord
2
Instruments
70
0
62
7
420
10187334
6
CONTINUOUS
330
140
0
LAYER
5
145
100
AcDbSymbolTableRecord
100
AcDbLayerTableRecord
2
Electrical
70
0
62
7
420
6584250
6
CONTINUOUS
330
140
0
LAYER
5
146
100
AcDbSymbolTableRecord
100
AcDbLayerTableRecord
2
Annotations
70
0
62
7
420
7438474
6
CONTINUOUS
330
140
0
LAYER
5
147
100
AcDbSymbolTableRecord
100
AcDbLayerTableRecord
2
Hydraulics
70
0
62
7
420
3495011
6
CONTINUOUS
330
140
0
LAYER
5
148
100
AcDbSymbolTableRecord
100
AcDbLayerTableRecord
2
Pneumatics
70
0
62
7
420
3495011
6
CONTINUOUS
330
140
0
LAYER
5
149
100
AcDbSymbolTableRecord
100
AcDbLayerTableRecord
2
HVAC
70
0
62
7
420
3495011
6
CONTINUOUS
330
140
0
LAYER
5
14A
100
AcDbSymbolTableRecord
100
AcDbLayerTableRecord
2
Water
70
0
62
7
420
3495011
6
CONTINUOUS
330
140
0
LAYER
5
14B
100
AcDbSymbolTableRecord
100
AcDbLayerTableRecord
2
Automation
70
0
62
7
420
3495011
6
CONTINUOUS
330
140
0
LAYER
5
14C
100
AcDbSymbolTableRecord
100
AcDbLayerTableRecord
2
Fire
70
0
62
7
420
3495011
6
CONTINUOUS
330
140
0
LAYER
5
14D
100
AcDbSymbolTableRecord
100
AcDbLayerTableRecord
2
Network
70
0
62
7
420
3495011
6
CONTINUOUS
330
140
0
ENDTAB
0
TABLE
2
STYLE
5
14E
330
0
100
AcDbSymbolTable
70
1
0
STYLE
5
14F
100
AcDbSymbolTableRecord
100
AcDbTextStyleTableRecord
2
STANDARD
70
0
40
0
41
1
50
0
71
0
42
2.5
3
txt
4

330
14E
0
ENDTAB
0
TABLE
2
APPID
5
150
330
0
100
AcDbSymbolTable
70
2
0
APPID
5
151
100
AcDbSymbolTableRecord
100
AcDbRegAppTableRecord
2
CONDUITCAD
70
0
330
150
0
APPID
5
17C
100
AcDbSymbolTableRecord
100
AcDbRegAppTableRecord
2
ACAD
70
0
330
150
0
ENDTAB
0
TABLE
2
BLOCK_RECORD
5
152
330
0
100
AcDbSymbolTable
70
8
0
BLOCK_RECORD
5
153
100
AcDbSymbolTableRecord
100
AcDbBlockTableRecord
2
*Model_Space
340
180
330
152
0
BLOCK_RECORD
5
154
100
AcDbSymbolTableRecord
100
AcDbBlockTableRecord
2
*Paper_Space
340
181
330
152
0
BLOCK_RECORD
5
155
100
AcDbSymbolTableRecord
100
AcDbBlockTableRecord
2
CC_NET_CLOUD
330
152
0
BLOCK_RECORD
5
156
100
AcDbSymbolTableRecord
100
AcDbBlockTableRecord
2
CC_NET_ROUTER
330
152
0
BLOCK_RECORD
5
157
100
AcDbSymbolTableRecord
100
AcDbBlockTableRecord
2
CC_NET_FIREWALL
330
152
0
BLOCK_RECORD
5
158
100
AcDbSymbolTableRecord
100
AcDbBlockTableRecord
2
CC_NET_SWITCH
330
152
0
BLOCK_RECORD
5
159
100
AcDbSymbolTableRecord
100
AcDbBlockTableRecord
2
CC_NET_SERVER
330
152
0
BLOCK_RECORD
5
15A
100
AcDbSymbolTableRecord
100
AcDbBlockTableRecord
2
CC_NET_AP
330
152
0
ENDTAB
0
TABLE
2
VPORT
5
177
330
0
100
AcDbSymbolTable
70
0
0
ENDTAB
0
TABLE
2
VIEW
5
178
330
0
100
AcDbSymbolTable
70
0
0
ENDTAB
0
TABLE
2
UCS
5
179
330
0
100
AcDbSymbolTable
70
0
0
ENDTAB
0
TABLE
2
DIMSTYLE
5
17A
330
0
100
AcDbSymbolTable
70
1
100
AcDbDimStyleTable
71
0
0
DIMSTYLE
105
17B
330
17A
100
AcDbSymbolTableRecord
100
AcDbDimStyleTableRecord
2
STANDARD
70
0
340
14F
0
ENDTAB
0
ENDSEC
0
SECTION
2
BLOCKS
0
BLOCK
5
15B
330
153
100
AcDbEntity
8
0
100
AcDbBlockBegin
2
*Model_Space
70
1
10
0
20
0
30
0
3
*Model_Space
1

1001
CONDUITCAD
1000
{"ports":[]}
0
ENDBLK
5
15C
330
153
100
AcDbEntity
8
0
100
AcDbBlockEnd
0
BLOCK
5
15D
330
154
100
AcDbEntity
8
0
100
AcDbBlockBegin
2
*Paper_Space
70
1
10
0
20
0
30
0
3
*Paper_Space
1

1001
CONDUITCAD
1000
{"ports":[]}
0
ENDBLK
5
15E
330
154
100
AcDbEntity
8
0
100
AcDbBlockEnd
0
BLOCK
5
15F
330
155
100
AcDbEntity
8
0
100
AcDbBlockBegin
2
CC_NET_CLOUD
70
0
10
0
20
0
30
0
3
CC_NET_CLOUD
1

1001
CONDUITCAD
1000
{"ports":[{"name":"in","x":-45,"y":0,"dx":-1,"dy":0,"medium":"data","role":"connection"},{"name":"out","x":45,"y":0,"dx":1,"dy":0,"medium":"data","role":"connection"},{"name":"branch","x":0,"y":-40,"d
1000
x":0,"dy":-1,"medium":"data","role":"connection"}],"symbol":{"name":"External network","category":"Network","group":"Network topology","representation":"vendor-neutral functional symbol","geometryRevi
1000
sion":3,"standardRefs":["PROJECT"],"convention":"Explicit project drafting convention","conformity":"Original master; not standards-certified","normativeEntry":null,"review":{"level":"geometry-and-con
1000
vention","dimensionalConformance":"not-verified","note":"New independently constructed CAD master with explicit terminal topology."},"aliases":["net cloud"],"defaultLayer":"Network","labelOffset":62,"
1000
extents":{"minX":-45,"minY":-40,"maxX":45,"maxY":22}}}
0
LWPOLYLINE
5
110
330
155
100
AcDbEntity
8
0
62
0
6
CONTINUOUS
100
AcDbPolyline
90
4
70
1
10
-32
20
-22
10
32
20
-22
10
32
20
22
10
-32
20
22
1001
CONDUITCAD
1000
{"id":"master-net-cloud-0"}
0
LINE
5
111
330
155
100
AcDbEntity
8
0
62
0
6
CONTINUOUS
100
AcDbLine
10
-45
20
0
30
0
11
-32
21
0
31
0
1001
CONDUITCAD
1000
{"id":"master-net-cloud-1"}
0
LINE
5
112
330
155
100
AcDbEntity
8
0
62
0
6
CONTINUOUS
100
AcDbLine
10
32
20
0
30
0
11
45
21
0
31
0
1001
CONDUITCAD
1000
{"id":"master-net-cloud-2"}
0
TEXT
5
113
330
155
100
AcDbEntity
8
0
62
0
6
CONTINUOUS
100
AcDbText
10
0
20
-4
30
0
40
11
1
WAN
50
0
41
1
7
STANDARD
72
1
11
0
21
-4
31
0
100
AcDbText
73
0
1001
CONDUITCAD
1000
{"id":"master-net-cloud-3"}
0
LINE
5
114
330
155
100
AcDbEntity
8
0
62
0
6
CONTINUOUS
100
AcDbLine
10
0
20
-22
30
0
11
0
21
-40
31
0
1001
CONDUITCAD
1000
{"id":"master-net-cloud-4"}
0
ENDBLK
5
160
330
155
100
AcDbEntity
8
0
100
AcDbBlockEnd
0
BLOCK
5
161
330
156
100
AcDbEntity
8
0
100
AcDbBlockBegin
2
CC_NET_ROUTER
70
0
10
0
20
0
30
0
3
CC_NET_ROUTER
1

1001
CONDUITCAD
1000
{"ports":[{"name":"in","x":-45,"y":0,"dx":-1,"dy":0,"medium":"data","role":"connection"},{"name":"out","x":45,"y":0,"dx":1,"dy":0,"medium":"data","role":"connection"},{"name":"branch","x":0,"y":-40,"d
1000
x":0,"dy":-1,"medium":"data","role":"connection"}],"symbol":{"name":"Router","category":"Network","group":"Network topology","representation":"vendor-neutral functional symbol","geometryRevision":3,"s
1000
tandardRefs":["PROJECT"],"convention":"Explicit project drafting convention","conformity":"Original master; not standards-certified","normativeEntry":null,"review":{"level":"geometry-and-convention","
1000
dimensionalConformance":"not-verified","note":"New independently constructed CAD master with explicit terminal topology."},"aliases":["net router"],"defaultLayer":"Network","labelOffset":62,"extents":
1000
{"minX":-45,"minY":-40,"maxX":45,"maxY":22}}}
0
LWPOLYLINE
5
115
330
156
100
AcDbEntity
8
0
62
0
6
CONTINUOUS
100
AcDbPolyline
90
4
70
1
10
-32
20
-22
10
32
20
-22
10
32
20
22
10
-32
20
22
1001
CONDUITCAD
1000
{"id":"master-net-router-0"}
0
LINE
5
116
330
156
100
AcDbEntity
8
0
62
0
6
CONTINUOUS
100
AcDbLine
10
-45
20
0
30
0
11
-32
21
0
31
0
1001
CONDUITCAD
1000
{"id":"master-net-router-1"}
0
LINE
5
117
330
156
100
AcDbEntity
8
0
62
0
6
CONTINUOUS
100
AcDbLine
10
32
20
0
30
0
11
45
21
0
31
0
1001
CONDUITCAD
1000
{"id":"master-net-router-2"}
0
TEXT
5
118
330
156
100
AcDbEntity
8
0
62
0
6
CONTINUOUS
100
AcDbText
10
0
20
-4
30
0
40
11
1
RTR
50
0
41
1
7
STANDARD
72
1
11
0
21
-4
31
0
100
AcDbText
73
0
1001
CONDUITCAD
1000
{"id":"master-net-router-3"}
0
LINE
5
119
330
156
100
AcDbEntity
8
0
62
0
6
CONTINUOUS
100
AcDbLine
10
0
20
-22
30
0
11
0
21
-40
31
0
1001
CONDUITCAD
1000
{"id":"master-net-router-4"}
0
ENDBLK
5
162
330
156
100
AcDbEntity
8
0
100
AcDbBlockEnd
0
BLOCK
5
163
330
157
100
AcDbEntity
8
0
100
AcDbBlockBegin
2
CC_NET_FIREWALL
70
0
10
0
20
0
30
0
3
CC_NET_FIREWALL
1

1001
CONDUITCAD
1000
{"ports":[{"name":"in","x":-45,"y":0,"dx":-1,"dy":0,"medium":"data","role":"connection"},{"name":"out","x":45,"y":0,"dx":1,"dy":0,"medium":"data","role":"connection"},{"name":"branch","x":0,"y":-40,"d
1000
x":0,"dy":-1,"medium":"data","role":"connection"}],"symbol":{"name":"Firewall","category":"Network","group":"Network topology","representation":"vendor-neutral functional symbol","geometryRevision":3,
1000
"standardRefs":["PROJECT"],"convention":"Explicit project drafting convention","conformity":"Original master; not standards-certified","normativeEntry":null,"review":{"level":"geometry-and-convention"
1000
,"dimensionalConformance":"not-verified","note":"New independently constructed CAD master with explicit terminal topology."},"aliases":["net firewall"],"defaultLayer":"Network","labelOffset":62,"exten
1000
ts":{"minX":-45,"minY":-40,"maxX":45,"maxY":24}}}
0
LWPOLYLINE
5
11A
330
157
100
AcDbEntity
8
0
62
0
6
CONTINUOUS
100
AcDbPolyline
90
4
70
1
10
-30
20
-24
10
30
20
-24
10
30
20
24
10
-30
20
24
1001
CONDUITCAD
1000
{"id":"master-net-firewall-0"}
0
LINE
5
11B
330
157
100
AcDbEntity
8
0
62
0
6
CONTINUOUS
100
AcDbLine
10
-45
20
0
30
0
11
-30
21
0
31
0
1001
CONDUITCAD
1000
{"id":"master-net-firewall-1"}
0
LINE
5
11C
330
157
100
AcDbEntity
8
0
62
0
6
CONTINUOUS
100
AcDbLine
10
30
20
0
30
0
11
45
21
0
31
0
1001
CONDUITCAD
1000
{"id":"master-net-firewall-2"}
0
LINE
5
11D
330
157
100
AcDbEntity
8
0
62
0
6
CONTINUOUS
100
AcDbLine
10
-30
20
-8
30
0
11
30
21
-8
31
0
1001
CONDUITCAD
1000
{"id":"master-net-firewall-3"}
0
LINE
5
11E
330
157
100
AcDbEntity
8
0
62
0
6
CONTINUOUS
100
AcDbLine
10
-30
20
8
30
0
11
30
21
8
31
0
1001
CONDUITCAD
1000
{"id":"master-net-firewall-4"}
0
LINE
5
11F
330
157
100
AcDbEntity
8
0
62
0
6
CONTINUOUS
100
AcDbLine
10
0
20
-24
30
0
11
0
21
-8
31
0
1001
CONDUITCAD
1000
{"id":"master-net-firewall-5"}
0
LINE
5
120
330
157
100
AcDbEntity
8
0
62
0
6
CONTINUOUS
100
AcDbLine
10
-15
20
-8
30
0
11
-15
21
8
31
0
1001
CONDUITCAD
1000
{"id":"master-net-firewall-6"}
0
LINE
5
121
330
157
100
AcDbEntity
8
0
62
0
6
CONTINUOUS
100
AcDbLine
10
15
20
-8
30
0
11
15
21
8
31
0
1001
CONDUITCAD
1000
{"id":"master-net-firewall-7"}
0
LINE
5
122
330
157
100
AcDbEntity
8
0
62
0
6
CONTINUOUS
100
AcDbLine
10
0
20
8
30
0
11
0
21
24
31
0
1001
CONDUITCAD
1000
{"id":"master-net-firewall-8"}
0
LINE
5
123
330
157
100
AcDbEntity
8
0
62
0
6
CONTINUOUS
100
AcDbLine
10
0
20
-24
30
0
11
0
21
-40
31
0
1001
CONDUITCAD
1000
{"id":"master-net-firewall-9"}
0
ENDBLK
5
164
330
157
100
AcDbEntity
8
0
100
AcDbBlockEnd
0
BLOCK
5
165
330
158
100
AcDbEntity
8
0
100
AcDbBlockBegin
2
CC_NET_SWITCH
70
0
10
0
20
0
30
0
3
CC_NET_SWITCH
1

1001
CONDUITCAD
1000
{"ports":[{"name":"in","x":-45,"y":0,"dx":-1,"dy":0,"medium":"data","role":"connection"},{"name":"out","x":45,"y":0,"dx":1,"dy":0,"medium":"data","role":"connection"},{"name":"branch","x":0,"y":-40,"d
1000
x":0,"dy":-1,"medium":"data","role":"connection"}],"symbol":{"name":"Network switch","category":"Network","group":"Network topology","representation":"vendor-neutral functional symbol","geometryRevisi
1000
on":3,"standardRefs":["PROJECT"],"convention":"Explicit project drafting convention","conformity":"Original master; not standards-certified","normativeEntry":null,"review":{"level":"geometry-and-conve
1000
ntion","dimensionalConformance":"not-verified","note":"New independently constructed CAD master with explicit terminal topology."},"aliases":["net switch"],"defaultLayer":"Network","labelOffset":62,"e
1000
xtents":{"minX":-45,"minY":-40,"maxX":45,"maxY":22}}}
0
LWPOLYLINE
5
124
330
158
100
AcDbEntity
8
0
62
0
6
CONTINUOUS
100
AcDbPolyline
90
4
70
1
10
-32
20
-22
10
32
20
-22
10
32
20
22
10
-32
20
22
1001
CONDUITCAD
1000
{"id":"master-net-switch-0"}
0
LINE
5
125
330
158
100
AcDbEntity
8
0
62
0
6
CONTINUOUS
100
AcDbLine
10
-45
20
0
30
0
11
-32
21
0
31
0
1001
CONDUITCAD
1000
{"id":"master-net-switch-1"}
0
LINE
5
126
330
158
100
AcDbEntity
8
0
62
0
6
CONTINUOUS
100
AcDbLine
10
32
20
0
30
0
11
45
21
0
31
0
1001
CONDUITCAD
1000
{"id":"master-net-switch-2"}
0
TEXT
5
127
330
158
100
AcDbEntity
8
0
62
0
6
CONTINUOUS
100
AcDbText
10
0
20
-4
30
0
40
11
1
SW
50
0
41
1
7
STANDARD
72
1
11
0
21
-4
31
0
100
AcDbText
73
0
1001
CONDUITCAD
1000
{"id":"master-net-switch-3"}
0
LINE
5
128
330
158
100
AcDbEntity
8
0
62
0
6
CONTINUOUS
100
AcDbLine
10
0
20
-22
30
0
11
0
21
-40
31
0
1001
CONDUITCAD
1000
{"id":"master-net-switch-4"}
0
ENDBLK
5
166
330
158
100
AcDbEntity
8
0
100
AcDbBlockEnd
0
BLOCK
5
167
330
159
100
AcDbEntity
8
0
100
AcDbBlockBegin
2
CC_NET_SERVER
70
0
10
0
20
0
30
0
3
CC_NET_SERVER
1

1001
CONDUITCAD
1000
{"ports":[{"name":"in","x":-45,"y":0,"dx":-1,"dy":0,"medium":"data","role":"connection"},{"name":"out","x":45,"y":0,"dx":1,"dy":0,"medium":"data","role":"connection"},{"name":"branch","x":0,"y":-40,"d
1000
x":0,"dy":-1,"medium":"data","role":"connection"}],"symbol":{"name":"Server","category":"Network","group":"Network topology","representation":"vendor-neutral functional symbol","geometryRevision":3,"s
1000
tandardRefs":["PROJECT"],"convention":"Explicit project drafting convention","conformity":"Original master; not standards-certified","normativeEntry":null,"review":{"level":"geometry-and-convention","
1000
dimensionalConformance":"not-verified","note":"New independently constructed CAD master with explicit terminal topology."},"aliases":["net server"],"defaultLayer":"Network","labelOffset":62,"extents":
1000
{"minX":-45,"minY":-40,"maxX":45,"maxY":32}}}
0
LWPOLYLINE
5
129
330
159
100
AcDbEntity
8
0
62
0
6
CONTINUOUS
100
AcDbPolyline
90
4
70
1
10
-27
20
-32
10
27
20
-32
10
27
20
32
10
-27
20
32
1001
CONDUITCAD
1000
{"id":"master-net-server-0"}
0
LINE
5
12A
330
159
100
AcDbEntity
8
0
62
0
6
CONTINUOUS
100
AcDbLine
10
-45
20
0
30
0
11
-27
21
0
31
0
1001
CONDUITCAD
1000
{"id":"master-net-server-1"}
0
LINE
5
12B
330
159
100
AcDbEntity
8
0
62
0
6
CONTINUOUS
100
AcDbLine
10
27
20
0
30
0
11
45
21
0
31
0
1001
CONDUITCAD
1000
{"id":"master-net-server-2"}
0
LWPOLYLINE
5
12C
330
159
100
AcDbEntity
8
0
62
0
6
CONTINUOUS
100
AcDbPolyline
90
4
70
1
10
-21
20
-27
10
21
20
-27
10
21
20
-13
10
-21
20
-13
1001
CONDUITCAD
1000
{"id":"master-net-server-3"}
0
CIRCLE
5
12D
330
159
100
AcDbEntity
8
0
62
0
6
CONTINUOUS
100
AcDbCircle
10
12
20
-20
30
0
40
2
1001
CONDUITCAD
1000
{"id":"master-net-server-4"}
0
LWPOLYLINE
5
12E
330
159
100
AcDbEntity
8
0
62
0
6
CONTINUOUS
100
AcDbPolyline
90
4
70
1
10
-21
20
-7
10
21
20
-7
10
21
20
7
10
-21
20
7
1001
CONDUITCAD
1000
{"id":"master-net-server-5"}
0
CIRCLE
5
12F
330
159
100
AcDbEntity
8
0
62
0
6
CONTINUOUS
100
AcDbCircle
10
12
20
0
30
0
40
2
1001
CONDUITCAD
1000
{"id":"master-net-server-6"}
0
LWPOLYLINE
5
130
330
159
100
AcDbEntity
8
0
62
0
6
CONTINUOUS
100
AcDbPolyline
90
4
70
1
10
-21
20
13
10
21
20
13
10
21
20
27
10
-21
20
27
1001
CONDUITCAD
1000
{"id":"master-net-server-7"}
0
CIRCLE
5
131
330
159
100
AcDbEntity
8
0
62
0
6
CONTINUOUS
100
AcDbCircle
10
12
20
20
30
0
40
2
1001
CONDUITCAD
1000
{"id":"master-net-server-8"}
0
LINE
5
132
330
159
100
AcDbEntity
8
0
62
0
6
CONTINUOUS
100
AcDbLine
10
0
20
-32
30
0
11
0
21
-40
31
0
1001
CONDUITCAD
1000
{"id":"master-net-server-9"}
0
ENDBLK
5
168
330
159
100
AcDbEntity
8
0
100
AcDbBlockEnd
0
BLOCK
5
169
330
15A
100
AcDbEntity
8
0
100
AcDbBlockBegin
2
CC_NET_AP
70
0
10
0
20
0
30
0
3
CC_NET_AP
1

1001
CONDUITCAD
1000
{"ports":[{"name":"in","x":-45,"y":0,"dx":-1,"dy":0,"medium":"data","role":"connection"},{"name":"out","x":45,"y":0,"dx":1,"dy":0,"medium":"data","role":"connection"},{"name":"branch","x":0,"y":-40,"d
1000
x":0,"dy":-1,"medium":"data","role":"connection"}],"symbol":{"name":"Wireless access point","category":"Network","group":"Network topology","representation":"vendor-neutral functional symbol","geometr
1000
yRevision":3,"standardRefs":["PROJECT"],"convention":"Explicit project drafting convention","conformity":"Original master; not standards-certified","normativeEntry":null,"review":{"level":"geometry-an
1000
d-convention","dimensionalConformance":"not-verified","note":"New independently constructed CAD master with explicit terminal topology."},"aliases":["net ap"],"defaultLayer":"Network","labelOffset":62
1000
,"extents":{"minX":-45,"minY":-40,"maxX":45,"maxY":41}}}
0
LWPOLYLINE
5
133
330
15A
100
AcDbEntity
8
0
62
0
6
CONTINUOUS
100
AcDbPolyline
90
4
70
1
10
-32
20
-22
10
32
20
-22
10
32
20
22
10
-32
20
22
1001
CONDUITCAD
1000
{"id":"master-net-ap-0"}
0
LINE
5
134
330
15A
100
AcDbEntity
8
0
62
0
6
CONTINUOUS
100
AcDbLine
10
-45
20
0
30
0
11
-32
21
0
31
0
1001
CONDUITCAD
1000
{"id":"master-net-ap-1"}
0
LINE
5
135
330
15A
100
AcDbEntity
8
0
62
0
6
CONTINUOUS
100
AcDbLine
10
32
20
0
30
0
11
45
21
0
31
0
1001
CONDUITCAD
1000
{"id":"master-net-ap-2"}
0
TEXT
5
136
330
15A
100
AcDbEntity
8
0
62
0
6
CONTINUOUS
100
AcDbText
10
0
20
-4
30
0
40
11
1
AP
50
0
41
1
7
STANDARD
72
1
11
0
21
-4
31
0
100
AcDbText
73
0
1001
CONDUITCAD
1000
{"id":"master-net-ap-3"}
0
ARC
5
137
330
15A
100
AcDbEntity
8
0
62
0
6
CONTINUOUS
100
AcDbCircle
10
0
20
23
30
0
40
10
100
AcDbArc
50
0
51
180
1001
CONDUITCAD
1000
{"id":"master-net-ap-4"}
0
ARC
5
138
330
15A
100
AcDbEntity
8
0
62
0
6
CONTINUOUS
100
AcDbCircle
10
0
20
23
30
0
40
18
100
AcDbArc
50
0
51
180
1001
CONDUITCAD
1000
{"id":"master-net-ap-5"}
0
LINE
5
139
330
15A
100
AcDbEntity
8
0
62
0
6
CONTINUOUS
100
AcDbLine
10
0
20
-22
30
0
11
0
21
-40
31
0
1001
CONDUITCAD
1000
{"id":"master-net-ap-6"}
0
ENDBLK
5
16A
330
15A
100
AcDbEntity
8
0
100
AcDbBlockEnd
0
ENDSEC
0
SECTION
2
ENTITIES
0
INSERT
5
100
330
153
100
AcDbEntity
8
Network
100
AcDbBlockReference
2
CC_NET_CLOUD
10
130
20
350
30
0
41
1
42
1
43
1
50
0
66
1
1001
CONDUITCAD
1000
{"id":"e-muio64p4-1e7","tag":"WAN"}
0
ATTRIB
5
16B
330
100
100
AcDbEntity
8
Network
100
AcDbText
10
130
20
288
30
0
40
12
1
WAN
50
0
41
1
7
STANDARD
72
1
11
130
21
288
31
0
100
AcDbAttribute
2
TAG
70
0
74
0
0
SEQEND
5
16C
330
100
100
AcDbEntity
8
Network
0
INSERT
5
101
330
153
100
AcDbEntity
8
Network
100
AcDbBlockReference
2
CC_NET_ROUTER
10
320
20
350
30
0
41
1
42
1
43
1
50
0
66
1
1001
CONDUITCAD
1000
{"id":"e-muio64p4-1e8","tag":"R1"}
0
ATTRIB
5
16D
330
101
100
AcDbEntity
8
Network
100
AcDbText
10
320
20
288
30
0
40
12
1
R1
50
0
41
1
7
STANDARD
72
1
11
320
21
288
31
0
100
AcDbAttribute
2
TAG
70
0
74
0
0
SEQEND
5
16E
330
101
100
AcDbEntity
8
Network
0
INSERT
5
102
330
153
100
AcDbEntity
8
Network
100
AcDbBlockReference
2
CC_NET_FIREWALL
10
510
20
350
30
0
41
1
42
1
43
1
50
0
66
1
1001
CONDUITCAD
1000
{"id":"e-muio64p4-1e9","tag":"FW1"}
0
ATTRIB
5
16F
330
102
100
AcDbEntity
8
Network
100
AcDbText
10
510
20
288
30
0
40
12
1
FW1
50
0
41
1
7
STANDARD
72
1
11
510
21
288
31
0
100
AcDbAttribute
2
TAG
70
0
74
0
0
SEQEND
5
170
330
102
100
AcDbEntity
8
Network
0
INSERT
5
103
330
153
100
AcDbEntity
8
Network
100
AcDbBlockReference
2
CC_NET_SWITCH
10
700
20
350
30
0
41
1
42
1
43
1
50
0
66
1
1001
CONDUITCAD
1000
{"id":"e-muio64p4-1ea","tag":"SW1"}
0
ATTRIB
5
171
330
103
100
AcDbEntity
8
Network
100
AcDbText
10
700
20
288
30
0
40
12
1
SW1
50
0
41
1
7
STANDARD
72
1
11
700
21
288
31
0
100
AcDbAttribute
2
TAG
70
0
74
0
0
SEQEND
5
172
330
103
100
AcDbEntity
8
Network
0
INSERT
5
104
330
153
100
AcDbEntity
8
Network
100
AcDbBlockReference
2
CC_NET_SERVER
10
890
20
350
30
0
41
1
42
1
43
1
50
0
66
1
1001
CONDUITCAD
1000
{"id":"e-muio64p4-1eb","tag":"SRV1"}
0
ATTRIB
5
173
330
104
100
AcDbEntity
8
Network
100
AcDbText
10
890
20
288
30
0
40
12
1
SRV1
50
0
41
1
7
STANDARD
72
1
11
890
21
288
31
0
100
AcDbAttribute
2
TAG
70
0
74
0
0
SEQEND
5
174
330
104
100
AcDbEntity
8
Network
0
INSERT
5
105
330
153
100
AcDbEntity
8
Network
100
AcDbBlockReference
2
CC_NET_AP
10
700
20
140
30
0
41
1
42
1
43
1
50
0
66
1
1001
CONDUITCAD
1000
{"id":"e-muio64p4-1ec","tag":"AP1"}
0
ATTRIB
5
175
330
105
100
AcDbEntity
8
Network
100
AcDbText
10
700
20
78
30
0
40
12
1
AP1
50
0
41
1
7
STANDARD
72
1
11
700
21
78
31
0
100
AcDbAttribute
2
TAG
70
0
74
0
0
SEQEND
5
176
330
105
100
AcDbEntity
8
Network
0
LWPOLYLINE
5
106
330
153
100
AcDbEntity
8
Electrical
62
7
420
8943271
6
CC_DASH_10_3_2_3
100
AcDbPolyline
90
2
70
0
10
175
20
350
10
275
20
350
1001
CONDUITCAD
1000
{"id":"e-muio64p4-1ed","connector":{"from":{"entityId":"e-muio64p4-1e7","port":"out"},"to":{"entityId":"e-muio64p4-1e8","port":"in"},"style":"data","arrow":"end","waypoints":[],"status":"routed"},"lab
1000
el":"","dash":[10,3,2,3],"width":1.5}
0
LWPOLYLINE
5
107
330
153
100
AcDbEntity
8
Electrical
62
7
420
8943271
6
CC_DASH_10_3_2_3
100
AcDbPolyline
90
2
70
0
10
365
20
350
10
465
20
350
1001
CONDUITCAD
1000
{"id":"e-muio64p4-1ee","connector":{"from":{"entityId":"e-muio64p4-1e8","port":"out"},"to":{"entityId":"e-muio64p4-1e9","port":"in"},"style":"data","arrow":"end","waypoints":[],"status":"routed"},"lab
1000
el":"","dash":[10,3,2,3],"width":1.5}
0
LWPOLYLINE
5
108
330
153
100
AcDbEntity
8
Electrical
62
7
420
8943271
6
CC_DASH_10_3_2_3
100
AcDbPolyline
90
2
70
0
10
555
20
350
10
655
20
350
1001
CONDUITCAD
1000
{"id":"e-muio64p4-1ef","connector":{"from":{"entityId":"e-muio64p4-1e9","port":"out"},"to":{"entityId":"e-muio64p4-1ea","port":"in"},"style":"data","arrow":"end","waypoints":[],"status":"routed"},"lab
1000
el":"","dash":[10,3,2,3],"width":1.5}
0
LWPOLYLINE
5
109
330
153
100
AcDbEntity
8
Electrical
62
7
420
8943271
6
CC_DASH_10_3_2_3
100
AcDbPolyline
90
2
70
0
10
745
20
350
10
845
20
350
1001
CONDUITCAD
1000
{"id":"e-muio64p4-1eg","connector":{"from":{"entityId":"e-muio64p4-1ea","port":"out"},"to":{"entityId":"e-muio64p4-1eb","port":"in"},"style":"data","arrow":"end","waypoints":[],"status":"routed"},"lab
1000
el":"","dash":[10,3,2,3],"width":1.5}
0
LWPOLYLINE
5
10A
330
153
100
AcDbEntity
8
Electrical
62
7
420
8943271
6
CC_DASH_10_3_2_3
100
AcDbPolyline
90
5
70
0
10
700
20
310
10
700
20
292
10
637
20
292
10
637
20
140
10
655
20
140
1001
CONDUITCAD
1000
{"id":"e-muio64p4-1eh","connector":{"from":{"entityId":"e-muio64p4-1ea","port":"branch"},"to":{"entityId":"e-muio64p4-1ec","port":"in"},"style":"data","arrow":"end","waypoints":[],"status":"routed"},"
1000
label":"LAN","dash":[10,3,2,3],"width":1.5}
0
TEXT
5
10B
330
153
100
AcDbEntity
8
Annotations
100
AcDbText
10
40
20
620
30
0
40
27
1
Industrial network topology
50
0
41
1
7
STANDARD
100
AcDbText
73
0
1001
CONDUITCAD
1000
{"id":"e-muio64p4-1ei"}
0
TEXT
5
10C
330
153
100
AcDbEntity
8
Annotations
100
AcDbText
10
40
20
584
30
0
40
13
1
IT & telecom  /  Network topology
50
0
41
1
7
STANDARD
100
AcDbText
73
0
1001
CONDUITCAD
1000
{"id":"e-muio64p4-1ej"}
0
LINE
5
10D
330
153
100
AcDbEntity
8
Annotations
100
AcDbLine
10
40
20
562
30
0
11
1120
21
562
31
0
1001
CONDUITCAD
1000
{"id":"e-muio64p4-1ek"}
0
TEXT
5
10E
330
153
100
AcDbEntity
8
Annotations
100
AcDbText
10
40
20
42
30
0
40
11
1
CONCEPT SCHEMATIC — NOT FOR CONSTRUCTION
50
0
41
1
7
STANDARD
100
AcDbText
73
0
1001
CONDUITCAD
1000
{"id":"e-muio64p4-1el"}
0
TEXT
5
10F
330
153
100
AcDbEntity
8
Annotations
100
AcDbText
10
650
20
42
30
0
40
11
1
NETWORK  |  REV 03  |  mm
50
0
41
1
7
STANDARD
100
AcDbText
73
0
1001
CONDUITCAD
1000
{"id":"e-muio64p4-1em"}
0
ENDSEC
0
SECTION
2
OBJECTS
0
DICTIONARY
5
17D
330
0
100
AcDbDictionary
281
1
3
ACAD_LAYOUT
350
17E
3
ACAD_GROUP
350
17F
3
CONDUITCAD_METADATA
350
182
0
DICTIONARY
5
17E
330
17D
100
AcDbDictionary
281
1
3
Model
350
180
3
Layout1
350
181
0
DICTIONARY
5
17F
330
17D
100
AcDbDictionary
281
1
0
LAYOUT
5
180
330
17E
100
AcDbPlotSettings
1

2

4

6

40
0
41
0
42
0
43
0
44
420
45
297
46
0
47
0
48
0
49
0
140
0
141
0
142
1
143
1
70
0
72
1
73
0
74
5
7

75
16
76
0
77
0
78
300
147
1
148
0
149
0
100
AcDbLayout
1
Model
70
1
71
0
10
0
20
0
11
420
21
297
12
0
22
0
32
0
14
0
24
0
34
0
15
420
25
297
35
0
146
0
13
0
23
0
33
0
16
1
26
0
36
0
17
0
27
1
37
0
76
0
330
153
0
LAYOUT
5
181
330
17E
100
AcDbPlotSettings
1

2

4

6

40
0
41
0
42
0
43
0
44
420
45
297
46
0
47
0
48
0
49
0
140
0
141
0
142
1
143
1
70
0
72
1
73
0
74
5
7

75
16
76
0
77
0
78
300
147
1
148
0
149
0
100
AcDbLayout
1
Layout1
70
1
71
1
10
0
20
0
11
420
21
297
12
0
22
0
32
0
14
0
24
0
34
0
15
420
25
297
35
0
146
0
13
0
23
0
33
0
16
1
26
0
36
0
17
0
27
1
37
0
76
0
330
154
0
XRECORD
5
182
330
17D
100
AcDbXrecord
280
1
1
{"parameters":{"grid":"10","pipeWidth":"2","valveSize":"64"},"constraints":[],"metadata":{"author":"","description":"WAN, perimeter firewall, switch and server with a wireless branch.","industry":"IT 
1
& telecom","drawingType":"Network topology","templateId":"network","standardRefs":["PROJECT"],"geometryRevision":3,"approval":"Concept schematic; engineering approval required"}}
0
ENDSEC
0
EOF
