0
SECTION
2
HEADER
9
$ACADVER
1
AC1024
9
$INSUNITS
70
4
9
$LTSCALE
40
1
9
$MEASUREMENT
70
1
999
CONDUIT:{"parameters":{"grid":"10","pipeWidth":"2","valveSize":"64"},"constraints":[],"metadata":{"author":"","description":"Separator, metering and outlet isolation with a liquid draw-off
999
CONDUIT:.","industry":"Oil & gas","drawingType":"Process flow diagram","templateId":"oil-gas","standardRefs":["ISO-10628-2"],"geometryRevision":3,"approval":"Concept schematic; engineering
999
CONDUIT: approval required"}}
0
ENDSEC
0
SECTION
2
TABLES
0
TABLE
2
LTYPE
5
100
330
0
100
AcDbSymbolTable
70
1
0
LTYPE
5
101
100
AcDbSymbolTableRecord
100
AcDbLinetypeTableRecord
2
CONTINUOUS
70
0
3
Solid line
72
65
73
0
40
0
0
LTYPE
5
102
100
AcDbSymbolTableRecord
100
AcDbLinetypeTableRecord
2
DASHED
70
0
3
DASHED
72
65
73
2
40
12
49
8
74
0
49
-4
74
0
0
LTYPE
5
103
100
AcDbSymbolTableRecord
100
AcDbLinetypeTableRecord
2
CENTER
70
0
3
CENTER
72
65
73
4
40
20
49
12
74
0
49
-3
74
0
49
2
74
0
49
-3
74
0
0
LTYPE
5
104
100
AcDbSymbolTableRecord
100
AcDbLinetypeTableRecord
2
HIDDEN
70
0
3
HIDDEN
72
65
73
2
40
7
49
4
74
0
49
-3
74
0
0
LTYPE
5
105
100
AcDbSymbolTableRecord
100
AcDbLinetypeTableRecord
2
CC_DASH_12_5
70
0
3
CC_DASH_12_5
72
65
73
2
40
17
49
12
74
0
49
-5
74
0
0
LTYPE
5
106
100
AcDbSymbolTableRecord
100
AcDbLinetypeTableRecord
2
CC_DASH_6_4
70
0
3
CC_DASH_6_4
72
65
73
2
40
10
49
6
74
0
49
-4
74
0
0
ENDTAB
0
TABLE
2
LAYER
5
107
330
0
100
AcDbSymbolTable
70
13
0
LAYER
5
108
100
AcDbSymbolTableRecord
100
AcDbLayerTableRecord
2
0
70
0
62
7
420
3426133
6
CONTINUOUS
0
LAYER
5
109
100
AcDbSymbolTableRecord
100
AcDbLayerTableRecord
2
Equipment
70
0
62
7
420
3495011
6
CONTINUOUS
0
LAYER
5
10A
100
AcDbSymbolTableRecord
100
AcDbLayerTableRecord
2
Process
70
0
62
7
420
1342583
6
CONTINUOUS
0
LAYER
5
10B
100
AcDbSymbolTableRecord
100
AcDbLayerTableRecord
2
Instruments
70
0
62
7
420
10187334
6
CONTINUOUS
0
LAYER
5
10C
100
AcDbSymbolTableRecord
100
AcDbLayerTableRecord
2
Electrical
70
0
62
7
420
6584250
6
CONTINUOUS
0
LAYER
5
10D
100
AcDbSymbolTableRecord
100
AcDbLayerTableRecord
2
Annotations
70
0
62
7
420
7438474
6
CONTINUOUS
0
LAYER
5
10E
100
AcDbSymbolTableRecord
100
AcDbLayerTableRecord
2
Hydraulics
70
0
62
7
420
3495011
6
CONTINUOUS
0
LAYER
5
10F
100
AcDbSymbolTableRecord
100
AcDbLayerTableRecord
2
Pneumatics
70
0
62
7
420
3495011
6
CONTINUOUS
0
LAYER
5
110
100
AcDbSymbolTableRecord
100
AcDbLayerTableRecord
2
HVAC
70
0
62
7
420
3495011
6
CONTINUOUS
0
LAYER
5
111
100
AcDbSymbolTableRecord
100
AcDbLayerTableRecord
2
Water
70
0
62
7
420
3495011
6
CONTINUOUS
0
LAYER
5
112
100
AcDbSymbolTableRecord
100
AcDbLayerTableRecord
2
Automation
70
0
62
7
420
3495011
6
CONTINUOUS
0
LAYER
5
113
100
AcDbSymbolTableRecord
100
AcDbLayerTableRecord
2
Fire
70
0
62
7
420
3495011
6
CONTINUOUS
0
LAYER
5
114
100
AcDbSymbolTableRecord
100
AcDbLayerTableRecord
2
Network
70
0
62
7
420
3495011
6
CONTINUOUS
0
ENDTAB
0
TABLE
2
STYLE
5
115
330
0
100
AcDbSymbolTable
70
1
0
STYLE
5
116
100
AcDbSymbolTableRecord
100
AcDbTextStyleTableRecord
2
STANDARD
70
0
40
0
41
1
50
0
71
0
42
2.5
3
txt
4

0
ENDTAB
0
TABLE
2
APPID
5
117
330
0
100
AcDbSymbolTable
70
1
0
APPID
5
118
100
AcDbSymbolTableRecord
100
AcDbRegAppTableRecord
2
CONDUITCAD
70
0
0
ENDTAB
0
TABLE
2
BLOCK_RECORD
5
119
330
0
100
AcDbSymbolTable
70
8
0
BLOCK_RECORD
5
11A
100
AcDbSymbolTableRecord
100
AcDbBlockTableRecord
2
*Model_Space
0
BLOCK_RECORD
5
11B
100
AcDbSymbolTableRecord
100
AcDbBlockTableRecord
2
*Paper_Space
0
BLOCK_RECORD
5
11C
100
AcDbSymbolTableRecord
100
AcDbBlockTableRecord
2
CC_GATE_VALVE
0
BLOCK_RECORD
5
11D
100
AcDbSymbolTableRecord
100
AcDbBlockTableRecord
2
CC_VESSEL
0
BLOCK_RECORD
5
11E
100
AcDbSymbolTableRecord
100
AcDbBlockTableRecord
2
CC_ORIFICE_PLATE
0
BLOCK_RECORD
5
11F
100
AcDbSymbolTableRecord
100
AcDbBlockTableRecord
2
CC_CONTROL_VALVE
0
BLOCK_RECORD
5
120
100
AcDbSymbolTableRecord
100
AcDbBlockTableRecord
2
CC_BALL_VALVE
0
BLOCK_RECORD
5
121
100
AcDbSymbolTableRecord
100
AcDbBlockTableRecord
2
CC_PRESSURE_TRANSMITTER
0
ENDTAB
0
ENDSEC
0
SECTION
2
BLOCKS
0
BLOCK
5
122
330
11A
100
AcDbEntity
8
0
100
AcDbBlockBegin
2
*Model_Space
70
0
10
0
20
0
30
0
3
*Model_Space
1

1001
CONDUITCAD
1000
{"ports":[]}
0
ENDBLK
5
123
330
11A
100
AcDbEntity
8
0
100
AcDbBlockEnd
0
BLOCK
5
124
330
11B
100
AcDbEntity
8
0
100
AcDbBlockBegin
2
*Paper_Space
70
0
10
0
20
0
30
0
3
*Paper_Space
1

1001
CONDUITCAD
1000
{"ports":[]}
0
ENDBLK
5
125
330
11B
100
AcDbEntity
8
0
100
AcDbBlockEnd
0
BLOCK
5
126
330
11C
100
AcDbEntity
8
0
100
AcDbBlockBegin
2
CC_GATE_VALVE
70
0
10
0
20
0
30
0
3
CC_GATE_VALVE
1

1001
CONDUITCAD
1000
{"ports":[{"name":"in","x":-45,"y":0,"dx":-1,"dy":0,"medium":"process","role":"connection"},{"name":"out","x":45,"y":0,"dx":1,"dy":0,"medium":"process","role":"connection"}],"symbol":{"name":"Gate val
1000
ve","category":"P&ID","labelOffset":48,"geometryRevision":3,"convention":"ISO-10628-2 family","conformity":"Original master; not standards-certified","standardRefs":["ISO-10628-2"],"normativeEntry":nu
1000
ll,"review":{"level":"geometry-and-convention","dimensionalConformance":"not-verified","note":"Two separate non-self-intersecting triangles with exact common apex."},"group":"Valves & actuators","alia
1000
ses":["gate valve"],"defaultLayer":"Equipment","extents":{"minX":-45,"minY":-18,"maxX":45,"maxY":18}}}
0
LINE
5
127
330
11C
100
AcDbEntity
8
0
62
0
6
CONTINUOUS
100
AcDbLine
10
-45
20
0
30
0
11
-25
21
0
31
0
1001
CONDUITCAD
1000
{"id":"master-gate-valve-0"}
0
LINE
5
128
330
11C
100
AcDbEntity
8
0
62
0
6
CONTINUOUS
100
AcDbLine
10
25
20
0
30
0
11
45
21
0
31
0
1001
CONDUITCAD
1000
{"id":"master-gate-valve-1"}
0
LWPOLYLINE
5
129
330
11C
100
AcDbEntity
8
0
62
0
6
CONTINUOUS
100
AcDbPolyline
90
3
70
1
10
-25
20
-18
10
0
20
0
10
-25
20
18
1001
CONDUITCAD
1000
{"id":"master-gate-valve-2"}
0
LWPOLYLINE
5
12A
330
11C
100
AcDbEntity
8
0
62
0
6
CONTINUOUS
100
AcDbPolyline
90
3
70
1
10
25
20
-18
10
0
20
0
10
25
20
18
1001
CONDUITCAD
1000
{"id":"master-gate-valve-3"}
0
ENDBLK
5
12B
330
11C
100
AcDbEntity
8
0
100
AcDbBlockEnd
0
BLOCK
5
12C
330
11D
100
AcDbEntity
8
0
100
AcDbBlockBegin
2
CC_VESSEL
70
0
10
0
20
0
30
0
3
CC_VESSEL
1

1001
CONDUITCAD
1000
{"ports":[{"name":"in","x":-45,"y":0,"dx":-1,"dy":0,"medium":"process","role":"connection"},{"name":"out","x":45,"y":0,"dx":1,"dy":0,"medium":"process","role":"connection"},{"name":"top","x":0,"y":65,
1000
"dx":0,"dy":1,"medium":"process","role":"connection"},{"name":"bottom","x":0,"y":-50,"dx":0,"dy":-1,"medium":"process","role":"connection"}],"symbol":{"name":"Pressure vessel","category":"P&ID","label
1000
Offset":87,"geometryRevision":3,"convention":"ISO-10628-2 family","conformity":"Original master; not standards-certified","standardRefs":["ISO-10628-2"],"normativeEntry":null,"review":{"level":"geomet
1000
ry-and-convention","dimensionalConformance":"not-verified","note":"Native domed-end vessel rather than a plain rectangular box."},"group":"Equipment & instruments","aliases":["vessel"],"defaultLayer":
1000
"Equipment","extents":{"minX":-45,"minY":-65,"maxX":45,"maxY":65}}}
0
LINE
5
12D
330
11D
100
AcDbEntity
8
0
62
0
6
CONTINUOUS
100
AcDbLine
10
-27
20
-23
30
0
11
-27
21
23
31
0
1001
CONDUITCAD
1000
{"id":"master-vessel-0"}
0
ARC
5
12E
330
11D
100
AcDbEntity
8
0
62
0
6
CONTINUOUS
100
AcDbCircle
10
0
20
23
30
0
40
27
100
AcDbArc
50
0
51
180
1001
CONDUITCAD
1000
{"id":"master-vessel-1"}
0
LINE
5
12F
330
11D
100
AcDbEntity
8
0
62
0
6
CONTINUOUS
100
AcDbLine
10
27
20
23
30
0
11
27
21
-23
31
0
1001
CONDUITCAD
1000
{"id":"master-vessel-2"}
0
ARC
5
130
330
11D
100
AcDbEntity
8
0
62
0
6
CONTINUOUS
100
AcDbCircle
10
0
20
-23
30
0
40
27
100
AcDbArc
50
180
51
360
1001
CONDUITCAD
1000
{"id":"master-vessel-3"}
0
LINE
5
131
330
11D
100
AcDbEntity
8
0
62
0
6
CONTINUOUS
100
AcDbLine
10
-45
20
0
30
0
11
-27
21
0
31
0
1001
CONDUITCAD
1000
{"id":"master-vessel-4"}
0
LINE
5
132
330
11D
100
AcDbEntity
8
0
62
0
6
CONTINUOUS
100
AcDbLine
10
27
20
0
30
0
11
45
21
0
31
0
1001
CONDUITCAD
1000
{"id":"master-vessel-5"}
0
LINE
5
133
330
11D
100
AcDbEntity
8
0
62
0
6
CONTINUOUS
100
AcDbLine
10
0
20
50
30
0
11
0
21
65
31
0
1001
CONDUITCAD
1000
{"id":"master-vessel-6"}
0
LINE
5
134
330
11D
100
AcDbEntity
8
0
62
0
6
CONTINUOUS
100
AcDbLine
10
-15
20
-45.45
30
0
11
-15
21
-65
31
0
1001
CONDUITCAD
1000
{"id":"master-vessel-7"}
0
LINE
5
135
330
11D
100
AcDbEntity
8
0
62
0
6
CONTINUOUS
100
AcDbLine
10
15
20
-45.45
30
0
11
15
21
-65
31
0
1001
CONDUITCAD
1000
{"id":"master-vessel-8"}
0
ENDBLK
5
136
330
11D
100
AcDbEntity
8
0
100
AcDbBlockEnd
0
BLOCK
5
137
330
11E
100
AcDbEntity
8
0
100
AcDbBlockBegin
2
CC_ORIFICE_PLATE
70
0
10
0
20
0
30
0
3
CC_ORIFICE_PLATE
1

1001
CONDUITCAD
1000
{"ports":[{"name":"in","x":-45,"y":0,"dx":-1,"dy":0,"medium":"process","role":"connection"},{"name":"out","x":45,"y":0,"dx":1,"dy":0,"medium":"process","role":"connection"}],"symbol":{"name":"Orifice 
1000
plate","category":"P&ID","group":"Fittings & connections","geometryRevision":3,"standardRefs":["ISO-10628-2"],"convention":"ISO-10628-2 family","conformity":"Original master; not standards-certified",
1000
"normativeEntry":null,"review":{"level":"geometry-and-convention","dimensionalConformance":"not-verified","note":"New independently constructed CAD master with explicit terminal topology."},"aliases":
1000
["orifice plate"],"defaultLayer":"Equipment","labelOffset":48,"extents":{"minX":-45,"minY":-23,"maxX":45,"maxY":23}}}
0
LINE
5
138
330
11E
100
AcDbEntity
8
0
62
0
6
CONTINUOUS
100
AcDbLine
10
-45
20
0
30
0
11
45
21
0
31
0
1001
CONDUITCAD
1000
{"id":"master-orifice-plate-0"}
0
LINE
5
139
330
11E
100
AcDbEntity
8
0
62
0
6
CONTINUOUS
100
AcDbLine
10
0
20
-23
30
0
11
0
21
-5
31
0
1001
CONDUITCAD
1000
{"id":"master-orifice-plate-1"}
0
LINE
5
13A
330
11E
100
AcDbEntity
8
0
62
0
6
CONTINUOUS
100
AcDbLine
10
0
20
5
30
0
11
0
21
23
31
0
1001
CONDUITCAD
1000
{"id":"master-orifice-plate-2"}
0
ENDBLK
5
13B
330
11E
100
AcDbEntity
8
0
100
AcDbBlockEnd
0
BLOCK
5
13C
330
11F
100
AcDbEntity
8
0
100
AcDbBlockBegin
2
CC_CONTROL_VALVE
70
0
10
0
20
0
30
0
3
CC_CONTROL_VALVE
1

1001
CONDUITCAD
1000
{"ports":[{"name":"in","x":-45,"y":0,"dx":-1,"dy":0,"medium":"process","role":"connection"},{"name":"out","x":45,"y":0,"dx":1,"dy":0,"medium":"process","role":"connection"},{"name":"signal","x":0,"y":
1000
50,"dx":0,"dy":1,"medium":"signal","role":"connection"}],"symbol":{"name":"Control valve","category":"P&ID","labelOffset":48,"geometryRevision":3,"convention":"ISO-10628-2 family","conformity":"Origin
1000
al master; not standards-certified","standardRefs":["ISO-10628-2"],"normativeEntry":null,"review":{"level":"geometry-and-convention","dimensionalConformance":"not-verified","note":"Native elliptical d
1000
iaphragm cap and a connected signal terminal."},"group":"Valves & actuators","aliases":["control valve"],"defaultLayer":"Equipment","extents":{"minX":-45,"minY":-18,"maxX":45,"maxY":50}}}
0
LINE
5
13D
330
11F
100
AcDbEntity
8
0
62
0
6
CONTINUOUS
100
AcDbLine
10
-45
20
0
30
0
11
-25
21
0
31
0
1001
CONDUITCAD
1000
{"id":"master-control-valve-0"}
0
LINE
5
13E
330
11F
100
AcDbEntity
8
0
62
0
6
CONTINUOUS
100
AcDbLine
10
25
20
0
30
0
11
45
21
0
31
0
1001
CONDUITCAD
1000
{"id":"master-control-valve-1"}
0
LWPOLYLINE
5
13F
330
11F
100
AcDbEntity
8
0
62
0
6
CONTINUOUS
100
AcDbPolyline
90
3
70
1
10
-25
20
-18
10
0
20
0
10
-25
20
18
1001
CONDUITCAD
1000
{"id":"master-control-valve-2"}
0
LWPOLYLINE
5
140
330
11F
100
AcDbEntity
8
0
62
0
6
CONTINUOUS
100
AcDbPolyline
90
3
70
1
10
25
20
-18
10
0
20
0
10
25
20
18
1001
CONDUITCAD
1000
{"id":"master-control-valve-3"}
0
LINE
5
141
330
11F
100
AcDbEntity
8
0
62
0
6
CONTINUOUS
100
AcDbLine
10
0
20
0
30
0
11
0
21
30
31
0
1001
CONDUITCAD
1000
{"id":"master-control-valve-4"}
0
LINE
5
142
330
11F
100
AcDbEntity
8
0
62
0
6
CONTINUOUS
100
AcDbLine
10
-20
20
30
30
0
11
20
21
30
31
0
1001
CONDUITCAD
1000
{"id":"master-control-valve-5"}
0
ELLIPSE
5
143
330
11F
100
AcDbEntity
8
0
62
0
6
CONTINUOUS
100
AcDbEllipse
10
0
20
30
30
0
11
20
21
0
31
0
40
0.7
41
0
42
3.141592653589793
1001
CONDUITCAD
1000
{"id":"master-control-valve-6"}
0
LINE
5
144
330
11F
100
AcDbEntity
8
0
62
0
6
CONTINUOUS
100
AcDbLine
10
0
20
44
30
0
11
0
21
50
31
0
1001
CONDUITCAD
1000
{"id":"master-control-valve-7"}
0
ENDBLK
5
145
330
11F
100
AcDbEntity
8
0
100
AcDbBlockEnd
0
BLOCK
5
146
330
120
100
AcDbEntity
8
0
100
AcDbBlockBegin
2
CC_BALL_VALVE
70
0
10
0
20
0
30
0
3
CC_BALL_VALVE
1

1001
CONDUITCAD
1000
{"ports":[{"name":"in","x":-45,"y":0,"dx":-1,"dy":0,"medium":"process","role":"connection"},{"name":"out","x":45,"y":0,"dx":1,"dy":0,"medium":"process","role":"connection"}],"symbol":{"name":"Ball val
1000
ve","category":"P&ID","labelOffset":48,"geometryRevision":3,"convention":"ISO-10628-2 family","conformity":"Original master; not standards-certified","standardRefs":["ISO-10628-2"],"normativeEntry":nu
1000
ll,"review":{"level":"geometry-and-convention","dimensionalConformance":"not-verified","note":"Valve body plus ball element; distinguish from butterfly disc."},"group":"Valves & actuators","aliases":[
1000
"ball valve"],"defaultLayer":"Equipment","extents":{"minX":-45,"minY":-18,"maxX":45,"maxY":18}}}
0
LINE
5
147
330
120
100
AcDbEntity
8
0
62
0
6
CONTINUOUS
100
AcDbLine
10
-45
20
0
30
0
11
-25
21
0
31
0
1001
CONDUITCAD
1000
{"id":"master-ball-valve-0"}
0
LINE
5
148
330
120
100
AcDbEntity
8
0
62
0
6
CONTINUOUS
100
AcDbLine
10
25
20
0
30
0
11
45
21
0
31
0
1001
CONDUITCAD
1000
{"id":"master-ball-valve-1"}
0
LWPOLYLINE
5
149
330
120
100
AcDbEntity
8
0
62
0
6
CONTINUOUS
100
AcDbPolyline
90
3
70
1
10
-25
20
-18
10
0
20
0
10
-25
20
18
1001
CONDUITCAD
1000
{"id":"master-ball-valve-2"}
0
LWPOLYLINE
5
14A
330
120
100
AcDbEntity
8
0
62
0
6
CONTINUOUS
100
AcDbPolyline
90
3
70
1
10
25
20
-18
10
0
20
0
10
25
20
18
1001
CONDUITCAD
1000
{"id":"master-ball-valve-3"}
0
CIRCLE
5
14B
330
120
100
AcDbEntity
8
0
62
0
6
CONTINUOUS
100
AcDbCircle
10
0
20
0
30
0
40
11
1001
CONDUITCAD
1000
{"id":"master-ball-valve-4"}
0
ENDBLK
5
14C
330
120
100
AcDbEntity
8
0
100
AcDbBlockEnd
0
BLOCK
5
14D
330
121
100
AcDbEntity
8
0
100
AcDbBlockBegin
2
CC_PRESSURE_TRANSMITTER
70
0
10
0
20
0
30
0
3
CC_PRESSURE_TRANSMITTER
1

1001
CONDUITCAD
1000
{"ports":[{"name":"sense","x":0,"y":-45,"dx":0,"dy":-1,"medium":"signal","role":"connection"}],"symbol":{"name":"Pressure transmitter","category":"Instrumentation","group":"Field instruments","functio
1000
nCode":"PT","instrumentLocation":"field","aliases":["PT","pressure transmitter"],"geometryRevision":3,"standardRefs":["ISA-5.1"],"convention":"ISA-5.1 family","conformity":"Original master; not standa
1000
rds-certified","normativeEntry":null,"review":{"level":"geometry-and-convention","dimensionalConformance":"not-verified","note":"New independently constructed CAD master with explicit terminal topolog
1000
y."},"defaultLayer":"Instruments","labelOffset":67,"extents":{"minX":-26,"minY":-45,"maxX":26,"maxY":25.970550818758205}}}
0
CIRCLE
5
14E
330
121
100
AcDbEntity
8
0
62
0
6
CONTINUOUS
100
AcDbCircle
10
0
20
0
30
0
40
26
1001
CONDUITCAD
1000
{"id":"master-pressure-transmitter-0"}
0
TEXT
5
14F
330
121
100
AcDbEntity
8
0
62
0
6
CONTINUOUS
100
AcDbText
10
0
20
-5
30
0
40
12
1
PT
50
0
41
1
7
STANDARD
72
1
11
0
21
-5
31
0
100
AcDbText
73
0
1001
CONDUITCAD
1000
{"id":"master-pressure-transmitter-1"}
0
LINE
5
150
330
121
100
AcDbEntity
8
0
62
0
6
CONTINUOUS
100
AcDbLine
10
0
20
-26
30
0
11
0
21
-45
31
0
1001
CONDUITCAD
1000
{"id":"master-pressure-transmitter-2"}
0
ENDBLK
5
151
330
121
100
AcDbEntity
8
0
100
AcDbBlockEnd
0
ENDSEC
0
SECTION
2
ENTITIES
0
INSERT
5
152
330
11A
100
AcDbEntity
8
Equipment
100
AcDbBlockReference
2
CC_GATE_VALVE
10
130
20
350
30
0
41
1
42
1
43
1
50
0
66
1
1001
CONDUITCAD
1000
{"id":"e-mugr5p42-19b","tag":"XV-101"}
0
ATTRIB
5
153
330
11A
100
AcDbEntity
8
Equipment
100
AcDbText
10
130
20
302
30
0
40
12
1
XV-101
50
0
41
1
7
STANDARD
72
1
11
130
21
302
31
0
100
AcDbAttribute
2
TAG
70
0
74
0
0
SEQEND
5
154
100
AcDbEntity
8
Equipment
0
INSERT
5
155
330
11A
100
AcDbEntity
8
Equipment
100
AcDbBlockReference
2
CC_VESSEL
10
370
20
350
30
0
41
1
42
1
43
1
50
0
66
1
1001
CONDUITCAD
1000
{"id":"e-mugr5p42-19c","tag":"V-101"}
0
ATTRIB
5
156
330
11A
100
AcDbEntity
8
Equipment
100
AcDbText
10
370
20
263
30
0
40
12
1
V-101
50
0
41
1
7
STANDARD
72
1
11
370
21
263
31
0
100
AcDbAttribute
2
TAG
70
0
74
0
0
SEQEND
5
157
100
AcDbEntity
8
Equipment
0
INSERT
5
158
330
11A
100
AcDbEntity
8
Equipment
100
AcDbBlockReference
2
CC_ORIFICE_PLATE
10
620
20
350
30
0
41
1
42
1
43
1
50
0
66
1
1001
CONDUITCAD
1000
{"id":"e-mugr5p42-19d","tag":"FE-101"}
0
ATTRIB
5
159
330
11A
100
AcDbEntity
8
Equipment
100
AcDbText
10
620
20
302
30
0
40
12
1
FE-101
50
0
41
1
7
STANDARD
72
1
11
620
21
302
31
0
100
AcDbAttribute
2
TAG
70
0
74
0
0
SEQEND
5
15A
100
AcDbEntity
8
Equipment
0
INSERT
5
15B
330
11A
100
AcDbEntity
8
Equipment
100
AcDbBlockReference
2
CC_CONTROL_VALVE
10
860
20
350
30
0
41
1
42
1
43
1
50
0
66
1
1001
CONDUITCAD
1000
{"id":"e-mugr5p42-19e","tag":"PCV-101"}
0
ATTRIB
5
15C
330
11A
100
AcDbEntity
8
Equipment
100
AcDbText
10
860
20
302
30
0
40
12
1
PCV-101
50
0
41
1
7
STANDARD
72
1
11
860
21
302
31
0
100
AcDbAttribute
2
TAG
70
0
74
0
0
SEQEND
5
15D
100
AcDbEntity
8
Equipment
0
INSERT
5
15E
330
11A
100
AcDbEntity
8
Equipment
100
AcDbBlockReference
2
CC_BALL_VALVE
10
370
20
150
30
0
41
1
42
1
43
1
50
0
66
1
1001
CONDUITCAD
1000
{"id":"e-mugr5p42-19f","tag":"LV-101"}
0
ATTRIB
5
15F
330
11A
100
AcDbEntity
8
Equipment
100
AcDbText
10
370
20
102
30
0
40
12
1
LV-101
50
0
41
1
7
STANDARD
72
1
11
370
21
102
31
0
100
AcDbAttribute
2
TAG
70
0
74
0
0
SEQEND
5
160
100
AcDbEntity
8
Equipment
0
INSERT
5
161
330
11A
100
AcDbEntity
8
Instruments
100
AcDbBlockReference
2
CC_PRESSURE_TRANSMITTER
10
620
20
490
30
0
41
1
42
1
43
1
50
0
66
1
1001
CONDUITCAD
1000
{"id":"e-mugr5p42-19g","tag":"PT-101"}
0
ATTRIB
5
162
330
11A
100
AcDbEntity
8
Instruments
100
AcDbText
10
620
20
423
30
0
40
12
1
PT-101
50
0
41
1
7
STANDARD
72
1
11
620
21
423
31
0
100
AcDbAttribute
2
TAG
70
0
74
0
0
SEQEND
5
163
100
AcDbEntity
8
Instruments
0
LWPOLYLINE
5
164
330
11A
100
AcDbEntity
8
Process
62
7
420
1342583
100
AcDbPolyline
90
2
70
0
10
175
20
350
10
325
20
350
1001
CONDUITCAD
1000
{"id":"e-mugr5p43-19h","connector":{"from":{"entityId":"e-mugr5p42-19b","port":"out"},"to":{"entityId":"e-mugr5p42-19c","port":"in"},"style":"process","arrow":"end","waypoints":[],"status":"routed"},"
1000
label":"","dash":[],"width":2}
0
LWPOLYLINE
5
165
330
11A
100
AcDbEntity
8
Process
62
7
420
1342583
100
AcDbPolyline
90
2
70
0
10
415
20
350
10
575
20
350
1001
CONDUITCAD
1000
{"id":"e-mugr5p43-19i","connector":{"from":{"entityId":"e-mugr5p42-19c","port":"out"},"to":{"entityId":"e-mugr5p42-19d","port":"in"},"style":"process","arrow":"end","waypoints":[],"status":"routed"},"
1000
label":"","dash":[],"width":2}
0
LWPOLYLINE
5
166
330
11A
100
AcDbEntity
8
Process
62
7
420
1342583
100
AcDbPolyline
90
2
70
0
10
665
20
350
10
815
20
350
1001
CONDUITCAD
1000
{"id":"e-mugr5p43-19j","connector":{"from":{"entityId":"e-mugr5p42-19d","port":"out"},"to":{"entityId":"e-mugr5p42-19e","port":"in"},"style":"process","arrow":"end","waypoints":[],"status":"routed"},"
1000
label":"","dash":[],"width":2}
0
LWPOLYLINE
5
167
330
11A
100
AcDbEntity
8
Process
62
7
420
7702925
6
CC_DASH_12_5
100
AcDbPolyline
90
5
70
0
10
370
20
300
10
370
20
276.99
10
307
20
276.99
10
307
20
150
10
325
20
150
1001
CONDUITCAD
1000
{"id":"e-mugr5p43-19k","connector":{"from":{"entityId":"e-mugr5p42-19c","port":"bottom"},"to":{"entityId":"e-mugr5p42-19f","port":"in"},"style":"drain","arrow":"end","waypoints":[],"status":"routed"},
1000
"label":"","dash":[12,5],"width":1.5}
0
LWPOLYLINE
5
168
330
11A
100
AcDbEntity
8
Instruments
62
7
420
11172939
6
CC_DASH_6_4
100
AcDbPolyline
90
4
70
0
10
620
20
445
10
620
20
427
10
860
20
427
10
860
20
400
1001
CONDUITCAD
1000
{"id":"e-mugr5p43-19l","connector":{"from":{"entityId":"e-mugr5p42-19g","port":"sense"},"to":{"entityId":"e-mugr5p42-19e","port":"signal"},"style":"signal","arrow":"none","waypoints":[],"status":"rout
1000
ed"},"label":"","dash":[6,4],"width":1.5}
0
TEXT
5
169
330
11A
100
AcDbEntity
8
Annotations
100
AcDbText
10
40
20
620
30
0
40
27
1
Separation and metering
50
0
41
1
7
STANDARD
100
AcDbText
73
0
1001
CONDUITCAD
1000
{"id":"e-mugr5p43-19m"}
0
TEXT
5
16A
330
11A
100
AcDbEntity
8
Annotations
100
AcDbText
10
40
20
584
30
0
40
13
1
Oil & gas  /  Process flow diagram
50
0
41
1
7
STANDARD
100
AcDbText
73
0
1001
CONDUITCAD
1000
{"id":"e-mugr5p43-19n"}
0
LINE
5
16B
330
11A
100
AcDbEntity
8
Annotations
100
AcDbLine
10
40
20
562
30
0
11
1120
21
562
31
0
1001
CONDUITCAD
1000
{"id":"e-mugr5p43-19o"}
0
TEXT
5
16C
330
11A
100
AcDbEntity
8
Annotations
100
AcDbText
10
40
20
42
30
0
40
11
1
CONCEPT SCHEMATIC — NOT FOR CONSTRUCTION
50
0
41
1
7
STANDARD
100
AcDbText
73
0
1001
CONDUITCAD
1000
{"id":"e-mugr5p43-19p"}
0
TEXT
5
16D
330
11A
100
AcDbEntity
8
Annotations
100
AcDbText
10
650
20
42
30
0
40
11
1
OIL-GAS  |  REV 03  |  mm
50
0
41
1
7
STANDARD
100
AcDbText
73
0
1001
CONDUITCAD
1000
{"id":"e-mugr5p43-19q"}
0
ENDSEC
0
EOF
