0
SECTION
2
HEADER
9
$ACADVER
1
AC1024
9
$INSUNITS
70
4
9
$LTSCALE
40
1
9
$MEASUREMENT
70
1
999
CONDUIT:{"parameters":{"grid":"10","pipeWidth":"2","valveSize":"64"},"constraints":[],"metadata":{"author":"","description":"Metering, backflow protection, isolation, heater and draw-off p
999
CONDUIT:oint.","industry":"Building services","drawingType":"Water distribution schematic","templateId":"plumbing","standardRefs":["PROJECT"],"geometryRevision":3,"approval":"Concept schem
999
CONDUIT:atic; engineering approval required"}}
9
$HANDSEED
5
16C
9
$DWGCODEPAGE
3
ANSI_1252
9
$CLAYER
8
0
9
$TILEMODE
70
1
0
ENDSEC
0
SECTION
2
TABLES
0
TABLE
2
LTYPE
5
129
330
0
100
AcDbSymbolTable
70
4
0
LTYPE
5
12A
100
AcDbSymbolTableRecord
100
AcDbLinetypeTableRecord
2
CONTINUOUS
70
0
3
Solid line
72
65
73
0
40
0
330
129
0
LTYPE
5
12B
100
AcDbSymbolTableRecord
100
AcDbLinetypeTableRecord
2
DASHED
70
0
3
DASHED
72
65
73
2
40
12
49
8
74
0
49
-4
74
0
330
129
0
LTYPE
5
12C
100
AcDbSymbolTableRecord
100
AcDbLinetypeTableRecord
2
CENTER
70
0
3
CENTER
72
65
73
4
40
20
49
12
74
0
49
-3
74
0
49
2
74
0
49
-3
74
0
330
129
0
LTYPE
5
12D
100
AcDbSymbolTableRecord
100
AcDbLinetypeTableRecord
2
HIDDEN
70
0
3
HIDDEN
72
65
73
2
40
7
49
4
74
0
49
-3
74
0
330
129
0
ENDTAB
0
TABLE
2
LAYER
5
12E
330
0
100
AcDbSymbolTable
70
13
0
LAYER
5
12F
100
AcDbSymbolTableRecord
100
AcDbLayerTableRecord
2
0
70
0
62
7
420
3426133
6
CONTINUOUS
330
12E
0
LAYER
5
130
100
AcDbSymbolTableRecord
100
AcDbLayerTableRecord
2
Equipment
70
0
62
7
420
3495011
6
CONTINUOUS
330
12E
0
LAYER
5
131
100
AcDbSymbolTableRecord
100
AcDbLayerTableRecord
2
Process
70
0
62
7
420
1342583
6
CONTINUOUS
330
12E
0
LAYER
5
132
100
AcDbSymbolTableRecord
100
AcDbLayerTableRecord
2
Instruments
70
0
62
7
420
10187334
6
CONTINUOUS
330
12E
0
LAYER
5
133
100
AcDbSymbolTableRecord
100
AcDbLayerTableRecord
2
Electrical
70
0
62
7
420
6584250
6
CONTINUOUS
330
12E
0
LAYER
5
134
100
AcDbSymbolTableRecord
100
AcDbLayerTableRecord
2
Annotations
70
0
62
7
420
7438474
6
CONTINUOUS
330
12E
0
LAYER
5
135
100
AcDbSymbolTableRecord
100
AcDbLayerTableRecord
2
Hydraulics
70
0
62
7
420
3495011
6
CONTINUOUS
330
12E
0
LAYER
5
136
100
AcDbSymbolTableRecord
100
AcDbLayerTableRecord
2
Pneumatics
70
0
62
7
420
3495011
6
CONTINUOUS
330
12E
0
LAYER
5
137
100
AcDbSymbolTableRecord
100
AcDbLayerTableRecord
2
HVAC
70
0
62
7
420
3495011
6
CONTINUOUS
330
12E
0
LAYER
5
138
100
AcDbSymbolTableRecord
100
AcDbLayerTableRecord
2
Water
70
0
62
7
420
3495011
6
CONTINUOUS
330
12E
0
LAYER
5
139
100
AcDbSymbolTableRecord
100
AcDbLayerTableRecord
2
Automation
70
0
62
7
420
3495011
6
CONTINUOUS
330
12E
0
LAYER
5
13A
100
AcDbSymbolTableRecord
100
AcDbLayerTableRecord
2
Fire
70
0
62
7
420
3495011
6
CONTINUOUS
330
12E
0
LAYER
5
13B
100
AcDbSymbolTableRecord
100
AcDbLayerTableRecord
2
Network
70
0
62
7
420
3495011
6
CONTINUOUS
330
12E
0
ENDTAB
0
TABLE
2
STYLE
5
13C
330
0
100
AcDbSymbolTable
70
1
0
STYLE
5
13D
100
AcDbSymbolTableRecord
100
AcDbTextStyleTableRecord
2
STANDARD
70
0
40
0
41
1
50
0
71
0
42
2.5
3
txt
4

330
13C
0
ENDTAB
0
TABLE
2
APPID
5
13E
330
0
100
AcDbSymbolTable
70
2
0
APPID
5
13F
100
AcDbSymbolTableRecord
100
AcDbRegAppTableRecord
2
CONDUITCAD
70
0
330
13E
0
APPID
5
165
100
AcDbSymbolTableRecord
100
AcDbRegAppTableRecord
2
ACAD
70
0
330
13E
0
ENDTAB
0
TABLE
2
BLOCK_RECORD
5
140
330
0
100
AcDbSymbolTable
70
7
0
BLOCK_RECORD
5
141
100
AcDbSymbolTableRecord
100
AcDbBlockTableRecord
2
*Model_Space
340
169
330
140
0
BLOCK_RECORD
5
142
100
AcDbSymbolTableRecord
100
AcDbBlockTableRecord
2
*Paper_Space
340
16A
330
140
0
BLOCK_RECORD
5
143
100
AcDbSymbolTableRecord
100
AcDbBlockTableRecord
2
CC_WATER_METER
330
140
0
BLOCK_RECORD
5
144
100
AcDbSymbolTableRecord
100
AcDbBlockTableRecord
2
CC_WATER_BACKFLOW
330
140
0
BLOCK_RECORD
5
145
100
AcDbSymbolTableRecord
100
AcDbBlockTableRecord
2
CC_GATE_VALVE
330
140
0
BLOCK_RECORD
5
146
100
AcDbSymbolTableRecord
100
AcDbBlockTableRecord
2
CC_WATER_HEATER
330
140
0
BLOCK_RECORD
5
147
100
AcDbSymbolTableRecord
100
AcDbBlockTableRecord
2
CC_WATER_TAP
330
140
0
ENDTAB
0
TABLE
2
VPORT
5
160
330
0
100
AcDbSymbolTable
70
0
0
ENDTAB
0
TABLE
2
VIEW
5
161
330
0
100
AcDbSymbolTable
70
0
0
ENDTAB
0
TABLE
2
UCS
5
162
330
0
100
AcDbSymbolTable
70
0
0
ENDTAB
0
TABLE
2
DIMSTYLE
5
163
330
0
100
AcDbSymbolTable
70
1
100
AcDbDimStyleTable
71
0
0
DIMSTYLE
105
164
330
163
100
AcDbSymbolTableRecord
100
AcDbDimStyleTableRecord
2
STANDARD
70
0
340
13D
0
ENDTAB
0
ENDSEC
0
SECTION
2
BLOCKS
0
BLOCK
5
148
330
141
100
AcDbEntity
8
0
100
AcDbBlockBegin
2
*Model_Space
70
1
10
0
20
0
30
0
3
*Model_Space
1

1001
CONDUITCAD
1000
{"ports":[]}
0
ENDBLK
5
149
330
141
100
AcDbEntity
8
0
100
AcDbBlockEnd
0
BLOCK
5
14A
330
142
100
AcDbEntity
8
0
100
AcDbBlockBegin
2
*Paper_Space
70
1
10
0
20
0
30
0
3
*Paper_Space
1

1001
CONDUITCAD
1000
{"ports":[]}
0
ENDBLK
5
14B
330
142
100
AcDbEntity
8
0
100
AcDbBlockEnd
0
BLOCK
5
14C
330
143
100
AcDbEntity
8
0
100
AcDbBlockBegin
2
CC_WATER_METER
70
0
10
0
20
0
30
0
3
CC_WATER_METER
1

1001
CONDUITCAD
1000
{"ports":[{"name":"in","x":-45,"y":0,"dx":-1,"dy":0,"medium":"water","role":"connection"},{"name":"out","x":45,"y":0,"dx":1,"dy":0,"medium":"water","role":"connection"}],"symbol":{"name":"Water meter"
1000
,"category":"Water","group":"Treatment & distribution","geometryRevision":3,"standardRefs":["PROJECT"],"convention":"Explicit project drafting convention","conformity":"Original master; not standards-
1000
certified","normativeEntry":null,"review":{"level":"geometry-and-convention","dimensionalConformance":"not-verified","note":"New independently constructed CAD master with explicit terminal topology."}
1000
,"aliases":["water meter"],"defaultLayer":"Water","labelOffset":48,"extents":{"minX":-45,"minY":-25.970550818758205,"maxX":45,"maxY":25.970550818758205}}}
0
LINE
5
10E
330
143
100
AcDbEntity
8
0
62
0
6
CONTINUOUS
100
AcDbLine
10
-45
20
0
30
0
11
-26
21
0
31
0
1001
CONDUITCAD
1000
{"id":"master-water-meter-0"}
0
LINE
5
10F
330
143
100
AcDbEntity
8
0
62
0
6
CONTINUOUS
100
AcDbLine
10
26
20
0
30
0
11
45
21
0
31
0
1001
CONDUITCAD
1000
{"id":"master-water-meter-1"}
0
CIRCLE
5
110
330
143
100
AcDbEntity
8
0
62
0
6
CONTINUOUS
100
AcDbCircle
10
0
20
0
30
0
40
26
1001
CONDUITCAD
1000
{"id":"master-water-meter-2"}
0
TEXT
5
111
330
143
100
AcDbEntity
8
0
62
0
6
CONTINUOUS
100
AcDbText
10
0
20
-5
30
0
40
13
1
WM
50
0
41
1
7
STANDARD
72
1
11
0
21
-5
31
0
100
AcDbText
73
0
1001
CONDUITCAD
1000
{"id":"master-water-meter-3"}
0
ENDBLK
5
14D
330
143
100
AcDbEntity
8
0
100
AcDbBlockEnd
0
BLOCK
5
14E
330
144
100
AcDbEntity
8
0
100
AcDbBlockBegin
2
CC_WATER_BACKFLOW
70
0
10
0
20
0
30
0
3
CC_WATER_BACKFLOW
1

1001
CONDUITCAD
1000
{"ports":[{"name":"in","x":-45,"y":0,"dx":-1,"dy":0,"medium":"water","role":"connection"},{"name":"out","x":45,"y":0,"dx":1,"dy":0,"medium":"water","role":"connection"}],"symbol":{"name":"Double-check
1000
 backflow preventer","category":"Water","group":"Treatment & distribution","geometryRevision":3,"standardRefs":["PROJECT"],"convention":"Explicit project drafting convention","conformity":"Original ma
1000
ster; not standards-certified","normativeEntry":null,"review":{"level":"geometry-and-convention","dimensionalConformance":"not-verified","note":"New independently constructed CAD master with explicit 
1000
terminal topology."},"aliases":["water backflow"],"defaultLayer":"Water","labelOffset":48,"extents":{"minX":-45,"minY":-22,"maxX":45,"maxY":22}}}
0
LWPOLYLINE
5
112
330
144
100
AcDbEntity
8
0
62
0
6
CONTINUOUS
100
AcDbPolyline
90
4
70
1
10
-32
20
-22
10
32
20
-22
10
32
20
22
10
-32
20
22
1001
CONDUITCAD
1000
{"id":"master-water-backflow-0"}
0
LINE
5
113
330
144
100
AcDbEntity
8
0
62
0
6
CONTINUOUS
100
AcDbLine
10
-45
20
0
30
0
11
-32
21
0
31
0
1001
CONDUITCAD
1000
{"id":"master-water-backflow-1"}
0
LINE
5
114
330
144
100
AcDbEntity
8
0
62
0
6
CONTINUOUS
100
AcDbLine
10
32
20
0
30
0
11
45
21
0
31
0
1001
CONDUITCAD
1000
{"id":"master-water-backflow-2"}
0
LINE
5
115
330
144
100
AcDbEntity
8
0
62
0
6
CONTINUOUS
100
AcDbLine
10
-25
20
-12
30
0
11
-25
21
12
31
0
1001
CONDUITCAD
1000
{"id":"master-water-backflow-3"}
0
LINE
5
116
330
144
100
AcDbEntity
8
0
62
0
6
CONTINUOUS
100
AcDbLine
10
-25
20
12
30
0
11
-5
21
-9
31
0
1001
CONDUITCAD
1000
{"id":"master-water-backflow-4"}
0
CIRCLE
5
117
330
144
100
AcDbEntity
8
0
62
0
6
CONTINUOUS
100
AcDbCircle
10
-25
20
12
30
0
40
2
1001
CONDUITCAD
1000
{"id":"master-water-backflow-5"}
0
LINE
5
118
330
144
100
AcDbEntity
8
0
62
0
6
CONTINUOUS
100
AcDbLine
10
3
20
-12
30
0
11
3
21
12
31
0
1001
CONDUITCAD
1000
{"id":"master-water-backflow-6"}
0
LINE
5
119
330
144
100
AcDbEntity
8
0
62
0
6
CONTINUOUS
100
AcDbLine
10
3
20
12
30
0
11
23
21
-9
31
0
1001
CONDUITCAD
1000
{"id":"master-water-backflow-7"}
0
CIRCLE
5
11A
330
144
100
AcDbEntity
8
0
62
0
6
CONTINUOUS
100
AcDbCircle
10
3
20
12
30
0
40
2
1001
CONDUITCAD
1000
{"id":"master-water-backflow-8"}
0
ENDBLK
5
14F
330
144
100
AcDbEntity
8
0
100
AcDbBlockEnd
0
BLOCK
5
150
330
145
100
AcDbEntity
8
0
100
AcDbBlockBegin
2
CC_GATE_VALVE
70
0
10
0
20
0
30
0
3
CC_GATE_VALVE
1

1001
CONDUITCAD
1000
{"ports":[{"name":"in","x":-45,"y":0,"dx":-1,"dy":0,"medium":"process","role":"connection"},{"name":"out","x":45,"y":0,"dx":1,"dy":0,"medium":"process","role":"connection"}],"symbol":{"name":"Gate val
1000
ve","category":"P&ID","labelOffset":48,"geometryRevision":3,"convention":"ISO-10628-2 family","conformity":"Original master; not standards-certified","standardRefs":["ISO-10628-2"],"normativeEntry":nu
1000
ll,"review":{"level":"geometry-and-convention","dimensionalConformance":"not-verified","note":"Two separate non-self-intersecting triangles with exact common apex."},"group":"Valves & actuators","alia
1000
ses":["gate valve"],"defaultLayer":"Equipment","extents":{"minX":-45,"minY":-18,"maxX":45,"maxY":18}}}
0
LINE
5
11B
330
145
100
AcDbEntity
8
0
62
0
6
CONTINUOUS
100
AcDbLine
10
-45
20
0
30
0
11
-25
21
0
31
0
1001
CONDUITCAD
1000
{"id":"master-gate-valve-0"}
0
LINE
5
11C
330
145
100
AcDbEntity
8
0
62
0
6
CONTINUOUS
100
AcDbLine
10
25
20
0
30
0
11
45
21
0
31
0
1001
CONDUITCAD
1000
{"id":"master-gate-valve-1"}
0
LWPOLYLINE
5
11D
330
145
100
AcDbEntity
8
0
62
0
6
CONTINUOUS
100
AcDbPolyline
90
3
70
1
10
-25
20
-18
10
0
20
0
10
-25
20
18
1001
CONDUITCAD
1000
{"id":"master-gate-valve-2"}
0
LWPOLYLINE
5
11E
330
145
100
AcDbEntity
8
0
62
0
6
CONTINUOUS
100
AcDbPolyline
90
3
70
1
10
25
20
-18
10
0
20
0
10
25
20
18
1001
CONDUITCAD
1000
{"id":"master-gate-valve-3"}
0
ENDBLK
5
151
330
145
100
AcDbEntity
8
0
100
AcDbBlockEnd
0
BLOCK
5
152
330
146
100
AcDbEntity
8
0
100
AcDbBlockBegin
2
CC_WATER_HEATER
70
0
10
0
20
0
30
0
3
CC_WATER_HEATER
1

1001
CONDUITCAD
1000
{"ports":[{"name":"in","x":-45,"y":0,"dx":-1,"dy":0,"medium":"water","role":"connection"},{"name":"out","x":45,"y":0,"dx":1,"dy":0,"medium":"water","role":"connection"}],"symbol":{"name":"Storage wate
1000
r heater","category":"Water","group":"Treatment & distribution","geometryRevision":3,"standardRefs":["PROJECT"],"convention":"Explicit project drafting convention","conformity":"Original master; not s
1000
tandards-certified","normativeEntry":null,"review":{"level":"geometry-and-convention","dimensionalConformance":"not-verified","note":"New independently constructed CAD master with explicit terminal to
1000
pology."},"aliases":["water heater"],"defaultLayer":"Water","labelOffset":67,"extents":{"minX":-45,"minY":-45,"maxX":45,"maxY":45}}}
0
LINE
5
11F
330
146
100
AcDbEntity
8
0
62
0
6
CONTINUOUS
100
AcDbLine
10
-27
20
-18
30
0
11
-27
21
18
31
0
1001
CONDUITCAD
1000
{"id":"master-water-heater-0"}
0
ARC
5
120
330
146
100
AcDbEntity
8
0
62
0
6
CONTINUOUS
100
AcDbCircle
10
0
20
18
30
0
40
27
100
AcDbArc
50
0
51
180
1001
CONDUITCAD
1000
{"id":"master-water-heater-1"}
0
LINE
5
121
330
146
100
AcDbEntity
8
0
62
0
6
CONTINUOUS
100
AcDbLine
10
27
20
18
30
0
11
27
21
-18
31
0
1001
CONDUITCAD
1000
{"id":"master-water-heater-2"}
0
ARC
5
122
330
146
100
AcDbEntity
8
0
62
0
6
CONTINUOUS
100
AcDbCircle
10
0
20
-18
30
0
40
27
100
AcDbArc
50
180
51
360
1001
CONDUITCAD
1000
{"id":"master-water-heater-3"}
0
LINE
5
123
330
146
100
AcDbEntity
8
0
62
0
6
CONTINUOUS
100
AcDbLine
10
-45
20
0
30
0
11
-27
21
0
31
0
1001
CONDUITCAD
1000
{"id":"master-water-heater-4"}
0
LINE
5
124
330
146
100
AcDbEntity
8
0
62
0
6
CONTINUOUS
100
AcDbLine
10
27
20
0
30
0
11
45
21
0
31
0
1001
CONDUITCAD
1000
{"id":"master-water-heater-5"}
0
TEXT
5
125
330
146
100
AcDbEntity
8
0
62
0
6
CONTINUOUS
100
AcDbText
10
0
20
-5
30
0
40
13
1
WH
50
0
41
1
7
STANDARD
72
1
11
0
21
-5
31
0
100
AcDbText
73
0
1001
CONDUITCAD
1000
{"id":"master-water-heater-6"}
0
ENDBLK
5
153
330
146
100
AcDbEntity
8
0
100
AcDbBlockEnd
0
BLOCK
5
154
330
147
100
AcDbEntity
8
0
100
AcDbBlockBegin
2
CC_WATER_TAP
70
0
10
0
20
0
30
0
3
CC_WATER_TAP
1

1001
CONDUITCAD
1000
{"ports":[{"name":"supply","x":-45,"y":0,"dx":-1,"dy":0,"medium":"water","role":"connection"},{"name":"outlet","x":30,"y":-20,"dx":1,"dy":0,"medium":"water","role":"connection"}],"symbol":{"name":"Wat
1000
er draw-off tap","category":"Water","group":"Treatment & distribution","geometryRevision":3,"standardRefs":["PROJECT"],"convention":"Explicit project drafting convention","conformity":"Original master
1000
; not standards-certified","normativeEntry":null,"review":{"level":"geometry-and-convention","dimensionalConformance":"not-verified","note":"New independently constructed CAD master with explicit term
1000
inal topology."},"aliases":["water tap"],"defaultLayer":"Water","labelOffset":48,"extents":{"minX":-45,"minY":-20,"maxX":30,"maxY":20}}}
0
LWPOLYLINE
5
126
330
147
100
AcDbEntity
8
0
62
0
6
CONTINUOUS
100
AcDbPolyline
90
4
70
0
10
-45
20
0
10
8
20
0
10
8
20
-20
10
30
20
-20
1001
CONDUITCAD
1000
{"id":"master-water-tap-0"}
0
LINE
5
127
330
147
100
AcDbEntity
8
0
62
0
6
CONTINUOUS
100
AcDbLine
10
-8
20
0
30
0
11
-8
21
20
31
0
1001
CONDUITCAD
1000
{"id":"master-water-tap-1"}
0
LINE
5
128
330
147
100
AcDbEntity
8
0
62
0
6
CONTINUOUS
100
AcDbLine
10
-20
20
20
30
0
11
4
21
20
31
0
1001
CONDUITCAD
1000
{"id":"master-water-tap-2"}
0
ENDBLK
5
155
330
147
100
AcDbEntity
8
0
100
AcDbBlockEnd
0
ENDSEC
0
SECTION
2
ENTITIES
0
INSERT
5
100
330
141
100
AcDbEntity
8
Water
100
AcDbBlockReference
2
CC_WATER_METER
10
130
20
350
30
0
41
1
42
1
43
1
50
0
66
1
1001
CONDUITCAD
1000
{"id":"e-muhdwsuu-1en","tag":"WM1"}
0
ATTRIB
5
156
330
100
100
AcDbEntity
8
Water
100
AcDbText
10
130
20
302
30
0
40
12
1
WM1
50
0
41
1
7
STANDARD
72
1
11
130
21
302
31
0
100
AcDbAttribute
2
TAG
70
0
74
0
0
SEQEND
5
157
330
100
100
AcDbEntity
8
Water
0
INSERT
5
101
330
141
100
AcDbEntity
8
Water
100
AcDbBlockReference
2
CC_WATER_BACKFLOW
10
320
20
350
30
0
41
1
42
1
43
1
50
0
66
1
1001
CONDUITCAD
1000
{"id":"e-muhdwsuu-1eo","tag":"BFP1"}
0
ATTRIB
5
158
330
101
100
AcDbEntity
8
Water
100
AcDbText
10
320
20
302
30
0
40
12
1
BFP1
50
0
41
1
7
STANDARD
72
1
11
320
21
302
31
0
100
AcDbAttribute
2
TAG
70
0
74
0
0
SEQEND
5
159
330
101
100
AcDbEntity
8
Water
0
INSERT
5
102
330
141
100
AcDbEntity
8
Equipment
100
AcDbBlockReference
2
CC_GATE_VALVE
10
510
20
350
30
0
41
1
42
1
43
1
50
0
66
1
1001
CONDUITCAD
1000
{"id":"e-muhdwsuu-1ep","tag":"HV1"}
0
ATTRIB
5
15A
330
102
100
AcDbEntity
8
Equipment
100
AcDbText
10
510
20
302
30
0
40
12
1
HV1
50
0
41
1
7
STANDARD
72
1
11
510
21
302
31
0
100
AcDbAttribute
2
TAG
70
0
74
0
0
SEQEND
5
15B
330
102
100
AcDbEntity
8
Equipment
0
INSERT
5
103
330
141
100
AcDbEntity
8
Water
100
AcDbBlockReference
2
CC_WATER_HEATER
10
700
20
350
30
0
41
1
42
1
43
1
50
0
66
1
1001
CONDUITCAD
1000
{"id":"e-muhdwsuu-1eq","tag":"WH1"}
0
ATTRIB
5
15C
330
103
100
AcDbEntity
8
Water
100
AcDbText
10
700
20
283
30
0
40
12
1
WH1
50
0
41
1
7
STANDARD
72
1
11
700
21
283
31
0
100
AcDbAttribute
2
TAG
70
0
74
0
0
SEQEND
5
15D
330
103
100
AcDbEntity
8
Water
0
INSERT
5
104
330
141
100
AcDbEntity
8
Water
100
AcDbBlockReference
2
CC_WATER_TAP
10
890
20
350
30
0
41
1
42
1
43
1
50
0
66
1
1001
CONDUITCAD
1000
{"id":"e-muhdwsuu-1er","tag":"TAP1"}
0
ATTRIB
5
15E
330
104
100
AcDbEntity
8
Water
100
AcDbText
10
890
20
302
30
0
40
12
1
TAP1
50
0
41
1
7
STANDARD
72
1
11
890
21
302
31
0
100
AcDbAttribute
2
TAG
70
0
74
0
0
SEQEND
5
15F
330
104
100
AcDbEntity
8
Water
0
LWPOLYLINE
5
105
330
141
100
AcDbEntity
8
Water
62
7
420
2456747
100
AcDbPolyline
90
2
70
0
10
175
20
350
10
275
20
350
1001
CONDUITCAD
1000
{"id":"e-muhdwsuu-1es","connector":{"from":{"entityId":"e-muhdwsuu-1en","port":"out"},"to":{"entityId":"e-muhdwsuu-1eo","port":"in"},"style":"water","arrow":"end","waypoints":[],"status":"routed"},"la
1000
bel":"","dash":[],"width":2}
0
LWPOLYLINE
5
106
330
141
100
AcDbEntity
8
Water
62
7
420
2456747
100
AcDbPolyline
90
2
70
0
10
365
20
350
10
465
20
350
1001
CONDUITCAD
1000
{"id":"e-muhdwsuv-1et","connector":{"from":{"entityId":"e-muhdwsuu-1eo","port":"out"},"to":{"entityId":"e-muhdwsuu-1ep","port":"in"},"style":"water","arrow":"end","waypoints":[],"status":"routed"},"la
1000
bel":"","dash":[],"width":2}
0
LWPOLYLINE
5
107
330
141
100
AcDbEntity
8
Water
62
7
420
2456747
100
AcDbPolyline
90
2
70
0
10
555
20
350
10
655
20
350
1001
CONDUITCAD
1000
{"id":"e-muhdwsuv-1eu","connector":{"from":{"entityId":"e-muhdwsuu-1ep","port":"out"},"to":{"entityId":"e-muhdwsuu-1eq","port":"in"},"style":"water","arrow":"end","waypoints":[],"status":"routed"},"la
1000
bel":"","dash":[],"width":2}
0
LWPOLYLINE
5
108
330
141
100
AcDbEntity
8
Water
62
7
420
11949120
100
AcDbPolyline
90
2
70
0
10
745
20
350
10
845
20
350
1001
CONDUITCAD
1000
{"id":"e-muhdwsuv-1ev","connector":{"from":{"entityId":"e-muhdwsuu-1eq","port":"out"},"to":{"entityId":"e-muhdwsuu-1er","port":"supply"},"style":"hot-water","arrow":"end","waypoints":[],"status":"rout
1000
ed"},"label":"","dash":[],"width":2}
0
TEXT
5
109
330
141
100
AcDbEntity
8
Annotations
100
AcDbText
10
40
20
620
30
0
40
27
1
Building-water supply
50
0
41
1
7
STANDARD
100
AcDbText
73
0
1001
CONDUITCAD
1000
{"id":"e-muhdwsuv-1ew"}
0
TEXT
5
10A
330
141
100
AcDbEntity
8
Annotations
100
AcDbText
10
40
20
584
30
0
40
13
1
Building services  /  Water distribution schematic
50
0
41
1
7
STANDARD
100
AcDbText
73
0
1001
CONDUITCAD
1000
{"id":"e-muhdwsuv-1ex"}
0
LINE
5
10B
330
141
100
AcDbEntity
8
Annotations
100
AcDbLine
10
40
20
562
30
0
11
1120
21
562
31
0
1001
CONDUITCAD
1000
{"id":"e-muhdwsuv-1ey"}
0
TEXT
5
10C
330
141
100
AcDbEntity
8
Annotations
100
AcDbText
10
40
20
42
30
0
40
11
1
CONCEPT SCHEMATIC — NOT FOR CONSTRUCTION
50
0
41
1
7
STANDARD
100
AcDbText
73
0
1001
CONDUITCAD
1000
{"id":"e-muhdwsuv-1ez"}
0
TEXT
5
10D
330
141
100
AcDbEntity
8
Annotations
100
AcDbText
10
650
20
42
30
0
40
11
1
PLUMBING  |  REV 03  |  mm
50
0
41
1
7
STANDARD
100
AcDbText
73
0
1001
CONDUITCAD
1000
{"id":"e-muhdwsuv-1f0"}
0
ENDSEC
0
SECTION
2
OBJECTS
0
DICTIONARY
5
166
330
0
100
AcDbDictionary
281
1
3
ACAD_LAYOUT
350
167
3
ACAD_GROUP
350
168
3
CONDUITCAD_METADATA
350
16B
0
DICTIONARY
5
167
330
166
100
AcDbDictionary
281
1
3
Model
350
169
3
Layout1
350
16A
0
DICTIONARY
5
168
330
166
100
AcDbDictionary
281
1
0
LAYOUT
5
169
330
167
100
AcDbPlotSettings
1

2

4

6

40
0
41
0
42
0
43
0
44
420
45
297
46
0
47
0
48
0
49
0
140
0
141
0
142
1
143
1
70
0
72
1
73
0
74
5
7

75
16
76
0
77
0
78
300
147
1
148
0
149
0
100
AcDbLayout
1
Model
70
1
71
0
10
0
20
0
11
420
21
297
12
0
22
0
32
0
14
0
24
0
34
0
15
420
25
297
35
0
146
0
13
0
23
0
33
0
16
1
26
0
36
0
17
0
27
1
37
0
76
0
330
141
0
LAYOUT
5
16A
330
167
100
AcDbPlotSettings
1

2

4

6

40
0
41
0
42
0
43
0
44
420
45
297
46
0
47
0
48
0
49
0
140
0
141
0
142
1
143
1
70
0
72
1
73
0
74
5
7

75
16
76
0
77
0
78
300
147
1
148
0
149
0
100
AcDbLayout
1
Layout1
70
1
71
1
10
0
20
0
11
420
21
297
12
0
22
0
32
0
14
0
24
0
34
0
15
420
25
297
35
0
146
0
13
0
23
0
33
0
16
1
26
0
36
0
17
0
27
1
37
0
76
0
330
142
0
XRECORD
5
16B
330
166
100
AcDbXrecord
280
1
1
{"parameters":{"grid":"10","pipeWidth":"2","valveSize":"64"},"constraints":[],"metadata":{"author":"","description":"Metering, backflow protection, isolation, heater and draw-off point.","industry":"B
1
uilding services","drawingType":"Water distribution schematic","templateId":"plumbing","standardRefs":["PROJECT"],"geometryRevision":3,"approval":"Concept schematic; engineering approval required"}}
0
ENDSEC
0
EOF
