0
SECTION
2
HEADER
9
$ACADVER
1
AC1024
9
$INSUNITS
70
4
9
$LTSCALE
40
1
9
$MEASUREMENT
70
1
999
CONDUIT:{"parameters":{"grid":"10","pipeWidth":"2","valveSize":"64"},"constraints":[],"metadata":{"author":"","description":"Air preparation, 3/2 valve with spring-rest exhaust, cylinder a
999
CONDUIT:nd exhaust silencer.","industry":"Industrial machinery","drawingType":"Pneumatic circuit","templateId":"pneumatic-clamp","standardRefs":["ISO-1219-1"],"geometryRevision":3,"approva
999
CONDUIT:l":"Concept schematic; engineering approval required"}}
0
ENDSEC
0
SECTION
2
TABLES
0
TABLE
2
LTYPE
5
100
330
0
100
AcDbSymbolTable
70
1
0
LTYPE
5
101
100
AcDbSymbolTableRecord
100
AcDbLinetypeTableRecord
2
CONTINUOUS
70
0
3
Solid line
72
65
73
0
40
0
0
LTYPE
5
102
100
AcDbSymbolTableRecord
100
AcDbLinetypeTableRecord
2
DASHED
70
0
3
DASHED
72
65
73
2
40
12
49
8
74
0
49
-4
74
0
0
LTYPE
5
103
100
AcDbSymbolTableRecord
100
AcDbLinetypeTableRecord
2
CENTER
70
0
3
CENTER
72
65
73
4
40
20
49
12
74
0
49
-3
74
0
49
2
74
0
49
-3
74
0
0
LTYPE
5
104
100
AcDbSymbolTableRecord
100
AcDbLinetypeTableRecord
2
HIDDEN
70
0
3
HIDDEN
72
65
73
2
40
7
49
4
74
0
49
-3
74
0
0
LTYPE
5
105
100
AcDbSymbolTableRecord
100
AcDbLinetypeTableRecord
2
CC_DASH_4_3
70
0
3
CC_DASH_4_3
72
65
73
2
40
7
49
4
74
0
49
-3
74
0
0
LTYPE
5
106
100
AcDbSymbolTableRecord
100
AcDbLinetypeTableRecord
2
CC_DASH_2_3
70
0
3
CC_DASH_2_3
72
65
73
2
40
5
49
2
74
0
49
-3
74
0
0
ENDTAB
0
TABLE
2
LAYER
5
107
330
0
100
AcDbSymbolTable
70
13
0
LAYER
5
108
100
AcDbSymbolTableRecord
100
AcDbLayerTableRecord
2
0
70
0
62
7
420
3426133
6
CONTINUOUS
0
LAYER
5
109
100
AcDbSymbolTableRecord
100
AcDbLayerTableRecord
2
Equipment
70
0
62
7
420
3495011
6
CONTINUOUS
0
LAYER
5
10A
100
AcDbSymbolTableRecord
100
AcDbLayerTableRecord
2
Process
70
0
62
7
420
1342583
6
CONTINUOUS
0
LAYER
5
10B
100
AcDbSymbolTableRecord
100
AcDbLayerTableRecord
2
Instruments
70
0
62
7
420
10187334
6
CONTINUOUS
0
LAYER
5
10C
100
AcDbSymbolTableRecord
100
AcDbLayerTableRecord
2
Electrical
70
0
62
7
420
6584250
6
CONTINUOUS
0
LAYER
5
10D
100
AcDbSymbolTableRecord
100
AcDbLayerTableRecord
2
Annotations
70
0
62
7
420
7438474
6
CONTINUOUS
0
LAYER
5
10E
100
AcDbSymbolTableRecord
100
AcDbLayerTableRecord
2
Hydraulics
70
0
62
7
420
3495011
6
CONTINUOUS
0
LAYER
5
10F
100
AcDbSymbolTableRecord
100
AcDbLayerTableRecord
2
Pneumatics
70
0
62
7
420
3495011
6
CONTINUOUS
0
LAYER
5
110
100
AcDbSymbolTableRecord
100
AcDbLayerTableRecord
2
HVAC
70
0
62
7
420
3495011
6
CONTINUOUS
0
LAYER
5
111
100
AcDbSymbolTableRecord
100
AcDbLayerTableRecord
2
Water
70
0
62
7
420
3495011
6
CONTINUOUS
0
LAYER
5
112
100
AcDbSymbolTableRecord
100
AcDbLayerTableRecord
2
Automation
70
0
62
7
420
3495011
6
CONTINUOUS
0
LAYER
5
113
100
AcDbSymbolTableRecord
100
AcDbLayerTableRecord
2
Fire
70
0
62
7
420
3495011
6
CONTINUOUS
0
LAYER
5
114
100
AcDbSymbolTableRecord
100
AcDbLayerTableRecord
2
Network
70
0
62
7
420
3495011
6
CONTINUOUS
0
ENDTAB
0
TABLE
2
STYLE
5
115
330
0
100
AcDbSymbolTable
70
1
0
STYLE
5
116
100
AcDbSymbolTableRecord
100
AcDbTextStyleTableRecord
2
STANDARD
70
0
40
0
41
1
50
0
71
0
42
2.5
3
txt
4

0
ENDTAB
0
TABLE
2
APPID
5
117
330
0
100
AcDbSymbolTable
70
1
0
APPID
5
118
100
AcDbSymbolTableRecord
100
AcDbRegAppTableRecord
2
CONDUITCAD
70
0
0
ENDTAB
0
TABLE
2
BLOCK_RECORD
5
119
330
0
100
AcDbSymbolTable
70
8
0
BLOCK_RECORD
5
11A
100
AcDbSymbolTableRecord
100
AcDbBlockTableRecord
2
*Model_Space
0
BLOCK_RECORD
5
11B
100
AcDbSymbolTableRecord
100
AcDbBlockTableRecord
2
*Paper_Space
0
BLOCK_RECORD
5
11C
100
AcDbSymbolTableRecord
100
AcDbBlockTableRecord
2
CC_PNEU_COMPRESSOR
0
BLOCK_RECORD
5
11D
100
AcDbSymbolTableRecord
100
AcDbBlockTableRecord
2
CC_PNEU_FILTER
0
BLOCK_RECORD
5
11E
100
AcDbSymbolTableRecord
100
AcDbBlockTableRecord
2
CC_PNEU_REGULATOR
0
BLOCK_RECORD
5
11F
100
AcDbSymbolTableRecord
100
AcDbBlockTableRecord
2
CC_PNEU_VALVE_32
0
BLOCK_RECORD
5
120
100
AcDbSymbolTableRecord
100
AcDbBlockTableRecord
2
CC_PNEU_CYLINDER_SPRING
0
BLOCK_RECORD
5
121
100
AcDbSymbolTableRecord
100
AcDbBlockTableRecord
2
CC_PNEU_SILENCER
0
ENDTAB
0
ENDSEC
0
SECTION
2
BLOCKS
0
BLOCK
5
122
330
11A
100
AcDbEntity
8
0
100
AcDbBlockBegin
2
*Model_Space
70
0
10
0
20
0
30
0
3
*Model_Space
1

1001
CONDUITCAD
1000
{"ports":[]}
0
ENDBLK
5
123
330
11A
100
AcDbEntity
8
0
100
AcDbBlockEnd
0
BLOCK
5
124
330
11B
100
AcDbEntity
8
0
100
AcDbBlockBegin
2
*Paper_Space
70
0
10
0
20
0
30
0
3
*Paper_Space
1

1001
CONDUITCAD
1000
{"ports":[]}
0
ENDBLK
5
125
330
11B
100
AcDbEntity
8
0
100
AcDbBlockEnd
0
BLOCK
5
126
330
11C
100
AcDbEntity
8
0
100
AcDbBlockBegin
2
CC_PNEU_COMPRESSOR
70
0
10
0
20
0
30
0
3
CC_PNEU_COMPRESSOR
1

1001
CONDUITCAD
1000
{"ports":[{"name":"in","x":-45,"y":0,"dx":-1,"dy":0,"medium":"pneumatic","role":"connection"},{"name":"out","x":45,"y":0,"dx":1,"dy":0,"medium":"pneumatic","role":"connection"}],"symbol":{"name":"Air 
1000
compressor","category":"Pneumatics","group":"Sources & drives","energy":"gas/open triangle","geometryRevision":3,"standardRefs":["ISO-1219-1","NFPC-FLUID"],"convention":"ISO-1219-1 / NFPC-FLUID family
1000
","conformity":"Original master; not standards-certified","normativeEntry":null,"review":{"level":"geometry-and-convention","dimensionalConformance":"not-verified","note":"New independently constructe
1000
d CAD master with explicit terminal topology."},"aliases":["pneu compressor"],"defaultLayer":"Pneumatics","labelOffset":48,"extents":{"minX":-45,"minY":-25.970550818758205,"maxX":45,"maxY":25.97055081
1000
8758205}}}
0
CIRCLE
5
127
330
11C
100
AcDbEntity
8
0
62
0
6
CONTINUOUS
100
AcDbCircle
10
0
20
0
30
0
40
26
1001
CONDUITCAD
1000
{"id":"master-pneu-compressor-0"}
0
LINE
5
128
330
11C
100
AcDbEntity
8
0
62
0
6
CONTINUOUS
100
AcDbLine
10
-45
20
0
30
0
11
-26
21
0
31
0
1001
CONDUITCAD
1000
{"id":"master-pneu-compressor-1"}
0
LINE
5
129
330
11C
100
AcDbEntity
8
0
62
0
6
CONTINUOUS
100
AcDbLine
10
26
20
0
30
0
11
45
21
0
31
0
1001
CONDUITCAD
1000
{"id":"master-pneu-compressor-2"}
0
LWPOLYLINE
5
12A
330
11C
100
AcDbEntity
8
0
62
0
6
CONTINUOUS
100
AcDbPolyline
90
3
70
1
10
10
20
-8
10
10
20
8
10
24
20
0
1001
CONDUITCAD
1000
{"id":"master-pneu-compressor-3"}
0
ENDBLK
5
12B
330
11C
100
AcDbEntity
8
0
100
AcDbBlockEnd
0
BLOCK
5
12C
330
11D
100
AcDbEntity
8
0
100
AcDbBlockBegin
2
CC_PNEU_FILTER
70
0
10
0
20
0
30
0
3
CC_PNEU_FILTER
1

1001
CONDUITCAD
1000
{"ports":[{"name":"in","x":-45,"y":0,"dx":-1,"dy":0,"medium":"pneumatic","role":"connection"},{"name":"out","x":45,"y":0,"dx":1,"dy":0,"medium":"pneumatic","role":"connection"}],"symbol":{"name":"Air 
1000
filter","category":"Pneumatics","group":"Conditioning","geometryRevision":3,"standardRefs":["ISO-1219-1","NFPC-FLUID"],"convention":"ISO-1219-1 / NFPC-FLUID family","conformity":"Original master; not 
1000
standards-certified","normativeEntry":null,"review":{"level":"geometry-and-convention","dimensionalConformance":"not-verified","note":"New independently constructed CAD master with explicit terminal t
1000
opology."},"aliases":["pneu filter"],"defaultLayer":"Pneumatics","labelOffset":50,"extents":{"minX":-45,"minY":-28,"maxX":45,"maxY":28}}}
0
LWPOLYLINE
5
12D
330
11D
100
AcDbEntity
8
0
62
0
6
CONTINUOUS
100
AcDbPolyline
90
4
70
1
10
-28
20
0
10
0
20
28
10
28
20
0
10
0
20
-28
1001
CONDUITCAD
1000
{"id":"master-pneu-filter-0"}
0
LINE
5
12E
330
11D
100
AcDbEntity
8
0
62
0
6
CONTINUOUS
100
AcDbLine
10
-45
20
0
30
0
11
-28
21
0
31
0
1001
CONDUITCAD
1000
{"id":"master-pneu-filter-1"}
0
LINE
5
12F
330
11D
100
AcDbEntity
8
0
62
0
6
CONTINUOUS
100
AcDbLine
10
28
20
0
30
0
11
45
21
0
31
0
1001
CONDUITCAD
1000
{"id":"master-pneu-filter-2"}
0
LINE
5
130
330
11D
100
AcDbEntity
8
0
62
0
6
CC_DASH_4_3
100
AcDbLine
10
0
20
-28
30
0
11
0
21
28
31
0
1001
CONDUITCAD
1000
{"id":"master-pneu-filter-3","dash":[4,3]}
0
ENDBLK
5
131
330
11D
100
AcDbEntity
8
0
100
AcDbBlockEnd
0
BLOCK
5
132
330
11E
100
AcDbEntity
8
0
100
AcDbBlockBegin
2
CC_PNEU_REGULATOR
70
0
10
0
20
0
30
0
3
CC_PNEU_REGULATOR
1

1001
CONDUITCAD
1000
{"ports":[{"name":"in","x":-45,"y":0,"dx":-1,"dy":0,"medium":"pneumatic","role":"connection"},{"name":"out","x":45,"y":0,"dx":1,"dy":0,"medium":"pneumatic","role":"connection"}],"symbol":{"name":"Pres
1000
sure regulator","category":"Pneumatics","group":"Conditioning","geometryRevision":3,"standardRefs":["ISO-1219-1","NFPC-FLUID"],"convention":"ISO-1219-1 / NFPC-FLUID family","conformity":"Original mast
1000
er; not standards-certified","normativeEntry":null,"review":{"level":"geometry-and-convention","dimensionalConformance":"not-verified","note":"New independently constructed CAD master with explicit te
1000
rminal topology."},"aliases":["pneu regulator"],"defaultLayer":"Pneumatics","labelOffset":48,"extents":{"minX":-45,"minY":-22,"maxX":45,"maxY":50}}}
0
LWPOLYLINE
5
133
330
11E
100
AcDbEntity
8
0
62
0
6
CONTINUOUS
100
AcDbPolyline
90
4
70
1
10
-22
20
-22
10
22
20
-22
10
22
20
22
10
-22
20
22
1001
CONDUITCAD
1000
{"id":"master-pneu-regulator-0"}
0
LINE
5
134
330
11E
100
AcDbEntity
8
0
62
0
6
CONTINUOUS
100
AcDbLine
10
-45
20
0
30
0
11
-22
21
0
31
0
1001
CONDUITCAD
1000
{"id":"master-pneu-regulator-1"}
0
LINE
5
135
330
11E
100
AcDbEntity
8
0
62
0
6
CONTINUOUS
100
AcDbLine
10
22
20
0
30
0
11
45
21
0
31
0
1001
CONDUITCAD
1000
{"id":"master-pneu-regulator-2"}
0
LINE
5
136
330
11E
100
AcDbEntity
8
0
62
0
6
CONTINUOUS
100
AcDbLine
10
-16
20
0
30
0
11
16
21
0
31
0
1001
CONDUITCAD
1000
{"id":"master-pneu-regulator-3"}
0
LWPOLYLINE
5
137
330
11E
100
AcDbEntity
8
0
62
0
6
CONTINUOUS
100
AcDbPolyline
90
3
70
1
10
16
20
0
10
9
20
3.15
10
9
20
-3.15
1001
CONDUITCAD
1000
{"id":"master-pneu-regulator-4"}
0
LWPOLYLINE
5
138
330
11E
100
AcDbEntity
8
0
62
0
6
CONTINUOUS
100
AcDbPolyline
90
10
70
0
10
0
20
22
10
0
20
24.5
10
6
20
27.25
10
-6
20
30
10
6
20
32.75
10
-6
20
35.5
10
6
20
38.25
10
-6
20
41
10
0
20
44.5
10
0
20
47
1001
CONDUITCAD
1000
{"id":"master-pneu-regulator-5"}
0
LINE
5
139
330
11E
100
AcDbEntity
8
0
62
0
6
CONTINUOUS
100
AcDbLine
10
-15
20
28
30
0
11
15
21
50
31
0
1001
CONDUITCAD
1000
{"id":"master-pneu-regulator-6"}
0
LWPOLYLINE
5
13A
330
11E
100
AcDbEntity
8
0
62
0
6
CONTINUOUS
100
AcDbPolyline
90
3
70
1
10
15
20
50
10
7.49236948858338
20
48.40063009155285
10
11.21796056943674
20
43.320278617661906
1001
CONDUITCAD
1000
{"id":"master-pneu-regulator-7"}
0
ENDBLK
5
13B
330
11E
100
AcDbEntity
8
0
100
AcDbBlockEnd
0
BLOCK
5
13C
330
11F
100
AcDbEntity
8
0
100
AcDbBlockBegin
2
CC_PNEU_VALVE_32
70
0
10
0
20
0
30
0
3
CC_PNEU_VALVE_32
1

1001
CONDUITCAD
1000
{"ports":[{"name":"A","x":12,"y":45,"dx":0,"dy":1,"medium":"pneumatic","role":"connection"},{"name":"P","x":12,"y":-45,"dx":0,"dy":-1,"medium":"pneumatic","role":"connection"},{"name":"R","x":36,"y":-
1000
45,"dx":0,"dy":-1,"medium":"pneumatic","role":"connection"}],"symbol":{"name":"3/2 valve \u00b7 spring-rest exhaust","category":"Pneumatics","group":"Directional valves","positions":2,"workingPorts":3
1000
,"normalState":"P blocked; A to R","geometryRevision":3,"standardRefs":["ISO-1219-1","NFPC-FLUID"],"convention":"ISO-1219-1 / NFPC-FLUID family","conformity":"Original master; not standards-certified"
1000
,"normativeEntry":null,"review":{"level":"geometry-and-convention","dimensionalConformance":"not-verified","note":"New independently constructed CAD master with explicit terminal topology."},"aliases"
1000
:["pneu valve 32"],"defaultLayer":"Pneumatics","labelOffset":67,"extents":{"minX":-68,"minY":-45,"maxX":74,"maxY":45}}}
0
LWPOLYLINE
5
13D
330
11F
100
AcDbEntity
8
0
62
0
6
CONTINUOUS
100
AcDbPolyline
90
4
70
1
10
-48
20
-22
10
0
20
-22
10
0
20
22
10
-48
20
22
1001
CONDUITCAD
1000
{"id":"master-pneu-valve-32-0"}
0
LWPOLYLINE
5
13E
330
11F
100
AcDbEntity
8
0
62
0
6
CONTINUOUS
100
AcDbPolyline
90
4
70
1
10
0
20
-22
10
48
20
-22
10
48
20
22
10
0
20
22
1001
CONDUITCAD
1000
{"id":"master-pneu-valve-32-1"}
0
LWPOLYLINE
5
13F
330
11F
100
AcDbEntity
8
0
62
0
6
CONTINUOUS
100
AcDbPolyline
90
4
70
1
10
-68
20
-18
10
-48
20
-18
10
-48
20
2
10
-68
20
2
1001
CONDUITCAD
1000
{"id":"master-pneu-valve-32-2"}
0
LINE
5
140
330
11F
100
AcDbEntity
8
0
62
0
6
CONTINUOUS
100
AcDbLine
10
-68
20
-18
30
0
11
-48
21
2
31
0
1001
CONDUITCAD
1000
{"id":"master-pneu-valve-32-3"}
0
LWPOLYLINE
5
141
330
11F
100
AcDbEntity
8
0
62
0
6
CONTINUOUS
100
AcDbPolyline
90
10
70
0
10
48
20
0
10
50.6
20
0
10
53.46
20
7
10
56.32
20
-7
10
59.18
20
7
10
62.04
20
-7
10
64.9
20
7
10
67.76
20
-7
10
71.4
20
0
10
74
20
0
1001
CONDUITCAD
1000
{"id":"master-pneu-valve-32-4"}
0
LINE
5
142
330
11F
100
AcDbEntity
8
0
62
0
6
CONTINUOUS
100
AcDbLine
10
12
20
22
30
0
11
12
21
45
31
0
1001
CONDUITCAD
1000
{"id":"master-pneu-valve-32-5"}
0
LINE
5
143
330
11F
100
AcDbEntity
8
0
62
0
6
CONTINUOUS
100
AcDbLine
10
12
20
-22
30
0
11
12
21
-45
31
0
1001
CONDUITCAD
1000
{"id":"master-pneu-valve-32-6"}
0
LINE
5
144
330
11F
100
AcDbEntity
8
0
62
0
6
CONTINUOUS
100
AcDbLine
10
36
20
-22
30
0
11
36
21
-45
31
0
1001
CONDUITCAD
1000
{"id":"master-pneu-valve-32-7"}
0
LINE
5
145
330
11F
100
AcDbEntity
8
0
62
0
6
CONTINUOUS
100
AcDbLine
10
-36
20
-16
30
0
11
-36
21
16
31
0
1001
CONDUITCAD
1000
{"id":"master-pneu-valve-32-8"}
0
LWPOLYLINE
5
146
330
11F
100
AcDbEntity
8
0
62
0
6
CONTINUOUS
100
AcDbPolyline
90
3
70
1
10
-36
20
16
10
-39.15
20
9
10
-32.85
20
9
1001
CONDUITCAD
1000
{"id":"master-pneu-valve-32-9"}
0
LINE
5
147
330
11F
100
AcDbEntity
8
0
62
0
6
CONTINUOUS
100
AcDbLine
10
-12
20
-22
30
0
11
-12
21
-10
31
0
1001
CONDUITCAD
1000
{"id":"master-pneu-valve-32-10"}
0
LINE
5
148
330
11F
100
AcDbEntity
8
0
62
0
6
CONTINUOUS
100
AcDbLine
10
-17
20
-10
30
0
11
-7
21
-10
31
0
1001
CONDUITCAD
1000
{"id":"master-pneu-valve-32-11"}
0
LINE
5
149
330
11F
100
AcDbEntity
8
0
62
0
6
CONTINUOUS
100
AcDbLine
10
12
20
-22
30
0
11
12
21
-12
31
0
1001
CONDUITCAD
1000
{"id":"master-pneu-valve-32-12"}
0
LINE
5
14A
330
11F
100
AcDbEntity
8
0
62
0
6
CONTINUOUS
100
AcDbLine
10
7
20
-12
30
0
11
17
21
-12
31
0
1001
CONDUITCAD
1000
{"id":"master-pneu-valve-32-13"}
0
LINE
5
14B
330
11F
100
AcDbEntity
8
0
62
0
6
CONTINUOUS
100
AcDbLine
10
12
20
17
30
0
11
36
21
-17
31
0
1001
CONDUITCAD
1000
{"id":"master-pneu-valve-32-14"}
0
LWPOLYLINE
5
14C
330
11F
100
AcDbEntity
8
0
62
0
6
CONTINUOUS
100
AcDbPolyline
90
3
70
1
10
36
20
-17
10
34.53666638609341
20
-9.464672884710906
10
29.389768847525414
20
-13.097777029582433
1001
CONDUITCAD
1000
{"id":"master-pneu-valve-32-15"}
0
ENDBLK
5
14D
330
11F
100
AcDbEntity
8
0
100
AcDbBlockEnd
0
BLOCK
5
14E
330
120
100
AcDbEntity
8
0
100
AcDbBlockBegin
2
CC_PNEU_CYLINDER_SPRING
70
0
10
0
20
0
30
0
3
CC_PNEU_CYLINDER_SPRING
1

1001
CONDUITCAD
1000
{"ports":[{"name":"A","x":-23,"y":-45,"dx":0,"dy":-1,"medium":"pneumatic","role":"connection"}],"symbol":{"name":"Single-acting spring-return cylinder","category":"Pneumatics","group":"Actuators","geo
1000
metryRevision":3,"standardRefs":["ISO-1219-1","NFPC-FLUID"],"convention":"ISO-1219-1 / NFPC-FLUID family","conformity":"Original master; not standards-certified","normativeEntry":null,"review":{"level
1000
":"geometry-and-convention","dimensionalConformance":"not-verified","note":"New independently constructed CAD master with explicit terminal topology."},"aliases":["pneu cylinder spring"],"defaultLayer
1000
":"Pneumatics","labelOffset":67,"extents":{"minX":-34,"minY":-45,"maxX":49,"maxY":22}}}
0
LWPOLYLINE
5
14F
330
120
100
AcDbEntity
8
0
62
0
6
CONTINUOUS
100
AcDbPolyline
90
4
70
1
10
-34
20
-22
10
34
20
-22
10
34
20
22
10
-34
20
22
1001
CONDUITCAD
1000
{"id":"master-pneu-cylinder-spring-0"}
0
LINE
5
150
330
120
100
AcDbEntity
8
0
62
0
6
CONTINUOUS
100
AcDbLine
10
-8
20
-22
30
0
11
-8
21
22
31
0
1001
CONDUITCAD
1000
{"id":"master-pneu-cylinder-spring-1"}
0
LINE
5
151
330
120
100
AcDbEntity
8
0
62
0
6
CONTINUOUS
100
AcDbLine
10
-8
20
-5
30
0
11
49
21
-5
31
0
1001
CONDUITCAD
1000
{"id":"master-pneu-cylinder-spring-2"}
0
LINE
5
152
330
120
100
AcDbEntity
8
0
62
0
6
CONTINUOUS
100
AcDbLine
10
49
20
-5
30
0
11
49
21
5
31
0
1001
CONDUITCAD
1000
{"id":"master-pneu-cylinder-spring-3"}
0
LINE
5
153
330
120
100
AcDbEntity
8
0
62
0
6
CONTINUOUS
100
AcDbLine
10
49
20
5
30
0
11
-8
21
5
31
0
1001
CONDUITCAD
1000
{"id":"master-pneu-cylinder-spring-4"}
0
LINE
5
154
330
120
100
AcDbEntity
8
0
62
0
6
CONTINUOUS
100
AcDbLine
10
-23
20
-22
30
0
11
-23
21
-45
31
0
1001
CONDUITCAD
1000
{"id":"master-pneu-cylinder-spring-5"}
0
LWPOLYLINE
5
155
330
120
100
AcDbEntity
8
0
62
0
6
CONTINUOUS
100
AcDbPolyline
90
10
70
0
10
0
20
0
10
2.8000000000000003
20
0
10
5.880000000000001
20
8
10
8.96
20
-8
10
12.040000000000001
20
8
10
15.120000000000001
20
-8
10
18.2
20
8
10
21.28
20
-8
10
25.2
20
0
10
28
20
0
1001
CONDUITCAD
1000
{"id":"master-pneu-cylinder-spring-6"}
0
ENDBLK
5
156
330
120
100
AcDbEntity
8
0
100
AcDbBlockEnd
0
BLOCK
5
157
330
121
100
AcDbEntity
8
0
100
AcDbBlockBegin
2
CC_PNEU_SILENCER
70
0
10
0
20
0
30
0
3
CC_PNEU_SILENCER
1

1001
CONDUITCAD
1000
{"ports":[{"name":"exhaust","x":0,"y":45,"dx":0,"dy":1,"medium":"pneumatic","role":"connection"}],"symbol":{"name":"Exhaust silencer","category":"Pneumatics","group":"Connections","geometryRevision":3
1000
,"standardRefs":["ISO-1219-1","NFPC-FLUID"],"convention":"ISO-1219-1 / NFPC-FLUID family","conformity":"Original master; not standards-certified","normativeEntry":null,"review":{"level":"geometry-and-
1000
convention","dimensionalConformance":"not-verified","note":"New independently constructed CAD master with explicit terminal topology."},"aliases":["pneu silencer"],"defaultLayer":"Pneumatics","labelOf
1000
fset":48,"extents":{"minX":-16,"minY":-18,"maxX":16,"maxY":45}}}
0
LINE
5
158
330
121
100
AcDbEntity
8
0
62
0
6
CONTINUOUS
100
AcDbLine
10
0
20
45
30
0
11
0
21
18
31
0
1001
CONDUITCAD
1000
{"id":"master-pneu-silencer-0"}
0
LWPOLYLINE
5
159
330
121
100
AcDbEntity
8
0
62
0
6
CONTINUOUS
100
AcDbPolyline
90
4
70
1
10
-16
20
-18
10
16
20
-18
10
16
20
18
10
-16
20
18
1001
CONDUITCAD
1000
{"id":"master-pneu-silencer-1"}
0
LINE
5
15A
330
121
100
AcDbEntity
8
0
62
0
6
CC_DASH_2_3
100
AcDbLine
10
-10
20
-14
30
0
11
-10
21
14
31
0
1001
CONDUITCAD
1000
{"id":"master-pneu-silencer-2","dash":[2,3]}
0
LINE
5
15B
330
121
100
AcDbEntity
8
0
62
0
6
CC_DASH_2_3
100
AcDbLine
10
0
20
-14
30
0
11
0
21
14
31
0
1001
CONDUITCAD
1000
{"id":"master-pneu-silencer-3","dash":[2,3]}
0
LINE
5
15C
330
121
100
AcDbEntity
8
0
62
0
6
CC_DASH_2_3
100
AcDbLine
10
10
20
-14
30
0
11
10
21
14
31
0
1001
CONDUITCAD
1000
{"id":"master-pneu-silencer-4","dash":[2,3]}
0
ENDBLK
5
15D
330
121
100
AcDbEntity
8
0
100
AcDbBlockEnd
0
ENDSEC
0
SECTION
2
ENTITIES
0
INSERT
5
15E
330
11A
100
AcDbEntity
8
Pneumatics
100
AcDbBlockReference
2
CC_PNEU_COMPRESSOR
10
120
20
300
30
0
41
1
42
1
43
1
50
0
66
1
1001
CONDUITCAD
1000
{"id":"e-mugr5p5z-1cl","tag":"AIR"}
0
ATTRIB
5
15F
330
11A
100
AcDbEntity
8
Pneumatics
100
AcDbText
10
120
20
252
30
0
40
12
1
AIR
50
0
41
1
7
STANDARD
72
1
11
120
21
252
31
0
100
AcDbAttribute
2
TAG
70
0
74
0
0
SEQEND
5
160
100
AcDbEntity
8
Pneumatics
0
INSERT
5
161
330
11A
100
AcDbEntity
8
Pneumatics
100
AcDbBlockReference
2
CC_PNEU_FILTER
10
310
20
300
30
0
41
1
42
1
43
1
50
0
66
1
1001
CONDUITCAD
1000
{"id":"e-mugr5p5z-1cm","tag":"F1"}
0
ATTRIB
5
162
330
11A
100
AcDbEntity
8
Pneumatics
100
AcDbText
10
310
20
250
30
0
40
12
1
F1
50
0
41
1
7
STANDARD
72
1
11
310
21
250
31
0
100
AcDbAttribute
2
TAG
70
0
74
0
0
SEQEND
5
163
100
AcDbEntity
8
Pneumatics
0
INSERT
5
164
330
11A
100
AcDbEntity
8
Pneumatics
100
AcDbBlockReference
2
CC_PNEU_REGULATOR
10
500
20
300
30
0
41
1
42
1
43
1
50
0
66
1
1001
CONDUITCAD
1000
{"id":"e-mugr5p5z-1cn","tag":"PR1"}
0
ATTRIB
5
165
330
11A
100
AcDbEntity
8
Pneumatics
100
AcDbText
10
500
20
252
30
0
40
12
1
PR1
50
0
41
1
7
STANDARD
72
1
11
500
21
252
31
0
100
AcDbAttribute
2
TAG
70
0
74
0
0
SEQEND
5
166
100
AcDbEntity
8
Pneumatics
0
INSERT
5
167
330
11A
100
AcDbEntity
8
Pneumatics
100
AcDbBlockReference
2
CC_PNEU_VALVE_32
10
760
20
280
30
0
41
1
42
1
43
1
50
0
66
1
1001
CONDUITCAD
1000
{"id":"e-mugr5p5z-1co","tag":"V1"}
0
ATTRIB
5
168
330
11A
100
AcDbEntity
8
Pneumatics
100
AcDbText
10
760
20
213
30
0
40
12
1
V1
50
0
41
1
7
STANDARD
72
1
11
760
21
213
31
0
100
AcDbAttribute
2
TAG
70
0
74
0
0
SEQEND
5
169
100
AcDbEntity
8
Pneumatics
0
INSERT
5
16A
330
11A
100
AcDbEntity
8
Pneumatics
100
AcDbBlockReference
2
CC_PNEU_CYLINDER_SPRING
10
760
20
470
30
0
41
1
42
1
43
1
50
0
66
1
1001
CONDUITCAD
1000
{"id":"e-mugr5p5z-1cp","tag":"A1"}
0
ATTRIB
5
16B
330
11A
100
AcDbEntity
8
Pneumatics
100
AcDbText
10
760
20
403
30
0
40
12
1
A1
50
0
41
1
7
STANDARD
72
1
11
760
21
403
31
0
100
AcDbAttribute
2
TAG
70
0
74
0
0
SEQEND
5
16C
100
AcDbEntity
8
Pneumatics
0
INSERT
5
16D
330
11A
100
AcDbEntity
8
Pneumatics
100
AcDbBlockReference
2
CC_PNEU_SILENCER
10
930
20
130
30
0
41
1
42
1
43
1
50
0
66
1
1001
CONDUITCAD
1000
{"id":"e-mugr5p5z-1cq","tag":"EXH"}
0
ATTRIB
5
16E
330
11A
100
AcDbEntity
8
Pneumatics
100
AcDbText
10
930
20
82
30
0
40
12
1
EXH
50
0
41
1
7
STANDARD
72
1
11
930
21
82
31
0
100
AcDbAttribute
2
TAG
70
0
74
0
0
SEQEND
5
16F
100
AcDbEntity
8
Pneumatics
0
LWPOLYLINE
5
170
330
11A
100
AcDbEntity
8
Pneumatics
62
7
420
5409920
100
AcDbPolyline
90
2
70
0
10
165
20
300
10
265
20
300
1001
CONDUITCAD
1000
{"id":"e-mugr5p5z-1cr","connector":{"from":{"entityId":"e-mugr5p5z-1cl","port":"out"},"to":{"entityId":"e-mugr5p5z-1cm","port":"in"},"style":"air-power","arrow":"none","waypoints":[],"status":"routed"
1000
},"label":"","dash":[],"width":1.8}
0
LWPOLYLINE
5
171
330
11A
100
AcDbEntity
8
Pneumatics
62
7
420
5409920
100
AcDbPolyline
90
2
70
0
10
355
20
300
10
455
20
300
1001
CONDUITCAD
1000
{"id":"e-mugr5p5z-1cs","connector":{"from":{"entityId":"e-mugr5p5z-1cm","port":"out"},"to":{"entityId":"e-mugr5p5z-1cn","port":"in"},"style":"air-power","arrow":"none","waypoints":[],"status":"routed"
1000
},"label":"","dash":[],"width":1.8}
0
LWPOLYLINE
5
172
330
11A
100
AcDbEntity
8
Pneumatics
62
7
420
5409920
100
AcDbPolyline
90
5
70
0
10
545
20
300
10
563
20
300
10
563
20
217
10
772
20
217
10
772
20
235
1001
CONDUITCAD
1000
{"id":"e-mugr5p5z-1ct","connector":{"from":{"entityId":"e-mugr5p5z-1cn","port":"out"},"to":{"entityId":"e-mugr5p5z-1co","port":"P"},"style":"air-power","arrow":"none","waypoints":[],"status":"routed"}
1000
,"label":"","dash":[],"width":1.8}
0
LWPOLYLINE
5
173
330
11A
100
AcDbEntity
8
Pneumatics
62
7
420
5409920
100
AcDbPolyline
90
4
70
0
10
772
20
325
10
772
20
343
10
737
20
343
10
737
20
425
1001
CONDUITCAD
1000
{"id":"e-mugr5p5z-1cu","connector":{"from":{"entityId":"e-mugr5p5z-1co","port":"A"},"to":{"entityId":"e-mugr5p5z-1cp","port":"A"},"style":"air-power","arrow":"none","waypoints":[],"status":"routed"},"
1000
label":"","dash":[],"width":1.8}
0
LWPOLYLINE
5
174
330
11A
100
AcDbEntity
8
Pneumatics
62
7
420
5409920
100
AcDbPolyline
90
4
70
0
10
796
20
235
10
796
20
217
10
930
20
217
10
930
20
175
1001
CONDUITCAD
1000
{"id":"e-mugr5p5z-1cv","connector":{"from":{"entityId":"e-mugr5p5z-1co","port":"R"},"to":{"entityId":"e-mugr5p5z-1cq","port":"exhaust"},"style":"air-power","arrow":"none","waypoints":[],"status":"rout
1000
ed"},"label":"","dash":[],"width":1.8}
0
TEXT
5
175
330
11A
100
AcDbEntity
8
Annotations
100
AcDbText
10
40
20
620
30
0
40
27
1
Pneumatic spring-return actuator
50
0
41
1
7
STANDARD
100
AcDbText
73
0
1001
CONDUITCAD
1000
{"id":"e-mugr5p5z-1cw"}
0
TEXT
5
176
330
11A
100
AcDbEntity
8
Annotations
100
AcDbText
10
40
20
584
30
0
40
13
1
Industrial machinery  /  Pneumatic circuit
50
0
41
1
7
STANDARD
100
AcDbText
73
0
1001
CONDUITCAD
1000
{"id":"e-mugr5p5z-1cx"}
0
LINE
5
177
330
11A
100
AcDbEntity
8
Annotations
100
AcDbLine
10
40
20
562
30
0
11
1120
21
562
31
0
1001
CONDUITCAD
1000
{"id":"e-mugr5p5z-1cy"}
0
TEXT
5
178
330
11A
100
AcDbEntity
8
Annotations
100
AcDbText
10
40
20
42
30
0
40
11
1
CONCEPT SCHEMATIC — NOT FOR CONSTRUCTION
50
0
41
1
7
STANDARD
100
AcDbText
73
0
1001
CONDUITCAD
1000
{"id":"e-mugr5p5z-1cz"}
0
TEXT
5
179
330
11A
100
AcDbEntity
8
Annotations
100
AcDbText
10
650
20
42
30
0
40
11
1
PNEUMATIC-CLAMP  |  REV 03  |  mm
50
0
41
1
7
STANDARD
100
AcDbText
73
0
1001
CONDUITCAD
1000
{"id":"e-mugr5p5z-1d0"}
0
ENDSEC
0
EOF
