0
SECTION
2
HEADER
9
$ACADVER
1
AC1024
9
$INSUNITS
70
4
9
$LTSCALE
40
1
9
$MEASUREMENT
70
1
999
CONDUIT:{"parameters":{"grid":"10","pipeWidth":"2","valveSize":"64"},"constraints":[],"metadata":{"author":"","description":"Source, breaker, transformer, measurement and load with explici
999
CONDUIT:t single-line symbols.","industry":"Power & energy","drawingType":"Single-line diagram","templateId":"power-single-line","standardRefs":["IEC-60617"],"geometryRevision":3,"approval
999
CONDUIT:":"Concept schematic; engineering approval required"}}
9
$HANDSEED
5
16C
9
$DWGCODEPAGE
3
ANSI_1252
9
$CLAYER
8
0
9
$TILEMODE
70
1
0
ENDSEC
0
SECTION
2
TABLES
0
TABLE
2
LTYPE
5
129
330
0
100
AcDbSymbolTable
70
4
0
LTYPE
5
12A
100
AcDbSymbolTableRecord
100
AcDbLinetypeTableRecord
2
CONTINUOUS
70
0
3
Solid line
72
65
73
0
40
0
330
129
0
LTYPE
5
12B
100
AcDbSymbolTableRecord
100
AcDbLinetypeTableRecord
2
DASHED
70
0
3
DASHED
72
65
73
2
40
12
49
8
74
0
49
-4
74
0
330
129
0
LTYPE
5
12C
100
AcDbSymbolTableRecord
100
AcDbLinetypeTableRecord
2
CENTER
70
0
3
CENTER
72
65
73
4
40
20
49
12
74
0
49
-3
74
0
49
2
74
0
49
-3
74
0
330
129
0
LTYPE
5
12D
100
AcDbSymbolTableRecord
100
AcDbLinetypeTableRecord
2
HIDDEN
70
0
3
HIDDEN
72
65
73
2
40
7
49
4
74
0
49
-3
74
0
330
129
0
ENDTAB
0
TABLE
2
LAYER
5
12E
330
0
100
AcDbSymbolTable
70
13
0
LAYER
5
12F
100
AcDbSymbolTableRecord
100
AcDbLayerTableRecord
2
0
70
0
62
7
420
3426133
6
CONTINUOUS
330
12E
0
LAYER
5
130
100
AcDbSymbolTableRecord
100
AcDbLayerTableRecord
2
Equipment
70
0
62
7
420
3495011
6
CONTINUOUS
330
12E
0
LAYER
5
131
100
AcDbSymbolTableRecord
100
AcDbLayerTableRecord
2
Process
70
0
62
7
420
1342583
6
CONTINUOUS
330
12E
0
LAYER
5
132
100
AcDbSymbolTableRecord
100
AcDbLayerTableRecord
2
Instruments
70
0
62
7
420
10187334
6
CONTINUOUS
330
12E
0
LAYER
5
133
100
AcDbSymbolTableRecord
100
AcDbLayerTableRecord
2
Electrical
70
0
62
7
420
6584250
6
CONTINUOUS
330
12E
0
LAYER
5
134
100
AcDbSymbolTableRecord
100
AcDbLayerTableRecord
2
Annotations
70
0
62
7
420
7438474
6
CONTINUOUS
330
12E
0
LAYER
5
135
100
AcDbSymbolTableRecord
100
AcDbLayerTableRecord
2
Hydraulics
70
0
62
7
420
3495011
6
CONTINUOUS
330
12E
0
LAYER
5
136
100
AcDbSymbolTableRecord
100
AcDbLayerTableRecord
2
Pneumatics
70
0
62
7
420
3495011
6
CONTINUOUS
330
12E
0
LAYER
5
137
100
AcDbSymbolTableRecord
100
AcDbLayerTableRecord
2
HVAC
70
0
62
7
420
3495011
6
CONTINUOUS
330
12E
0
LAYER
5
138
100
AcDbSymbolTableRecord
100
AcDbLayerTableRecord
2
Water
70
0
62
7
420
3495011
6
CONTINUOUS
330
12E
0
LAYER
5
139
100
AcDbSymbolTableRecord
100
AcDbLayerTableRecord
2
Automation
70
0
62
7
420
3495011
6
CONTINUOUS
330
12E
0
LAYER
5
13A
100
AcDbSymbolTableRecord
100
AcDbLayerTableRecord
2
Fire
70
0
62
7
420
3495011
6
CONTINUOUS
330
12E
0
LAYER
5
13B
100
AcDbSymbolTableRecord
100
AcDbLayerTableRecord
2
Network
70
0
62
7
420
3495011
6
CONTINUOUS
330
12E
0
ENDTAB
0
TABLE
2
STYLE
5
13C
330
0
100
AcDbSymbolTable
70
1
0
STYLE
5
13D
100
AcDbSymbolTableRecord
100
AcDbTextStyleTableRecord
2
STANDARD
70
0
40
0
41
1
50
0
71
0
42
2.5
3
txt
4

330
13C
0
ENDTAB
0
TABLE
2
APPID
5
13E
330
0
100
AcDbSymbolTable
70
2
0
APPID
5
13F
100
AcDbSymbolTableRecord
100
AcDbRegAppTableRecord
2
CONDUITCAD
70
0
330
13E
0
APPID
5
165
100
AcDbSymbolTableRecord
100
AcDbRegAppTableRecord
2
ACAD
70
0
330
13E
0
ENDTAB
0
TABLE
2
BLOCK_RECORD
5
140
330
0
100
AcDbSymbolTable
70
7
0
BLOCK_RECORD
5
141
100
AcDbSymbolTableRecord
100
AcDbBlockTableRecord
2
*Model_Space
340
169
330
140
0
BLOCK_RECORD
5
142
100
AcDbSymbolTableRecord
100
AcDbBlockTableRecord
2
*Paper_Space
340
16A
330
140
0
BLOCK_RECORD
5
143
100
AcDbSymbolTableRecord
100
AcDbBlockTableRecord
2
CC_GENERATOR
330
140
0
BLOCK_RECORD
5
144
100
AcDbSymbolTableRecord
100
AcDbBlockTableRecord
2
CC_CIRCUIT_BREAKER
330
140
0
BLOCK_RECORD
5
145
100
AcDbSymbolTableRecord
100
AcDbBlockTableRecord
2
CC_TRANSFORMER
330
140
0
BLOCK_RECORD
5
146
100
AcDbSymbolTableRecord
100
AcDbBlockTableRecord
2
CC_AMMETER
330
140
0
BLOCK_RECORD
5
147
100
AcDbSymbolTableRecord
100
AcDbBlockTableRecord
2
CC_THREE_PHASE_MOTOR
330
140
0
ENDTAB
0
TABLE
2
VPORT
5
160
330
0
100
AcDbSymbolTable
70
0
0
ENDTAB
0
TABLE
2
VIEW
5
161
330
0
100
AcDbSymbolTable
70
0
0
ENDTAB
0
TABLE
2
UCS
5
162
330
0
100
AcDbSymbolTable
70
0
0
ENDTAB
0
TABLE
2
DIMSTYLE
5
163
330
0
100
AcDbSymbolTable
70
1
100
AcDbDimStyleTable
71
0
0
DIMSTYLE
105
164
330
163
100
AcDbSymbolTableRecord
100
AcDbDimStyleTableRecord
2
STANDARD
70
0
340
13D
0
ENDTAB
0
ENDSEC
0
SECTION
2
BLOCKS
0
BLOCK
5
148
330
141
100
AcDbEntity
8
0
100
AcDbBlockBegin
2
*Model_Space
70
1
10
0
20
0
30
0
3
*Model_Space
1

1001
CONDUITCAD
1000
{"ports":[]}
0
ENDBLK
5
149
330
141
100
AcDbEntity
8
0
100
AcDbBlockEnd
0
BLOCK
5
14A
330
142
100
AcDbEntity
8
0
100
AcDbBlockBegin
2
*Paper_Space
70
1
10
0
20
0
30
0
3
*Paper_Space
1

1001
CONDUITCAD
1000
{"ports":[]}
0
ENDBLK
5
14B
330
142
100
AcDbEntity
8
0
100
AcDbBlockEnd
0
BLOCK
5
14C
330
143
100
AcDbEntity
8
0
100
AcDbBlockBegin
2
CC_GENERATOR
70
0
10
0
20
0
30
0
3
CC_GENERATOR
1

1001
CONDUITCAD
1000
{"ports":[{"name":"in","x":-45,"y":0,"dx":-1,"dy":0,"medium":"electrical","role":"connection"},{"name":"out","x":45,"y":0,"dx":1,"dy":0,"medium":"electrical","role":"connection"},{"name":"top","x":0,"
1000
y":45,"dx":0,"dy":1,"medium":"electrical","role":"connection"},{"name":"bottom","x":0,"y":-45,"dx":0,"dy":-1,"medium":"electrical","role":"connection"}],"symbol":{"name":"Generator","category":"Electr
1000
ical","labelOffset":67,"geometryRevision":3,"convention":"IEC-60617 family","conformity":"Original master; not standards-certified","standardRefs":["IEC-60617"],"normativeEntry":null,"review":{"level"
1000
:"geometry-and-convention","dimensionalConformance":"not-verified","note":"Reviewed: silhouette, terminal positions, normal state and distinct function retained."},"group":"Components","aliases":["gen
1000
erator"],"defaultLayer":"Electrical","extents":{"minX":-45,"minY":-45,"maxX":45,"maxY":45}}}
0
LINE
5
10E
330
143
100
AcDbEntity
8
0
62
0
6
CONTINUOUS
100
AcDbLine
10
-45
20
0
30
0
11
-29
21
0
31
0
1001
CONDUITCAD
1000
{"id":"master-generator-0"}
0
LINE
5
10F
330
143
100
AcDbEntity
8
0
62
0
6
CONTINUOUS
100
AcDbLine
10
29
20
0
30
0
11
45
21
0
31
0
1001
CONDUITCAD
1000
{"id":"master-generator-1"}
0
LINE
5
110
330
143
100
AcDbEntity
8
0
62
0
6
CONTINUOUS
100
AcDbLine
10
0
20
29
30
0
11
0
21
45
31
0
1001
CONDUITCAD
1000
{"id":"master-generator-2"}
0
LINE
5
111
330
143
100
AcDbEntity
8
0
62
0
6
CONTINUOUS
100
AcDbLine
10
0
20
-29
30
0
11
0
21
-45
31
0
1001
CONDUITCAD
1000
{"id":"master-generator-3"}
0
CIRCLE
5
112
330
143
100
AcDbEntity
8
0
62
0
6
CONTINUOUS
100
AcDbCircle
10
0
20
0
30
0
40
29
1001
CONDUITCAD
1000
{"id":"master-generator-4"}
0
TEXT
5
113
330
143
100
AcDbEntity
8
0
62
0
6
CONTINUOUS
100
AcDbText
10
0
20
-7
30
0
40
22
1
G
50
0
41
1
7
STANDARD
72
1
11
0
21
-7
31
0
100
AcDbText
73
0
1001
CONDUITCAD
1000
{"id":"master-generator-5"}
0
ENDBLK
5
14D
330
143
100
AcDbEntity
8
0
100
AcDbBlockEnd
0
BLOCK
5
14E
330
144
100
AcDbEntity
8
0
100
AcDbBlockBegin
2
CC_CIRCUIT_BREAKER
70
0
10
0
20
0
30
0
3
CC_CIRCUIT_BREAKER
1

1001
CONDUITCAD
1000
{"ports":[{"name":"in","x":-45,"y":0,"dx":-1,"dy":0,"medium":"electrical","role":"connection"},{"name":"out","x":45,"y":0,"dx":1,"dy":0,"medium":"electrical","role":"connection"}],"symbol":{"name":"Ci
1000
rcuit breaker \u00b7 single-line","category":"Electrical","group":"Power & protection","geometryRevision":3,"standardRefs":["IEC-60617"],"convention":"IEC-60617 family","conformity":"Original master; 
1000
not standards-certified","normativeEntry":null,"review":{"level":"geometry-and-convention","dimensionalConformance":"not-verified","note":"New independently constructed CAD master with explicit termin
1000
al topology."},"aliases":["circuit breaker"],"defaultLayer":"Electrical","labelOffset":48,"extents":{"minX":-45,"minY":-17,"maxX":45,"maxY":20}}}
0
LINE
5
114
330
144
100
AcDbEntity
8
0
62
0
6
CONTINUOUS
100
AcDbLine
10
-45
20
0
30
0
11
-18
21
0
31
0
1001
CONDUITCAD
1000
{"id":"master-circuit-breaker-0"}
0
LINE
5
115
330
144
100
AcDbEntity
8
0
62
0
6
CONTINUOUS
100
AcDbLine
10
18
20
0
30
0
11
45
21
0
31
0
1001
CONDUITCAD
1000
{"id":"master-circuit-breaker-1"}
0
CIRCLE
5
116
330
144
100
AcDbEntity
8
0
62
0
6
CONTINUOUS
100
AcDbCircle
10
-18
20
0
30
0
40
2
1001
CONDUITCAD
1000
{"id":"master-circuit-breaker-2"}
0
CIRCLE
5
117
330
144
100
AcDbEntity
8
0
62
0
6
CONTINUOUS
100
AcDbCircle
10
18
20
0
30
0
40
2
1001
CONDUITCAD
1000
{"id":"master-circuit-breaker-3"}
0
LINE
5
118
330
144
100
AcDbEntity
8
0
62
0
6
CONTINUOUS
100
AcDbLine
10
-18
20
0
30
0
11
13
21
20
31
0
1001
CONDUITCAD
1000
{"id":"master-circuit-breaker-4"}
0
LWPOLYLINE
5
119
330
144
100
AcDbEntity
8
0
62
0
6
CONTINUOUS
100
AcDbPolyline
90
4
70
0
10
-7
20
-8
10
-7
20
-17
10
8
20
-17
10
8
20
-8
1001
CONDUITCAD
1000
{"id":"master-circuit-breaker-5"}
0
ENDBLK
5
14F
330
144
100
AcDbEntity
8
0
100
AcDbBlockEnd
0
BLOCK
5
150
330
145
100
AcDbEntity
8
0
100
AcDbBlockBegin
2
CC_TRANSFORMER
70
0
10
0
20
0
30
0
3
CC_TRANSFORMER
1

1001
CONDUITCAD
1000
{"ports":[{"name":"in","x":-45,"y":0,"dx":-1,"dy":0,"medium":"electrical","role":"connection"},{"name":"out","x":45,"y":0,"dx":1,"dy":0,"medium":"electrical","role":"connection"}],"symbol":{"name":"Tr
1000
ansformer","category":"Electrical","labelOffset":48,"geometryRevision":3,"convention":"IEC-60617 family","conformity":"Original master; not standards-certified","representation":"single-line","aliases
1000
":["single line transformer","power transformer","transformer"],"standardRefs":["IEC-60617"],"normativeEntry":null,"review":{"level":"geometry-and-convention","dimensionalConformance":"not-verified","
1000
note":"Single-line transformer form uses intersecting winding circles, not circles mixed with a two-winding core schematic."},"group":"Components","defaultLayer":"Electrical","extents":{"minX":-45,"mi
1000
nY":-17.992659470907405,"maxX":45,"maxY":17.992659470907405}}}
0
LINE
5
11A
330
145
100
AcDbEntity
8
0
62
0
6
CONTINUOUS
100
AcDbLine
10
-45
20
0
30
0
11
-32
21
0
31
0
1001
CONDUITCAD
1000
{"id":"master-transformer-0"}
0
LINE
5
11B
330
145
100
AcDbEntity
8
0
62
0
6
CONTINUOUS
100
AcDbLine
10
32
20
0
30
0
11
45
21
0
31
0
1001
CONDUITCAD
1000
{"id":"master-transformer-1"}
0
CIRCLE
5
11C
330
145
100
AcDbEntity
8
0
62
0
6
CONTINUOUS
100
AcDbCircle
10
-14
20
0
30
0
40
18
1001
CONDUITCAD
1000
{"id":"master-transformer-2"}
0
CIRCLE
5
11D
330
145
100
AcDbEntity
8
0
62
0
6
CONTINUOUS
100
AcDbCircle
10
14
20
0
30
0
40
18
1001
CONDUITCAD
1000
{"id":"master-transformer-3"}
0
ENDBLK
5
151
330
145
100
AcDbEntity
8
0
100
AcDbBlockEnd
0
BLOCK
5
152
330
146
100
AcDbEntity
8
0
100
AcDbBlockBegin
2
CC_AMMETER
70
0
10
0
20
0
30
0
3
CC_AMMETER
1

1001
CONDUITCAD
1000
{"ports":[{"name":"in","x":-45,"y":0,"dx":-1,"dy":0,"medium":"electrical","role":"connection"},{"name":"out","x":45,"y":0,"dx":1,"dy":0,"medium":"electrical","role":"connection"}],"symbol":{"name":"Am
1000
meter","category":"Electrical","group":"Meters","geometryRevision":3,"standardRefs":["IEC-60617"],"convention":"IEC-60617 family","conformity":"Original master; not standards-certified","normativeEntr
1000
y":null,"review":{"level":"geometry-and-convention","dimensionalConformance":"not-verified","note":"New independently constructed CAD master with explicit terminal topology."},"aliases":["ammeter"],"d
1000
efaultLayer":"Electrical","labelOffset":48,"extents":{"minX":-45,"minY":-25.970550818758205,"maxX":45,"maxY":25.970550818758205}}}
0
LINE
5
11E
330
146
100
AcDbEntity
8
0
62
0
6
CONTINUOUS
100
AcDbLine
10
-45
20
0
30
0
11
-26
21
0
31
0
1001
CONDUITCAD
1000
{"id":"master-ammeter-0"}
0
LINE
5
11F
330
146
100
AcDbEntity
8
0
62
0
6
CONTINUOUS
100
AcDbLine
10
26
20
0
30
0
11
45
21
0
31
0
1001
CONDUITCAD
1000
{"id":"master-ammeter-1"}
0
CIRCLE
5
120
330
146
100
AcDbEntity
8
0
62
0
6
CONTINUOUS
100
AcDbCircle
10
0
20
0
30
0
40
26
1001
CONDUITCAD
1000
{"id":"master-ammeter-2"}
0
TEXT
5
121
330
146
100
AcDbEntity
8
0
62
0
6
CONTINUOUS
100
AcDbText
10
0
20
-7
30
0
40
20
1
A
50
0
41
1
7
STANDARD
72
1
11
0
21
-7
31
0
100
AcDbText
73
0
1001
CONDUITCAD
1000
{"id":"master-ammeter-3"}
0
ENDBLK
5
153
330
146
100
AcDbEntity
8
0
100
AcDbBlockEnd
0
BLOCK
5
154
330
147
100
AcDbEntity
8
0
100
AcDbBlockBegin
2
CC_THREE_PHASE_MOTOR
70
0
10
0
20
0
30
0
3
CC_THREE_PHASE_MOTOR
1

1001
CONDUITCAD
1000
{"ports":[{"name":"in","x":-45,"y":0,"dx":-1,"dy":0,"medium":"electrical","role":"connection"},{"name":"out","x":45,"y":0,"dx":1,"dy":0,"medium":"electrical","role":"connection"},{"name":"top","x":0,"
1000
y":45,"dx":0,"dy":1,"medium":"electrical","role":"connection"},{"name":"bottom","x":0,"y":-45,"dx":0,"dy":-1,"medium":"electrical","role":"connection"}],"symbol":{"name":"Motor \u00b7 three-phase","ca
1000
tegory":"Electrical","group":"Power & protection","geometryRevision":3,"standardRefs":["IEC-60617"],"convention":"IEC-60617 family","conformity":"Original master; not standards-certified","normativeEn
1000
try":null,"review":{"level":"geometry-and-convention","dimensionalConformance":"not-verified","note":"New independently constructed CAD master with explicit terminal topology."},"aliases":["three phas
1000
e motor"],"defaultLayer":"Electrical","labelOffset":67,"extents":{"minX":-45,"minY":-45,"maxX":45,"maxY":45}}}
0
LINE
5
122
330
147
100
AcDbEntity
8
0
62
0
6
CONTINUOUS
100
AcDbLine
10
-45
20
0
30
0
11
-29
21
0
31
0
1001
CONDUITCAD
1000
{"id":"master-three-phase-motor-0"}
0
LINE
5
123
330
147
100
AcDbEntity
8
0
62
0
6
CONTINUOUS
100
AcDbLine
10
29
20
0
30
0
11
45
21
0
31
0
1001
CONDUITCAD
1000
{"id":"master-three-phase-motor-1"}
0
LINE
5
124
330
147
100
AcDbEntity
8
0
62
0
6
CONTINUOUS
100
AcDbLine
10
0
20
29
30
0
11
0
21
45
31
0
1001
CONDUITCAD
1000
{"id":"master-three-phase-motor-2"}
0
LINE
5
125
330
147
100
AcDbEntity
8
0
62
0
6
CONTINUOUS
100
AcDbLine
10
0
20
-29
30
0
11
0
21
-45
31
0
1001
CONDUITCAD
1000
{"id":"master-three-phase-motor-3"}
0
CIRCLE
5
126
330
147
100
AcDbEntity
8
0
62
0
6
CONTINUOUS
100
AcDbCircle
10
0
20
0
30
0
40
29
1001
CONDUITCAD
1000
{"id":"master-three-phase-motor-4"}
0
TEXT
5
127
330
147
100
AcDbEntity
8
0
62
0
6
CONTINUOUS
100
AcDbText
10
0
20
0
30
0
40
19
1
M
50
0
41
1
7
STANDARD
72
1
11
0
21
0
31
0
100
AcDbText
73
0
1001
CONDUITCAD
1000
{"id":"master-three-phase-motor-5"}
0
TEXT
5
128
330
147
100
AcDbEntity
8
0
62
0
6
CONTINUOUS
100
AcDbText
10
0
20
-17
30
0
40
11
1
3~
50
0
41
1
7
STANDARD
72
1
11
0
21
-17
31
0
100
AcDbText
73
0
1001
CONDUITCAD
1000
{"id":"master-three-phase-motor-6"}
0
ENDBLK
5
155
330
147
100
AcDbEntity
8
0
100
AcDbBlockEnd
0
ENDSEC
0
SECTION
2
ENTITIES
0
INSERT
5
100
330
141
100
AcDbEntity
8
Electrical
100
AcDbBlockReference
2
CC_GENERATOR
10
130
20
350
30
0
41
1
42
1
43
1
50
0
66
1
1001
CONDUITCAD
1000
{"id":"e-muhyo48s-1aj","tag":"G1"}
0
ATTRIB
5
156
330
100
100
AcDbEntity
8
Electrical
100
AcDbText
10
130
20
283
30
0
40
12
1
G1
50
0
41
1
7
STANDARD
72
1
11
130
21
283
31
0
100
AcDbAttribute
2
TAG
70
0
74
0
0
SEQEND
5
157
330
100
100
AcDbEntity
8
Electrical
0
INSERT
5
101
330
141
100
AcDbEntity
8
Electrical
100
AcDbBlockReference
2
CC_CIRCUIT_BREAKER
10
320
20
350
30
0
41
1
42
1
43
1
50
0
66
1
1001
CONDUITCAD
1000
{"id":"e-muhyo48s-1ak","tag":"Q1"}
0
ATTRIB
5
158
330
101
100
AcDbEntity
8
Electrical
100
AcDbText
10
320
20
302
30
0
40
12
1
Q1
50
0
41
1
7
STANDARD
72
1
11
320
21
302
31
0
100
AcDbAttribute
2
TAG
70
0
74
0
0
SEQEND
5
159
330
101
100
AcDbEntity
8
Electrical
0
INSERT
5
102
330
141
100
AcDbEntity
8
Electrical
100
AcDbBlockReference
2
CC_TRANSFORMER
10
510
20
350
30
0
41
1
42
1
43
1
50
0
66
1
1001
CONDUITCAD
1000
{"id":"e-muhyo48s-1al","tag":"T1"}
0
ATTRIB
5
15A
330
102
100
AcDbEntity
8
Electrical
100
AcDbText
10
510
20
302
30
0
40
12
1
T1
50
0
41
1
7
STANDARD
72
1
11
510
21
302
31
0
100
AcDbAttribute
2
TAG
70
0
74
0
0
SEQEND
5
15B
330
102
100
AcDbEntity
8
Electrical
0
INSERT
5
103
330
141
100
AcDbEntity
8
Electrical
100
AcDbBlockReference
2
CC_AMMETER
10
700
20
350
30
0
41
1
42
1
43
1
50
0
66
1
1001
CONDUITCAD
1000
{"id":"e-muhyo48s-1am","tag":"A1"}
0
ATTRIB
5
15C
330
103
100
AcDbEntity
8
Electrical
100
AcDbText
10
700
20
302
30
0
40
12
1
A1
50
0
41
1
7
STANDARD
72
1
11
700
21
302
31
0
100
AcDbAttribute
2
TAG
70
0
74
0
0
SEQEND
5
15D
330
103
100
AcDbEntity
8
Electrical
0
INSERT
5
104
330
141
100
AcDbEntity
8
Electrical
100
AcDbBlockReference
2
CC_THREE_PHASE_MOTOR
10
890
20
350
30
0
41
1
42
1
43
1
50
0
66
1
1001
CONDUITCAD
1000
{"id":"e-muhyo48s-1an","tag":"M1"}
0
ATTRIB
5
15E
330
104
100
AcDbEntity
8
Electrical
100
AcDbText
10
890
20
283
30
0
40
12
1
M1
50
0
41
1
7
STANDARD
72
1
11
890
21
283
31
0
100
AcDbAttribute
2
TAG
70
0
74
0
0
SEQEND
5
15F
330
104
100
AcDbEntity
8
Electrical
0
LWPOLYLINE
5
105
330
141
100
AcDbEntity
8
Electrical
62
7
420
6912436
100
AcDbPolyline
90
2
70
0
10
175
20
350
10
275
20
350
1001
CONDUITCAD
1000
{"id":"e-muhyo48s-1ao","connector":{"from":{"entityId":"e-muhyo48s-1aj","port":"out"},"to":{"entityId":"e-muhyo48s-1ak","port":"in"},"style":"power","arrow":"none","waypoints":[],"status":"routed"},"l
1000
abel":"","dash":[],"width":2.4}
0
LWPOLYLINE
5
106
330
141
100
AcDbEntity
8
Electrical
62
7
420
6912436
100
AcDbPolyline
90
2
70
0
10
365
20
350
10
465
20
350
1001
CONDUITCAD
1000
{"id":"e-muhyo48s-1ap","connector":{"from":{"entityId":"e-muhyo48s-1ak","port":"out"},"to":{"entityId":"e-muhyo48s-1al","port":"in"},"style":"power","arrow":"none","waypoints":[],"status":"routed"},"l
1000
abel":"","dash":[],"width":2.4}
0
LWPOLYLINE
5
107
330
141
100
AcDbEntity
8
Electrical
62
7
420
6912436
100
AcDbPolyline
90
2
70
0
10
555
20
350
10
655
20
350
1001
CONDUITCAD
1000
{"id":"e-muhyo48s-1aq","connector":{"from":{"entityId":"e-muhyo48s-1al","port":"out"},"to":{"entityId":"e-muhyo48s-1am","port":"in"},"style":"power","arrow":"none","waypoints":[],"status":"routed"},"l
1000
abel":"","dash":[],"width":2.4}
0
LWPOLYLINE
5
108
330
141
100
AcDbEntity
8
Electrical
62
7
420
6912436
100
AcDbPolyline
90
2
70
0
10
745
20
350
10
845
20
350
1001
CONDUITCAD
1000
{"id":"e-muhyo48s-1ar","connector":{"from":{"entityId":"e-muhyo48s-1am","port":"out"},"to":{"entityId":"e-muhyo48s-1an","port":"in"},"style":"power","arrow":"none","waypoints":[],"status":"routed"},"l
1000
abel":"","dash":[],"width":2.4}
0
TEXT
5
109
330
141
100
AcDbEntity
8
Annotations
100
AcDbText
10
40
20
620
30
0
40
27
1
Power distribution single-line
50
0
41
1
7
STANDARD
100
AcDbText
73
0
1001
CONDUITCAD
1000
{"id":"e-muhyo48s-1as"}
0
TEXT
5
10A
330
141
100
AcDbEntity
8
Annotations
100
AcDbText
10
40
20
584
30
0
40
13
1
Power & energy  /  Single-line diagram
50
0
41
1
7
STANDARD
100
AcDbText
73
0
1001
CONDUITCAD
1000
{"id":"e-muhyo48s-1at"}
0
LINE
5
10B
330
141
100
AcDbEntity
8
Annotations
100
AcDbLine
10
40
20
562
30
0
11
1120
21
562
31
0
1001
CONDUITCAD
1000
{"id":"e-muhyo48s-1au"}
0
TEXT
5
10C
330
141
100
AcDbEntity
8
Annotations
100
AcDbText
10
40
20
42
30
0
40
11
1
CONCEPT SCHEMATIC — NOT FOR CONSTRUCTION
50
0
41
1
7
STANDARD
100
AcDbText
73
0
1001
CONDUITCAD
1000
{"id":"e-muhyo48s-1av"}
0
TEXT
5
10D
330
141
100
AcDbEntity
8
Annotations
100
AcDbText
10
650
20
42
30
0
40
11
1
POWER-SINGLE-LINE  |  REV 03  |  mm
50
0
41
1
7
STANDARD
100
AcDbText
73
0
1001
CONDUITCAD
1000
{"id":"e-muhyo48s-1aw"}
0
ENDSEC
0
SECTION
2
OBJECTS
0
DICTIONARY
5
166
330
0
100
AcDbDictionary
281
1
3
ACAD_LAYOUT
350
167
3
ACAD_GROUP
350
168
3
CONDUITCAD_METADATA
350
16B
0
DICTIONARY
5
167
330
166
100
AcDbDictionary
281
1
3
Model
350
169
3
Layout1
350
16A
0
DICTIONARY
5
168
330
166
100
AcDbDictionary
281
1
0
LAYOUT
5
169
330
167
100
AcDbPlotSettings
1

2

4

6

40
0
41
0
42
0
43
0
44
420
45
297
46
0
47
0
48
0
49
0
140
0
141
0
142
1
143
1
70
0
72
1
73
0
74
5
7

75
16
76
0
77
0
78
300
147
1
148
0
149
0
100
AcDbLayout
1
Model
70
1
71
0
10
0
20
0
11
420
21
297
12
0
22
0
32
0
14
0
24
0
34
0
15
420
25
297
35
0
146
0
13
0
23
0
33
0
16
1
26
0
36
0
17
0
27
1
37
0
76
0
330
141
0
LAYOUT
5
16A
330
167
100
AcDbPlotSettings
1

2

4

6

40
0
41
0
42
0
43
0
44
420
45
297
46
0
47
0
48
0
49
0
140
0
141
0
142
1
143
1
70
0
72
1
73
0
74
5
7

75
16
76
0
77
0
78
300
147
1
148
0
149
0
100
AcDbLayout
1
Layout1
70
1
71
1
10
0
20
0
11
420
21
297
12
0
22
0
32
0
14
0
24
0
34
0
15
420
25
297
35
0
146
0
13
0
23
0
33
0
16
1
26
0
36
0
17
0
27
1
37
0
76
0
330
142
0
XRECORD
5
16B
330
166
100
AcDbXrecord
280
1
1
{"parameters":{"grid":"10","pipeWidth":"2","valveSize":"64"},"constraints":[],"metadata":{"author":"","description":"Source, breaker, transformer, measurement and load with explicit single-line symbol
1
s.","industry":"Power & energy","drawingType":"Single-line diagram","templateId":"power-single-line","standardRefs":["IEC-60617"],"geometryRevision":3,"approval":"Concept schematic; engineering approv
1
al required"}}
0
ENDSEC
0
EOF
