0
SECTION
2
HEADER
9
$ACADVER
1
AC1024
9
$INSUNITS
70
4
9
$LTSCALE
40
1
9
$MEASUREMENT
70
1
999
CONDUIT:{"parameters":{"grid":"10","pipeWidth":"2","valveSize":"64"},"constraints":[],"metadata":{"author":"","description":"Preparation, controlled operation, inspection decision and reco
999
CONDUIT:rd storage.","industry":"Manufacturing & quality","drawingType":"Information flowchart","templateId":"quality-workflow","standardRefs":["ISO-5807"],"geometryRevision":3,"approval":
999
CONDUIT:"Concept schematic; engineering approval required"}}
0
ENDSEC
0
SECTION
2
TABLES
0
TABLE
2
LTYPE
5
100
330
0
100
AcDbSymbolTable
70
1
0
LTYPE
5
101
100
AcDbSymbolTableRecord
100
AcDbLinetypeTableRecord
2
CONTINUOUS
70
0
3
Solid line
72
65
73
0
40
0
0
LTYPE
5
102
100
AcDbSymbolTableRecord
100
AcDbLinetypeTableRecord
2
DASHED
70
0
3
DASHED
72
65
73
2
40
12
49
8
74
0
49
-4
74
0
0
LTYPE
5
103
100
AcDbSymbolTableRecord
100
AcDbLinetypeTableRecord
2
CENTER
70
0
3
CENTER
72
65
73
4
40
20
49
12
74
0
49
-3
74
0
49
2
74
0
49
-3
74
0
0
LTYPE
5
104
100
AcDbSymbolTableRecord
100
AcDbLinetypeTableRecord
2
HIDDEN
70
0
3
HIDDEN
72
65
73
2
40
7
49
4
74
0
49
-3
74
0
0
ENDTAB
0
TABLE
2
LAYER
5
105
330
0
100
AcDbSymbolTable
70
13
0
LAYER
5
106
100
AcDbSymbolTableRecord
100
AcDbLayerTableRecord
2
0
70
0
62
7
420
3426133
6
CONTINUOUS
0
LAYER
5
107
100
AcDbSymbolTableRecord
100
AcDbLayerTableRecord
2
Equipment
70
0
62
7
420
3495011
6
CONTINUOUS
0
LAYER
5
108
100
AcDbSymbolTableRecord
100
AcDbLayerTableRecord
2
Process
70
0
62
7
420
1342583
6
CONTINUOUS
0
LAYER
5
109
100
AcDbSymbolTableRecord
100
AcDbLayerTableRecord
2
Instruments
70
0
62
7
420
10187334
6
CONTINUOUS
0
LAYER
5
10A
100
AcDbSymbolTableRecord
100
AcDbLayerTableRecord
2
Electrical
70
0
62
7
420
6584250
6
CONTINUOUS
0
LAYER
5
10B
100
AcDbSymbolTableRecord
100
AcDbLayerTableRecord
2
Annotations
70
0
62
7
420
7438474
6
CONTINUOUS
0
LAYER
5
10C
100
AcDbSymbolTableRecord
100
AcDbLayerTableRecord
2
Hydraulics
70
0
62
7
420
3495011
6
CONTINUOUS
0
LAYER
5
10D
100
AcDbSymbolTableRecord
100
AcDbLayerTableRecord
2
Pneumatics
70
0
62
7
420
3495011
6
CONTINUOUS
0
LAYER
5
10E
100
AcDbSymbolTableRecord
100
AcDbLayerTableRecord
2
HVAC
70
0
62
7
420
3495011
6
CONTINUOUS
0
LAYER
5
10F
100
AcDbSymbolTableRecord
100
AcDbLayerTableRecord
2
Water
70
0
62
7
420
3495011
6
CONTINUOUS
0
LAYER
5
110
100
AcDbSymbolTableRecord
100
AcDbLayerTableRecord
2
Automation
70
0
62
7
420
3495011
6
CONTINUOUS
0
LAYER
5
111
100
AcDbSymbolTableRecord
100
AcDbLayerTableRecord
2
Fire
70
0
62
7
420
3495011
6
CONTINUOUS
0
LAYER
5
112
100
AcDbSymbolTableRecord
100
AcDbLayerTableRecord
2
Network
70
0
62
7
420
3495011
6
CONTINUOUS
0
ENDTAB
0
TABLE
2
STYLE
5
113
330
0
100
AcDbSymbolTable
70
1
0
STYLE
5
114
100
AcDbSymbolTableRecord
100
AcDbTextStyleTableRecord
2
STANDARD
70
0
40
0
41
1
50
0
71
0
42
2.5
3
txt
4

0
ENDTAB
0
TABLE
2
APPID
5
115
330
0
100
AcDbSymbolTable
70
1
0
APPID
5
116
100
AcDbSymbolTableRecord
100
AcDbRegAppTableRecord
2
CONDUITCAD
70
0
0
ENDTAB
0
TABLE
2
BLOCK_RECORD
5
117
330
0
100
AcDbSymbolTable
70
7
0
BLOCK_RECORD
5
118
100
AcDbSymbolTableRecord
100
AcDbBlockTableRecord
2
*Model_Space
0
BLOCK_RECORD
5
119
100
AcDbSymbolTableRecord
100
AcDbBlockTableRecord
2
*Paper_Space
0
BLOCK_RECORD
5
11A
100
AcDbSymbolTableRecord
100
AcDbBlockTableRecord
2
CC_PREPARATION
0
BLOCK_RECORD
5
11B
100
AcDbSymbolTableRecord
100
AcDbBlockTableRecord
2
CC_MANUAL_OPERATION
0
BLOCK_RECORD
5
11C
100
AcDbSymbolTableRecord
100
AcDbBlockTableRecord
2
CC_DECISION
0
BLOCK_RECORD
5
11D
100
AcDbSymbolTableRecord
100
AcDbBlockTableRecord
2
CC_INTERNAL_STORAGE
0
BLOCK_RECORD
5
11E
100
AcDbSymbolTableRecord
100
AcDbBlockTableRecord
2
CC_DOCUMENT
0
ENDTAB
0
ENDSEC
0
SECTION
2
BLOCKS
0
BLOCK
5
11F
330
118
100
AcDbEntity
8
0
100
AcDbBlockBegin
2
*Model_Space
70
0
10
0
20
0
30
0
3
*Model_Space
1

1001
CONDUITCAD
1000
{"ports":[]}
0
ENDBLK
5
120
330
118
100
AcDbEntity
8
0
100
AcDbBlockEnd
0
BLOCK
5
121
330
119
100
AcDbEntity
8
0
100
AcDbBlockBegin
2
*Paper_Space
70
0
10
0
20
0
30
0
3
*Paper_Space
1

1001
CONDUITCAD
1000
{"ports":[]}
0
ENDBLK
5
122
330
119
100
AcDbEntity
8
0
100
AcDbBlockEnd
0
BLOCK
5
123
330
11A
100
AcDbEntity
8
0
100
AcDbBlockBegin
2
CC_PREPARATION
70
0
10
0
20
0
30
0
3
CC_PREPARATION
1

1001
CONDUITCAD
1000
{"ports":[{"name":"in","x":0,"y":35,"dx":0,"dy":1,"medium":"logical","role":"connection"},{"name":"out","x":0,"y":-35,"dx":0,"dy":-1,"medium":"logical","role":"connection"},{"name":"left","x":-60,"y":
1000
0,"dx":-1,"dy":0,"medium":"logical","role":"connection"},{"name":"right","x":60,"y":0,"dx":1,"dy":0,"medium":"logical","role":"connection"}],"symbol":{"name":"Preparation","category":"Flow","labelOffs
1000
et":57,"geometryRevision":3,"convention":"ISO-5807 family","conformity":"Original master; not standards-certified","standardRefs":["ISO-5807"],"normativeEntry":null,"review":{"level":"geometry-and-con
1000
vention","dimensionalConformance":"not-verified","note":"Reviewed: silhouette, terminal positions, normal state and distinct function retained."},"group":"Components","aliases":["preparation"],"defaul
1000
tLayer":"Process","extents":{"minX":-60,"minY":-35,"maxX":60,"maxY":35}}}
0
LWPOLYLINE
5
124
330
11A
100
AcDbEntity
8
0
62
0
6
CONTINUOUS
100
AcDbPolyline
90
6
70
1
10
-40
20
-35
10
40
20
-35
10
60
20
0
10
40
20
35
10
-40
20
35
10
-60
20
0
1001
CONDUITCAD
1000
{"id":"master-preparation-0"}
0
TEXT
5
125
330
11A
100
AcDbEntity
8
0
62
0
6
CONTINUOUS
100
AcDbText
10
0
20
-5
30
0
40
14
1
Prepare
50
0
41
1
7
STANDARD
72
1
11
0
21
-5
31
0
100
AcDbText
73
0
1001
CONDUITCAD
1000
{"id":"master-preparation-1"}
0
ENDBLK
5
126
330
11A
100
AcDbEntity
8
0
100
AcDbBlockEnd
0
BLOCK
5
127
330
11B
100
AcDbEntity
8
0
100
AcDbBlockBegin
2
CC_MANUAL_OPERATION
70
0
10
0
20
0
30
0
3
CC_MANUAL_OPERATION
1

1001
CONDUITCAD
1000
{"ports":[{"name":"in","x":0,"y":35,"dx":0,"dy":1,"medium":"logical","role":"connection"},{"name":"out","x":0,"y":-35,"dx":0,"dy":-1,"medium":"logical","role":"connection"},{"name":"left","x":-45,"y":
1000
0,"dx":-1,"dy":0,"medium":"logical","role":"connection"},{"name":"right","x":45,"y":0,"dx":1,"dy":0,"medium":"logical","role":"connection"}],"symbol":{"name":"Manual operation","category":"Flow","grou
1000
p":"Information flow","geometryRevision":3,"standardRefs":["ISO-5807"],"convention":"ISO-5807 family","conformity":"Original master; not standards-certified","normativeEntry":null,"review":{"level":"g
1000
eometry-and-convention","dimensionalConformance":"not-verified","note":"New independently constructed CAD master with explicit terminal topology."},"aliases":["manual operation"],"defaultLayer":"Proce
1000
ss","labelOffset":57,"extents":{"minX":-55,"minY":-35,"maxX":55,"maxY":35}}}
0
LWPOLYLINE
5
128
330
11B
100
AcDbEntity
8
0
62
0
6
CONTINUOUS
100
AcDbPolyline
90
4
70
1
10
-55
20
35
10
55
20
35
10
35
20
-35
10
-35
20
-35
1001
CONDUITCAD
1000
{"id":"master-manual-operation-0"}
0
TEXT
5
129
330
11B
100
AcDbEntity
8
0
62
0
6
CONTINUOUS
100
AcDbText
10
0
20
-5
30
0
40
14
1
Manual
50
0
41
1
7
STANDARD
72
1
11
0
21
-5
31
0
100
AcDbText
73
0
1001
CONDUITCAD
1000
{"id":"master-manual-operation-1"}
0
ENDBLK
5
12A
330
11B
100
AcDbEntity
8
0
100
AcDbBlockEnd
0
BLOCK
5
12B
330
11C
100
AcDbEntity
8
0
100
AcDbBlockBegin
2
CC_DECISION
70
0
10
0
20
0
30
0
3
CC_DECISION
1

1001
CONDUITCAD
1000
{"ports":[{"name":"in","x":0,"y":42,"dx":0,"dy":1,"medium":"logical","role":"connection"},{"name":"out","x":0,"y":-42,"dx":0,"dy":-1,"medium":"logical","role":"connection"},{"name":"yes","x":60,"y":0,
1000
"dx":1,"dy":0,"medium":"logical","role":"connection"},{"name":"no","x":-60,"y":0,"dx":-1,"dy":0,"medium":"logical","role":"connection"}],"symbol":{"name":"Decision","category":"Flow","labelOffset":64,
1000
"geometryRevision":3,"convention":"ISO-5807 family","conformity":"Original master; not standards-certified","standardRefs":["ISO-5807"],"normativeEntry":null,"review":{"level":"geometry-and-convention
1000
","dimensionalConformance":"not-verified","note":"Reviewed: silhouette, terminal positions, normal state and distinct function retained."},"group":"Components","aliases":["decision"],"defaultLayer":"P
1000
rocess","extents":{"minX":-60,"minY":-42,"maxX":60,"maxY":42}}}
0
LWPOLYLINE
5
12C
330
11C
100
AcDbEntity
8
0
62
0
6
CONTINUOUS
100
AcDbPolyline
90
4
70
1
10
0
20
42
10
60
20
0
10
0
20
-42
10
-60
20
0
1001
CONDUITCAD
1000
{"id":"master-decision-0"}
0
TEXT
5
12D
330
11C
100
AcDbEntity
8
0
62
0
6
CONTINUOUS
100
AcDbText
10
0
20
-5
30
0
40
13
1
Decision
50
0
41
1
7
STANDARD
72
1
11
0
21
-5
31
0
100
AcDbText
73
0
1001
CONDUITCAD
1000
{"id":"master-decision-1"}
0
ENDBLK
5
12E
330
11C
100
AcDbEntity
8
0
100
AcDbBlockEnd
0
BLOCK
5
12F
330
11D
100
AcDbEntity
8
0
100
AcDbBlockBegin
2
CC_INTERNAL_STORAGE
70
0
10
0
20
0
30
0
3
CC_INTERNAL_STORAGE
1

1001
CONDUITCAD
1000
{"ports":[{"name":"in","x":0,"y":35,"dx":0,"dy":1,"medium":"logical","role":"connection"},{"name":"out","x":0,"y":-35,"dx":0,"dy":-1,"medium":"logical","role":"connection"},{"name":"left","x":-55,"y":
1000
0,"dx":-1,"dy":0,"medium":"logical","role":"connection"},{"name":"right","x":55,"y":0,"dx":1,"dy":0,"medium":"logical","role":"connection"}],"symbol":{"name":"Internal storage","category":"Flow","grou
1000
p":"Information flow","geometryRevision":3,"standardRefs":["ISO-5807"],"convention":"ISO-5807 family","conformity":"Original master; not standards-certified","normativeEntry":null,"review":{"level":"g
1000
eometry-and-convention","dimensionalConformance":"not-verified","note":"New independently constructed CAD master with explicit terminal topology."},"aliases":["internal storage"],"defaultLayer":"Proce
1000
ss","labelOffset":57,"extents":{"minX":-55,"minY":-35,"maxX":55,"maxY":35}}}
0
LWPOLYLINE
5
130
330
11D
100
AcDbEntity
8
0
62
0
6
CONTINUOUS
100
AcDbPolyline
90
4
70
1
10
-55
20
-35
10
55
20
-35
10
55
20
35
10
-55
20
35
1001
CONDUITCAD
1000
{"id":"master-internal-storage-0"}
0
LINE
5
131
330
11D
100
AcDbEntity
8
0
62
0
6
CONTINUOUS
100
AcDbLine
10
-40
20
-35
30
0
11
-40
21
35
31
0
1001
CONDUITCAD
1000
{"id":"master-internal-storage-1"}
0
LINE
5
132
330
11D
100
AcDbEntity
8
0
62
0
6
CONTINUOUS
100
AcDbLine
10
-55
20
22
30
0
11
55
21
22
31
0
1001
CONDUITCAD
1000
{"id":"master-internal-storage-2"}
0
TEXT
5
133
330
11D
100
AcDbEntity
8
0
62
0
6
CONTINUOUS
100
AcDbText
10
5
20
-7
30
0
40
13
1
Storage
50
0
41
1
7
STANDARD
72
1
11
5
21
-7
31
0
100
AcDbText
73
0
1001
CONDUITCAD
1000
{"id":"master-internal-storage-3"}
0
ENDBLK
5
134
330
11D
100
AcDbEntity
8
0
100
AcDbBlockEnd
0
BLOCK
5
135
330
11E
100
AcDbEntity
8
0
100
AcDbBlockBegin
2
CC_DOCUMENT
70
0
10
0
20
0
30
0
3
CC_DOCUMENT
1

1001
CONDUITCAD
1000
{"ports":[{"name":"in","x":0,"y":35,"dx":0,"dy":1,"medium":"logical","role":"connection"},{"name":"out","x":0,"y":-24,"dx":0,"dy":-1,"medium":"logical","role":"connection"},{"name":"left","x":-55,"y":
1000
0,"dx":-1,"dy":0,"medium":"logical","role":"connection"},{"name":"right","x":55,"y":0,"dx":1,"dy":0,"medium":"logical","role":"connection"}],"symbol":{"name":"Document","category":"Flow","labelOffset"
1000
:55,"geometryRevision":3,"convention":"ISO-5807 family","conformity":"Original master; not standards-certified","standardRefs":["ISO-5807"],"normativeEntry":null,"review":{"level":"geometry-and-conven
1000
tion","dimensionalConformance":"not-verified","note":"Native cubic document wave replaces sharp zigzag bottom."},"group":"Components","aliases":["document"],"defaultLayer":"Process","extents":{"minX":
1000
-55,"minY":-32.94012451171875,"maxX":55,"maxY":35}}}
0
LINE
5
136
330
11E
100
AcDbEntity
8
0
62
0
6
CONTINUOUS
100
AcDbLine
10
-55
20
-24
30
0
11
-55
21
35
31
0
1001
CONDUITCAD
1000
{"id":"master-document-0"}
0
LINE
5
137
330
11E
100
AcDbEntity
8
0
62
0
6
CONTINUOUS
100
AcDbLine
10
-55
20
35
30
0
11
55
21
35
31
0
1001
CONDUITCAD
1000
{"id":"master-document-1"}
0
LINE
5
138
330
11E
100
AcDbEntity
8
0
62
0
6
CONTINUOUS
100
AcDbLine
10
55
20
35
30
0
11
55
21
-24
31
0
1001
CONDUITCAD
1000
{"id":"master-document-2"}
0
SPLINE
5
139
330
11E
100
AcDbEntity
8
0
62
0
6
CONTINUOUS
100
AcDbSpline
70
12
71
3
72
8
73
4
74
0
40
0
40
0
40
0
40
0
40
1
40
1
40
1
40
1
41
1
41
1
41
1
41
1
10
-55
20
-24
30
0
10
-20
20
-55
30
0
10
20
20
7
30
0
10
55
20
-24
30
0
1001
CONDUITCAD
1000
{"id":"master-document-3"}
0
TEXT
5
13A
330
11E
100
AcDbEntity
8
0
62
0
6
CONTINUOUS
100
AcDbText
10
0
20
-5
30
0
40
14
1
Document
50
0
41
1
7
STANDARD
72
1
11
0
21
-5
31
0
100
AcDbText
73
0
1001
CONDUITCAD
1000
{"id":"master-document-4"}
0
ENDBLK
5
13B
330
11E
100
AcDbEntity
8
0
100
AcDbBlockEnd
0
ENDSEC
0
SECTION
2
ENTITIES
0
INSERT
5
13C
330
118
100
AcDbEntity
8
Process
100
AcDbBlockReference
2
CC_PREPARATION
10
140
20
390
30
0
41
1
42
1
43
1
50
0
66
1
1001
CONDUITCAD
1000
{"id":"e-mugr5p7a-1f1","tag":"SETUP"}
0
ATTRIB
5
13D
330
118
100
AcDbEntity
8
Process
100
AcDbText
10
140
20
333
30
0
40
12
1
SETUP
50
0
41
1
7
STANDARD
72
1
11
140
21
333
31
0
100
AcDbAttribute
2
TAG
70
0
74
0
0
SEQEND
5
13E
100
AcDbEntity
8
Process
0
INSERT
5
13F
330
118
100
AcDbEntity
8
Process
100
AcDbBlockReference
2
CC_MANUAL_OPERATION
10
370
20
390
30
0
41
1
42
1
43
1
50
0
66
1
1001
CONDUITCAD
1000
{"id":"e-mugr5p7a-1f2","tag":"OPERATE"}
0
ATTRIB
5
140
330
118
100
AcDbEntity
8
Process
100
AcDbText
10
370
20
333
30
0
40
12
1
OPERATE
50
0
41
1
7
STANDARD
72
1
11
370
21
333
31
0
100
AcDbAttribute
2
TAG
70
0
74
0
0
SEQEND
5
141
100
AcDbEntity
8
Process
0
INSERT
5
142
330
118
100
AcDbEntity
8
Process
100
AcDbBlockReference
2
CC_DECISION
10
620
20
390
30
0
41
1
42
1
43
1
50
0
66
1
1001
CONDUITCAD
1000
{"id":"e-mugr5p7a-1f3","tag":"PASS?"}
0
ATTRIB
5
143
330
118
100
AcDbEntity
8
Process
100
AcDbText
10
620
20
326
30
0
40
12
1
PASS?
50
0
41
1
7
STANDARD
72
1
11
620
21
326
31
0
100
AcDbAttribute
2
TAG
70
0
74
0
0
SEQEND
5
144
100
AcDbEntity
8
Process
0
INSERT
5
145
330
118
100
AcDbEntity
8
Process
100
AcDbBlockReference
2
CC_INTERNAL_STORAGE
10
880
20
390
30
0
41
1
42
1
43
1
50
0
66
1
1001
CONDUITCAD
1000
{"id":"e-mugr5p7a-1f4","tag":"RECORD"}
0
ATTRIB
5
146
330
118
100
AcDbEntity
8
Process
100
AcDbText
10
880
20
333
30
0
40
12
1
RECORD
50
0
41
1
7
STANDARD
72
1
11
880
21
333
31
0
100
AcDbAttribute
2
TAG
70
0
74
0
0
SEQEND
5
147
100
AcDbEntity
8
Process
0
INSERT
5
148
330
118
100
AcDbEntity
8
Process
100
AcDbBlockReference
2
CC_DOCUMENT
10
620
20
170
30
0
41
1
42
1
43
1
50
0
66
1
1001
CONDUITCAD
1000
{"id":"e-mugr5p7a-1f5","tag":"NCR"}
0
ATTRIB
5
149
330
118
100
AcDbEntity
8
Process
100
AcDbText
10
620
20
115
30
0
40
12
1
NCR
50
0
41
1
7
STANDARD
72
1
11
620
21
115
31
0
100
AcDbAttribute
2
TAG
70
0
74
0
0
SEQEND
5
14A
100
AcDbEntity
8
Process
0
LWPOLYLINE
5
14B
330
118
100
AcDbEntity
8
Process
62
7
420
1342583
100
AcDbPolyline
90
2
70
0
10
200
20
390
10
325
20
390
1001
CONDUITCAD
1000
{"id":"e-mugr5p7b-1f6","connector":{"from":{"entityId":"e-mugr5p7a-1f1","port":"right"},"to":{"entityId":"e-mugr5p7a-1f2","port":"left"},"style":"workflow","arrow":"end","waypoints":[],"status":"route
1000
d"},"label":"","dash":[],"width":1.8}
0
LWPOLYLINE
5
14C
330
118
100
AcDbEntity
8
Process
62
7
420
1342583
100
AcDbPolyline
90
2
70
0
10
415
20
390
10
560
20
390
1001
CONDUITCAD
1000
{"id":"e-mugr5p7b-1f7","connector":{"from":{"entityId":"e-mugr5p7a-1f2","port":"right"},"to":{"entityId":"e-mugr5p7a-1f3","port":"no"},"style":"workflow","arrow":"end","waypoints":[],"status":"routed"
1000
},"label":"","dash":[],"width":1.8}
0
LWPOLYLINE
5
14D
330
118
100
AcDbEntity
8
Process
62
7
420
1342583
100
AcDbPolyline
90
2
70
0
10
680
20
390
10
825
20
390
1001
CONDUITCAD
1000
{"id":"e-mugr5p7b-1f8","connector":{"from":{"entityId":"e-mugr5p7a-1f3","port":"yes"},"to":{"entityId":"e-mugr5p7a-1f4","port":"left"},"style":"workflow","arrow":"end","waypoints":[],"status":"routed"
1000
},"label":"YES","dash":[],"width":1.8}
0
LWPOLYLINE
5
14E
330
118
100
AcDbEntity
8
Process
62
7
420
1342583
100
AcDbPolyline
90
2
70
0
10
620
20
348
10
620
20
205
1001
CONDUITCAD
1000
{"id":"e-mugr5p7b-1f9","connector":{"from":{"entityId":"e-mugr5p7a-1f3","port":"out"},"to":{"entityId":"e-mugr5p7a-1f5","port":"in"},"style":"workflow","arrow":"end","waypoints":[],"status":"routed"},
1000
"label":"NO","dash":[],"width":1.8}
0
TEXT
5
14F
330
118
100
AcDbEntity
8
Annotations
100
AcDbText
10
40
20
620
30
0
40
27
1
Manufacturing release workflow
50
0
41
1
7
STANDARD
100
AcDbText
73
0
1001
CONDUITCAD
1000
{"id":"e-mugr5p7b-1fa"}
0
TEXT
5
150
330
118
100
AcDbEntity
8
Annotations
100
AcDbText
10
40
20
584
30
0
40
13
1
Manufacturing & quality  /  Information flowchart
50
0
41
1
7
STANDARD
100
AcDbText
73
0
1001
CONDUITCAD
1000
{"id":"e-mugr5p7b-1fb"}
0
LINE
5
151
330
118
100
AcDbEntity
8
Annotations
100
AcDbLine
10
40
20
562
30
0
11
1120
21
562
31
0
1001
CONDUITCAD
1000
{"id":"e-mugr5p7b-1fc"}
0
TEXT
5
152
330
118
100
AcDbEntity
8
Annotations
100
AcDbText
10
40
20
42
30
0
40
11
1
CONCEPT SCHEMATIC — NOT FOR CONSTRUCTION
50
0
41
1
7
STANDARD
100
AcDbText
73
0
1001
CONDUITCAD
1000
{"id":"e-mugr5p7b-1fd"}
0
TEXT
5
153
330
118
100
AcDbEntity
8
Annotations
100
AcDbText
10
650
20
42
30
0
40
11
1
QUALITY-WORKFLOW  |  REV 03  |  mm
50
0
41
1
7
STANDARD
100
AcDbText
73
0
1001
CONDUITCAD
1000
{"id":"e-mugr5p7b-1fe"}
0
ENDSEC
0
EOF
