0
SECTION
2
HEADER
9
$ACADVER
1
AC1024
9
$INSUNITS
70
4
9
$LTSCALE
40
1
9
$MEASUREMENT
70
1
999
CONDUIT:{"parameters":{"grid":"10","pipeWidth":"2","valveSize":"64"},"constraints":[],"metadata":{"author":"","description":"Photovoltaic generation, DC isolation, inverter and AC protecti
999
CONDUIT:on.","industry":"Renewable energy","drawingType":"Power conversion schematic","templateId":"solar","standardRefs":["IEC-60617","PROJECT"],"geometryRevision":3,"approval":"Concept s
999
CONDUIT:chematic; engineering approval required"}}
9
$HANDSEED
5
170
9
$DWGCODEPAGE
3
ANSI_1252
9
$CLAYER
8
0
9
$TILEMODE
70
1
0
ENDSEC
0
SECTION
2
TABLES
0
TABLE
2
LTYPE
5
12D
330
0
100
AcDbSymbolTable
70
4
0
LTYPE
5
12E
100
AcDbSymbolTableRecord
100
AcDbLinetypeTableRecord
2
CONTINUOUS
70
0
3
Solid line
72
65
73
0
40
0
330
12D
0
LTYPE
5
12F
100
AcDbSymbolTableRecord
100
AcDbLinetypeTableRecord
2
DASHED
70
0
3
DASHED
72
65
73
2
40
12
49
8
74
0
49
-4
74
0
330
12D
0
LTYPE
5
130
100
AcDbSymbolTableRecord
100
AcDbLinetypeTableRecord
2
CENTER
70
0
3
CENTER
72
65
73
4
40
20
49
12
74
0
49
-3
74
0
49
2
74
0
49
-3
74
0
330
12D
0
LTYPE
5
131
100
AcDbSymbolTableRecord
100
AcDbLinetypeTableRecord
2
HIDDEN
70
0
3
HIDDEN
72
65
73
2
40
7
49
4
74
0
49
-3
74
0
330
12D
0
ENDTAB
0
TABLE
2
LAYER
5
132
330
0
100
AcDbSymbolTable
70
13
0
LAYER
5
133
100
AcDbSymbolTableRecord
100
AcDbLayerTableRecord
2
0
70
0
62
7
420
3426133
6
CONTINUOUS
330
132
0
LAYER
5
134
100
AcDbSymbolTableRecord
100
AcDbLayerTableRecord
2
Equipment
70
0
62
7
420
3495011
6
CONTINUOUS
330
132
0
LAYER
5
135
100
AcDbSymbolTableRecord
100
AcDbLayerTableRecord
2
Process
70
0
62
7
420
1342583
6
CONTINUOUS
330
132
0
LAYER
5
136
100
AcDbSymbolTableRecord
100
AcDbLayerTableRecord
2
Instruments
70
0
62
7
420
10187334
6
CONTINUOUS
330
132
0
LAYER
5
137
100
AcDbSymbolTableRecord
100
AcDbLayerTableRecord
2
Electrical
70
0
62
7
420
6584250
6
CONTINUOUS
330
132
0
LAYER
5
138
100
AcDbSymbolTableRecord
100
AcDbLayerTableRecord
2
Annotations
70
0
62
7
420
7438474
6
CONTINUOUS
330
132
0
LAYER
5
139
100
AcDbSymbolTableRecord
100
AcDbLayerTableRecord
2
Hydraulics
70
0
62
7
420
3495011
6
CONTINUOUS
330
132
0
LAYER
5
13A
100
AcDbSymbolTableRecord
100
AcDbLayerTableRecord
2
Pneumatics
70
0
62
7
420
3495011
6
CONTINUOUS
330
132
0
LAYER
5
13B
100
AcDbSymbolTableRecord
100
AcDbLayerTableRecord
2
HVAC
70
0
62
7
420
3495011
6
CONTINUOUS
330
132
0
LAYER
5
13C
100
AcDbSymbolTableRecord
100
AcDbLayerTableRecord
2
Water
70
0
62
7
420
3495011
6
CONTINUOUS
330
132
0
LAYER
5
13D
100
AcDbSymbolTableRecord
100
AcDbLayerTableRecord
2
Automation
70
0
62
7
420
3495011
6
CONTINUOUS
330
132
0
LAYER
5
13E
100
AcDbSymbolTableRecord
100
AcDbLayerTableRecord
2
Fire
70
0
62
7
420
3495011
6
CONTINUOUS
330
132
0
LAYER
5
13F
100
AcDbSymbolTableRecord
100
AcDbLayerTableRecord
2
Network
70
0
62
7
420
3495011
6
CONTINUOUS
330
132
0
ENDTAB
0
TABLE
2
STYLE
5
140
330
0
100
AcDbSymbolTable
70
1
0
STYLE
5
141
100
AcDbSymbolTableRecord
100
AcDbTextStyleTableRecord
2
STANDARD
70
0
40
0
41
1
50
0
71
0
42
2.5
3
txt
4

330
140
0
ENDTAB
0
TABLE
2
APPID
5
142
330
0
100
AcDbSymbolTable
70
2
0
APPID
5
143
100
AcDbSymbolTableRecord
100
AcDbRegAppTableRecord
2
CONDUITCAD
70
0
330
142
0
APPID
5
169
100
AcDbSymbolTableRecord
100
AcDbRegAppTableRecord
2
ACAD
70
0
330
142
0
ENDTAB
0
TABLE
2
BLOCK_RECORD
5
144
330
0
100
AcDbSymbolTable
70
7
0
BLOCK_RECORD
5
145
100
AcDbSymbolTableRecord
100
AcDbBlockTableRecord
2
*Model_Space
340
16D
330
144
0
BLOCK_RECORD
5
146
100
AcDbSymbolTableRecord
100
AcDbBlockTableRecord
2
*Paper_Space
340
16E
330
144
0
BLOCK_RECORD
5
147
100
AcDbSymbolTableRecord
100
AcDbBlockTableRecord
2
CC_PV_MODULE
330
144
0
BLOCK_RECORD
5
148
100
AcDbSymbolTableRecord
100
AcDbBlockTableRecord
2
CC_DISCONNECT
330
144
0
BLOCK_RECORD
5
149
100
AcDbSymbolTableRecord
100
AcDbBlockTableRecord
2
CC_INVERTER
330
144
0
BLOCK_RECORD
5
14A
100
AcDbSymbolTableRecord
100
AcDbBlockTableRecord
2
CC_CIRCUIT_BREAKER
330
144
0
BLOCK_RECORD
5
14B
100
AcDbSymbolTableRecord
100
AcDbBlockTableRecord
2
CC_AC_SOURCE
330
144
0
ENDTAB
0
TABLE
2
VPORT
5
164
330
0
100
AcDbSymbolTable
70
0
0
ENDTAB
0
TABLE
2
VIEW
5
165
330
0
100
AcDbSymbolTable
70
0
0
ENDTAB
0
TABLE
2
UCS
5
166
330
0
100
AcDbSymbolTable
70
0
0
ENDTAB
0
TABLE
2
DIMSTYLE
5
167
330
0
100
AcDbSymbolTable
70
1
100
AcDbDimStyleTable
71
0
0
DIMSTYLE
105
168
330
167
100
AcDbSymbolTableRecord
100
AcDbDimStyleTableRecord
2
STANDARD
70
0
340
141
0
ENDTAB
0
ENDSEC
0
SECTION
2
BLOCKS
0
BLOCK
5
14C
330
145
100
AcDbEntity
8
0
100
AcDbBlockBegin
2
*Model_Space
70
0
10
0
20
0
30
0
3
*Model_Space
1

1001
CONDUITCAD
1000
{"ports":[]}
0
ENDBLK
5
14D
330
145
100
AcDbEntity
8
0
100
AcDbBlockEnd
0
BLOCK
5
14E
330
146
100
AcDbEntity
8
0
100
AcDbBlockBegin
2
*Paper_Space
70
0
10
0
20
0
30
0
3
*Paper_Space
1

1001
CONDUITCAD
1000
{"ports":[]}
0
ENDBLK
5
14F
330
146
100
AcDbEntity
8
0
100
AcDbBlockEnd
0
BLOCK
5
150
330
147
100
AcDbEntity
8
0
100
AcDbBlockBegin
2
CC_PV_MODULE
70
0
10
0
20
0
30
0
3
CC_PV_MODULE
1

1001
CONDUITCAD
1000
{"ports":[{"name":"in","x":-45,"y":0,"dx":-1,"dy":0,"medium":"electrical","role":"connection"},{"name":"out","x":45,"y":0,"dx":1,"dy":0,"medium":"electrical","role":"connection"}],"symbol":{"name":"Ph
1000
otovoltaic module","category":"Electrical","group":"Sources","standardRefs":["PROJECT"],"geometryRevision":3,"convention":"Explicit project drafting convention","conformity":"Original master; not stan
1000
dards-certified","normativeEntry":null,"review":{"level":"geometry-and-convention","dimensionalConformance":"not-verified","note":"New independently constructed CAD master with explicit terminal topol
1000
ogy."},"aliases":["pv module"],"defaultLayer":"Electrical","labelOffset":48,"extents":{"minX":-45,"minY":-20,"maxX":45,"maxY":46}}}
0
LINE
5
10E
330
147
100
AcDbEntity
8
0
62
0
6
CONTINUOUS
100
AcDbLine
10
-45
20
0
30
0
11
-30
21
0
31
0
1001
CONDUITCAD
1000
{"id":"master-pv-module-0"}
0
LINE
5
10F
330
147
100
AcDbEntity
8
0
62
0
6
CONTINUOUS
100
AcDbLine
10
30
20
0
30
0
11
45
21
0
31
0
1001
CONDUITCAD
1000
{"id":"master-pv-module-1"}
0
LWPOLYLINE
5
110
330
147
100
AcDbEntity
8
0
62
0
6
CONTINUOUS
100
AcDbPolyline
90
4
70
1
10
-30
20
-20
10
30
20
-20
10
30
20
20
10
-30
20
20
1001
CONDUITCAD
1000
{"id":"master-pv-module-2"}
0
LINE
5
111
330
147
100
AcDbEntity
8
0
62
0
6
CONTINUOUS
100
AcDbLine
10
-10
20
-20
30
0
11
-10
21
20
31
0
1001
CONDUITCAD
1000
{"id":"master-pv-module-3"}
0
LINE
5
112
330
147
100
AcDbEntity
8
0
62
0
6
CONTINUOUS
100
AcDbLine
10
10
20
-20
30
0
11
10
21
20
31
0
1001
CONDUITCAD
1000
{"id":"master-pv-module-4"}
0
LINE
5
113
330
147
100
AcDbEntity
8
0
62
0
6
CONTINUOUS
100
AcDbLine
10
-30
20
0
30
0
11
30
21
0
31
0
1001
CONDUITCAD
1000
{"id":"master-pv-module-5"}
0
LINE
5
114
330
147
100
AcDbEntity
8
0
62
0
6
CONTINUOUS
100
AcDbLine
10
-22
20
46
30
0
11
-8
21
28
31
0
1001
CONDUITCAD
1000
{"id":"master-pv-module-6"}
0
LWPOLYLINE
5
115
330
147
100
AcDbEntity
8
0
62
0
6
CONTINUOUS
100
AcDbPolyline
90
3
70
1
10
-8
20
28
10
-9.811124809869016
20
35.45937845420629
10
-14.784043779339873
20
31.59155258906229
1001
CONDUITCAD
1000
{"id":"master-pv-module-7"}
0
LINE
5
116
330
147
100
AcDbEntity
8
0
62
0
6
CONTINUOUS
100
AcDbLine
10
-4
20
46
30
0
11
10
21
28
31
0
1001
CONDUITCAD
1000
{"id":"master-pv-module-8"}
0
LWPOLYLINE
5
117
330
147
100
AcDbEntity
8
0
62
0
6
CONTINUOUS
100
AcDbPolyline
90
3
70
1
10
10
20
28
10
8.188875190130984
20
35.45937845420629
10
3.215956220660128
20
31.59155258906229
1001
CONDUITCAD
1000
{"id":"master-pv-module-9"}
0
ENDBLK
5
151
330
147
100
AcDbEntity
8
0
100
AcDbBlockEnd
0
BLOCK
5
152
330
148
100
AcDbEntity
8
0
100
AcDbBlockBegin
2
CC_DISCONNECT
70
0
10
0
20
0
30
0
3
CC_DISCONNECT
1

1001
CONDUITCAD
1000
{"ports":[{"name":"in","x":-45,"y":0,"dx":-1,"dy":0,"medium":"electrical","role":"connection"},{"name":"out","x":45,"y":0,"dx":1,"dy":0,"medium":"electrical","role":"connection"}],"symbol":{"name":"Di
1000
sconnector","category":"Electrical","group":"Power & protection","geometryRevision":3,"standardRefs":["IEC-60617"],"convention":"IEC-60617 family","conformity":"Original master; not standards-certifie
1000
d","normativeEntry":null,"review":{"level":"geometry-and-convention","dimensionalConformance":"not-verified","note":"New independently constructed CAD master with explicit terminal topology."},"aliase
1000
s":["disconnect"],"defaultLayer":"Electrical","labelOffset":48,"extents":{"minX":-45,"minY":-6,"maxX":45,"maxY":24}}}
0
LINE
5
118
330
148
100
AcDbEntity
8
0
62
0
6
CONTINUOUS
100
AcDbLine
10
-45
20
0
30
0
11
-20
21
0
31
0
1001
CONDUITCAD
1000
{"id":"master-disconnect-0"}
0
LINE
5
119
330
148
100
AcDbEntity
8
0
62
0
6
CONTINUOUS
100
AcDbLine
10
20
20
0
30
0
11
45
21
0
31
0
1001
CONDUITCAD
1000
{"id":"master-disconnect-1"}
0
CIRCLE
5
11A
330
148
100
AcDbEntity
8
0
62
0
6
CONTINUOUS
100
AcDbCircle
10
-20
20
0
30
0
40
2
1001
CONDUITCAD
1000
{"id":"master-disconnect-2"}
0
LINE
5
11B
330
148
100
AcDbEntity
8
0
62
0
6
CONTINUOUS
100
AcDbLine
10
-20
20
0
30
0
11
15
21
24
31
0
1001
CONDUITCAD
1000
{"id":"master-disconnect-3"}
0
LINE
5
11C
330
148
100
AcDbEntity
8
0
62
0
6
CONTINUOUS
100
AcDbLine
10
20
20
-6
30
0
11
20
21
6
31
0
1001
CONDUITCAD
1000
{"id":"master-disconnect-4"}
0
ENDBLK
5
153
330
148
100
AcDbEntity
8
0
100
AcDbBlockEnd
0
BLOCK
5
154
330
149
100
AcDbEntity
8
0
100
AcDbBlockBegin
2
CC_INVERTER
70
0
10
0
20
0
30
0
3
CC_INVERTER
1

1001
CONDUITCAD
1000
{"ports":[{"name":"in","x":-45,"y":0,"dx":-1,"dy":0,"medium":"electrical","role":"connection"},{"name":"out","x":45,"y":0,"dx":1,"dy":0,"medium":"electrical","role":"connection"}],"symbol":{"name":"DC
1000
 / AC inverter","category":"Electrical","group":"Power & protection","geometryRevision":3,"standardRefs":["IEC-60617"],"convention":"IEC-60617 family","conformity":"Original master; not standards-cert
1000
ified","normativeEntry":null,"review":{"level":"geometry-and-convention","dimensionalConformance":"not-verified","note":"New independently constructed CAD master with explicit terminal topology."},"al
1000
iases":["inverter"],"defaultLayer":"Electrical","labelOffset":48,"extents":{"minX":-45,"minY":-25,"maxX":45,"maxY":25}}}
0
LWPOLYLINE
5
11D
330
149
100
AcDbEntity
8
0
62
0
6
CONTINUOUS
100
AcDbPolyline
90
4
70
1
10
-30
20
-25
10
30
20
-25
10
30
20
25
10
-30
20
25
1001
CONDUITCAD
1000
{"id":"master-inverter-0"}
0
LINE
5
11E
330
149
100
AcDbEntity
8
0
62
0
6
CONTINUOUS
100
AcDbLine
10
-45
20
0
30
0
11
-30
21
0
31
0
1001
CONDUITCAD
1000
{"id":"master-inverter-1"}
0
LINE
5
11F
330
149
100
AcDbEntity
8
0
62
0
6
CONTINUOUS
100
AcDbLine
10
30
20
0
30
0
11
45
21
0
31
0
1001
CONDUITCAD
1000
{"id":"master-inverter-2"}
0
LINE
5
120
330
149
100
AcDbEntity
8
0
62
0
6
CONTINUOUS
100
AcDbLine
10
-30
20
-25
30
0
11
30
21
25
31
0
1001
CONDUITCAD
1000
{"id":"master-inverter-3"}
0
TEXT
5
121
330
149
100
AcDbEntity
8
0
62
0
6
CONTINUOUS
100
AcDbText
10
-14
20
10
30
0
40
14
1
=
50
0
41
1
7
STANDARD
72
1
11
-14
21
10
31
0
100
AcDbText
73
0
1001
CONDUITCAD
1000
{"id":"master-inverter-4"}
0
TEXT
5
122
330
149
100
AcDbEntity
8
0
62
0
6
CONTINUOUS
100
AcDbText
10
14
20
-18
30
0
40
18
1
~
50
0
41
1
7
STANDARD
72
1
11
14
21
-18
31
0
100
AcDbText
73
0
1001
CONDUITCAD
1000
{"id":"master-inverter-5"}
0
ENDBLK
5
155
330
149
100
AcDbEntity
8
0
100
AcDbBlockEnd
0
BLOCK
5
156
330
14A
100
AcDbEntity
8
0
100
AcDbBlockBegin
2
CC_CIRCUIT_BREAKER
70
0
10
0
20
0
30
0
3
CC_CIRCUIT_BREAKER
1

1001
CONDUITCAD
1000
{"ports":[{"name":"in","x":-45,"y":0,"dx":-1,"dy":0,"medium":"electrical","role":"connection"},{"name":"out","x":45,"y":0,"dx":1,"dy":0,"medium":"electrical","role":"connection"}],"symbol":{"name":"Ci
1000
rcuit breaker \u00b7 single-line","category":"Electrical","group":"Power & protection","geometryRevision":3,"standardRefs":["IEC-60617"],"convention":"IEC-60617 family","conformity":"Original master; 
1000
not standards-certified","normativeEntry":null,"review":{"level":"geometry-and-convention","dimensionalConformance":"not-verified","note":"New independently constructed CAD master with explicit termin
1000
al topology."},"aliases":["circuit breaker"],"defaultLayer":"Electrical","labelOffset":48,"extents":{"minX":-45,"minY":-17,"maxX":45,"maxY":20}}}
0
LINE
5
123
330
14A
100
AcDbEntity
8
0
62
0
6
CONTINUOUS
100
AcDbLine
10
-45
20
0
30
0
11
-18
21
0
31
0
1001
CONDUITCAD
1000
{"id":"master-circuit-breaker-0"}
0
LINE
5
124
330
14A
100
AcDbEntity
8
0
62
0
6
CONTINUOUS
100
AcDbLine
10
18
20
0
30
0
11
45
21
0
31
0
1001
CONDUITCAD
1000
{"id":"master-circuit-breaker-1"}
0
CIRCLE
5
125
330
14A
100
AcDbEntity
8
0
62
0
6
CONTINUOUS
100
AcDbCircle
10
-18
20
0
30
0
40
2
1001
CONDUITCAD
1000
{"id":"master-circuit-breaker-2"}
0
CIRCLE
5
126
330
14A
100
AcDbEntity
8
0
62
0
6
CONTINUOUS
100
AcDbCircle
10
18
20
0
30
0
40
2
1001
CONDUITCAD
1000
{"id":"master-circuit-breaker-3"}
0
LINE
5
127
330
14A
100
AcDbEntity
8
0
62
0
6
CONTINUOUS
100
AcDbLine
10
-18
20
0
30
0
11
13
21
20
31
0
1001
CONDUITCAD
1000
{"id":"master-circuit-breaker-4"}
0
LWPOLYLINE
5
128
330
14A
100
AcDbEntity
8
0
62
0
6
CONTINUOUS
100
AcDbPolyline
90
4
70
0
10
-7
20
-8
10
-7
20
-17
10
8
20
-17
10
8
20
-8
1001
CONDUITCAD
1000
{"id":"master-circuit-breaker-5"}
0
ENDBLK
5
157
330
14A
100
AcDbEntity
8
0
100
AcDbBlockEnd
0
BLOCK
5
158
330
14B
100
AcDbEntity
8
0
100
AcDbBlockBegin
2
CC_AC_SOURCE
70
0
10
0
20
0
30
0
3
CC_AC_SOURCE
1

1001
CONDUITCAD
1000
{"ports":[{"name":"in","x":-45,"y":0,"dx":-1,"dy":0,"medium":"electrical","role":"connection"},{"name":"out","x":45,"y":0,"dx":1,"dy":0,"medium":"electrical","role":"connection"}],"symbol":{"name":"AC
1000
 voltage source","category":"Electrical","group":"Sources","geometryRevision":3,"standardRefs":["IEC-60617"],"convention":"IEC-60617 family","conformity":"Original master; not standards-certified","no
1000
rmativeEntry":null,"review":{"level":"geometry-and-convention","dimensionalConformance":"not-verified","note":"New independently constructed CAD master with explicit terminal topology."},"aliases":["a
1000
c source"],"defaultLayer":"Electrical","labelOffset":48,"extents":{"minX":-45,"minY":-25.970550818758205,"maxX":45,"maxY":25.970550818758205}}}
0
LINE
5
129
330
14B
100
AcDbEntity
8
0
62
0
6
CONTINUOUS
100
AcDbLine
10
-45
20
0
30
0
11
-26
21
0
31
0
1001
CONDUITCAD
1000
{"id":"master-ac-source-0"}
0
LINE
5
12A
330
14B
100
AcDbEntity
8
0
62
0
6
CONTINUOUS
100
AcDbLine
10
26
20
0
30
0
11
45
21
0
31
0
1001
CONDUITCAD
1000
{"id":"master-ac-source-1"}
0
CIRCLE
5
12B
330
14B
100
AcDbEntity
8
0
62
0
6
CONTINUOUS
100
AcDbCircle
10
0
20
0
30
0
40
26
1001
CONDUITCAD
1000
{"id":"master-ac-source-2"}
0
SPLINE
5
12C
330
14B
100
AcDbEntity
8
0
62
0
6
CONTINUOUS
100
AcDbSpline
70
4
71
3
72
8
73
4
74
0
40
0
40
0
40
0
40
0
40
1
40
1
40
1
40
1
41
1
41
1
41
1
41
1
10
-17
20
0
30
0
10
-10
20
30
30
0
10
10
20
-30
30
0
10
17
20
0
30
0
1001
CONDUITCAD
1000
{"id":"master-ac-source-3"}
0
ENDBLK
5
159
330
14B
100
AcDbEntity
8
0
100
AcDbBlockEnd
0
ENDSEC
0
SECTION
2
ENTITIES
0
INSERT
5
100
330
145
100
AcDbEntity
8
Electrical
100
AcDbBlockReference
2
CC_PV_MODULE
10
130
20
350
30
0
41
1
42
1
43
1
50
0
66
1
1001
CONDUITCAD
1000
{"id":"e-muh4r61o-1ax","tag":"PV1"}
0
ATTRIB
5
15A
330
100
100
AcDbEntity
8
Electrical
100
AcDbText
10
130
20
302
30
0
40
12
1
PV1
50
0
41
1
7
STANDARD
72
1
11
130
21
302
31
0
100
AcDbAttribute
2
TAG
70
0
74
0
0
SEQEND
5
15B
330
100
100
AcDbEntity
8
Electrical
0
INSERT
5
101
330
145
100
AcDbEntity
8
Electrical
100
AcDbBlockReference
2
CC_DISCONNECT
10
320
20
350
30
0
41
1
42
1
43
1
50
0
66
1
1001
CONDUITCAD
1000
{"id":"e-muh4r61o-1ay","tag":"QS1"}
0
ATTRIB
5
15C
330
101
100
AcDbEntity
8
Electrical
100
AcDbText
10
320
20
302
30
0
40
12
1
QS1
50
0
41
1
7
STANDARD
72
1
11
320
21
302
31
0
100
AcDbAttribute
2
TAG
70
0
74
0
0
SEQEND
5
15D
330
101
100
AcDbEntity
8
Electrical
0
INSERT
5
102
330
145
100
AcDbEntity
8
Electrical
100
AcDbBlockReference
2
CC_INVERTER
10
510
20
350
30
0
41
1
42
1
43
1
50
0
66
1
1001
CONDUITCAD
1000
{"id":"e-muh4r61o-1az","tag":"INV1"}
0
ATTRIB
5
15E
330
102
100
AcDbEntity
8
Electrical
100
AcDbText
10
510
20
302
30
0
40
12
1
INV1
50
0
41
1
7
STANDARD
72
1
11
510
21
302
31
0
100
AcDbAttribute
2
TAG
70
0
74
0
0
SEQEND
5
15F
330
102
100
AcDbEntity
8
Electrical
0
INSERT
5
103
330
145
100
AcDbEntity
8
Electrical
100
AcDbBlockReference
2
CC_CIRCUIT_BREAKER
10
700
20
350
30
0
41
1
42
1
43
1
50
0
66
1
1001
CONDUITCAD
1000
{"id":"e-muh4r61o-1b0","tag":"QF1"}
0
ATTRIB
5
160
330
103
100
AcDbEntity
8
Electrical
100
AcDbText
10
700
20
302
30
0
40
12
1
QF1
50
0
41
1
7
STANDARD
72
1
11
700
21
302
31
0
100
AcDbAttribute
2
TAG
70
0
74
0
0
SEQEND
5
161
330
103
100
AcDbEntity
8
Electrical
0
INSERT
5
104
330
145
100
AcDbEntity
8
Electrical
100
AcDbBlockReference
2
CC_AC_SOURCE
10
890
20
350
30
0
41
1
42
1
43
1
50
0
66
1
1001
CONDUITCAD
1000
{"id":"e-muh4r61o-1b1","tag":"GRID"}
0
ATTRIB
5
162
330
104
100
AcDbEntity
8
Electrical
100
AcDbText
10
890
20
302
30
0
40
12
1
GRID
50
0
41
1
7
STANDARD
72
1
11
890
21
302
31
0
100
AcDbAttribute
2
TAG
70
0
74
0
0
SEQEND
5
163
330
104
100
AcDbEntity
8
Electrical
0
LWPOLYLINE
5
105
330
145
100
AcDbEntity
8
Electrical
62
7
420
6912436
100
AcDbPolyline
90
2
70
0
10
175
20
350
10
275
20
350
1001
CONDUITCAD
1000
{"id":"e-muh4r61p-1b2","connector":{"from":{"entityId":"e-muh4r61o-1ax","port":"out"},"to":{"entityId":"e-muh4r61o-1ay","port":"in"},"style":"electrical","arrow":"none","waypoints":[],"status":"routed
1000
"},"label":"DC","dash":[],"width":1.5}
0
LWPOLYLINE
5
106
330
145
100
AcDbEntity
8
Electrical
62
7
420
6912436
100
AcDbPolyline
90
2
70
0
10
365
20
350
10
465
20
350
1001
CONDUITCAD
1000
{"id":"e-muh4r61p-1b3","connector":{"from":{"entityId":"e-muh4r61o-1ay","port":"out"},"to":{"entityId":"e-muh4r61o-1az","port":"in"},"style":"electrical","arrow":"none","waypoints":[],"status":"routed
1000
"},"label":"DC","dash":[],"width":1.5}
0
LWPOLYLINE
5
107
330
145
100
AcDbEntity
8
Electrical
62
7
420
6912436
100
AcDbPolyline
90
2
70
0
10
555
20
350
10
655
20
350
1001
CONDUITCAD
1000
{"id":"e-muh4r61p-1b4","connector":{"from":{"entityId":"e-muh4r61o-1az","port":"out"},"to":{"entityId":"e-muh4r61o-1b0","port":"in"},"style":"power","arrow":"none","waypoints":[],"status":"routed"},"l
1000
abel":"AC","dash":[],"width":2.4}
0
LWPOLYLINE
5
108
330
145
100
AcDbEntity
8
Electrical
62
7
420
6912436
100
AcDbPolyline
90
2
70
0
10
745
20
350
10
845
20
350
1001
CONDUITCAD
1000
{"id":"e-muh4r61p-1b5","connector":{"from":{"entityId":"e-muh4r61o-1b0","port":"out"},"to":{"entityId":"e-muh4r61o-1b1","port":"in"},"style":"power","arrow":"none","waypoints":[],"status":"routed"},"l
1000
abel":"AC","dash":[],"width":2.4}
0
TEXT
5
109
330
145
100
AcDbEntity
8
Annotations
100
AcDbText
10
40
20
620
30
0
40
27
1
Solar power conversion
50
0
41
1
7
STANDARD
100
AcDbText
73
0
1001
CONDUITCAD
1000
{"id":"e-muh4r61p-1b6"}
0
TEXT
5
10A
330
145
100
AcDbEntity
8
Annotations
100
AcDbText
10
40
20
584
30
0
40
13
1
Renewable energy  /  Power conversion schematic
50
0
41
1
7
STANDARD
100
AcDbText
73
0
1001
CONDUITCAD
1000
{"id":"e-muh4r61p-1b7"}
0
LINE
5
10B
330
145
100
AcDbEntity
8
Annotations
100
AcDbLine
10
40
20
562
30
0
11
1120
21
562
31
0
1001
CONDUITCAD
1000
{"id":"e-muh4r61p-1b8"}
0
TEXT
5
10C
330
145
100
AcDbEntity
8
Annotations
100
AcDbText
10
40
20
42
30
0
40
11
1
CONCEPT SCHEMATIC — NOT FOR CONSTRUCTION
50
0
41
1
7
STANDARD
100
AcDbText
73
0
1001
CONDUITCAD
1000
{"id":"e-muh4r61p-1b9"}
0
TEXT
5
10D
330
145
100
AcDbEntity
8
Annotations
100
AcDbText
10
650
20
42
30
0
40
11
1
SOLAR  |  REV 03  |  mm
50
0
41
1
7
STANDARD
100
AcDbText
73
0
1001
CONDUITCAD
1000
{"id":"e-muh4r61p-1ba"}
0
ENDSEC
0
SECTION
2
OBJECTS
0
DICTIONARY
5
16A
330
0
100
AcDbDictionary
281
1
3
ACAD_LAYOUT
350
16B
3
ACAD_GROUP
350
16C
3
CONDUITCAD_METADATA
350
16F
0
DICTIONARY
5
16B
330
16A
100
AcDbDictionary
281
1
3
Model
350
16D
3
Layout1
350
16E
0
DICTIONARY
5
16C
330
16A
100
AcDbDictionary
281
1
0
LAYOUT
5
16D
330
16B
100
AcDbPlotSettings
1

2

4

6

40
0
41
0
42
0
43
0
44
420
45
297
46
0
47
0
48
0
49
0
140
0
141
0
142
1
143
1
70
0
72
1
73
0
74
5
7

75
16
76
0
77
0
78
300
147
1
148
0
149
0
100
AcDbLayout
1
Model
70
1
71
0
10
0
20
0
11
420
21
297
12
0
22
0
32
0
14
0
24
0
34
0
15
420
25
297
35
0
146
0
13
0
23
0
33
0
16
1
26
0
36
0
17
0
27
1
37
0
76
0
330
145
0
LAYOUT
5
16E
330
16B
100
AcDbPlotSettings
1

2

4

6

40
0
41
0
42
0
43
0
44
420
45
297
46
0
47
0
48
0
49
0
140
0
141
0
142
1
143
1
70
0
72
1
73
0
74
5
7

75
16
76
0
77
0
78
300
147
1
148
0
149
0
100
AcDbLayout
1
Layout1
70
1
71
1
10
0
20
0
11
420
21
297
12
0
22
0
32
0
14
0
24
0
34
0
15
420
25
297
35
0
146
0
13
0
23
0
33
0
16
1
26
0
36
0
17
0
27
1
37
0
76
0
330
146
0
XRECORD
5
16F
330
16A
100
AcDbXrecord
280
1
1
{"parameters":{"grid":"10","pipeWidth":"2","valveSize":"64"},"constraints":[],"metadata":{"author":"","description":"Photovoltaic generation, DC isolation, inverter and AC protection.","industry":"Ren
1
ewable energy","drawingType":"Power conversion schematic","templateId":"solar","standardRefs":["IEC-60617","PROJECT"],"geometryRevision":3,"approval":"Concept schematic; engineering approval required"
1
}}
0
ENDSEC
0
EOF
