0
SECTION
2
HEADER
9
$ACADVER
1
AC1024
9
$INSUNITS
70
4
9
$LTSCALE
40
1
9
$MEASUREMENT
70
1
999
CONDUIT:{"parameters":{"grid":"10","pipeWidth":"2","valveSize":"64"},"constraints":[],"metadata":{"author":"","description":"Photovoltaic generation, DC isolation, inverter and AC protecti
999
CONDUIT:on.","industry":"Renewable energy","drawingType":"Power conversion schematic","templateId":"solar","standardRefs":["IEC-60617","PROJECT"],"geometryRevision":3,"approval":"Concept s
999
CONDUIT:chematic; engineering approval required"}}
0
ENDSEC
0
SECTION
2
TABLES
0
TABLE
2
LTYPE
5
100
330
0
100
AcDbSymbolTable
70
1
0
LTYPE
5
101
100
AcDbSymbolTableRecord
100
AcDbLinetypeTableRecord
2
CONTINUOUS
70
0
3
Solid line
72
65
73
0
40
0
0
LTYPE
5
102
100
AcDbSymbolTableRecord
100
AcDbLinetypeTableRecord
2
DASHED
70
0
3
DASHED
72
65
73
2
40
12
49
8
74
0
49
-4
74
0
0
LTYPE
5
103
100
AcDbSymbolTableRecord
100
AcDbLinetypeTableRecord
2
CENTER
70
0
3
CENTER
72
65
73
4
40
20
49
12
74
0
49
-3
74
0
49
2
74
0
49
-3
74
0
0
LTYPE
5
104
100
AcDbSymbolTableRecord
100
AcDbLinetypeTableRecord
2
HIDDEN
70
0
3
HIDDEN
72
65
73
2
40
7
49
4
74
0
49
-3
74
0
0
ENDTAB
0
TABLE
2
LAYER
5
105
330
0
100
AcDbSymbolTable
70
13
0
LAYER
5
106
100
AcDbSymbolTableRecord
100
AcDbLayerTableRecord
2
0
70
0
62
7
420
3426133
6
CONTINUOUS
0
LAYER
5
107
100
AcDbSymbolTableRecord
100
AcDbLayerTableRecord
2
Equipment
70
0
62
7
420
3495011
6
CONTINUOUS
0
LAYER
5
108
100
AcDbSymbolTableRecord
100
AcDbLayerTableRecord
2
Process
70
0
62
7
420
1342583
6
CONTINUOUS
0
LAYER
5
109
100
AcDbSymbolTableRecord
100
AcDbLayerTableRecord
2
Instruments
70
0
62
7
420
10187334
6
CONTINUOUS
0
LAYER
5
10A
100
AcDbSymbolTableRecord
100
AcDbLayerTableRecord
2
Electrical
70
0
62
7
420
6584250
6
CONTINUOUS
0
LAYER
5
10B
100
AcDbSymbolTableRecord
100
AcDbLayerTableRecord
2
Annotations
70
0
62
7
420
7438474
6
CONTINUOUS
0
LAYER
5
10C
100
AcDbSymbolTableRecord
100
AcDbLayerTableRecord
2
Hydraulics
70
0
62
7
420
3495011
6
CONTINUOUS
0
LAYER
5
10D
100
AcDbSymbolTableRecord
100
AcDbLayerTableRecord
2
Pneumatics
70
0
62
7
420
3495011
6
CONTINUOUS
0
LAYER
5
10E
100
AcDbSymbolTableRecord
100
AcDbLayerTableRecord
2
HVAC
70
0
62
7
420
3495011
6
CONTINUOUS
0
LAYER
5
10F
100
AcDbSymbolTableRecord
100
AcDbLayerTableRecord
2
Water
70
0
62
7
420
3495011
6
CONTINUOUS
0
LAYER
5
110
100
AcDbSymbolTableRecord
100
AcDbLayerTableRecord
2
Automation
70
0
62
7
420
3495011
6
CONTINUOUS
0
LAYER
5
111
100
AcDbSymbolTableRecord
100
AcDbLayerTableRecord
2
Fire
70
0
62
7
420
3495011
6
CONTINUOUS
0
LAYER
5
112
100
AcDbSymbolTableRecord
100
AcDbLayerTableRecord
2
Network
70
0
62
7
420
3495011
6
CONTINUOUS
0
ENDTAB
0
TABLE
2
STYLE
5
113
330
0
100
AcDbSymbolTable
70
1
0
STYLE
5
114
100
AcDbSymbolTableRecord
100
AcDbTextStyleTableRecord
2
STANDARD
70
0
40
0
41
1
50
0
71
0
42
2.5
3
txt
4

0
ENDTAB
0
TABLE
2
APPID
5
115
330
0
100
AcDbSymbolTable
70
1
0
APPID
5
116
100
AcDbSymbolTableRecord
100
AcDbRegAppTableRecord
2
CONDUITCAD
70
0
0
ENDTAB
0
TABLE
2
BLOCK_RECORD
5
117
330
0
100
AcDbSymbolTable
70
7
0
BLOCK_RECORD
5
118
100
AcDbSymbolTableRecord
100
AcDbBlockTableRecord
2
*Model_Space
0
BLOCK_RECORD
5
119
100
AcDbSymbolTableRecord
100
AcDbBlockTableRecord
2
*Paper_Space
0
BLOCK_RECORD
5
11A
100
AcDbSymbolTableRecord
100
AcDbBlockTableRecord
2
CC_PV_MODULE
0
BLOCK_RECORD
5
11B
100
AcDbSymbolTableRecord
100
AcDbBlockTableRecord
2
CC_DISCONNECT
0
BLOCK_RECORD
5
11C
100
AcDbSymbolTableRecord
100
AcDbBlockTableRecord
2
CC_INVERTER
0
BLOCK_RECORD
5
11D
100
AcDbSymbolTableRecord
100
AcDbBlockTableRecord
2
CC_CIRCUIT_BREAKER
0
BLOCK_RECORD
5
11E
100
AcDbSymbolTableRecord
100
AcDbBlockTableRecord
2
CC_AC_SOURCE
0
ENDTAB
0
ENDSEC
0
SECTION
2
BLOCKS
0
BLOCK
5
11F
330
118
100
AcDbEntity
8
0
100
AcDbBlockBegin
2
*Model_Space
70
0
10
0
20
0
30
0
3
*Model_Space
1

1001
CONDUITCAD
1000
{"ports":[]}
0
ENDBLK
5
120
330
118
100
AcDbEntity
8
0
100
AcDbBlockEnd
0
BLOCK
5
121
330
119
100
AcDbEntity
8
0
100
AcDbBlockBegin
2
*Paper_Space
70
0
10
0
20
0
30
0
3
*Paper_Space
1

1001
CONDUITCAD
1000
{"ports":[]}
0
ENDBLK
5
122
330
119
100
AcDbEntity
8
0
100
AcDbBlockEnd
0
BLOCK
5
123
330
11A
100
AcDbEntity
8
0
100
AcDbBlockBegin
2
CC_PV_MODULE
70
0
10
0
20
0
30
0
3
CC_PV_MODULE
1

1001
CONDUITCAD
1000
{"ports":[{"name":"in","x":-45,"y":0,"dx":-1,"dy":0,"medium":"electrical","role":"connection"},{"name":"out","x":45,"y":0,"dx":1,"dy":0,"medium":"electrical","role":"connection"}],"symbol":{"name":"Ph
1000
otovoltaic module","category":"Electrical","group":"Sources","standardRefs":["PROJECT"],"geometryRevision":3,"convention":"Explicit project drafting convention","conformity":"Original master; not stan
1000
dards-certified","normativeEntry":null,"review":{"level":"geometry-and-convention","dimensionalConformance":"not-verified","note":"New independently constructed CAD master with explicit terminal topol
1000
ogy."},"aliases":["pv module"],"defaultLayer":"Electrical","labelOffset":48,"extents":{"minX":-45,"minY":-20,"maxX":45,"maxY":46}}}
0
LINE
5
124
330
11A
100
AcDbEntity
8
0
62
0
6
CONTINUOUS
100
AcDbLine
10
-45
20
0
30
0
11
-30
21
0
31
0
1001
CONDUITCAD
1000
{"id":"master-pv-module-0"}
0
LINE
5
125
330
11A
100
AcDbEntity
8
0
62
0
6
CONTINUOUS
100
AcDbLine
10
30
20
0
30
0
11
45
21
0
31
0
1001
CONDUITCAD
1000
{"id":"master-pv-module-1"}
0
LWPOLYLINE
5
126
330
11A
100
AcDbEntity
8
0
62
0
6
CONTINUOUS
100
AcDbPolyline
90
4
70
1
10
-30
20
-20
10
30
20
-20
10
30
20
20
10
-30
20
20
1001
CONDUITCAD
1000
{"id":"master-pv-module-2"}
0
LINE
5
127
330
11A
100
AcDbEntity
8
0
62
0
6
CONTINUOUS
100
AcDbLine
10
-10
20
-20
30
0
11
-10
21
20
31
0
1001
CONDUITCAD
1000
{"id":"master-pv-module-3"}
0
LINE
5
128
330
11A
100
AcDbEntity
8
0
62
0
6
CONTINUOUS
100
AcDbLine
10
10
20
-20
30
0
11
10
21
20
31
0
1001
CONDUITCAD
1000
{"id":"master-pv-module-4"}
0
LINE
5
129
330
11A
100
AcDbEntity
8
0
62
0
6
CONTINUOUS
100
AcDbLine
10
-30
20
0
30
0
11
30
21
0
31
0
1001
CONDUITCAD
1000
{"id":"master-pv-module-5"}
0
LINE
5
12A
330
11A
100
AcDbEntity
8
0
62
0
6
CONTINUOUS
100
AcDbLine
10
-22
20
46
30
0
11
-8
21
28
31
0
1001
CONDUITCAD
1000
{"id":"master-pv-module-6"}
0
LWPOLYLINE
5
12B
330
11A
100
AcDbEntity
8
0
62
0
6
CONTINUOUS
100
AcDbPolyline
90
3
70
1
10
-8
20
28
10
-9.811124809869016
20
35.45937845420629
10
-14.784043779339873
20
31.59155258906229
1001
CONDUITCAD
1000
{"id":"master-pv-module-7"}
0
LINE
5
12C
330
11A
100
AcDbEntity
8
0
62
0
6
CONTINUOUS
100
AcDbLine
10
-4
20
46
30
0
11
10
21
28
31
0
1001
CONDUITCAD
1000
{"id":"master-pv-module-8"}
0
LWPOLYLINE
5
12D
330
11A
100
AcDbEntity
8
0
62
0
6
CONTINUOUS
100
AcDbPolyline
90
3
70
1
10
10
20
28
10
8.188875190130984
20
35.45937845420629
10
3.215956220660128
20
31.59155258906229
1001
CONDUITCAD
1000
{"id":"master-pv-module-9"}
0
ENDBLK
5
12E
330
11A
100
AcDbEntity
8
0
100
AcDbBlockEnd
0
BLOCK
5
12F
330
11B
100
AcDbEntity
8
0
100
AcDbBlockBegin
2
CC_DISCONNECT
70
0
10
0
20
0
30
0
3
CC_DISCONNECT
1

1001
CONDUITCAD
1000
{"ports":[{"name":"in","x":-45,"y":0,"dx":-1,"dy":0,"medium":"electrical","role":"connection"},{"name":"out","x":45,"y":0,"dx":1,"dy":0,"medium":"electrical","role":"connection"}],"symbol":{"name":"Di
1000
sconnector","category":"Electrical","group":"Power & protection","geometryRevision":3,"standardRefs":["IEC-60617"],"convention":"IEC-60617 family","conformity":"Original master; not standards-certifie
1000
d","normativeEntry":null,"review":{"level":"geometry-and-convention","dimensionalConformance":"not-verified","note":"New independently constructed CAD master with explicit terminal topology."},"aliase
1000
s":["disconnect"],"defaultLayer":"Electrical","labelOffset":48,"extents":{"minX":-45,"minY":-6,"maxX":45,"maxY":24}}}
0
LINE
5
130
330
11B
100
AcDbEntity
8
0
62
0
6
CONTINUOUS
100
AcDbLine
10
-45
20
0
30
0
11
-20
21
0
31
0
1001
CONDUITCAD
1000
{"id":"master-disconnect-0"}
0
LINE
5
131
330
11B
100
AcDbEntity
8
0
62
0
6
CONTINUOUS
100
AcDbLine
10
20
20
0
30
0
11
45
21
0
31
0
1001
CONDUITCAD
1000
{"id":"master-disconnect-1"}
0
CIRCLE
5
132
330
11B
100
AcDbEntity
8
0
62
0
6
CONTINUOUS
100
AcDbCircle
10
-20
20
0
30
0
40
2
1001
CONDUITCAD
1000
{"id":"master-disconnect-2"}
0
LINE
5
133
330
11B
100
AcDbEntity
8
0
62
0
6
CONTINUOUS
100
AcDbLine
10
-20
20
0
30
0
11
15
21
24
31
0
1001
CONDUITCAD
1000
{"id":"master-disconnect-3"}
0
LINE
5
134
330
11B
100
AcDbEntity
8
0
62
0
6
CONTINUOUS
100
AcDbLine
10
20
20
-6
30
0
11
20
21
6
31
0
1001
CONDUITCAD
1000
{"id":"master-disconnect-4"}
0
ENDBLK
5
135
330
11B
100
AcDbEntity
8
0
100
AcDbBlockEnd
0
BLOCK
5
136
330
11C
100
AcDbEntity
8
0
100
AcDbBlockBegin
2
CC_INVERTER
70
0
10
0
20
0
30
0
3
CC_INVERTER
1

1001
CONDUITCAD
1000
{"ports":[{"name":"in","x":-45,"y":0,"dx":-1,"dy":0,"medium":"electrical","role":"connection"},{"name":"out","x":45,"y":0,"dx":1,"dy":0,"medium":"electrical","role":"connection"}],"symbol":{"name":"DC
1000
 / AC inverter","category":"Electrical","group":"Power & protection","geometryRevision":3,"standardRefs":["IEC-60617"],"convention":"IEC-60617 family","conformity":"Original master; not standards-cert
1000
ified","normativeEntry":null,"review":{"level":"geometry-and-convention","dimensionalConformance":"not-verified","note":"New independently constructed CAD master with explicit terminal topology."},"al
1000
iases":["inverter"],"defaultLayer":"Electrical","labelOffset":48,"extents":{"minX":-45,"minY":-25,"maxX":45,"maxY":25}}}
0
LWPOLYLINE
5
137
330
11C
100
AcDbEntity
8
0
62
0
6
CONTINUOUS
100
AcDbPolyline
90
4
70
1
10
-30
20
-25
10
30
20
-25
10
30
20
25
10
-30
20
25
1001
CONDUITCAD
1000
{"id":"master-inverter-0"}
0
LINE
5
138
330
11C
100
AcDbEntity
8
0
62
0
6
CONTINUOUS
100
AcDbLine
10
-45
20
0
30
0
11
-30
21
0
31
0
1001
CONDUITCAD
1000
{"id":"master-inverter-1"}
0
LINE
5
139
330
11C
100
AcDbEntity
8
0
62
0
6
CONTINUOUS
100
AcDbLine
10
30
20
0
30
0
11
45
21
0
31
0
1001
CONDUITCAD
1000
{"id":"master-inverter-2"}
0
LINE
5
13A
330
11C
100
AcDbEntity
8
0
62
0
6
CONTINUOUS
100
AcDbLine
10
-30
20
-25
30
0
11
30
21
25
31
0
1001
CONDUITCAD
1000
{"id":"master-inverter-3"}
0
TEXT
5
13B
330
11C
100
AcDbEntity
8
0
62
0
6
CONTINUOUS
100
AcDbText
10
-14
20
10
30
0
40
14
1
=
50
0
41
1
7
STANDARD
72
1
11
-14
21
10
31
0
100
AcDbText
73
0
1001
CONDUITCAD
1000
{"id":"master-inverter-4"}
0
TEXT
5
13C
330
11C
100
AcDbEntity
8
0
62
0
6
CONTINUOUS
100
AcDbText
10
14
20
-18
30
0
40
18
1
~
50
0
41
1
7
STANDARD
72
1
11
14
21
-18
31
0
100
AcDbText
73
0
1001
CONDUITCAD
1000
{"id":"master-inverter-5"}
0
ENDBLK
5
13D
330
11C
100
AcDbEntity
8
0
100
AcDbBlockEnd
0
BLOCK
5
13E
330
11D
100
AcDbEntity
8
0
100
AcDbBlockBegin
2
CC_CIRCUIT_BREAKER
70
0
10
0
20
0
30
0
3
CC_CIRCUIT_BREAKER
1

1001
CONDUITCAD
1000
{"ports":[{"name":"in","x":-45,"y":0,"dx":-1,"dy":0,"medium":"electrical","role":"connection"},{"name":"out","x":45,"y":0,"dx":1,"dy":0,"medium":"electrical","role":"connection"}],"symbol":{"name":"Ci
1000
rcuit breaker \u00b7 single-line","category":"Electrical","group":"Power & protection","geometryRevision":3,"standardRefs":["IEC-60617"],"convention":"IEC-60617 family","conformity":"Original master; 
1000
not standards-certified","normativeEntry":null,"review":{"level":"geometry-and-convention","dimensionalConformance":"not-verified","note":"New independently constructed CAD master with explicit termin
1000
al topology."},"aliases":["circuit breaker"],"defaultLayer":"Electrical","labelOffset":48,"extents":{"minX":-45,"minY":-17,"maxX":45,"maxY":20}}}
0
LINE
5
13F
330
11D
100
AcDbEntity
8
0
62
0
6
CONTINUOUS
100
AcDbLine
10
-45
20
0
30
0
11
-18
21
0
31
0
1001
CONDUITCAD
1000
{"id":"master-circuit-breaker-0"}
0
LINE
5
140
330
11D
100
AcDbEntity
8
0
62
0
6
CONTINUOUS
100
AcDbLine
10
18
20
0
30
0
11
45
21
0
31
0
1001
CONDUITCAD
1000
{"id":"master-circuit-breaker-1"}
0
CIRCLE
5
141
330
11D
100
AcDbEntity
8
0
62
0
6
CONTINUOUS
100
AcDbCircle
10
-18
20
0
30
0
40
2
1001
CONDUITCAD
1000
{"id":"master-circuit-breaker-2"}
0
CIRCLE
5
142
330
11D
100
AcDbEntity
8
0
62
0
6
CONTINUOUS
100
AcDbCircle
10
18
20
0
30
0
40
2
1001
CONDUITCAD
1000
{"id":"master-circuit-breaker-3"}
0
LINE
5
143
330
11D
100
AcDbEntity
8
0
62
0
6
CONTINUOUS
100
AcDbLine
10
-18
20
0
30
0
11
13
21
20
31
0
1001
CONDUITCAD
1000
{"id":"master-circuit-breaker-4"}
0
LWPOLYLINE
5
144
330
11D
100
AcDbEntity
8
0
62
0
6
CONTINUOUS
100
AcDbPolyline
90
4
70
0
10
-7
20
-8
10
-7
20
-17
10
8
20
-17
10
8
20
-8
1001
CONDUITCAD
1000
{"id":"master-circuit-breaker-5"}
0
ENDBLK
5
145
330
11D
100
AcDbEntity
8
0
100
AcDbBlockEnd
0
BLOCK
5
146
330
11E
100
AcDbEntity
8
0
100
AcDbBlockBegin
2
CC_AC_SOURCE
70
0
10
0
20
0
30
0
3
CC_AC_SOURCE
1

1001
CONDUITCAD
1000
{"ports":[{"name":"in","x":-45,"y":0,"dx":-1,"dy":0,"medium":"electrical","role":"connection"},{"name":"out","x":45,"y":0,"dx":1,"dy":0,"medium":"electrical","role":"connection"}],"symbol":{"name":"AC
1000
 voltage source","category":"Electrical","group":"Sources","geometryRevision":3,"standardRefs":["IEC-60617"],"convention":"IEC-60617 family","conformity":"Original master; not standards-certified","no
1000
rmativeEntry":null,"review":{"level":"geometry-and-convention","dimensionalConformance":"not-verified","note":"New independently constructed CAD master with explicit terminal topology."},"aliases":["a
1000
c source"],"defaultLayer":"Electrical","labelOffset":48,"extents":{"minX":-45,"minY":-25.970550818758205,"maxX":45,"maxY":25.970550818758205}}}
0
LINE
5
147
330
11E
100
AcDbEntity
8
0
62
0
6
CONTINUOUS
100
AcDbLine
10
-45
20
0
30
0
11
-26
21
0
31
0
1001
CONDUITCAD
1000
{"id":"master-ac-source-0"}
0
LINE
5
148
330
11E
100
AcDbEntity
8
0
62
0
6
CONTINUOUS
100
AcDbLine
10
26
20
0
30
0
11
45
21
0
31
0
1001
CONDUITCAD
1000
{"id":"master-ac-source-1"}
0
CIRCLE
5
149
330
11E
100
AcDbEntity
8
0
62
0
6
CONTINUOUS
100
AcDbCircle
10
0
20
0
30
0
40
26
1001
CONDUITCAD
1000
{"id":"master-ac-source-2"}
0
SPLINE
5
14A
330
11E
100
AcDbEntity
8
0
62
0
6
CONTINUOUS
100
AcDbSpline
70
12
71
3
72
8
73
4
74
0
40
0
40
0
40
0
40
0
40
1
40
1
40
1
40
1
41
1
41
1
41
1
41
1
10
-17
20
0
30
0
10
-10
20
30
30
0
10
10
20
-30
30
0
10
17
20
0
30
0
1001
CONDUITCAD
1000
{"id":"master-ac-source-3"}
0
ENDBLK
5
14B
330
11E
100
AcDbEntity
8
0
100
AcDbBlockEnd
0
ENDSEC
0
SECTION
2
ENTITIES
0
INSERT
5
14C
330
118
100
AcDbEntity
8
Electrical
100
AcDbBlockReference
2
CC_PV_MODULE
10
130
20
350
30
0
41
1
42
1
43
1
50
0
66
1
1001
CONDUITCAD
1000
{"id":"e-mugr5p50-1ax","tag":"PV1"}
0
ATTRIB
5
14D
330
118
100
AcDbEntity
8
Electrical
100
AcDbText
10
130
20
302
30
0
40
12
1
PV1
50
0
41
1
7
STANDARD
72
1
11
130
21
302
31
0
100
AcDbAttribute
2
TAG
70
0
74
0
0
SEQEND
5
14E
100
AcDbEntity
8
Electrical
0
INSERT
5
14F
330
118
100
AcDbEntity
8
Electrical
100
AcDbBlockReference
2
CC_DISCONNECT
10
320
20
350
30
0
41
1
42
1
43
1
50
0
66
1
1001
CONDUITCAD
1000
{"id":"e-mugr5p50-1ay","tag":"QS1"}
0
ATTRIB
5
150
330
118
100
AcDbEntity
8
Electrical
100
AcDbText
10
320
20
302
30
0
40
12
1
QS1
50
0
41
1
7
STANDARD
72
1
11
320
21
302
31
0
100
AcDbAttribute
2
TAG
70
0
74
0
0
SEQEND
5
151
100
AcDbEntity
8
Electrical
0
INSERT
5
152
330
118
100
AcDbEntity
8
Electrical
100
AcDbBlockReference
2
CC_INVERTER
10
510
20
350
30
0
41
1
42
1
43
1
50
0
66
1
1001
CONDUITCAD
1000
{"id":"e-mugr5p50-1az","tag":"INV1"}
0
ATTRIB
5
153
330
118
100
AcDbEntity
8
Electrical
100
AcDbText
10
510
20
302
30
0
40
12
1
INV1
50
0
41
1
7
STANDARD
72
1
11
510
21
302
31
0
100
AcDbAttribute
2
TAG
70
0
74
0
0
SEQEND
5
154
100
AcDbEntity
8
Electrical
0
INSERT
5
155
330
118
100
AcDbEntity
8
Electrical
100
AcDbBlockReference
2
CC_CIRCUIT_BREAKER
10
700
20
350
30
0
41
1
42
1
43
1
50
0
66
1
1001
CONDUITCAD
1000
{"id":"e-mugr5p50-1b0","tag":"QF1"}
0
ATTRIB
5
156
330
118
100
AcDbEntity
8
Electrical
100
AcDbText
10
700
20
302
30
0
40
12
1
QF1
50
0
41
1
7
STANDARD
72
1
11
700
21
302
31
0
100
AcDbAttribute
2
TAG
70
0
74
0
0
SEQEND
5
157
100
AcDbEntity
8
Electrical
0
INSERT
5
158
330
118
100
AcDbEntity
8
Electrical
100
AcDbBlockReference
2
CC_AC_SOURCE
10
890
20
350
30
0
41
1
42
1
43
1
50
0
66
1
1001
CONDUITCAD
1000
{"id":"e-mugr5p50-1b1","tag":"GRID"}
0
ATTRIB
5
159
330
118
100
AcDbEntity
8
Electrical
100
AcDbText
10
890
20
302
30
0
40
12
1
GRID
50
0
41
1
7
STANDARD
72
1
11
890
21
302
31
0
100
AcDbAttribute
2
TAG
70
0
74
0
0
SEQEND
5
15A
100
AcDbEntity
8
Electrical
0
LWPOLYLINE
5
15B
330
118
100
AcDbEntity
8
Electrical
62
7
420
6912436
100
AcDbPolyline
90
2
70
0
10
175
20
350
10
275
20
350
1001
CONDUITCAD
1000
{"id":"e-mugr5p51-1b2","connector":{"from":{"entityId":"e-mugr5p50-1ax","port":"out"},"to":{"entityId":"e-mugr5p50-1ay","port":"in"},"style":"electrical","arrow":"none","waypoints":[],"status":"routed
1000
"},"label":"DC","dash":[],"width":1.5}
0
LWPOLYLINE
5
15C
330
118
100
AcDbEntity
8
Electrical
62
7
420
6912436
100
AcDbPolyline
90
2
70
0
10
365
20
350
10
465
20
350
1001
CONDUITCAD
1000
{"id":"e-mugr5p51-1b3","connector":{"from":{"entityId":"e-mugr5p50-1ay","port":"out"},"to":{"entityId":"e-mugr5p50-1az","port":"in"},"style":"electrical","arrow":"none","waypoints":[],"status":"routed
1000
"},"label":"DC","dash":[],"width":1.5}
0
LWPOLYLINE
5
15D
330
118
100
AcDbEntity
8
Electrical
62
7
420
6912436
100
AcDbPolyline
90
2
70
0
10
555
20
350
10
655
20
350
1001
CONDUITCAD
1000
{"id":"e-mugr5p51-1b4","connector":{"from":{"entityId":"e-mugr5p50-1az","port":"out"},"to":{"entityId":"e-mugr5p50-1b0","port":"in"},"style":"power","arrow":"none","waypoints":[],"status":"routed"},"l
1000
abel":"AC","dash":[],"width":2.4}
0
LWPOLYLINE
5
15E
330
118
100
AcDbEntity
8
Electrical
62
7
420
6912436
100
AcDbPolyline
90
2
70
0
10
745
20
350
10
845
20
350
1001
CONDUITCAD
1000
{"id":"e-mugr5p51-1b5","connector":{"from":{"entityId":"e-mugr5p50-1b0","port":"out"},"to":{"entityId":"e-mugr5p50-1b1","port":"in"},"style":"power","arrow":"none","waypoints":[],"status":"routed"},"l
1000
abel":"AC","dash":[],"width":2.4}
0
TEXT
5
15F
330
118
100
AcDbEntity
8
Annotations
100
AcDbText
10
40
20
620
30
0
40
27
1
Solar power conversion
50
0
41
1
7
STANDARD
100
AcDbText
73
0
1001
CONDUITCAD
1000
{"id":"e-mugr5p51-1b6"}
0
TEXT
5
160
330
118
100
AcDbEntity
8
Annotations
100
AcDbText
10
40
20
584
30
0
40
13
1
Renewable energy  /  Power conversion schematic
50
0
41
1
7
STANDARD
100
AcDbText
73
0
1001
CONDUITCAD
1000
{"id":"e-mugr5p51-1b7"}
0
LINE
5
161
330
118
100
AcDbEntity
8
Annotations
100
AcDbLine
10
40
20
562
30
0
11
1120
21
562
31
0
1001
CONDUITCAD
1000
{"id":"e-mugr5p51-1b8"}
0
TEXT
5
162
330
118
100
AcDbEntity
8
Annotations
100
AcDbText
10
40
20
42
30
0
40
11
1
CONCEPT SCHEMATIC — NOT FOR CONSTRUCTION
50
0
41
1
7
STANDARD
100
AcDbText
73
0
1001
CONDUITCAD
1000
{"id":"e-mugr5p51-1b9"}
0
TEXT
5
163
330
118
100
AcDbEntity
8
Annotations
100
AcDbText
10
650
20
42
30
0
40
11
1
SOLAR  |  REV 03  |  mm
50
0
41
1
7
STANDARD
100
AcDbText
73
0
1001
CONDUITCAD
1000
{"id":"e-mugr5p51-1ba"}
0
ENDSEC
0
EOF
