0
SECTION
2
HEADER
9
$ACADVER
1
AC1024
9
$INSUNITS
70
4
9
$LTSCALE
40
1
9
$MEASUREMENT
70
1
999
CONDUIT:{"parameters":{"Width":"120","Height":"60","Radius":"22","BarLength":"80"},"constraints":[{"id":"edge-length","type":"length","entityId":"driven-edge","value":"Width"}],"metadata":
999
CONDUIT:{"author":"","description":"","visualEditing":{"version":1,"description":"A native 2D editing workshop; select an object then Edit on canvas. Includes shared blocks and managed dim
999
CONDUIT:ensions."}}}
9
$HANDSEED
5
147
9
$DWGCODEPAGE
3
ANSI_1252
9
$CLAYER
8
0
9
$TILEMODE
70
1
0
ENDSEC
0
SECTION
2
TABLES
0
TABLE
2
LTYPE
5
11B
330
0
100
AcDbSymbolTable
70
4
0
LTYPE
5
11C
100
AcDbSymbolTableRecord
100
AcDbLinetypeTableRecord
2
CONTINUOUS
70
0
3
Solid line
72
65
73
0
40
0
330
11B
0
LTYPE
5
11D
100
AcDbSymbolTableRecord
100
AcDbLinetypeTableRecord
2
DASHED
70
0
3
DASHED
72
65
73
2
40
12
49
8
74
0
49
-4
74
0
330
11B
0
LTYPE
5
11E
100
AcDbSymbolTableRecord
100
AcDbLinetypeTableRecord
2
CENTER
70
0
3
CENTER
72
65
73
4
40
20
49
12
74
0
49
-3
74
0
49
2
74
0
49
-3
74
0
330
11B
0
LTYPE
5
11F
100
AcDbSymbolTableRecord
100
AcDbLinetypeTableRecord
2
HIDDEN
70
0
3
HIDDEN
72
65
73
2
40
7
49
4
74
0
49
-3
74
0
330
11B
0
ENDTAB
0
TABLE
2
LAYER
5
120
330
0
100
AcDbSymbolTable
70
6
0
LAYER
5
121
100
AcDbSymbolTableRecord
100
AcDbLayerTableRecord
2
0
70
0
62
7
420
3426133
6
CONTINUOUS
330
120
0
LAYER
5
122
100
AcDbSymbolTableRecord
100
AcDbLayerTableRecord
2
Equipment
70
0
62
7
420
3495011
6
CONTINUOUS
330
120
0
LAYER
5
123
100
AcDbSymbolTableRecord
100
AcDbLayerTableRecord
2
Process
70
0
62
7
420
1342583
6
CONTINUOUS
330
120
0
LAYER
5
124
100
AcDbSymbolTableRecord
100
AcDbLayerTableRecord
2
Instruments
70
0
62
7
420
10187334
6
CONTINUOUS
330
120
0
LAYER
5
125
100
AcDbSymbolTableRecord
100
AcDbLayerTableRecord
2
Electrical
70
0
62
7
420
6584250
6
CONTINUOUS
330
120
0
LAYER
5
126
100
AcDbSymbolTableRecord
100
AcDbLayerTableRecord
2
Annotations
70
0
62
7
420
7438474
6
CONTINUOUS
330
120
0
ENDTAB
0
TABLE
2
STYLE
5
127
330
0
100
AcDbSymbolTable
70
1
0
STYLE
5
128
100
AcDbSymbolTableRecord
100
AcDbTextStyleTableRecord
2
STANDARD
70
0
40
0
41
1
50
0
71
0
42
2.5
3
txt
4

330
127
0
ENDTAB
0
TABLE
2
APPID
5
129
330
0
100
AcDbSymbolTable
70
2
0
APPID
5
12A
100
AcDbSymbolTableRecord
100
AcDbRegAppTableRecord
2
CONDUITCAD
70
0
330
129
0
APPID
5
140
100
AcDbSymbolTableRecord
100
AcDbRegAppTableRecord
2
ACAD
70
0
330
129
0
ENDTAB
0
TABLE
2
BLOCK_RECORD
5
12B
330
0
100
AcDbSymbolTable
70
5
0
BLOCK_RECORD
5
12C
100
AcDbSymbolTableRecord
100
AcDbBlockTableRecord
2
*Model_Space
340
144
330
12B
0
BLOCK_RECORD
5
12D
100
AcDbSymbolTableRecord
100
AcDbBlockTableRecord
2
*Paper_Space
340
145
330
12B
0
BLOCK_RECORD
5
12E
100
AcDbSymbolTableRecord
100
AcDbBlockTableRecord
2
AdjustableBar
330
12B
0
BLOCK_RECORD
5
12F
100
AcDbSymbolTableRecord
100
AcDbBlockTableRecord
2
*UCC1
330
12B
0
BLOCK_RECORD
5
130
100
AcDbSymbolTableRecord
100
AcDbBlockTableRecord
2
*DCC1
330
12B
0
ENDTAB
0
TABLE
2
VPORT
5
13B
330
0
100
AcDbSymbolTable
70
0
0
ENDTAB
0
TABLE
2
VIEW
5
13C
330
0
100
AcDbSymbolTable
70
0
0
ENDTAB
0
TABLE
2
UCS
5
13D
330
0
100
AcDbSymbolTable
70
0
0
ENDTAB
0
TABLE
2
DIMSTYLE
5
13E
330
0
100
AcDbSymbolTable
70
1
100
AcDbDimStyleTable
71
0
0
DIMSTYLE
105
13F
330
13E
100
AcDbSymbolTableRecord
100
AcDbDimStyleTableRecord
2
STANDARD
70
0
340
128
0
ENDTAB
0
ENDSEC
0
SECTION
2
BLOCKS
0
BLOCK
5
131
330
12C
100
AcDbEntity
8
0
100
AcDbBlockBegin
2
*Model_Space
70
1
10
0
20
0
30
0
3
*Model_Space
1

1001
CONDUITCAD
1000
{"ports":[]}
0
ENDBLK
5
132
330
12C
100
AcDbEntity
8
0
100
AcDbBlockEnd
0
BLOCK
5
133
330
12D
100
AcDbEntity
8
0
100
AcDbBlockBegin
2
*Paper_Space
70
1
10
0
20
0
30
0
3
*Paper_Space
1

1001
CONDUITCAD
1000
{"ports":[]}
0
ENDBLK
5
134
330
12D
100
AcDbEntity
8
0
100
AcDbBlockEnd
0
BLOCK
5
135
330
12E
100
AcDbEntity
8
0
100
AcDbBlockBegin
2
AdjustableBar
70
0
10
0
20
0
30
0
3
AdjustableBar
1

1001
CONDUITCAD
1000
{"ports":[],"dynamic":{"version":1,"parameters":[{"name":"Length","type":"distance","default":80,"min":10,"max":300,"grip":{"base":{"x":0,"y":0},"direction":{"x":1,"y":0}}}],"actions":[{"type":"stretc
1000
h","parameter":"Length","entities":["bar-edge","bar-end"],"direction":{"x":1,"y":0},"box":{"minX":79,"minY":-10,"maxX":81,"maxY":10}}]}}
0
LINE
5
10F
330
12E
100
AcDbEntity
8
0
100
AcDbLine
10
0
20
0
30
0
11
80
21
0
31
0
1001
CONDUITCAD
1000
{"id":"bar-edge"}
0
LINE
5
110
330
12E
100
AcDbEntity
8
0
100
AcDbLine
10
0
20
-6
30
0
11
0
21
6
31
0
1001
CONDUITCAD
1000
{"id":"bar-start"}
0
LINE
5
111
330
12E
100
AcDbEntity
8
0
100
AcDbLine
10
80
20
-6
30
0
11
80
21
6
31
0
1001
CONDUITCAD
1000
{"id":"bar-end"}
0
ENDBLK
5
136
330
12E
100
AcDbEntity
8
0
100
AcDbBlockEnd
0
BLOCK
5
137
330
12F
100
AcDbEntity
8
0
100
AcDbBlockBegin
2
*UCC1
70
1
10
0
20
0
30
0
3
*UCC1
1

1001
CONDUITCAD
1000
{"ports":[],"dynamicInstance":{"master":"AdjustableBar","values":{"Length":80}}}
0
LINE
5
112
330
12F
100
AcDbEntity
8
0
100
AcDbLine
10
0
20
0
30
0
11
80
21
0
31
0
1001
CONDUITCAD
1000
{"id":"bar-edge"}
0
LINE
5
113
330
12F
100
AcDbEntity
8
0
100
AcDbLine
10
0
20
-6
30
0
11
0
21
6
31
0
1001
CONDUITCAD
1000
{"id":"bar-start"}
0
LINE
5
114
330
12F
100
AcDbEntity
8
0
100
AcDbLine
10
80
20
-6
30
0
11
80
21
6
31
0
1001
CONDUITCAD
1000
{"id":"bar-end"}
0
ENDBLK
5
138
330
12F
100
AcDbEntity
8
0
100
AcDbBlockEnd
0
BLOCK
5
139
330
130
100
AcDbEntity
8
0
100
AcDbBlockBegin
2
*DCC1
70
1
10
0
20
0
30
0
3
*DCC1
1

1001
CONDUITCAD
1000
{"ports":[],"dimensionPicture":{"version":1,"ownerId":"associated-length"}}
0
LINE
5
115
330
130
100
AcDbEntity
8
0
62
0
6
CONTINUOUS
100
AcDbLine
10
0
20
106
30
0
11
0
21
130
31
0
1001
CONDUITCAD
1000
{"id":"associated-length:picture:0"}
0
LINE
5
116
330
130
100
AcDbEntity
8
0
62
0
6
CONTINUOUS
100
AcDbLine
10
120
20
106
30
0
11
120
21
130
31
0
1001
CONDUITCAD
1000
{"id":"associated-length:picture:1"}
0
LINE
5
117
330
130
100
AcDbEntity
8
0
62
0
6
CONTINUOUS
100
AcDbLine
10
0
20
125
30
0
11
120
21
125
31
0
1001
CONDUITCAD
1000
{"id":"associated-length:picture:2"}
0
SOLID
5
118
330
130
100
AcDbEntity
8
0
62
0
6
CONTINUOUS
100
AcDbTrace
10
0
20
125
30
0
11
3
21
125.84
31
0
12
3
22
124.16
32
0
13
3
23
124.16
33
0
1001
CONDUITCAD
1000
{"id":"associated-length:picture:3"}
0
SOLID
5
119
330
130
100
AcDbEntity
8
0
62
0
6
CONTINUOUS
100
AcDbTrace
10
120
20
125
30
0
11
117
21
124.16
31
0
12
117
22
125.84
32
0
13
117
23
125.84
33
0
1001
CONDUITCAD
1000
{"id":"associated-length:picture:4"}
0
TEXT
5
11A
330
130
100
AcDbEntity
8
0
62
0
6
CONTINUOUS
100
AcDbText
10
60
20
129.5
30
0
40
5
1
120.0
50
0
41
1
7
STANDARD
72
1
11
60
21
129.5
31
0
100
AcDbText
73
2
1001
CONDUITCAD
1000
{"id":"associated-length:picture:5"}
0
ENDBLK
5
13A
330
130
100
AcDbEntity
8
0
100
AcDbBlockEnd
0
ENDSEC
0
SECTION
2
ENTITIES
0
LWPOLYLINE
5
100
330
12C
100
AcDbEntity
8
Equipment
100
AcDbPolyline
90
4
70
1
10
0
20
0
10
120
20
0
10
120
20
60
10
0
20
60
1001
CONDUITCAD
1000
{"id":"plate","parametric":{"kind":"rectangle","width":"Width","height":"Height"}}
0
CIRCLE
5
101
330
12C
100
AcDbEntity
8
Process
100
AcDbCircle
10
60
20
30
30
0
40
22
1001
CONDUITCAD
1000
{"id":"hole-profile","parametric":{"radius":"Radius"}}
0
LINE
5
102
330
12C
100
AcDbEntity
8
Process
100
AcDbLine
10
0
20
105
30
0
11
120
21
105
31
0
1001
CONDUITCAD
1000
{"id":"driven-edge"}
0
DIMENSION
5
103
330
12C
100
AcDbEntity
8
Annotations
100
AcDbDimension
2
*DCC1
10
120
20
125
30
0
11
60
21
129.5
31
0
70
33
1
<>
3
STANDARD
42
120
100
AcDbAlignedDimension
13
0
23
105
33
0
14
120
24
105
34
0
1001
ACAD
1000
DSTYLE
1002
{
1070
140
1040
5
1070
41
1040
3
1070
44
1040
5
1070
42
1040
1
1070
147
1040
2
1070
40
1040
1
1070
144
1040
1
1070
271
1070
1
1070
45
1040
0
1070
3
1000
<>
1070
78
1070
0
1002
}
1001
CONDUITCAD
1000
{"id":"associated-length","dimension":{"version":1,"manualText":false,"references":{"a":{"entityId":"driven-edge","point":"a"},"b":{"entityId":"driven-edge","point":"b"}},"style":{"dimtxt":5,"dimasz":
1000
3,"dimgap":2},"resolvedScale":1}}
0
INSERT
5
104
330
12C
100
AcDbEntity
8
Equipment
100
AcDbBlockReference
2
*UCC1
10
175
20
105
30
0
41
1
42
1
43
1
50
15
1001
CONDUITCAD
1000
{"id":"adjustable-bar","dynamicSource":"AdjustableBar"}
0
ARC
5
105
330
12C
100
AcDbEntity
8
Process
100
AcDbCircle
10
200
20
30
30
0
40
28
100
AcDbArc
50
0
51
270
1001
CONDUITCAD
1000
{"id":"arc"}
0
ELLIPSE
5
106
330
12C
100
AcDbEntity
8
Process
100
AcDbEllipse
10
285
20
30
30
0
11
36
21
12
31
0
40
0.5
41
0
42
6.283185307179586
1001
CONDUITCAD
1000
{"id":"ellipse"}
0
SPLINE
5
107
330
12C
100
AcDbEntity
8
Equipment
100
AcDbSpline
70
4
71
3
72
8
73
4
74
0
40
0
40
0
40
0
40
0
40
1
40
1
40
1
40
1
41
1
41
1
41
1
41
1
10
170
20
-60
30
0
10
190
20
-15
30
0
10
240
20
-100
30
0
10
290
20
-45
30
0
1001
CONDUITCAD
1000
{"id":"spline"}
0
MTEXT
5
108
330
12C
100
AcDbEntity
8
Annotations
100
AcDbMText
10
0
20
-32
30
0
40
6
41
130
71
1
7
STANDARD
1
Tap text to edit\PNative MTEXT · no modal
11
1
21
0
31
0
73
1
44
1
1001
CONDUITCAD
1000
{"id":"multiline"}
0
TEXT
5
109
330
12C
100
AcDbEntity
8
Annotations
100
AcDbText
10
0
20
165
30
0
40
6
1
EDIT ON CANVAS · choose an entity, drag, type, Apply
50
0
41
1
7
STANDARD
100
AcDbText
73
0
1001
CONDUITCAD
1000
{"id":"title"}
0
TEXT
5
10A
330
12C
100
AcDbEntity
8
Annotations
100
AcDbText
10
0
20
76
30
0
40
6
1
Rectangle + circle / persistent dimensions
50
0
41
1
7
STANDARD
100
AcDbText
73
0
1001
CONDUITCAD
1000
{"id":"plate-label"}
0
TEXT
5
10B
330
12C
100
AcDbEntity
8
Annotations
100
AcDbText
10
0
20
143
30
0
40
6
1
Driven length + associated dimension
50
0
41
1
7
STANDARD
100
AcDbText
73
0
1001
CONDUITCAD
1000
{"id":"driver-label"}
0
TEXT
5
10C
330
12C
100
AcDbEntity
8
Annotations
100
AcDbText
10
175
20
143
30
0
40
6
1
Dynamic block / native parameter grip
50
0
41
1
7
STANDARD
100
AcDbText
73
0
1001
CONDUITCAD
1000
{"id":"bar-label"}
0
TEXT
5
10D
330
12C
100
AcDbEntity
8
Annotations
100
AcDbText
10
172
20
76
30
0
40
6
1
Native arc / ellipse
50
0
41
1
7
STANDARD
100
AcDbText
73
0
1001
CONDUITCAD
1000
{"id":"curves-label"}
0
TEXT
5
10E
330
12C
100
AcDbEntity
8
Annotations
100
AcDbText
10
170
20
-90
30
0
40
6
1
Weighted spline controls
50
0
41
1
7
STANDARD
100
AcDbText
73
0
1001
CONDUITCAD
1000
{"id":"spline-label"}
0
ENDSEC
0
SECTION
2
OBJECTS
0
DICTIONARY
5
141
330
0
100
AcDbDictionary
281
1
3
ACAD_LAYOUT
350
142
3
ACAD_GROUP
350
143
3
CONDUITCAD_METADATA
350
146
0
DICTIONARY
5
142
330
141
100
AcDbDictionary
281
1
3
Model
350
144
3
Layout1
350
145
0
DICTIONARY
5
143
330
141
100
AcDbDictionary
281
1
0
LAYOUT
5
144
330
142
100
AcDbPlotSettings
1

2

4

6

40
0
41
0
42
0
43
0
44
420
45
297
46
0
47
0
48
0
49
0
140
0
141
0
142
1
143
1
70
0
72
1
73
0
74
5
7

75
16
76
0
77
0
78
300
147
1
148
0
149
0
100
AcDbLayout
1
Model
70
1
71
0
10
0
20
0
11
420
21
297
12
0
22
0
32
0
14
0
24
0
34
0
15
420
25
297
35
0
146
0
13
0
23
0
33
0
16
1
26
0
36
0
17
0
27
1
37
0
76
0
330
12C
0
LAYOUT
5
145
330
142
100
AcDbPlotSettings
1

2

4

6

40
0
41
0
42
0
43
0
44
420
45
297
46
0
47
0
48
0
49
0
140
0
141
0
142
1
143
1
70
0
72
1
73
0
74
5
7

75
16
76
0
77
0
78
300
147
1
148
0
149
0
100
AcDbLayout
1
Layout1
70
1
71
1
10
0
20
0
11
420
21
297
12
0
22
0
32
0
14
0
24
0
34
0
15
420
25
297
35
0
146
0
13
0
23
0
33
0
16
1
26
0
36
0
17
0
27
1
37
0
76
0
330
12D
0
XRECORD
5
146
330
141
100
AcDbXrecord
280
1
1
{"parameters":{"Width":"120","Height":"60","Radius":"22","BarLength":"80"},"constraints":[{"id":"edge-length","type":"length","entityId":"driven-edge","value":"Width"}],"metadata":{"author":"","descri
1
ption":"","visualEditing":{"version":1,"description":"A native 2D editing workshop; select an object then Edit on canvas. Includes shared blocks and managed dimensions."}}}
0
ENDSEC
0
EOF
