0
SECTION
2
HEADER
9
$ACADVER
1
AC1024
9
$INSUNITS
70
4
9
$LTSCALE
40
1
9
$MEASUREMENT
70
1
999
CONDUIT:{"parameters":{"grid":"10","pipeWidth":"2","valveSize":"64"},"constraints":[],"metadata":{"author":"","description":""}}
9
$HANDSEED
5
1A1
9
$DWGCODEPAGE
3
ANSI_1252
9
$CLAYER
8
0
9
$TILEMODE
70
1
0
ENDSEC
0
SECTION
2
TABLES
0
TABLE
2
LTYPE
5
163
330
0
100
AcDbSymbolTable
70
4
0
LTYPE
5
164
100
AcDbSymbolTableRecord
100
AcDbLinetypeTableRecord
2
CONTINUOUS
70
0
3
Solid line
72
65
73
0
40
0
330
163
0
LTYPE
5
165
100
AcDbSymbolTableRecord
100
AcDbLinetypeTableRecord
2
DASHED
70
0
3
DASHED
72
65
73
2
40
12
49
8
74
0
49
-4
74
0
330
163
0
LTYPE
5
166
100
AcDbSymbolTableRecord
100
AcDbLinetypeTableRecord
2
CENTER
70
0
3
CENTER
72
65
73
4
40
20
49
12
74
0
49
-3
74
0
49
2
74
0
49
-3
74
0
330
163
0
LTYPE
5
167
100
AcDbSymbolTableRecord
100
AcDbLinetypeTableRecord
2
HIDDEN
70
0
3
HIDDEN
72
65
73
2
40
7
49
4
74
0
49
-3
74
0
330
163
0
ENDTAB
0
TABLE
2
LAYER
5
168
330
0
100
AcDbSymbolTable
70
6
0
LAYER
5
169
100
AcDbSymbolTableRecord
100
AcDbLayerTableRecord
2
0
70
0
62
7
420
3426133
6
CONTINUOUS
330
168
0
LAYER
5
16A
100
AcDbSymbolTableRecord
100
AcDbLayerTableRecord
2
Equipment
70
0
62
7
420
3495011
6
CONTINUOUS
330
168
0
LAYER
5
16B
100
AcDbSymbolTableRecord
100
AcDbLayerTableRecord
2
Process
70
0
62
7
420
1342583
6
CONTINUOUS
330
168
0
LAYER
5
16C
100
AcDbSymbolTableRecord
100
AcDbLayerTableRecord
2
Instruments
70
0
62
7
420
10187334
6
CONTINUOUS
330
168
0
LAYER
5
16D
100
AcDbSymbolTableRecord
100
AcDbLayerTableRecord
2
Electrical
70
0
62
7
420
6584250
6
CONTINUOUS
330
168
0
LAYER
5
16E
100
AcDbSymbolTableRecord
100
AcDbLayerTableRecord
2
Annotations
70
0
62
7
420
7438474
6
CONTINUOUS
330
168
0
ENDTAB
0
TABLE
2
STYLE
5
16F
330
0
100
AcDbSymbolTable
70
1
0
STYLE
5
170
100
AcDbSymbolTableRecord
100
AcDbTextStyleTableRecord
2
STANDARD
70
0
40
0
41
1
50
0
71
0
42
2.5
3
txt
4

330
16F
0
ENDTAB
0
TABLE
2
APPID
5
171
330
0
100
AcDbSymbolTable
70
2
0
APPID
5
172
100
AcDbSymbolTableRecord
100
AcDbRegAppTableRecord
2
CONDUITCAD
70
0
330
171
0
APPID
5
19A
100
AcDbSymbolTableRecord
100
AcDbRegAppTableRecord
2
ACAD
70
0
330
171
0
ENDTAB
0
TABLE
2
BLOCK_RECORD
5
173
330
0
100
AcDbSymbolTable
70
11
0
BLOCK_RECORD
5
174
100
AcDbSymbolTableRecord
100
AcDbBlockTableRecord
2
*Model_Space
340
19E
330
173
0
BLOCK_RECORD
5
175
100
AcDbSymbolTableRecord
100
AcDbBlockTableRecord
2
*Paper_Space
340
19F
330
173
0
BLOCK_RECORD
5
176
100
AcDbSymbolTableRecord
100
AcDbBlockTableRecord
2
*DCC1
330
173
0
BLOCK_RECORD
5
177
100
AcDbSymbolTableRecord
100
AcDbBlockTableRecord
2
*DCC2
330
173
0
BLOCK_RECORD
5
178
100
AcDbSymbolTableRecord
100
AcDbBlockTableRecord
2
*DCC3
330
173
0
BLOCK_RECORD
5
179
100
AcDbSymbolTableRecord
100
AcDbBlockTableRecord
2
*DCC4
330
173
0
BLOCK_RECORD
5
17A
100
AcDbSymbolTableRecord
100
AcDbBlockTableRecord
2
*DCC5
330
173
0
BLOCK_RECORD
5
17B
100
AcDbSymbolTableRecord
100
AcDbBlockTableRecord
2
*DCC6
330
173
0
BLOCK_RECORD
5
17C
100
AcDbSymbolTableRecord
100
AcDbBlockTableRecord
2
*DCC7
330
173
0
BLOCK_RECORD
5
17D
100
AcDbSymbolTableRecord
100
AcDbBlockTableRecord
2
*DCC8
330
173
0
BLOCK_RECORD
5
17E
100
AcDbSymbolTableRecord
100
AcDbBlockTableRecord
2
*DCC9
330
173
0
ENDTAB
0
TABLE
2
VPORT
5
195
330
0
100
AcDbSymbolTable
70
0
0
ENDTAB
0
TABLE
2
VIEW
5
196
330
0
100
AcDbSymbolTable
70
0
0
ENDTAB
0
TABLE
2
UCS
5
197
330
0
100
AcDbSymbolTable
70
0
0
ENDTAB
0
TABLE
2
DIMSTYLE
5
198
330
0
100
AcDbSymbolTable
70
1
100
AcDbDimStyleTable
71
0
0
DIMSTYLE
105
199
330
198
100
AcDbSymbolTableRecord
100
AcDbDimStyleTableRecord
2
STANDARD
70
0
340
170
0
ENDTAB
0
ENDSEC
0
SECTION
2
BLOCKS
0
BLOCK
5
17F
330
174
100
AcDbEntity
8
0
100
AcDbBlockBegin
2
*Model_Space
70
1
10
0
20
0
30
0
3
*Model_Space
1

1001
CONDUITCAD
1000
{"ports":[]}
0
ENDBLK
5
180
330
174
100
AcDbEntity
8
0
100
AcDbBlockEnd
0
BLOCK
5
181
330
175
100
AcDbEntity
8
0
100
AcDbBlockBegin
2
*Paper_Space
70
1
10
0
20
0
30
0
3
*Paper_Space
1

1001
CONDUITCAD
1000
{"ports":[]}
0
ENDBLK
5
182
330
175
100
AcDbEntity
8
0
100
AcDbBlockEnd
0
BLOCK
5
183
330
176
100
AcDbEntity
8
0
100
AcDbBlockBegin
2
*DCC1
70
1
10
0
20
0
30
0
3
*DCC1
1

1001
CONDUITCAD
1000
{"ports":[],"dimensionPicture":{"version":1,"ownerId":"tool-dim-aligned"}}
0
LINE
5
138
330
176
100
AcDbEntity
8
0
62
0
6
CONTINUOUS
100
AcDbLine
10
959.5527864045
20
-749.1055728090001
30
0
11
941.7639320225002
21
-713.5278640450005
31
0
1001
CONDUITCAD
1000
{"id":"tool-dim-aligned:picture:0"}
0
LINE
5
139
330
176
100
AcDbEntity
8
0
62
0
6
CONTINUOUS
100
AcDbLine
10
1059.5527864045
20
-699.1055728090001
30
0
11
1041.7639320225003
21
-663.5278640450005
31
0
1001
CONDUITCAD
1000
{"id":"tool-dim-aligned:picture:1"}
0
LINE
5
13A
330
176
100
AcDbEntity
8
0
62
0
6
CONTINUOUS
100
AcDbLine
10
944
20
-718
30
0
11
1044
21
-668
31
0
1001
CONDUITCAD
1000
{"id":"tool-dim-aligned:picture:2"}
0
SOLID
5
13B
330
176
100
AcDbEntity
8
0
62
0
6
CONTINUOUS
100
AcDbTrace
10
944
20
-718
30
0
11
947.8460369212996
21
-714.5117339551003
31
0
12
949.0982349886996
22
-717.0161300899001
32
0
13
949.0982349886996
23
-717.0161300899001
33
0
1001
CONDUITCAD
1000
{"id":"tool-dim-aligned:picture:3"}
0
SOLID
5
13C
330
176
100
AcDbEntity
8
0
62
0
6
CONTINUOUS
100
AcDbTrace
10
1044
20
-668
30
0
11
1040.1539630787004
21
-671.4882660448997
31
0
12
1038.9017650113005
22
-668.9838699100999
32
0
13
1038.9017650113005
23
-668.9838699100999
33
0
1001
CONDUITCAD
1000
{"id":"tool-dim-aligned:picture:4"}
0
TEXT
5
13D
330
176
100
AcDbEntity
8
0
62
0
6
CONTINUOUS
100
AcDbText
10
989.9750776405003
20
-684.9501552810008
30
0
40
12
1
111.8
50
26.56505117707799
41
1
7
STANDARD
72
1
11
989.9750776405003
21
-684.9501552810008
31
0
100
AcDbText
73
2
1001
CONDUITCAD
1000
{"id":"tool-dim-aligned:picture:5"}
0
ENDBLK
5
184
330
176
100
AcDbEntity
8
0
100
AcDbBlockEnd
0
BLOCK
5
185
330
177
100
AcDbEntity
8
0
100
AcDbBlockBegin
2
*DCC2
70
1
10
0
20
0
30
0
3
*DCC2
1

1001
CONDUITCAD
1000
{"ports":[],"dimensionPicture":{"version":1,"ownerId":"tool-dim-horizontal"}}
0
LINE
5
13E
330
177
100
AcDbEntity
8
0
62
0
6
CONTINUOUS
100
AcDbLine
10
0
20
-999
30
0
11
0
21
-915
31
0
1001
CONDUITCAD
1000
{"id":"tool-dim-horizontal:picture:0"}
0
LINE
5
13F
330
177
100
AcDbEntity
8
0
62
0
6
CONTINUOUS
100
AcDbLine
10
100
20
-949
30
0
11
100
21
-915
31
0
1001
CONDUITCAD
1000
{"id":"tool-dim-horizontal:picture:1"}
0
LINE
5
140
330
177
100
AcDbEntity
8
0
62
0
6
CONTINUOUS
100
AcDbLine
10
0
20
-920
30
0
11
100
21
-920
31
0
1001
CONDUITCAD
1000
{"id":"tool-dim-horizontal:picture:2"}
0
SOLID
5
141
330
177
100
AcDbEntity
8
0
62
0
6
CONTINUOUS
100
AcDbTrace
10
0
20
-920
30
0
11
5
21
-918.6
31
0
12
5
22
-921.4
32
0
13
5
23
-921.4
33
0
1001
CONDUITCAD
1000
{"id":"tool-dim-horizontal:picture:3"}
0
SOLID
5
142
330
177
100
AcDbEntity
8
0
62
0
6
CONTINUOUS
100
AcDbTrace
10
100
20
-920
30
0
11
95
21
-921.4
31
0
12
95
22
-918.6
32
0
13
95
23
-918.6
33
0
1001
CONDUITCAD
1000
{"id":"tool-dim-horizontal:picture:4"}
0
TEXT
5
143
330
177
100
AcDbEntity
8
0
62
0
6
CONTINUOUS
100
AcDbText
10
50
20
-911
30
0
40
12
1
100.0
50
0
41
1
7
STANDARD
72
1
11
50
21
-911
31
0
100
AcDbText
73
2
1001
CONDUITCAD
1000
{"id":"tool-dim-horizontal:picture:5"}
0
ENDBLK
5
186
330
177
100
AcDbEntity
8
0
100
AcDbBlockEnd
0
BLOCK
5
187
330
178
100
AcDbEntity
8
0
100
AcDbBlockBegin
2
*DCC3
70
1
10
0
20
0
30
0
3
*DCC3
1

1001
CONDUITCAD
1000
{"ports":[],"dimensionPicture":{"version":1,"ownerId":"tool-dim-vertical"}}
0
LINE
5
144
330
178
100
AcDbEntity
8
0
62
0
6
CONTINUOUS
100
AcDbLine
10
239
20
-1000
30
0
11
195
21
-1000
31
0
1001
CONDUITCAD
1000
{"id":"tool-dim-vertical:picture:0"}
0
LINE
5
145
330
178
100
AcDbEntity
8
0
62
0
6
CONTINUOUS
100
AcDbLine
10
339
20
-950
30
0
11
195
21
-950
31
0
1001
CONDUITCAD
1000
{"id":"tool-dim-vertical:picture:1"}
0
LINE
5
146
330
178
100
AcDbEntity
8
0
62
0
6
CONTINUOUS
100
AcDbLine
10
200
20
-1000
30
0
11
200
21
-950
31
0
1001
CONDUITCAD
1000
{"id":"tool-dim-vertical:picture:2"}
0
SOLID
5
147
330
178
100
AcDbEntity
8
0
62
0
6
CONTINUOUS
100
AcDbTrace
10
200
20
-1000
30
0
11
198.6
21
-995
31
0
12
201.4
22
-995
32
0
13
201.4
23
-995
33
0
1001
CONDUITCAD
1000
{"id":"tool-dim-vertical:picture:3"}
0
SOLID
5
148
330
178
100
AcDbEntity
8
0
62
0
6
CONTINUOUS
100
AcDbTrace
10
200
20
-950
30
0
11
201.4
21
-955
31
0
12
198.6
22
-955
32
0
13
198.6
23
-955
33
0
1001
CONDUITCAD
1000
{"id":"tool-dim-vertical:picture:4"}
0
TEXT
5
149
330
178
100
AcDbEntity
8
0
62
0
6
CONTINUOUS
100
AcDbText
10
191
20
-975
30
0
40
12
1
50.0
50
90
41
1
7
STANDARD
72
1
11
191
21
-975
31
0
100
AcDbText
73
2
1001
CONDUITCAD
1000
{"id":"tool-dim-vertical:picture:5"}
0
ENDBLK
5
188
330
178
100
AcDbEntity
8
0
100
AcDbBlockEnd
0
BLOCK
5
189
330
179
100
AcDbEntity
8
0
100
AcDbBlockBegin
2
*DCC4
70
1
10
0
20
0
30
0
3
*DCC4
1

1001
CONDUITCAD
1000
{"ports":[],"dimensionPicture":{"version":1,"ownerId":"tool-dim-radius"}}
0
LINE
5
14A
330
179
100
AcDbEntity
8
0
62
0
6
CONTINUOUS
100
AcDbLine
10
480
20
-1000
30
0
11
520
21
-1000
31
0
1001
CONDUITCAD
1000
{"id":"tool-dim-radius:picture:0"}
0
SOLID
5
14B
330
179
100
AcDbEntity
8
0
62
0
6
CONTINUOUS
100
AcDbTrace
10
520
20
-1000
30
0
11
515
21
-1001.4
31
0
12
515
22
-998.6
32
0
13
515
23
-998.6
33
0
1001
CONDUITCAD
1000
{"id":"tool-dim-radius:picture:1"}
0
TEXT
5
14C
330
179
100
AcDbEntity
8
0
62
0
6
CONTINUOUS
100
AcDbText
10
520
20
-991
30
0
40
12
1
R40.0
50
0
41
1
7
STANDARD
72
1
11
520
21
-991
31
0
100
AcDbText
73
2
1001
CONDUITCAD
1000
{"id":"tool-dim-radius:picture:2"}
0
ENDBLK
5
18A
330
179
100
AcDbEntity
8
0
100
AcDbBlockEnd
0
BLOCK
5
18B
330
17A
100
AcDbEntity
8
0
100
AcDbBlockBegin
2
*DCC5
70
1
10
0
20
0
30
0
3
*DCC5
1

1001
CONDUITCAD
1000
{"ports":[],"dimensionPicture":{"version":1,"ownerId":"tool-dim-diameter"}}
0
LINE
5
14D
330
17A
100
AcDbEntity
8
0
62
0
6
CONTINUOUS
100
AcDbLine
10
720
20
-1000
30
0
11
800
21
-1000
31
0
1001
CONDUITCAD
1000
{"id":"tool-dim-diameter:picture:0"}
0
SOLID
5
14E
330
17A
100
AcDbEntity
8
0
62
0
6
CONTINUOUS
100
AcDbTrace
10
800
20
-1000
30
0
11
795
21
-1001.4
31
0
12
795
22
-998.6
32
0
13
795
23
-998.6
33
0
1001
CONDUITCAD
1000
{"id":"tool-dim-diameter:picture:1"}
0
SOLID
5
14F
330
17A
100
AcDbEntity
8
0
62
0
6
CONTINUOUS
100
AcDbTrace
10
720
20
-1000
30
0
11
725
21
-998.6
31
0
12
725
22
-1001.4
32
0
13
725
23
-1001.4
33
0
1001
CONDUITCAD
1000
{"id":"tool-dim-diameter:picture:2"}
0
TEXT
5
150
330
17A
100
AcDbEntity
8
0
62
0
6
CONTINUOUS
100
AcDbText
10
760
20
-991
30
0
40
12
1
⌀80.0
50
0
41
1
7
STANDARD
72
1
11
760
21
-991
31
0
100
AcDbText
73
2
1001
CONDUITCAD
1000
{"id":"tool-dim-diameter:picture:3"}
0
ENDBLK
5
18C
330
17A
100
AcDbEntity
8
0
100
AcDbBlockEnd
0
BLOCK
5
18D
330
17B
100
AcDbEntity
8
0
100
AcDbBlockBegin
2
*DCC6
70
1
10
0
20
0
30
0
3
*DCC6
1

1001
CONDUITCAD
1000
{"ports":[],"dimensionPicture":{"version":1,"ownerId":"tool-dim-angular"}}
0
LINE
5
151
330
17B
100
AcDbEntity
8
0
62
0
6
CONTINUOUS
100
AcDbLine
10
1041
20
-1000
30
0
11
1007.4264068711929
21
-1000
31
0
1001
CONDUITCAD
1000
{"id":"tool-dim-angular:picture:0"}
0
LINE
5
152
330
17B
100
AcDbEntity
8
0
62
0
6
CONTINUOUS
100
AcDbLine
10
960
20
-919
30
0
11
960
21
-952.5735931288071
31
0
1001
CONDUITCAD
1000
{"id":"tool-dim-angular:picture:1"}
0
ARC
5
153
330
17B
100
AcDbEntity
8
0
62
0
6
CONTINUOUS
100
AcDbCircle
10
960
20
-1000
30
0
40
42.42640687119285
100
AcDbArc
50
0
51
90
1001
CONDUITCAD
1000
{"id":"tool-dim-angular:picture:2"}
0
SOLID
5
154
330
17B
100
AcDbEntity
8
0
62
0
6
CONTINUOUS
100
AcDbTrace
10
1002.4264068711929
20
-1000
30
0
11
1001.0264068711929
21
-995
31
0
12
1003.8264068711928
22
-995
32
0
13
1003.8264068711928
23
-995
33
0
1001
CONDUITCAD
1000
{"id":"tool-dim-angular:picture:3"}
0
SOLID
5
155
330
17B
100
AcDbEntity
8
0
62
0
6
CONTINUOUS
100
AcDbTrace
10
960
20
-957.5735931288071
30
0
11
965
21
-956.1735931288072
31
0
12
965
22
-958.9735931288071
32
0
13
965
23
-958.9735931288071
33
0
1001
CONDUITCAD
1000
{"id":"tool-dim-angular:picture:4"}
0
TEXT
5
156
330
17B
100
AcDbEntity
8
0
62
0
6
CONTINUOUS
100
AcDbText
10
996.363961030679
20
-963.6360389693211
30
0
40
12
1
90.0°
50
0
41
1
7
STANDARD
72
1
11
996.363961030679
21
-963.6360389693211
31
0
100
AcDbText
73
2
1001
CONDUITCAD
1000
{"id":"tool-dim-angular:picture:5"}
0
ENDBLK
5
18E
330
17B
100
AcDbEntity
8
0
100
AcDbBlockEnd
0
BLOCK
5
18F
330
17C
100
AcDbEntity
8
0
100
AcDbBlockBegin
2
*DCC7
70
1
10
0
20
0
30
0
3
*DCC7
1

1001
CONDUITCAD
1000
{"ports":[],"dimensionPicture":{"version":1,"ownerId":"tool-dim-angular-lines"}}
0
LINE
5
157
330
17C
100
AcDbEntity
8
0
62
0
6
CONTINUOUS
100
AcDbLine
10
81
20
-1250
30
0
11
47.42640687119285
21
-1250
31
0
1001
CONDUITCAD
1000
{"id":"tool-dim-angular-lines:picture:0"}
0
LINE
5
158
330
17C
100
AcDbEntity
8
0
62
0
6
CONTINUOUS
100
AcDbLine
10
6.123233995736782e-17
20
-1169
30
0
11
2.904029868493319e-15
21
-1202.5735931288073
31
0
1001
CONDUITCAD
1000
{"id":"tool-dim-angular-lines:picture:1"}
0
ARC
5
159
330
17C
100
AcDbEntity
8
0
62
0
6
CONTINUOUS
100
AcDbCircle
10
0
20
-1250
30
0
40
42.42640687119285
100
AcDbArc
50
0
51
90
1001
CONDUITCAD
1000
{"id":"tool-dim-angular-lines:picture:2"}
0
SOLID
5
15A
330
17C
100
AcDbEntity
8
0
62
0
6
CONTINUOUS
100
AcDbTrace
10
42.42640687119285
20
-1250
30
0
11
41.026406871192854
21
-1245
31
0
12
43.82640687119285
22
-1245
32
0
13
43.82640687119285
23
-1245
33
0
1001
CONDUITCAD
1000
{"id":"tool-dim-angular-lines:picture:3"}
0
SOLID
5
15B
330
17C
100
AcDbEntity
8
0
62
0
6
CONTINUOUS
100
AcDbTrace
10
2.59786816870648e-15
20
-1207.5735931288073
30
0
11
5.000000000000003
21
-1206.1735931288072
31
0
12
5.000000000000003
22
-1208.9735931288074
32
0
13
5.000000000000003
23
-1208.9735931288074
33
0
1001
CONDUITCAD
1000
{"id":"tool-dim-angular-lines:picture:4"}
0
TEXT
5
15C
330
17C
100
AcDbEntity
8
0
62
0
6
CONTINUOUS
100
AcDbText
10
36.36396103067893
20
-1213.6360389693211
30
0
40
12
1
90.0°
50
0
41
1
7
STANDARD
72
1
11
36.36396103067893
21
-1213.6360389693211
31
0
100
AcDbText
73
2
1001
CONDUITCAD
1000
{"id":"tool-dim-angular-lines:picture:5"}
0
ENDBLK
5
190
330
17C
100
AcDbEntity
8
0
100
AcDbBlockEnd
0
BLOCK
5
191
330
17D
100
AcDbEntity
8
0
100
AcDbBlockBegin
2
*DCC8
70
1
10
0
20
0
30
0
3
*DCC8
1

1001
CONDUITCAD
1000
{"ports":[],"dimensionPicture":{"version":1,"ownerId":"tool-dim-ordinate-x"}}
0
LINE
5
15D
330
17D
100
AcDbEntity
8
0
62
0
6
CONTINUOUS
100
AcDbLine
10
280
20
-1200
30
0
11
280
21
-1160
31
0
1001
CONDUITCAD
1000
{"id":"tool-dim-ordinate-x:picture:0"}
0
LINE
5
15E
330
17D
100
AcDbEntity
8
0
62
0
6
CONTINUOUS
100
AcDbLine
10
280
20
-1160
30
0
11
310
21
-1160
31
0
1001
CONDUITCAD
1000
{"id":"tool-dim-ordinate-x:picture:1"}
0
TEXT
5
15F
330
17D
100
AcDbEntity
8
0
62
0
6
CONTINUOUS
100
AcDbText
10
319
20
-1151
30
0
40
12
1
40.0
50
0
41
1
7
STANDARD
72
1
11
319
21
-1151
31
0
100
AcDbText
73
2
1001
CONDUITCAD
1000
{"id":"tool-dim-ordinate-x:picture:2"}
0
ENDBLK
5
192
330
17D
100
AcDbEntity
8
0
100
AcDbBlockEnd
0
BLOCK
5
193
330
17E
100
AcDbEntity
8
0
100
AcDbBlockBegin
2
*DCC9
70
1
10
0
20
0
30
0
3
*DCC9
1

1001
CONDUITCAD
1000
{"ports":[],"dimensionPicture":{"version":1,"ownerId":"tool-dim-ordinate-y"}}
0
LINE
5
160
330
17E
100
AcDbEntity
8
0
62
0
6
CONTINUOUS
100
AcDbLine
10
520
20
-1200
30
0
11
550
21
-1200
31
0
1001
CONDUITCAD
1000
{"id":"tool-dim-ordinate-y:picture:0"}
0
LINE
5
161
330
17E
100
AcDbEntity
8
0
62
0
6
CONTINUOUS
100
AcDbLine
10
550
20
-1200
30
0
11
550
21
-1160
31
0
1001
CONDUITCAD
1000
{"id":"tool-dim-ordinate-y:picture:1"}
0
TEXT
5
162
330
17E
100
AcDbEntity
8
0
62
0
6
CONTINUOUS
100
AcDbText
10
559
20
-1151
30
0
40
12
1
50.0
50
0
41
1
7
STANDARD
72
1
11
559
21
-1151
31
0
100
AcDbText
73
2
1001
CONDUITCAD
1000
{"id":"tool-dim-ordinate-y:picture:2"}
0
ENDBLK
5
194
330
17E
100
AcDbEntity
8
0
100
AcDbBlockEnd
0
ENDSEC
0
SECTION
2
ENTITIES
0
ARC
5
100
330
174
100
AcDbEntity
8
0
100
AcDbCircle
10
50
20
0
30
0
40
50
100
AcDbArc
50
0
51
180
1001
CONDUITCAD
1000
{"id":"tool-arc"}
0
TEXT
5
101
330
174
100
AcDbEntity
8
0
100
AcDbText
10
-20
20
125
30
0
40
10
1
arc
50
0
41
1
7
STANDARD
100
AcDbText
73
0
1001
CONDUITCAD
1000
{"id":"tool-title-arc"}
0
ARC
5
102
330
174
100
AcDbEntity
8
0
100
AcDbCircle
10
240
20
0
30
0
40
40
100
AcDbArc
50
0
51
90
1001
CONDUITCAD
1000
{"id":"tool-arc-center"}
0
TEXT
5
103
330
174
100
AcDbEntity
8
0
100
AcDbText
10
220
20
125
30
0
40
10
1
arc-center
50
0
41
1
7
STANDARD
100
AcDbText
73
0
1001
CONDUITCAD
1000
{"id":"tool-title-arc-center"}
0
CIRCLE
5
104
330
174
100
AcDbEntity
8
0
100
AcDbCircle
10
530
20
0
30
0
40
50
1001
CONDUITCAD
1000
{"id":"tool-circle-3p"}
0
TEXT
5
105
330
174
100
AcDbEntity
8
0
100
AcDbText
10
460
20
125
30
0
40
10
1
circle-3p
50
0
41
1
7
STANDARD
100
AcDbText
73
0
1001
CONDUITCAD
1000
{"id":"tool-title-circle-3p"}
0
CIRCLE
5
106
330
174
100
AcDbEntity
8
0
100
AcDbCircle
10
770
20
0
30
0
40
50
1001
CONDUITCAD
1000
{"id":"tool-circle-diameter"}
0
TEXT
5
107
330
174
100
AcDbEntity
8
0
100
AcDbText
10
700
20
125
30
0
40
10
1
circle-diameter
50
0
41
1
7
STANDARD
100
AcDbText
73
0
1001
CONDUITCAD
1000
{"id":"tool-title-circle-diameter"}
0
ELLIPSE
5
108
330
174
100
AcDbEntity
8
0
100
AcDbEllipse
10
960
20
0
30
0
11
80
21
0
31
0
40
0.5
41
0
42
6.283185307179586
1001
CONDUITCAD
1000
{"id":"tool-ellipse"}
0
TEXT
5
109
330
174
100
AcDbEntity
8
0
100
AcDbText
10
940
20
125
30
0
40
10
1
ellipse
50
0
41
1
7
STANDARD
100
AcDbText
73
0
1001
CONDUITCAD
1000
{"id":"tool-title-ellipse"}
0
ELLIPSE
5
10A
330
174
100
AcDbEntity
8
0
100
AcDbEllipse
10
0
20
-250
30
0
11
80
21
0
31
0
40
0.5
41
0
42
1.5707963267948966
1001
CONDUITCAD
1000
{"id":"tool-ellipse-arc"}
0
TEXT
5
10B
330
174
100
AcDbEntity
8
0
100
AcDbText
10
-20
20
-125
30
0
40
10
1
ellipse-arc
50
0
41
1
7
STANDARD
100
AcDbText
73
0
1001
CONDUITCAD
1000
{"id":"tool-title-ellipse-arc"}
0
SPLINE
5
10C
330
174
100
AcDbEntity
8
0
100
AcDbSpline
70
8
71
3
72
14
73
10
74
0
40
0
40
0
40
0
40
0
40
1
40
1
40
1
40
2
40
2
40
2
40
3
40
3
40
3
40
3
10
240
20
-250
30
0
10
250
20
-233.33333333333334
30
0
10
255
20
-198.33333333333334
30
0
10
270
20
-200
30
0
10
285
20
-201.66666666666666
30
0
10
311.6666666666667
20
-255
30
0
10
330
20
-260
30
0
10
348.3333333333333
20
-265
30
0
10
363.33333333333337
20
-240
30
0
10
380
20
-230
30
0
1001
CONDUITCAD
1000
{"id":"tool-spline"}
0
TEXT
5
10D
330
174
100
AcDbEntity
8
0
100
AcDbText
10
220
20
-125
30
0
40
10
1
spline
50
0
41
1
7
STANDARD
100
AcDbText
73
0
1001
CONDUITCAD
1000
{"id":"tool-title-spline"}
0
SPLINE
5
10E
330
174
100
AcDbEntity
8
0
100
AcDbSpline
70
8
71
3
72
8
73
4
74
0
40
0
40
0
40
0
40
0
40
1
40
1
40
1
40
1
10
480
20
-250
30
0
10
510
20
-170
30
0
10
550
20
-300
30
0
10
580
20
-250
30
0
1001
CONDUITCAD
1000
{"id":"tool-bezier"}
0
TEXT
5
10F
330
174
100
AcDbEntity
8
0
100
AcDbText
10
460
20
-125
30
0
40
10
1
bezier
50
0
41
1
7
STANDARD
100
AcDbText
73
0
1001
CONDUITCAD
1000
{"id":"tool-title-bezier"}
0
LWPOLYLINE
5
110
330
174
100
AcDbEntity
8
0
100
AcDbPolyline
90
6
70
1
10
770
20
-250
10
745
20
-206.69872981077808
10
695
20
-206.69872981077805
10
670
20
-250
10
695
20
-293.3012701892219
10
745
20
-293.30127018922195
1001
CONDUITCAD
1000
{"id":"tool-polygon"}
0
TEXT
5
111
330
174
100
AcDbEntity
8
0
100
AcDbText
10
700
20
-125
30
0
40
10
1
polygon
50
0
41
1
7
STANDARD
100
AcDbText
73
0
1001
CONDUITCAD
1000
{"id":"tool-title-polygon"}
0
LWPOLYLINE
5
112
330
174
100
AcDbEntity
8
0
100
AcDbPolyline
90
2
70
1
43
20
10
930
20
-250
42
1
10
990
20
-250
42
1
1001
CONDUITCAD
1000
{"id":"tool-donut"}
0
TEXT
5
113
330
174
100
AcDbEntity
8
0
100
AcDbText
10
940
20
-125
30
0
40
10
1
donut
50
0
41
1
7
STANDARD
100
AcDbText
73
0
1001
CONDUITCAD
1000
{"id":"tool-title-donut"}
0
SOLID
5
114
330
174
100
AcDbEntity
8
0
100
AcDbTrace
10
0
20
-500
30
0
11
80
21
-500
31
0
12
10
22
-460
32
0
13
70
23
-450
33
0
1001
CONDUITCAD
1000
{"id":"tool-solid"}
0
TEXT
5
115
330
174
100
AcDbEntity
8
0
100
AcDbText
10
-20
20
-375
30
0
40
10
1
solid
50
0
41
1
7
STANDARD
100
AcDbText
73
0
1001
CONDUITCAD
1000
{"id":"tool-title-solid"}
0
3DFACE
5
116
330
174
100
AcDbEntity
8
0
100
AcDbFace
70
0
10
240
20
-500
30
0
11
320
21
-500
31
0
12
310
22
-450
32
0
13
250
23
-460
33
0
1001
CONDUITCAD
1000
{"id":"tool-face"}
0
TEXT
5
117
330
174
100
AcDbEntity
8
0
100
AcDbText
10
220
20
-375
30
0
40
10
1
face
50
0
41
1
7
STANDARD
100
AcDbText
73
0
1001
CONDUITCAD
1000
{"id":"tool-title-face"}
0
HATCH
5
118
330
174
100
AcDbEntity
8
0
100
AcDbHatch
10
0
20
0
30
0
210
0
220
0
230
1
2
USER
70
0
71
0
91
1
92
2
72
0
73
1
93
4
10
480
20
-500
10
560
20
-500
10
540
20
-450
10
480
20
-460
97
0
75
0
76
0
52
29.999999999999996
41
1
77
0
78
2
53
29.999999999999996
43
480
44
-500
45
-4.999999999999999
46
8.660254037844387
79
0
53
119.99999999999999
43
480
44
-500
45
-8.660254037844387
46
-4.999999999999998
79
0
98
0
1001
CONDUITCAD
1000
{"id":"tool-hatch"}
0
TEXT
5
119
330
174
100
AcDbEntity
8
0
100
AcDbText
10
460
20
-375
30
0
40
10
1
hatch
50
0
41
1
7
STANDARD
100
AcDbText
73
0
1001
CONDUITCAD
1000
{"id":"tool-title-hatch"}
0
WIPEOUT
5
11A
330
174
100
AcDbEntity
8
0
100
AcDbWipeout
90
0
10
720
20
-500
30
0
11
80
21
0
31
0
12
0
22
80
32
0
13
1
23
1
70
7
280
1
281
50
282
50
283
0
71
2
91
5
14
-0.5
24
0.5
14
0.5
24
0.5
14
0.25
24
-0.125
14
-0.5
24
0
14
-0.5
24
0.5
1001
CONDUITCAD
1000
{"id":"tool-wipeout"}
0
TEXT
5
11B
330
174
100
AcDbEntity
8
0
100
AcDbText
10
700
20
-375
30
0
40
10
1
wipeout
50
0
41
1
7
STANDARD
100
AcDbText
73
0
1001
CONDUITCAD
1000
{"id":"tool-title-wipeout"}
0
POINT
5
11C
330
174
100
AcDbEntity
8
0
100
AcDbPoint
10
972
20
-477
30
0
1001
CONDUITCAD
1000
{"id":"tool-point"}
0
TEXT
5
11D
330
174
100
AcDbEntity
8
0
100
AcDbText
10
940
20
-375
30
0
40
10
1
point
50
0
41
1
7
STANDARD
100
AcDbText
73
0
1001
CONDUITCAD
1000
{"id":"tool-title-point"}
0
RAY
5
11E
330
174
100
AcDbEntity
8
0
100
AcDbRay
10
0
20
-750
30
0
11
0.8944271909999157
21
0.44721359549995787
31
0
1001
CONDUITCAD
1000
{"id":"tool-ray"}
0
TEXT
5
11F
330
174
100
AcDbEntity
8
0
100
AcDbText
10
-20
20
-625
30
0
40
10
1
ray
50
0
41
1
7
STANDARD
100
AcDbText
73
0
1001
CONDUITCAD
1000
{"id":"tool-title-ray"}
0
XLINE
5
120
330
174
100
AcDbEntity
8
0
100
AcDbXline
10
240
20
-750
30
0
11
0.8944271909999157
21
0.44721359549995787
31
0
1001
CONDUITCAD
1000
{"id":"tool-xline"}
0
TEXT
5
121
330
174
100
AcDbEntity
8
0
100
AcDbText
10
220
20
-625
30
0
40
10
1
xline
50
0
41
1
7
STANDARD
100
AcDbText
73
0
1001
CONDUITCAD
1000
{"id":"tool-title-xline"}
0
MTEXT
5
122
330
174
100
AcDbEntity
8
0
100
AcDbMText
10
480
20
-690
30
0
40
10
41
100
71
1
7
STANDARD
1
Native MTEXT\PSecond line
11
1
21
0
31
0
73
1
44
1
1001
CONDUITCAD
1000
{"id":"tool-mtext"}
0
TEXT
5
123
330
174
100
AcDbEntity
8
0
100
AcDbText
10
460
20
-625
30
0
40
10
1
mtext
50
0
41
1
7
STANDARD
100
AcDbText
73
0
1001
CONDUITCAD
1000
{"id":"tool-title-mtext"}
0
LEADER
5
124
330
174
100
AcDbEntity
8
0
100
AcDbLeader
3
STANDARD
71
1
72
0
73
3
74
0
75
0
76
3
10
720
20
-750
30
0
10
760
20
-710
30
0
10
820
20
-710
30
0
1001
CONDUITCAD
1000
{"id":"tool-leader"}
0
TEXT
5
125
330
174
100
AcDbEntity
8
0
100
AcDbText
10
700
20
-625
30
0
40
10
1
leader
50
0
41
1
7
STANDARD
100
AcDbText
73
0
1001
CONDUITCAD
1000
{"id":"tool-title-leader"}
0
DIMENSION
5
126
330
174
100
AcDbEntity
8
0
100
AcDbDimension
2
*DCC1
10
1044
20
-668
30
0
11
989.9750776405003
21
-684.9501552810008
31
0
70
33
1
<>
3
STANDARD
42
111.80339887498948
100
AcDbAlignedDimension
13
960
23
-750
33
0
14
1060
24
-700
34
0
1001
ACAD
1000
DSTYLE
1002
{
1070
140
1040
12
1070
41
1040
5
1070
44
1040
5
1070
42
1040
1
1070
147
1040
3
1070
40
1040
1
1070
144
1040
1
1070
271
1070
1
1070
45
1040
0
1070
3
1000
<>
1070
78
1070
0
1002
}
1001
CONDUITCAD
1000
{"id":"tool-dim-aligned","dimension":{"version":1,"manualText":false,"resolvedScale":1}}
0
TEXT
5
127
330
174
100
AcDbEntity
8
0
100
AcDbText
10
940
20
-625
30
0
40
10
1
dim-aligned
50
0
41
1
7
STANDARD
100
AcDbText
73
0
1001
CONDUITCAD
1000
{"id":"tool-title-dim-aligned"}
0
DIMENSION
5
128
330
174
100
AcDbEntity
8
0
100
AcDbDimension
2
*DCC2
10
100
20
-920
30
0
11
50
21
-911
31
0
70
32
1
<>
3
STANDARD
42
100
100
AcDbAlignedDimension
13
0
23
-1000
33
0
14
100
24
-950
34
0
50
0
100
AcDbRotatedDimension
1001
ACAD
1000
DSTYLE
1002
{
1070
140
1040
12
1070
41
1040
5
1070
44
1040
5
1070
42
1040
1
1070
147
1040
3
1070
40
1040
1
1070
144
1040
1
1070
271
1070
1
1070
45
1040
0
1070
3
1000
<>
1070
78
1070
0
1002
}
1001
CONDUITCAD
1000
{"id":"tool-dim-horizontal","dimension":{"version":1,"manualText":false,"resolvedScale":1}}
0
TEXT
5
129
330
174
100
AcDbEntity
8
0
100
AcDbText
10
-20
20
-875
30
0
40
10
1
dim-horizontal
50
0
41
1
7
STANDARD
100
AcDbText
73
0
1001
CONDUITCAD
1000
{"id":"tool-title-dim-horizontal"}
0
DIMENSION
5
12A
330
174
100
AcDbEntity
8
0
100
AcDbDimension
2
*DCC3
10
200
20
-950
30
0
11
191
21
-975
31
0
70
32
1
<>
3
STANDARD
42
50.00000000000001
100
AcDbAlignedDimension
13
240
23
-1000
33
0
14
340
24
-950
34
0
50
90
100
AcDbRotatedDimension
1001
ACAD
1000
DSTYLE
1002
{
1070
140
1040
12
1070
41
1040
5
1070
44
1040
5
1070
42
1040
1
1070
147
1040
3
1070
40
1040
1
1070
144
1040
1
1070
271
1070
1
1070
45
1040
0
1070
3
1000
<>
1070
78
1070
0
1002
}
1001
CONDUITCAD
1000
{"id":"tool-dim-vertical","dimension":{"version":1,"manualText":false,"resolvedScale":1}}
0
TEXT
5
12B
330
174
100
AcDbEntity
8
0
100
AcDbText
10
220
20
-875
30
0
40
10
1
dim-vertical
50
0
41
1
7
STANDARD
100
AcDbText
73
0
1001
CONDUITCAD
1000
{"id":"tool-title-dim-vertical"}
0
DIMENSION
5
12C
330
174
100
AcDbEntity
8
0
100
AcDbDimension
2
*DCC4
10
480
20
-1000
30
0
11
520
21
-991
31
0
70
36
1
<>
3
STANDARD
42
40
100
AcDbRadialDimension
15
520
25
-1000
35
0
40
0
1001
ACAD
1000
DSTYLE
1002
{
1070
140
1040
12
1070
41
1040
5
1070
44
1040
5
1070
42
1040
1
1070
147
1040
3
1070
40
1040
1
1070
144
1040
1
1070
271
1070
1
1070
45
1040
0
1070
3
1000
<>
1070
78
1070
0
1002
}
1001
CONDUITCAD
1000
{"id":"tool-dim-radius","dimension":{"version":1,"manualText":false,"resolvedScale":1}}
0
TEXT
5
12D
330
174
100
AcDbEntity
8
0
100
AcDbText
10
460
20
-875
30
0
40
10
1
dim-radius
50
0
41
1
7
STANDARD
100
AcDbText
73
0
1001
CONDUITCAD
1000
{"id":"tool-title-dim-radius"}
0
DIMENSION
5
12E
330
174
100
AcDbEntity
8
0
100
AcDbDimension
2
*DCC5
10
720
20
-1000
30
0
11
760
21
-991
31
0
70
35
1
<>
3
STANDARD
42
80
100
AcDbDiametricDimension
15
800
25
-1000
35
0
40
0
1001
ACAD
1000
DSTYLE
1002
{
1070
140
1040
12
1070
41
1040
5
1070
44
1040
5
1070
42
1040
1
1070
147
1040
3
1070
40
1040
1
1070
144
1040
1
1070
271
1070
1
1070
45
1040
0
1070
3
1000
<>
1070
78
1070
0
1002
}
1001
CONDUITCAD
1000
{"id":"tool-dim-diameter","dimension":{"version":1,"manualText":false,"resolvedScale":1}}
0
TEXT
5
12F
330
174
100
AcDbEntity
8
0
100
AcDbText
10
700
20
-875
30
0
40
10
1
dim-diameter
50
0
41
1
7
STANDARD
100
AcDbText
73
0
1001
CONDUITCAD
1000
{"id":"tool-title-dim-diameter"}
0
DIMENSION
5
130
330
174
100
AcDbEntity
8
0
100
AcDbDimension
2
*DCC6
10
990
20
-970
30
0
11
996.363961030679
21
-963.6360389693211
31
0
70
37
1
<>
3
STANDARD
42
90
100
AcDb3PointAngularDimension
13
1040
23
-1000
33
0
14
960
24
-920
34
0
15
960
25
-1000
35
0
1001
ACAD
1000
DSTYLE
1002
{
1070
140
1040
12
1070
41
1040
5
1070
44
1040
5
1070
42
1040
1
1070
147
1040
3
1070
40
1040
1
1070
144
1040
1
1070
271
1070
1
1070
45
1040
0
1070
3
1000
<>
1070
78
1070
0
1002
}
1001
CONDUITCAD
1000
{"id":"tool-dim-angular","dimension":{"version":1,"manualText":false,"resolvedScale":1}}
0
TEXT
5
131
330
174
100
AcDbEntity
8
0
100
AcDbText
10
940
20
-875
30
0
40
10
1
dim-angular
50
0
41
1
7
STANDARD
100
AcDbText
73
0
1001
CONDUITCAD
1000
{"id":"tool-title-dim-angular"}
0
DIMENSION
5
132
330
174
100
AcDbEntity
8
0
100
AcDbDimension
2
*DCC7
10
0
20
-1170
30
0
11
36.36396103067893
21
-1213.6360389693211
31
0
70
34
1
<>
3
STANDARD
42
90
100
AcDb2LineAngularDimension
13
0
23
-1250
33
0
14
80
24
-1250
34
0
15
0
25
-1250
35
0
16
30
26
-1220
36
0
1001
ACAD
1000
DSTYLE
1002
{
1070
140
1040
12
1070
41
1040
5
1070
44
1040
5
1070
42
1040
1
1070
147
1040
3
1070
40
1040
1
1070
144
1040
1
1070
271
1070
1
1070
45
1040
0
1070
3
1000
<>
1070
78
1070
0
1002
}
1001
CONDUITCAD
1000
{"id":"tool-dim-angular-lines","dimension":{"version":1,"manualText":false,"resolvedScale":1}}
0
TEXT
5
133
330
174
100
AcDbEntity
8
0
100
AcDbText
10
-20
20
-1125
30
0
40
10
1
dim-angular-lines
50
0
41
1
7
STANDARD
100
AcDbText
73
0
1001
CONDUITCAD
1000
{"id":"tool-title-dim-angular-lines"}
0
DIMENSION
5
134
330
174
100
AcDbEntity
8
0
100
AcDbDimension
2
*DCC8
10
240
20
-1250
30
0
11
319
21
-1151
31
0
70
102
1
<>
3
STANDARD
42
40
100
AcDbOrdinateDimension
13
280
23
-1200
33
0
14
310
24
-1160
34
0
1001
ACAD
1000
DSTYLE
1002
{
1070
140
1040
12
1070
41
1040
5
1070
44
1040
5
1070
42
1040
1
1070
147
1040
3
1070
40
1040
1
1070
144
1040
1
1070
271
1070
1
1070
45
1040
0
1070
3
1000
<>
1070
78
1070
0
1002
}
1001
CONDUITCAD
1000
{"id":"tool-dim-ordinate-x","dimension":{"version":1,"manualText":false,"resolvedScale":1}}
0
TEXT
5
135
330
174
100
AcDbEntity
8
0
100
AcDbText
10
220
20
-1125
30
0
40
10
1
dim-ordinate-x
50
0
41
1
7
STANDARD
100
AcDbText
73
0
1001
CONDUITCAD
1000
{"id":"tool-title-dim-ordinate-x"}
0
DIMENSION
5
136
330
174
100
AcDbEntity
8
0
100
AcDbDimension
2
*DCC9
10
480
20
-1250
30
0
11
559
21
-1151
31
0
70
38
1
<>
3
STANDARD
42
50
100
AcDbOrdinateDimension
13
520
23
-1200
33
0
14
550
24
-1160
34
0
1001
ACAD
1000
DSTYLE
1002
{
1070
140
1040
12
1070
41
1040
5
1070
44
1040
5
1070
42
1040
1
1070
147
1040
3
1070
40
1040
1
1070
144
1040
1
1070
271
1070
1
1070
45
1040
0
1070
3
1000
<>
1070
78
1070
0
1002
}
1001
CONDUITCAD
1000
{"id":"tool-dim-ordinate-y","dimension":{"version":1,"manualText":false,"resolvedScale":1}}
0
TEXT
5
137
330
174
100
AcDbEntity
8
0
100
AcDbText
10
460
20
-1125
30
0
40
10
1
dim-ordinate-y
50
0
41
1
7
STANDARD
100
AcDbText
73
0
1001
CONDUITCAD
1000
{"id":"tool-title-dim-ordinate-y"}
0
ENDSEC
0
SECTION
2
OBJECTS
0
DICTIONARY
5
19B
330
0
100
AcDbDictionary
281
1
3
ACAD_LAYOUT
350
19C
3
ACAD_GROUP
350
19D
3
CONDUITCAD_METADATA
350
1A0
0
DICTIONARY
5
19C
330
19B
100
AcDbDictionary
281
1
3
Model
350
19E
3
Layout1
350
19F
0
DICTIONARY
5
19D
330
19B
100
AcDbDictionary
281
1
0
LAYOUT
5
19E
330
19C
100
AcDbPlotSettings
1

2

4

6

40
0
41
0
42
0
43
0
44
420
45
297
46
0
47
0
48
0
49
0
140
0
141
0
142
1
143
1
70
0
72
1
73
0
74
5
7

75
16
76
0
77
0
78
300
147
1
148
0
149
0
100
AcDbLayout
1
Model
70
1
71
0
10
0
20
0
11
420
21
297
12
0
22
0
32
0
14
0
24
0
34
0
15
420
25
297
35
0
146
0
13
0
23
0
33
0
16
1
26
0
36
0
17
0
27
1
37
0
76
0
330
174
0
LAYOUT
5
19F
330
19C
100
AcDbPlotSettings
1

2

4

6

40
0
41
0
42
0
43
0
44
420
45
297
46
0
47
0
48
0
49
0
140
0
141
0
142
1
143
1
70
0
72
1
73
0
74
5
7

75
16
76
0
77
0
78
300
147
1
148
0
149
0
100
AcDbLayout
1
Layout1
70
1
71
1
10
0
20
0
11
420
21
297
12
0
22
0
32
0
14
0
24
0
34
0
15
420
25
297
35
0
146
0
13
0
23
0
33
0
16
1
26
0
36
0
17
0
27
1
37
0
76
0
330
175
0
XRECORD
5
1A0
330
19B
100
AcDbXrecord
280
1
1
{"parameters":{"grid":"10","pipeWidth":"2","valveSize":"64"},"constraints":[],"metadata":{"author":"","description":""}}
0
ENDSEC
0
EOF
