0
SECTION
2
HEADER
9
$ACADVER
1
AC1024
9
$INSUNITS
70
4
9
$LTSCALE
40
1
9
$MEASUREMENT
70
1
999
CONDUIT:{"parameters":{"grid":"10","pipeWidth":"2","valveSize":"64"},"constraints":[],"metadata":{"author":"","description":"Editable demonstration drawing. Symbols are illustrative, not s
999
CONDUIT:tandards-certified."}}
9
$HANDSEED
5
183
9
$DWGCODEPAGE
3
ANSI_1252
9
$CLAYER
8
0
9
$TILEMODE
70
1
0
ENDSEC
0
SECTION
2
TABLES
0
TABLE
2
LTYPE
5
136
330
0
100
AcDbSymbolTable
70
4
0
LTYPE
5
137
100
AcDbSymbolTableRecord
100
AcDbLinetypeTableRecord
2
CONTINUOUS
70
0
3
Solid line
72
65
73
0
40
0
330
136
0
LTYPE
5
138
100
AcDbSymbolTableRecord
100
AcDbLinetypeTableRecord
2
DASHED
70
0
3
DASHED
72
65
73
2
40
12
49
8
74
0
49
-4
74
0
330
136
0
LTYPE
5
139
100
AcDbSymbolTableRecord
100
AcDbLinetypeTableRecord
2
CENTER
70
0
3
CENTER
72
65
73
4
40
20
49
12
74
0
49
-3
74
0
49
2
74
0
49
-3
74
0
330
136
0
LTYPE
5
13A
100
AcDbSymbolTableRecord
100
AcDbLinetypeTableRecord
2
HIDDEN
70
0
3
HIDDEN
72
65
73
2
40
7
49
4
74
0
49
-3
74
0
330
136
0
ENDTAB
0
TABLE
2
LAYER
5
13B
330
0
100
AcDbSymbolTable
70
13
0
LAYER
5
13C
100
AcDbSymbolTableRecord
100
AcDbLayerTableRecord
2
0
70
0
62
7
420
3426133
6
CONTINUOUS
330
13B
0
LAYER
5
13D
100
AcDbSymbolTableRecord
100
AcDbLayerTableRecord
2
Equipment
70
0
62
7
420
3495011
6
CONTINUOUS
330
13B
0
LAYER
5
13E
100
AcDbSymbolTableRecord
100
AcDbLayerTableRecord
2
Process
70
0
62
7
420
1342583
6
CONTINUOUS
330
13B
0
LAYER
5
13F
100
AcDbSymbolTableRecord
100
AcDbLayerTableRecord
2
Instruments
70
0
62
7
420
10187334
6
CONTINUOUS
330
13B
0
LAYER
5
140
100
AcDbSymbolTableRecord
100
AcDbLayerTableRecord
2
Electrical
70
0
62
7
420
6584250
6
CONTINUOUS
330
13B
0
LAYER
5
141
100
AcDbSymbolTableRecord
100
AcDbLayerTableRecord
2
Annotations
70
0
62
7
420
7438474
6
CONTINUOUS
330
13B
0
LAYER
5
142
100
AcDbSymbolTableRecord
100
AcDbLayerTableRecord
2
Hydraulics
70
0
62
7
420
3495011
6
CONTINUOUS
330
13B
0
LAYER
5
143
100
AcDbSymbolTableRecord
100
AcDbLayerTableRecord
2
Pneumatics
70
0
62
7
420
3495011
6
CONTINUOUS
330
13B
0
LAYER
5
144
100
AcDbSymbolTableRecord
100
AcDbLayerTableRecord
2
HVAC
70
0
62
7
420
3495011
6
CONTINUOUS
330
13B
0
LAYER
5
145
100
AcDbSymbolTableRecord
100
AcDbLayerTableRecord
2
Water
70
0
62
7
420
3495011
6
CONTINUOUS
330
13B
0
LAYER
5
146
100
AcDbSymbolTableRecord
100
AcDbLayerTableRecord
2
Automation
70
0
62
7
420
3495011
6
CONTINUOUS
330
13B
0
LAYER
5
147
100
AcDbSymbolTableRecord
100
AcDbLayerTableRecord
2
Fire
70
0
62
7
420
3495011
6
CONTINUOUS
330
13B
0
LAYER
5
148
100
AcDbSymbolTableRecord
100
AcDbLayerTableRecord
2
Network
70
0
62
7
420
3495011
6
CONTINUOUS
330
13B
0
ENDTAB
0
TABLE
2
STYLE
5
149
330
0
100
AcDbSymbolTable
70
1
0
STYLE
5
14A
100
AcDbSymbolTableRecord
100
AcDbTextStyleTableRecord
2
STANDARD
70
0
40
0
41
1
50
0
71
0
42
2.5
3
txt
4

330
149
0
ENDTAB
0
TABLE
2
APPID
5
14B
330
0
100
AcDbSymbolTable
70
2
0
APPID
5
14C
100
AcDbSymbolTableRecord
100
AcDbRegAppTableRecord
2
CONDUITCAD
70
0
330
14B
0
APPID
5
17C
100
AcDbSymbolTableRecord
100
AcDbRegAppTableRecord
2
ACAD
70
0
330
14B
0
ENDTAB
0
TABLE
2
BLOCK_RECORD
5
14D
330
0
100
AcDbSymbolTable
70
9
0
BLOCK_RECORD
5
14E
100
AcDbSymbolTableRecord
100
AcDbBlockTableRecord
2
*Model_Space
340
180
330
14D
0
BLOCK_RECORD
5
14F
100
AcDbSymbolTableRecord
100
AcDbBlockTableRecord
2
*Paper_Space
340
181
330
14D
0
BLOCK_RECORD
5
150
100
AcDbSymbolTableRecord
100
AcDbBlockTableRecord
2
CC_BATTERY
330
14D
0
BLOCK_RECORD
5
151
100
AcDbSymbolTableRecord
100
AcDbBlockTableRecord
2
CC_FUSE
330
14D
0
BLOCK_RECORD
5
152
100
AcDbSymbolTableRecord
100
AcDbBlockTableRecord
2
CC_SWITCH
330
14D
0
BLOCK_RECORD
5
153
100
AcDbSymbolTableRecord
100
AcDbBlockTableRecord
2
CC_RELAY
330
14D
0
BLOCK_RECORD
5
154
100
AcDbSymbolTableRecord
100
AcDbBlockTableRecord
2
CC_MOTOR
330
14D
0
BLOCK_RECORD
5
155
100
AcDbSymbolTableRecord
100
AcDbBlockTableRecord
2
CC_GROUND
330
14D
0
BLOCK_RECORD
5
156
100
AcDbSymbolTableRecord
100
AcDbBlockTableRecord
2
CC_LAMP
330
14D
0
ENDTAB
0
TABLE
2
VPORT
5
177
330
0
100
AcDbSymbolTable
70
0
0
ENDTAB
0
TABLE
2
VIEW
5
178
330
0
100
AcDbSymbolTable
70
0
0
ENDTAB
0
TABLE
2
UCS
5
179
330
0
100
AcDbSymbolTable
70
0
0
ENDTAB
0
TABLE
2
DIMSTYLE
5
17A
330
0
100
AcDbSymbolTable
70
1
100
AcDbDimStyleTable
71
0
0
DIMSTYLE
105
17B
330
17A
100
AcDbSymbolTableRecord
100
AcDbDimStyleTableRecord
2
STANDARD
70
0
340
14A
0
ENDTAB
0
ENDSEC
0
SECTION
2
BLOCKS
0
BLOCK
5
157
330
14E
100
AcDbEntity
8
0
100
AcDbBlockBegin
2
*Model_Space
70
1
10
0
20
0
30
0
3
*Model_Space
1

1001
CONDUITCAD
1000
{"ports":[]}
0
ENDBLK
5
158
330
14E
100
AcDbEntity
8
0
100
AcDbBlockEnd
0
BLOCK
5
159
330
14F
100
AcDbEntity
8
0
100
AcDbBlockBegin
2
*Paper_Space
70
1
10
0
20
0
30
0
3
*Paper_Space
1

1001
CONDUITCAD
1000
{"ports":[]}
0
ENDBLK
5
15A
330
14F
100
AcDbEntity
8
0
100
AcDbBlockEnd
0
BLOCK
5
15B
330
150
100
AcDbEntity
8
0
100
AcDbBlockBegin
2
CC_BATTERY
70
0
10
0
20
0
30
0
3
CC_BATTERY
1

1001
CONDUITCAD
1000
{"ports":[{"name":"in","x":-45,"y":0,"dx":-1,"dy":0,"medium":"electrical","role":"connection"},{"name":"out","x":45,"y":0,"dx":1,"dy":0,"medium":"electrical","role":"connection"}],"symbol":{"name":"Ba
1000
ttery","category":"Electrical","labelOffset":48,"geometryRevision":3,"convention":"IEC-60617 family","conformity":"Original master; not standards-certified","standardRefs":["IEC-60617"],"normativeEntr
1000
y":null,"review":{"level":"geometry-and-convention","dimensionalConformance":"not-verified","note":"Reviewed: silhouette, terminal positions, normal state and distinct function retained."},"group":"Co
1000
mponents","aliases":["battery"],"defaultLayer":"Electrical","extents":{"minX":-45,"minY":-24,"maxX":45,"maxY":24}}}
0
LINE
5
117
330
150
100
AcDbEntity
8
0
62
0
6
CONTINUOUS
100
AcDbLine
10
-45
20
0
30
0
11
-18
21
0
31
0
1001
CONDUITCAD
1000
{"id":"master-battery-0"}
0
LINE
5
118
330
150
100
AcDbEntity
8
0
62
0
6
CONTINUOUS
100
AcDbLine
10
18
20
0
30
0
11
45
21
0
31
0
1001
CONDUITCAD
1000
{"id":"master-battery-1"}
0
LINE
5
119
330
150
100
AcDbEntity
8
0
62
0
6
CONTINUOUS
100
AcDbLine
10
-18
20
-24
30
0
11
-18
21
24
31
0
1001
CONDUITCAD
1000
{"id":"master-battery-2"}
0
LINE
5
11A
330
150
100
AcDbEntity
8
0
62
0
6
CONTINUOUS
100
AcDbLine
10
-6
20
-12
30
0
11
-6
21
12
31
0
1001
CONDUITCAD
1000
{"id":"master-battery-3"}
0
LINE
5
11B
330
150
100
AcDbEntity
8
0
62
0
6
CONTINUOUS
100
AcDbLine
10
6
20
-24
30
0
11
6
21
24
31
0
1001
CONDUITCAD
1000
{"id":"master-battery-4"}
0
LINE
5
11C
330
150
100
AcDbEntity
8
0
62
0
6
CONTINUOUS
100
AcDbLine
10
18
20
-12
30
0
11
18
21
12
31
0
1001
CONDUITCAD
1000
{"id":"master-battery-5"}
0
ENDBLK
5
15C
330
150
100
AcDbEntity
8
0
100
AcDbBlockEnd
0
BLOCK
5
15D
330
151
100
AcDbEntity
8
0
100
AcDbBlockBegin
2
CC_FUSE
70
0
10
0
20
0
30
0
3
CC_FUSE
1

1001
CONDUITCAD
1000
{"ports":[{"name":"in","x":-45,"y":0,"dx":-1,"dy":0,"medium":"electrical","role":"connection"},{"name":"out","x":45,"y":0,"dx":1,"dy":0,"medium":"electrical","role":"connection"}],"symbol":{"name":"Fu
1000
se","category":"Electrical","labelOffset":48,"geometryRevision":3,"convention":"IEC-60617 family","conformity":"Original master; not standards-certified","standardRefs":["IEC-60617"],"normativeEntry":
1000
null,"review":{"level":"geometry-and-convention","dimensionalConformance":"not-verified","note":"Reviewed: silhouette, terminal positions, normal state and distinct function retained."},"group":"Compo
1000
nents","aliases":["fuse"],"defaultLayer":"Electrical","extents":{"minX":-45,"minY":-10,"maxX":45,"maxY":10}}}
0
LINE
5
11D
330
151
100
AcDbEntity
8
0
62
0
6
CONTINUOUS
100
AcDbLine
10
-45
20
0
30
0
11
45
21
0
31
0
1001
CONDUITCAD
1000
{"id":"master-fuse-0"}
0
LWPOLYLINE
5
11E
330
151
100
AcDbEntity
8
0
62
0
6
CONTINUOUS
100
AcDbPolyline
90
4
70
1
10
-24
20
-10
10
24
20
-10
10
24
20
10
10
-24
20
10
1001
CONDUITCAD
1000
{"id":"master-fuse-1"}
0
ENDBLK
5
15E
330
151
100
AcDbEntity
8
0
100
AcDbBlockEnd
0
BLOCK
5
15F
330
152
100
AcDbEntity
8
0
100
AcDbBlockBegin
2
CC_SWITCH
70
0
10
0
20
0
30
0
3
CC_SWITCH
1

1001
CONDUITCAD
1000
{"ports":[{"name":"in","x":-45,"y":0,"dx":-1,"dy":0,"medium":"electrical","role":"connection"},{"name":"out","x":45,"y":0,"dx":1,"dy":0,"medium":"electrical","role":"connection"}],"symbol":{"name":"Sw
1000
itch \u00b7 normally open","category":"Electrical","labelOffset":48,"geometryRevision":3,"convention":"IEC-60617 family","conformity":"Original master; not standards-certified","standardRefs":["IEC-60
1000
617"],"normativeEntry":null,"review":{"level":"geometry-and-convention","dimensionalConformance":"not-verified","note":"Reviewed: silhouette, terminal positions, normal state and distinct function ret
1000
ained."},"group":"Components","aliases":["switch"],"defaultLayer":"Electrical","extents":{"minX":-45,"minY":-2.993006307571618,"maxX":45,"maxY":26}}}
0
LINE
5
11F
330
152
100
AcDbEntity
8
0
62
0
6
CONTINUOUS
100
AcDbLine
10
-45
20
0
30
0
11
-23
21
0
31
0
1001
CONDUITCAD
1000
{"id":"master-switch-0"}
0
LINE
5
120
330
152
100
AcDbEntity
8
0
62
0
6
CONTINUOUS
100
AcDbLine
10
23
20
0
30
0
11
45
21
0
31
0
1001
CONDUITCAD
1000
{"id":"master-switch-1"}
0
CIRCLE
5
121
330
152
100
AcDbEntity
8
0
62
0
6
CONTINUOUS
100
AcDbCircle
10
-22
20
0
30
0
40
3
1001
CONDUITCAD
1000
{"id":"master-switch-2"}
0
CIRCLE
5
122
330
152
100
AcDbEntity
8
0
62
0
6
CONTINUOUS
100
AcDbCircle
10
22
20
0
30
0
40
3
1001
CONDUITCAD
1000
{"id":"master-switch-3"}
0
LINE
5
123
330
152
100
AcDbEntity
8
0
62
0
6
CONTINUOUS
100
AcDbLine
10
-20
20
2
30
0
11
19
21
26
31
0
1001
CONDUITCAD
1000
{"id":"master-switch-4"}
0
ENDBLK
5
160
330
152
100
AcDbEntity
8
0
100
AcDbBlockEnd
0
BLOCK
5
161
330
153
100
AcDbEntity
8
0
100
AcDbBlockBegin
2
CC_RELAY
70
0
10
0
20
0
30
0
3
CC_RELAY
1

1001
CONDUITCAD
1000
{"ports":[{"name":"in","x":-45,"y":0,"dx":-1,"dy":0,"medium":"electrical","role":"connection"},{"name":"out","x":45,"y":0,"dx":1,"dy":0,"medium":"electrical","role":"connection"}],"symbol":{"name":"Re
1000
lay coil","category":"Electrical","labelOffset":48,"geometryRevision":3,"convention":"IEC-60617 family","conformity":"Original master; not standards-certified","standardRefs":["IEC-60617"],"normativeE
1000
ntry":null,"review":{"level":"geometry-and-convention","dimensionalConformance":"not-verified","note":"Plain coil rectangle; remove diagonal that implied a different actuator."},"group":"Components","
1000
aliases":["relay"],"defaultLayer":"Electrical","extents":{"minX":-45,"minY":-18,"maxX":45,"maxY":18}}}
0
LINE
5
124
330
153
100
AcDbEntity
8
0
62
0
6
CONTINUOUS
100
AcDbLine
10
-45
20
0
30
0
11
-25
21
0
31
0
1001
CONDUITCAD
1000
{"id":"master-relay-0"}
0
LINE
5
125
330
153
100
AcDbEntity
8
0
62
0
6
CONTINUOUS
100
AcDbLine
10
25
20
0
30
0
11
45
21
0
31
0
1001
CONDUITCAD
1000
{"id":"master-relay-1"}
0
LWPOLYLINE
5
126
330
153
100
AcDbEntity
8
0
62
0
6
CONTINUOUS
100
AcDbPolyline
90
4
70
1
10
-25
20
-18
10
25
20
-18
10
25
20
18
10
-25
20
18
1001
CONDUITCAD
1000
{"id":"master-relay-2"}
0
ENDBLK
5
162
330
153
100
AcDbEntity
8
0
100
AcDbBlockEnd
0
BLOCK
5
163
330
154
100
AcDbEntity
8
0
100
AcDbBlockBegin
2
CC_MOTOR
70
0
10
0
20
0
30
0
3
CC_MOTOR
1

1001
CONDUITCAD
1000
{"ports":[{"name":"in","x":-45,"y":0,"dx":-1,"dy":0,"medium":"electrical","role":"connection"},{"name":"out","x":45,"y":0,"dx":1,"dy":0,"medium":"electrical","role":"connection"},{"name":"top","x":0,"
1000
y":45,"dx":0,"dy":1,"medium":"electrical","role":"connection"},{"name":"bottom","x":0,"y":-45,"dx":0,"dy":-1,"medium":"electrical","role":"connection"}],"symbol":{"name":"Motor","category":"Electrical
1000
","labelOffset":67,"geometryRevision":3,"convention":"IEC-60617 family","conformity":"Original master; not standards-certified","standardRefs":["IEC-60617"],"normativeEntry":null,"review":{"level":"ge
1000
ometry-and-convention","dimensionalConformance":"not-verified","note":"Reviewed: silhouette, terminal positions, normal state and distinct function retained."},"group":"Components","aliases":["motor"]
1000
,"defaultLayer":"Electrical","extents":{"minX":-45,"minY":-45,"maxX":45,"maxY":45}}}
0
LINE
5
127
330
154
100
AcDbEntity
8
0
62
0
6
CONTINUOUS
100
AcDbLine
10
-45
20
0
30
0
11
-29
21
0
31
0
1001
CONDUITCAD
1000
{"id":"master-motor-0"}
0
LINE
5
128
330
154
100
AcDbEntity
8
0
62
0
6
CONTINUOUS
100
AcDbLine
10
29
20
0
30
0
11
45
21
0
31
0
1001
CONDUITCAD
1000
{"id":"master-motor-1"}
0
LINE
5
129
330
154
100
AcDbEntity
8
0
62
0
6
CONTINUOUS
100
AcDbLine
10
0
20
29
30
0
11
0
21
45
31
0
1001
CONDUITCAD
1000
{"id":"master-motor-2"}
0
LINE
5
12A
330
154
100
AcDbEntity
8
0
62
0
6
CONTINUOUS
100
AcDbLine
10
0
20
-29
30
0
11
0
21
-45
31
0
1001
CONDUITCAD
1000
{"id":"master-motor-3"}
0
CIRCLE
5
12B
330
154
100
AcDbEntity
8
0
62
0
6
CONTINUOUS
100
AcDbCircle
10
0
20
0
30
0
40
29
1001
CONDUITCAD
1000
{"id":"master-motor-4"}
0
TEXT
5
12C
330
154
100
AcDbEntity
8
0
62
0
6
CONTINUOUS
100
AcDbText
10
0
20
-7
30
0
40
22
1
M
50
0
41
1
7
STANDARD
72
1
11
0
21
-7
31
0
100
AcDbText
73
0
1001
CONDUITCAD
1000
{"id":"master-motor-5"}
0
ENDBLK
5
164
330
154
100
AcDbEntity
8
0
100
AcDbBlockEnd
0
BLOCK
5
165
330
155
100
AcDbEntity
8
0
100
AcDbBlockBegin
2
CC_GROUND
70
0
10
0
20
0
30
0
3
CC_GROUND
1

1001
CONDUITCAD
1000
{"ports":[{"name":"terminal","x":0,"y":40,"dx":0,"dy":1,"medium":"electrical","role":"connection"}],"symbol":{"name":"Protective earth","category":"Electrical","labelOffset":48,"geometryRevision":3,"c
1000
onvention":"IEC-60617 family","conformity":"Original master; not standards-certified","standardRefs":["IEC-60617"],"normativeEntry":null,"review":{"level":"geometry-and-convention","dimensionalConform
1000
ance":"not-verified","note":"Reviewed: silhouette, terminal positions, normal state and distinct function retained."},"group":"Components","aliases":["ground"],"defaultLayer":"Electrical","extents":{"
1000
minX":-26,"minY":-15,"maxX":26,"maxY":40}}}
0
LINE
5
12D
330
155
100
AcDbEntity
8
0
62
0
6
CONTINUOUS
100
AcDbLine
10
0
20
40
30
0
11
0
21
5
31
0
1001
CONDUITCAD
1000
{"id":"master-ground-0"}
0
LINE
5
12E
330
155
100
AcDbEntity
8
0
62
0
6
CONTINUOUS
100
AcDbLine
10
-26
20
5
30
0
11
26
21
5
31
0
1001
CONDUITCAD
1000
{"id":"master-ground-1"}
0
LINE
5
12F
330
155
100
AcDbEntity
8
0
62
0
6
CONTINUOUS
100
AcDbLine
10
-17
20
-5
30
0
11
17
21
-5
31
0
1001
CONDUITCAD
1000
{"id":"master-ground-2"}
0
LINE
5
130
330
155
100
AcDbEntity
8
0
62
0
6
CONTINUOUS
100
AcDbLine
10
-8
20
-15
30
0
11
8
21
-15
31
0
1001
CONDUITCAD
1000
{"id":"master-ground-3"}
0
ENDBLK
5
166
330
155
100
AcDbEntity
8
0
100
AcDbBlockEnd
0
BLOCK
5
167
330
156
100
AcDbEntity
8
0
100
AcDbBlockBegin
2
CC_LAMP
70
0
10
0
20
0
30
0
3
CC_LAMP
1

1001
CONDUITCAD
1000
{"ports":[{"name":"in","x":-45,"y":0,"dx":-1,"dy":0,"medium":"electrical","role":"connection"},{"name":"out","x":45,"y":0,"dx":1,"dy":0,"medium":"electrical","role":"connection"}],"symbol":{"name":"In
1000
dicator lamp","category":"Electrical","labelOffset":48,"geometryRevision":3,"convention":"IEC-60617 family","conformity":"Original master; not standards-certified","standardRefs":["IEC-60617"],"normat
1000
iveEntry":null,"review":{"level":"geometry-and-convention","dimensionalConformance":"not-verified","note":"Reviewed: silhouette, terminal positions, normal state and distinct function retained."},"gro
1000
up":"Components","aliases":["lamp"],"defaultLayer":"Electrical","extents":{"minX":-45,"minY":-23.99254036801959,"maxX":45,"maxY":23.99254036801959}}}
0
LINE
5
131
330
156
100
AcDbEntity
8
0
62
0
6
CONTINUOUS
100
AcDbLine
10
-45
20
0
30
0
11
-24
21
0
31
0
1001
CONDUITCAD
1000
{"id":"master-lamp-0"}
0
LINE
5
132
330
156
100
AcDbEntity
8
0
62
0
6
CONTINUOUS
100
AcDbLine
10
24
20
0
30
0
11
45
21
0
31
0
1001
CONDUITCAD
1000
{"id":"master-lamp-1"}
0
CIRCLE
5
133
330
156
100
AcDbEntity
8
0
62
0
6
CONTINUOUS
100
AcDbCircle
10
0
20
0
30
0
40
24
1001
CONDUITCAD
1000
{"id":"master-lamp-2"}
0
LINE
5
134
330
156
100
AcDbEntity
8
0
62
0
6
CONTINUOUS
100
AcDbLine
10
-17
20
-17
30
0
11
17
21
17
31
0
1001
CONDUITCAD
1000
{"id":"master-lamp-3"}
0
LINE
5
135
330
156
100
AcDbEntity
8
0
62
0
6
CONTINUOUS
100
AcDbLine
10
-17
20
17
30
0
11
17
21
-17
31
0
1001
CONDUITCAD
1000
{"id":"master-lamp-4"}
0
ENDBLK
5
168
330
156
100
AcDbEntity
8
0
100
AcDbBlockEnd
0
ENDSEC
0
SECTION
2
ENTITIES
0
TEXT
5
100
330
14E
100
AcDbEntity
8
Annotations
62
7
420
7181971
100
AcDbText
10
40
20
650
30
0
40
12
1
CONDUIT / ENGINEERING WORKSPACE
50
0
41
1
7
STANDARD
100
AcDbText
73
0
1001
CONDUITCAD
1000
{"id":"e-muhdwsot-177"}
0
TEXT
5
101
330
14E
100
AcDbEntity
8
Annotations
62
7
420
3165272
100
AcDbText
10
40
20
606
30
0
40
30
1
Motor control circuit
50
0
41
1
7
STANDARD
100
AcDbText
73
0
1001
CONDUITCAD
1000
{"id":"e-muhdwsot-178"}
0
TEXT
5
102
330
14E
100
AcDbEntity
8
Annotations
62
7
420
8688280
100
AcDbText
10
40
20
576
30
0
40
12
1
EL-301   ·   ELECTRICAL SCHEMATIC   ·   REV 03
50
0
41
1
7
STANDARD
100
AcDbText
73
0
1001
CONDUITCAD
1000
{"id":"e-muhdwsot-179"}
0
LINE
5
103
330
14E
100
AcDbEntity
8
Annotations
62
7
420
13424603
100
AcDbLine
10
40
20
553
30
0
11
1100
21
553
31
0
1001
CONDUITCAD
1000
{"id":"e-muhdwsot-17a","width":1}
0
INSERT
5
104
330
14E
100
AcDbEntity
8
Electrical
100
AcDbBlockReference
2
CC_BATTERY
10
130
20
350
30
0
41
1
42
1
43
1
50
0
66
1
1001
CONDUITCAD
1000
{"id":"e-muhdwsot-17b","tag":"24 VDC"}
0
ATTRIB
5
169
330
104
100
AcDbEntity
8
Electrical
100
AcDbText
10
130
20
302
30
0
40
12
1
24 VDC
50
0
41
1
7
STANDARD
72
1
11
130
21
302
31
0
100
AcDbAttribute
2
TAG
70
0
74
0
0
SEQEND
5
16A
330
104
100
AcDbEntity
8
Electrical
0
INSERT
5
105
330
14E
100
AcDbEntity
8
Electrical
100
AcDbBlockReference
2
CC_FUSE
10
310
20
350
30
0
41
1
42
1
43
1
50
0
66
1
1001
CONDUITCAD
1000
{"id":"e-muhdwsot-17c","tag":"F1"}
0
ATTRIB
5
16B
330
105
100
AcDbEntity
8
Electrical
100
AcDbText
10
310
20
302
30
0
40
12
1
F1
50
0
41
1
7
STANDARD
72
1
11
310
21
302
31
0
100
AcDbAttribute
2
TAG
70
0
74
0
0
SEQEND
5
16C
330
105
100
AcDbEntity
8
Electrical
0
INSERT
5
106
330
14E
100
AcDbEntity
8
Electrical
100
AcDbBlockReference
2
CC_SWITCH
10
490
20
350
30
0
41
1
42
1
43
1
50
0
66
1
1001
CONDUITCAD
1000
{"id":"e-muhdwsot-17d","tag":"S1"}
0
ATTRIB
5
16D
330
106
100
AcDbEntity
8
Electrical
100
AcDbText
10
490
20
302
30
0
40
12
1
S1
50
0
41
1
7
STANDARD
72
1
11
490
21
302
31
0
100
AcDbAttribute
2
TAG
70
0
74
0
0
SEQEND
5
16E
330
106
100
AcDbEntity
8
Electrical
0
INSERT
5
107
330
14E
100
AcDbEntity
8
Electrical
100
AcDbBlockReference
2
CC_RELAY
10
700
20
350
30
0
41
1
42
1
43
1
50
0
66
1
1001
CONDUITCAD
1000
{"id":"e-muhdwsot-17e","tag":"K1"}
0
ATTRIB
5
16F
330
107
100
AcDbEntity
8
Electrical
100
AcDbText
10
700
20
302
30
0
40
12
1
K1
50
0
41
1
7
STANDARD
72
1
11
700
21
302
31
0
100
AcDbAttribute
2
TAG
70
0
74
0
0
SEQEND
5
170
330
107
100
AcDbEntity
8
Electrical
0
INSERT
5
108
330
14E
100
AcDbEntity
8
Electrical
100
AcDbBlockReference
2
CC_MOTOR
10
930
20
350
30
0
41
1
42
1
43
1
50
0
66
1
1001
CONDUITCAD
1000
{"id":"e-muhdwsot-17f","tag":"M1"}
0
ATTRIB
5
171
330
108
100
AcDbEntity
8
Electrical
100
AcDbText
10
930
20
283
30
0
40
12
1
M1
50
0
41
1
7
STANDARD
72
1
11
930
21
283
31
0
100
AcDbAttribute
2
TAG
70
0
74
0
0
SEQEND
5
172
330
108
100
AcDbEntity
8
Electrical
0
LWPOLYLINE
5
109
330
14E
100
AcDbEntity
8
Electrical
62
7
420
6912436
100
AcDbPolyline
90
3
70
0
10
175
20
350
10
265
20
350
10
265
20
350
1001
CONDUITCAD
1000
{"id":"e-muhdwsot-17g","connector":{"from":{"entityId":"e-muhdwsot-17b","port":"out"},"to":{"entityId":"e-muhdwsot-17c","port":"in"},"style":"electrical","arrow":"none","waypoints":[],"status":"routed
1000
"},"label":"L+","dash":[],"width":1.5}
0
LWPOLYLINE
5
10A
330
14E
100
AcDbEntity
8
Electrical
62
7
420
6912436
100
AcDbPolyline
90
3
70
0
10
355
20
350
10
445
20
350
10
445
20
350
1001
CONDUITCAD
1000
{"id":"e-muhdwsot-17h","connector":{"from":{"entityId":"e-muhdwsot-17c","port":"out"},"to":{"entityId":"e-muhdwsot-17d","port":"in"},"style":"electrical","arrow":"none","waypoints":[],"status":"routed
1000
"},"label":"L+","dash":[],"width":1.5}
0
LWPOLYLINE
5
10B
330
14E
100
AcDbEntity
8
Electrical
62
7
420
6912436
100
AcDbPolyline
90
3
70
0
10
535
20
350
10
655
20
350
10
655
20
350
1001
CONDUITCAD
1000
{"id":"e-muhdwsot-17i","connector":{"from":{"entityId":"e-muhdwsot-17d","port":"out"},"to":{"entityId":"e-muhdwsot-17e","port":"in"},"style":"electrical","arrow":"none","waypoints":[],"status":"routed
1000
"},"label":"L+","dash":[],"width":1.5}
0
LWPOLYLINE
5
10C
330
14E
100
AcDbEntity
8
Electrical
62
7
420
6912436
100
AcDbPolyline
90
3
70
0
10
745
20
350
10
885
20
350
10
885
20
350
1001
CONDUITCAD
1000
{"id":"e-muhdwsot-17j","connector":{"from":{"entityId":"e-muhdwsot-17e","port":"out"},"to":{"entityId":"e-muhdwsot-17f","port":"in"},"style":"electrical","arrow":"none","waypoints":[],"status":"routed
1000
"},"label":"L+","dash":[],"width":1.5}
0
INSERT
5
10D
330
14E
100
AcDbEntity
8
Electrical
100
AcDbBlockReference
2
CC_GROUND
10
930
20
160
30
0
41
1
42
1
43
1
50
0
66
1
1001
CONDUITCAD
1000
{"id":"e-muhdwsot-17k","tag":"PE"}
0
ATTRIB
5
173
330
10D
100
AcDbEntity
8
Electrical
100
AcDbText
10
930
20
112
30
0
40
12
1
PE
50
0
41
1
7
STANDARD
72
1
11
930
21
112
31
0
100
AcDbAttribute
2
TAG
70
0
74
0
0
SEQEND
5
174
330
10D
100
AcDbEntity
8
Electrical
0
LWPOLYLINE
5
10E
330
14E
100
AcDbEntity
8
Electrical
62
7
420
6912436
100
AcDbPolyline
90
3
70
0
10
930
20
305
10
930
20
305
10
930
20
200
1001
CONDUITCAD
1000
{"id":"e-muhdwsot-17l","connector":{"from":{"entityId":"e-muhdwsot-17f","port":"bottom"},"to":{"entityId":"e-muhdwsot-17k","port":"terminal"},"style":"electrical","arrow":"none","waypoints":[],"status
1000
":"routed"},"label":"","dash":[],"width":1.5}
0
INSERT
5
10F
330
14E
100
AcDbEntity
8
Electrical
100
AcDbBlockReference
2
CC_LAMP
10
700
20
200
30
0
41
1
42
1
43
1
50
0
66
1
1001
CONDUITCAD
1000
{"id":"e-muhdwsot-17m","tag":"H1"}
0
ATTRIB
5
175
330
10F
100
AcDbEntity
8
Electrical
100
AcDbText
10
700
20
152
30
0
40
12
1
H1
50
0
41
1
7
STANDARD
72
1
11
700
21
152
31
0
100
AcDbAttribute
2
TAG
70
0
74
0
0
SEQEND
5
176
330
10F
100
AcDbEntity
8
Electrical
0
LWPOLYLINE
5
110
330
14E
100
AcDbEntity
8
Electrical
62
7
420
6912436
100
AcDbPolyline
90
4
70
0
10
535
20
350
10
560
20
350
10
560
20
200
10
655
20
200
1001
CONDUITCAD
1000
{"id":"e-muhdwsot-17n","connector":{"from":{"entityId":"e-muhdwsot-17d","port":"out"},"to":{"entityId":"e-muhdwsot-17m","port":"in"},"style":"electrical","arrow":"none","waypoints":[{"x":560,"y":350},
1000
{"x":560,"y":200}],"status":"routed"},"label":"","dash":[],"width":1.5}
0
LWPOLYLINE
5
111
330
14E
100
AcDbEntity
8
Electrical
62
7
420
6912436
100
AcDbPolyline
90
3
70
0
10
745
20
200
10
930
20
200
10
930
20
305
1001
CONDUITCAD
1000
{"id":"e-muhdwsot-17o","connector":{"from":{"entityId":"e-muhdwsot-17m","port":"out"},"to":{"entityId":"e-muhdwsot-17f","port":"bottom"},"style":"electrical","arrow":"none","waypoints":[{"x":930,"y":2
1000
00}],"status":"routed"},"label":"","dash":[],"width":1.5}
0
TEXT
5
112
330
14E
100
AcDbEntity
8
Annotations
62
7
420
8688280
100
AcDbText
10
80
20
470
30
0
40
12
1
CONTROL POWER
50
0
41
1
7
STANDARD
100
AcDbText
73
0
1001
CONDUITCAD
1000
{"id":"e-muhdwsot-17p"}
0
TEXT
5
113
330
14E
100
AcDbEntity
8
Annotations
62
7
420
8688280
100
AcDbText
10
650
20
470
30
0
40
12
1
OUTPUTS & INDICATION
50
0
41
1
7
STANDARD
100
AcDbText
73
0
1001
CONDUITCAD
1000
{"id":"e-muhdwsot-17q"}
0
LINE
5
114
330
14E
100
AcDbEntity
8
Annotations
62
7
420
13424603
100
AcDbLine
10
40
20
92
30
0
11
1100
21
92
31
0
1001
CONDUITCAD
1000
{"id":"e-muhdwsot-17r","width":1}
0
TEXT
5
115
330
14E
100
AcDbEntity
8
Annotations
62
7
420
8688280
100
AcDbText
10
40
20
60
30
0
40
10
1
SCHEMATIC · NOT FOR CONSTRUCTION
50
0
41
1
7
STANDARD
100
AcDbText
73
0
1001
CONDUITCAD
1000
{"id":"e-muhdwsot-17s"}
0
TEXT
5
116
330
14E
100
AcDbEntity
8
Annotations
62
7
420
8688280
100
AcDbText
10
720
20
60
30
0
40
10
1
UNITS: mm     |     MODEL SPACE     |     1 OF 1
50
0
41
1
7
STANDARD
100
AcDbText
73
0
1001
CONDUITCAD
1000
{"id":"e-muhdwsot-17t"}
0
ENDSEC
0
SECTION
2
OBJECTS
0
DICTIONARY
5
17D
330
0
100
AcDbDictionary
281
1
3
ACAD_LAYOUT
350
17E
3
ACAD_GROUP
350
17F
3
CONDUITCAD_METADATA
350
182
0
DICTIONARY
5
17E
330
17D
100
AcDbDictionary
281
1
3
Model
350
180
3
Layout1
350
181
0
DICTIONARY
5
17F
330
17D
100
AcDbDictionary
281
1
0
LAYOUT
5
180
330
17E
100
AcDbPlotSettings
1

2

4

6

40
0
41
0
42
0
43
0
44
420
45
297
46
0
47
0
48
0
49
0
140
0
141
0
142
1
143
1
70
0
72
1
73
0
74
5
7

75
16
76
0
77
0
78
300
147
1
148
0
149
0
100
AcDbLayout
1
Model
70
1
71
0
10
0
20
0
11
420
21
297
12
0
22
0
32
0
14
0
24
0
34
0
15
420
25
297
35
0
146
0
13
0
23
0
33
0
16
1
26
0
36
0
17
0
27
1
37
0
76
0
330
14E
0
LAYOUT
5
181
330
17E
100
AcDbPlotSettings
1

2

4

6

40
0
41
0
42
0
43
0
44
420
45
297
46
0
47
0
48
0
49
0
140
0
141
0
142
1
143
1
70
0
72
1
73
0
74
5
7

75
16
76
0
77
0
78
300
147
1
148
0
149
0
100
AcDbLayout
1
Layout1
70
1
71
1
10
0
20
0
11
420
21
297
12
0
22
0
32
0
14
0
24
0
34
0
15
420
25
297
35
0
146
0
13
0
23
0
33
0
16
1
26
0
36
0
17
0
27
1
37
0
76
0
330
14F
0
XRECORD
5
182
330
17D
100
AcDbXrecord
280
1
1
{"parameters":{"grid":"10","pipeWidth":"2","valveSize":"64"},"constraints":[],"metadata":{"author":"","description":"Editable demonstration drawing. Symbols are illustrative, not standards-certified."
1
}}
0
ENDSEC
0
EOF
