0
SECTION
2
HEADER
9
$ACADVER
1
AC1024
9
$INSUNITS
70
4
9
$LTSCALE
40
1
9
$MEASUREMENT
70
1
999
CONDUIT:{"parameters":{"grid":"10","pipeWidth":"2","valveSize":"64"},"constraints":[],"metadata":{"author":"","description":"Editable demonstration drawing. Symbols are illustrative, not s
999
CONDUIT:tandards-certified."}}
0
ENDSEC
0
SECTION
2
TABLES
0
TABLE
2
LTYPE
5
100
330
0
100
AcDbSymbolTable
70
1
0
LTYPE
5
101
100
AcDbSymbolTableRecord
100
AcDbLinetypeTableRecord
2
CONTINUOUS
70
0
3
Solid line
72
65
73
0
40
0
0
LTYPE
5
102
100
AcDbSymbolTableRecord
100
AcDbLinetypeTableRecord
2
DASHED
70
0
3
DASHED
72
65
73
2
40
12
49
8
74
0
49
-4
74
0
0
LTYPE
5
103
100
AcDbSymbolTableRecord
100
AcDbLinetypeTableRecord
2
CENTER
70
0
3
CENTER
72
65
73
4
40
20
49
12
74
0
49
-3
74
0
49
2
74
0
49
-3
74
0
0
LTYPE
5
104
100
AcDbSymbolTableRecord
100
AcDbLinetypeTableRecord
2
HIDDEN
70
0
3
HIDDEN
72
65
73
2
40
7
49
4
74
0
49
-3
74
0
0
ENDTAB
0
TABLE
2
LAYER
5
105
330
0
100
AcDbSymbolTable
70
13
0
LAYER
5
106
100
AcDbSymbolTableRecord
100
AcDbLayerTableRecord
2
0
70
0
62
7
420
3426133
6
CONTINUOUS
0
LAYER
5
107
100
AcDbSymbolTableRecord
100
AcDbLayerTableRecord
2
Equipment
70
0
62
7
420
3495011
6
CONTINUOUS
0
LAYER
5
108
100
AcDbSymbolTableRecord
100
AcDbLayerTableRecord
2
Process
70
0
62
7
420
1342583
6
CONTINUOUS
0
LAYER
5
109
100
AcDbSymbolTableRecord
100
AcDbLayerTableRecord
2
Instruments
70
0
62
7
420
10187334
6
CONTINUOUS
0
LAYER
5
10A
100
AcDbSymbolTableRecord
100
AcDbLayerTableRecord
2
Electrical
70
0
62
7
420
6584250
6
CONTINUOUS
0
LAYER
5
10B
100
AcDbSymbolTableRecord
100
AcDbLayerTableRecord
2
Annotations
70
0
62
7
420
7438474
6
CONTINUOUS
0
LAYER
5
10C
100
AcDbSymbolTableRecord
100
AcDbLayerTableRecord
2
Hydraulics
70
0
62
7
420
3495011
6
CONTINUOUS
0
LAYER
5
10D
100
AcDbSymbolTableRecord
100
AcDbLayerTableRecord
2
Pneumatics
70
0
62
7
420
3495011
6
CONTINUOUS
0
LAYER
5
10E
100
AcDbSymbolTableRecord
100
AcDbLayerTableRecord
2
HVAC
70
0
62
7
420
3495011
6
CONTINUOUS
0
LAYER
5
10F
100
AcDbSymbolTableRecord
100
AcDbLayerTableRecord
2
Water
70
0
62
7
420
3495011
6
CONTINUOUS
0
LAYER
5
110
100
AcDbSymbolTableRecord
100
AcDbLayerTableRecord
2
Automation
70
0
62
7
420
3495011
6
CONTINUOUS
0
LAYER
5
111
100
AcDbSymbolTableRecord
100
AcDbLayerTableRecord
2
Fire
70
0
62
7
420
3495011
6
CONTINUOUS
0
LAYER
5
112
100
AcDbSymbolTableRecord
100
AcDbLayerTableRecord
2
Network
70
0
62
7
420
3495011
6
CONTINUOUS
0
ENDTAB
0
TABLE
2
STYLE
5
113
330
0
100
AcDbSymbolTable
70
1
0
STYLE
5
114
100
AcDbSymbolTableRecord
100
AcDbTextStyleTableRecord
2
STANDARD
70
0
40
0
41
1
50
0
71
0
42
2.5
3
txt
4

0
ENDTAB
0
TABLE
2
APPID
5
115
330
0
100
AcDbSymbolTable
70
1
0
APPID
5
116
100
AcDbSymbolTableRecord
100
AcDbRegAppTableRecord
2
CONDUITCAD
70
0
0
ENDTAB
0
TABLE
2
BLOCK_RECORD
5
117
330
0
100
AcDbSymbolTable
70
9
0
BLOCK_RECORD
5
118
100
AcDbSymbolTableRecord
100
AcDbBlockTableRecord
2
*Model_Space
0
BLOCK_RECORD
5
119
100
AcDbSymbolTableRecord
100
AcDbBlockTableRecord
2
*Paper_Space
0
BLOCK_RECORD
5
11A
100
AcDbSymbolTableRecord
100
AcDbBlockTableRecord
2
CC_BATTERY
0
BLOCK_RECORD
5
11B
100
AcDbSymbolTableRecord
100
AcDbBlockTableRecord
2
CC_FUSE
0
BLOCK_RECORD
5
11C
100
AcDbSymbolTableRecord
100
AcDbBlockTableRecord
2
CC_SWITCH
0
BLOCK_RECORD
5
11D
100
AcDbSymbolTableRecord
100
AcDbBlockTableRecord
2
CC_RELAY
0
BLOCK_RECORD
5
11E
100
AcDbSymbolTableRecord
100
AcDbBlockTableRecord
2
CC_MOTOR
0
BLOCK_RECORD
5
11F
100
AcDbSymbolTableRecord
100
AcDbBlockTableRecord
2
CC_GROUND
0
BLOCK_RECORD
5
120
100
AcDbSymbolTableRecord
100
AcDbBlockTableRecord
2
CC_LAMP
0
ENDTAB
0
ENDSEC
0
SECTION
2
BLOCKS
0
BLOCK
5
121
330
118
100
AcDbEntity
8
0
100
AcDbBlockBegin
2
*Model_Space
70
0
10
0
20
0
30
0
3
*Model_Space
1

1001
CONDUITCAD
1000
{"ports":[]}
0
ENDBLK
5
122
330
118
100
AcDbEntity
8
0
100
AcDbBlockEnd
0
BLOCK
5
123
330
119
100
AcDbEntity
8
0
100
AcDbBlockBegin
2
*Paper_Space
70
0
10
0
20
0
30
0
3
*Paper_Space
1

1001
CONDUITCAD
1000
{"ports":[]}
0
ENDBLK
5
124
330
119
100
AcDbEntity
8
0
100
AcDbBlockEnd
0
BLOCK
5
125
330
11A
100
AcDbEntity
8
0
100
AcDbBlockBegin
2
CC_BATTERY
70
0
10
0
20
0
30
0
3
CC_BATTERY
1

1001
CONDUITCAD
1000
{"ports":[{"name":"in","x":-45,"y":0,"dx":-1,"dy":0,"medium":"electrical","role":"connection"},{"name":"out","x":45,"y":0,"dx":1,"dy":0,"medium":"electrical","role":"connection"}],"symbol":{"name":"Ba
1000
ttery","category":"Electrical","labelOffset":48,"geometryRevision":3,"convention":"IEC-60617 family","conformity":"Original master; not standards-certified","standardRefs":["IEC-60617"],"normativeEntr
1000
y":null,"review":{"level":"geometry-and-convention","dimensionalConformance":"not-verified","note":"Reviewed: silhouette, terminal positions, normal state and distinct function retained."},"group":"Co
1000
mponents","aliases":["battery"],"defaultLayer":"Electrical","extents":{"minX":-45,"minY":-24,"maxX":45,"maxY":24}}}
0
LINE
5
126
330
11A
100
AcDbEntity
8
0
62
0
6
CONTINUOUS
100
AcDbLine
10
-45
20
0
30
0
11
-18
21
0
31
0
1001
CONDUITCAD
1000
{"id":"master-battery-0"}
0
LINE
5
127
330
11A
100
AcDbEntity
8
0
62
0
6
CONTINUOUS
100
AcDbLine
10
18
20
0
30
0
11
45
21
0
31
0
1001
CONDUITCAD
1000
{"id":"master-battery-1"}
0
LINE
5
128
330
11A
100
AcDbEntity
8
0
62
0
6
CONTINUOUS
100
AcDbLine
10
-18
20
-24
30
0
11
-18
21
24
31
0
1001
CONDUITCAD
1000
{"id":"master-battery-2"}
0
LINE
5
129
330
11A
100
AcDbEntity
8
0
62
0
6
CONTINUOUS
100
AcDbLine
10
-6
20
-12
30
0
11
-6
21
12
31
0
1001
CONDUITCAD
1000
{"id":"master-battery-3"}
0
LINE
5
12A
330
11A
100
AcDbEntity
8
0
62
0
6
CONTINUOUS
100
AcDbLine
10
6
20
-24
30
0
11
6
21
24
31
0
1001
CONDUITCAD
1000
{"id":"master-battery-4"}
0
LINE
5
12B
330
11A
100
AcDbEntity
8
0
62
0
6
CONTINUOUS
100
AcDbLine
10
18
20
-12
30
0
11
18
21
12
31
0
1001
CONDUITCAD
1000
{"id":"master-battery-5"}
0
ENDBLK
5
12C
330
11A
100
AcDbEntity
8
0
100
AcDbBlockEnd
0
BLOCK
5
12D
330
11B
100
AcDbEntity
8
0
100
AcDbBlockBegin
2
CC_FUSE
70
0
10
0
20
0
30
0
3
CC_FUSE
1

1001
CONDUITCAD
1000
{"ports":[{"name":"in","x":-45,"y":0,"dx":-1,"dy":0,"medium":"electrical","role":"connection"},{"name":"out","x":45,"y":0,"dx":1,"dy":0,"medium":"electrical","role":"connection"}],"symbol":{"name":"Fu
1000
se","category":"Electrical","labelOffset":48,"geometryRevision":3,"convention":"IEC-60617 family","conformity":"Original master; not standards-certified","standardRefs":["IEC-60617"],"normativeEntry":
1000
null,"review":{"level":"geometry-and-convention","dimensionalConformance":"not-verified","note":"Reviewed: silhouette, terminal positions, normal state and distinct function retained."},"group":"Compo
1000
nents","aliases":["fuse"],"defaultLayer":"Electrical","extents":{"minX":-45,"minY":-10,"maxX":45,"maxY":10}}}
0
LINE
5
12E
330
11B
100
AcDbEntity
8
0
62
0
6
CONTINUOUS
100
AcDbLine
10
-45
20
0
30
0
11
45
21
0
31
0
1001
CONDUITCAD
1000
{"id":"master-fuse-0"}
0
LWPOLYLINE
5
12F
330
11B
100
AcDbEntity
8
0
62
0
6
CONTINUOUS
100
AcDbPolyline
90
4
70
1
10
-24
20
-10
10
24
20
-10
10
24
20
10
10
-24
20
10
1001
CONDUITCAD
1000
{"id":"master-fuse-1"}
0
ENDBLK
5
130
330
11B
100
AcDbEntity
8
0
100
AcDbBlockEnd
0
BLOCK
5
131
330
11C
100
AcDbEntity
8
0
100
AcDbBlockBegin
2
CC_SWITCH
70
0
10
0
20
0
30
0
3
CC_SWITCH
1

1001
CONDUITCAD
1000
{"ports":[{"name":"in","x":-45,"y":0,"dx":-1,"dy":0,"medium":"electrical","role":"connection"},{"name":"out","x":45,"y":0,"dx":1,"dy":0,"medium":"electrical","role":"connection"}],"symbol":{"name":"Sw
1000
itch \u00b7 normally open","category":"Electrical","labelOffset":48,"geometryRevision":3,"convention":"IEC-60617 family","conformity":"Original master; not standards-certified","standardRefs":["IEC-60
1000
617"],"normativeEntry":null,"review":{"level":"geometry-and-convention","dimensionalConformance":"not-verified","note":"Reviewed: silhouette, terminal positions, normal state and distinct function ret
1000
ained."},"group":"Components","aliases":["switch"],"defaultLayer":"Electrical","extents":{"minX":-45,"minY":-2.993006307571618,"maxX":45,"maxY":26}}}
0
LINE
5
132
330
11C
100
AcDbEntity
8
0
62
0
6
CONTINUOUS
100
AcDbLine
10
-45
20
0
30
0
11
-23
21
0
31
0
1001
CONDUITCAD
1000
{"id":"master-switch-0"}
0
LINE
5
133
330
11C
100
AcDbEntity
8
0
62
0
6
CONTINUOUS
100
AcDbLine
10
23
20
0
30
0
11
45
21
0
31
0
1001
CONDUITCAD
1000
{"id":"master-switch-1"}
0
CIRCLE
5
134
330
11C
100
AcDbEntity
8
0
62
0
6
CONTINUOUS
100
AcDbCircle
10
-22
20
0
30
0
40
3
1001
CONDUITCAD
1000
{"id":"master-switch-2"}
0
CIRCLE
5
135
330
11C
100
AcDbEntity
8
0
62
0
6
CONTINUOUS
100
AcDbCircle
10
22
20
0
30
0
40
3
1001
CONDUITCAD
1000
{"id":"master-switch-3"}
0
LINE
5
136
330
11C
100
AcDbEntity
8
0
62
0
6
CONTINUOUS
100
AcDbLine
10
-20
20
2
30
0
11
19
21
26
31
0
1001
CONDUITCAD
1000
{"id":"master-switch-4"}
0
ENDBLK
5
137
330
11C
100
AcDbEntity
8
0
100
AcDbBlockEnd
0
BLOCK
5
138
330
11D
100
AcDbEntity
8
0
100
AcDbBlockBegin
2
CC_RELAY
70
0
10
0
20
0
30
0
3
CC_RELAY
1

1001
CONDUITCAD
1000
{"ports":[{"name":"in","x":-45,"y":0,"dx":-1,"dy":0,"medium":"electrical","role":"connection"},{"name":"out","x":45,"y":0,"dx":1,"dy":0,"medium":"electrical","role":"connection"}],"symbol":{"name":"Re
1000
lay coil","category":"Electrical","labelOffset":48,"geometryRevision":3,"convention":"IEC-60617 family","conformity":"Original master; not standards-certified","standardRefs":["IEC-60617"],"normativeE
1000
ntry":null,"review":{"level":"geometry-and-convention","dimensionalConformance":"not-verified","note":"Plain coil rectangle; remove diagonal that implied a different actuator."},"group":"Components","
1000
aliases":["relay"],"defaultLayer":"Electrical","extents":{"minX":-45,"minY":-18,"maxX":45,"maxY":18}}}
0
LINE
5
139
330
11D
100
AcDbEntity
8
0
62
0
6
CONTINUOUS
100
AcDbLine
10
-45
20
0
30
0
11
-25
21
0
31
0
1001
CONDUITCAD
1000
{"id":"master-relay-0"}
0
LINE
5
13A
330
11D
100
AcDbEntity
8
0
62
0
6
CONTINUOUS
100
AcDbLine
10
25
20
0
30
0
11
45
21
0
31
0
1001
CONDUITCAD
1000
{"id":"master-relay-1"}
0
LWPOLYLINE
5
13B
330
11D
100
AcDbEntity
8
0
62
0
6
CONTINUOUS
100
AcDbPolyline
90
4
70
1
10
-25
20
-18
10
25
20
-18
10
25
20
18
10
-25
20
18
1001
CONDUITCAD
1000
{"id":"master-relay-2"}
0
ENDBLK
5
13C
330
11D
100
AcDbEntity
8
0
100
AcDbBlockEnd
0
BLOCK
5
13D
330
11E
100
AcDbEntity
8
0
100
AcDbBlockBegin
2
CC_MOTOR
70
0
10
0
20
0
30
0
3
CC_MOTOR
1

1001
CONDUITCAD
1000
{"ports":[{"name":"in","x":-45,"y":0,"dx":-1,"dy":0,"medium":"electrical","role":"connection"},{"name":"out","x":45,"y":0,"dx":1,"dy":0,"medium":"electrical","role":"connection"},{"name":"top","x":0,"
1000
y":45,"dx":0,"dy":1,"medium":"electrical","role":"connection"},{"name":"bottom","x":0,"y":-45,"dx":0,"dy":-1,"medium":"electrical","role":"connection"}],"symbol":{"name":"Motor","category":"Electrical
1000
","labelOffset":67,"geometryRevision":3,"convention":"IEC-60617 family","conformity":"Original master; not standards-certified","standardRefs":["IEC-60617"],"normativeEntry":null,"review":{"level":"ge
1000
ometry-and-convention","dimensionalConformance":"not-verified","note":"Reviewed: silhouette, terminal positions, normal state and distinct function retained."},"group":"Components","aliases":["motor"]
1000
,"defaultLayer":"Electrical","extents":{"minX":-45,"minY":-45,"maxX":45,"maxY":45}}}
0
LINE
5
13E
330
11E
100
AcDbEntity
8
0
62
0
6
CONTINUOUS
100
AcDbLine
10
-45
20
0
30
0
11
-29
21
0
31
0
1001
CONDUITCAD
1000
{"id":"master-motor-0"}
0
LINE
5
13F
330
11E
100
AcDbEntity
8
0
62
0
6
CONTINUOUS
100
AcDbLine
10
29
20
0
30
0
11
45
21
0
31
0
1001
CONDUITCAD
1000
{"id":"master-motor-1"}
0
LINE
5
140
330
11E
100
AcDbEntity
8
0
62
0
6
CONTINUOUS
100
AcDbLine
10
0
20
29
30
0
11
0
21
45
31
0
1001
CONDUITCAD
1000
{"id":"master-motor-2"}
0
LINE
5
141
330
11E
100
AcDbEntity
8
0
62
0
6
CONTINUOUS
100
AcDbLine
10
0
20
-29
30
0
11
0
21
-45
31
0
1001
CONDUITCAD
1000
{"id":"master-motor-3"}
0
CIRCLE
5
142
330
11E
100
AcDbEntity
8
0
62
0
6
CONTINUOUS
100
AcDbCircle
10
0
20
0
30
0
40
29
1001
CONDUITCAD
1000
{"id":"master-motor-4"}
0
TEXT
5
143
330
11E
100
AcDbEntity
8
0
62
0
6
CONTINUOUS
100
AcDbText
10
0
20
-7
30
0
40
22
1
M
50
0
41
1
7
STANDARD
72
1
11
0
21
-7
31
0
100
AcDbText
73
0
1001
CONDUITCAD
1000
{"id":"master-motor-5"}
0
ENDBLK
5
144
330
11E
100
AcDbEntity
8
0
100
AcDbBlockEnd
0
BLOCK
5
145
330
11F
100
AcDbEntity
8
0
100
AcDbBlockBegin
2
CC_GROUND
70
0
10
0
20
0
30
0
3
CC_GROUND
1

1001
CONDUITCAD
1000
{"ports":[{"name":"terminal","x":0,"y":40,"dx":0,"dy":1,"medium":"electrical","role":"connection"}],"symbol":{"name":"Protective earth","category":"Electrical","labelOffset":48,"geometryRevision":3,"c
1000
onvention":"IEC-60617 family","conformity":"Original master; not standards-certified","standardRefs":["IEC-60617"],"normativeEntry":null,"review":{"level":"geometry-and-convention","dimensionalConform
1000
ance":"not-verified","note":"Reviewed: silhouette, terminal positions, normal state and distinct function retained."},"group":"Components","aliases":["ground"],"defaultLayer":"Electrical","extents":{"
1000
minX":-26,"minY":-15,"maxX":26,"maxY":40}}}
0
LINE
5
146
330
11F
100
AcDbEntity
8
0
62
0
6
CONTINUOUS
100
AcDbLine
10
0
20
40
30
0
11
0
21
5
31
0
1001
CONDUITCAD
1000
{"id":"master-ground-0"}
0
LINE
5
147
330
11F
100
AcDbEntity
8
0
62
0
6
CONTINUOUS
100
AcDbLine
10
-26
20
5
30
0
11
26
21
5
31
0
1001
CONDUITCAD
1000
{"id":"master-ground-1"}
0
LINE
5
148
330
11F
100
AcDbEntity
8
0
62
0
6
CONTINUOUS
100
AcDbLine
10
-17
20
-5
30
0
11
17
21
-5
31
0
1001
CONDUITCAD
1000
{"id":"master-ground-2"}
0
LINE
5
149
330
11F
100
AcDbEntity
8
0
62
0
6
CONTINUOUS
100
AcDbLine
10
-8
20
-15
30
0
11
8
21
-15
31
0
1001
CONDUITCAD
1000
{"id":"master-ground-3"}
0
ENDBLK
5
14A
330
11F
100
AcDbEntity
8
0
100
AcDbBlockEnd
0
BLOCK
5
14B
330
120
100
AcDbEntity
8
0
100
AcDbBlockBegin
2
CC_LAMP
70
0
10
0
20
0
30
0
3
CC_LAMP
1

1001
CONDUITCAD
1000
{"ports":[{"name":"in","x":-45,"y":0,"dx":-1,"dy":0,"medium":"electrical","role":"connection"},{"name":"out","x":45,"y":0,"dx":1,"dy":0,"medium":"electrical","role":"connection"}],"symbol":{"name":"In
1000
dicator lamp","category":"Electrical","labelOffset":48,"geometryRevision":3,"convention":"IEC-60617 family","conformity":"Original master; not standards-certified","standardRefs":["IEC-60617"],"normat
1000
iveEntry":null,"review":{"level":"geometry-and-convention","dimensionalConformance":"not-verified","note":"Reviewed: silhouette, terminal positions, normal state and distinct function retained."},"gro
1000
up":"Components","aliases":["lamp"],"defaultLayer":"Electrical","extents":{"minX":-45,"minY":-23.99254036801959,"maxX":45,"maxY":23.99254036801959}}}
0
LINE
5
14C
330
120
100
AcDbEntity
8
0
62
0
6
CONTINUOUS
100
AcDbLine
10
-45
20
0
30
0
11
-24
21
0
31
0
1001
CONDUITCAD
1000
{"id":"master-lamp-0"}
0
LINE
5
14D
330
120
100
AcDbEntity
8
0
62
0
6
CONTINUOUS
100
AcDbLine
10
24
20
0
30
0
11
45
21
0
31
0
1001
CONDUITCAD
1000
{"id":"master-lamp-1"}
0
CIRCLE
5
14E
330
120
100
AcDbEntity
8
0
62
0
6
CONTINUOUS
100
AcDbCircle
10
0
20
0
30
0
40
24
1001
CONDUITCAD
1000
{"id":"master-lamp-2"}
0
LINE
5
14F
330
120
100
AcDbEntity
8
0
62
0
6
CONTINUOUS
100
AcDbLine
10
-17
20
-17
30
0
11
17
21
17
31
0
1001
CONDUITCAD
1000
{"id":"master-lamp-3"}
0
LINE
5
150
330
120
100
AcDbEntity
8
0
62
0
6
CONTINUOUS
100
AcDbLine
10
-17
20
17
30
0
11
17
21
-17
31
0
1001
CONDUITCAD
1000
{"id":"master-lamp-4"}
0
ENDBLK
5
151
330
120
100
AcDbEntity
8
0
100
AcDbBlockEnd
0
ENDSEC
0
SECTION
2
ENTITIES
0
TEXT
5
152
330
118
100
AcDbEntity
8
Annotations
62
7
420
7181971
100
AcDbText
10
40
20
650
30
0
40
12
1
CONDUIT / ENGINEERING WORKSPACE
50
0
41
1
7
STANDARD
100
AcDbText
73
0
1001
CONDUITCAD
1000
{"id":"e-mugr5p2z-177"}
0
TEXT
5
153
330
118
100
AcDbEntity
8
Annotations
62
7
420
3165272
100
AcDbText
10
40
20
606
30
0
40
30
1
Motor control circuit
50
0
41
1
7
STANDARD
100
AcDbText
73
0
1001
CONDUITCAD
1000
{"id":"e-mugr5p2z-178"}
0
TEXT
5
154
330
118
100
AcDbEntity
8
Annotations
62
7
420
8688280
100
AcDbText
10
40
20
576
30
0
40
12
1
EL-301   ·   ELECTRICAL SCHEMATIC   ·   REV 03
50
0
41
1
7
STANDARD
100
AcDbText
73
0
1001
CONDUITCAD
1000
{"id":"e-mugr5p2z-179"}
0
LINE
5
155
330
118
100
AcDbEntity
8
Annotations
62
7
420
13424603
100
AcDbLine
10
40
20
553
30
0
11
1100
21
553
31
0
1001
CONDUITCAD
1000
{"id":"e-mugr5p2z-17a","width":1}
0
INSERT
5
156
330
118
100
AcDbEntity
8
Electrical
100
AcDbBlockReference
2
CC_BATTERY
10
130
20
350
30
0
41
1
42
1
43
1
50
0
66
1
1001
CONDUITCAD
1000
{"id":"e-mugr5p2z-17b","tag":"24 VDC"}
0
ATTRIB
5
157
330
118
100
AcDbEntity
8
Electrical
100
AcDbText
10
130
20
302
30
0
40
12
1
24 VDC
50
0
41
1
7
STANDARD
72
1
11
130
21
302
31
0
100
AcDbAttribute
2
TAG
70
0
74
0
0
SEQEND
5
158
100
AcDbEntity
8
Electrical
0
INSERT
5
159
330
118
100
AcDbEntity
8
Electrical
100
AcDbBlockReference
2
CC_FUSE
10
310
20
350
30
0
41
1
42
1
43
1
50
0
66
1
1001
CONDUITCAD
1000
{"id":"e-mugr5p2z-17c","tag":"F1"}
0
ATTRIB
5
15A
330
118
100
AcDbEntity
8
Electrical
100
AcDbText
10
310
20
302
30
0
40
12
1
F1
50
0
41
1
7
STANDARD
72
1
11
310
21
302
31
0
100
AcDbAttribute
2
TAG
70
0
74
0
0
SEQEND
5
15B
100
AcDbEntity
8
Electrical
0
INSERT
5
15C
330
118
100
AcDbEntity
8
Electrical
100
AcDbBlockReference
2
CC_SWITCH
10
490
20
350
30
0
41
1
42
1
43
1
50
0
66
1
1001
CONDUITCAD
1000
{"id":"e-mugr5p2z-17d","tag":"S1"}
0
ATTRIB
5
15D
330
118
100
AcDbEntity
8
Electrical
100
AcDbText
10
490
20
302
30
0
40
12
1
S1
50
0
41
1
7
STANDARD
72
1
11
490
21
302
31
0
100
AcDbAttribute
2
TAG
70
0
74
0
0
SEQEND
5
15E
100
AcDbEntity
8
Electrical
0
INSERT
5
15F
330
118
100
AcDbEntity
8
Electrical
100
AcDbBlockReference
2
CC_RELAY
10
700
20
350
30
0
41
1
42
1
43
1
50
0
66
1
1001
CONDUITCAD
1000
{"id":"e-mugr5p2z-17e","tag":"K1"}
0
ATTRIB
5
160
330
118
100
AcDbEntity
8
Electrical
100
AcDbText
10
700
20
302
30
0
40
12
1
K1
50
0
41
1
7
STANDARD
72
1
11
700
21
302
31
0
100
AcDbAttribute
2
TAG
70
0
74
0
0
SEQEND
5
161
100
AcDbEntity
8
Electrical
0
INSERT
5
162
330
118
100
AcDbEntity
8
Electrical
100
AcDbBlockReference
2
CC_MOTOR
10
930
20
350
30
0
41
1
42
1
43
1
50
0
66
1
1001
CONDUITCAD
1000
{"id":"e-mugr5p2z-17f","tag":"M1"}
0
ATTRIB
5
163
330
118
100
AcDbEntity
8
Electrical
100
AcDbText
10
930
20
283
30
0
40
12
1
M1
50
0
41
1
7
STANDARD
72
1
11
930
21
283
31
0
100
AcDbAttribute
2
TAG
70
0
74
0
0
SEQEND
5
164
100
AcDbEntity
8
Electrical
0
LWPOLYLINE
5
165
330
118
100
AcDbEntity
8
Electrical
62
7
420
6912436
100
AcDbPolyline
90
3
70
0
10
175
20
350
10
265
20
350
10
265
20
350
1001
CONDUITCAD
1000
{"id":"e-mugr5p2z-17g","connector":{"from":{"entityId":"e-mugr5p2z-17b","port":"out"},"to":{"entityId":"e-mugr5p2z-17c","port":"in"},"style":"electrical","arrow":"none","waypoints":[],"status":"routed
1000
"},"label":"L+","dash":[],"width":1.5}
0
LWPOLYLINE
5
166
330
118
100
AcDbEntity
8
Electrical
62
7
420
6912436
100
AcDbPolyline
90
3
70
0
10
355
20
350
10
445
20
350
10
445
20
350
1001
CONDUITCAD
1000
{"id":"e-mugr5p2z-17h","connector":{"from":{"entityId":"e-mugr5p2z-17c","port":"out"},"to":{"entityId":"e-mugr5p2z-17d","port":"in"},"style":"electrical","arrow":"none","waypoints":[],"status":"routed
1000
"},"label":"L+","dash":[],"width":1.5}
0
LWPOLYLINE
5
167
330
118
100
AcDbEntity
8
Electrical
62
7
420
6912436
100
AcDbPolyline
90
3
70
0
10
535
20
350
10
655
20
350
10
655
20
350
1001
CONDUITCAD
1000
{"id":"e-mugr5p2z-17i","connector":{"from":{"entityId":"e-mugr5p2z-17d","port":"out"},"to":{"entityId":"e-mugr5p2z-17e","port":"in"},"style":"electrical","arrow":"none","waypoints":[],"status":"routed
1000
"},"label":"L+","dash":[],"width":1.5}
0
LWPOLYLINE
5
168
330
118
100
AcDbEntity
8
Electrical
62
7
420
6912436
100
AcDbPolyline
90
3
70
0
10
745
20
350
10
885
20
350
10
885
20
350
1001
CONDUITCAD
1000
{"id":"e-mugr5p2z-17j","connector":{"from":{"entityId":"e-mugr5p2z-17e","port":"out"},"to":{"entityId":"e-mugr5p2z-17f","port":"in"},"style":"electrical","arrow":"none","waypoints":[],"status":"routed
1000
"},"label":"L+","dash":[],"width":1.5}
0
INSERT
5
169
330
118
100
AcDbEntity
8
Electrical
100
AcDbBlockReference
2
CC_GROUND
10
930
20
160
30
0
41
1
42
1
43
1
50
0
66
1
1001
CONDUITCAD
1000
{"id":"e-mugr5p2z-17k","tag":"PE"}
0
ATTRIB
5
16A
330
118
100
AcDbEntity
8
Electrical
100
AcDbText
10
930
20
112
30
0
40
12
1
PE
50
0
41
1
7
STANDARD
72
1
11
930
21
112
31
0
100
AcDbAttribute
2
TAG
70
0
74
0
0
SEQEND
5
16B
100
AcDbEntity
8
Electrical
0
LWPOLYLINE
5
16C
330
118
100
AcDbEntity
8
Electrical
62
7
420
6912436
100
AcDbPolyline
90
3
70
0
10
930
20
305
10
930
20
305
10
930
20
200
1001
CONDUITCAD
1000
{"id":"e-mugr5p2z-17l","connector":{"from":{"entityId":"e-mugr5p2z-17f","port":"bottom"},"to":{"entityId":"e-mugr5p2z-17k","port":"terminal"},"style":"electrical","arrow":"none","waypoints":[],"status
1000
":"routed"},"label":"","dash":[],"width":1.5}
0
INSERT
5
16D
330
118
100
AcDbEntity
8
Electrical
100
AcDbBlockReference
2
CC_LAMP
10
700
20
200
30
0
41
1
42
1
43
1
50
0
66
1
1001
CONDUITCAD
1000
{"id":"e-mugr5p2z-17m","tag":"H1"}
0
ATTRIB
5
16E
330
118
100
AcDbEntity
8
Electrical
100
AcDbText
10
700
20
152
30
0
40
12
1
H1
50
0
41
1
7
STANDARD
72
1
11
700
21
152
31
0
100
AcDbAttribute
2
TAG
70
0
74
0
0
SEQEND
5
16F
100
AcDbEntity
8
Electrical
0
LWPOLYLINE
5
170
330
118
100
AcDbEntity
8
Electrical
62
7
420
6912436
100
AcDbPolyline
90
4
70
0
10
535
20
350
10
560
20
350
10
560
20
200
10
655
20
200
1001
CONDUITCAD
1000
{"id":"e-mugr5p2z-17n","connector":{"from":{"entityId":"e-mugr5p2z-17d","port":"out"},"to":{"entityId":"e-mugr5p2z-17m","port":"in"},"style":"electrical","arrow":"none","waypoints":[{"x":560,"y":350},
1000
{"x":560,"y":200}],"status":"routed"},"label":"","dash":[],"width":1.5}
0
LWPOLYLINE
5
171
330
118
100
AcDbEntity
8
Electrical
62
7
420
6912436
100
AcDbPolyline
90
3
70
0
10
745
20
200
10
930
20
200
10
930
20
305
1001
CONDUITCAD
1000
{"id":"e-mugr5p2z-17o","connector":{"from":{"entityId":"e-mugr5p2z-17m","port":"out"},"to":{"entityId":"e-mugr5p2z-17f","port":"bottom"},"style":"electrical","arrow":"none","waypoints":[{"x":930,"y":2
1000
00}],"status":"routed"},"label":"","dash":[],"width":1.5}
0
TEXT
5
172
330
118
100
AcDbEntity
8
Annotations
62
7
420
8688280
100
AcDbText
10
80
20
470
30
0
40
12
1
CONTROL POWER
50
0
41
1
7
STANDARD
100
AcDbText
73
0
1001
CONDUITCAD
1000
{"id":"e-mugr5p2z-17p"}
0
TEXT
5
173
330
118
100
AcDbEntity
8
Annotations
62
7
420
8688280
100
AcDbText
10
650
20
470
30
0
40
12
1
OUTPUTS & INDICATION
50
0
41
1
7
STANDARD
100
AcDbText
73
0
1001
CONDUITCAD
1000
{"id":"e-mugr5p2z-17q"}
0
LINE
5
174
330
118
100
AcDbEntity
8
Annotations
62
7
420
13424603
100
AcDbLine
10
40
20
92
30
0
11
1100
21
92
31
0
1001
CONDUITCAD
1000
{"id":"e-mugr5p2z-17r","width":1}
0
TEXT
5
175
330
118
100
AcDbEntity
8
Annotations
62
7
420
8688280
100
AcDbText
10
40
20
60
30
0
40
10
1
SCHEMATIC · NOT FOR CONSTRUCTION
50
0
41
1
7
STANDARD
100
AcDbText
73
0
1001
CONDUITCAD
1000
{"id":"e-mugr5p2z-17s"}
0
TEXT
5
176
330
118
100
AcDbEntity
8
Annotations
62
7
420
8688280
100
AcDbText
10
720
20
60
30
0
40
10
1
UNITS: mm     |     MODEL SPACE     |     1 OF 1
50
0
41
1
7
STANDARD
100
AcDbText
73
0
1001
CONDUITCAD
1000
{"id":"e-mugr5p2z-17t"}
0
ENDSEC
0
EOF
