0
SECTION
2
HEADER
9
$ACADVER
1
AC1024
9
$INSUNITS
70
4
9
$LTSCALE
40
1
9
$MEASUREMENT
70
1
999
CONDUIT:{"parameters":{"grid":"10","pipeWidth":"2","valveSize":"64"},"constraints":[],"metadata":{"author":"","description":"Editable demonstration drawing. Symbols are illustrative, not s
999
CONDUIT:tandards-certified."}}
0
ENDSEC
0
SECTION
2
TABLES
0
TABLE
2
LTYPE
5
100
330
0
100
AcDbSymbolTable
70
1
0
LTYPE
5
101
100
AcDbSymbolTableRecord
100
AcDbLinetypeTableRecord
2
CONTINUOUS
70
0
3
Solid line
72
65
73
0
40
0
0
LTYPE
5
102
100
AcDbSymbolTableRecord
100
AcDbLinetypeTableRecord
2
DASHED
70
0
3
DASHED
72
65
73
2
40
12
49
8
74
0
49
-4
74
0
0
LTYPE
5
103
100
AcDbSymbolTableRecord
100
AcDbLinetypeTableRecord
2
CENTER
70
0
3
CENTER
72
65
73
4
40
20
49
12
74
0
49
-3
74
0
49
2
74
0
49
-3
74
0
0
LTYPE
5
104
100
AcDbSymbolTableRecord
100
AcDbLinetypeTableRecord
2
HIDDEN
70
0
3
HIDDEN
72
65
73
2
40
7
49
4
74
0
49
-3
74
0
0
LTYPE
5
105
100
AcDbSymbolTableRecord
100
AcDbLinetypeTableRecord
2
CC_DASH_4_3
70
0
3
CC_DASH_4_3
72
65
73
2
40
7
49
4
74
0
49
-3
74
0
0
ENDTAB
0
TABLE
2
LAYER
5
106
330
0
100
AcDbSymbolTable
70
6
0
LAYER
5
107
100
AcDbSymbolTableRecord
100
AcDbLayerTableRecord
2
0
70
0
62
7
420
3426133
6
CONTINUOUS
0
LAYER
5
108
100
AcDbSymbolTableRecord
100
AcDbLayerTableRecord
2
Equipment
70
0
62
7
420
3495011
6
CONTINUOUS
0
LAYER
5
109
100
AcDbSymbolTableRecord
100
AcDbLayerTableRecord
2
Process
70
0
62
7
420
1342583
6
CONTINUOUS
0
LAYER
5
10A
100
AcDbSymbolTableRecord
100
AcDbLayerTableRecord
2
Instruments
70
0
62
7
420
10187334
6
CONTINUOUS
0
LAYER
5
10B
100
AcDbSymbolTableRecord
100
AcDbLayerTableRecord
2
Electrical
70
0
62
7
420
6584250
6
CONTINUOUS
0
LAYER
5
10C
100
AcDbSymbolTableRecord
100
AcDbLayerTableRecord
2
Annotations
70
0
62
7
420
7438474
6
CONTINUOUS
0
ENDTAB
0
TABLE
2
STYLE
5
10D
330
0
100
AcDbSymbolTable
70
1
0
STYLE
5
10E
100
AcDbSymbolTableRecord
100
AcDbTextStyleTableRecord
2
STANDARD
70
0
40
0
41
1
50
0
71
0
42
2.5
3
txt
4

0
ENDTAB
0
TABLE
2
APPID
5
10F
330
0
100
AcDbSymbolTable
70
1
0
APPID
5
110
100
AcDbSymbolTableRecord
100
AcDbRegAppTableRecord
2
CONDUITCAD
70
0
0
ENDTAB
0
TABLE
2
BLOCK_RECORD
5
111
330
0
100
AcDbSymbolTable
70
66
0
BLOCK_RECORD
5
112
100
AcDbSymbolTableRecord
100
AcDbBlockTableRecord
2
*Model_Space
0
BLOCK_RECORD
5
113
100
AcDbSymbolTableRecord
100
AcDbBlockTableRecord
2
*Paper_Space
0
BLOCK_RECORD
5
114
100
AcDbSymbolTableRecord
100
AcDbBlockTableRecord
2
CC_GATE_VALVE
0
BLOCK_RECORD
5
115
100
AcDbSymbolTableRecord
100
AcDbBlockTableRecord
2
CC_BALL_VALVE
0
BLOCK_RECORD
5
116
100
AcDbSymbolTableRecord
100
AcDbBlockTableRecord
2
CC_GLOBE_VALVE
0
BLOCK_RECORD
5
117
100
AcDbSymbolTableRecord
100
AcDbBlockTableRecord
2
CC_BUTTERFLY_VALVE
0
BLOCK_RECORD
5
118
100
AcDbSymbolTableRecord
100
AcDbBlockTableRecord
2
CC_CHECK_VALVE
0
BLOCK_RECORD
5
119
100
AcDbSymbolTableRecord
100
AcDbBlockTableRecord
2
CC_CONTROL_VALVE
0
BLOCK_RECORD
5
11A
100
AcDbSymbolTableRecord
100
AcDbBlockTableRecord
2
CC_SOLENOID_VALVE
0
BLOCK_RECORD
5
11B
100
AcDbSymbolTableRecord
100
AcDbBlockTableRecord
2
CC_RELIEF_VALVE
0
BLOCK_RECORD
5
11C
100
AcDbSymbolTableRecord
100
AcDbBlockTableRecord
2
CC_THREE_WAY_VALVE
0
BLOCK_RECORD
5
11D
100
AcDbSymbolTableRecord
100
AcDbBlockTableRecord
2
CC_PUMP
0
BLOCK_RECORD
5
11E
100
AcDbSymbolTableRecord
100
AcDbBlockTableRecord
2
CC_GEAR_PUMP
0
BLOCK_RECORD
5
11F
100
AcDbSymbolTableRecord
100
AcDbBlockTableRecord
2
CC_COMPRESSOR
0
BLOCK_RECORD
5
120
100
AcDbSymbolTableRecord
100
AcDbBlockTableRecord
2
CC_FAN
0
BLOCK_RECORD
5
121
100
AcDbSymbolTableRecord
100
AcDbBlockTableRecord
2
CC_STRAINER
0
BLOCK_RECORD
5
122
100
AcDbSymbolTableRecord
100
AcDbBlockTableRecord
2
CC_FILTER
0
BLOCK_RECORD
5
123
100
AcDbSymbolTableRecord
100
AcDbBlockTableRecord
2
CC_HEAT_EXCHANGER
0
BLOCK_RECORD
5
124
100
AcDbSymbolTableRecord
100
AcDbBlockTableRecord
2
CC_TANK
0
BLOCK_RECORD
5
125
100
AcDbSymbolTableRecord
100
AcDbBlockTableRecord
2
CC_VESSEL
0
BLOCK_RECORD
5
126
100
AcDbSymbolTableRecord
100
AcDbBlockTableRecord
2
CC_MIXER
0
BLOCK_RECORD
5
127
100
AcDbSymbolTableRecord
100
AcDbBlockTableRecord
2
CC_PRESSURE_INDICATOR
0
BLOCK_RECORD
5
128
100
AcDbSymbolTableRecord
100
AcDbBlockTableRecord
2
CC_FLOW_TRANSMITTER
0
BLOCK_RECORD
5
129
100
AcDbSymbolTableRecord
100
AcDbBlockTableRecord
2
CC_TEMPERATURE
0
BLOCK_RECORD
5
12A
100
AcDbSymbolTableRecord
100
AcDbBlockTableRecord
2
CC_LEVEL_TRANSMITTER
0
BLOCK_RECORD
5
12B
100
AcDbSymbolTableRecord
100
AcDbBlockTableRecord
2
CC_REDUCER
0
BLOCK_RECORD
5
12C
100
AcDbSymbolTableRecord
100
AcDbBlockTableRecord
2
CC_FLANGE
0
BLOCK_RECORD
5
12D
100
AcDbSymbolTableRecord
100
AcDbBlockTableRecord
2
CC_OFFPAGE
0
BLOCK_RECORD
5
12E
100
AcDbSymbolTableRecord
100
AcDbBlockTableRecord
2
CC_RESISTOR
0
BLOCK_RECORD
5
12F
100
AcDbSymbolTableRecord
100
AcDbBlockTableRecord
2
CC_RESISTOR_IEC
0
BLOCK_RECORD
5
130
100
AcDbSymbolTableRecord
100
AcDbBlockTableRecord
2
CC_CAPACITOR
0
BLOCK_RECORD
5
131
100
AcDbSymbolTableRecord
100
AcDbBlockTableRecord
2
CC_INDUCTOR
0
BLOCK_RECORD
5
132
100
AcDbSymbolTableRecord
100
AcDbBlockTableRecord
2
CC_DIODE
0
BLOCK_RECORD
5
133
100
AcDbSymbolTableRecord
100
AcDbBlockTableRecord
2
CC_LED
0
BLOCK_RECORD
5
134
100
AcDbSymbolTableRecord
100
AcDbBlockTableRecord
2
CC_SWITCH
0
BLOCK_RECORD
5
135
100
AcDbSymbolTableRecord
100
AcDbBlockTableRecord
2
CC_SWITCH_NC
0
BLOCK_RECORD
5
136
100
AcDbSymbolTableRecord
100
AcDbBlockTableRecord
2
CC_FUSE
0
BLOCK_RECORD
5
137
100
AcDbSymbolTableRecord
100
AcDbBlockTableRecord
2
CC_RELAY
0
BLOCK_RECORD
5
138
100
AcDbSymbolTableRecord
100
AcDbBlockTableRecord
2
CC_MOTOR
0
BLOCK_RECORD
5
139
100
AcDbSymbolTableRecord
100
AcDbBlockTableRecord
2
CC_GENERATOR
0
BLOCK_RECORD
5
13A
100
AcDbSymbolTableRecord
100
AcDbBlockTableRecord
2
CC_TRANSFORMER
0
BLOCK_RECORD
5
13B
100
AcDbSymbolTableRecord
100
AcDbBlockTableRecord
2
CC_GROUND
0
BLOCK_RECORD
5
13C
100
AcDbSymbolTableRecord
100
AcDbBlockTableRecord
2
CC_BATTERY
0
BLOCK_RECORD
5
13D
100
AcDbSymbolTableRecord
100
AcDbBlockTableRecord
2
CC_TERMINAL
0
BLOCK_RECORD
5
13E
100
AcDbSymbolTableRecord
100
AcDbBlockTableRecord
2
CC_OP_AMP
0
BLOCK_RECORD
5
13F
100
AcDbSymbolTableRecord
100
AcDbBlockTableRecord
2
CC_LAMP
0
BLOCK_RECORD
5
140
100
AcDbSymbolTableRecord
100
AcDbBlockTableRecord
2
CC_PROCESS
0
BLOCK_RECORD
5
141
100
AcDbSymbolTableRecord
100
AcDbBlockTableRecord
2
CC_DECISION
0
BLOCK_RECORD
5
142
100
AcDbSymbolTableRecord
100
AcDbBlockTableRecord
2
CC_TERMINATOR
0
BLOCK_RECORD
5
143
100
AcDbSymbolTableRecord
100
AcDbBlockTableRecord
2
CC_DATA
0
BLOCK_RECORD
5
144
100
AcDbSymbolTableRecord
100
AcDbBlockTableRecord
2
CC_DOCUMENT
0
BLOCK_RECORD
5
145
100
AcDbSymbolTableRecord
100
AcDbBlockTableRecord
2
CC_DATABASE
0
BLOCK_RECORD
5
146
100
AcDbSymbolTableRecord
100
AcDbBlockTableRecord
2
CC_SUBPROCESS
0
BLOCK_RECORD
5
147
100
AcDbSymbolTableRecord
100
AcDbBlockTableRecord
2
CC_MANUAL
0
BLOCK_RECORD
5
148
100
AcDbSymbolTableRecord
100
AcDbBlockTableRecord
2
CC_PREPARATION
0
BLOCK_RECORD
5
149
100
AcDbSymbolTableRecord
100
AcDbBlockTableRecord
2
CC_DELAY
0
BLOCK_RECORD
5
14A
100
AcDbSymbolTableRecord
100
AcDbBlockTableRecord
2
CC_JUNCTION
0
BLOCK_RECORD
5
14B
100
AcDbSymbolTableRecord
100
AcDbBlockTableRecord
2
CC_NOTE
0
BLOCK_RECORD
5
14C
100
AcDbSymbolTableRecord
100
AcDbBlockTableRecord
2
CC_PRESSURE_PANEL
0
BLOCK_RECORD
5
14D
100
AcDbSymbolTableRecord
100
AcDbBlockTableRecord
2
CC_PRESSURE_REAR
0
BLOCK_RECORD
5
14E
100
AcDbSymbolTableRecord
100
AcDbBlockTableRecord
2
CC_CAPACITOR_POLARIZED
0
BLOCK_RECORD
5
14F
100
AcDbSymbolTableRecord
100
AcDbBlockTableRecord
2
CC_SIGNAL_GROUND
0
BLOCK_RECORD
5
150
100
AcDbSymbolTableRecord
100
AcDbBlockTableRecord
2
CC_CHASSIS
0
BLOCK_RECORD
5
151
100
AcDbSymbolTableRecord
100
AcDbBlockTableRecord
2
CC_CONTACT_NO
0
BLOCK_RECORD
5
152
100
AcDbSymbolTableRecord
100
AcDbBlockTableRecord
2
CC_CONTACT_NC
0
BLOCK_RECORD
5
153
100
AcDbSymbolTableRecord
100
AcDbBlockTableRecord
2
CC_POTENTIOMETER
0
ENDTAB
0
ENDSEC
0
SECTION
2
BLOCKS
0
BLOCK
5
154
330
112
100
AcDbEntity
8
0
100
AcDbBlockBegin
2
*Model_Space
70
0
10
0
20
0
30
0
3
*Model_Space
1

1001
CONDUITCAD
1000
{"ports":[]}
0
ENDBLK
5
155
330
112
100
AcDbEntity
8
0
100
AcDbBlockEnd
0
BLOCK
5
156
330
113
100
AcDbEntity
8
0
100
AcDbBlockBegin
2
*Paper_Space
70
0
10
0
20
0
30
0
3
*Paper_Space
1

1001
CONDUITCAD
1000
{"ports":[]}
0
ENDBLK
5
157
330
113
100
AcDbEntity
8
0
100
AcDbBlockEnd
0
BLOCK
5
158
330
114
100
AcDbEntity
8
0
100
AcDbBlockBegin
2
CC_GATE_VALVE
70
0
10
0
20
0
30
0
3
CC_GATE_VALVE
1

1001
CONDUITCAD
1000
{"ports":[{"name":"in","x":-45,"y":0,"dx":-1,"dy":0},{"name":"out","x":45,"y":0,"dx":1,"dy":0}],"symbol":{"name":"Gate valve","category":"P&ID","labelOffset":57,"geometryRevision":2,"convention":"Proc
1000
ess and instrumentation drafting conventions","conformity":"Original master; not standards-certified"}}
0
LINE
5
159
330
114
100
AcDbEntity
8
0
100
AcDbLine
10
-45
20
0
30
0
11
-25
21
0
31
0
1001
CONDUITCAD
1000
{"id":"e-mufzcxcw-1"}
0
LINE
5
15A
330
114
100
AcDbEntity
8
0
100
AcDbLine
10
25
20
0
30
0
11
45
21
0
31
0
1001
CONDUITCAD
1000
{"id":"e-mufzcxcw-2"}
0
LWPOLYLINE
5
15B
330
114
100
AcDbEntity
8
0
100
AcDbPolyline
90
3
70
1
10
-25
20
-18
10
0
20
0
10
-25
20
18
1001
CONDUITCAD
1000
{"id":"e-mufzcxcw-3"}
0
LWPOLYLINE
5
15C
330
114
100
AcDbEntity
8
0
100
AcDbPolyline
90
3
70
1
10
25
20
-18
10
0
20
0
10
25
20
18
1001
CONDUITCAD
1000
{"id":"e-mufzcxcw-4"}
0
ENDBLK
5
15D
330
114
100
AcDbEntity
8
0
100
AcDbBlockEnd
0
BLOCK
5
15E
330
115
100
AcDbEntity
8
0
100
AcDbBlockBegin
2
CC_BALL_VALVE
70
0
10
0
20
0
30
0
3
CC_BALL_VALVE
1

1001
CONDUITCAD
1000
{"ports":[{"name":"in","x":-45,"y":0,"dx":-1,"dy":0},{"name":"out","x":45,"y":0,"dx":1,"dy":0}],"symbol":{"name":"Ball valve","category":"P&ID","labelOffset":57,"geometryRevision":2,"convention":"Proc
1000
ess and instrumentation drafting conventions","conformity":"Original master; not standards-certified"}}
0
LINE
5
15F
330
115
100
AcDbEntity
8
0
100
AcDbLine
10
-45
20
0
30
0
11
-21
21
0
31
0
1001
CONDUITCAD
1000
{"id":"e-mufzcxcy-50"}
0
LINE
5
160
330
115
100
AcDbEntity
8
0
100
AcDbLine
10
21
20
0
30
0
11
45
21
0
31
0
1001
CONDUITCAD
1000
{"id":"e-mufzcxcy-51"}
0
CIRCLE
5
161
330
115
100
AcDbEntity
8
0
100
AcDbCircle
10
0
20
0
30
0
40
21
1001
CONDUITCAD
1000
{"id":"e-mufzcxcy-52"}
0
LINE
5
162
330
115
100
AcDbEntity
8
0
100
AcDbLine
10
-15
20
-15
30
0
11
15
21
15
31
0
1001
CONDUITCAD
1000
{"id":"e-mufzcxcy-53"}
0
ENDBLK
5
163
330
115
100
AcDbEntity
8
0
100
AcDbBlockEnd
0
BLOCK
5
164
330
116
100
AcDbEntity
8
0
100
AcDbBlockBegin
2
CC_GLOBE_VALVE
70
0
10
0
20
0
30
0
3
CC_GLOBE_VALVE
1

1001
CONDUITCAD
1000
{"ports":[{"name":"in","x":-45,"y":0,"dx":-1,"dy":0},{"name":"out","x":45,"y":0,"dx":1,"dy":0}],"symbol":{"name":"Globe valve","category":"P&ID","labelOffset":57,"geometryRevision":2,"convention":"Pro
1000
cess and instrumentation drafting conventions","conformity":"Original master; not standards-certified"}}
0
LINE
5
165
330
116
100
AcDbEntity
8
0
100
AcDbLine
10
-45
20
0
30
0
11
-25
21
0
31
0
1001
CONDUITCAD
1000
{"id":"e-mufzcxcw-1"}
0
LINE
5
166
330
116
100
AcDbEntity
8
0
100
AcDbLine
10
25
20
0
30
0
11
45
21
0
31
0
1001
CONDUITCAD
1000
{"id":"e-mufzcxcw-2"}
0
LWPOLYLINE
5
167
330
116
100
AcDbEntity
8
0
100
AcDbPolyline
90
3
70
1
10
-25
20
-18
10
0
20
0
10
-25
20
18
1001
CONDUITCAD
1000
{"id":"e-mufzcxcw-3"}
0
LWPOLYLINE
5
168
330
116
100
AcDbEntity
8
0
100
AcDbPolyline
90
3
70
1
10
25
20
-18
10
0
20
0
10
25
20
18
1001
CONDUITCAD
1000
{"id":"e-mufzcxcw-4"}
0
CIRCLE
5
169
330
116
100
AcDbEntity
8
0
100
AcDbCircle
10
0
20
0
30
0
40
7
1001
CONDUITCAD
1000
{"id":"e-mufzcxcw-7"}
0
ENDBLK
5
16A
330
116
100
AcDbEntity
8
0
100
AcDbBlockEnd
0
BLOCK
5
16B
330
117
100
AcDbEntity
8
0
100
AcDbBlockBegin
2
CC_BUTTERFLY_VALVE
70
0
10
0
20
0
30
0
3
CC_BUTTERFLY_VALVE
1

1001
CONDUITCAD
1000
{"ports":[{"name":"in","x":-45,"y":0,"dx":-1,"dy":0},{"name":"out","x":45,"y":0,"dx":1,"dy":0}],"symbol":{"name":"Butterfly valve","category":"P&ID","labelOffset":57,"geometryRevision":2,"convention":
1000
"Process and instrumentation drafting conventions","conformity":"Original master; not standards-certified"}}
0
LINE
5
16C
330
117
100
AcDbEntity
8
0
100
AcDbLine
10
-45
20
0
30
0
11
-23
21
0
31
0
1001
CONDUITCAD
1000
{"id":"e-mufzcxcy-54"}
0
LINE
5
16D
330
117
100
AcDbEntity
8
0
100
AcDbLine
10
23
20
0
30
0
11
45
21
0
31
0
1001
CONDUITCAD
1000
{"id":"e-mufzcxcy-55"}
0
CIRCLE
5
16E
330
117
100
AcDbEntity
8
0
100
AcDbCircle
10
0
20
0
30
0
40
23
1001
CONDUITCAD
1000
{"id":"e-mufzcxcy-56"}
0
LINE
5
16F
330
117
100
AcDbEntity
8
0
100
AcDbLine
10
-16
20
-16
30
0
11
16
21
16
31
0
1001
CONDUITCAD
1000
{"id":"e-mufzcxcy-57"}
0
CIRCLE
5
170
330
117
100
AcDbEntity
8
0
100
AcDbCircle
10
0
20
0
30
0
40
3
1001
CONDUITCAD
1000
{"id":"e-mufzcxcy-58"}
0
ENDBLK
5
171
330
117
100
AcDbEntity
8
0
100
AcDbBlockEnd
0
BLOCK
5
172
330
118
100
AcDbEntity
8
0
100
AcDbBlockBegin
2
CC_CHECK_VALVE
70
0
10
0
20
0
30
0
3
CC_CHECK_VALVE
1

1001
CONDUITCAD
1000
{"ports":[{"name":"in","x":-45,"y":0,"dx":-1,"dy":0},{"name":"out","x":45,"y":0,"dx":1,"dy":0},{"name":"top","x":0,"y":18,"dx":0,"dy":1}],"symbol":{"name":"Check valve","category":"P&ID","labelOffset"
1000
:57,"geometryRevision":2,"convention":"Process and instrumentation drafting conventions","conformity":"Original master; not standards-certified"}}
0
LINE
5
173
330
118
100
AcDbEntity
8
0
100
AcDbLine
10
-45
20
0
30
0
11
-24
21
0
31
0
1001
CONDUITCAD
1000
{"id":"e-mufzcxcy-59"}
0
LINE
5
174
330
118
100
AcDbEntity
8
0
100
AcDbLine
10
24
20
0
30
0
11
45
21
0
31
0
1001
CONDUITCAD
1000
{"id":"e-mufzcxcy-5a"}
0
LINE
5
175
330
118
100
AcDbEntity
8
0
100
AcDbLine
10
-24
20
-20
30
0
11
-24
21
20
31
0
1001
CONDUITCAD
1000
{"id":"e-mufzcxcy-5b"}
0
LINE
5
176
330
118
100
AcDbEntity
8
0
100
AcDbLine
10
-24
20
20
30
0
11
24
21
-16
31
0
1001
CONDUITCAD
1000
{"id":"e-mufzcxcy-5c"}
0
CIRCLE
5
177
330
118
100
AcDbEntity
8
0
100
AcDbCircle
10
-24
20
20
30
0
40
3
1001
CONDUITCAD
1000
{"id":"e-mufzcxcy-5d"}
0
LINE
5
178
330
118
100
AcDbEntity
8
0
100
AcDbLine
10
0
20
2
30
0
11
0
21
18
31
0
1001
CONDUITCAD
1000
{"id":"e-mufzcxcy-5e"}
0
ENDBLK
5
179
330
118
100
AcDbEntity
8
0
100
AcDbBlockEnd
0
BLOCK
5
17A
330
119
100
AcDbEntity
8
0
100
AcDbBlockBegin
2
CC_CONTROL_VALVE
70
0
10
0
20
0
30
0
3
CC_CONTROL_VALVE
1

1001
CONDUITCAD
1000
{"ports":[{"name":"in","x":-45,"y":0,"dx":-1,"dy":0},{"name":"out","x":45,"y":0,"dx":1,"dy":0},{"name":"signal","x":0,"y":50,"dx":0,"dy":1}],"symbol":{"name":"Control valve","category":"P&ID","labelOf
1000
fset":57,"geometryRevision":2,"convention":"Process and instrumentation drafting conventions","conformity":"Original master; not standards-certified"}}
0
LINE
5
17B
330
119
100
AcDbEntity
8
0
100
AcDbLine
10
-45
20
0
30
0
11
-25
21
0
31
0
1001
CONDUITCAD
1000
{"id":"e-mufzcxcw-1"}
0
LINE
5
17C
330
119
100
AcDbEntity
8
0
100
AcDbLine
10
25
20
0
30
0
11
45
21
0
31
0
1001
CONDUITCAD
1000
{"id":"e-mufzcxcw-2"}
0
LWPOLYLINE
5
17D
330
119
100
AcDbEntity
8
0
100
AcDbPolyline
90
3
70
1
10
-25
20
-18
10
0
20
0
10
-25
20
18
1001
CONDUITCAD
1000
{"id":"e-mufzcxcw-3"}
0
LWPOLYLINE
5
17E
330
119
100
AcDbEntity
8
0
100
AcDbPolyline
90
3
70
1
10
25
20
-18
10
0
20
0
10
25
20
18
1001
CONDUITCAD
1000
{"id":"e-mufzcxcw-4"}
0
LINE
5
17F
330
119
100
AcDbEntity
8
0
100
AcDbLine
10
0
20
0
30
0
11
0
21
35
31
0
1001
CONDUITCAD
1000
{"id":"e-mufzcxcw-d"}
0
LWPOLYLINE
5
180
330
119
100
AcDbEntity
8
0
100
AcDbPolyline
90
5
70
1
10
-22
20
35
10
-18
20
44
10
0
20
50
10
18
20
44
10
22
20
35
1001
CONDUITCAD
1000
{"id":"e-mufzcxcw-e"}
0
ENDBLK
5
181
330
119
100
AcDbEntity
8
0
100
AcDbBlockEnd
0
BLOCK
5
182
330
11A
100
AcDbEntity
8
0
100
AcDbBlockBegin
2
CC_SOLENOID_VALVE
70
0
10
0
20
0
30
0
3
CC_SOLENOID_VALVE
1

1001
CONDUITCAD
1000
{"ports":[{"name":"in","x":-45,"y":0,"dx":-1,"dy":0},{"name":"out","x":45,"y":0,"dx":1,"dy":0}],"symbol":{"name":"Solenoid valve","category":"P&ID","labelOffset":57,"geometryRevision":2,"convention":"
1000
Process and instrumentation drafting conventions","conformity":"Original master; not standards-certified"}}
0
LINE
5
183
330
11A
100
AcDbEntity
8
0
100
AcDbLine
10
-45
20
0
30
0
11
-25
21
0
31
0
1001
CONDUITCAD
1000
{"id":"e-mufzcxcw-1"}
0
LINE
5
184
330
11A
100
AcDbEntity
8
0
100
AcDbLine
10
25
20
0
30
0
11
45
21
0
31
0
1001
CONDUITCAD
1000
{"id":"e-mufzcxcw-2"}
0
LWPOLYLINE
5
185
330
11A
100
AcDbEntity
8
0
100
AcDbPolyline
90
3
70
1
10
-25
20
-18
10
0
20
0
10
-25
20
18
1001
CONDUITCAD
1000
{"id":"e-mufzcxcw-3"}
0
LWPOLYLINE
5
186
330
11A
100
AcDbEntity
8
0
100
AcDbPolyline
90
3
70
1
10
25
20
-18
10
0
20
0
10
25
20
18
1001
CONDUITCAD
1000
{"id":"e-mufzcxcw-4"}
0
LINE
5
187
330
11A
100
AcDbEntity
8
0
100
AcDbLine
10
0
20
0
30
0
11
0
21
35
31
0
1001
CONDUITCAD
1000
{"id":"e-mufzcxcw-f"}
0
LWPOLYLINE
5
188
330
11A
100
AcDbEntity
8
0
100
AcDbPolyline
90
4
70
1
10
-12
20
35
10
12
20
35
10
12
20
55
10
-12
20
55
1001
CONDUITCAD
1000
{"id":"e-mufzcxcw-g"}
0
TEXT
5
189
330
11A
100
AcDbEntity
8
0
100
AcDbText
10
0
20
38
30
0
40
13
1
S
50
0
41
1
7
STANDARD
72
1
11
0
21
38
31
0
100
AcDbText
73
0
1001
CONDUITCAD
1000
{"id":"e-mufzcxcw-h"}
0
ENDBLK
5
18A
330
11A
100
AcDbEntity
8
0
100
AcDbBlockEnd
0
BLOCK
5
18B
330
11B
100
AcDbEntity
8
0
100
AcDbBlockBegin
2
CC_RELIEF_VALVE
70
0
10
0
20
0
30
0
3
CC_RELIEF_VALVE
1

1001
CONDUITCAD
1000
{"ports":[{"name":"in","x":-45,"y":0,"dx":-1,"dy":0},{"name":"out","x":45,"y":0,"dx":1,"dy":0}],"symbol":{"name":"Relief valve","category":"P&ID","labelOffset":57,"geometryRevision":2,"convention":"Pr
1000
ocess and instrumentation drafting conventions","conformity":"Original master; not standards-certified"}}
0
LINE
5
18C
330
11B
100
AcDbEntity
8
0
100
AcDbLine
10
-45
20
0
30
0
11
-25
21
0
31
0
1001
CONDUITCAD
1000
{"id":"e-mufzcxcw-1"}
0
LINE
5
18D
330
11B
100
AcDbEntity
8
0
100
AcDbLine
10
25
20
0
30
0
11
45
21
0
31
0
1001
CONDUITCAD
1000
{"id":"e-mufzcxcw-2"}
0
LWPOLYLINE
5
18E
330
11B
100
AcDbEntity
8
0
100
AcDbPolyline
90
3
70
1
10
-25
20
-18
10
0
20
0
10
-25
20
18
1001
CONDUITCAD
1000
{"id":"e-mufzcxcw-3"}
0
LWPOLYLINE
5
18F
330
11B
100
AcDbEntity
8
0
100
AcDbPolyline
90
3
70
1
10
25
20
-18
10
0
20
0
10
25
20
18
1001
CONDUITCAD
1000
{"id":"e-mufzcxcw-4"}
0
LINE
5
190
330
11B
100
AcDbEntity
8
0
100
AcDbLine
10
0
20
0
30
0
11
0
21
22
31
0
1001
CONDUITCAD
1000
{"id":"e-mufzcxcw-i"}
0
LWPOLYLINE
5
191
330
11B
100
AcDbEntity
8
0
100
AcDbPolyline
90
6
70
0
10
0
20
22
10
-9
20
26
10
9
20
31
10
-9
20
36
10
9
20
41
10
0
20
45
1001
CONDUITCAD
1000
{"id":"e-mufzcxcw-j"}
0
LINE
5
192
330
11B
100
AcDbEntity
8
0
100
AcDbLine
10
-15
20
48
30
0
11
15
21
48
31
0
1001
CONDUITCAD
1000
{"id":"e-mufzcxcw-k"}
0
ENDBLK
5
193
330
11B
100
AcDbEntity
8
0
100
AcDbBlockEnd
0
BLOCK
5
194
330
11C
100
AcDbEntity
8
0
100
AcDbBlockBegin
2
CC_THREE_WAY_VALVE
70
0
10
0
20
0
30
0
3
CC_THREE_WAY_VALVE
1

1001
CONDUITCAD
1000
{"ports":[{"name":"in","x":-45,"y":0,"dx":-1,"dy":0},{"name":"out","x":45,"y":0,"dx":1,"dy":0},{"name":"branch","x":0,"y":-45,"dx":0,"dy":-1}],"symbol":{"name":"Three-way valve","category":"P&ID","lab
1000
elOffset":57,"geometryRevision":2,"convention":"Process and instrumentation drafting conventions","conformity":"Original master; not standards-certified"}}
0
LINE
5
195
330
11C
100
AcDbEntity
8
0
100
AcDbLine
10
-45
20
0
30
0
11
-25
21
0
31
0
1001
CONDUITCAD
1000
{"id":"e-mufzcxcw-1"}
0
LINE
5
196
330
11C
100
AcDbEntity
8
0
100
AcDbLine
10
25
20
0
30
0
11
45
21
0
31
0
1001
CONDUITCAD
1000
{"id":"e-mufzcxcw-2"}
0
LWPOLYLINE
5
197
330
11C
100
AcDbEntity
8
0
100
AcDbPolyline
90
3
70
1
10
-25
20
-18
10
0
20
0
10
-25
20
18
1001
CONDUITCAD
1000
{"id":"e-mufzcxcw-3"}
0
LWPOLYLINE
5
198
330
11C
100
AcDbEntity
8
0
100
AcDbPolyline
90
3
70
1
10
25
20
-18
10
0
20
0
10
25
20
18
1001
CONDUITCAD
1000
{"id":"e-mufzcxcw-4"}
0
LWPOLYLINE
5
199
330
11C
100
AcDbEntity
8
0
100
AcDbPolyline
90
3
70
1
10
-18
20
-25
10
18
20
-25
10
0
20
0
1001
CONDUITCAD
1000
{"id":"e-mufzcxcw-l"}
0
LINE
5
19A
330
11C
100
AcDbEntity
8
0
100
AcDbLine
10
0
20
-25
30
0
11
0
21
-45
31
0
1001
CONDUITCAD
1000
{"id":"e-mufzcxcw-m"}
0
ENDBLK
5
19B
330
11C
100
AcDbEntity
8
0
100
AcDbBlockEnd
0
BLOCK
5
19C
330
11D
100
AcDbEntity
8
0
100
AcDbBlockBegin
2
CC_PUMP
70
0
10
0
20
0
30
0
3
CC_PUMP
1

1001
CONDUITCAD
1000
{"ports":[{"name":"in","x":-45,"y":0,"dx":-1,"dy":0},{"name":"out","x":45,"y":0,"dx":1,"dy":0},{"name":"top","x":0,"y":45,"dx":0,"dy":1},{"name":"bottom","x":0,"y":-45,"dx":0,"dy":-1}],"symbol":{"name
1000
":"Centrifugal pump","category":"P&ID","labelOffset":57,"geometryRevision":2,"convention":"Process and instrumentation drafting conventions","conformity":"Original master; not standards-certified"}}
0
LINE
5
19D
330
11D
100
AcDbEntity
8
0
100
AcDbLine
10
-45
20
0
30
0
11
-27
21
0
31
0
1001
CONDUITCAD
1000
{"id":"e-mufzcxcy-5f"}
0
LINE
5
19E
330
11D
100
AcDbEntity
8
0
100
AcDbLine
10
27
20
0
30
0
11
45
21
0
31
0
1001
CONDUITCAD
1000
{"id":"e-mufzcxcy-5g"}
0
LINE
5
19F
330
11D
100
AcDbEntity
8
0
100
AcDbLine
10
0
20
27
30
0
11
0
21
45
31
0
1001
CONDUITCAD
1000
{"id":"e-mufzcxcy-5h"}
0
LINE
5
1A0
330
11D
100
AcDbEntity
8
0
100
AcDbLine
10
0
20
-27
30
0
11
0
21
-45
31
0
1001
CONDUITCAD
1000
{"id":"e-mufzcxcy-5i"}
0
CIRCLE
5
1A1
330
11D
100
AcDbEntity
8
0
100
AcDbCircle
10
0
20
0
30
0
40
27
1001
CONDUITCAD
1000
{"id":"e-mufzcxcx-n"}
0
LWPOLYLINE
5
1A2
330
11D
100
AcDbEntity
8
0
100
AcDbPolyline
90
3
70
1
10
-15
20
-18
10
23
20
0
10
-15
20
18
1001
CONDUITCAD
1000
{"id":"e-mufzcxcx-o"}
0
LINE
5
1A3
330
11D
100
AcDbEntity
8
0
100
AcDbLine
10
-22
20
-31
30
0
11
22
21
-31
31
0
1001
CONDUITCAD
1000
{"id":"e-mufzcxcx-p"}
0
ENDBLK
5
1A4
330
11D
100
AcDbEntity
8
0
100
AcDbBlockEnd
0
BLOCK
5
1A5
330
11E
100
AcDbEntity
8
0
100
AcDbBlockBegin
2
CC_GEAR_PUMP
70
0
10
0
20
0
30
0
3
CC_GEAR_PUMP
1

1001
CONDUITCAD
1000
{"ports":[{"name":"in","x":-45,"y":0,"dx":-1,"dy":0},{"name":"out","x":45,"y":0,"dx":1,"dy":0},{"name":"top","x":0,"y":45,"dx":0,"dy":1},{"name":"bottom","x":0,"y":-45,"dx":0,"dy":-1}],"symbol":{"name
1000
":"Gear pump","category":"P&ID","labelOffset":57,"geometryRevision":2,"convention":"Process and instrumentation drafting conventions","conformity":"Original master; not standards-certified"}}
0
LINE
5
1A6
330
11E
100
AcDbEntity
8
0
100
AcDbLine
10
-45
20
0
30
0
11
-28
21
0
31
0
1001
CONDUITCAD
1000
{"id":"e-mufzcxcy-5j"}
0
LINE
5
1A7
330
11E
100
AcDbEntity
8
0
100
AcDbLine
10
28
20
0
30
0
11
45
21
0
31
0
1001
CONDUITCAD
1000
{"id":"e-mufzcxcy-5k"}
0
LINE
5
1A8
330
11E
100
AcDbEntity
8
0
100
AcDbLine
10
0
20
28
30
0
11
0
21
45
31
0
1001
CONDUITCAD
1000
{"id":"e-mufzcxcy-5l"}
0
LINE
5
1A9
330
11E
100
AcDbEntity
8
0
100
AcDbLine
10
0
20
-28
30
0
11
0
21
-45
31
0
1001
CONDUITCAD
1000
{"id":"e-mufzcxcy-5m"}
0
CIRCLE
5
1AA
330
11E
100
AcDbEntity
8
0
100
AcDbCircle
10
0
20
0
30
0
40
28
1001
CONDUITCAD
1000
{"id":"e-mufzcxcx-q"}
0
CIRCLE
5
1AB
330
11E
100
AcDbEntity
8
0
100
AcDbCircle
10
-9
20
0
30
0
40
11
1001
CONDUITCAD
1000
{"id":"e-mufzcxcx-r"}
0
CIRCLE
5
1AC
330
11E
100
AcDbEntity
8
0
100
AcDbCircle
10
9
20
0
30
0
40
11
1001
CONDUITCAD
1000
{"id":"e-mufzcxcx-s"}
0
ENDBLK
5
1AD
330
11E
100
AcDbEntity
8
0
100
AcDbBlockEnd
0
BLOCK
5
1AE
330
11F
100
AcDbEntity
8
0
100
AcDbBlockBegin
2
CC_COMPRESSOR
70
0
10
0
20
0
30
0
3
CC_COMPRESSOR
1

1001
CONDUITCAD
1000
{"ports":[{"name":"in","x":-45,"y":0,"dx":-1,"dy":0},{"name":"out","x":45,"y":0,"dx":1,"dy":0},{"name":"top","x":0,"y":45,"dx":0,"dy":1},{"name":"bottom","x":0,"y":-45,"dx":0,"dy":-1}],"symbol":{"name
1000
":"Compressor","category":"P&ID","labelOffset":57,"geometryRevision":2,"convention":"Process and instrumentation drafting conventions","conformity":"Original master; not standards-certified"}}
0
LINE
5
1AF
330
11F
100
AcDbEntity
8
0
100
AcDbLine
10
-45
20
0
30
0
11
-29
21
0
31
0
1001
CONDUITCAD
1000
{"id":"e-mufzcxcy-5n"}
0
LINE
5
1B0
330
11F
100
AcDbEntity
8
0
100
AcDbLine
10
29
20
0
30
0
11
45
21
0
31
0
1001
CONDUITCAD
1000
{"id":"e-mufzcxcy-5o"}
0
LINE
5
1B1
330
11F
100
AcDbEntity
8
0
100
AcDbLine
10
0
20
29
30
0
11
0
21
45
31
0
1001
CONDUITCAD
1000
{"id":"e-mufzcxcy-5p"}
0
LINE
5
1B2
330
11F
100
AcDbEntity
8
0
100
AcDbLine
10
0
20
-29
30
0
11
0
21
-45
31
0
1001
CONDUITCAD
1000
{"id":"e-mufzcxcy-5q"}
0
CIRCLE
5
1B3
330
11F
100
AcDbEntity
8
0
100
AcDbCircle
10
0
20
0
30
0
40
29
1001
CONDUITCAD
1000
{"id":"e-mufzcxcx-t"}
0
LWPOLYLINE
5
1B4
330
11F
100
AcDbEntity
8
0
100
AcDbPolyline
90
4
70
1
10
-17
20
-20
10
18
20
-10
10
18
20
10
10
-17
20
20
1001
CONDUITCAD
1000
{"id":"e-mufzcxcx-u"}
0
ENDBLK
5
1B5
330
11F
100
AcDbEntity
8
0
100
AcDbBlockEnd
0
BLOCK
5
1B6
330
120
100
AcDbEntity
8
0
100
AcDbBlockBegin
2
CC_FAN
70
0
10
0
20
0
30
0
3
CC_FAN
1

1001
CONDUITCAD
1000
{"ports":[{"name":"in","x":-45,"y":0,"dx":-1,"dy":0},{"name":"out","x":45,"y":0,"dx":1,"dy":0}],"symbol":{"name":"Fan / blower","category":"P&ID","labelOffset":57,"geometryRevision":2,"convention":"Pr
1000
ocess and instrumentation drafting conventions","conformity":"Original master; not standards-certified"}}
0
LINE
5
1B7
330
120
100
AcDbEntity
8
0
100
AcDbLine
10
-45
20
0
30
0
11
-29
21
0
31
0
1001
CONDUITCAD
1000
{"id":"e-mufzcxcy-5r"}
0
LINE
5
1B8
330
120
100
AcDbEntity
8
0
100
AcDbLine
10
29
20
0
30
0
11
45
21
0
31
0
1001
CONDUITCAD
1000
{"id":"e-mufzcxcy-5s"}
0
CIRCLE
5
1B9
330
120
100
AcDbEntity
8
0
100
AcDbCircle
10
0
20
0
30
0
40
29
1001
CONDUITCAD
1000
{"id":"e-mufzcxcx-v"}
0
CIRCLE
5
1BA
330
120
100
AcDbEntity
8
0
100
AcDbCircle
10
0
20
0
30
0
40
6
1001
CONDUITCAD
1000
{"id":"e-mufzcxcx-w"}
0
LWPOLYLINE
5
1BB
330
120
100
AcDbEntity
8
0
100
AcDbPolyline
90
4
70
0
10
0
20
6
10
-16
20
19
10
-25
20
5
10
0
20
0
1001
CONDUITCAD
1000
{"id":"e-mufzcxcx-x"}
0
LWPOLYLINE
5
1BC
330
120
100
AcDbEntity
8
0
100
AcDbPolyline
90
4
70
0
10
5
20
-3
10
23
20
9
10
18
20
-17
10
0
20
0
1001
CONDUITCAD
1000
{"id":"e-mufzcxcx-y"}
0
LWPOLYLINE
5
1BD
330
120
100
AcDbEntity
8
0
100
AcDbPolyline
90
4
70
0
10
-4
20
-4
10
-8
20
-24
10
12
20
-22
10
0
20
0
1001
CONDUITCAD
1000
{"id":"e-mufzcxcx-z"}
0
ENDBLK
5
1BE
330
120
100
AcDbEntity
8
0
100
AcDbBlockEnd
0
BLOCK
5
1BF
330
121
100
AcDbEntity
8
0
100
AcDbBlockBegin
2
CC_STRAINER
70
0
10
0
20
0
30
0
3
CC_STRAINER
1

1001
CONDUITCAD
1000
{"ports":[{"name":"in","x":-45,"y":0,"dx":-1,"dy":0},{"name":"out","x":45,"y":0,"dx":1,"dy":0}],"symbol":{"name":"Y strainer","category":"P&ID","labelOffset":57,"geometryRevision":2,"convention":"Proc
1000
ess and instrumentation drafting conventions","conformity":"Original master; not standards-certified"}}
0
LINE
5
1C0
330
121
100
AcDbEntity
8
0
100
AcDbLine
10
-45
20
0
30
0
11
-25
21
0
31
0
1001
CONDUITCAD
1000
{"id":"e-mufzcxcw-1"}
0
LINE
5
1C1
330
121
100
AcDbEntity
8
0
100
AcDbLine
10
25
20
0
30
0
11
45
21
0
31
0
1001
CONDUITCAD
1000
{"id":"e-mufzcxcw-2"}
0
LWPOLYLINE
5
1C2
330
121
100
AcDbEntity
8
0
100
AcDbPolyline
90
4
70
1
10
-22
20
-15
10
22
20
-15
10
22
20
15
10
-22
20
15
1001
CONDUITCAD
1000
{"id":"e-mufzcxcx-10"}
0
LINE
5
1C3
330
121
100
AcDbEntity
8
0
100
AcDbLine
10
-17
20
-12
30
0
11
17
21
12
31
0
1001
CONDUITCAD
1000
{"id":"e-mufzcxcx-11"}
0
LWPOLYLINE
5
1C4
330
121
100
AcDbEntity
8
0
100
AcDbPolyline
90
4
70
0
10
-8
20
-15
10
5
20
-37
10
18
20
-30
10
12
20
-15
1001
CONDUITCAD
1000
{"id":"e-mufzcxcx-12"}
0
ENDBLK
5
1C5
330
121
100
AcDbEntity
8
0
100
AcDbBlockEnd
0
BLOCK
5
1C6
330
122
100
AcDbEntity
8
0
100
AcDbBlockBegin
2
CC_FILTER
70
0
10
0
20
0
30
0
3
CC_FILTER
1

1001
CONDUITCAD
1000
{"ports":[{"name":"in","x":-45,"y":0,"dx":-1,"dy":0},{"name":"out","x":45,"y":0,"dx":1,"dy":0},{"name":"top","x":0,"y":45,"dx":0,"dy":1},{"name":"bottom","x":0,"y":-45,"dx":0,"dy":-1}],"symbol":{"name
1000
":"Inline filter","category":"P&ID","labelOffset":57,"geometryRevision":2,"convention":"Process and instrumentation drafting conventions","conformity":"Original master; not standards-certified"}}
0
LINE
5
1C7
330
122
100
AcDbEntity
8
0
100
AcDbLine
10
-45
20
0
30
0
11
-25
21
0
31
0
1001
CONDUITCAD
1000
{"id":"e-mufzcxcw-1"}
0
LINE
5
1C8
330
122
100
AcDbEntity
8
0
100
AcDbLine
10
25
20
0
30
0
11
45
21
0
31
0
1001
CONDUITCAD
1000
{"id":"e-mufzcxcw-2"}
0
LWPOLYLINE
5
1C9
330
122
100
AcDbEntity
8
0
100
AcDbPolyline
90
4
70
1
10
-25
20
-28
10
25
20
-28
10
25
20
28
10
-25
20
28
1001
CONDUITCAD
1000
{"id":"e-mufzcxcy-65"}
0
LINE
5
1CA
330
122
100
AcDbEntity
8
0
100
AcDbLine
10
-25
20
-28
30
0
11
25
21
28
31
0
1001
CONDUITCAD
1000
{"id":"e-mufzcxcy-66"}
0
LINE
5
1CB
330
122
100
AcDbEntity
8
0
100
AcDbLine
10
-25
20
28
30
0
11
25
21
-28
31
0
1001
CONDUITCAD
1000
{"id":"e-mufzcxcy-67"}
0
LINE
5
1CC
330
122
100
AcDbEntity
8
0
100
AcDbLine
10
0
20
28
30
0
11
0
21
45
31
0
1001
CONDUITCAD
1000
{"id":"e-mufzcxcy-68"}
0
LINE
5
1CD
330
122
100
AcDbEntity
8
0
100
AcDbLine
10
0
20
-28
30
0
11
0
21
-45
31
0
1001
CONDUITCAD
1000
{"id":"e-mufzcxcy-69"}
0
ENDBLK
5
1CE
330
122
100
AcDbEntity
8
0
100
AcDbBlockEnd
0
BLOCK
5
1CF
330
123
100
AcDbEntity
8
0
100
AcDbBlockBegin
2
CC_HEAT_EXCHANGER
70
0
10
0
20
0
30
0
3
CC_HEAT_EXCHANGER
1

1001
CONDUITCAD
1000
{"ports":[{"name":"in","x":-45,"y":0,"dx":-1,"dy":0},{"name":"out","x":45,"y":0,"dx":1,"dy":0},{"name":"top","x":0,"y":45,"dx":0,"dy":1},{"name":"bottom","x":0,"y":-45,"dx":0,"dy":-1}],"symbol":{"name
1000
":"Heat exchanger","category":"P&ID","labelOffset":57,"geometryRevision":2,"convention":"Process and instrumentation drafting conventions","conformity":"Original master; not standards-certified"}}
0
LINE
5
1D0
330
123
100
AcDbEntity
8
0
100
AcDbLine
10
-45
20
0
30
0
11
-33
21
0
31
0
1001
CONDUITCAD
1000
{"id":"e-mufzcxcy-5t"}
0
LINE
5
1D1
330
123
100
AcDbEntity
8
0
100
AcDbLine
10
33
20
0
30
0
11
45
21
0
31
0
1001
CONDUITCAD
1000
{"id":"e-mufzcxcy-5u"}
0
CIRCLE
5
1D2
330
123
100
AcDbEntity
8
0
100
AcDbCircle
10
0
20
0
30
0
40
33
1001
CONDUITCAD
1000
{"id":"e-mufzcxcx-16"}
0
LWPOLYLINE
5
1D3
330
123
100
AcDbEntity
8
0
100
AcDbPolyline
90
6
70
0
10
-32
20
0
10
-17
20
15
10
-5
20
-15
10
8
20
15
10
21
20
-15
10
33
20
0
1001
CONDUITCAD
1000
{"id":"e-mufzcxcx-17"}
0
LINE
5
1D4
330
123
100
AcDbEntity
8
0
100
AcDbLine
10
0
20
33
30
0
11
0
21
45
31
0
1001
CONDUITCAD
1000
{"id":"e-mufzcxcx-18"}
0
LINE
5
1D5
330
123
100
AcDbEntity
8
0
100
AcDbLine
10
0
20
-33
30
0
11
0
21
-45
31
0
1001
CONDUITCAD
1000
{"id":"e-mufzcxcx-19"}
0
ENDBLK
5
1D6
330
123
100
AcDbEntity
8
0
100
AcDbBlockEnd
0
BLOCK
5
1D7
330
124
100
AcDbEntity
8
0
100
AcDbBlockBegin
2
CC_TANK
70
0
10
0
20
0
30
0
3
CC_TANK
1

1001
CONDUITCAD
1000
{"ports":[{"name":"in","x":-45,"y":0,"dx":-1,"dy":0},{"name":"out","x":45,"y":0,"dx":1,"dy":0},{"name":"top","x":0,"y":75,"dx":0,"dy":1},{"name":"bottom","x":0,"y":-88,"dx":0,"dy":-1}],"symbol":{"name
1000
":"Storage tank","category":"P&ID","labelOffset":112,"geometryRevision":2,"convention":"Process and instrumentation drafting conventions","conformity":"Original master; not standards-certified"}}
0
LINE
5
1D8
330
124
100
AcDbEntity
8
0
100
AcDbLine
10
-35
20
-43
30
0
11
-35
21
40
31
0
1001
CONDUITCAD
1000
{"id":"e-mufzcxcx-1a"}
0
LINE
5
1D9
330
124
100
AcDbEntity
8
0
100
AcDbLine
10
35
20
-43
30
0
11
35
21
40
31
0
1001
CONDUITCAD
1000
{"id":"e-mufzcxcx-1b"}
0
LWPOLYLINE
5
1DA
330
124
100
AcDbEntity
8
0
100
AcDbPolyline
90
13
70
0
10
35
20
40
10
33.80740392011739
20
49.05866657858823
10
30.310889132455355
20
57.5
10
24.748737341529164
20
64.74873734152916
10
17.500000000000004
20
70.31088913245534
10
9.058666578588227
20
73.8074039201174
10
2.1431318985078682e-15
20
75
10
-9.058666578588221
20
73.8074039201174
10
-17.499999999999993
20
70.31088913245536
10
-24.74873734152916
20
64.74873734152916
10
-30.310889132455355
20
57.5
10
-33.80740392011739
20
49.05866657858824
10
-35
20
40.00000000000001
1001
CONDUITCAD
1000
{"id":"e-mufzcxcx-1c"}
0
LWPOLYLINE
5
1DB
330
124
100
AcDbEntity
8
0
100
AcDbPolyline
90
13
70
0
10
-35
20
-42.99999999999999
10
-33.80740392011739
20
-52.05866657858823
10
-30.310889132455358
20
-60.499999999999986
10
-24.748737341529168
20
-67.74873734152916
10
-17.500000000000014
20
-73.31088913245534
10
-9.058666578588221
20
-76.8074039201174
10
-6.429395695523604e-15
20
-78
10
9.05866657858821
20
-76.8074039201174
10
17.499999999999975
20
-73.31088913245537
10
24.748737341529157
20
-67.74873734152916
10
30.310889132455358
20
-60.499999999999986
10
33.80740392011739
20
-52.05866657858822
10
35
20
-43.00000000000001
1001
CONDUITCAD
1000
{"id":"e-mufzcxcx-1d"}
0
LINE
5
1DC
330
124
100
AcDbEntity
8
0
100
AcDbLine
10
-45
20
0
30
0
11
-35
21
0
31
0
1001
CONDUITCAD
1000
{"id":"e-mufzcxcx-1e"}
0
LINE
5
1DD
330
124
100
AcDbEntity
8
0
100
AcDbLine
10
35
20
0
30
0
11
45
21
0
31
0
1001
CONDUITCAD
1000
{"id":"e-mufzcxcx-1f"}
0
LINE
5
1DE
330
124
100
AcDbEntity
8
0
100
AcDbLine
10
0
20
-78
30
0
11
0
21
-88
31
0
1001
CONDUITCAD
1000
{"id":"e-mufzcxcx-1g"}
0
ENDBLK
5
1DF
330
124
100
AcDbEntity
8
0
100
AcDbBlockEnd
0
BLOCK
5
1E0
330
125
100
AcDbEntity
8
0
100
AcDbBlockBegin
2
CC_VESSEL
70
0
10
0
20
0
30
0
3
CC_VESSEL
1

1001
CONDUITCAD
1000
{"ports":[{"name":"in","x":-45,"y":0,"dx":-1,"dy":0},{"name":"out","x":45,"y":0,"dx":1,"dy":0},{"name":"top","x":0,"y":65,"dx":0,"dy":1},{"name":"bottom","x":0,"y":-50,"dx":0,"dy":-1}],"symbol":{"name
1000
":"Pressure vessel","category":"P&ID","labelOffset":83,"geometryRevision":2,"convention":"Process and instrumentation drafting conventions","conformity":"Original master; not standards-certified"}}
0
LWPOLYLINE
5
1E1
330
125
100
AcDbEntity
8
0
100
AcDbPolyline
90
4
70
1
10
-27
20
-50
10
27
20
-50
10
27
20
50
10
-27
20
50
1001
CONDUITCAD
1000
{"id":"e-mufzcxcx-1h"}
0
LINE
5
1E2
330
125
100
AcDbEntity
8
0
100
AcDbLine
10
-15
20
-50
30
0
11
-15
21
-65
31
0
1001
CONDUITCAD
1000
{"id":"e-mufzcxcx-1i"}
0
LINE
5
1E3
330
125
100
AcDbEntity
8
0
100
AcDbLine
10
15
20
-50
30
0
11
15
21
-65
31
0
1001
CONDUITCAD
1000
{"id":"e-mufzcxcx-1j"}
0
LINE
5
1E4
330
125
100
AcDbEntity
8
0
100
AcDbLine
10
-45
20
0
30
0
11
-27
21
0
31
0
1001
CONDUITCAD
1000
{"id":"e-mufzcxcx-1k"}
0
LINE
5
1E5
330
125
100
AcDbEntity
8
0
100
AcDbLine
10
27
20
0
30
0
11
45
21
0
31
0
1001
CONDUITCAD
1000
{"id":"e-mufzcxcx-1l"}
0
LINE
5
1E6
330
125
100
AcDbEntity
8
0
100
AcDbLine
10
0
20
50
30
0
11
0
21
65
31
0
1001
CONDUITCAD
1000
{"id":"e-mufzcxcx-1m"}
0
ENDBLK
5
1E7
330
125
100
AcDbEntity
8
0
100
AcDbBlockEnd
0
BLOCK
5
1E8
330
126
100
AcDbEntity
8
0
100
AcDbBlockBegin
2
CC_MIXER
70
0
10
0
20
0
30
0
3
CC_MIXER
1

1001
CONDUITCAD
1000
{"ports":[{"name":"in","x":-45,"y":0,"dx":-1,"dy":0},{"name":"out","x":45,"y":0,"dx":1,"dy":0},{"name":"top","x":0,"y":45,"dx":0,"dy":1},{"name":"bottom","x":0,"y":-45,"dx":0,"dy":-1}],"symbol":{"name
1000
":"Agitated vessel","category":"P&ID","labelOffset":66,"geometryRevision":2,"convention":"Process and instrumentation drafting conventions","conformity":"Original master; not standards-certified"}}
0
LWPOLYLINE
5
1E9
330
126
100
AcDbEntity
8
0
100
AcDbPolyline
90
4
70
1
10
-32
20
-45
10
32
20
-45
10
32
20
45
10
-32
20
45
1001
CONDUITCAD
1000
{"id":"e-mufzcxcx-1n"}
0
LINE
5
1EA
330
126
100
AcDbEntity
8
0
100
AcDbLine
10
0
20
45
30
0
11
0
21
65
31
0
1001
CONDUITCAD
1000
{"id":"e-mufzcxcx-1o"}
0
LWPOLYLINE
5
1EB
330
126
100
AcDbEntity
8
0
100
AcDbPolyline
90
4
70
1
10
-12
20
65
10
12
20
65
10
12
20
83
10
-12
20
83
1001
CONDUITCAD
1000
{"id":"e-mufzcxcx-1p"}
0
LINE
5
1EC
330
126
100
AcDbEntity
8
0
100
AcDbLine
10
0
20
45
30
0
11
0
21
-22
31
0
1001
CONDUITCAD
1000
{"id":"e-mufzcxcx-1q"}
0
LINE
5
1ED
330
126
100
AcDbEntity
8
0
100
AcDbLine
10
-23
20
-12
30
0
11
23
21
-28
31
0
1001
CONDUITCAD
1000
{"id":"e-mufzcxcx-1r"}
0
LINE
5
1EE
330
126
100
AcDbEntity
8
0
100
AcDbLine
10
-45
20
0
30
0
11
-32
21
0
31
0
1001
CONDUITCAD
1000
{"id":"e-mufzcxcx-1s"}
0
LINE
5
1EF
330
126
100
AcDbEntity
8
0
100
AcDbLine
10
32
20
0
30
0
11
45
21
0
31
0
1001
CONDUITCAD
1000
{"id":"e-mufzcxcx-1t"}
0
ENDBLK
5
1F0
330
126
100
AcDbEntity
8
0
100
AcDbBlockEnd
0
BLOCK
5
1F1
330
127
100
AcDbEntity
8
0
100
AcDbBlockBegin
2
CC_PRESSURE_INDICATOR
70
0
10
0
20
0
30
0
3
CC_PRESSURE_INDICATOR
1

1001
CONDUITCAD
1000
{"ports":[{"name":"sense","x":0,"y":-45,"dx":0,"dy":-1}],"symbol":{"name":"Pressure indicator","category":"P&ID","labelOffset":65,"geometryRevision":2,"convention":"Process and instrumentation draftin
1000
g conventions","conformity":"Original master; not standards-certified"}}
0
CIRCLE
5
1F2
330
127
100
AcDbEntity
8
0
100
AcDbCircle
10
0
20
0
30
0
40
26
1001
CONDUITCAD
1000
{"id":"e-mufzcxcx-1u"}
0
TEXT
5
1F3
330
127
100
AcDbEntity
8
0
100
AcDbText
10
0
20
-5
30
0
40
15
1
PI
50
0
41
1
7
STANDARD
72
1
11
0
21
-5
31
0
100
AcDbText
73
0
1001
CONDUITCAD
1000
{"id":"e-mufzcxcx-1v"}
0
LINE
5
1F4
330
127
100
AcDbEntity
8
0
100
AcDbLine
10
0
20
-26
30
0
11
0
21
-45
31
0
1001
CONDUITCAD
1000
{"id":"e-mufzcxcx-1w"}
0
ENDBLK
5
1F5
330
127
100
AcDbEntity
8
0
100
AcDbBlockEnd
0
BLOCK
5
1F6
330
128
100
AcDbEntity
8
0
100
AcDbBlockBegin
2
CC_FLOW_TRANSMITTER
70
0
10
0
20
0
30
0
3
CC_FLOW_TRANSMITTER
1

1001
CONDUITCAD
1000
{"ports":[{"name":"sense","x":0,"y":-45,"dx":0,"dy":-1}],"symbol":{"name":"Flow transmitter","category":"P&ID","labelOffset":65,"geometryRevision":2,"convention":"Process and instrumentation drafting 
1000
conventions","conformity":"Original master; not standards-certified"}}
0
CIRCLE
5
1F7
330
128
100
AcDbEntity
8
0
100
AcDbCircle
10
0
20
0
30
0
40
26
1001
CONDUITCAD
1000
{"id":"e-mufzcxcx-1x"}
0
TEXT
5
1F8
330
128
100
AcDbEntity
8
0
100
AcDbText
10
0
20
-5
30
0
40
15
1
FT
50
0
41
1
7
STANDARD
72
1
11
0
21
-5
31
0
100
AcDbText
73
0
1001
CONDUITCAD
1000
{"id":"e-mufzcxcx-1y"}
0
LINE
5
1F9
330
128
100
AcDbEntity
8
0
100
AcDbLine
10
0
20
-26
30
0
11
0
21
-45
31
0
1001
CONDUITCAD
1000
{"id":"e-mufzcxcx-1z"}
0
ENDBLK
5
1FA
330
128
100
AcDbEntity
8
0
100
AcDbBlockEnd
0
BLOCK
5
1FB
330
129
100
AcDbEntity
8
0
100
AcDbBlockBegin
2
CC_TEMPERATURE
70
0
10
0
20
0
30
0
3
CC_TEMPERATURE
1

1001
CONDUITCAD
1000
{"ports":[{"name":"sense","x":0,"y":-45,"dx":0,"dy":-1}],"symbol":{"name":"Temperature sensor","category":"P&ID","labelOffset":65,"geometryRevision":2,"convention":"Process and instrumentation draftin
1000
g conventions","conformity":"Original master; not standards-certified"}}
0
CIRCLE
5
1FC
330
129
100
AcDbEntity
8
0
100
AcDbCircle
10
0
20
0
30
0
40
26
1001
CONDUITCAD
1000
{"id":"e-mufzcxcx-20"}
0
TEXT
5
1FD
330
129
100
AcDbEntity
8
0
100
AcDbText
10
0
20
-5
30
0
40
15
1
TT
50
0
41
1
7
STANDARD
72
1
11
0
21
-5
31
0
100
AcDbText
73
0
1001
CONDUITCAD
1000
{"id":"e-mufzcxcx-21"}
0
LINE
5
1FE
330
129
100
AcDbEntity
8
0
100
AcDbLine
10
0
20
-26
30
0
11
0
21
-45
31
0
1001
CONDUITCAD
1000
{"id":"e-mufzcxcx-22"}
0
ENDBLK
5
1FF
330
129
100
AcDbEntity
8
0
100
AcDbBlockEnd
0
BLOCK
5
200
330
12A
100
AcDbEntity
8
0
100
AcDbBlockBegin
2
CC_LEVEL_TRANSMITTER
70
0
10
0
20
0
30
0
3
CC_LEVEL_TRANSMITTER
1

1001
CONDUITCAD
1000
{"ports":[{"name":"sense","x":-45,"y":0,"dx":-1,"dy":0}],"symbol":{"name":"Level transmitter","category":"P&ID","labelOffset":57,"geometryRevision":2,"convention":"Process and instrumentation drafting
1000
 conventions","conformity":"Original master; not standards-certified"}}
0
CIRCLE
5
201
330
12A
100
AcDbEntity
8
0
100
AcDbCircle
10
0
20
0
30
0
40
26
1001
CONDUITCAD
1000
{"id":"e-mufzcxcx-23"}
0
TEXT
5
202
330
12A
100
AcDbEntity
8
0
100
AcDbText
10
0
20
-5
30
0
40
15
1
LT
50
0
41
1
7
STANDARD
72
1
11
0
21
-5
31
0
100
AcDbText
73
0
1001
CONDUITCAD
1000
{"id":"e-mufzcxcx-24"}
0
LINE
5
203
330
12A
100
AcDbEntity
8
0
100
AcDbLine
10
-26
20
0
30
0
11
-45
21
0
31
0
1001
CONDUITCAD
1000
{"id":"e-mufzcxcx-25"}
0
ENDBLK
5
204
330
12A
100
AcDbEntity
8
0
100
AcDbBlockEnd
0
BLOCK
5
205
330
12B
100
AcDbEntity
8
0
100
AcDbBlockBegin
2
CC_REDUCER
70
0
10
0
20
0
30
0
3
CC_REDUCER
1

1001
CONDUITCAD
1000
{"ports":[{"name":"in","x":-45,"y":0,"dx":-1,"dy":0},{"name":"out","x":45,"y":0,"dx":1,"dy":0}],"symbol":{"name":"Concentric reducer","category":"P&ID","labelOffset":57,"geometryRevision":2,"conventio
1000
n":"Process and instrumentation drafting conventions","conformity":"Original master; not standards-certified"}}
0
LINE
5
206
330
12B
100
AcDbEntity
8
0
100
AcDbLine
10
-45
20
0
30
0
11
-28
21
0
31
0
1001
CONDUITCAD
1000
{"id":"e-mufzcxcx-26"}
0
LWPOLYLINE
5
207
330
12B
100
AcDbEntity
8
0
100
AcDbPolyline
90
4
70
1
10
-28
20
-20
10
25
20
-10
10
25
20
10
10
-28
20
20
1001
CONDUITCAD
1000
{"id":"e-mufzcxcx-27"}
0
LINE
5
208
330
12B
100
AcDbEntity
8
0
100
AcDbLine
10
25
20
0
30
0
11
45
21
0
31
0
1001
CONDUITCAD
1000
{"id":"e-mufzcxcx-28"}
0
ENDBLK
5
209
330
12B
100
AcDbEntity
8
0
100
AcDbBlockEnd
0
BLOCK
5
20A
330
12C
100
AcDbEntity
8
0
100
AcDbBlockBegin
2
CC_FLANGE
70
0
10
0
20
0
30
0
3
CC_FLANGE
1

1001
CONDUITCAD
1000
{"ports":[{"name":"in","x":-45,"y":0,"dx":-1,"dy":0},{"name":"out","x":45,"y":0,"dx":1,"dy":0}],"symbol":{"name":"Flanged joint","category":"P&ID","labelOffset":57,"geometryRevision":2,"convention":"P
1000
rocess and instrumentation drafting conventions","conformity":"Original master; not standards-certified"}}
0
LINE
5
20B
330
12C
100
AcDbEntity
8
0
100
AcDbLine
10
-45
20
0
30
0
11
-5
21
0
31
0
1001
CONDUITCAD
1000
{"id":"e-mufzcxcx-29"}
0
LINE
5
20C
330
12C
100
AcDbEntity
8
0
100
AcDbLine
10
5
20
0
30
0
11
45
21
0
31
0
1001
CONDUITCAD
1000
{"id":"e-mufzcxcx-2a"}
0
LINE
5
20D
330
12C
100
AcDbEntity
8
0
100
AcDbLine
10
-5
20
-23
30
0
11
-5
21
23
31
0
1001
CONDUITCAD
1000
{"id":"e-mufzcxcx-2b"}
0
LINE
5
20E
330
12C
100
AcDbEntity
8
0
100
AcDbLine
10
5
20
-23
30
0
11
5
21
23
31
0
1001
CONDUITCAD
1000
{"id":"e-mufzcxcx-2c"}
0
ENDBLK
5
20F
330
12C
100
AcDbEntity
8
0
100
AcDbBlockEnd
0
BLOCK
5
210
330
12D
100
AcDbEntity
8
0
100
AcDbBlockBegin
2
CC_OFFPAGE
70
0
10
0
20
0
30
0
3
CC_OFFPAGE
1

1001
CONDUITCAD
1000
{"ports":[{"name":"in","x":-45,"y":0,"dx":-1,"dy":0},{"name":"out","x":45,"y":0,"dx":1,"dy":0}],"symbol":{"name":"Off-page connector","category":"P&ID","labelOffset":57,"geometryRevision":2,"conventio
1000
n":"Process and instrumentation drafting conventions","conformity":"Original master; not standards-certified"}}
0
LWPOLYLINE
5
211
330
12D
100
AcDbEntity
8
0
100
AcDbPolyline
90
5
70
1
10
-40
20
-17
10
24
20
-17
10
44
20
0
10
24
20
17
10
-40
20
17
1001
CONDUITCAD
1000
{"id":"e-mufzcxcy-6i"}
0
LINE
5
212
330
12D
100
AcDbEntity
8
0
100
AcDbLine
10
-45
20
0
30
0
11
-40
21
0
31
0
1001
CONDUITCAD
1000
{"id":"e-mufzcxcy-6j"}
0
LINE
5
213
330
12D
100
AcDbEntity
8
0
100
AcDbLine
10
44
20
0
30
0
11
45
21
0
31
0
1001
CONDUITCAD
1000
{"id":"e-mufzcxcy-6k"}
0
TEXT
5
214
330
12D
100
AcDbEntity
8
0
100
AcDbText
10
-4
20
-5
30
0
40
13
1
PW
50
0
41
1
7
STANDARD
72
1
11
-4
21
-5
31
0
100
AcDbText
73
0
1001
CONDUITCAD
1000
{"id":"e-mufzcxcy-6l"}
0
ENDBLK
5
215
330
12D
100
AcDbEntity
8
0
100
AcDbBlockEnd
0
BLOCK
5
216
330
12E
100
AcDbEntity
8
0
100
AcDbBlockBegin
2
CC_RESISTOR
70
0
10
0
20
0
30
0
3
CC_RESISTOR
1

1001
CONDUITCAD
1000
{"ports":[{"name":"in","x":-45,"y":0,"dx":-1,"dy":0},{"name":"out","x":45,"y":0,"dx":1,"dy":0}],"symbol":{"name":"Resistor","category":"Electrical","labelOffset":57,"geometryRevision":2,"convention":"
1000
IEC/ANSI functional drafting conventions","conformity":"Original master; not standards-certified"}}
0
LINE
5
217
330
12E
100
AcDbEntity
8
0
100
AcDbLine
10
-45
20
0
30
0
11
-25
21
0
31
0
1001
CONDUITCAD
1000
{"id":"e-mufzcxcw-1"}
0
LINE
5
218
330
12E
100
AcDbEntity
8
0
100
AcDbLine
10
25
20
0
30
0
11
45
21
0
31
0
1001
CONDUITCAD
1000
{"id":"e-mufzcxcw-2"}
0
LWPOLYLINE
5
219
330
12E
100
AcDbEntity
8
0
100
AcDbPolyline
90
7
70
0
10
-25
20
0
10
-19
20
12
10
-10
20
-12
10
0
20
12
10
10
20
-12
10
19
20
12
10
25
20
0
1001
CONDUITCAD
1000
{"id":"e-mufzcxcx-2f"}
0
ENDBLK
5
21A
330
12E
100
AcDbEntity
8
0
100
AcDbBlockEnd
0
BLOCK
5
21B
330
12F
100
AcDbEntity
8
0
100
AcDbBlockBegin
2
CC_RESISTOR_IEC
70
0
10
0
20
0
30
0
3
CC_RESISTOR_IEC
1

1001
CONDUITCAD
1000
{"ports":[{"name":"in","x":-45,"y":0,"dx":-1,"dy":0},{"name":"out","x":45,"y":0,"dx":1,"dy":0}],"symbol":{"name":"Resistor \u00b7 rectangular","category":"Electrical","labelOffset":57,"geometryRevisio
1000
n":2,"convention":"IEC/ANSI functional drafting conventions","conformity":"Original master; not standards-certified"}}
0
LINE
5
21C
330
12F
100
AcDbEntity
8
0
100
AcDbLine
10
-45
20
0
30
0
11
-25
21
0
31
0
1001
CONDUITCAD
1000
{"id":"e-mufzcxcw-1"}
0
LINE
5
21D
330
12F
100
AcDbEntity
8
0
100
AcDbLine
10
25
20
0
30
0
11
45
21
0
31
0
1001
CONDUITCAD
1000
{"id":"e-mufzcxcw-2"}
0
LWPOLYLINE
5
21E
330
12F
100
AcDbEntity
8
0
100
AcDbPolyline
90
4
70
1
10
-25
20
-11
10
25
20
-11
10
25
20
11
10
-25
20
11
1001
CONDUITCAD
1000
{"id":"e-mufzcxcx-2g"}
0
ENDBLK
5
21F
330
12F
100
AcDbEntity
8
0
100
AcDbBlockEnd
0
BLOCK
5
220
330
130
100
AcDbEntity
8
0
100
AcDbBlockBegin
2
CC_CAPACITOR
70
0
10
0
20
0
30
0
3
CC_CAPACITOR
1

1001
CONDUITCAD
1000
{"ports":[{"name":"in","x":-45,"y":0,"dx":-1,"dy":0},{"name":"out","x":45,"y":0,"dx":1,"dy":0}],"symbol":{"name":"Capacitor","category":"Electrical","labelOffset":57,"geometryRevision":2,"convention":
1000
"IEC/ANSI functional drafting conventions","conformity":"Original master; not standards-certified"}}
0
LINE
5
221
330
130
100
AcDbEntity
8
0
100
AcDbLine
10
-45
20
0
30
0
11
-6
21
0
31
0
1001
CONDUITCAD
1000
{"id":"e-mufzcxcx-2h"}
0
LINE
5
222
330
130
100
AcDbEntity
8
0
100
AcDbLine
10
6
20
0
30
0
11
45
21
0
31
0
1001
CONDUITCAD
1000
{"id":"e-mufzcxcx-2i"}
0
LINE
5
223
330
130
100
AcDbEntity
8
0
100
AcDbLine
10
-6
20
-25
30
0
11
-6
21
25
31
0
1001
CONDUITCAD
1000
{"id":"e-mufzcxcx-2j"}
0
LINE
5
224
330
130
100
AcDbEntity
8
0
100
AcDbLine
10
6
20
-25
30
0
11
6
21
25
31
0
1001
CONDUITCAD
1000
{"id":"e-mufzcxcx-2k"}
0
ENDBLK
5
225
330
130
100
AcDbEntity
8
0
100
AcDbBlockEnd
0
BLOCK
5
226
330
131
100
AcDbEntity
8
0
100
AcDbBlockBegin
2
CC_INDUCTOR
70
0
10
0
20
0
30
0
3
CC_INDUCTOR
1

1001
CONDUITCAD
1000
{"ports":[{"name":"in","x":-45,"y":0,"dx":-1,"dy":0},{"name":"out","x":45,"y":0,"dx":1,"dy":0}],"symbol":{"name":"Inductor","category":"Electrical","labelOffset":57,"geometryRevision":2,"convention":"
1000
IEC/ANSI functional drafting conventions","conformity":"Original master; not standards-certified"}}
0
LINE
5
227
330
131
100
AcDbEntity
8
0
100
AcDbLine
10
-45
20
0
30
0
11
-30
21
0
31
0
1001
CONDUITCAD
1000
{"id":"e-mufzcxcx-2l"}
0
LINE
5
228
330
131
100
AcDbEntity
8
0
100
AcDbLine
10
30
20
0
30
0
11
45
21
0
31
0
1001
CONDUITCAD
1000
{"id":"e-mufzcxcx-2m"}
0
LWPOLYLINE
5
229
330
131
100
AcDbEntity
8
0
100
AcDbPolyline
90
8
70
0
10
-30
20
9.18485099360515e-16
10
-29.257266509268142
20
3.254128043381687
10
-27.1761735139405
20
5.863736118510224
10
-24.168907004672356
20
7.311959341363677
10
-20.83109299532764
20
7.311959341363677
10
-17.8238264860595
20
5.863736118510223
10
-15.742733490731856
20
3.254128043381686
10
-15
20
0
1001
CONDUITCAD
1000
{"id":"e-mufzcxcx-2n"}
0
LWPOLYLINE
5
22A
330
131
100
AcDbEntity
8
0
100
AcDbPolyline
90
8
70
0
10
-15
20
9.18485099360515e-16
10
-14.257266509268142
20
3.254128043381687
10
-12.176173513940501
20
5.863736118510224
10
-9.168907004672358
20
7.311959341363677
10
-5.831092995327642
20
7.311959341363677
10
-2.823826486059498
20
5.863736118510223
10
-0.7427334907318563
20
3.254128043381686
10
0
20
0
1001
CONDUITCAD
1000
{"id":"e-mufzcxcx-2o"}
0
LWPOLYLINE
5
22B
330
131
100
AcDbEntity
8
0
100
AcDbPolyline
90
8
70
0
10
0
20
9.18485099360515e-16
10
0.7427334907318572
20
3.254128043381687
10
2.823826486059499
20
5.863736118510224
10
5.8310929953276425
20
7.311959341363677
10
9.16890700467236
20
7.311959341363677
10
12.176173513940501
20
5.863736118510223
10
14.257266509268144
20
3.254128043381686
10
15
20
0
1001
CONDUITCAD
1000
{"id":"e-mufzcxcx-2p"}
0
LWPOLYLINE
5
22C
330
131
100
AcDbEntity
8
0
100
AcDbPolyline
90
8
70
0
10
15
20
9.18485099360515e-16
10
15.742733490731858
20
3.254128043381687
10
17.8238264860595
20
5.863736118510224
10
20.831092995327644
20
7.311959341363677
10
24.16890700467236
20
7.311959341363677
10
27.1761735139405
20
5.863736118510223
10
29.257266509268142
20
3.254128043381686
10
30
20
0
1001
CONDUITCAD
1000
{"id":"e-mufzcxcx-2q"}
0
ENDBLK
5
22D
330
131
100
AcDbEntity
8
0
100
AcDbBlockEnd
0
BLOCK
5
22E
330
132
100
AcDbEntity
8
0
100
AcDbBlockBegin
2
CC_DIODE
70
0
10
0
20
0
30
0
3
CC_DIODE
1

1001
CONDUITCAD
1000
{"ports":[{"name":"in","x":-45,"y":0,"dx":-1,"dy":0},{"name":"out","x":45,"y":0,"dx":1,"dy":0}],"symbol":{"name":"Diode","category":"Electrical","labelOffset":57,"geometryRevision":2,"convention":"IEC
1000
/ANSI functional drafting conventions","conformity":"Original master; not standards-certified"}}
0
LINE
5
22F
330
132
100
AcDbEntity
8
0
100
AcDbLine
10
-45
20
0
30
0
11
-22
21
0
31
0
1001
CONDUITCAD
1000
{"id":"e-mufzcxcy-6a"}
0
LWPOLYLINE
5
230
330
132
100
AcDbEntity
8
0
100
AcDbPolyline
90
3
70
1
10
-22
20
-22
10
22
20
0
10
-22
20
22
1001
CONDUITCAD
1000
{"id":"e-mufzcxcy-6b"}
0
LINE
5
231
330
132
100
AcDbEntity
8
0
100
AcDbLine
10
22
20
-24
30
0
11
22
21
24
31
0
1001
CONDUITCAD
1000
{"id":"e-mufzcxcy-6c"}
0
LINE
5
232
330
132
100
AcDbEntity
8
0
100
AcDbLine
10
22
20
0
30
0
11
45
21
0
31
0
1001
CONDUITCAD
1000
{"id":"e-mufzcxcy-6d"}
0
ENDBLK
5
233
330
132
100
AcDbEntity
8
0
100
AcDbBlockEnd
0
BLOCK
5
234
330
133
100
AcDbEntity
8
0
100
AcDbBlockBegin
2
CC_LED
70
0
10
0
20
0
30
0
3
CC_LED
1

1001
CONDUITCAD
1000
{"ports":[{"name":"in","x":-45,"y":0,"dx":-1,"dy":0},{"name":"out","x":45,"y":0,"dx":1,"dy":0}],"symbol":{"name":"LED","category":"Electrical","labelOffset":57,"geometryRevision":2,"convention":"IEC/A
1000
NSI functional drafting conventions","conformity":"Original master; not standards-certified"}}
0
LINE
5
235
330
133
100
AcDbEntity
8
0
100
AcDbLine
10
-45
20
0
30
0
11
-22
21
0
31
0
1001
CONDUITCAD
1000
{"id":"e-mufzcxcy-6a"}
0
LWPOLYLINE
5
236
330
133
100
AcDbEntity
8
0
100
AcDbPolyline
90
3
70
1
10
-22
20
-22
10
22
20
0
10
-22
20
22
1001
CONDUITCAD
1000
{"id":"e-mufzcxcy-6b"}
0
LINE
5
237
330
133
100
AcDbEntity
8
0
100
AcDbLine
10
22
20
-24
30
0
11
22
21
24
31
0
1001
CONDUITCAD
1000
{"id":"e-mufzcxcy-6c"}
0
LINE
5
238
330
133
100
AcDbEntity
8
0
100
AcDbLine
10
22
20
0
30
0
11
45
21
0
31
0
1001
CONDUITCAD
1000
{"id":"e-mufzcxcy-6d"}
0
LINE
5
239
330
133
100
AcDbEntity
8
0
100
AcDbLine
10
4
20
27
30
0
11
24
21
47
31
0
1001
CONDUITCAD
1000
{"id":"e-mufzcxcy-6e"}
0
LWPOLYLINE
5
23A
330
133
100
AcDbEntity
8
0
100
AcDbPolyline
90
3
70
0
10
15
20
45
10
24
20
47
10
22
20
38
1001
CONDUITCAD
1000
{"id":"e-mufzcxcy-6f"}
0
LINE
5
23B
330
133
100
AcDbEntity
8
0
100
AcDbLine
10
18
20
22
30
0
11
38
21
42
31
0
1001
CONDUITCAD
1000
{"id":"e-mufzcxcy-6g"}
0
LWPOLYLINE
5
23C
330
133
100
AcDbEntity
8
0
100
AcDbPolyline
90
3
70
0
10
29
20
40
10
38
20
42
10
36
20
33
1001
CONDUITCAD
1000
{"id":"e-mufzcxcy-6h"}
0
ENDBLK
5
23D
330
133
100
AcDbEntity
8
0
100
AcDbBlockEnd
0
BLOCK
5
23E
330
134
100
AcDbEntity
8
0
100
AcDbBlockBegin
2
CC_SWITCH
70
0
10
0
20
0
30
0
3
CC_SWITCH
1

1001
CONDUITCAD
1000
{"ports":[{"name":"in","x":-45,"y":0,"dx":-1,"dy":0},{"name":"out","x":45,"y":0,"dx":1,"dy":0}],"symbol":{"name":"Switch \u00b7 normally open","category":"Electrical","labelOffset":57,"geometryRevisio
1000
n":2,"convention":"IEC/ANSI functional drafting conventions","conformity":"Original master; not standards-certified"}}
0
LINE
5
23F
330
134
100
AcDbEntity
8
0
100
AcDbLine
10
-45
20
0
30
0
11
-23
21
0
31
0
1001
CONDUITCAD
1000
{"id":"e-mufzcxcx-2x"}
0
LINE
5
240
330
134
100
AcDbEntity
8
0
100
AcDbLine
10
23
20
0
30
0
11
45
21
0
31
0
1001
CONDUITCAD
1000
{"id":"e-mufzcxcx-2y"}
0
CIRCLE
5
241
330
134
100
AcDbEntity
8
0
100
AcDbCircle
10
-22
20
0
30
0
40
3
1001
CONDUITCAD
1000
{"id":"e-mufzcxcx-2z"}
0
CIRCLE
5
242
330
134
100
AcDbEntity
8
0
100
AcDbCircle
10
22
20
0
30
0
40
3
1001
CONDUITCAD
1000
{"id":"e-mufzcxcx-30"}
0
LINE
5
243
330
134
100
AcDbEntity
8
0
100
AcDbLine
10
-20
20
2
30
0
11
19
21
26
31
0
1001
CONDUITCAD
1000
{"id":"e-mufzcxcx-31"}
0
ENDBLK
5
244
330
134
100
AcDbEntity
8
0
100
AcDbBlockEnd
0
BLOCK
5
245
330
135
100
AcDbEntity
8
0
100
AcDbBlockBegin
2
CC_SWITCH_NC
70
0
10
0
20
0
30
0
3
CC_SWITCH_NC
1

1001
CONDUITCAD
1000
{"ports":[{"name":"in","x":-45,"y":0,"dx":-1,"dy":0},{"name":"out","x":45,"y":0,"dx":1,"dy":0}],"symbol":{"name":"Switch \u00b7 normally closed","category":"Electrical","labelOffset":57,"geometryRevis
1000
ion":2,"convention":"IEC/ANSI functional drafting conventions","conformity":"Original master; not standards-certified"}}
0
LINE
5
246
330
135
100
AcDbEntity
8
0
100
AcDbLine
10
-45
20
0
30
0
11
-23
21
0
31
0
1001
CONDUITCAD
1000
{"id":"e-mufzcxcx-32"}
0
LINE
5
247
330
135
100
AcDbEntity
8
0
100
AcDbLine
10
23
20
0
30
0
11
45
21
0
31
0
1001
CONDUITCAD
1000
{"id":"e-mufzcxcx-33"}
0
CIRCLE
5
248
330
135
100
AcDbEntity
8
0
100
AcDbCircle
10
-22
20
0
30
0
40
3
1001
CONDUITCAD
1000
{"id":"e-mufzcxcx-34"}
0
CIRCLE
5
249
330
135
100
AcDbEntity
8
0
100
AcDbCircle
10
22
20
0
30
0
40
3
1001
CONDUITCAD
1000
{"id":"e-mufzcxcx-35"}
0
LINE
5
24A
330
135
100
AcDbEntity
8
0
100
AcDbLine
10
-20
20
2
30
0
11
21
21
2
31
0
1001
CONDUITCAD
1000
{"id":"e-mufzcxcx-36"}
0
LINE
5
24B
330
135
100
AcDbEntity
8
0
100
AcDbLine
10
0
20
2
30
0
11
0
21
23
31
0
1001
CONDUITCAD
1000
{"id":"e-mufzcxcx-37"}
0
ENDBLK
5
24C
330
135
100
AcDbEntity
8
0
100
AcDbBlockEnd
0
BLOCK
5
24D
330
136
100
AcDbEntity
8
0
100
AcDbBlockBegin
2
CC_FUSE
70
0
10
0
20
0
30
0
3
CC_FUSE
1

1001
CONDUITCAD
1000
{"ports":[{"name":"in","x":-45,"y":0,"dx":-1,"dy":0},{"name":"out","x":45,"y":0,"dx":1,"dy":0}],"symbol":{"name":"Fuse","category":"Electrical","labelOffset":57,"geometryRevision":2,"convention":"IEC/
1000
ANSI functional drafting conventions","conformity":"Original master; not standards-certified"}}
0
LINE
5
24E
330
136
100
AcDbEntity
8
0
100
AcDbLine
10
-45
20
0
30
0
11
45
21
0
31
0
1001
CONDUITCAD
1000
{"id":"e-mufzcxcx-38"}
0
LWPOLYLINE
5
24F
330
136
100
AcDbEntity
8
0
100
AcDbPolyline
90
4
70
1
10
-24
20
-10
10
24
20
-10
10
24
20
10
10
-24
20
10
1001
CONDUITCAD
1000
{"id":"e-mufzcxcx-39"}
0
ENDBLK
5
250
330
136
100
AcDbEntity
8
0
100
AcDbBlockEnd
0
BLOCK
5
251
330
137
100
AcDbEntity
8
0
100
AcDbBlockBegin
2
CC_RELAY
70
0
10
0
20
0
30
0
3
CC_RELAY
1

1001
CONDUITCAD
1000
{"ports":[{"name":"in","x":-45,"y":0,"dx":-1,"dy":0},{"name":"out","x":45,"y":0,"dx":1,"dy":0}],"symbol":{"name":"Relay coil","category":"Electrical","labelOffset":57,"geometryRevision":2,"convention"
1000
:"IEC/ANSI functional drafting conventions","conformity":"Original master; not standards-certified"}}
0
LINE
5
252
330
137
100
AcDbEntity
8
0
100
AcDbLine
10
-45
20
0
30
0
11
-25
21
0
31
0
1001
CONDUITCAD
1000
{"id":"e-mufzcxcw-1"}
0
LINE
5
253
330
137
100
AcDbEntity
8
0
100
AcDbLine
10
25
20
0
30
0
11
45
21
0
31
0
1001
CONDUITCAD
1000
{"id":"e-mufzcxcw-2"}
0
LWPOLYLINE
5
254
330
137
100
AcDbEntity
8
0
100
AcDbPolyline
90
4
70
1
10
-25
20
-22
10
25
20
-22
10
25
20
22
10
-25
20
22
1001
CONDUITCAD
1000
{"id":"e-mufzcxcx-3a"}
0
LINE
5
255
330
137
100
AcDbEntity
8
0
100
AcDbLine
10
-20
20
-18
30
0
11
20
21
18
31
0
1001
CONDUITCAD
1000
{"id":"e-mufzcxcx-3b"}
0
ENDBLK
5
256
330
137
100
AcDbEntity
8
0
100
AcDbBlockEnd
0
BLOCK
5
257
330
138
100
AcDbEntity
8
0
100
AcDbBlockBegin
2
CC_MOTOR
70
0
10
0
20
0
30
0
3
CC_MOTOR
1

1001
CONDUITCAD
1000
{"ports":[{"name":"in","x":-45,"y":0,"dx":-1,"dy":0},{"name":"out","x":45,"y":0,"dx":1,"dy":0},{"name":"top","x":0,"y":45,"dx":0,"dy":1},{"name":"bottom","x":0,"y":-45,"dx":0,"dy":-1}],"symbol":{"name
1000
":"Motor","category":"Electrical","labelOffset":57,"geometryRevision":2,"convention":"IEC/ANSI functional drafting conventions","conformity":"Original master; not standards-certified"}}
0
LINE
5
258
330
138
100
AcDbEntity
8
0
100
AcDbLine
10
-45
20
0
30
0
11
-29
21
0
31
0
1001
CONDUITCAD
1000
{"id":"e-mufzcxcy-5v"}
0
LINE
5
259
330
138
100
AcDbEntity
8
0
100
AcDbLine
10
29
20
0
30
0
11
45
21
0
31
0
1001
CONDUITCAD
1000
{"id":"e-mufzcxcy-5w"}
0
LINE
5
25A
330
138
100
AcDbEntity
8
0
100
AcDbLine
10
0
20
29
30
0
11
0
21
45
31
0
1001
CONDUITCAD
1000
{"id":"e-mufzcxcy-5x"}
0
LINE
5
25B
330
138
100
AcDbEntity
8
0
100
AcDbLine
10
0
20
-29
30
0
11
0
21
-45
31
0
1001
CONDUITCAD
1000
{"id":"e-mufzcxcy-5y"}
0
CIRCLE
5
25C
330
138
100
AcDbEntity
8
0
100
AcDbCircle
10
0
20
0
30
0
40
29
1001
CONDUITCAD
1000
{"id":"e-mufzcxcx-3c"}
0
TEXT
5
25D
330
138
100
AcDbEntity
8
0
100
AcDbText
10
0
20
-7
30
0
40
22
1
M
50
0
41
1
7
STANDARD
72
1
11
0
21
-7
31
0
100
AcDbText
73
0
1001
CONDUITCAD
1000
{"id":"e-mufzcxcx-3d"}
0
ENDBLK
5
25E
330
138
100
AcDbEntity
8
0
100
AcDbBlockEnd
0
BLOCK
5
25F
330
139
100
AcDbEntity
8
0
100
AcDbBlockBegin
2
CC_GENERATOR
70
0
10
0
20
0
30
0
3
CC_GENERATOR
1

1001
CONDUITCAD
1000
{"ports":[{"name":"in","x":-45,"y":0,"dx":-1,"dy":0},{"name":"out","x":45,"y":0,"dx":1,"dy":0},{"name":"top","x":0,"y":45,"dx":0,"dy":1},{"name":"bottom","x":0,"y":-45,"dx":0,"dy":-1}],"symbol":{"name
1000
":"Generator","category":"Electrical","labelOffset":57,"geometryRevision":2,"convention":"IEC/ANSI functional drafting conventions","conformity":"Original master; not standards-certified"}}
0
LINE
5
260
330
139
100
AcDbEntity
8
0
100
AcDbLine
10
-45
20
0
30
0
11
-29
21
0
31
0
1001
CONDUITCAD
1000
{"id":"e-mufzcxcy-5z"}
0
LINE
5
261
330
139
100
AcDbEntity
8
0
100
AcDbLine
10
29
20
0
30
0
11
45
21
0
31
0
1001
CONDUITCAD
1000
{"id":"e-mufzcxcy-60"}
0
LINE
5
262
330
139
100
AcDbEntity
8
0
100
AcDbLine
10
0
20
29
30
0
11
0
21
45
31
0
1001
CONDUITCAD
1000
{"id":"e-mufzcxcy-61"}
0
LINE
5
263
330
139
100
AcDbEntity
8
0
100
AcDbLine
10
0
20
-29
30
0
11
0
21
-45
31
0
1001
CONDUITCAD
1000
{"id":"e-mufzcxcy-62"}
0
CIRCLE
5
264
330
139
100
AcDbEntity
8
0
100
AcDbCircle
10
0
20
0
30
0
40
29
1001
CONDUITCAD
1000
{"id":"e-mufzcxcx-3e"}
0
TEXT
5
265
330
139
100
AcDbEntity
8
0
100
AcDbText
10
0
20
-7
30
0
40
22
1
G
50
0
41
1
7
STANDARD
72
1
11
0
21
-7
31
0
100
AcDbText
73
0
1001
CONDUITCAD
1000
{"id":"e-mufzcxcx-3f"}
0
ENDBLK
5
266
330
139
100
AcDbEntity
8
0
100
AcDbBlockEnd
0
BLOCK
5
267
330
13A
100
AcDbEntity
8
0
100
AcDbBlockBegin
2
CC_TRANSFORMER
70
0
10
0
20
0
30
0
3
CC_TRANSFORMER
1

1001
CONDUITCAD
1000
{"ports":[{"name":"in","x":-45,"y":0,"dx":-1,"dy":0},{"name":"out","x":45,"y":0,"dx":1,"dy":0}],"symbol":{"name":"Transformer","category":"Electrical","labelOffset":57,"geometryRevision":2,"convention
1000
":"IEC/ANSI functional drafting conventions","conformity":"Original master; not standards-certified"}}
0
LINE
5
268
330
13A
100
AcDbEntity
8
0
100
AcDbLine
10
-45
20
0
30
0
11
-27
21
0
31
0
1001
CONDUITCAD
1000
{"id":"e-mufzcxcx-3g"}
0
LINE
5
269
330
13A
100
AcDbEntity
8
0
100
AcDbLine
10
27
20
0
30
0
11
45
21
0
31
0
1001
CONDUITCAD
1000
{"id":"e-mufzcxcx-3h"}
0
CIRCLE
5
26A
330
13A
100
AcDbEntity
8
0
100
AcDbCircle
10
-14
20
0
30
0
40
18
1001
CONDUITCAD
1000
{"id":"e-mufzcxcx-3i"}
0
CIRCLE
5
26B
330
13A
100
AcDbEntity
8
0
100
AcDbCircle
10
14
20
0
30
0
40
18
1001
CONDUITCAD
1000
{"id":"e-mufzcxcx-3j"}
0
LINE
5
26C
330
13A
100
AcDbEntity
8
0
100
AcDbLine
10
-3
20
-28
30
0
11
-3
21
28
31
0
1001
CONDUITCAD
1000
{"id":"e-mufzcxcx-3k"}
0
LINE
5
26D
330
13A
100
AcDbEntity
8
0
100
AcDbLine
10
3
20
-28
30
0
11
3
21
28
31
0
1001
CONDUITCAD
1000
{"id":"e-mufzcxcx-3l"}
0
ENDBLK
5
26E
330
13A
100
AcDbEntity
8
0
100
AcDbBlockEnd
0
BLOCK
5
26F
330
13B
100
AcDbEntity
8
0
100
AcDbBlockBegin
2
CC_GROUND
70
0
10
0
20
0
30
0
3
CC_GROUND
1

1001
CONDUITCAD
1000
{"ports":[{"name":"terminal","x":0,"y":40,"dx":0,"dy":1}],"symbol":{"name":"Protective earth","category":"Electrical","labelOffset":57,"geometryRevision":2,"convention":"IEC/ANSI functional drafting c
1000
onventions","conformity":"Original master; not standards-certified"}}
0
LINE
5
270
330
13B
100
AcDbEntity
8
0
100
AcDbLine
10
0
20
40
30
0
11
0
21
5
31
0
1001
CONDUITCAD
1000
{"id":"e-mufzcxcx-3m"}
0
LINE
5
271
330
13B
100
AcDbEntity
8
0
100
AcDbLine
10
-26
20
5
30
0
11
26
21
5
31
0
1001
CONDUITCAD
1000
{"id":"e-mufzcxcx-3n"}
0
LINE
5
272
330
13B
100
AcDbEntity
8
0
100
AcDbLine
10
-17
20
-5
30
0
11
17
21
-5
31
0
1001
CONDUITCAD
1000
{"id":"e-mufzcxcx-3o"}
0
LINE
5
273
330
13B
100
AcDbEntity
8
0
100
AcDbLine
10
-8
20
-15
30
0
11
8
21
-15
31
0
1001
CONDUITCAD
1000
{"id":"e-mufzcxcx-3p"}
0
ENDBLK
5
274
330
13B
100
AcDbEntity
8
0
100
AcDbBlockEnd
0
BLOCK
5
275
330
13C
100
AcDbEntity
8
0
100
AcDbBlockBegin
2
CC_BATTERY
70
0
10
0
20
0
30
0
3
CC_BATTERY
1

1001
CONDUITCAD
1000
{"ports":[{"name":"in","x":-45,"y":0,"dx":-1,"dy":0},{"name":"out","x":45,"y":0,"dx":1,"dy":0}],"symbol":{"name":"Battery","category":"Electrical","labelOffset":57,"geometryRevision":2,"convention":"I
1000
EC/ANSI functional drafting conventions","conformity":"Original master; not standards-certified"}}
0
LINE
5
276
330
13C
100
AcDbEntity
8
0
100
AcDbLine
10
-45
20
0
30
0
11
-18
21
0
31
0
1001
CONDUITCAD
1000
{"id":"e-mufzcxcx-3q"}
0
LINE
5
277
330
13C
100
AcDbEntity
8
0
100
AcDbLine
10
18
20
0
30
0
11
45
21
0
31
0
1001
CONDUITCAD
1000
{"id":"e-mufzcxcx-3r"}
0
LINE
5
278
330
13C
100
AcDbEntity
8
0
100
AcDbLine
10
-18
20
-24
30
0
11
-18
21
24
31
0
1001
CONDUITCAD
1000
{"id":"e-mufzcxcx-3s"}
0
LINE
5
279
330
13C
100
AcDbEntity
8
0
100
AcDbLine
10
-6
20
-12
30
0
11
-6
21
12
31
0
1001
CONDUITCAD
1000
{"id":"e-mufzcxcx-3t"}
0
LINE
5
27A
330
13C
100
AcDbEntity
8
0
100
AcDbLine
10
6
20
-24
30
0
11
6
21
24
31
0
1001
CONDUITCAD
1000
{"id":"e-mufzcxcx-3u"}
0
LINE
5
27B
330
13C
100
AcDbEntity
8
0
100
AcDbLine
10
18
20
-12
30
0
11
18
21
12
31
0
1001
CONDUITCAD
1000
{"id":"e-mufzcxcx-3v"}
0
ENDBLK
5
27C
330
13C
100
AcDbEntity
8
0
100
AcDbBlockEnd
0
BLOCK
5
27D
330
13D
100
AcDbEntity
8
0
100
AcDbBlockBegin
2
CC_TERMINAL
70
0
10
0
20
0
30
0
3
CC_TERMINAL
1

1001
CONDUITCAD
1000
{"ports":[{"name":"in","x":-45,"y":0,"dx":-1,"dy":0},{"name":"out","x":45,"y":0,"dx":1,"dy":0}],"symbol":{"name":"Terminal block","category":"Electrical","labelOffset":57,"geometryRevision":2,"convent
1000
ion":"IEC/ANSI functional drafting conventions","conformity":"Original master; not standards-certified"}}
0
LINE
5
27E
330
13D
100
AcDbEntity
8
0
100
AcDbLine
10
-45
20
0
30
0
11
45
21
0
31
0
1001
CONDUITCAD
1000
{"id":"e-mufzcxcx-3w"}
0
CIRCLE
5
27F
330
13D
100
AcDbEntity
8
0
100
AcDbCircle
10
0
20
0
30
0
40
12
1001
CONDUITCAD
1000
{"id":"e-mufzcxcx-3x"}
0
LWPOLYLINE
5
280
330
13D
100
AcDbEntity
8
0
100
AcDbPolyline
90
4
70
1
10
-25
20
-25
10
25
20
-25
10
25
20
25
10
-25
20
25
1001
CONDUITCAD
1000
{"id":"e-mufzcxcx-3y"}
0
ENDBLK
5
281
330
13D
100
AcDbEntity
8
0
100
AcDbBlockEnd
0
BLOCK
5
282
330
13E
100
AcDbEntity
8
0
100
AcDbBlockBegin
2
CC_OP_AMP
70
0
10
0
20
0
30
0
3
CC_OP_AMP
1

1001
CONDUITCAD
1000
{"ports":[{"name":"positive","x":-45,"y":18,"dx":-1,"dy":0},{"name":"negative","x":-45,"y":-18,"dx":-1,"dy":0},{"name":"out","x":45,"y":0,"dx":1,"dy":0}],"symbol":{"name":"Operational amplifier","cate
1000
gory":"Electrical","labelOffset":57,"geometryRevision":2,"convention":"IEC/ANSI functional drafting conventions","conformity":"Original master; not standards-certified"}}
0
LWPOLYLINE
5
283
330
13E
100
AcDbEntity
8
0
100
AcDbPolyline
90
3
70
1
10
-30
20
-35
10
35
20
0
10
-30
20
35
1001
CONDUITCAD
1000
{"id":"e-mufzcxcx-3z"}
0
LINE
5
284
330
13E
100
AcDbEntity
8
0
100
AcDbLine
10
-45
20
18
30
0
11
-30
21
18
31
0
1001
CONDUITCAD
1000
{"id":"e-mufzcxcx-40"}
0
LINE
5
285
330
13E
100
AcDbEntity
8
0
100
AcDbLine
10
-45
20
-18
30
0
11
-30
21
-18
31
0
1001
CONDUITCAD
1000
{"id":"e-mufzcxcx-41"}
0
LINE
5
286
330
13E
100
AcDbEntity
8
0
100
AcDbLine
10
35
20
0
30
0
11
45
21
0
31
0
1001
CONDUITCAD
1000
{"id":"e-mufzcxcx-42"}
0
TEXT
5
287
330
13E
100
AcDbEntity
8
0
100
AcDbText
10
-20
20
13
30
0
40
12
1
+
50
0
41
1
7
STANDARD
72
1
11
-20
21
13
31
0
100
AcDbText
73
0
1001
CONDUITCAD
1000
{"id":"e-mufzcxcx-43"}
0
TEXT
5
288
330
13E
100
AcDbEntity
8
0
100
AcDbText
10
-20
20
-23
30
0
40
12
1
−
50
0
41
1
7
STANDARD
72
1
11
-20
21
-23
31
0
100
AcDbText
73
0
1001
CONDUITCAD
1000
{"id":"e-mufzcxcx-44"}
0
ENDBLK
5
289
330
13E
100
AcDbEntity
8
0
100
AcDbBlockEnd
0
BLOCK
5
28A
330
13F
100
AcDbEntity
8
0
100
AcDbBlockBegin
2
CC_LAMP
70
0
10
0
20
0
30
0
3
CC_LAMP
1

1001
CONDUITCAD
1000
{"ports":[{"name":"in","x":-45,"y":0,"dx":-1,"dy":0},{"name":"out","x":45,"y":0,"dx":1,"dy":0}],"symbol":{"name":"Indicator lamp","category":"Electrical","labelOffset":57,"geometryRevision":2,"convent
1000
ion":"IEC/ANSI functional drafting conventions","conformity":"Original master; not standards-certified"}}
0
LINE
5
28B
330
13F
100
AcDbEntity
8
0
100
AcDbLine
10
-45
20
0
30
0
11
-24
21
0
31
0
1001
CONDUITCAD
1000
{"id":"e-mufzcxcy-63"}
0
LINE
5
28C
330
13F
100
AcDbEntity
8
0
100
AcDbLine
10
24
20
0
30
0
11
45
21
0
31
0
1001
CONDUITCAD
1000
{"id":"e-mufzcxcy-64"}
0
CIRCLE
5
28D
330
13F
100
AcDbEntity
8
0
100
AcDbCircle
10
0
20
0
30
0
40
24
1001
CONDUITCAD
1000
{"id":"e-mufzcxcx-45"}
0
LINE
5
28E
330
13F
100
AcDbEntity
8
0
100
AcDbLine
10
-17
20
-17
30
0
11
17
21
17
31
0
1001
CONDUITCAD
1000
{"id":"e-mufzcxcx-46"}
0
LINE
5
28F
330
13F
100
AcDbEntity
8
0
100
AcDbLine
10
-17
20
17
30
0
11
17
21
-17
31
0
1001
CONDUITCAD
1000
{"id":"e-mufzcxcx-47"}
0
ENDBLK
5
290
330
13F
100
AcDbEntity
8
0
100
AcDbBlockEnd
0
BLOCK
5
291
330
140
100
AcDbEntity
8
0
100
AcDbBlockBegin
2
CC_PROCESS
70
0
10
0
20
0
30
0
3
CC_PROCESS
1

1001
CONDUITCAD
1000
{"ports":[{"name":"in","x":0,"y":35,"dx":0,"dy":1},{"name":"out","x":0,"y":-35,"dx":0,"dy":-1},{"name":"left","x":-55,"y":0,"dx":-1,"dy":0},{"name":"right","x":55,"y":0,"dx":1,"dy":0}],"symbol":{"name
1000
":"Process","category":"Flow","labelOffset":55,"geometryRevision":2,"convention":"Flowchart conventions","conformity":"Original master; not standards-certified"}}
0
LWPOLYLINE
5
292
330
140
100
AcDbEntity
8
0
100
AcDbPolyline
90
4
70
1
10
-55
20
-35
10
55
20
-35
10
55
20
35
10
-55
20
35
1001
CONDUITCAD
1000
{"id":"e-mufzcxcx-48"}
0
TEXT
5
293
330
140
100
AcDbEntity
8
0
100
AcDbText
10
0
20
-5
30
0
40
14
1
Process
50
0
41
1
7
STANDARD
72
1
11
0
21
-5
31
0
100
AcDbText
73
0
1001
CONDUITCAD
1000
{"id":"e-mufzcxcx-49"}
0
ENDBLK
5
294
330
140
100
AcDbEntity
8
0
100
AcDbBlockEnd
0
BLOCK
5
295
330
141
100
AcDbEntity
8
0
100
AcDbBlockBegin
2
CC_DECISION
70
0
10
0
20
0
30
0
3
CC_DECISION
1

1001
CONDUITCAD
1000
{"ports":[{"name":"in","x":0,"y":42,"dx":0,"dy":1},{"name":"out","x":0,"y":-42,"dx":0,"dy":-1},{"name":"yes","x":60,"y":0,"dx":1,"dy":0},{"name":"no","x":-60,"y":0,"dx":-1,"dy":0}],"symbol":{"name":"D
1000
ecision","category":"Flow","labelOffset":57,"geometryRevision":2,"convention":"Flowchart conventions","conformity":"Original master; not standards-certified"}}
0
LWPOLYLINE
5
296
330
141
100
AcDbEntity
8
0
100
AcDbPolyline
90
4
70
1
10
0
20
42
10
60
20
0
10
0
20
-42
10
-60
20
0
1001
CONDUITCAD
1000
{"id":"e-mufzcxcx-4a"}
0
TEXT
5
297
330
141
100
AcDbEntity
8
0
100
AcDbText
10
0
20
-5
30
0
40
13
1
Decision
50
0
41
1
7
STANDARD
72
1
11
0
21
-5
31
0
100
AcDbText
73
0
1001
CONDUITCAD
1000
{"id":"e-mufzcxcx-4b"}
0
ENDBLK
5
298
330
141
100
AcDbEntity
8
0
100
AcDbBlockEnd
0
BLOCK
5
299
330
142
100
AcDbEntity
8
0
100
AcDbBlockBegin
2
CC_TERMINATOR
70
0
10
0
20
0
30
0
3
CC_TERMINATOR
1

1001
CONDUITCAD
1000
{"ports":[{"name":"in","x":0,"y":30,"dx":0,"dy":1},{"name":"out","x":0,"y":-30,"dx":0,"dy":-1}],"symbol":{"name":"Start / end","category":"Flow","labelOffset":57,"geometryRevision":2,"convention":"Flo
1000
wchart conventions","conformity":"Original master; not standards-certified"}}
0
LWPOLYLINE
5
29A
330
142
100
AcDbEntity
8
0
100
AcDbPolyline
90
26
70
1
10
-24.999999999999996
20
30
10
-32.76457135307562
20
28.97777478867205
10
-39.99999999999999
20
25.98076211353316
10
-46.21320343559643
20
21.213203435596427
10
-50.98076211353315
20
15.00000000000001
10
-53.97777478867205
20
7.764571353075617
10
-55
20
3.67394039744206e-15
10
-53.97777478867205
20
-7.764571353075611
10
-50.98076211353316
20
-14.999999999999991
10
-46.21320343559643
20
-21.213203435596423
10
-39.999999999999986
20
-25.980762113533164
10
-32.76457135307562
20
-28.97777478867205
10
-25.000000000000007
20
-30
10
25.000000000000004
20
-30
10
32.764571353075624
20
-28.97777478867205
10
40
20
-25.98076211353316
10
46.21320343559643
20
-21.213203435596423
10
50.98076211353316
20
-15
10
53.97777478867205
20
-7.76457135307562
10
55
20
0
10
53.97777478867205
20
7.76457135307562
10
50.98076211353316
20
14.999999999999995
10
46.21320343559643
20
21.213203435596423
10
40
20
25.98076211353316
10
32.76457135307563
20
28.977774788672047
10
25.000000000000004
20
30
1001
CONDUITCAD
1000
{"id":"e-mufzcxcx-4c"}
0
TEXT
5
29B
330
142
100
AcDbEntity
8
0
100
AcDbText
10
0
20
-5
30
0
40
13
1
Start / end
50
0
41
1
7
STANDARD
72
1
11
0
21
-5
31
0
100
AcDbText
73
0
1001
CONDUITCAD
1000
{"id":"e-mufzcxcx-4d"}
0
ENDBLK
5
29C
330
142
100
AcDbEntity
8
0
100
AcDbBlockEnd
0
BLOCK
5
29D
330
143
100
AcDbEntity
8
0
100
AcDbBlockBegin
2
CC_DATA
70
0
10
0
20
0
30
0
3
CC_DATA
1

1001
CONDUITCAD
1000
{"ports":[{"name":"in","x":0,"y":35,"dx":0,"dy":1},{"name":"out","x":0,"y":-35,"dx":0,"dy":-1},{"name":"left","x":-53.5,"y":0,"dx":-1,"dy":0},{"name":"right","x":53.5,"y":0,"dx":1,"dy":0}],"symbol":{"
1000
name":"Data / input","category":"Flow","labelOffset":57,"geometryRevision":2,"convention":"Flowchart conventions","conformity":"Original master; not standards-certified"}}
0
LWPOLYLINE
5
29E
330
143
100
AcDbEntity
8
0
100
AcDbPolyline
90
4
70
1
10
-42
20
-35
10
65
20
-35
10
42
20
35
10
-65
20
35
1001
CONDUITCAD
1000
{"id":"e-mufzcxcx-4e"}
0
TEXT
5
29F
330
143
100
AcDbEntity
8
0
100
AcDbText
10
0
20
-5
30
0
40
14
1
Data
50
0
41
1
7
STANDARD
72
1
11
0
21
-5
31
0
100
AcDbText
73
0
1001
CONDUITCAD
1000
{"id":"e-mufzcxcx-4f"}
0
ENDBLK
5
2A0
330
143
100
AcDbEntity
8
0
100
AcDbBlockEnd
0
BLOCK
5
2A1
330
144
100
AcDbEntity
8
0
100
AcDbBlockBegin
2
CC_DOCUMENT
70
0
10
0
20
0
30
0
3
CC_DOCUMENT
1

1001
CONDUITCAD
1000
{"ports":[{"name":"in","x":0,"y":35,"dx":0,"dy":1},{"name":"out","x":0,"y":-25,"dx":0,"dy":-1},{"name":"left","x":-55,"y":0,"dx":-1,"dy":0},{"name":"right","x":55,"y":0,"dx":1,"dy":0}],"symbol":{"name
1000
":"Document","category":"Flow","labelOffset":57,"geometryRevision":2,"convention":"Flowchart conventions","conformity":"Original master; not standards-certified"}}
0
LWPOLYLINE
5
2A2
330
144
100
AcDbEntity
8
0
100
AcDbPolyline
90
7
70
1
10
-55
20
35
10
55
20
35
10
55
20
-24
10
30
20
-36
10
0
20
-25
10
-30
20
-34
10
-55
20
-24
1001
CONDUITCAD
1000
{"id":"e-mufzcxcx-4g"}
0
TEXT
5
2A3
330
144
100
AcDbEntity
8
0
100
AcDbText
10
0
20
-5
30
0
40
14
1
Document
50
0
41
1
7
STANDARD
72
1
11
0
21
-5
31
0
100
AcDbText
73
0
1001
CONDUITCAD
1000
{"id":"e-mufzcxcx-4h"}
0
ENDBLK
5
2A4
330
144
100
AcDbEntity
8
0
100
AcDbBlockEnd
0
BLOCK
5
2A5
330
145
100
AcDbEntity
8
0
100
AcDbBlockBegin
2
CC_DATABASE
70
0
10
0
20
0
30
0
3
CC_DATABASE
1

1001
CONDUITCAD
1000
{"ports":[{"name":"in","x":0,"y":40,"dx":0,"dy":1},{"name":"out","x":0,"y":-40,"dx":0,"dy":-1},{"name":"left","x":-45,"y":0,"dx":-1,"dy":0},{"name":"right","x":45,"y":0,"dx":1,"dy":0}],"symbol":{"name
1000
":"Database","category":"Flow","labelOffset":57,"geometryRevision":2,"convention":"Flowchart conventions","conformity":"Original master; not standards-certified"}}
0
LINE
5
2A6
330
145
100
AcDbEntity
8
0
100
AcDbLine
10
-45
20
-25
30
0
11
-45
21
25
31
0
1001
CONDUITCAD
1000
{"id":"e-mufzcxcx-4i"}
0
LINE
5
2A7
330
145
100
AcDbEntity
8
0
100
AcDbLine
10
45
20
-25
30
0
11
45
21
25
31
0
1001
CONDUITCAD
1000
{"id":"e-mufzcxcx-4j"}
0
ELLIPSE
5
2A8
330
145
100
AcDbEntity
8
0
100
AcDbEllipse
10
0
20
25
30
0
11
45
21
0
31
0
40
0.3333333333333333
41
0
42
6.283185307179586
1001
CONDUITCAD
1000
{"id":"e-mufzcxcx-4k"}
0
LWPOLYLINE
5
2A9
330
145
100
AcDbEntity
8
0
100
AcDbPolyline
90
31
70
0
10
-45
20
-24.999999999999996
10
-44.7534852915723
20
-26.5679269490148
10
-44.016642033021256
20
-28.118675362266387
10
-42.797543233281914
20
-29.63525491562421
10
-41.10954559391704
20
-31.101049646137003
10
-38.97114317029975
20
-32.49999999999999
10
-36.405764746872634
20
-33.8167787843871
10
-33.44151714648274
20
-35.03695909538287
10
-30.110877286148632
20
-36.14717238216091
10
-26.450336353161298
20
-37.13525491562421
10
-22.50000000000002
20
-37.99038105676658
10
-18.30314893841104
20
-38.70318186463901
10
-13.90576474687264
20
-39.265847744427305
10
-9.356026086799151
20
-39.672214011007085
10
-4.703780847044401
20
-39.917828430524104
10
-8.266365894244634e-15
20
-40
10
4.703780847044384
20
-39.917828430524104
10
9.356026086799174
20
-39.672214011007085
10
13.905764746872626
20
-39.265847744427305
10
18.303148938410988
20
-38.70318186463902
10
22.49999999999997
20
-37.99038105676659
10
26.45033635316128
20
-37.135254915624216
10
30.1108772861486
20
-36.14717238216092
10
33.44151714648272
20
-35.03695909538288
10
36.40576474687263
20
-33.8167787843871
10
38.97114317029975
20
-32.49999999999999
10
41.10954559391704
20
-31.101049646137003
10
42.79754323328191
20
-29.635254915624216
10
44.016642033021256
20
-28.118675362266384
10
44.7534852915723
20
-26.5679269490148
10
45
20
-25.000000000000004
1001
CONDUITCAD
1000
{"id":"e-mufzcxcx-4l"}
0
TEXT
5
2AA
330
145
100
AcDbEntity
8
0
100
AcDbText
10
0
20
-5
30
0
40
13
1
Database
50
0
41
1
7
STANDARD
72
1
11
0
21
-5
31
0
100
AcDbText
73
0
1001
CONDUITCAD
1000
{"id":"e-mufzcxcx-4m"}
0
ENDBLK
5
2AB
330
145
100
AcDbEntity
8
0
100
AcDbBlockEnd
0
BLOCK
5
2AC
330
146
100
AcDbEntity
8
0
100
AcDbBlockBegin
2
CC_SUBPROCESS
70
0
10
0
20
0
30
0
3
CC_SUBPROCESS
1

1001
CONDUITCAD
1000
{"ports":[{"name":"in","x":0,"y":35,"dx":0,"dy":1},{"name":"out","x":0,"y":-35,"dx":0,"dy":-1},{"name":"left","x":-55,"y":0,"dx":-1,"dy":0},{"name":"right","x":55,"y":0,"dx":1,"dy":0}],"symbol":{"name
1000
":"Subprocess","category":"Flow","labelOffset":57,"geometryRevision":2,"convention":"Flowchart conventions","conformity":"Original master; not standards-certified"}}
0
LWPOLYLINE
5
2AD
330
146
100
AcDbEntity
8
0
100
AcDbPolyline
90
4
70
1
10
-55
20
-35
10
55
20
-35
10
55
20
35
10
-55
20
35
1001
CONDUITCAD
1000
{"id":"e-mufzcxcx-4n"}
0
LINE
5
2AE
330
146
100
AcDbEntity
8
0
100
AcDbLine
10
-43
20
-35
30
0
11
-43
21
35
31
0
1001
CONDUITCAD
1000
{"id":"e-mufzcxcx-4o"}
0
LINE
5
2AF
330
146
100
AcDbEntity
8
0
100
AcDbLine
10
43
20
-35
30
0
11
43
21
35
31
0
1001
CONDUITCAD
1000
{"id":"e-mufzcxcx-4p"}
0
TEXT
5
2B0
330
146
100
AcDbEntity
8
0
100
AcDbText
10
0
20
-5
30
0
40
12
1
Subprocess
50
0
41
1
7
STANDARD
72
1
11
0
21
-5
31
0
100
AcDbText
73
0
1001
CONDUITCAD
1000
{"id":"e-mufzcxcx-4q"}
0
ENDBLK
5
2B1
330
146
100
AcDbEntity
8
0
100
AcDbBlockEnd
0
BLOCK
5
2B2
330
147
100
AcDbEntity
8
0
100
AcDbBlockBegin
2
CC_MANUAL
70
0
10
0
20
0
30
0
3
CC_MANUAL
1

1001
CONDUITCAD
1000
{"ports":[{"name":"in","x":0,"y":32,"dx":0,"dy":1},{"name":"out","x":0,"y":-35,"dx":0,"dy":-1},{"name":"left","x":-55,"y":0,"dx":-1,"dy":0},{"name":"right","x":55,"y":0,"dx":1,"dy":0}],"symbol":{"name
1000
":"Manual input","category":"Flow","labelOffset":57,"geometryRevision":2,"convention":"Flowchart conventions","conformity":"Original master; not standards-certified"}}
0
LWPOLYLINE
5
2B3
330
147
100
AcDbEntity
8
0
100
AcDbPolyline
90
4
70
1
10
-55
20
-35
10
55
20
-35
10
55
20
42
10
-55
20
22
1001
CONDUITCAD
1000
{"id":"e-mufzcxcx-4r"}
0
TEXT
5
2B4
330
147
100
AcDbEntity
8
0
100
AcDbText
10
0
20
-5
30
0
40
14
1
Input
50
0
41
1
7
STANDARD
72
1
11
0
21
-5
31
0
100
AcDbText
73
0
1001
CONDUITCAD
1000
{"id":"e-mufzcxcx-4s"}
0
ENDBLK
5
2B5
330
147
100
AcDbEntity
8
0
100
AcDbBlockEnd
0
BLOCK
5
2B6
330
148
100
AcDbEntity
8
0
100
AcDbBlockBegin
2
CC_PREPARATION
70
0
10
0
20
0
30
0
3
CC_PREPARATION
1

1001
CONDUITCAD
1000
{"ports":[{"name":"in","x":0,"y":35,"dx":0,"dy":1},{"name":"out","x":0,"y":-35,"dx":0,"dy":-1},{"name":"left","x":-60,"y":0,"dx":-1,"dy":0},{"name":"right","x":60,"y":0,"dx":1,"dy":0}],"symbol":{"name
1000
":"Preparation","category":"Flow","labelOffset":57,"geometryRevision":2,"convention":"Flowchart conventions","conformity":"Original master; not standards-certified"}}
0
LWPOLYLINE
5
2B7
330
148
100
AcDbEntity
8
0
100
AcDbPolyline
90
6
70
1
10
-40
20
-35
10
40
20
-35
10
60
20
0
10
40
20
35
10
-40
20
35
10
-60
20
0
1001
CONDUITCAD
1000
{"id":"e-mufzcxcx-4t"}
0
TEXT
5
2B8
330
148
100
AcDbEntity
8
0
100
AcDbText
10
0
20
-5
30
0
40
14
1
Prepare
50
0
41
1
7
STANDARD
72
1
11
0
21
-5
31
0
100
AcDbText
73
0
1001
CONDUITCAD
1000
{"id":"e-mufzcxcx-4u"}
0
ENDBLK
5
2B9
330
148
100
AcDbEntity
8
0
100
AcDbBlockEnd
0
BLOCK
5
2BA
330
149
100
AcDbEntity
8
0
100
AcDbBlockBegin
2
CC_DELAY
70
0
10
0
20
0
30
0
3
CC_DELAY
1

1001
CONDUITCAD
1000
{"ports":[{"name":"in","x":0,"y":35,"dx":0,"dy":1},{"name":"out","x":0,"y":-35,"dx":0,"dy":-1},{"name":"left","x":-50,"y":0,"dx":-1,"dy":0},{"name":"right","x":40,"y":0,"dx":1,"dy":0}],"symbol":{"name
1000
":"Delay","category":"Flow","labelOffset":57,"geometryRevision":2,"convention":"Flowchart conventions","conformity":"Original master; not standards-certified"}}
0
LWPOLYLINE
5
2BB
330
149
100
AcDbEntity
8
0
100
AcDbPolyline
90
34
70
1
10
-50
20
-35
10
5
20
-35
10
5.000000000000002
20
-35
10
8.65849621436787
20
-34.80826633788956
10
12.27690917862158
20
-34.23516602568319
10
15.815594803123162
20
-33.28697807033037
10
19.235782507653006
20
-31.97409101749103
10
22.499999999999996
20
-30.310889132455355
10
25.57248383023656
20
-28.31559480312316
10
28.419571222560037
20
-26.010068891708798
10
31.010068891708798
20
-23.419571222560037
10
33.31559480312316
20
-20.57248383023656
10
35.31088913245535
20
-17.5
10
36.974091017491034
20
-14.235782507653012
10
38.28697807033037
20
-10.815594803123158
10
39.2351660256832
20
-7.276909178621571
10
39.80826633788956
20
-3.6584962143678688
10
40
20
-7.771561172376096e-15
10
39.80826633788956
20
3.6584962143678688
10
39.23516602568319
20
7.276909178621579
10
38.28697807033037
20
10.815594803123158
10
36.974091017491034
20
14.235782507653006
10
35.31088913245536
20
17.499999999999993
10
33.31559480312316
20
20.57248383023656
10
31.010068891708805
20
23.41957122256003
10
28.41957122256004
20
26.010068891708794
10
25.57248383023656
20
28.31559480312316
10
22.499999999999996
20
30.310889132455355
10
19.235782507653
20
31.974091017491034
10
15.815594803123162
20
33.28697807033037
10
12.276909178621572
20
34.2351660256832
10
8.658496214367863
20
34.80826633788957
10
5.000000000000018
20
35
10
-50
20
35
1001
CONDUITCAD
1000
{"id":"e-mufzcxcy-4v"}
0
TEXT
5
2BC
330
149
100
AcDbEntity
8
0
100
AcDbText
10
-5
20
-5
30
0
40
14
1
Delay
50
0
41
1
7
STANDARD
72
1
11
-5
21
-5
31
0
100
AcDbText
73
0
1001
CONDUITCAD
1000
{"id":"e-mufzcxcy-4w"}
0
ENDBLK
5
2BD
330
149
100
AcDbEntity
8
0
100
AcDbBlockEnd
0
BLOCK
5
2BE
330
14A
100
AcDbEntity
8
0
100
AcDbBlockBegin
2
CC_JUNCTION
70
0
10
0
20
0
30
0
3
CC_JUNCTION
1

1001
CONDUITCAD
1000
{"ports":[{"name":"in","x":0,"y":16,"dx":0,"dy":1},{"name":"out","x":0,"y":-16,"dx":0,"dy":-1},{"name":"left","x":-16,"y":0,"dx":-1,"dy":0},{"name":"right","x":16,"y":0,"dx":1,"dy":0}],"symbol":{"name
1000
":"Junction","category":"Flow","labelOffset":57,"geometryRevision":2,"convention":"Flowchart conventions","conformity":"Original master; not standards-certified"}}
0
CIRCLE
5
2BF
330
14A
100
AcDbEntity
8
0
100
AcDbCircle
10
0
20
0
30
0
40
16
1001
CONDUITCAD
1000
{"id":"e-mufzcxcy-4x"}
0
ENDBLK
5
2C0
330
14A
100
AcDbEntity
8
0
100
AcDbBlockEnd
0
BLOCK
5
2C1
330
14B
100
AcDbEntity
8
0
100
AcDbBlockBegin
2
CC_NOTE
70
0
10
0
20
0
30
0
3
CC_NOTE
1

1001
CONDUITCAD
1000
{"ports":[{"name":"left","x":-45,"y":0,"dx":-1,"dy":0},{"name":"top","x":0,"y":35,"dx":0,"dy":1},{"name":"bottom","x":0,"y":-35,"dx":0,"dy":-1}],"symbol":{"name":"Annotation","category":"Flow","labelO
1000
ffset":57,"geometryRevision":2,"convention":"Flowchart conventions","conformity":"Original master; not standards-certified"}}
0
LWPOLYLINE
5
2C2
330
14B
100
AcDbEntity
8
0
100
AcDbPolyline
90
4
70
0
10
45
20
35
10
-45
20
35
10
-45
20
-35
10
45
20
-35
1001
CONDUITCAD
1000
{"id":"e-mufzcxcy-4y"}
0
TEXT
5
2C3
330
14B
100
AcDbEntity
8
0
100
AcDbText
10
0
20
-5
30
0
40
14
1
Note
50
0
41
1
7
STANDARD
72
1
11
0
21
-5
31
0
100
AcDbText
73
0
1001
CONDUITCAD
1000
{"id":"e-mufzcxcy-4z"}
0
ENDBLK
5
2C4
330
14B
100
AcDbEntity
8
0
100
AcDbBlockEnd
0
BLOCK
5
2C5
330
14C
100
AcDbEntity
8
0
100
AcDbBlockBegin
2
CC_PRESSURE_PANEL
70
0
10
0
20
0
30
0
3
CC_PRESSURE_PANEL
1

1001
CONDUITCAD
1000
{"ports":[{"name":"sense","x":0,"y":-45,"dx":0,"dy":-1}],"symbol":{"name":"Pressure indicator \u00b7 panel","category":"P&ID","labelOffset":57,"geometryRevision":2,"convention":"Process and instrument
1000
ation drafting conventions","conformity":"Original master; not standards-certified","instrumentLocation":"primary accessible panel"}}
0
CIRCLE
5
2C6
330
14C
100
AcDbEntity
8
0
100
AcDbCircle
10
0
20
0
30
0
40
26
1001
CONDUITCAD
1000
{"id":"e-mufzcxcy-6m"}
0
LINE
5
2C7
330
14C
100
AcDbEntity
8
0
100
AcDbLine
10
-26
20
0
30
0
11
26
21
0
31
0
1001
CONDUITCAD
1000
{"id":"e-mufzcxcy-6n"}
0
TEXT
5
2C8
330
14C
100
AcDbEntity
8
0
100
AcDbText
10
0
20
7
30
0
40
12
1
PI
50
0
41
1
7
STANDARD
72
1
11
0
21
7
31
0
100
AcDbText
73
0
1001
CONDUITCAD
1000
{"id":"e-mufzcxcy-6o"}
0
LINE
5
2C9
330
14C
100
AcDbEntity
8
0
100
AcDbLine
10
0
20
-26
30
0
11
0
21
-45
31
0
1001
CONDUITCAD
1000
{"id":"e-mufzcxcy-6p"}
0
ENDBLK
5
2CA
330
14C
100
AcDbEntity
8
0
100
AcDbBlockEnd
0
BLOCK
5
2CB
330
14D
100
AcDbEntity
8
0
100
AcDbBlockBegin
2
CC_PRESSURE_REAR
70
0
10
0
20
0
30
0
3
CC_PRESSURE_REAR
1

1001
CONDUITCAD
1000
{"ports":[{"name":"sense","x":0,"y":-45,"dx":0,"dy":-1}],"symbol":{"name":"Pressure indicator \u00b7 rear panel","category":"P&ID","labelOffset":57,"geometryRevision":2,"convention":"Process and instr
1000
umentation drafting conventions","conformity":"Original master; not standards-certified","instrumentLocation":"normally inaccessible"}}
0
CIRCLE
5
2CC
330
14D
100
AcDbEntity
8
0
100
AcDbCircle
10
0
20
0
30
0
40
26
1001
CONDUITCAD
1000
{"id":"e-mufzcxcy-6q"}
0
LINE
5
2CD
330
14D
100
AcDbEntity
8
0
6
CC_DASH_4_3
100
AcDbLine
10
-26
20
0
30
0
11
26
21
0
31
0
1001
CONDUITCAD
1000
{"id":"e-mufzcxcy-6r","dash":[4,3]}
0
TEXT
5
2CE
330
14D
100
AcDbEntity
8
0
100
AcDbText
10
0
20
7
30
0
40
12
1
PI
50
0
41
1
7
STANDARD
72
1
11
0
21
7
31
0
100
AcDbText
73
0
1001
CONDUITCAD
1000
{"id":"e-mufzcxcy-6s"}
0
LINE
5
2CF
330
14D
100
AcDbEntity
8
0
100
AcDbLine
10
0
20
-26
30
0
11
0
21
-45
31
0
1001
CONDUITCAD
1000
{"id":"e-mufzcxcy-6t"}
0
ENDBLK
5
2D0
330
14D
100
AcDbEntity
8
0
100
AcDbBlockEnd
0
BLOCK
5
2D1
330
14E
100
AcDbEntity
8
0
100
AcDbBlockBegin
2
CC_CAPACITOR_POLARIZED
70
0
10
0
20
0
30
0
3
CC_CAPACITOR_POLARIZED
1

1001
CONDUITCAD
1000
{"ports":[{"name":"in","x":-45,"y":0,"dx":-1,"dy":0},{"name":"out","x":45,"y":0,"dx":1,"dy":0}],"symbol":{"name":"Capacitor \u00b7 polarized","category":"Electrical","labelOffset":57,"geometryRevision
1000
":2,"convention":"IEC/ANSI functional drafting conventions","conformity":"Original master; not standards-certified"}}
0
LINE
5
2D2
330
14E
100
AcDbEntity
8
0
100
AcDbLine
10
-45
20
0
30
0
11
-7
21
0
31
0
1001
CONDUITCAD
1000
{"id":"e-mufzcxcy-6u"}
0
LINE
5
2D3
330
14E
100
AcDbEntity
8
0
100
AcDbLine
10
0
20
0
30
0
11
45
21
0
31
0
1001
CONDUITCAD
1000
{"id":"e-mufzcxcy-6v"}
0
LINE
5
2D4
330
14E
100
AcDbEntity
8
0
100
AcDbLine
10
-7
20
-25
30
0
11
-7
21
25
31
0
1001
CONDUITCAD
1000
{"id":"e-mufzcxcy-6w"}
0
LWPOLYLINE
5
2D5
330
14E
100
AcDbEntity
8
0
100
AcDbPolyline
90
9
70
0
10
5.40527012867269
20
23.085301562207032
10
3.0640764644613228
20
17.586227216885142
10
1.3693474597205153
20
11.854831223829802
10
0.3434712156607773
20
5.966827796470535
10
0
20
6.368163355566236e-15
10
0.3434712156607773
20
-5.966827796470523
10
1.3693474597205082
20
-11.85483122382979
10
3.0640764644613157
20
-17.586227216885128
10
5.405270128672683
20
-23.08530156220702
1001
CONDUITCAD
1000
{"id":"e-mufzcxcy-6x"}
0
LINE
5
2D6
330
14E
100
AcDbEntity
8
0
100
AcDbLine
10
-28
20
20
30
0
11
-16
21
20
31
0
1001
CONDUITCAD
1000
{"id":"e-mufzcxcy-6y"}
0
LINE
5
2D7
330
14E
100
AcDbEntity
8
0
100
AcDbLine
10
-22
20
14
30
0
11
-22
21
26
31
0
1001
CONDUITCAD
1000
{"id":"e-mufzcxcy-6z"}
0
ENDBLK
5
2D8
330
14E
100
AcDbEntity
8
0
100
AcDbBlockEnd
0
BLOCK
5
2D9
330
14F
100
AcDbEntity
8
0
100
AcDbBlockBegin
2
CC_SIGNAL_GROUND
70
0
10
0
20
0
30
0
3
CC_SIGNAL_GROUND
1

1001
CONDUITCAD
1000
{"ports":[{"name":"terminal","x":0,"y":40,"dx":0,"dy":1}],"symbol":{"name":"Signal reference","category":"Electrical","labelOffset":57,"geometryRevision":2,"convention":"IEC/ANSI functional drafting c
1000
onventions","conformity":"Original master; not standards-certified"}}
0
LINE
5
2DA
330
14F
100
AcDbEntity
8
0
100
AcDbLine
10
0
20
40
30
0
11
0
21
10
31
0
1001
CONDUITCAD
1000
{"id":"e-mufzcxcy-70"}
0
LWPOLYLINE
5
2DB
330
14F
100
AcDbEntity
8
0
100
AcDbPolyline
90
3
70
1
10
-24
20
10
10
24
20
10
10
0
20
-22
1001
CONDUITCAD
1000
{"id":"e-mufzcxcy-71"}
0
ENDBLK
5
2DC
330
14F
100
AcDbEntity
8
0
100
AcDbBlockEnd
0
BLOCK
5
2DD
330
150
100
AcDbEntity
8
0
100
AcDbBlockBegin
2
CC_CHASSIS
70
0
10
0
20
0
30
0
3
CC_CHASSIS
1

1001
CONDUITCAD
1000
{"ports":[{"name":"terminal","x":0,"y":40,"dx":0,"dy":1}],"symbol":{"name":"Chassis connection","category":"Electrical","labelOffset":57,"geometryRevision":2,"convention":"IEC/ANSI functional drafting
1000
 conventions","conformity":"Original master; not standards-certified"}}
0
LINE
5
2DE
330
150
100
AcDbEntity
8
0
100
AcDbLine
10
0
20
40
30
0
11
0
21
8
31
0
1001
CONDUITCAD
1000
{"id":"e-mufzcxcy-72"}
0
LINE
5
2DF
330
150
100
AcDbEntity
8
0
100
AcDbLine
10
-24
20
8
30
0
11
24
21
8
31
0
1001
CONDUITCAD
1000
{"id":"e-mufzcxcy-73"}
0
LINE
5
2E0
330
150
100
AcDbEntity
8
0
100
AcDbLine
10
-24
20
8
30
0
11
-35
21
-8
31
0
1001
CONDUITCAD
1000
{"id":"e-mufzcxcy-74"}
0
LINE
5
2E1
330
150
100
AcDbEntity
8
0
100
AcDbLine
10
0
20
8
30
0
11
-11
21
-8
31
0
1001
CONDUITCAD
1000
{"id":"e-mufzcxcy-75"}
0
LINE
5
2E2
330
150
100
AcDbEntity
8
0
100
AcDbLine
10
24
20
8
30
0
11
13
21
-8
31
0
1001
CONDUITCAD
1000
{"id":"e-mufzcxcy-76"}
0
ENDBLK
5
2E3
330
150
100
AcDbEntity
8
0
100
AcDbBlockEnd
0
BLOCK
5
2E4
330
151
100
AcDbEntity
8
0
100
AcDbBlockBegin
2
CC_CONTACT_NO
70
0
10
0
20
0
30
0
3
CC_CONTACT_NO
1

1001
CONDUITCAD
1000
{"ports":[{"name":"in","x":-45,"y":0,"dx":-1,"dy":0},{"name":"out","x":45,"y":0,"dx":1,"dy":0}],"symbol":{"name":"Contact \u00b7 normally open","category":"Electrical","labelOffset":57,"geometryRevisi
1000
on":2,"convention":"IEC/ANSI functional drafting conventions","conformity":"Original master; not standards-certified"}}
0
LINE
5
2E5
330
151
100
AcDbEntity
8
0
100
AcDbLine
10
-45
20
0
30
0
11
-8
21
0
31
0
1001
CONDUITCAD
1000
{"id":"e-mufzcxcy-77"}
0
LINE
5
2E6
330
151
100
AcDbEntity
8
0
100
AcDbLine
10
8
20
0
30
0
11
45
21
0
31
0
1001
CONDUITCAD
1000
{"id":"e-mufzcxcy-78"}
0
LINE
5
2E7
330
151
100
AcDbEntity
8
0
100
AcDbLine
10
-8
20
-23
30
0
11
-8
21
23
31
0
1001
CONDUITCAD
1000
{"id":"e-mufzcxcy-79"}
0
LINE
5
2E8
330
151
100
AcDbEntity
8
0
100
AcDbLine
10
8
20
-23
30
0
11
8
21
23
31
0
1001
CONDUITCAD
1000
{"id":"e-mufzcxcy-7a"}
0
ENDBLK
5
2E9
330
151
100
AcDbEntity
8
0
100
AcDbBlockEnd
0
BLOCK
5
2EA
330
152
100
AcDbEntity
8
0
100
AcDbBlockBegin
2
CC_CONTACT_NC
70
0
10
0
20
0
30
0
3
CC_CONTACT_NC
1

1001
CONDUITCAD
1000
{"ports":[{"name":"in","x":-45,"y":0,"dx":-1,"dy":0},{"name":"out","x":45,"y":0,"dx":1,"dy":0}],"symbol":{"name":"Contact \u00b7 normally closed","category":"Electrical","labelOffset":57,"geometryRevi
1000
sion":2,"convention":"IEC/ANSI functional drafting conventions","conformity":"Original master; not standards-certified"}}
0
LINE
5
2EB
330
152
100
AcDbEntity
8
0
100
AcDbLine
10
-45
20
0
30
0
11
-8
21
0
31
0
1001
CONDUITCAD
1000
{"id":"e-mufzcxcy-7b"}
0
LINE
5
2EC
330
152
100
AcDbEntity
8
0
100
AcDbLine
10
8
20
0
30
0
11
45
21
0
31
0
1001
CONDUITCAD
1000
{"id":"e-mufzcxcy-7c"}
0
LINE
5
2ED
330
152
100
AcDbEntity
8
0
100
AcDbLine
10
-8
20
-23
30
0
11
-8
21
23
31
0
1001
CONDUITCAD
1000
{"id":"e-mufzcxcy-7d"}
0
LINE
5
2EE
330
152
100
AcDbEntity
8
0
100
AcDbLine
10
8
20
-23
30
0
11
8
21
23
31
0
1001
CONDUITCAD
1000
{"id":"e-mufzcxcy-7e"}
0
LINE
5
2EF
330
152
100
AcDbEntity
8
0
100
AcDbLine
10
-19
20
-28
30
0
11
19
21
28
31
0
1001
CONDUITCAD
1000
{"id":"e-mufzcxcy-7f"}
0
ENDBLK
5
2F0
330
152
100
AcDbEntity
8
0
100
AcDbBlockEnd
0
BLOCK
5
2F1
330
153
100
AcDbEntity
8
0
100
AcDbBlockBegin
2
CC_POTENTIOMETER
70
0
10
0
20
0
30
0
3
CC_POTENTIOMETER
1

1001
CONDUITCAD
1000
{"ports":[{"name":"in","x":-45,"y":0,"dx":-1,"dy":0},{"name":"out","x":45,"y":0,"dx":1,"dy":0},{"name":"wiper","x":0,"y":45,"dx":0,"dy":1}],"symbol":{"name":"Potentiometer","category":"Electrical","la
1000
belOffset":57,"geometryRevision":2,"convention":"IEC/ANSI functional drafting conventions","conformity":"Original master; not standards-certified"}}
0
LINE
5
2F2
330
153
100
AcDbEntity
8
0
100
AcDbLine
10
-45
20
0
30
0
11
-25
21
0
31
0
1001
CONDUITCAD
1000
{"id":"e-mufzcxcw-1"}
0
LINE
5
2F3
330
153
100
AcDbEntity
8
0
100
AcDbLine
10
25
20
0
30
0
11
45
21
0
31
0
1001
CONDUITCAD
1000
{"id":"e-mufzcxcw-2"}
0
LWPOLYLINE
5
2F4
330
153
100
AcDbEntity
8
0
100
AcDbPolyline
90
4
70
1
10
-25
20
-11
10
25
20
-11
10
25
20
11
10
-25
20
11
1001
CONDUITCAD
1000
{"id":"e-mufzcxcy-7g"}
0
LINE
5
2F5
330
153
100
AcDbEntity
8
0
100
AcDbLine
10
0
20
45
30
0
11
0
21
12
31
0
1001
CONDUITCAD
1000
{"id":"e-mufzcxcy-7h"}
0
LWPOLYLINE
5
2F6
330
153
100
AcDbEntity
8
0
100
AcDbPolyline
90
3
70
0
10
-6
20
22
10
0
20
12
10
6
20
22
1001
CONDUITCAD
1000
{"id":"e-mufzcxcy-7i"}
0
ENDBLK
5
2F7
330
153
100
AcDbEntity
8
0
100
AcDbBlockEnd
0
ENDSEC
0
SECTION
2
ENTITIES
0
TEXT
5
2F8
330
112
100
AcDbEntity
8
Annotations
62
7
420
7181971
100
AcDbText
10
40
20
650
30
0
40
12
1
CONDUIT / ENGINEERING WORKSPACE
50
0
41
1
7
STANDARD
100
AcDbText
73
0
1001
CONDUITCAD
1000
{"id":"e-mufzcxde-8m"}
0
TEXT
5
2F9
330
112
100
AcDbEntity
8
Annotations
62
7
420
3165272
100
AcDbText
10
40
20
606
30
0
40
30
1
Motor control circuit
50
0
41
1
7
STANDARD
100
AcDbText
73
0
1001
CONDUITCAD
1000
{"id":"e-mufzcxde-8n"}
0
TEXT
5
2FA
330
112
100
AcDbEntity
8
Annotations
62
7
420
8688280
100
AcDbText
10
40
20
576
30
0
40
12
1
EL-301   ·   ELECTRICAL SCHEMATIC   ·   REV 01
50
0
41
1
7
STANDARD
100
AcDbText
73
0
1001
CONDUITCAD
1000
{"id":"e-mufzcxde-8o"}
0
LINE
5
2FB
330
112
100
AcDbEntity
8
Annotations
62
7
420
13424603
100
AcDbLine
10
40
20
553
30
0
11
1100
21
553
31
0
1001
CONDUITCAD
1000
{"id":"e-mufzcxde-8p","width":1}
0
INSERT
5
2FC
330
112
100
AcDbEntity
8
Electrical
100
AcDbBlockReference
2
CC_BATTERY
10
130
20
350
30
0
41
1
42
1
43
1
50
0
66
1
1001
CONDUITCAD
1000
{"id":"e-mufzcxde-8q","tag":"24 VDC"}
0
ATTRIB
5
2FD
330
112
100
AcDbEntity
8
Electrical
100
AcDbText
10
130
20
293
30
0
40
12
1
24 VDC
50
0
41
1
7
STANDARD
72
1
11
130
21
293
31
0
100
AcDbAttribute
2
TAG
70
0
74
0
0
SEQEND
5
2FE
100
AcDbEntity
8
Electrical
0
INSERT
5
2FF
330
112
100
AcDbEntity
8
Electrical
100
AcDbBlockReference
2
CC_FUSE
10
310
20
350
30
0
41
1
42
1
43
1
50
0
66
1
1001
CONDUITCAD
1000
{"id":"e-mufzcxde-8r","tag":"F1"}
0
ATTRIB
5
300
330
112
100
AcDbEntity
8
Electrical
100
AcDbText
10
310
20
293
30
0
40
12
1
F1
50
0
41
1
7
STANDARD
72
1
11
310
21
293
31
0
100
AcDbAttribute
2
TAG
70
0
74
0
0
SEQEND
5
301
100
AcDbEntity
8
Electrical
0
INSERT
5
302
330
112
100
AcDbEntity
8
Electrical
100
AcDbBlockReference
2
CC_SWITCH
10
490
20
350
30
0
41
1
42
1
43
1
50
0
66
1
1001
CONDUITCAD
1000
{"id":"e-mufzcxde-8s","tag":"S1"}
0
ATTRIB
5
303
330
112
100
AcDbEntity
8
Electrical
100
AcDbText
10
490
20
293
30
0
40
12
1
S1
50
0
41
1
7
STANDARD
72
1
11
490
21
293
31
0
100
AcDbAttribute
2
TAG
70
0
74
0
0
SEQEND
5
304
100
AcDbEntity
8
Electrical
0
INSERT
5
305
330
112
100
AcDbEntity
8
Electrical
100
AcDbBlockReference
2
CC_RELAY
10
700
20
350
30
0
41
1
42
1
43
1
50
0
66
1
1001
CONDUITCAD
1000
{"id":"e-mufzcxde-8t","tag":"K1"}
0
ATTRIB
5
306
330
112
100
AcDbEntity
8
Electrical
100
AcDbText
10
700
20
293
30
0
40
12
1
K1
50
0
41
1
7
STANDARD
72
1
11
700
21
293
31
0
100
AcDbAttribute
2
TAG
70
0
74
0
0
SEQEND
5
307
100
AcDbEntity
8
Electrical
0
INSERT
5
308
330
112
100
AcDbEntity
8
Electrical
100
AcDbBlockReference
2
CC_MOTOR
10
930
20
350
30
0
41
1
42
1
43
1
50
0
66
1
1001
CONDUITCAD
1000
{"id":"e-mufzcxde-8u","tag":"M1"}
0
ATTRIB
5
309
330
112
100
AcDbEntity
8
Electrical
100
AcDbText
10
930
20
293
30
0
40
12
1
M1
50
0
41
1
7
STANDARD
72
1
11
930
21
293
31
0
100
AcDbAttribute
2
TAG
70
0
74
0
0
SEQEND
5
30A
100
AcDbEntity
8
Electrical
0
LWPOLYLINE
5
30B
330
112
100
AcDbEntity
8
Electrical
62
7
420
6912436
100
AcDbPolyline
90
3
70
0
10
175
20
350
10
265
20
350
10
265
20
350
1001
CONDUITCAD
1000
{"id":"e-mufzcxde-8v","connector":{"from":{"entityId":"e-mufzcxde-8q","port":"out"},"to":{"entityId":"e-mufzcxde-8r","port":"in"},"style":"electrical","arrow":"none","waypoints":[],"status":"routed"},
1000
"label":"L+","dash":[],"width":1.5}
0
LWPOLYLINE
5
30C
330
112
100
AcDbEntity
8
Electrical
62
7
420
6912436
100
AcDbPolyline
90
3
70
0
10
355
20
350
10
445
20
350
10
445
20
350
1001
CONDUITCAD
1000
{"id":"e-mufzcxde-8w","connector":{"from":{"entityId":"e-mufzcxde-8r","port":"out"},"to":{"entityId":"e-mufzcxde-8s","port":"in"},"style":"electrical","arrow":"none","waypoints":[],"status":"routed"},
1000
"label":"L+","dash":[],"width":1.5}
0
LWPOLYLINE
5
30D
330
112
100
AcDbEntity
8
Electrical
62
7
420
6912436
100
AcDbPolyline
90
3
70
0
10
535
20
350
10
655
20
350
10
655
20
350
1001
CONDUITCAD
1000
{"id":"e-mufzcxde-8x","connector":{"from":{"entityId":"e-mufzcxde-8s","port":"out"},"to":{"entityId":"e-mufzcxde-8t","port":"in"},"style":"electrical","arrow":"none","waypoints":[],"status":"routed"},
1000
"label":"L+","dash":[],"width":1.5}
0
LWPOLYLINE
5
30E
330
112
100
AcDbEntity
8
Electrical
62
7
420
6912436
100
AcDbPolyline
90
3
70
0
10
745
20
350
10
885
20
350
10
885
20
350
1001
CONDUITCAD
1000
{"id":"e-mufzcxde-8y","connector":{"from":{"entityId":"e-mufzcxde-8t","port":"out"},"to":{"entityId":"e-mufzcxde-8u","port":"in"},"style":"electrical","arrow":"none","waypoints":[],"status":"routed"},
1000
"label":"L+","dash":[],"width":1.5}
0
INSERT
5
30F
330
112
100
AcDbEntity
8
Electrical
100
AcDbBlockReference
2
CC_GROUND
10
930
20
160
30
0
41
1
42
1
43
1
50
0
66
1
1001
CONDUITCAD
1000
{"id":"e-mufzcxde-8z","tag":"PE"}
0
ATTRIB
5
310
330
112
100
AcDbEntity
8
Electrical
100
AcDbText
10
930
20
103
30
0
40
12
1
PE
50
0
41
1
7
STANDARD
72
1
11
930
21
103
31
0
100
AcDbAttribute
2
TAG
70
0
74
0
0
SEQEND
5
311
100
AcDbEntity
8
Electrical
0
LWPOLYLINE
5
312
330
112
100
AcDbEntity
8
Electrical
62
7
420
6912436
100
AcDbPolyline
90
3
70
0
10
930
20
305
10
930
20
305
10
930
20
200
1001
CONDUITCAD
1000
{"id":"e-mufzcxde-90","connector":{"from":{"entityId":"e-mufzcxde-8u","port":"bottom"},"to":{"entityId":"e-mufzcxde-8z","port":"terminal"},"style":"electrical","arrow":"none","waypoints":[],"status":"
1000
routed"},"label":"","dash":[],"width":1.5}
0
INSERT
5
313
330
112
100
AcDbEntity
8
Electrical
100
AcDbBlockReference
2
CC_LAMP
10
700
20
200
30
0
41
1
42
1
43
1
50
0
66
1
1001
CONDUITCAD
1000
{"id":"e-mufzcxde-91","tag":"H1"}
0
ATTRIB
5
314
330
112
100
AcDbEntity
8
Electrical
100
AcDbText
10
700
20
143
30
0
40
12
1
H1
50
0
41
1
7
STANDARD
72
1
11
700
21
143
31
0
100
AcDbAttribute
2
TAG
70
0
74
0
0
SEQEND
5
315
100
AcDbEntity
8
Electrical
0
LWPOLYLINE
5
316
330
112
100
AcDbEntity
8
Electrical
62
7
420
6912436
100
AcDbPolyline
90
4
70
0
10
535
20
350
10
560
20
350
10
560
20
200
10
655
20
200
1001
CONDUITCAD
1000
{"id":"e-mufzcxde-92","connector":{"from":{"entityId":"e-mufzcxde-8s","port":"out"},"to":{"entityId":"e-mufzcxde-91","port":"in"},"style":"electrical","arrow":"none","waypoints":[{"x":560,"y":350},{"x
1000
":560,"y":200}],"status":"routed"},"label":"","dash":[],"width":1.5}
0
LWPOLYLINE
5
317
330
112
100
AcDbEntity
8
Electrical
62
7
420
6912436
100
AcDbPolyline
90
3
70
0
10
745
20
200
10
930
20
200
10
930
20
305
1001
CONDUITCAD
1000
{"id":"e-mufzcxde-93","connector":{"from":{"entityId":"e-mufzcxde-91","port":"out"},"to":{"entityId":"e-mufzcxde-8u","port":"bottom"},"style":"electrical","arrow":"none","waypoints":[{"x":930,"y":200}
1000
],"status":"routed"},"label":"","dash":[],"width":1.5}
0
TEXT
5
318
330
112
100
AcDbEntity
8
Annotations
62
7
420
8688280
100
AcDbText
10
80
20
470
30
0
40
12
1
CONTROL POWER
50
0
41
1
7
STANDARD
100
AcDbText
73
0
1001
CONDUITCAD
1000
{"id":"e-mufzcxde-94"}
0
TEXT
5
319
330
112
100
AcDbEntity
8
Annotations
62
7
420
8688280
100
AcDbText
10
650
20
470
30
0
40
12
1
OUTPUTS & INDICATION
50
0
41
1
7
STANDARD
100
AcDbText
73
0
1001
CONDUITCAD
1000
{"id":"e-mufzcxde-95"}
0
LINE
5
31A
330
112
100
AcDbEntity
8
Annotations
62
7
420
13424603
100
AcDbLine
10
40
20
92
30
0
11
1100
21
92
31
0
1001
CONDUITCAD
1000
{"id":"e-mufzcxde-96","width":1}
0
TEXT
5
31B
330
112
100
AcDbEntity
8
Annotations
62
7
420
8688280
100
AcDbText
10
40
20
60
30
0
40
10
1
SCHEMATIC · NOT FOR CONSTRUCTION
50
0
41
1
7
STANDARD
100
AcDbText
73
0
1001
CONDUITCAD
1000
{"id":"e-mufzcxde-97"}
0
TEXT
5
31C
330
112
100
AcDbEntity
8
Annotations
62
7
420
8688280
100
AcDbText
10
720
20
60
30
0
40
10
1
UNITS: mm     |     MODEL SPACE     |     1 OF 1
50
0
41
1
7
STANDARD
100
AcDbText
73
0
1001
CONDUITCAD
1000
{"id":"e-mufzcxde-98"}
0
ENDSEC
0
EOF
