0
SECTION
2
HEADER
9
$ACADVER
1
AC1024
9
$INSUNITS
70
4
9
$LTSCALE
40
1
9
$MEASUREMENT
70
1
999
CONDUIT:{"parameters":{"grid":"10","pipeWidth":"2","valveSize":"64"},"constraints":[],"metadata":{"author":"","description":"Editable demonstration drawing. Symbols are illustrative, not s
999
CONDUIT:tandards-certified."}}
9
$HANDSEED
5
164
9
$DWGCODEPAGE
3
ANSI_1252
9
$CLAYER
8
0
9
$TILEMODE
70
1
0
ENDSEC
0
SECTION
2
TABLES
0
TABLE
2
LTYPE
5
122
330
0
100
AcDbSymbolTable
70
4
0
LTYPE
5
123
100
AcDbSymbolTableRecord
100
AcDbLinetypeTableRecord
2
CONTINUOUS
70
0
3
Solid line
72
65
73
0
40
0
330
122
0
LTYPE
5
124
100
AcDbSymbolTableRecord
100
AcDbLinetypeTableRecord
2
DASHED
70
0
3
DASHED
72
65
73
2
40
12
49
8
74
0
49
-4
74
0
330
122
0
LTYPE
5
125
100
AcDbSymbolTableRecord
100
AcDbLinetypeTableRecord
2
CENTER
70
0
3
CENTER
72
65
73
4
40
20
49
12
74
0
49
-3
74
0
49
2
74
0
49
-3
74
0
330
122
0
LTYPE
5
126
100
AcDbSymbolTableRecord
100
AcDbLinetypeTableRecord
2
HIDDEN
70
0
3
HIDDEN
72
65
73
2
40
7
49
4
74
0
49
-3
74
0
330
122
0
ENDTAB
0
TABLE
2
LAYER
5
127
330
0
100
AcDbSymbolTable
70
13
0
LAYER
5
128
100
AcDbSymbolTableRecord
100
AcDbLayerTableRecord
2
0
70
0
62
7
420
3426133
6
CONTINUOUS
330
127
0
LAYER
5
129
100
AcDbSymbolTableRecord
100
AcDbLayerTableRecord
2
Equipment
70
0
62
7
420
3495011
6
CONTINUOUS
330
127
0
LAYER
5
12A
100
AcDbSymbolTableRecord
100
AcDbLayerTableRecord
2
Process
70
0
62
7
420
1342583
6
CONTINUOUS
330
127
0
LAYER
5
12B
100
AcDbSymbolTableRecord
100
AcDbLayerTableRecord
2
Instruments
70
0
62
7
420
10187334
6
CONTINUOUS
330
127
0
LAYER
5
12C
100
AcDbSymbolTableRecord
100
AcDbLayerTableRecord
2
Electrical
70
0
62
7
420
6584250
6
CONTINUOUS
330
127
0
LAYER
5
12D
100
AcDbSymbolTableRecord
100
AcDbLayerTableRecord
2
Annotations
70
0
62
7
420
7438474
6
CONTINUOUS
330
127
0
LAYER
5
12E
100
AcDbSymbolTableRecord
100
AcDbLayerTableRecord
2
Hydraulics
70
0
62
7
420
3495011
6
CONTINUOUS
330
127
0
LAYER
5
12F
100
AcDbSymbolTableRecord
100
AcDbLayerTableRecord
2
Pneumatics
70
0
62
7
420
3495011
6
CONTINUOUS
330
127
0
LAYER
5
130
100
AcDbSymbolTableRecord
100
AcDbLayerTableRecord
2
HVAC
70
0
62
7
420
3495011
6
CONTINUOUS
330
127
0
LAYER
5
131
100
AcDbSymbolTableRecord
100
AcDbLayerTableRecord
2
Water
70
0
62
7
420
3495011
6
CONTINUOUS
330
127
0
LAYER
5
132
100
AcDbSymbolTableRecord
100
AcDbLayerTableRecord
2
Automation
70
0
62
7
420
3495011
6
CONTINUOUS
330
127
0
LAYER
5
133
100
AcDbSymbolTableRecord
100
AcDbLayerTableRecord
2
Fire
70
0
62
7
420
3495011
6
CONTINUOUS
330
127
0
LAYER
5
134
100
AcDbSymbolTableRecord
100
AcDbLayerTableRecord
2
Network
70
0
62
7
420
3495011
6
CONTINUOUS
330
127
0
ENDTAB
0
TABLE
2
STYLE
5
135
330
0
100
AcDbSymbolTable
70
1
0
STYLE
5
136
100
AcDbSymbolTableRecord
100
AcDbTextStyleTableRecord
2
STANDARD
70
0
40
0
41
1
50
0
71
0
42
2.5
3
txt
4

330
135
0
ENDTAB
0
TABLE
2
APPID
5
137
330
0
100
AcDbSymbolTable
70
2
0
APPID
5
138
100
AcDbSymbolTableRecord
100
AcDbRegAppTableRecord
2
CONDUITCAD
70
0
330
137
0
APPID
5
15D
100
AcDbSymbolTableRecord
100
AcDbRegAppTableRecord
2
ACAD
70
0
330
137
0
ENDTAB
0
TABLE
2
BLOCK_RECORD
5
139
330
0
100
AcDbSymbolTable
70
6
0
BLOCK_RECORD
5
13A
100
AcDbSymbolTableRecord
100
AcDbBlockTableRecord
2
*Model_Space
340
161
330
139
0
BLOCK_RECORD
5
13B
100
AcDbSymbolTableRecord
100
AcDbBlockTableRecord
2
*Paper_Space
340
162
330
139
0
BLOCK_RECORD
5
13C
100
AcDbSymbolTableRecord
100
AcDbBlockTableRecord
2
CC_TERMINATOR
330
139
0
BLOCK_RECORD
5
13D
100
AcDbSymbolTableRecord
100
AcDbBlockTableRecord
2
CC_PROCESS
330
139
0
BLOCK_RECORD
5
13E
100
AcDbSymbolTableRecord
100
AcDbBlockTableRecord
2
CC_DECISION
330
139
0
BLOCK_RECORD
5
13F
100
AcDbSymbolTableRecord
100
AcDbBlockTableRecord
2
CC_DATABASE
330
139
0
ENDTAB
0
TABLE
2
VPORT
5
158
330
0
100
AcDbSymbolTable
70
0
0
ENDTAB
0
TABLE
2
VIEW
5
159
330
0
100
AcDbSymbolTable
70
0
0
ENDTAB
0
TABLE
2
UCS
5
15A
330
0
100
AcDbSymbolTable
70
0
0
ENDTAB
0
TABLE
2
DIMSTYLE
5
15B
330
0
100
AcDbSymbolTable
70
1
100
AcDbDimStyleTable
71
0
0
DIMSTYLE
105
15C
330
15B
100
AcDbSymbolTableRecord
100
AcDbDimStyleTableRecord
2
STANDARD
70
0
340
136
0
ENDTAB
0
ENDSEC
0
SECTION
2
BLOCKS
0
BLOCK
5
140
330
13A
100
AcDbEntity
8
0
100
AcDbBlockBegin
2
*Model_Space
70
1
10
0
20
0
30
0
3
*Model_Space
1

1001
CONDUITCAD
1000
{"ports":[]}
0
ENDBLK
5
141
330
13A
100
AcDbEntity
8
0
100
AcDbBlockEnd
0
BLOCK
5
142
330
13B
100
AcDbEntity
8
0
100
AcDbBlockBegin
2
*Paper_Space
70
1
10
0
20
0
30
0
3
*Paper_Space
1

1001
CONDUITCAD
1000
{"ports":[]}
0
ENDBLK
5
143
330
13B
100
AcDbEntity
8
0
100
AcDbBlockEnd
0
BLOCK
5
144
330
13C
100
AcDbEntity
8
0
100
AcDbBlockBegin
2
CC_TERMINATOR
70
0
10
0
20
0
30
0
3
CC_TERMINATOR
1

1001
CONDUITCAD
1000
{"ports":[{"name":"in","x":0,"y":30,"dx":0,"dy":1,"medium":"logical","role":"connection"},{"name":"out","x":0,"y":-30,"dx":0,"dy":-1,"medium":"logical","role":"connection"}],"symbol":{"name":"Start / 
1000
end","category":"Flow","labelOffset":52,"geometryRevision":3,"convention":"ISO-5807 family","conformity":"Original master; not standards-certified","standardRefs":["ISO-5807"],"normativeEntry":null,"r
1000
eview":{"level":"geometry-and-convention","dimensionalConformance":"not-verified","note":"Analytic semicircles preserve the capsule at arbitrary drawing scale."},"group":"Components","aliases":["termi
1000
nator"],"defaultLayer":"Process","extents":{"minX":-55,"minY":-30,"maxX":55,"maxY":30}}}
0
LINE
5
114
330
13C
100
AcDbEntity
8
0
62
0
6
CONTINUOUS
100
AcDbLine
10
-25
20
-30
30
0
11
25
21
-30
31
0
1001
CONDUITCAD
1000
{"id":"master-terminator-0"}
0
ARC
5
115
330
13C
100
AcDbEntity
8
0
62
0
6
CONTINUOUS
100
AcDbCircle
10
25
20
0
30
0
40
30
100
AcDbArc
50
-90
51
90
1001
CONDUITCAD
1000
{"id":"master-terminator-1"}
0
LINE
5
116
330
13C
100
AcDbEntity
8
0
62
0
6
CONTINUOUS
100
AcDbLine
10
25
20
30
30
0
11
-25
21
30
31
0
1001
CONDUITCAD
1000
{"id":"master-terminator-2"}
0
ARC
5
117
330
13C
100
AcDbEntity
8
0
62
0
6
CONTINUOUS
100
AcDbCircle
10
-25
20
0
30
0
40
30
100
AcDbArc
50
90
51
270
1001
CONDUITCAD
1000
{"id":"master-terminator-3"}
0
TEXT
5
118
330
13C
100
AcDbEntity
8
0
62
0
6
CONTINUOUS
100
AcDbText
10
0
20
-5
30
0
40
13
1
Start / end
50
0
41
1
7
STANDARD
72
1
11
0
21
-5
31
0
100
AcDbText
73
0
1001
CONDUITCAD
1000
{"id":"master-terminator-4"}
0
ENDBLK
5
145
330
13C
100
AcDbEntity
8
0
100
AcDbBlockEnd
0
BLOCK
5
146
330
13D
100
AcDbEntity
8
0
100
AcDbBlockBegin
2
CC_PROCESS
70
0
10
0
20
0
30
0
3
CC_PROCESS
1

1001
CONDUITCAD
1000
{"ports":[{"name":"in","x":0,"y":35,"dx":0,"dy":1,"medium":"logical","role":"connection"},{"name":"out","x":0,"y":-35,"dx":0,"dy":-1,"medium":"logical","role":"connection"},{"name":"left","x":-55,"y":
1000
0,"dx":-1,"dy":0,"medium":"logical","role":"connection"},{"name":"right","x":55,"y":0,"dx":1,"dy":0,"medium":"logical","role":"connection"}],"symbol":{"name":"Process","category":"Flow","labelOffset":
1000
57,"geometryRevision":3,"convention":"ISO-5807 family","conformity":"Original master; not standards-certified","standardRefs":["ISO-5807"],"normativeEntry":null,"review":{"level":"geometry-and-convent
1000
ion","dimensionalConformance":"not-verified","note":"Reviewed: silhouette, terminal positions, normal state and distinct function retained."},"group":"Components","aliases":["process"],"defaultLayer":
1000
"Process","extents":{"minX":-55,"minY":-35,"maxX":55,"maxY":35}}}
0
LWPOLYLINE
5
119
330
13D
100
AcDbEntity
8
0
62
0
6
CONTINUOUS
100
AcDbPolyline
90
4
70
1
10
-55
20
-35
10
55
20
-35
10
55
20
35
10
-55
20
35
1001
CONDUITCAD
1000
{"id":"master-process-0"}
0
TEXT
5
11A
330
13D
100
AcDbEntity
8
0
62
0
6
CONTINUOUS
100
AcDbText
10
0
20
-5
30
0
40
14
1
Process
50
0
41
1
7
STANDARD
72
1
11
0
21
-5
31
0
100
AcDbText
73
0
1001
CONDUITCAD
1000
{"id":"master-process-1"}
0
ENDBLK
5
147
330
13D
100
AcDbEntity
8
0
100
AcDbBlockEnd
0
BLOCK
5
148
330
13E
100
AcDbEntity
8
0
100
AcDbBlockBegin
2
CC_DECISION
70
0
10
0
20
0
30
0
3
CC_DECISION
1

1001
CONDUITCAD
1000
{"ports":[{"name":"in","x":0,"y":42,"dx":0,"dy":1,"medium":"logical","role":"connection"},{"name":"out","x":0,"y":-42,"dx":0,"dy":-1,"medium":"logical","role":"connection"},{"name":"yes","x":60,"y":0,
1000
"dx":1,"dy":0,"medium":"logical","role":"connection"},{"name":"no","x":-60,"y":0,"dx":-1,"dy":0,"medium":"logical","role":"connection"}],"symbol":{"name":"Decision","category":"Flow","labelOffset":64,
1000
"geometryRevision":3,"convention":"ISO-5807 family","conformity":"Original master; not standards-certified","standardRefs":["ISO-5807"],"normativeEntry":null,"review":{"level":"geometry-and-convention
1000
","dimensionalConformance":"not-verified","note":"Reviewed: silhouette, terminal positions, normal state and distinct function retained."},"group":"Components","aliases":["decision"],"defaultLayer":"P
1000
rocess","extents":{"minX":-60,"minY":-42,"maxX":60,"maxY":42}}}
0
LWPOLYLINE
5
11B
330
13E
100
AcDbEntity
8
0
62
0
6
CONTINUOUS
100
AcDbPolyline
90
4
70
1
10
0
20
42
10
60
20
0
10
0
20
-42
10
-60
20
0
1001
CONDUITCAD
1000
{"id":"master-decision-0"}
0
TEXT
5
11C
330
13E
100
AcDbEntity
8
0
62
0
6
CONTINUOUS
100
AcDbText
10
0
20
-5
30
0
40
13
1
Decision
50
0
41
1
7
STANDARD
72
1
11
0
21
-5
31
0
100
AcDbText
73
0
1001
CONDUITCAD
1000
{"id":"master-decision-1"}
0
ENDBLK
5
149
330
13E
100
AcDbEntity
8
0
100
AcDbBlockEnd
0
BLOCK
5
14A
330
13F
100
AcDbEntity
8
0
100
AcDbBlockBegin
2
CC_DATABASE
70
0
10
0
20
0
30
0
3
CC_DATABASE
1

1001
CONDUITCAD
1000
{"ports":[{"name":"in","x":0,"y":40,"dx":0,"dy":1,"medium":"logical","role":"connection"},{"name":"out","x":0,"y":-40,"dx":0,"dy":-1,"medium":"logical","role":"connection"},{"name":"left","x":-45,"y":
1000
0,"dx":-1,"dy":0,"medium":"logical","role":"connection"},{"name":"right","x":45,"y":0,"dx":1,"dy":0,"medium":"logical","role":"connection"}],"symbol":{"name":"Database","category":"Flow","labelOffset"
1000
:62,"geometryRevision":3,"convention":"ISO-5807 family","conformity":"Original master; not standards-certified","standardRefs":["ISO-5807"],"normativeEntry":null,"review":{"level":"geometry-and-conven
1000
tion","dimensionalConformance":"not-verified","note":"Native elliptical storage cylinder; terminals coincide with silhouette extrema."},"group":"Components","aliases":["database"],"defaultLayer":"Proc
1000
ess","extents":{"minX":-45,"minY":-40,"maxX":45,"maxY":40}}}
0
LINE
5
11D
330
13F
100
AcDbEntity
8
0
62
0
6
CONTINUOUS
100
AcDbLine
10
-45
20
-25
30
0
11
-45
21
25
31
0
1001
CONDUITCAD
1000
{"id":"master-database-0"}
0
LINE
5
11E
330
13F
100
AcDbEntity
8
0
62
0
6
CONTINUOUS
100
AcDbLine
10
45
20
-25
30
0
11
45
21
25
31
0
1001
CONDUITCAD
1000
{"id":"master-database-1"}
0
ELLIPSE
5
11F
330
13F
100
AcDbEntity
8
0
62
0
6
CONTINUOUS
100
AcDbEllipse
10
0
20
25
30
0
11
45
21
0
31
0
40
0.3333333333333333
41
0
42
6.283185307179586
1001
CONDUITCAD
1000
{"id":"master-database-2"}
0
ELLIPSE
5
120
330
13F
100
AcDbEntity
8
0
62
0
6
CONTINUOUS
100
AcDbEllipse
10
0
20
-25
30
0
11
45
21
0
31
0
40
0.3333333333333333
41
3.141592653589793
42
6.283185307179586
1001
CONDUITCAD
1000
{"id":"master-database-3"}
0
TEXT
5
121
330
13F
100
AcDbEntity
8
0
62
0
6
CONTINUOUS
100
AcDbText
10
0
20
-5
30
0
40
13
1
Database
50
0
41
1
7
STANDARD
72
1
11
0
21
-5
31
0
100
AcDbText
73
0
1001
CONDUITCAD
1000
{"id":"master-database-4"}
0
ENDBLK
5
14B
330
13F
100
AcDbEntity
8
0
100
AcDbBlockEnd
0
ENDSEC
0
SECTION
2
ENTITIES
0
TEXT
5
100
330
13A
100
AcDbEntity
8
Annotations
62
7
420
7181971
100
AcDbText
10
40
20
650
30
0
40
12
1
CONDUIT / ENGINEERING WORKSPACE
50
0
41
1
7
STANDARD
100
AcDbText
73
0
1001
CONDUITCAD
1000
{"id":"e-muhairk1-17u"}
0
TEXT
5
101
330
13A
100
AcDbEntity
8
Annotations
62
7
420
3165272
100
AcDbText
10
40
20
606
30
0
40
30
1
Commissioning workflow
50
0
41
1
7
STANDARD
100
AcDbText
73
0
1001
CONDUITCAD
1000
{"id":"e-muhairk1-17v"}
0
TEXT
5
102
330
13A
100
AcDbEntity
8
Annotations
62
7
420
8688280
100
AcDbText
10
40
20
576
30
0
40
12
1
QA-204   ·   PROCESS FLOW   ·   REV 03
50
0
41
1
7
STANDARD
100
AcDbText
73
0
1001
CONDUITCAD
1000
{"id":"e-muhairk1-17w"}
0
LINE
5
103
330
13A
100
AcDbEntity
8
Annotations
62
7
420
13424603
100
AcDbLine
10
40
20
553
30
0
11
1100
21
553
31
0
1001
CONDUITCAD
1000
{"id":"e-muhairk1-17x","width":1}
0
INSERT
5
104
330
13A
100
AcDbEntity
8
Process
100
AcDbBlockReference
2
CC_TERMINATOR
10
160
20
440
30
0
41
1
42
1
43
1
50
0
66
1
1001
CONDUITCAD
1000
{"id":"e-muhairk1-17y","tag":"START"}
0
ATTRIB
5
14C
330
104
100
AcDbEntity
8
Process
100
AcDbText
10
160
20
388
30
0
40
12
1
START
50
0
41
1
7
STANDARD
72
1
11
160
21
388
31
0
100
AcDbAttribute
2
TAG
70
0
74
0
0
SEQEND
5
14D
330
104
100
AcDbEntity
8
Process
0
INSERT
5
105
330
13A
100
AcDbEntity
8
Process
100
AcDbBlockReference
2
CC_PROCESS
10
400
20
440
30
0
41
1
42
1
43
1
50
0
66
1
1001
CONDUITCAD
1000
{"id":"e-muhairk1-17z","tag":"INSPECT"}
0
ATTRIB
5
14E
330
105
100
AcDbEntity
8
Process
100
AcDbText
10
400
20
383
30
0
40
12
1
INSPECT
50
0
41
1
7
STANDARD
72
1
11
400
21
383
31
0
100
AcDbAttribute
2
TAG
70
0
74
0
0
SEQEND
5
14F
330
105
100
AcDbEntity
8
Process
0
INSERT
5
106
330
13A
100
AcDbEntity
8
Process
100
AcDbBlockReference
2
CC_DECISION
10
650
20
440
30
0
41
1
42
1
43
1
50
0
66
1
1001
CONDUITCAD
1000
{"id":"e-muhairk1-180","tag":"PASS?"}
0
ATTRIB
5
150
330
106
100
AcDbEntity
8
Process
100
AcDbText
10
650
20
376
30
0
40
12
1
PASS?
50
0
41
1
7
STANDARD
72
1
11
650
21
376
31
0
100
AcDbAttribute
2
TAG
70
0
74
0
0
SEQEND
5
151
330
106
100
AcDbEntity
8
Process
0
INSERT
5
107
330
13A
100
AcDbEntity
8
Process
100
AcDbBlockReference
2
CC_TERMINATOR
10
965
20
440
30
0
41
1
42
1
43
1
50
0
66
1
1001
CONDUITCAD
1000
{"id":"e-muhairk1-181","tag":"APPROVE"}
0
ATTRIB
5
152
330
107
100
AcDbEntity
8
Process
100
AcDbText
10
965
20
388
30
0
40
12
1
APPROVE
50
0
41
1
7
STANDARD
72
1
11
965
21
388
31
0
100
AcDbAttribute
2
TAG
70
0
74
0
0
SEQEND
5
153
330
107
100
AcDbEntity
8
Process
0
INSERT
5
108
330
13A
100
AcDbEntity
8
Process
100
AcDbBlockReference
2
CC_PROCESS
10
650
20
245
30
0
41
1
42
1
43
1
50
0
66
1
1001
CONDUITCAD
1000
{"id":"e-muhairk1-182","tag":"REWORK"}
0
ATTRIB
5
154
330
108
100
AcDbEntity
8
Process
100
AcDbText
10
650
20
188
30
0
40
12
1
REWORK
50
0
41
1
7
STANDARD
72
1
11
650
21
188
31
0
100
AcDbAttribute
2
TAG
70
0
74
0
0
SEQEND
5
155
330
108
100
AcDbEntity
8
Process
0
INSERT
5
109
330
13A
100
AcDbEntity
8
Process
100
AcDbBlockReference
2
CC_DATABASE
10
965
20
245
30
0
41
1
42
1
43
1
50
0
66
1
1001
CONDUITCAD
1000
{"id":"e-muhairk1-183","tag":"RECORD"}
0
ATTRIB
5
156
330
109
100
AcDbEntity
8
Process
100
AcDbText
10
965
20
183
30
0
40
12
1
RECORD
50
0
41
1
7
STANDARD
72
1
11
965
21
183
31
0
100
AcDbAttribute
2
TAG
70
0
74
0
0
SEQEND
5
157
330
109
100
AcDbEntity
8
Process
0
LWPOLYLINE
5
10A
330
13A
100
AcDbEntity
8
Process
62
7
420
1342583
100
AcDbPolyline
90
5
70
0
10
160
20
410
10
160
20
365
10
400
20
365
10
400
20
475
10
400
20
475
1001
CONDUITCAD
1000
{"id":"e-muhairk1-184","connector":{"from":{"entityId":"e-muhairk1-17y","port":"out"},"to":{"entityId":"e-muhairk1-17z","port":"in"},"style":"process","arrow":"end","waypoints":[{"x":160,"y":365},{"x"
1000
:400,"y":365},{"x":400,"y":475}],"status":"routed"},"label":"","dash":[],"width":2}
0
LWPOLYLINE
5
10B
330
13A
100
AcDbEntity
8
Process
62
7
420
1342583
100
AcDbPolyline
90
3
70
0
10
455
20
440
10
590
20
440
10
590
20
440
1001
CONDUITCAD
1000
{"id":"e-muhairk1-185","connector":{"from":{"entityId":"e-muhairk1-17z","port":"right"},"to":{"entityId":"e-muhairk1-180","port":"no"},"style":"process","arrow":"end","waypoints":[],"status":"routed"}
1000
,"label":"","dash":[],"width":2}
0
LWPOLYLINE
5
10C
330
13A
100
AcDbEntity
8
Process
62
7
420
1342583
100
AcDbPolyline
90
4
70
0
10
710
20
440
10
965
20
440
10
965
20
500
10
965
20
470
1001
CONDUITCAD
1000
{"id":"e-muhairk1-186","connector":{"from":{"entityId":"e-muhairk1-180","port":"yes"},"to":{"entityId":"e-muhairk1-181","port":"in"},"style":"process","arrow":"end","waypoints":[{"x":965,"y":440},{"x"
1000
:965,"y":500}],"status":"routed"},"label":"YES","dash":[],"width":2}
0
LWPOLYLINE
5
10D
330
13A
100
AcDbEntity
8
Process
62
7
420
1342583
100
AcDbPolyline
90
3
70
0
10
650
20
398
10
650
20
398
10
650
20
280
1001
CONDUITCAD
1000
{"id":"e-muhairk1-187","connector":{"from":{"entityId":"e-muhairk1-180","port":"out"},"to":{"entityId":"e-muhairk1-182","port":"in"},"style":"process","arrow":"end","waypoints":[],"status":"routed"},"
1000
label":"NO","dash":[],"width":2}
0
LWPOLYLINE
5
10E
330
13A
100
AcDbEntity
8
Process
62
7
420
1342583
100
AcDbPolyline
90
3
70
0
10
595
20
245
10
400
20
245
10
400
20
405
1001
CONDUITCAD
1000
{"id":"e-muhairk1-188","connector":{"from":{"entityId":"e-muhairk1-182","port":"left"},"to":{"entityId":"e-muhairk1-17z","port":"out"},"style":"process","arrow":"end","waypoints":[{"x":400,"y":245}],"
1000
status":"routed"},"label":"","dash":[],"width":2}
0
LWPOLYLINE
5
10F
330
13A
100
AcDbEntity
8
Process
62
7
420
1342583
100
AcDbPolyline
90
3
70
0
10
965
20
410
10
965
20
410
10
965
20
285
1001
CONDUITCAD
1000
{"id":"e-muhairk1-189","connector":{"from":{"entityId":"e-muhairk1-181","port":"out"},"to":{"entityId":"e-muhairk1-183","port":"in"},"style":"process","arrow":"end","waypoints":[],"status":"routed"},"
1000
label":"","dash":[],"width":2}
0
TEXT
5
110
330
13A
100
AcDbEntity
8
Annotations
62
7
420
8688280
100
AcDbText
10
70
20
165
30
0
40
14
1
Every shape is a DXF block. Connectors stay attached when equipment moves.
50
0
41
1
7
STANDARD
100
AcDbText
73
0
1001
CONDUITCAD
1000
{"id":"e-muhairk1-18a"}
0
LINE
5
111
330
13A
100
AcDbEntity
8
Annotations
62
7
420
13424603
100
AcDbLine
10
40
20
92
30
0
11
1100
21
92
31
0
1001
CONDUITCAD
1000
{"id":"e-muhairk1-18b","width":1}
0
TEXT
5
112
330
13A
100
AcDbEntity
8
Annotations
62
7
420
8688280
100
AcDbText
10
40
20
60
30
0
40
10
1
SCHEMATIC · NOT FOR CONSTRUCTION
50
0
41
1
7
STANDARD
100
AcDbText
73
0
1001
CONDUITCAD
1000
{"id":"e-muhairk1-18c"}
0
TEXT
5
113
330
13A
100
AcDbEntity
8
Annotations
62
7
420
8688280
100
AcDbText
10
720
20
60
30
0
40
10
1
UNITS: mm     |     MODEL SPACE     |     1 OF 1
50
0
41
1
7
STANDARD
100
AcDbText
73
0
1001
CONDUITCAD
1000
{"id":"e-muhairk1-18d"}
0
ENDSEC
0
SECTION
2
OBJECTS
0
DICTIONARY
5
15E
330
0
100
AcDbDictionary
281
1
3
ACAD_LAYOUT
350
15F
3
ACAD_GROUP
350
160
3
CONDUITCAD_METADATA
350
163
0
DICTIONARY
5
15F
330
15E
100
AcDbDictionary
281
1
3
Model
350
161
3
Layout1
350
162
0
DICTIONARY
5
160
330
15E
100
AcDbDictionary
281
1
0
LAYOUT
5
161
330
15F
100
AcDbPlotSettings
1

2

4

6

40
0
41
0
42
0
43
0
44
420
45
297
46
0
47
0
48
0
49
0
140
0
141
0
142
1
143
1
70
0
72
1
73
0
74
5
7

75
16
76
0
77
0
78
300
147
1
148
0
149
0
100
AcDbLayout
1
Model
70
1
71
0
10
0
20
0
11
420
21
297
12
0
22
0
32
0
14
0
24
0
34
0
15
420
25
297
35
0
146
0
13
0
23
0
33
0
16
1
26
0
36
0
17
0
27
1
37
0
76
0
330
13A
0
LAYOUT
5
162
330
15F
100
AcDbPlotSettings
1

2

4

6

40
0
41
0
42
0
43
0
44
420
45
297
46
0
47
0
48
0
49
0
140
0
141
0
142
1
143
1
70
0
72
1
73
0
74
5
7

75
16
76
0
77
0
78
300
147
1
148
0
149
0
100
AcDbLayout
1
Layout1
70
1
71
1
10
0
20
0
11
420
21
297
12
0
22
0
32
0
14
0
24
0
34
0
15
420
25
297
35
0
146
0
13
0
23
0
33
0
16
1
26
0
36
0
17
0
27
1
37
0
76
0
330
13B
0
XRECORD
5
163
330
15E
100
AcDbXrecord
280
1
1
{"parameters":{"grid":"10","pipeWidth":"2","valveSize":"64"},"constraints":[],"metadata":{"author":"","description":"Editable demonstration drawing. Symbols are illustrative, not standards-certified."
1
}}
0
ENDSEC
0
EOF
