0
SECTION
2
HEADER
9
$ACADVER
1
AC1024
9
$INSUNITS
70
4
9
$LTSCALE
40
1
9
$MEASUREMENT
70
1
999
CONDUIT:{"parameters":{"grid":"10","pipeWidth":"2","valveSize":"64"},"constraints":[],"metadata":{"author":"","description":"Editable demonstration drawing. Symbols are illustrative, not s
999
CONDUIT:tandards-certified."}}
9
$HANDSEED
5
1C0
9
$DWGCODEPAGE
3
ANSI_1252
9
$CLAYER
8
0
9
$TILEMODE
70
1
0
ENDSEC
0
SECTION
2
TABLES
0
TABLE
2
LTYPE
5
15C
330
0
100
AcDbSymbolTable
70
5
0
LTYPE
5
15D
100
AcDbSymbolTableRecord
100
AcDbLinetypeTableRecord
2
CONTINUOUS
70
0
3
Solid line
72
65
73
0
40
0
330
15C
0
LTYPE
5
15E
100
AcDbSymbolTableRecord
100
AcDbLinetypeTableRecord
2
DASHED
70
0
3
DASHED
72
65
73
2
40
12
49
8
74
0
49
-4
74
0
330
15C
0
LTYPE
5
15F
100
AcDbSymbolTableRecord
100
AcDbLinetypeTableRecord
2
CENTER
70
0
3
CENTER
72
65
73
4
40
20
49
12
74
0
49
-3
74
0
49
2
74
0
49
-3
74
0
330
15C
0
LTYPE
5
160
100
AcDbSymbolTableRecord
100
AcDbLinetypeTableRecord
2
HIDDEN
70
0
3
HIDDEN
72
65
73
2
40
7
49
4
74
0
49
-3
74
0
330
15C
0
LTYPE
5
161
100
AcDbSymbolTableRecord
100
AcDbLinetypeTableRecord
2
CC_DASH_6_4
70
0
3
CC_DASH_6_4
72
65
73
2
40
10
49
6
74
0
49
-4
74
0
330
15C
0
ENDTAB
0
TABLE
2
LAYER
5
162
330
0
100
AcDbSymbolTable
70
13
0
LAYER
5
163
100
AcDbSymbolTableRecord
100
AcDbLayerTableRecord
2
0
70
0
62
7
420
3426133
6
CONTINUOUS
330
162
0
LAYER
5
164
100
AcDbSymbolTableRecord
100
AcDbLayerTableRecord
2
Equipment
70
0
62
7
420
3495011
6
CONTINUOUS
330
162
0
LAYER
5
165
100
AcDbSymbolTableRecord
100
AcDbLayerTableRecord
2
Process
70
0
62
7
420
1342583
6
CONTINUOUS
330
162
0
LAYER
5
166
100
AcDbSymbolTableRecord
100
AcDbLayerTableRecord
2
Instruments
70
0
62
7
420
10187334
6
CONTINUOUS
330
162
0
LAYER
5
167
100
AcDbSymbolTableRecord
100
AcDbLayerTableRecord
2
Electrical
70
0
62
7
420
6584250
6
CONTINUOUS
330
162
0
LAYER
5
168
100
AcDbSymbolTableRecord
100
AcDbLayerTableRecord
2
Annotations
70
0
62
7
420
7438474
6
CONTINUOUS
330
162
0
LAYER
5
169
100
AcDbSymbolTableRecord
100
AcDbLayerTableRecord
2
Hydraulics
70
0
62
7
420
3495011
6
CONTINUOUS
330
162
0
LAYER
5
16A
100
AcDbSymbolTableRecord
100
AcDbLayerTableRecord
2
Pneumatics
70
0
62
7
420
3495011
6
CONTINUOUS
330
162
0
LAYER
5
16B
100
AcDbSymbolTableRecord
100
AcDbLayerTableRecord
2
HVAC
70
0
62
7
420
3495011
6
CONTINUOUS
330
162
0
LAYER
5
16C
100
AcDbSymbolTableRecord
100
AcDbLayerTableRecord
2
Water
70
0
62
7
420
3495011
6
CONTINUOUS
330
162
0
LAYER
5
16D
100
AcDbSymbolTableRecord
100
AcDbLayerTableRecord
2
Automation
70
0
62
7
420
3495011
6
CONTINUOUS
330
162
0
LAYER
5
16E
100
AcDbSymbolTableRecord
100
AcDbLayerTableRecord
2
Fire
70
0
62
7
420
3495011
6
CONTINUOUS
330
162
0
LAYER
5
16F
100
AcDbSymbolTableRecord
100
AcDbLayerTableRecord
2
Network
70
0
62
7
420
3495011
6
CONTINUOUS
330
162
0
ENDTAB
0
TABLE
2
STYLE
5
170
330
0
100
AcDbSymbolTable
70
1
0
STYLE
5
171
100
AcDbSymbolTableRecord
100
AcDbTextStyleTableRecord
2
STANDARD
70
0
40
0
41
1
50
0
71
0
42
2.5
3
txt
4

330
170
0
ENDTAB
0
TABLE
2
APPID
5
172
330
0
100
AcDbSymbolTable
70
2
0
APPID
5
173
100
AcDbSymbolTableRecord
100
AcDbRegAppTableRecord
2
CONDUITCAD
70
0
330
172
0
APPID
5
1B9
100
AcDbSymbolTableRecord
100
AcDbRegAppTableRecord
2
ACAD
70
0
330
172
0
ENDTAB
0
TABLE
2
BLOCK_RECORD
5
174
330
0
100
AcDbSymbolTable
70
13
0
BLOCK_RECORD
5
175
100
AcDbSymbolTableRecord
100
AcDbBlockTableRecord
2
*Model_Space
340
1BD
330
174
0
BLOCK_RECORD
5
176
100
AcDbSymbolTableRecord
100
AcDbBlockTableRecord
2
*Paper_Space
340
1BE
330
174
0
BLOCK_RECORD
5
177
100
AcDbSymbolTableRecord
100
AcDbBlockTableRecord
2
CC_OFFPAGE
330
174
0
BLOCK_RECORD
5
178
100
AcDbSymbolTableRecord
100
AcDbBlockTableRecord
2
CC_GATE_VALVE
330
174
0
BLOCK_RECORD
5
179
100
AcDbSymbolTableRecord
100
AcDbBlockTableRecord
2
CC_STRAINER
330
174
0
BLOCK_RECORD
5
17A
100
AcDbSymbolTableRecord
100
AcDbBlockTableRecord
2
CC_PUMP
330
174
0
BLOCK_RECORD
5
17B
100
AcDbSymbolTableRecord
100
AcDbBlockTableRecord
2
CC_CHECK_VALVE
330
174
0
BLOCK_RECORD
5
17C
100
AcDbSymbolTableRecord
100
AcDbBlockTableRecord
2
CC_BALL_VALVE
330
174
0
BLOCK_RECORD
5
17D
100
AcDbSymbolTableRecord
100
AcDbBlockTableRecord
2
CC_HEAT_EXCHANGER
330
174
0
BLOCK_RECORD
5
17E
100
AcDbSymbolTableRecord
100
AcDbBlockTableRecord
2
CC_PRESSURE_INDICATOR
330
174
0
BLOCK_RECORD
5
17F
100
AcDbSymbolTableRecord
100
AcDbBlockTableRecord
2
CC_CONTROL_VALVE
330
174
0
BLOCK_RECORD
5
180
100
AcDbSymbolTableRecord
100
AcDbBlockTableRecord
2
CC_FLOW_TRANSMITTER
330
174
0
BLOCK_RECORD
5
181
100
AcDbSymbolTableRecord
100
AcDbBlockTableRecord
2
CC_PROCESS
330
174
0
ENDTAB
0
TABLE
2
VPORT
5
1B4
330
0
100
AcDbSymbolTable
70
0
0
ENDTAB
0
TABLE
2
VIEW
5
1B5
330
0
100
AcDbSymbolTable
70
0
0
ENDTAB
0
TABLE
2
UCS
5
1B6
330
0
100
AcDbSymbolTable
70
0
0
ENDTAB
0
TABLE
2
DIMSTYLE
5
1B7
330
0
100
AcDbSymbolTable
70
1
100
AcDbDimStyleTable
71
0
0
DIMSTYLE
105
1B8
330
1B7
100
AcDbSymbolTableRecord
100
AcDbDimStyleTableRecord
2
STANDARD
70
0
340
171
0
ENDTAB
0
ENDSEC
0
SECTION
2
BLOCKS
0
BLOCK
5
182
330
175
100
AcDbEntity
8
0
100
AcDbBlockBegin
2
*Model_Space
70
1
10
0
20
0
30
0
3
*Model_Space
1

1001
CONDUITCAD
1000
{"ports":[]}
0
ENDBLK
5
183
330
175
100
AcDbEntity
8
0
100
AcDbBlockEnd
0
BLOCK
5
184
330
176
100
AcDbEntity
8
0
100
AcDbBlockBegin
2
*Paper_Space
70
1
10
0
20
0
30
0
3
*Paper_Space
1

1001
CONDUITCAD
1000
{"ports":[]}
0
ENDBLK
5
185
330
176
100
AcDbEntity
8
0
100
AcDbBlockEnd
0
BLOCK
5
186
330
177
100
AcDbEntity
8
0
100
AcDbBlockBegin
2
CC_OFFPAGE
70
0
10
0
20
0
30
0
3
CC_OFFPAGE
1

1001
CONDUITCAD
1000
{"ports":[{"name":"in","x":-45,"y":0,"dx":-1,"dy":0,"medium":"process","role":"connection"},{"name":"out","x":45,"y":0,"dx":1,"dy":0,"medium":"process","role":"connection"}],"symbol":{"name":"Off-page
1000
 connector","category":"P&ID","labelOffset":48,"geometryRevision":3,"convention":"ISO-10628-2 family","conformity":"Original master; not standards-certified","standardRefs":["ISO-10628-2"],"normativeE
1000
ntry":null,"review":{"level":"geometry-and-convention","dimensionalConformance":"not-verified","note":"Reviewed: silhouette, terminal positions, normal state and distinct function retained."},"group":
1000
"Equipment & instruments","aliases":["offpage"],"defaultLayer":"Equipment","extents":{"minX":-45,"minY":-17,"maxX":45,"maxY":17}}}
0
LWPOLYLINE
5
127
330
177
100
AcDbEntity
8
0
62
0
6
CONTINUOUS
100
AcDbPolyline
90
5
70
1
10
-40
20
-17
10
24
20
-17
10
44
20
0
10
24
20
17
10
-40
20
17
1001
CONDUITCAD
1000
{"id":"master-offpage-0"}
0
LINE
5
128
330
177
100
AcDbEntity
8
0
62
0
6
CONTINUOUS
100
AcDbLine
10
-45
20
0
30
0
11
-40
21
0
31
0
1001
CONDUITCAD
1000
{"id":"master-offpage-1"}
0
LINE
5
129
330
177
100
AcDbEntity
8
0
62
0
6
CONTINUOUS
100
AcDbLine
10
44
20
0
30
0
11
45
21
0
31
0
1001
CONDUITCAD
1000
{"id":"master-offpage-2"}
0
TEXT
5
12A
330
177
100
AcDbEntity
8
0
62
0
6
CONTINUOUS
100
AcDbText
10
-4
20
-5
30
0
40
13
1
PW
50
0
41
1
7
STANDARD
72
1
11
-4
21
-5
31
0
100
AcDbText
73
0
1001
CONDUITCAD
1000
{"id":"master-offpage-3"}
0
ENDBLK
5
187
330
177
100
AcDbEntity
8
0
100
AcDbBlockEnd
0
BLOCK
5
188
330
178
100
AcDbEntity
8
0
100
AcDbBlockBegin
2
CC_GATE_VALVE
70
0
10
0
20
0
30
0
3
CC_GATE_VALVE
1

1001
CONDUITCAD
1000
{"ports":[{"name":"in","x":-45,"y":0,"dx":-1,"dy":0,"medium":"process","role":"connection"},{"name":"out","x":45,"y":0,"dx":1,"dy":0,"medium":"process","role":"connection"}],"symbol":{"name":"Gate val
1000
ve","category":"P&ID","labelOffset":48,"geometryRevision":3,"convention":"ISO-10628-2 family","conformity":"Original master; not standards-certified","standardRefs":["ISO-10628-2"],"normativeEntry":nu
1000
ll,"review":{"level":"geometry-and-convention","dimensionalConformance":"not-verified","note":"Two separate non-self-intersecting triangles with exact common apex."},"group":"Valves & actuators","alia
1000
ses":["gate valve"],"defaultLayer":"Equipment","extents":{"minX":-45,"minY":-18,"maxX":45,"maxY":18}}}
0
LINE
5
12B
330
178
100
AcDbEntity
8
0
62
0
6
CONTINUOUS
100
AcDbLine
10
-45
20
0
30
0
11
-25
21
0
31
0
1001
CONDUITCAD
1000
{"id":"master-gate-valve-0"}
0
LINE
5
12C
330
178
100
AcDbEntity
8
0
62
0
6
CONTINUOUS
100
AcDbLine
10
25
20
0
30
0
11
45
21
0
31
0
1001
CONDUITCAD
1000
{"id":"master-gate-valve-1"}
0
LWPOLYLINE
5
12D
330
178
100
AcDbEntity
8
0
62
0
6
CONTINUOUS
100
AcDbPolyline
90
3
70
1
10
-25
20
-18
10
0
20
0
10
-25
20
18
1001
CONDUITCAD
1000
{"id":"master-gate-valve-2"}
0
LWPOLYLINE
5
12E
330
178
100
AcDbEntity
8
0
62
0
6
CONTINUOUS
100
AcDbPolyline
90
3
70
1
10
25
20
-18
10
0
20
0
10
25
20
18
1001
CONDUITCAD
1000
{"id":"master-gate-valve-3"}
0
ENDBLK
5
189
330
178
100
AcDbEntity
8
0
100
AcDbBlockEnd
0
BLOCK
5
18A
330
179
100
AcDbEntity
8
0
100
AcDbBlockBegin
2
CC_STRAINER
70
0
10
0
20
0
30
0
3
CC_STRAINER
1

1001
CONDUITCAD
1000
{"ports":[{"name":"in","x":-45,"y":0,"dx":-1,"dy":0,"medium":"process","role":"connection"},{"name":"out","x":45,"y":0,"dx":1,"dy":0,"medium":"process","role":"connection"}],"symbol":{"name":"Y strain
1000
er","category":"P&ID","labelOffset":59,"geometryRevision":3,"convention":"ISO-10628-2 family","conformity":"Original master; not standards-certified","standardRefs":["ISO-10628-2"],"normativeEntry":nu
1000
ll,"review":{"level":"geometry-and-convention","dimensionalConformance":"not-verified","note":"Reviewed: silhouette, terminal positions, normal state and distinct function retained."},"group":"Equipme
1000
nt & instruments","aliases":["strainer"],"defaultLayer":"Equipment","extents":{"minX":-45,"minY":-37,"maxX":45,"maxY":15}}}
0
LINE
5
12F
330
179
100
AcDbEntity
8
0
62
0
6
CONTINUOUS
100
AcDbLine
10
-45
20
0
30
0
11
-25
21
0
31
0
1001
CONDUITCAD
1000
{"id":"master-strainer-0"}
0
LINE
5
130
330
179
100
AcDbEntity
8
0
62
0
6
CONTINUOUS
100
AcDbLine
10
25
20
0
30
0
11
45
21
0
31
0
1001
CONDUITCAD
1000
{"id":"master-strainer-1"}
0
LWPOLYLINE
5
131
330
179
100
AcDbEntity
8
0
62
0
6
CONTINUOUS
100
AcDbPolyline
90
4
70
1
10
-22
20
-15
10
22
20
-15
10
22
20
15
10
-22
20
15
1001
CONDUITCAD
1000
{"id":"master-strainer-2"}
0
LINE
5
132
330
179
100
AcDbEntity
8
0
62
0
6
CONTINUOUS
100
AcDbLine
10
-17
20
-12
30
0
11
17
21
12
31
0
1001
CONDUITCAD
1000
{"id":"master-strainer-3"}
0
LWPOLYLINE
5
133
330
179
100
AcDbEntity
8
0
62
0
6
CONTINUOUS
100
AcDbPolyline
90
4
70
0
10
-8
20
-15
10
5
20
-37
10
18
20
-30
10
12
20
-15
1001
CONDUITCAD
1000
{"id":"master-strainer-4"}
0
ENDBLK
5
18B
330
179
100
AcDbEntity
8
0
100
AcDbBlockEnd
0
BLOCK
5
18C
330
17A
100
AcDbEntity
8
0
100
AcDbBlockBegin
2
CC_PUMP
70
0
10
0
20
0
30
0
3
CC_PUMP
1

1001
CONDUITCAD
1000
{"ports":[{"name":"in","x":-45,"y":0,"dx":-1,"dy":0,"medium":"process","role":"connection"},{"name":"out","x":45,"y":0,"dx":1,"dy":0,"medium":"process","role":"connection"},{"name":"top","x":0,"y":45,
1000
"dx":0,"dy":1,"medium":"process","role":"connection"},{"name":"bottom","x":0,"y":-45,"dx":0,"dy":-1,"medium":"process","role":"connection"}],"symbol":{"name":"Centrifugal pump","category":"P&ID","labe
1000
lOffset":67,"geometryRevision":3,"convention":"ISO-10628-2 family","conformity":"Original master; not standards-certified","standardRefs":["ISO-10628-2"],"normativeEntry":null,"review":{"level":"geome
1000
try-and-convention","dimensionalConformance":"not-verified","note":"Reviewed: silhouette, terminal positions, normal state and distinct function retained."},"group":"Equipment & instruments","aliases"
1000
:["pump"],"defaultLayer":"Equipment","extents":{"minX":-45,"minY":-45,"maxX":45,"maxY":45}}}
0
LINE
5
134
330
17A
100
AcDbEntity
8
0
62
0
6
CONTINUOUS
100
AcDbLine
10
-45
20
0
30
0
11
-27
21
0
31
0
1001
CONDUITCAD
1000
{"id":"master-pump-0"}
0
LINE
5
135
330
17A
100
AcDbEntity
8
0
62
0
6
CONTINUOUS
100
AcDbLine
10
27
20
0
30
0
11
45
21
0
31
0
1001
CONDUITCAD
1000
{"id":"master-pump-1"}
0
LINE
5
136
330
17A
100
AcDbEntity
8
0
62
0
6
CONTINUOUS
100
AcDbLine
10
0
20
27
30
0
11
0
21
45
31
0
1001
CONDUITCAD
1000
{"id":"master-pump-2"}
0
LINE
5
137
330
17A
100
AcDbEntity
8
0
62
0
6
CONTINUOUS
100
AcDbLine
10
0
20
-27
30
0
11
0
21
-45
31
0
1001
CONDUITCAD
1000
{"id":"master-pump-3"}
0
CIRCLE
5
138
330
17A
100
AcDbEntity
8
0
62
0
6
CONTINUOUS
100
AcDbCircle
10
0
20
0
30
0
40
27
1001
CONDUITCAD
1000
{"id":"master-pump-4"}
0
LWPOLYLINE
5
139
330
17A
100
AcDbEntity
8
0
62
0
6
CONTINUOUS
100
AcDbPolyline
90
3
70
1
10
-15
20
-18
10
23
20
0
10
-15
20
18
1001
CONDUITCAD
1000
{"id":"master-pump-5"}
0
LINE
5
13A
330
17A
100
AcDbEntity
8
0
62
0
6
CONTINUOUS
100
AcDbLine
10
-22
20
-31
30
0
11
22
21
-31
31
0
1001
CONDUITCAD
1000
{"id":"master-pump-6"}
0
ENDBLK
5
18D
330
17A
100
AcDbEntity
8
0
100
AcDbBlockEnd
0
BLOCK
5
18E
330
17B
100
AcDbEntity
8
0
100
AcDbBlockBegin
2
CC_CHECK_VALVE
70
0
10
0
20
0
30
0
3
CC_CHECK_VALVE
1

1001
CONDUITCAD
1000
{"ports":[{"name":"in","x":-45,"y":0,"dx":-1,"dy":0,"medium":"process","role":"connection"},{"name":"out","x":45,"y":0,"dx":1,"dy":0,"medium":"process","role":"connection"},{"name":"top","x":0,"y":18,
1000
"dx":0,"dy":1,"medium":"signal","role":"legacy auxiliary takeoff"}],"symbol":{"name":"Check valve","category":"P&ID","labelOffset":48,"geometryRevision":3,"convention":"ISO-10628-2 family","conformity
1000
":"Original master; not standards-certified","standardRefs":["ISO-10628-2"],"normativeEntry":null,"review":{"level":"geometry-and-convention","dimensionalConformance":"not-verified","note":"Hinged fla
1000
p/seat, not an electrical diode. Legacy takeoff retained and identified."},"group":"Valves & actuators","aliases":["check valve"],"defaultLayer":"Equipment","extents":{"minX":-45,"minY":-20,"maxX":45,
1000
"maxY":22.99300630757162}}}
0
LINE
5
13B
330
17B
100
AcDbEntity
8
0
62
0
6
CONTINUOUS
100
AcDbLine
10
-45
20
0
30
0
11
-24
21
0
31
0
1001
CONDUITCAD
1000
{"id":"master-check-valve-0"}
0
LINE
5
13C
330
17B
100
AcDbEntity
8
0
62
0
6
CONTINUOUS
100
AcDbLine
10
24
20
0
30
0
11
45
21
0
31
0
1001
CONDUITCAD
1000
{"id":"master-check-valve-1"}
0
LINE
5
13D
330
17B
100
AcDbEntity
8
0
62
0
6
CONTINUOUS
100
AcDbLine
10
-24
20
-20
30
0
11
-24
21
20
31
0
1001
CONDUITCAD
1000
{"id":"master-check-valve-2"}
0
LINE
5
13E
330
17B
100
AcDbEntity
8
0
62
0
6
CONTINUOUS
100
AcDbLine
10
-24
20
20
30
0
11
24
21
-16
31
0
1001
CONDUITCAD
1000
{"id":"master-check-valve-3"}
0
CIRCLE
5
13F
330
17B
100
AcDbEntity
8
0
62
0
6
CONTINUOUS
100
AcDbCircle
10
-24
20
20
30
0
40
3
1001
CONDUITCAD
1000
{"id":"master-check-valve-4"}
0
LINE
5
140
330
17B
100
AcDbEntity
8
0
62
0
6
CONTINUOUS
100
AcDbLine
10
0
20
2
30
0
11
0
21
18
31
0
1001
CONDUITCAD
1000
{"id":"master-check-valve-5"}
0
ENDBLK
5
18F
330
17B
100
AcDbEntity
8
0
100
AcDbBlockEnd
0
BLOCK
5
190
330
17C
100
AcDbEntity
8
0
100
AcDbBlockBegin
2
CC_BALL_VALVE
70
0
10
0
20
0
30
0
3
CC_BALL_VALVE
1

1001
CONDUITCAD
1000
{"ports":[{"name":"in","x":-45,"y":0,"dx":-1,"dy":0,"medium":"process","role":"connection"},{"name":"out","x":45,"y":0,"dx":1,"dy":0,"medium":"process","role":"connection"}],"symbol":{"name":"Ball val
1000
ve","category":"P&ID","labelOffset":48,"geometryRevision":3,"convention":"ISO-10628-2 family","conformity":"Original master; not standards-certified","standardRefs":["ISO-10628-2"],"normativeEntry":nu
1000
ll,"review":{"level":"geometry-and-convention","dimensionalConformance":"not-verified","note":"Valve body plus ball element; distinguish from butterfly disc."},"group":"Valves & actuators","aliases":[
1000
"ball valve"],"defaultLayer":"Equipment","extents":{"minX":-45,"minY":-18,"maxX":45,"maxY":18}}}
0
LINE
5
141
330
17C
100
AcDbEntity
8
0
62
0
6
CONTINUOUS
100
AcDbLine
10
-45
20
0
30
0
11
-25
21
0
31
0
1001
CONDUITCAD
1000
{"id":"master-ball-valve-0"}
0
LINE
5
142
330
17C
100
AcDbEntity
8
0
62
0
6
CONTINUOUS
100
AcDbLine
10
25
20
0
30
0
11
45
21
0
31
0
1001
CONDUITCAD
1000
{"id":"master-ball-valve-1"}
0
LWPOLYLINE
5
143
330
17C
100
AcDbEntity
8
0
62
0
6
CONTINUOUS
100
AcDbPolyline
90
3
70
1
10
-25
20
-18
10
0
20
0
10
-25
20
18
1001
CONDUITCAD
1000
{"id":"master-ball-valve-2"}
0
LWPOLYLINE
5
144
330
17C
100
AcDbEntity
8
0
62
0
6
CONTINUOUS
100
AcDbPolyline
90
3
70
1
10
25
20
-18
10
0
20
0
10
25
20
18
1001
CONDUITCAD
1000
{"id":"master-ball-valve-3"}
0
CIRCLE
5
145
330
17C
100
AcDbEntity
8
0
62
0
6
CONTINUOUS
100
AcDbCircle
10
0
20
0
30
0
40
11
1001
CONDUITCAD
1000
{"id":"master-ball-valve-4"}
0
ENDBLK
5
191
330
17C
100
AcDbEntity
8
0
100
AcDbBlockEnd
0
BLOCK
5
192
330
17D
100
AcDbEntity
8
0
100
AcDbBlockBegin
2
CC_HEAT_EXCHANGER
70
0
10
0
20
0
30
0
3
CC_HEAT_EXCHANGER
1

1001
CONDUITCAD
1000
{"ports":[{"name":"in","x":-45,"y":0,"dx":-1,"dy":0,"medium":"process","role":"connection"},{"name":"out","x":45,"y":0,"dx":1,"dy":0,"medium":"process","role":"connection"},{"name":"top","x":0,"y":45,
1000
"dx":0,"dy":1,"medium":"process","role":"connection"},{"name":"bottom","x":0,"y":-45,"dx":0,"dy":-1,"medium":"process","role":"connection"}],"symbol":{"name":"Heat exchanger","category":"P&ID","labelO
1000
ffset":67,"geometryRevision":3,"convention":"ISO-10628-2 family","conformity":"Original master; not standards-certified","standardRefs":["ISO-10628-2"],"normativeEntry":null,"review":{"level":"geometr
1000
y-and-convention","dimensionalConformance":"not-verified","note":"Reviewed: silhouette, terminal positions, normal state and distinct function retained."},"group":"Equipment & instruments","aliases":[
1000
"heat exchanger"],"defaultLayer":"Equipment","extents":{"minX":-45,"minY":-45,"maxX":45,"maxY":45}}}
0
LINE
5
146
330
17D
100
AcDbEntity
8
0
62
0
6
CONTINUOUS
100
AcDbLine
10
-45
20
0
30
0
11
-33
21
0
31
0
1001
CONDUITCAD
1000
{"id":"master-heat-exchanger-0"}
0
LINE
5
147
330
17D
100
AcDbEntity
8
0
62
0
6
CONTINUOUS
100
AcDbLine
10
33
20
0
30
0
11
45
21
0
31
0
1001
CONDUITCAD
1000
{"id":"master-heat-exchanger-1"}
0
CIRCLE
5
148
330
17D
100
AcDbEntity
8
0
62
0
6
CONTINUOUS
100
AcDbCircle
10
0
20
0
30
0
40
33
1001
CONDUITCAD
1000
{"id":"master-heat-exchanger-2"}
0
LWPOLYLINE
5
149
330
17D
100
AcDbEntity
8
0
62
0
6
CONTINUOUS
100
AcDbPolyline
90
6
70
0
10
-32
20
0
10
-17
20
15
10
-5
20
-15
10
8
20
15
10
21
20
-15
10
33
20
0
1001
CONDUITCAD
1000
{"id":"master-heat-exchanger-3"}
0
LINE
5
14A
330
17D
100
AcDbEntity
8
0
62
0
6
CONTINUOUS
100
AcDbLine
10
0
20
33
30
0
11
0
21
45
31
0
1001
CONDUITCAD
1000
{"id":"master-heat-exchanger-4"}
0
LINE
5
14B
330
17D
100
AcDbEntity
8
0
62
0
6
CONTINUOUS
100
AcDbLine
10
0
20
-33
30
0
11
0
21
-45
31
0
1001
CONDUITCAD
1000
{"id":"master-heat-exchanger-5"}
0
ENDBLK
5
193
330
17D
100
AcDbEntity
8
0
100
AcDbBlockEnd
0
BLOCK
5
194
330
17E
100
AcDbEntity
8
0
100
AcDbBlockBegin
2
CC_PRESSURE_INDICATOR
70
0
10
0
20
0
30
0
3
CC_PRESSURE_INDICATOR
1

1001
CONDUITCAD
1000
{"ports":[{"name":"sense","x":0,"y":-45,"dx":0,"dy":-1,"medium":"signal","role":"connection"}],"symbol":{"name":"Pressure indicator","category":"P&ID","labelOffset":67,"geometryRevision":3,"convention
1000
":"ISA-5.1 family","conformity":"Original master; not standards-certified","standardRefs":["ISA-5.1"],"group":"Field & panel instruments","normativeEntry":null,"review":{"level":"geometry-and-conventi
1000
on","dimensionalConformance":"not-verified","note":"Reviewed: silhouette, terminal positions, normal state and distinct function retained."},"aliases":["pressure indicator"],"defaultLayer":"Equipment"
1000
,"extents":{"minX":-26,"minY":-45,"maxX":26,"maxY":25.970550818758205}}}
0
CIRCLE
5
14C
330
17E
100
AcDbEntity
8
0
62
0
6
CONTINUOUS
100
AcDbCircle
10
0
20
0
30
0
40
26
1001
CONDUITCAD
1000
{"id":"master-pressure-indicator-0"}
0
TEXT
5
14D
330
17E
100
AcDbEntity
8
0
62
0
6
CONTINUOUS
100
AcDbText
10
0
20
-5
30
0
40
15
1
PI
50
0
41
1
7
STANDARD
72
1
11
0
21
-5
31
0
100
AcDbText
73
0
1001
CONDUITCAD
1000
{"id":"master-pressure-indicator-1"}
0
LINE
5
14E
330
17E
100
AcDbEntity
8
0
62
0
6
CONTINUOUS
100
AcDbLine
10
0
20
-26
30
0
11
0
21
-45
31
0
1001
CONDUITCAD
1000
{"id":"master-pressure-indicator-2"}
0
ENDBLK
5
195
330
17E
100
AcDbEntity
8
0
100
AcDbBlockEnd
0
BLOCK
5
196
330
17F
100
AcDbEntity
8
0
100
AcDbBlockBegin
2
CC_CONTROL_VALVE
70
0
10
0
20
0
30
0
3
CC_CONTROL_VALVE
1

1001
CONDUITCAD
1000
{"ports":[{"name":"in","x":-45,"y":0,"dx":-1,"dy":0,"medium":"process","role":"connection"},{"name":"out","x":45,"y":0,"dx":1,"dy":0,"medium":"process","role":"connection"},{"name":"signal","x":0,"y":
1000
50,"dx":0,"dy":1,"medium":"signal","role":"connection"}],"symbol":{"name":"Control valve","category":"P&ID","labelOffset":48,"geometryRevision":3,"convention":"ISO-10628-2 family","conformity":"Origin
1000
al master; not standards-certified","standardRefs":["ISO-10628-2"],"normativeEntry":null,"review":{"level":"geometry-and-convention","dimensionalConformance":"not-verified","note":"Native elliptical d
1000
iaphragm cap and a connected signal terminal."},"group":"Valves & actuators","aliases":["control valve"],"defaultLayer":"Equipment","extents":{"minX":-45,"minY":-18,"maxX":45,"maxY":50}}}
0
LINE
5
14F
330
17F
100
AcDbEntity
8
0
62
0
6
CONTINUOUS
100
AcDbLine
10
-45
20
0
30
0
11
-25
21
0
31
0
1001
CONDUITCAD
1000
{"id":"master-control-valve-0"}
0
LINE
5
150
330
17F
100
AcDbEntity
8
0
62
0
6
CONTINUOUS
100
AcDbLine
10
25
20
0
30
0
11
45
21
0
31
0
1001
CONDUITCAD
1000
{"id":"master-control-valve-1"}
0
LWPOLYLINE
5
151
330
17F
100
AcDbEntity
8
0
62
0
6
CONTINUOUS
100
AcDbPolyline
90
3
70
1
10
-25
20
-18
10
0
20
0
10
-25
20
18
1001
CONDUITCAD
1000
{"id":"master-control-valve-2"}
0
LWPOLYLINE
5
152
330
17F
100
AcDbEntity
8
0
62
0
6
CONTINUOUS
100
AcDbPolyline
90
3
70
1
10
25
20
-18
10
0
20
0
10
25
20
18
1001
CONDUITCAD
1000
{"id":"master-control-valve-3"}
0
LINE
5
153
330
17F
100
AcDbEntity
8
0
62
0
6
CONTINUOUS
100
AcDbLine
10
0
20
0
30
0
11
0
21
30
31
0
1001
CONDUITCAD
1000
{"id":"master-control-valve-4"}
0
LINE
5
154
330
17F
100
AcDbEntity
8
0
62
0
6
CONTINUOUS
100
AcDbLine
10
-20
20
30
30
0
11
20
21
30
31
0
1001
CONDUITCAD
1000
{"id":"master-control-valve-5"}
0
ELLIPSE
5
155
330
17F
100
AcDbEntity
8
0
62
0
6
CONTINUOUS
100
AcDbEllipse
10
0
20
30
30
0
11
20
21
0
31
0
40
0.7
41
0
42
3.141592653589793
1001
CONDUITCAD
1000
{"id":"master-control-valve-6"}
0
LINE
5
156
330
17F
100
AcDbEntity
8
0
62
0
6
CONTINUOUS
100
AcDbLine
10
0
20
44
30
0
11
0
21
50
31
0
1001
CONDUITCAD
1000
{"id":"master-control-valve-7"}
0
ENDBLK
5
197
330
17F
100
AcDbEntity
8
0
100
AcDbBlockEnd
0
BLOCK
5
198
330
180
100
AcDbEntity
8
0
100
AcDbBlockBegin
2
CC_FLOW_TRANSMITTER
70
0
10
0
20
0
30
0
3
CC_FLOW_TRANSMITTER
1

1001
CONDUITCAD
1000
{"ports":[{"name":"sense","x":0,"y":-45,"dx":0,"dy":-1,"medium":"signal","role":"connection"}],"symbol":{"name":"Flow transmitter","category":"P&ID","labelOffset":67,"geometryRevision":3,"convention":
1000
"ISA-5.1 family","conformity":"Original master; not standards-certified","standardRefs":["ISA-5.1"],"group":"Field & panel instruments","normativeEntry":null,"review":{"level":"geometry-and-convention
1000
","dimensionalConformance":"not-verified","note":"Reviewed: silhouette, terminal positions, normal state and distinct function retained."},"aliases":["flow transmitter"],"defaultLayer":"Equipment","ex
1000
tents":{"minX":-26,"minY":-45,"maxX":26,"maxY":25.970550818758205}}}
0
CIRCLE
5
157
330
180
100
AcDbEntity
8
0
62
0
6
CONTINUOUS
100
AcDbCircle
10
0
20
0
30
0
40
26
1001
CONDUITCAD
1000
{"id":"master-flow-transmitter-0"}
0
TEXT
5
158
330
180
100
AcDbEntity
8
0
62
0
6
CONTINUOUS
100
AcDbText
10
0
20
-5
30
0
40
15
1
FT
50
0
41
1
7
STANDARD
72
1
11
0
21
-5
31
0
100
AcDbText
73
0
1001
CONDUITCAD
1000
{"id":"master-flow-transmitter-1"}
0
LINE
5
159
330
180
100
AcDbEntity
8
0
62
0
6
CONTINUOUS
100
AcDbLine
10
0
20
-26
30
0
11
0
21
-45
31
0
1001
CONDUITCAD
1000
{"id":"master-flow-transmitter-2"}
0
ENDBLK
5
199
330
180
100
AcDbEntity
8
0
100
AcDbBlockEnd
0
BLOCK
5
19A
330
181
100
AcDbEntity
8
0
100
AcDbBlockBegin
2
CC_PROCESS
70
0
10
0
20
0
30
0
3
CC_PROCESS
1

1001
CONDUITCAD
1000
{"ports":[{"name":"in","x":0,"y":35,"dx":0,"dy":1,"medium":"logical","role":"connection"},{"name":"out","x":0,"y":-35,"dx":0,"dy":-1,"medium":"logical","role":"connection"},{"name":"left","x":-55,"y":
1000
0,"dx":-1,"dy":0,"medium":"logical","role":"connection"},{"name":"right","x":55,"y":0,"dx":1,"dy":0,"medium":"logical","role":"connection"}],"symbol":{"name":"Process","category":"Flow","labelOffset":
1000
57,"geometryRevision":3,"convention":"ISO-5807 family","conformity":"Original master; not standards-certified","standardRefs":["ISO-5807"],"normativeEntry":null,"review":{"level":"geometry-and-convent
1000
ion","dimensionalConformance":"not-verified","note":"Reviewed: silhouette, terminal positions, normal state and distinct function retained."},"group":"Components","aliases":["process"],"defaultLayer":
1000
"Process","extents":{"minX":-55,"minY":-35,"maxX":55,"maxY":35}}}
0
LWPOLYLINE
5
15A
330
181
100
AcDbEntity
8
0
62
0
6
CONTINUOUS
100
AcDbPolyline
90
4
70
1
10
-55
20
-35
10
55
20
-35
10
55
20
35
10
-55
20
35
1001
CONDUITCAD
1000
{"id":"master-process-0"}
0
TEXT
5
15B
330
181
100
AcDbEntity
8
0
62
0
6
CONTINUOUS
100
AcDbText
10
0
20
-5
30
0
40
14
1
Process
50
0
41
1
7
STANDARD
72
1
11
0
21
-5
31
0
100
AcDbText
73
0
1001
CONDUITCAD
1000
{"id":"master-process-1"}
0
ENDBLK
5
19B
330
181
100
AcDbEntity
8
0
100
AcDbBlockEnd
0
ENDSEC
0
SECTION
2
ENTITIES
0
TEXT
5
100
330
175
100
AcDbEntity
8
Annotations
62
7
420
7181971
100
AcDbText
10
40
20
650
30
0
40
12
1
CONDUIT / ENGINEERING WORKSPACE
50
0
41
1
7
STANDARD
100
AcDbText
73
0
1001
CONDUITCAD
1000
{"id":"e-muhyo467-164"}
0
TEXT
5
101
330
175
100
AcDbEntity
8
Annotations
62
7
420
3165272
100
AcDbText
10
40
20
606
30
0
40
30
1
Process water skid
50
0
41
1
7
STANDARD
100
AcDbText
73
0
1001
CONDUITCAD
1000
{"id":"e-muhyo467-165"}
0
TEXT
5
102
330
175
100
AcDbEntity
8
Annotations
62
7
420
8688280
100
AcDbText
10
40
20
576
30
0
40
12
1
PW-101   ·   PIPING & INSTRUMENTATION   ·   REV 03
50
0
41
1
7
STANDARD
100
AcDbText
73
0
1001
CONDUITCAD
1000
{"id":"e-muhyo467-166"}
0
LINE
5
103
330
175
100
AcDbEntity
8
Annotations
62
7
420
13424603
100
AcDbLine
10
40
20
553
30
0
11
1100
21
553
31
0
1001
CONDUITCAD
1000
{"id":"e-muhyo467-167","width":1}
0
TEXT
5
104
330
175
100
AcDbEntity
8
Annotations
62
7
420
8688280
100
AcDbText
10
40
20
520
30
0
40
11
1
01  /  INTAKE
50
0
41
1
7
STANDARD
100
AcDbText
73
0
1001
CONDUITCAD
1000
{"id":"e-muhyo467-168"}
0
TEXT
5
105
330
175
100
AcDbEntity
8
Annotations
62
7
420
8688280
100
AcDbText
10
415
20
520
30
0
40
11
1
02  /  PRESSURIZATION
50
0
41
1
7
STANDARD
100
AcDbText
73
0
1001
CONDUITCAD
1000
{"id":"e-muhyo467-169"}
0
TEXT
5
106
330
175
100
AcDbEntity
8
Annotations
62
7
420
8688280
100
AcDbText
10
795
20
520
30
0
40
11
1
03  /  CONDITIONING
50
0
41
1
7
STANDARD
100
AcDbText
73
0
1001
CONDUITCAD
1000
{"id":"e-muhyo468-16a"}
0
INSERT
5
107
330
175
100
AcDbEntity
8
Equipment
100
AcDbBlockReference
2
CC_OFFPAGE
10
85
20
330
30
0
41
1
42
1
43
1
50
0
66
1
1001
CONDUITCAD
1000
{"id":"e-muhyo468-16b","tag":"SUPPLY"}
0
ATTRIB
5
19C
330
107
100
AcDbEntity
8
Equipment
100
AcDbText
10
85
20
282
30
0
40
12
1
SUPPLY
50
0
41
1
7
STANDARD
72
1
11
85
21
282
31
0
100
AcDbAttribute
2
TAG
70
0
74
0
0
SEQEND
5
19D
330
107
100
AcDbEntity
8
Equipment
0
INSERT
5
108
330
175
100
AcDbEntity
8
Equipment
100
AcDbBlockReference
2
CC_GATE_VALVE
10
210
20
330
30
0
41
1
42
1
43
1
50
0
66
1
1001
CONDUITCAD
1000
{"id":"e-muhyo468-16c","tag":"HV-101"}
0
ATTRIB
5
19E
330
108
100
AcDbEntity
8
Equipment
100
AcDbText
10
210
20
282
30
0
40
12
1
HV-101
50
0
41
1
7
STANDARD
72
1
11
210
21
282
31
0
100
AcDbAttribute
2
TAG
70
0
74
0
0
SEQEND
5
19F
330
108
100
AcDbEntity
8
Equipment
0
INSERT
5
109
330
175
100
AcDbEntity
8
Equipment
100
AcDbBlockReference
2
CC_STRAINER
10
340
20
330
30
0
41
1
42
1
43
1
50
0
66
1
1001
CONDUITCAD
1000
{"id":"e-muhyo468-16d","tag":"ST-101"}
0
ATTRIB
5
1A0
330
109
100
AcDbEntity
8
Equipment
100
AcDbText
10
340
20
271
30
0
40
12
1
ST-101
50
0
41
1
7
STANDARD
72
1
11
340
21
271
31
0
100
AcDbAttribute
2
TAG
70
0
74
0
0
SEQEND
5
1A1
330
109
100
AcDbEntity
8
Equipment
0
INSERT
5
10A
330
175
100
AcDbEntity
8
Equipment
100
AcDbBlockReference
2
CC_PUMP
10
485
20
330
30
0
41
1
42
1
43
1
50
0
66
1
1001
CONDUITCAD
1000
{"id":"e-muhyo468-16e","tag":"P-101"}
0
ATTRIB
5
1A2
330
10A
100
AcDbEntity
8
Equipment
100
AcDbText
10
485
20
263
30
0
40
12
1
P-101
50
0
41
1
7
STANDARD
72
1
11
485
21
263
31
0
100
AcDbAttribute
2
TAG
70
0
74
0
0
SEQEND
5
1A3
330
10A
100
AcDbEntity
8
Equipment
0
INSERT
5
10B
330
175
100
AcDbEntity
8
Equipment
100
AcDbBlockReference
2
CC_CHECK_VALVE
10
625
20
330
30
0
41
1
42
1
43
1
50
0
66
1
1001
CONDUITCAD
1000
{"id":"e-muhyo468-16f","tag":"NRV-101"}
0
ATTRIB
5
1A4
330
10B
100
AcDbEntity
8
Equipment
100
AcDbText
10
625
20
282
30
0
40
12
1
NRV-101
50
0
41
1
7
STANDARD
72
1
11
625
21
282
31
0
100
AcDbAttribute
2
TAG
70
0
74
0
0
SEQEND
5
1A5
330
10B
100
AcDbEntity
8
Equipment
0
INSERT
5
10C
330
175
100
AcDbEntity
8
Equipment
100
AcDbBlockReference
2
CC_BALL_VALVE
10
755
20
330
30
0
41
1
42
1
43
1
50
0
66
1
1001
CONDUITCAD
1000
{"id":"e-muhyo468-16g","tag":"HV-102"}
0
ATTRIB
5
1A6
330
10C
100
AcDbEntity
8
Equipment
100
AcDbText
10
755
20
282
30
0
40
12
1
HV-102
50
0
41
1
7
STANDARD
72
1
11
755
21
282
31
0
100
AcDbAttribute
2
TAG
70
0
74
0
0
SEQEND
5
1A7
330
10C
100
AcDbEntity
8
Equipment
0
INSERT
5
10D
330
175
100
AcDbEntity
8
Equipment
100
AcDbBlockReference
2
CC_HEAT_EXCHANGER
10
905
20
330
30
0
41
1
42
1
43
1
50
0
66
1
1001
CONDUITCAD
1000
{"id":"e-muhyo468-16h","tag":"E-101"}
0
ATTRIB
5
1A8
330
10D
100
AcDbEntity
8
Equipment
100
AcDbText
10
905
20
263
30
0
40
12
1
E-101
50
0
41
1
7
STANDARD
72
1
11
905
21
263
31
0
100
AcDbAttribute
2
TAG
70
0
74
0
0
SEQEND
5
1A9
330
10D
100
AcDbEntity
8
Equipment
0
INSERT
5
10E
330
175
100
AcDbEntity
8
Equipment
100
AcDbBlockReference
2
CC_OFFPAGE
10
1055
20
330
30
0
41
1
42
1
43
1
50
0
66
1
1001
CONDUITCAD
1000
{"id":"e-muhyo468-16i","tag":"RETURN"}
0
ATTRIB
5
1AA
330
10E
100
AcDbEntity
8
Equipment
100
AcDbText
10
1055
20
282
30
0
40
12
1
RETURN
50
0
41
1
7
STANDARD
72
1
11
1055
21
282
31
0
100
AcDbAttribute
2
TAG
70
0
74
0
0
SEQEND
5
1AB
330
10E
100
AcDbEntity
8
Equipment
0
LWPOLYLINE
5
10F
330
175
100
AcDbEntity
8
Process
62
7
420
1342583
100
AcDbPolyline
90
3
70
0
10
130
20
330
10
165
20
330
10
165
20
330
1001
CONDUITCAD
1000
{"id":"e-muhyo468-16j","connector":{"from":{"entityId":"e-muhyo468-16b","port":"out"},"to":{"entityId":"e-muhyo468-16c","port":"in"},"style":"process","arrow":"end","waypoints":[],"status":"routed"},"
1000
label":"DN 50","dash":[],"width":2}
0
LWPOLYLINE
5
110
330
175
100
AcDbEntity
8
Process
62
7
420
1342583
100
AcDbPolyline
90
3
70
0
10
255
20
330
10
295
20
330
10
295
20
330
1001
CONDUITCAD
1000
{"id":"e-muhyo468-16k","connector":{"from":{"entityId":"e-muhyo468-16c","port":"out"},"to":{"entityId":"e-muhyo468-16d","port":"in"},"style":"process","arrow":"end","waypoints":[],"status":"routed"},"
1000
label":"","dash":[],"width":2}
0
LWPOLYLINE
5
111
330
175
100
AcDbEntity
8
Process
62
7
420
1342583
100
AcDbPolyline
90
3
70
0
10
385
20
330
10
440
20
330
10
440
20
330
1001
CONDUITCAD
1000
{"id":"e-muhyo468-16l","connector":{"from":{"entityId":"e-muhyo468-16d","port":"out"},"to":{"entityId":"e-muhyo468-16e","port":"in"},"style":"process","arrow":"end","waypoints":[],"status":"routed"},"
1000
label":"","dash":[],"width":2}
0
LWPOLYLINE
5
112
330
175
100
AcDbEntity
8
Process
62
7
420
1342583
100
AcDbPolyline
90
3
70
0
10
530
20
330
10
580
20
330
10
580
20
330
1001
CONDUITCAD
1000
{"id":"e-muhyo468-16m","connector":{"from":{"entityId":"e-muhyo468-16e","port":"out"},"to":{"entityId":"e-muhyo468-16f","port":"in"},"style":"process","arrow":"end","waypoints":[],"status":"routed"},"
1000
label":"","dash":[],"width":2}
0
LWPOLYLINE
5
113
330
175
100
AcDbEntity
8
Process
62
7
420
1342583
100
AcDbPolyline
90
3
70
0
10
670
20
330
10
710
20
330
10
710
20
330
1001
CONDUITCAD
1000
{"id":"e-muhyo468-16n","connector":{"from":{"entityId":"e-muhyo468-16f","port":"out"},"to":{"entityId":"e-muhyo468-16g","port":"in"},"style":"process","arrow":"end","waypoints":[],"status":"routed"},"
1000
label":"PW-101","dash":[],"width":2}
0
LWPOLYLINE
5
114
330
175
100
AcDbEntity
8
Process
62
7
420
1342583
100
AcDbPolyline
90
3
70
0
10
800
20
330
10
860
20
330
10
860
20
330
1001
CONDUITCAD
1000
{"id":"e-muhyo468-16o","connector":{"from":{"entityId":"e-muhyo468-16g","port":"out"},"to":{"entityId":"e-muhyo468-16h","port":"in"},"style":"process","arrow":"end","waypoints":[],"status":"routed"},"
1000
label":"","dash":[],"width":2}
0
LWPOLYLINE
5
115
330
175
100
AcDbEntity
8
Process
62
7
420
1342583
100
AcDbPolyline
90
3
70
0
10
950
20
330
10
1010
20
330
10
1010
20
330
1001
CONDUITCAD
1000
{"id":"e-muhyo468-16p","connector":{"from":{"entityId":"e-muhyo468-16h","port":"out"},"to":{"entityId":"e-muhyo468-16i","port":"in"},"style":"process","arrow":"end","waypoints":[],"status":"routed"},"
1000
label":"","dash":[],"width":2}
0
INSERT
5
116
330
175
100
AcDbEntity
8
Equipment
100
AcDbBlockReference
2
CC_PRESSURE_INDICATOR
10
625
20
455
30
0
41
1
42
1
43
1
50
0
66
1
1001
CONDUITCAD
1000
{"id":"e-muhyo468-16q","tag":"PI-101"}
0
ATTRIB
5
1AC
330
116
100
AcDbEntity
8
Equipment
100
AcDbText
10
625
20
388
30
0
40
11
1
PI-101
50
0
41
1
7
STANDARD
72
1
11
625
21
388
31
0
100
AcDbAttribute
2
TAG
70
0
74
0
0
SEQEND
5
1AD
330
116
100
AcDbEntity
8
Equipment
0
LWPOLYLINE
5
117
330
175
100
AcDbEntity
8
Instruments
62
7
420
11172939
6
CC_DASH_6_4
100
AcDbPolyline
90
3
70
0
10
625
20
348
10
625
20
348
10
625
20
410
1001
CONDUITCAD
1000
{"id":"e-muhyo468-16r","connector":{"from":{"entityId":"e-muhyo468-16f","port":"top"},"to":{"entityId":"e-muhyo468-16q","port":"sense"},"style":"signal","arrow":"none","waypoints":[],"status":"routed"
1000
},"label":"","dash":[6,4],"width":1.5}
0
INSERT
5
118
330
175
100
AcDbEntity
8
Equipment
100
AcDbBlockReference
2
CC_CONTROL_VALVE
10
755
20
170
30
0
41
1
42
1
43
1
50
0
66
1
1001
CONDUITCAD
1000
{"id":"e-muhyo468-16s","tag":"FCV-101"}
0
ATTRIB
5
1AE
330
118
100
AcDbEntity
8
Equipment
100
AcDbText
10
755
20
122
30
0
40
12
1
FCV-101
50
0
41
1
7
STANDARD
72
1
11
755
21
122
31
0
100
AcDbAttribute
2
TAG
70
0
74
0
0
SEQEND
5
1AF
330
118
100
AcDbEntity
8
Equipment
0
LWPOLYLINE
5
119
330
175
100
AcDbEntity
8
Process
62
7
420
1342583
100
AcDbPolyline
90
4
70
0
10
485
20
285
10
485
20
170
10
710
20
170
10
710
20
170
1001
CONDUITCAD
1000
{"id":"e-muhyo468-16t","connector":{"from":{"entityId":"e-muhyo468-16e","port":"bottom"},"to":{"entityId":"e-muhyo468-16s","port":"in"},"style":"process","arrow":"end","waypoints":[{"x":485,"y":170},{
1000
"x":710,"y":170}],"status":"routed"},"label":"BYPASS","dash":[],"width":2}
0
LWPOLYLINE
5
11A
330
175
100
AcDbEntity
8
Process
62
7
420
1342583
100
AcDbPolyline
90
3
70
0
10
800
20
170
10
905
20
170
10
905
20
285
1001
CONDUITCAD
1000
{"id":"e-muhyo468-16u","connector":{"from":{"entityId":"e-muhyo468-16s","port":"out"},"to":{"entityId":"e-muhyo468-16h","port":"bottom"},"style":"process","arrow":"end","waypoints":[{"x":905,"y":170}]
1000
,"status":"routed"},"label":"","dash":[],"width":2}
0
INSERT
5
11B
330
175
100
AcDbEntity
8
Equipment
100
AcDbBlockReference
2
CC_FLOW_TRANSMITTER
10
905
20
455
30
0
41
1
42
1
43
1
50
0
66
1
1001
CONDUITCAD
1000
{"id":"e-muhyo468-16v","tag":"FT-101"}
0
ATTRIB
5
1B0
330
11B
100
AcDbEntity
8
Equipment
100
AcDbText
10
905
20
388
30
0
40
11
1
FT-101
50
0
41
1
7
STANDARD
72
1
11
905
21
388
31
0
100
AcDbAttribute
2
TAG
70
0
74
0
0
SEQEND
5
1B1
330
11B
100
AcDbEntity
8
Equipment
0
LWPOLYLINE
5
11C
330
175
100
AcDbEntity
8
Instruments
62
7
420
11172939
6
CC_DASH_6_4
100
AcDbPolyline
90
3
70
0
10
905
20
375
10
905
20
375
10
905
20
410
1001
CONDUITCAD
1000
{"id":"e-muhyo468-16w","connector":{"from":{"entityId":"e-muhyo468-16h","port":"top"},"to":{"entityId":"e-muhyo468-16v","port":"sense"},"style":"signal","arrow":"none","waypoints":[],"status":"routed"
1000
},"label":"","dash":[6,4],"width":1.5}
0
INSERT
5
11D
330
175
100
AcDbEntity
8
Instruments
100
AcDbBlockReference
2
CC_PROCESS
10
1060
20
170
30
0
41
0.75
42
0.75
43
1
50
0
66
1
1001
CONDUITCAD
1000
{"id":"e-muhyo468-16x","tag":"FIC-101"}
0
ATTRIB
5
1B2
330
11D
100
AcDbEntity
8
Instruments
100
AcDbText
10
1060
20
127.25
30
0
40
12
1
FIC-101
50
0
41
1
7
STANDARD
72
1
11
1060
21
127.25
31
0
100
AcDbAttribute
2
TAG
70
0
74
0
0
SEQEND
5
1B3
330
11D
100
AcDbEntity
8
Instruments
0
LWPOLYLINE
5
11E
330
175
100
AcDbEntity
8
Instruments
62
7
420
11172939
6
CC_DASH_6_4
100
AcDbPolyline
90
5
70
0
10
905
20
410
10
985
20
410
10
985
20
225
10
1060
20
225
10
1060
20
196.25
1001
CONDUITCAD
1000
{"id":"e-muhyo468-16y","connector":{"from":{"entityId":"e-muhyo468-16v","port":"sense"},"to":{"entityId":"e-muhyo468-16x","port":"in"},"style":"signal","arrow":"none","waypoints":[{"x":985,"y":410},{"
1000
x":985,"y":225},{"x":1060,"y":225}],"status":"routed"},"label":"","dash":[6,4],"width":1.5}
0
LWPOLYLINE
5
11F
330
175
100
AcDbEntity
8
Instruments
62
7
420
11172939
6
CC_DASH_6_4
100
AcDbPolyline
90
5
70
0
10
1018.75
20
170
10
985
20
170
10
985
20
235
10
755
20
235
10
755
20
220
1001
CONDUITCAD
1000
{"id":"e-muhyo468-16z","connector":{"from":{"entityId":"e-muhyo468-16x","port":"left"},"to":{"entityId":"e-muhyo468-16s","port":"signal"},"style":"signal","arrow":"none","waypoints":[{"x":985,"y":170}
1000
,{"x":985,"y":235},{"x":755,"y":235}],"status":"routed"},"label":"","dash":[6,4],"width":1.5}
0
TEXT
5
120
330
175
100
AcDbEntity
8
Annotations
62
7
420
8688280
100
AcDbText
10
47
20
225
30
0
40
10
1
DESIGN BASIS
50
0
41
1
7
STANDARD
100
AcDbText
73
0
1001
CONDUITCAD
1000
{"id":"e-muhyo468-170"}
0
TEXT
5
121
330
175
100
AcDbEntity
8
Annotations
62
7
420
6979206
100
AcDbText
10
47
20
202
30
0
40
12
1
Flow       12.5 m³/h
50
0
41
1
7
STANDARD
100
AcDbText
73
0
1001
CONDUITCAD
1000
{"id":"e-muhyo468-171"}
0
TEXT
5
122
330
175
100
AcDbEntity
8
Annotations
62
7
420
6979206
100
AcDbText
10
47
20
181
30
0
40
12
1
Pressure   6 bar
50
0
41
1
7
STANDARD
100
AcDbText
73
0
1001
CONDUITCAD
1000
{"id":"e-muhyo468-172"}
0
TEXT
5
123
330
175
100
AcDbEntity
8
Annotations
62
7
420
6979206
100
AcDbText
10
47
20
160
30
0
40
12
1
Material   SS 316L
50
0
41
1
7
STANDARD
100
AcDbText
73
0
1001
CONDUITCAD
1000
{"id":"e-muhyo468-173"}
0
LINE
5
124
330
175
100
AcDbEntity
8
Annotations
62
7
420
13424603
100
AcDbLine
10
40
20
92
30
0
11
1100
21
92
31
0
1001
CONDUITCAD
1000
{"id":"e-muhyo468-174","width":1}
0
TEXT
5
125
330
175
100
AcDbEntity
8
Annotations
62
7
420
8688280
100
AcDbText
10
40
20
60
30
0
40
10
1
SCHEMATIC · NOT FOR CONSTRUCTION
50
0
41
1
7
STANDARD
100
AcDbText
73
0
1001
CONDUITCAD
1000
{"id":"e-muhyo468-175"}
0
TEXT
5
126
330
175
100
AcDbEntity
8
Annotations
62
7
420
8688280
100
AcDbText
10
720
20
60
30
0
40
10
1
UNITS: mm     |     MODEL SPACE     |     1 OF 1
50
0
41
1
7
STANDARD
100
AcDbText
73
0
1001
CONDUITCAD
1000
{"id":"e-muhyo468-176"}
0
ENDSEC
0
SECTION
2
OBJECTS
0
DICTIONARY
5
1BA
330
0
100
AcDbDictionary
281
1
3
ACAD_LAYOUT
350
1BB
3
ACAD_GROUP
350
1BC
3
CONDUITCAD_METADATA
350
1BF
0
DICTIONARY
5
1BB
330
1BA
100
AcDbDictionary
281
1
3
Model
350
1BD
3
Layout1
350
1BE
0
DICTIONARY
5
1BC
330
1BA
100
AcDbDictionary
281
1
0
LAYOUT
5
1BD
330
1BB
100
AcDbPlotSettings
1

2

4

6

40
0
41
0
42
0
43
0
44
420
45
297
46
0
47
0
48
0
49
0
140
0
141
0
142
1
143
1
70
0
72
1
73
0
74
5
7

75
16
76
0
77
0
78
300
147
1
148
0
149
0
100
AcDbLayout
1
Model
70
1
71
0
10
0
20
0
11
420
21
297
12
0
22
0
32
0
14
0
24
0
34
0
15
420
25
297
35
0
146
0
13
0
23
0
33
0
16
1
26
0
36
0
17
0
27
1
37
0
76
0
330
175
0
LAYOUT
5
1BE
330
1BB
100
AcDbPlotSettings
1

2

4

6

40
0
41
0
42
0
43
0
44
420
45
297
46
0
47
0
48
0
49
0
140
0
141
0
142
1
143
1
70
0
72
1
73
0
74
5
7

75
16
76
0
77
0
78
300
147
1
148
0
149
0
100
AcDbLayout
1
Layout1
70
1
71
1
10
0
20
0
11
420
21
297
12
0
22
0
32
0
14
0
24
0
34
0
15
420
25
297
35
0
146
0
13
0
23
0
33
0
16
1
26
0
36
0
17
0
27
1
37
0
76
0
330
176
0
XRECORD
5
1BF
330
1BA
100
AcDbXrecord
280
1
1
{"parameters":{"grid":"10","pipeWidth":"2","valveSize":"64"},"constraints":[],"metadata":{"author":"","description":"Editable demonstration drawing. Symbols are illustrative, not standards-certified."
1
}}
0
ENDSEC
0
EOF
