0
SECTION
2
HEADER
9
$ACADVER
1
AC1024
9
$INSUNITS
70
4
9
$MEASUREMENT
70
1
999
CONDUIT:{"parameters":{"grid":"10","pipeWidth":"2","valveSize":"64"},"constraints":[],"metadata":{"author":"","description":"Editable demonstration drawing. Symbols are illustrative, not s
999
CONDUIT:tandards-certified."}}
0
ENDSEC
0
SECTION
2
TABLES
0
TABLE
2
LTYPE
5
100
330
0
100
AcDbSymbolTable
70
1
0
LTYPE
5
101
100
AcDbSymbolTableRecord
100
AcDbLinetypeTableRecord
2
CONTINUOUS
70
0
3
Solid line
72
65
73
0
40
0
0
LTYPE
5
102
100
AcDbSymbolTableRecord
100
AcDbLinetypeTableRecord
2
DASHED
70
0
3
DASHED
72
65
73
2
40
12
49
8
74
0
49
-4
74
0
0
LTYPE
5
103
100
AcDbSymbolTableRecord
100
AcDbLinetypeTableRecord
2
CENTER
70
0
3
CENTER
72
65
73
4
40
20
49
12
74
0
49
-3
74
0
49
2
74
0
49
-3
74
0
0
LTYPE
5
104
100
AcDbSymbolTableRecord
100
AcDbLinetypeTableRecord
2
HIDDEN
70
0
3
HIDDEN
72
65
73
2
40
7
49
4
74
0
49
-3
74
0
0
LTYPE
5
105
100
AcDbSymbolTableRecord
100
AcDbLinetypeTableRecord
2
CC_DASH_6_4
70
0
3
CC_DASH_6_4
72
65
73
2
40
10
49
6
74
0
49
-4
74
0
0
ENDTAB
0
TABLE
2
LAYER
5
106
330
0
100
AcDbSymbolTable
70
6
0
LAYER
5
107
100
AcDbSymbolTableRecord
100
AcDbLayerTableRecord
2
0
70
0
62
7
420
3426133
6
CONTINUOUS
0
LAYER
5
108
100
AcDbSymbolTableRecord
100
AcDbLayerTableRecord
2
Equipment
70
0
62
7
420
3495011
6
CONTINUOUS
0
LAYER
5
109
100
AcDbSymbolTableRecord
100
AcDbLayerTableRecord
2
Process
70
0
62
7
420
1342583
6
CONTINUOUS
0
LAYER
5
10A
100
AcDbSymbolTableRecord
100
AcDbLayerTableRecord
2
Instruments
70
0
62
7
420
10187334
6
CONTINUOUS
0
LAYER
5
10B
100
AcDbSymbolTableRecord
100
AcDbLayerTableRecord
2
Electrical
70
0
62
7
420
6584250
6
CONTINUOUS
0
LAYER
5
10C
100
AcDbSymbolTableRecord
100
AcDbLayerTableRecord
2
Annotations
70
0
62
7
420
7438474
6
CONTINUOUS
0
ENDTAB
0
TABLE
2
STYLE
5
10D
330
0
100
AcDbSymbolTable
70
1
0
STYLE
5
10E
100
AcDbSymbolTableRecord
100
AcDbTextStyleTableRecord
2
STANDARD
70
0
40
0
41
1
50
0
71
0
42
2.5
3
txt
4

0
ENDTAB
0
TABLE
2
APPID
5
10F
330
0
100
AcDbSymbolTable
70
1
0
APPID
5
110
100
AcDbSymbolTableRecord
100
AcDbRegAppTableRecord
2
CONDUITCAD
70
0
0
ENDTAB
0
TABLE
2
BLOCK_RECORD
5
111
330
0
100
AcDbSymbolTable
70
58
0
BLOCK_RECORD
5
112
100
AcDbSymbolTableRecord
100
AcDbBlockTableRecord
2
*Model_Space
0
BLOCK_RECORD
5
113
100
AcDbSymbolTableRecord
100
AcDbBlockTableRecord
2
*Paper_Space
0
BLOCK_RECORD
5
114
100
AcDbSymbolTableRecord
100
AcDbBlockTableRecord
2
CC_GATE_VALVE
0
BLOCK_RECORD
5
115
100
AcDbSymbolTableRecord
100
AcDbBlockTableRecord
2
CC_BALL_VALVE
0
BLOCK_RECORD
5
116
100
AcDbSymbolTableRecord
100
AcDbBlockTableRecord
2
CC_GLOBE_VALVE
0
BLOCK_RECORD
5
117
100
AcDbSymbolTableRecord
100
AcDbBlockTableRecord
2
CC_BUTTERFLY_VALVE
0
BLOCK_RECORD
5
118
100
AcDbSymbolTableRecord
100
AcDbBlockTableRecord
2
CC_CHECK_VALVE
0
BLOCK_RECORD
5
119
100
AcDbSymbolTableRecord
100
AcDbBlockTableRecord
2
CC_CONTROL_VALVE
0
BLOCK_RECORD
5
11A
100
AcDbSymbolTableRecord
100
AcDbBlockTableRecord
2
CC_SOLENOID_VALVE
0
BLOCK_RECORD
5
11B
100
AcDbSymbolTableRecord
100
AcDbBlockTableRecord
2
CC_RELIEF_VALVE
0
BLOCK_RECORD
5
11C
100
AcDbSymbolTableRecord
100
AcDbBlockTableRecord
2
CC_THREE_WAY_VALVE
0
BLOCK_RECORD
5
11D
100
AcDbSymbolTableRecord
100
AcDbBlockTableRecord
2
CC_PUMP
0
BLOCK_RECORD
5
11E
100
AcDbSymbolTableRecord
100
AcDbBlockTableRecord
2
CC_GEAR_PUMP
0
BLOCK_RECORD
5
11F
100
AcDbSymbolTableRecord
100
AcDbBlockTableRecord
2
CC_COMPRESSOR
0
BLOCK_RECORD
5
120
100
AcDbSymbolTableRecord
100
AcDbBlockTableRecord
2
CC_FAN
0
BLOCK_RECORD
5
121
100
AcDbSymbolTableRecord
100
AcDbBlockTableRecord
2
CC_STRAINER
0
BLOCK_RECORD
5
122
100
AcDbSymbolTableRecord
100
AcDbBlockTableRecord
2
CC_FILTER
0
BLOCK_RECORD
5
123
100
AcDbSymbolTableRecord
100
AcDbBlockTableRecord
2
CC_HEAT_EXCHANGER
0
BLOCK_RECORD
5
124
100
AcDbSymbolTableRecord
100
AcDbBlockTableRecord
2
CC_TANK
0
BLOCK_RECORD
5
125
100
AcDbSymbolTableRecord
100
AcDbBlockTableRecord
2
CC_VESSEL
0
BLOCK_RECORD
5
126
100
AcDbSymbolTableRecord
100
AcDbBlockTableRecord
2
CC_MIXER
0
BLOCK_RECORD
5
127
100
AcDbSymbolTableRecord
100
AcDbBlockTableRecord
2
CC_PRESSURE_INDICATOR
0
BLOCK_RECORD
5
128
100
AcDbSymbolTableRecord
100
AcDbBlockTableRecord
2
CC_FLOW_TRANSMITTER
0
BLOCK_RECORD
5
129
100
AcDbSymbolTableRecord
100
AcDbBlockTableRecord
2
CC_TEMPERATURE
0
BLOCK_RECORD
5
12A
100
AcDbSymbolTableRecord
100
AcDbBlockTableRecord
2
CC_LEVEL_TRANSMITTER
0
BLOCK_RECORD
5
12B
100
AcDbSymbolTableRecord
100
AcDbBlockTableRecord
2
CC_REDUCER
0
BLOCK_RECORD
5
12C
100
AcDbSymbolTableRecord
100
AcDbBlockTableRecord
2
CC_FLANGE
0
BLOCK_RECORD
5
12D
100
AcDbSymbolTableRecord
100
AcDbBlockTableRecord
2
CC_OFFPAGE
0
BLOCK_RECORD
5
12E
100
AcDbSymbolTableRecord
100
AcDbBlockTableRecord
2
CC_RESISTOR
0
BLOCK_RECORD
5
12F
100
AcDbSymbolTableRecord
100
AcDbBlockTableRecord
2
CC_RESISTOR_IEC
0
BLOCK_RECORD
5
130
100
AcDbSymbolTableRecord
100
AcDbBlockTableRecord
2
CC_CAPACITOR
0
BLOCK_RECORD
5
131
100
AcDbSymbolTableRecord
100
AcDbBlockTableRecord
2
CC_INDUCTOR
0
BLOCK_RECORD
5
132
100
AcDbSymbolTableRecord
100
AcDbBlockTableRecord
2
CC_DIODE
0
BLOCK_RECORD
5
133
100
AcDbSymbolTableRecord
100
AcDbBlockTableRecord
2
CC_LED
0
BLOCK_RECORD
5
134
100
AcDbSymbolTableRecord
100
AcDbBlockTableRecord
2
CC_SWITCH
0
BLOCK_RECORD
5
135
100
AcDbSymbolTableRecord
100
AcDbBlockTableRecord
2
CC_SWITCH_NC
0
BLOCK_RECORD
5
136
100
AcDbSymbolTableRecord
100
AcDbBlockTableRecord
2
CC_FUSE
0
BLOCK_RECORD
5
137
100
AcDbSymbolTableRecord
100
AcDbBlockTableRecord
2
CC_RELAY
0
BLOCK_RECORD
5
138
100
AcDbSymbolTableRecord
100
AcDbBlockTableRecord
2
CC_MOTOR
0
BLOCK_RECORD
5
139
100
AcDbSymbolTableRecord
100
AcDbBlockTableRecord
2
CC_GENERATOR
0
BLOCK_RECORD
5
13A
100
AcDbSymbolTableRecord
100
AcDbBlockTableRecord
2
CC_TRANSFORMER
0
BLOCK_RECORD
5
13B
100
AcDbSymbolTableRecord
100
AcDbBlockTableRecord
2
CC_GROUND
0
BLOCK_RECORD
5
13C
100
AcDbSymbolTableRecord
100
AcDbBlockTableRecord
2
CC_BATTERY
0
BLOCK_RECORD
5
13D
100
AcDbSymbolTableRecord
100
AcDbBlockTableRecord
2
CC_TERMINAL
0
BLOCK_RECORD
5
13E
100
AcDbSymbolTableRecord
100
AcDbBlockTableRecord
2
CC_OP_AMP
0
BLOCK_RECORD
5
13F
100
AcDbSymbolTableRecord
100
AcDbBlockTableRecord
2
CC_LAMP
0
BLOCK_RECORD
5
140
100
AcDbSymbolTableRecord
100
AcDbBlockTableRecord
2
CC_PROCESS
0
BLOCK_RECORD
5
141
100
AcDbSymbolTableRecord
100
AcDbBlockTableRecord
2
CC_DECISION
0
BLOCK_RECORD
5
142
100
AcDbSymbolTableRecord
100
AcDbBlockTableRecord
2
CC_TERMINATOR
0
BLOCK_RECORD
5
143
100
AcDbSymbolTableRecord
100
AcDbBlockTableRecord
2
CC_DATA
0
BLOCK_RECORD
5
144
100
AcDbSymbolTableRecord
100
AcDbBlockTableRecord
2
CC_DOCUMENT
0
BLOCK_RECORD
5
145
100
AcDbSymbolTableRecord
100
AcDbBlockTableRecord
2
CC_DATABASE
0
BLOCK_RECORD
5
146
100
AcDbSymbolTableRecord
100
AcDbBlockTableRecord
2
CC_SUBPROCESS
0
BLOCK_RECORD
5
147
100
AcDbSymbolTableRecord
100
AcDbBlockTableRecord
2
CC_MANUAL
0
BLOCK_RECORD
5
148
100
AcDbSymbolTableRecord
100
AcDbBlockTableRecord
2
CC_PREPARATION
0
BLOCK_RECORD
5
149
100
AcDbSymbolTableRecord
100
AcDbBlockTableRecord
2
CC_DELAY
0
BLOCK_RECORD
5
14A
100
AcDbSymbolTableRecord
100
AcDbBlockTableRecord
2
CC_JUNCTION
0
BLOCK_RECORD
5
14B
100
AcDbSymbolTableRecord
100
AcDbBlockTableRecord
2
CC_NOTE
0
ENDTAB
0
ENDSEC
0
SECTION
2
BLOCKS
0
BLOCK
5
14C
330
112
100
AcDbEntity
8
0
100
AcDbBlockBegin
2
*Model_Space
70
0
10
0
20
0
30
0
3
*Model_Space
1

1001
CONDUITCAD
1000
{"ports":[]}
0
ENDBLK
5
14D
330
112
100
AcDbEntity
8
0
100
AcDbBlockEnd
0
BLOCK
5
14E
330
113
100
AcDbEntity
8
0
100
AcDbBlockBegin
2
*Paper_Space
70
0
10
0
20
0
30
0
3
*Paper_Space
1

1001
CONDUITCAD
1000
{"ports":[]}
0
ENDBLK
5
14F
330
113
100
AcDbEntity
8
0
100
AcDbBlockEnd
0
BLOCK
5
150
330
114
100
AcDbEntity
8
0
100
AcDbBlockBegin
2
CC_GATE_VALVE
70
0
10
0
20
0
30
0
3
CC_GATE_VALVE
1

1001
CONDUITCAD
1000
{"ports":[{"name":"in","x":-45,"y":0,"dx":-1,"dy":0},{"name":"out","x":45,"y":0,"dx":1,"dy":0}],"symbol":{"name":"Gate valve","category":"P&ID","labelOffset":57}}
0
LINE
5
151
330
114
100
AcDbEntity
8
0
100
AcDbLine
10
-45
20
0
30
0
11
-25
21
0
31
0
1001
CONDUITCAD
1000
{"id":"e-mufq3hq0-1"}
0
LINE
5
152
330
114
100
AcDbEntity
8
0
100
AcDbLine
10
25
20
0
30
0
11
45
21
0
31
0
1001
CONDUITCAD
1000
{"id":"e-mufq3hq0-2"}
0
LWPOLYLINE
5
153
330
114
100
AcDbEntity
8
0
100
AcDbPolyline
90
4
70
1
10
-25
20
-18
10
25
20
18
10
25
20
-18
10
-25
20
18
1001
CONDUITCAD
1000
{"id":"e-mufq3hq0-3"}
0
ENDBLK
5
154
330
114
100
AcDbEntity
8
0
100
AcDbBlockEnd
0
BLOCK
5
155
330
115
100
AcDbEntity
8
0
100
AcDbBlockBegin
2
CC_BALL_VALVE
70
0
10
0
20
0
30
0
3
CC_BALL_VALVE
1

1001
CONDUITCAD
1000
{"ports":[{"name":"in","x":-45,"y":0,"dx":-1,"dy":0},{"name":"out","x":45,"y":0,"dx":1,"dy":0}],"symbol":{"name":"Ball valve","category":"P&ID","labelOffset":57}}
0
LINE
5
156
330
115
100
AcDbEntity
8
0
100
AcDbLine
10
-45
20
0
30
0
11
-25
21
0
31
0
1001
CONDUITCAD
1000
{"id":"e-mufq3hq0-1"}
0
LINE
5
157
330
115
100
AcDbEntity
8
0
100
AcDbLine
10
25
20
0
30
0
11
45
21
0
31
0
1001
CONDUITCAD
1000
{"id":"e-mufq3hq0-2"}
0
CIRCLE
5
158
330
115
100
AcDbEntity
8
0
100
AcDbCircle
10
0
20
0
30
0
40
21
1001
CONDUITCAD
1000
{"id":"e-mufq3hq0-4"}
0
LINE
5
159
330
115
100
AcDbEntity
8
0
100
AcDbLine
10
-15
20
-15
30
0
11
15
21
15
31
0
1001
CONDUITCAD
1000
{"id":"e-mufq3hq0-5"}
0
ENDBLK
5
15A
330
115
100
AcDbEntity
8
0
100
AcDbBlockEnd
0
BLOCK
5
15B
330
116
100
AcDbEntity
8
0
100
AcDbBlockBegin
2
CC_GLOBE_VALVE
70
0
10
0
20
0
30
0
3
CC_GLOBE_VALVE
1

1001
CONDUITCAD
1000
{"ports":[{"name":"in","x":-45,"y":0,"dx":-1,"dy":0},{"name":"out","x":45,"y":0,"dx":1,"dy":0}],"symbol":{"name":"Globe valve","category":"P&ID","labelOffset":57}}
0
LINE
5
15C
330
116
100
AcDbEntity
8
0
100
AcDbLine
10
-45
20
0
30
0
11
-25
21
0
31
0
1001
CONDUITCAD
1000
{"id":"e-mufq3hq0-1"}
0
LINE
5
15D
330
116
100
AcDbEntity
8
0
100
AcDbLine
10
25
20
0
30
0
11
45
21
0
31
0
1001
CONDUITCAD
1000
{"id":"e-mufq3hq0-2"}
0
LWPOLYLINE
5
15E
330
116
100
AcDbEntity
8
0
100
AcDbPolyline
90
4
70
1
10
-25
20
-18
10
25
20
18
10
25
20
-18
10
-25
20
18
1001
CONDUITCAD
1000
{"id":"e-mufq3hq0-3"}
0
CIRCLE
5
15F
330
116
100
AcDbEntity
8
0
100
AcDbCircle
10
0
20
0
30
0
40
7
1001
CONDUITCAD
1000
{"id":"e-mufq3hq0-6"}
0
ENDBLK
5
160
330
116
100
AcDbEntity
8
0
100
AcDbBlockEnd
0
BLOCK
5
161
330
117
100
AcDbEntity
8
0
100
AcDbBlockBegin
2
CC_BUTTERFLY_VALVE
70
0
10
0
20
0
30
0
3
CC_BUTTERFLY_VALVE
1

1001
CONDUITCAD
1000
{"ports":[{"name":"in","x":-45,"y":0,"dx":-1,"dy":0},{"name":"out","x":45,"y":0,"dx":1,"dy":0}],"symbol":{"name":"Butterfly valve","category":"P&ID","labelOffset":57}}
0
LINE
5
162
330
117
100
AcDbEntity
8
0
100
AcDbLine
10
-45
20
0
30
0
11
-25
21
0
31
0
1001
CONDUITCAD
1000
{"id":"e-mufq3hq0-1"}
0
LINE
5
163
330
117
100
AcDbEntity
8
0
100
AcDbLine
10
25
20
0
30
0
11
45
21
0
31
0
1001
CONDUITCAD
1000
{"id":"e-mufq3hq0-2"}
0
CIRCLE
5
164
330
117
100
AcDbEntity
8
0
100
AcDbCircle
10
0
20
0
30
0
40
23
1001
CONDUITCAD
1000
{"id":"e-mufq3hq0-7"}
0
LINE
5
165
330
117
100
AcDbEntity
8
0
100
AcDbLine
10
-16
20
-16
30
0
11
16
21
16
31
0
1001
CONDUITCAD
1000
{"id":"e-mufq3hq0-8"}
0
CIRCLE
5
166
330
117
100
AcDbEntity
8
0
100
AcDbCircle
10
0
20
0
30
0
40
3
1001
CONDUITCAD
1000
{"id":"e-mufq3hq0-9"}
0
ENDBLK
5
167
330
117
100
AcDbEntity
8
0
100
AcDbBlockEnd
0
BLOCK
5
168
330
118
100
AcDbEntity
8
0
100
AcDbBlockBegin
2
CC_CHECK_VALVE
70
0
10
0
20
0
30
0
3
CC_CHECK_VALVE
1

1001
CONDUITCAD
1000
{"ports":[{"name":"in","x":-45,"y":0,"dx":-1,"dy":0},{"name":"out","x":45,"y":0,"dx":1,"dy":0},{"name":"top","x":0,"y":18,"dx":0,"dy":1}],"symbol":{"name":"Check valve","category":"P&ID","labelOffset"
1000
:57}}
0
LINE
5
169
330
118
100
AcDbEntity
8
0
100
AcDbLine
10
-45
20
0
30
0
11
-25
21
0
31
0
1001
CONDUITCAD
1000
{"id":"e-mufq3hq0-1"}
0
LINE
5
16A
330
118
100
AcDbEntity
8
0
100
AcDbLine
10
25
20
0
30
0
11
45
21
0
31
0
1001
CONDUITCAD
1000
{"id":"e-mufq3hq0-2"}
0
LWPOLYLINE
5
16B
330
118
100
AcDbEntity
8
0
100
AcDbPolyline
90
3
70
1
10
-22
20
-18
10
18
20
0
10
-22
20
18
1001
CONDUITCAD
1000
{"id":"e-mufq3hq0-a"}
0
LINE
5
16C
330
118
100
AcDbEntity
8
0
100
AcDbLine
10
21
20
-22
30
0
11
21
21
22
31
0
1001
CONDUITCAD
1000
{"id":"e-mufq3hq0-b"}
0
ENDBLK
5
16D
330
118
100
AcDbEntity
8
0
100
AcDbBlockEnd
0
BLOCK
5
16E
330
119
100
AcDbEntity
8
0
100
AcDbBlockBegin
2
CC_CONTROL_VALVE
70
0
10
0
20
0
30
0
3
CC_CONTROL_VALVE
1

1001
CONDUITCAD
1000
{"ports":[{"name":"in","x":-45,"y":0,"dx":-1,"dy":0},{"name":"out","x":45,"y":0,"dx":1,"dy":0},{"name":"signal","x":0,"y":50,"dx":0,"dy":1}],"symbol":{"name":"Control valve","category":"P&ID","labelOf
1000
fset":57}}
0
LINE
5
16F
330
119
100
AcDbEntity
8
0
100
AcDbLine
10
-45
20
0
30
0
11
-25
21
0
31
0
1001
CONDUITCAD
1000
{"id":"e-mufq3hq0-1"}
0
LINE
5
170
330
119
100
AcDbEntity
8
0
100
AcDbLine
10
25
20
0
30
0
11
45
21
0
31
0
1001
CONDUITCAD
1000
{"id":"e-mufq3hq0-2"}
0
LWPOLYLINE
5
171
330
119
100
AcDbEntity
8
0
100
AcDbPolyline
90
4
70
1
10
-25
20
-18
10
25
20
18
10
25
20
-18
10
-25
20
18
1001
CONDUITCAD
1000
{"id":"e-mufq3hq0-3"}
0
LINE
5
172
330
119
100
AcDbEntity
8
0
100
AcDbLine
10
0
20
0
30
0
11
0
21
35
31
0
1001
CONDUITCAD
1000
{"id":"e-mufq3hq0-c"}
0
LWPOLYLINE
5
173
330
119
100
AcDbEntity
8
0
100
AcDbPolyline
90
5
70
1
10
-22
20
35
10
-18
20
44
10
0
20
50
10
18
20
44
10
22
20
35
1001
CONDUITCAD
1000
{"id":"e-mufq3hq0-d"}
0
ENDBLK
5
174
330
119
100
AcDbEntity
8
0
100
AcDbBlockEnd
0
BLOCK
5
175
330
11A
100
AcDbEntity
8
0
100
AcDbBlockBegin
2
CC_SOLENOID_VALVE
70
0
10
0
20
0
30
0
3
CC_SOLENOID_VALVE
1

1001
CONDUITCAD
1000
{"ports":[{"name":"in","x":-45,"y":0,"dx":-1,"dy":0},{"name":"out","x":45,"y":0,"dx":1,"dy":0}],"symbol":{"name":"Solenoid valve","category":"P&ID","labelOffset":57}}
0
LINE
5
176
330
11A
100
AcDbEntity
8
0
100
AcDbLine
10
-45
20
0
30
0
11
-25
21
0
31
0
1001
CONDUITCAD
1000
{"id":"e-mufq3hq0-1"}
0
LINE
5
177
330
11A
100
AcDbEntity
8
0
100
AcDbLine
10
25
20
0
30
0
11
45
21
0
31
0
1001
CONDUITCAD
1000
{"id":"e-mufq3hq0-2"}
0
LWPOLYLINE
5
178
330
11A
100
AcDbEntity
8
0
100
AcDbPolyline
90
4
70
1
10
-25
20
-18
10
25
20
18
10
25
20
-18
10
-25
20
18
1001
CONDUITCAD
1000
{"id":"e-mufq3hq0-3"}
0
LINE
5
179
330
11A
100
AcDbEntity
8
0
100
AcDbLine
10
0
20
0
30
0
11
0
21
35
31
0
1001
CONDUITCAD
1000
{"id":"e-mufq3hq0-e"}
0
LWPOLYLINE
5
17A
330
11A
100
AcDbEntity
8
0
100
AcDbPolyline
90
4
70
1
10
-12
20
35
10
12
20
35
10
12
20
55
10
-12
20
55
1001
CONDUITCAD
1000
{"id":"e-mufq3hq0-f"}
0
TEXT
5
17B
330
11A
100
AcDbEntity
8
0
100
AcDbText
10
0
20
38
30
0
40
13
1
S
50
0
41
1
7
STANDARD
72
1
11
0
21
38
31
0
100
AcDbText
1001
CONDUITCAD
1000
{"id":"e-mufq3hq0-g"}
0
ENDBLK
5
17C
330
11A
100
AcDbEntity
8
0
100
AcDbBlockEnd
0
BLOCK
5
17D
330
11B
100
AcDbEntity
8
0
100
AcDbBlockBegin
2
CC_RELIEF_VALVE
70
0
10
0
20
0
30
0
3
CC_RELIEF_VALVE
1

1001
CONDUITCAD
1000
{"ports":[{"name":"in","x":-45,"y":0,"dx":-1,"dy":0},{"name":"out","x":45,"y":0,"dx":1,"dy":0}],"symbol":{"name":"Relief valve","category":"P&ID","labelOffset":57}}
0
LINE
5
17E
330
11B
100
AcDbEntity
8
0
100
AcDbLine
10
-45
20
0
30
0
11
-25
21
0
31
0
1001
CONDUITCAD
1000
{"id":"e-mufq3hq0-1"}
0
LINE
5
17F
330
11B
100
AcDbEntity
8
0
100
AcDbLine
10
25
20
0
30
0
11
45
21
0
31
0
1001
CONDUITCAD
1000
{"id":"e-mufq3hq0-2"}
0
LWPOLYLINE
5
180
330
11B
100
AcDbEntity
8
0
100
AcDbPolyline
90
4
70
1
10
-25
20
-18
10
25
20
18
10
25
20
-18
10
-25
20
18
1001
CONDUITCAD
1000
{"id":"e-mufq3hq0-3"}
0
LINE
5
181
330
11B
100
AcDbEntity
8
0
100
AcDbLine
10
0
20
0
30
0
11
0
21
22
31
0
1001
CONDUITCAD
1000
{"id":"e-mufq3hq0-h"}
0
LWPOLYLINE
5
182
330
11B
100
AcDbEntity
8
0
100
AcDbPolyline
90
6
70
0
10
0
20
22
10
-9
20
26
10
9
20
31
10
-9
20
36
10
9
20
41
10
0
20
45
1001
CONDUITCAD
1000
{"id":"e-mufq3hq0-i"}
0
LINE
5
183
330
11B
100
AcDbEntity
8
0
100
AcDbLine
10
-15
20
48
30
0
11
15
21
48
31
0
1001
CONDUITCAD
1000
{"id":"e-mufq3hq0-j"}
0
ENDBLK
5
184
330
11B
100
AcDbEntity
8
0
100
AcDbBlockEnd
0
BLOCK
5
185
330
11C
100
AcDbEntity
8
0
100
AcDbBlockBegin
2
CC_THREE_WAY_VALVE
70
0
10
0
20
0
30
0
3
CC_THREE_WAY_VALVE
1

1001
CONDUITCAD
1000
{"ports":[{"name":"in","x":-45,"y":0,"dx":-1,"dy":0},{"name":"out","x":45,"y":0,"dx":1,"dy":0},{"name":"branch","x":0,"y":-45,"dx":0,"dy":-1}],"symbol":{"name":"Three-way valve","category":"P&ID","lab
1000
elOffset":57}}
0
LINE
5
186
330
11C
100
AcDbEntity
8
0
100
AcDbLine
10
-45
20
0
30
0
11
-25
21
0
31
0
1001
CONDUITCAD
1000
{"id":"e-mufq3hq0-1"}
0
LINE
5
187
330
11C
100
AcDbEntity
8
0
100
AcDbLine
10
25
20
0
30
0
11
45
21
0
31
0
1001
CONDUITCAD
1000
{"id":"e-mufq3hq0-2"}
0
LWPOLYLINE
5
188
330
11C
100
AcDbEntity
8
0
100
AcDbPolyline
90
4
70
1
10
-25
20
-18
10
25
20
18
10
25
20
-18
10
-25
20
18
1001
CONDUITCAD
1000
{"id":"e-mufq3hq0-3"}
0
LWPOLYLINE
5
189
330
11C
100
AcDbEntity
8
0
100
AcDbPolyline
90
3
70
1
10
-18
20
-25
10
18
20
-25
10
0
20
0
1001
CONDUITCAD
1000
{"id":"e-mufq3hq0-k"}
0
LINE
5
18A
330
11C
100
AcDbEntity
8
0
100
AcDbLine
10
0
20
-25
30
0
11
0
21
-45
31
0
1001
CONDUITCAD
1000
{"id":"e-mufq3hq0-l"}
0
ENDBLK
5
18B
330
11C
100
AcDbEntity
8
0
100
AcDbBlockEnd
0
BLOCK
5
18C
330
11D
100
AcDbEntity
8
0
100
AcDbBlockBegin
2
CC_PUMP
70
0
10
0
20
0
30
0
3
CC_PUMP
1

1001
CONDUITCAD
1000
{"ports":[{"name":"in","x":-45,"y":0,"dx":-1,"dy":0},{"name":"out","x":45,"y":0,"dx":1,"dy":0},{"name":"top","x":0,"y":45,"dx":0,"dy":1},{"name":"bottom","x":0,"y":-45,"dx":0,"dy":-1}],"symbol":{"name
1000
":"Centrifugal pump","category":"P&ID","labelOffset":57}}
0
LINE
5
18D
330
11D
100
AcDbEntity
8
0
100
AcDbLine
10
-45
20
0
30
0
11
-25
21
0
31
0
1001
CONDUITCAD
1000
{"id":"e-mufq3hq0-1"}
0
LINE
5
18E
330
11D
100
AcDbEntity
8
0
100
AcDbLine
10
25
20
0
30
0
11
45
21
0
31
0
1001
CONDUITCAD
1000
{"id":"e-mufq3hq0-2"}
0
CIRCLE
5
18F
330
11D
100
AcDbEntity
8
0
100
AcDbCircle
10
0
20
0
30
0
40
27
1001
CONDUITCAD
1000
{"id":"e-mufq3hq0-m"}
0
LWPOLYLINE
5
190
330
11D
100
AcDbEntity
8
0
100
AcDbPolyline
90
3
70
1
10
-15
20
-18
10
23
20
0
10
-15
20
18
1001
CONDUITCAD
1000
{"id":"e-mufq3hq0-n"}
0
LINE
5
191
330
11D
100
AcDbEntity
8
0
100
AcDbLine
10
-22
20
-31
30
0
11
22
21
-31
31
0
1001
CONDUITCAD
1000
{"id":"e-mufq3hq0-o"}
0
ENDBLK
5
192
330
11D
100
AcDbEntity
8
0
100
AcDbBlockEnd
0
BLOCK
5
193
330
11E
100
AcDbEntity
8
0
100
AcDbBlockBegin
2
CC_GEAR_PUMP
70
0
10
0
20
0
30
0
3
CC_GEAR_PUMP
1

1001
CONDUITCAD
1000
{"ports":[{"name":"in","x":-45,"y":0,"dx":-1,"dy":0},{"name":"out","x":45,"y":0,"dx":1,"dy":0},{"name":"top","x":0,"y":45,"dx":0,"dy":1},{"name":"bottom","x":0,"y":-45,"dx":0,"dy":-1}],"symbol":{"name
1000
":"Gear pump","category":"P&ID","labelOffset":57}}
0
LINE
5
194
330
11E
100
AcDbEntity
8
0
100
AcDbLine
10
-45
20
0
30
0
11
-25
21
0
31
0
1001
CONDUITCAD
1000
{"id":"e-mufq3hq0-1"}
0
LINE
5
195
330
11E
100
AcDbEntity
8
0
100
AcDbLine
10
25
20
0
30
0
11
45
21
0
31
0
1001
CONDUITCAD
1000
{"id":"e-mufq3hq0-2"}
0
CIRCLE
5
196
330
11E
100
AcDbEntity
8
0
100
AcDbCircle
10
0
20
0
30
0
40
28
1001
CONDUITCAD
1000
{"id":"e-mufq3hq0-p"}
0
CIRCLE
5
197
330
11E
100
AcDbEntity
8
0
100
AcDbCircle
10
-9
20
0
30
0
40
11
1001
CONDUITCAD
1000
{"id":"e-mufq3hq0-q"}
0
CIRCLE
5
198
330
11E
100
AcDbEntity
8
0
100
AcDbCircle
10
9
20
0
30
0
40
11
1001
CONDUITCAD
1000
{"id":"e-mufq3hq0-r"}
0
ENDBLK
5
199
330
11E
100
AcDbEntity
8
0
100
AcDbBlockEnd
0
BLOCK
5
19A
330
11F
100
AcDbEntity
8
0
100
AcDbBlockBegin
2
CC_COMPRESSOR
70
0
10
0
20
0
30
0
3
CC_COMPRESSOR
1

1001
CONDUITCAD
1000
{"ports":[{"name":"in","x":-45,"y":0,"dx":-1,"dy":0},{"name":"out","x":45,"y":0,"dx":1,"dy":0},{"name":"top","x":0,"y":45,"dx":0,"dy":1},{"name":"bottom","x":0,"y":-45,"dx":0,"dy":-1}],"symbol":{"name
1000
":"Compressor","category":"P&ID","labelOffset":57}}
0
LINE
5
19B
330
11F
100
AcDbEntity
8
0
100
AcDbLine
10
-45
20
0
30
0
11
-25
21
0
31
0
1001
CONDUITCAD
1000
{"id":"e-mufq3hq0-1"}
0
LINE
5
19C
330
11F
100
AcDbEntity
8
0
100
AcDbLine
10
25
20
0
30
0
11
45
21
0
31
0
1001
CONDUITCAD
1000
{"id":"e-mufq3hq0-2"}
0
CIRCLE
5
19D
330
11F
100
AcDbEntity
8
0
100
AcDbCircle
10
0
20
0
30
0
40
29
1001
CONDUITCAD
1000
{"id":"e-mufq3hq0-s"}
0
LWPOLYLINE
5
19E
330
11F
100
AcDbEntity
8
0
100
AcDbPolyline
90
4
70
1
10
-17
20
-20
10
18
20
-10
10
18
20
10
10
-17
20
20
1001
CONDUITCAD
1000
{"id":"e-mufq3hq0-t"}
0
ENDBLK
5
19F
330
11F
100
AcDbEntity
8
0
100
AcDbBlockEnd
0
BLOCK
5
1A0
330
120
100
AcDbEntity
8
0
100
AcDbBlockBegin
2
CC_FAN
70
0
10
0
20
0
30
0
3
CC_FAN
1

1001
CONDUITCAD
1000
{"ports":[{"name":"in","x":-45,"y":0,"dx":-1,"dy":0},{"name":"out","x":45,"y":0,"dx":1,"dy":0}],"symbol":{"name":"Fan / blower","category":"P&ID","labelOffset":57}}
0
LINE
5
1A1
330
120
100
AcDbEntity
8
0
100
AcDbLine
10
-45
20
0
30
0
11
-25
21
0
31
0
1001
CONDUITCAD
1000
{"id":"e-mufq3hq0-1"}
0
LINE
5
1A2
330
120
100
AcDbEntity
8
0
100
AcDbLine
10
25
20
0
30
0
11
45
21
0
31
0
1001
CONDUITCAD
1000
{"id":"e-mufq3hq0-2"}
0
CIRCLE
5
1A3
330
120
100
AcDbEntity
8
0
100
AcDbCircle
10
0
20
0
30
0
40
29
1001
CONDUITCAD
1000
{"id":"e-mufq3hq0-u"}
0
CIRCLE
5
1A4
330
120
100
AcDbEntity
8
0
100
AcDbCircle
10
0
20
0
30
0
40
6
1001
CONDUITCAD
1000
{"id":"e-mufq3hq0-v"}
0
LWPOLYLINE
5
1A5
330
120
100
AcDbEntity
8
0
100
AcDbPolyline
90
4
70
0
10
0
20
6
10
-16
20
19
10
-25
20
5
10
0
20
0
1001
CONDUITCAD
1000
{"id":"e-mufq3hq0-w"}
0
LWPOLYLINE
5
1A6
330
120
100
AcDbEntity
8
0
100
AcDbPolyline
90
4
70
0
10
5
20
-3
10
23
20
9
10
18
20
-17
10
0
20
0
1001
CONDUITCAD
1000
{"id":"e-mufq3hq0-x"}
0
LWPOLYLINE
5
1A7
330
120
100
AcDbEntity
8
0
100
AcDbPolyline
90
4
70
0
10
-4
20
-4
10
-8
20
-24
10
12
20
-22
10
0
20
0
1001
CONDUITCAD
1000
{"id":"e-mufq3hq0-y"}
0
ENDBLK
5
1A8
330
120
100
AcDbEntity
8
0
100
AcDbBlockEnd
0
BLOCK
5
1A9
330
121
100
AcDbEntity
8
0
100
AcDbBlockBegin
2
CC_STRAINER
70
0
10
0
20
0
30
0
3
CC_STRAINER
1

1001
CONDUITCAD
1000
{"ports":[{"name":"in","x":-45,"y":0,"dx":-1,"dy":0},{"name":"out","x":45,"y":0,"dx":1,"dy":0}],"symbol":{"name":"Y strainer","category":"P&ID","labelOffset":57}}
0
LINE
5
1AA
330
121
100
AcDbEntity
8
0
100
AcDbLine
10
-45
20
0
30
0
11
-25
21
0
31
0
1001
CONDUITCAD
1000
{"id":"e-mufq3hq0-1"}
0
LINE
5
1AB
330
121
100
AcDbEntity
8
0
100
AcDbLine
10
25
20
0
30
0
11
45
21
0
31
0
1001
CONDUITCAD
1000
{"id":"e-mufq3hq0-2"}
0
LWPOLYLINE
5
1AC
330
121
100
AcDbEntity
8
0
100
AcDbPolyline
90
4
70
1
10
-22
20
-15
10
22
20
-15
10
22
20
15
10
-22
20
15
1001
CONDUITCAD
1000
{"id":"e-mufq3hq0-z"}
0
LINE
5
1AD
330
121
100
AcDbEntity
8
0
100
AcDbLine
10
-17
20
-12
30
0
11
17
21
12
31
0
1001
CONDUITCAD
1000
{"id":"e-mufq3hq0-10"}
0
LWPOLYLINE
5
1AE
330
121
100
AcDbEntity
8
0
100
AcDbPolyline
90
4
70
0
10
-8
20
-15
10
5
20
-37
10
18
20
-30
10
12
20
-15
1001
CONDUITCAD
1000
{"id":"e-mufq3hq0-11"}
0
ENDBLK
5
1AF
330
121
100
AcDbEntity
8
0
100
AcDbBlockEnd
0
BLOCK
5
1B0
330
122
100
AcDbEntity
8
0
100
AcDbBlockBegin
2
CC_FILTER
70
0
10
0
20
0
30
0
3
CC_FILTER
1

1001
CONDUITCAD
1000
{"ports":[{"name":"in","x":-45,"y":0,"dx":-1,"dy":0},{"name":"out","x":45,"y":0,"dx":1,"dy":0},{"name":"top","x":0,"y":45,"dx":0,"dy":1},{"name":"bottom","x":0,"y":-45,"dx":0,"dy":-1}],"symbol":{"name
1000
":"Inline filter","category":"P&ID","labelOffset":57}}
0
LINE
5
1B1
330
122
100
AcDbEntity
8
0
100
AcDbLine
10
-45
20
0
30
0
11
-25
21
0
31
0
1001
CONDUITCAD
1000
{"id":"e-mufq3hq0-1"}
0
LINE
5
1B2
330
122
100
AcDbEntity
8
0
100
AcDbLine
10
25
20
0
30
0
11
45
21
0
31
0
1001
CONDUITCAD
1000
{"id":"e-mufq3hq0-2"}
0
LWPOLYLINE
5
1B3
330
122
100
AcDbEntity
8
0
100
AcDbPolyline
90
4
70
1
10
-25
20
-28
10
25
20
-28
10
25
20
28
10
-25
20
28
1001
CONDUITCAD
1000
{"id":"e-mufq3hq0-12"}
0
LINE
5
1B4
330
122
100
AcDbEntity
8
0
100
AcDbLine
10
-25
20
-28
30
0
11
25
21
28
31
0
1001
CONDUITCAD
1000
{"id":"e-mufq3hq0-13"}
0
LINE
5
1B5
330
122
100
AcDbEntity
8
0
100
AcDbLine
10
-25
20
28
30
0
11
25
21
-28
31
0
1001
CONDUITCAD
1000
{"id":"e-mufq3hq0-14"}
0
ENDBLK
5
1B6
330
122
100
AcDbEntity
8
0
100
AcDbBlockEnd
0
BLOCK
5
1B7
330
123
100
AcDbEntity
8
0
100
AcDbBlockBegin
2
CC_HEAT_EXCHANGER
70
0
10
0
20
0
30
0
3
CC_HEAT_EXCHANGER
1

1001
CONDUITCAD
1000
{"ports":[{"name":"in","x":-45,"y":0,"dx":-1,"dy":0},{"name":"out","x":45,"y":0,"dx":1,"dy":0},{"name":"top","x":0,"y":45,"dx":0,"dy":1},{"name":"bottom","x":0,"y":-45,"dx":0,"dy":-1}],"symbol":{"name
1000
":"Heat exchanger","category":"P&ID","labelOffset":57}}
0
LINE
5
1B8
330
123
100
AcDbEntity
8
0
100
AcDbLine
10
-45
20
0
30
0
11
-25
21
0
31
0
1001
CONDUITCAD
1000
{"id":"e-mufq3hq0-1"}
0
LINE
5
1B9
330
123
100
AcDbEntity
8
0
100
AcDbLine
10
25
20
0
30
0
11
45
21
0
31
0
1001
CONDUITCAD
1000
{"id":"e-mufq3hq0-2"}
0
CIRCLE
5
1BA
330
123
100
AcDbEntity
8
0
100
AcDbCircle
10
0
20
0
30
0
40
33
1001
CONDUITCAD
1000
{"id":"e-mufq3hq0-15"}
0
LWPOLYLINE
5
1BB
330
123
100
AcDbEntity
8
0
100
AcDbPolyline
90
6
70
0
10
-32
20
0
10
-17
20
15
10
-5
20
-15
10
8
20
15
10
21
20
-15
10
33
20
0
1001
CONDUITCAD
1000
{"id":"e-mufq3hq0-16"}
0
LINE
5
1BC
330
123
100
AcDbEntity
8
0
100
AcDbLine
10
0
20
33
30
0
11
0
21
45
31
0
1001
CONDUITCAD
1000
{"id":"e-mufq3hq0-17"}
0
LINE
5
1BD
330
123
100
AcDbEntity
8
0
100
AcDbLine
10
0
20
-33
30
0
11
0
21
-45
31
0
1001
CONDUITCAD
1000
{"id":"e-mufq3hq0-18"}
0
ENDBLK
5
1BE
330
123
100
AcDbEntity
8
0
100
AcDbBlockEnd
0
BLOCK
5
1BF
330
124
100
AcDbEntity
8
0
100
AcDbBlockBegin
2
CC_TANK
70
0
10
0
20
0
30
0
3
CC_TANK
1

1001
CONDUITCAD
1000
{"ports":[{"name":"in","x":-45,"y":0,"dx":-1,"dy":0},{"name":"out","x":45,"y":0,"dx":1,"dy":0},{"name":"top","x":0,"y":75,"dx":0,"dy":1},{"name":"bottom","x":0,"y":-88,"dx":0,"dy":-1}],"symbol":{"name
1000
":"Storage tank","category":"P&ID","labelOffset":112}}
0
LINE
5
1C0
330
124
100
AcDbEntity
8
0
100
AcDbLine
10
-35
20
-43
30
0
11
-35
21
40
31
0
1001
CONDUITCAD
1000
{"id":"e-mufq3hq0-19"}
0
LINE
5
1C1
330
124
100
AcDbEntity
8
0
100
AcDbLine
10
35
20
-43
30
0
11
35
21
40
31
0
1001
CONDUITCAD
1000
{"id":"e-mufq3hq0-1a"}
0
LWPOLYLINE
5
1C2
330
124
100
AcDbEntity
8
0
100
AcDbPolyline
90
13
70
0
10
35
20
40
10
33.807403920117
20
49.058666578588
10
30.310889132455
20
57.5
10
24.748737341529
20
64.748737341529
10
17.5
20
70.310889132455
10
9.0586665785882
20
73.807403920117
10
2.1431318985079e-15
20
75
10
-9.0586665785882
20
73.807403920117
10
-17.5
20
70.310889132455
10
-24.748737341529
20
64.748737341529
10
-30.310889132455
20
57.5
10
-33.807403920117
20
49.058666578588
10
-35
20
40
1001
CONDUITCAD
1000
{"id":"e-mufq3hq0-1b"}
0
LWPOLYLINE
5
1C3
330
124
100
AcDbEntity
8
0
100
AcDbPolyline
90
13
70
0
10
-35
20
-43
10
-33.807403920117
20
-52.058666578588
10
-30.310889132455
20
-60.5
10
-24.748737341529
20
-67.748737341529
10
-17.5
20
-73.310889132455
10
-9.0586665785882
20
-76.807403920117
10
-6.4293956955236e-15
20
-78
10
9.0586665785882
20
-76.807403920117
10
17.5
20
-73.310889132455
10
24.748737341529
20
-67.748737341529
10
30.310889132455
20
-60.5
10
33.807403920117
20
-52.058666578588
10
35
20
-43
1001
CONDUITCAD
1000
{"id":"e-mufq3hq0-1c"}
0
LINE
5
1C4
330
124
100
AcDbEntity
8
0
100
AcDbLine
10
-45
20
0
30
0
11
-35
21
0
31
0
1001
CONDUITCAD
1000
{"id":"e-mufq3hq0-1d"}
0
LINE
5
1C5
330
124
100
AcDbEntity
8
0
100
AcDbLine
10
35
20
0
30
0
11
45
21
0
31
0
1001
CONDUITCAD
1000
{"id":"e-mufq3hq0-1e"}
0
LINE
5
1C6
330
124
100
AcDbEntity
8
0
100
AcDbLine
10
0
20
-78
30
0
11
0
21
-88
31
0
1001
CONDUITCAD
1000
{"id":"e-mufq3hq0-1f"}
0
ENDBLK
5
1C7
330
124
100
AcDbEntity
8
0
100
AcDbBlockEnd
0
BLOCK
5
1C8
330
125
100
AcDbEntity
8
0
100
AcDbBlockBegin
2
CC_VESSEL
70
0
10
0
20
0
30
0
3
CC_VESSEL
1

1001
CONDUITCAD
1000
{"ports":[{"name":"in","x":-45,"y":0,"dx":-1,"dy":0},{"name":"out","x":45,"y":0,"dx":1,"dy":0},{"name":"top","x":0,"y":65,"dx":0,"dy":1},{"name":"bottom","x":0,"y":-50,"dx":0,"dy":-1}],"symbol":{"name
1000
":"Pressure vessel","category":"P&ID","labelOffset":83}}
0
LWPOLYLINE
5
1C9
330
125
100
AcDbEntity
8
0
100
AcDbPolyline
90
4
70
1
10
-27
20
-50
10
27
20
-50
10
27
20
50
10
-27
20
50
1001
CONDUITCAD
1000
{"id":"e-mufq3hq0-1g"}
0
LINE
5
1CA
330
125
100
AcDbEntity
8
0
100
AcDbLine
10
-15
20
-50
30
0
11
-15
21
-65
31
0
1001
CONDUITCAD
1000
{"id":"e-mufq3hq0-1h"}
0
LINE
5
1CB
330
125
100
AcDbEntity
8
0
100
AcDbLine
10
15
20
-50
30
0
11
15
21
-65
31
0
1001
CONDUITCAD
1000
{"id":"e-mufq3hq0-1i"}
0
LINE
5
1CC
330
125
100
AcDbEntity
8
0
100
AcDbLine
10
-45
20
0
30
0
11
-27
21
0
31
0
1001
CONDUITCAD
1000
{"id":"e-mufq3hq0-1j"}
0
LINE
5
1CD
330
125
100
AcDbEntity
8
0
100
AcDbLine
10
27
20
0
30
0
11
45
21
0
31
0
1001
CONDUITCAD
1000
{"id":"e-mufq3hq0-1k"}
0
LINE
5
1CE
330
125
100
AcDbEntity
8
0
100
AcDbLine
10
0
20
50
30
0
11
0
21
65
31
0
1001
CONDUITCAD
1000
{"id":"e-mufq3hq0-1l"}
0
ENDBLK
5
1CF
330
125
100
AcDbEntity
8
0
100
AcDbBlockEnd
0
BLOCK
5
1D0
330
126
100
AcDbEntity
8
0
100
AcDbBlockBegin
2
CC_MIXER
70
0
10
0
20
0
30
0
3
CC_MIXER
1

1001
CONDUITCAD
1000
{"ports":[{"name":"in","x":-45,"y":0,"dx":-1,"dy":0},{"name":"out","x":45,"y":0,"dx":1,"dy":0},{"name":"top","x":0,"y":45,"dx":0,"dy":1},{"name":"bottom","x":0,"y":-45,"dx":0,"dy":-1}],"symbol":{"name
1000
":"Agitated vessel","category":"P&ID","labelOffset":66}}
0
LWPOLYLINE
5
1D1
330
126
100
AcDbEntity
8
0
100
AcDbPolyline
90
4
70
1
10
-32
20
-45
10
32
20
-45
10
32
20
45
10
-32
20
45
1001
CONDUITCAD
1000
{"id":"e-mufq3hq0-1m"}
0
LINE
5
1D2
330
126
100
AcDbEntity
8
0
100
AcDbLine
10
0
20
45
30
0
11
0
21
65
31
0
1001
CONDUITCAD
1000
{"id":"e-mufq3hq0-1n"}
0
LWPOLYLINE
5
1D3
330
126
100
AcDbEntity
8
0
100
AcDbPolyline
90
4
70
1
10
-12
20
65
10
12
20
65
10
12
20
83
10
-12
20
83
1001
CONDUITCAD
1000
{"id":"e-mufq3hq0-1o"}
0
LINE
5
1D4
330
126
100
AcDbEntity
8
0
100
AcDbLine
10
0
20
45
30
0
11
0
21
-22
31
0
1001
CONDUITCAD
1000
{"id":"e-mufq3hq0-1p"}
0
LINE
5
1D5
330
126
100
AcDbEntity
8
0
100
AcDbLine
10
-23
20
-12
30
0
11
23
21
-28
31
0
1001
CONDUITCAD
1000
{"id":"e-mufq3hq0-1q"}
0
LINE
5
1D6
330
126
100
AcDbEntity
8
0
100
AcDbLine
10
-45
20
0
30
0
11
-32
21
0
31
0
1001
CONDUITCAD
1000
{"id":"e-mufq3hq0-1r"}
0
LINE
5
1D7
330
126
100
AcDbEntity
8
0
100
AcDbLine
10
32
20
0
30
0
11
45
21
0
31
0
1001
CONDUITCAD
1000
{"id":"e-mufq3hq0-1s"}
0
ENDBLK
5
1D8
330
126
100
AcDbEntity
8
0
100
AcDbBlockEnd
0
BLOCK
5
1D9
330
127
100
AcDbEntity
8
0
100
AcDbBlockBegin
2
CC_PRESSURE_INDICATOR
70
0
10
0
20
0
30
0
3
CC_PRESSURE_INDICATOR
1

1001
CONDUITCAD
1000
{"ports":[{"name":"sense","x":0,"y":-45,"dx":0,"dy":-1}],"symbol":{"name":"Pressure indicator","category":"P&ID","labelOffset":65}}
0
CIRCLE
5
1DA
330
127
100
AcDbEntity
8
0
100
AcDbCircle
10
0
20
0
30
0
40
26
1001
CONDUITCAD
1000
{"id":"e-mufq3hq0-1t"}
0
TEXT
5
1DB
330
127
100
AcDbEntity
8
0
100
AcDbText
10
0
20
-5
30
0
40
15
1
PI
50
0
41
1
7
STANDARD
72
1
11
0
21
-5
31
0
100
AcDbText
1001
CONDUITCAD
1000
{"id":"e-mufq3hq0-1u"}
0
LINE
5
1DC
330
127
100
AcDbEntity
8
0
100
AcDbLine
10
0
20
-26
30
0
11
0
21
-45
31
0
1001
CONDUITCAD
1000
{"id":"e-mufq3hq0-1v"}
0
ENDBLK
5
1DD
330
127
100
AcDbEntity
8
0
100
AcDbBlockEnd
0
BLOCK
5
1DE
330
128
100
AcDbEntity
8
0
100
AcDbBlockBegin
2
CC_FLOW_TRANSMITTER
70
0
10
0
20
0
30
0
3
CC_FLOW_TRANSMITTER
1

1001
CONDUITCAD
1000
{"ports":[{"name":"sense","x":0,"y":-45,"dx":0,"dy":-1}],"symbol":{"name":"Flow transmitter","category":"P&ID","labelOffset":65}}
0
CIRCLE
5
1DF
330
128
100
AcDbEntity
8
0
100
AcDbCircle
10
0
20
0
30
0
40
26
1001
CONDUITCAD
1000
{"id":"e-mufq3hq0-1w"}
0
TEXT
5
1E0
330
128
100
AcDbEntity
8
0
100
AcDbText
10
0
20
-5
30
0
40
15
1
FT
50
0
41
1
7
STANDARD
72
1
11
0
21
-5
31
0
100
AcDbText
1001
CONDUITCAD
1000
{"id":"e-mufq3hq0-1x"}
0
LINE
5
1E1
330
128
100
AcDbEntity
8
0
100
AcDbLine
10
0
20
-26
30
0
11
0
21
-45
31
0
1001
CONDUITCAD
1000
{"id":"e-mufq3hq0-1y"}
0
ENDBLK
5
1E2
330
128
100
AcDbEntity
8
0
100
AcDbBlockEnd
0
BLOCK
5
1E3
330
129
100
AcDbEntity
8
0
100
AcDbBlockBegin
2
CC_TEMPERATURE
70
0
10
0
20
0
30
0
3
CC_TEMPERATURE
1

1001
CONDUITCAD
1000
{"ports":[{"name":"sense","x":0,"y":-45,"dx":0,"dy":-1}],"symbol":{"name":"Temperature sensor","category":"P&ID","labelOffset":65}}
0
CIRCLE
5
1E4
330
129
100
AcDbEntity
8
0
100
AcDbCircle
10
0
20
0
30
0
40
26
1001
CONDUITCAD
1000
{"id":"e-mufq3hq0-1z"}
0
TEXT
5
1E5
330
129
100
AcDbEntity
8
0
100
AcDbText
10
0
20
-5
30
0
40
15
1
TT
50
0
41
1
7
STANDARD
72
1
11
0
21
-5
31
0
100
AcDbText
1001
CONDUITCAD
1000
{"id":"e-mufq3hq0-20"}
0
LINE
5
1E6
330
129
100
AcDbEntity
8
0
100
AcDbLine
10
0
20
-26
30
0
11
0
21
-45
31
0
1001
CONDUITCAD
1000
{"id":"e-mufq3hq0-21"}
0
ENDBLK
5
1E7
330
129
100
AcDbEntity
8
0
100
AcDbBlockEnd
0
BLOCK
5
1E8
330
12A
100
AcDbEntity
8
0
100
AcDbBlockBegin
2
CC_LEVEL_TRANSMITTER
70
0
10
0
20
0
30
0
3
CC_LEVEL_TRANSMITTER
1

1001
CONDUITCAD
1000
{"ports":[{"name":"sense","x":-45,"y":0,"dx":-1,"dy":0}],"symbol":{"name":"Level transmitter","category":"P&ID","labelOffset":57}}
0
CIRCLE
5
1E9
330
12A
100
AcDbEntity
8
0
100
AcDbCircle
10
0
20
0
30
0
40
26
1001
CONDUITCAD
1000
{"id":"e-mufq3hq0-22"}
0
TEXT
5
1EA
330
12A
100
AcDbEntity
8
0
100
AcDbText
10
0
20
-5
30
0
40
15
1
LT
50
0
41
1
7
STANDARD
72
1
11
0
21
-5
31
0
100
AcDbText
1001
CONDUITCAD
1000
{"id":"e-mufq3hq0-23"}
0
LINE
5
1EB
330
12A
100
AcDbEntity
8
0
100
AcDbLine
10
-26
20
0
30
0
11
-45
21
0
31
0
1001
CONDUITCAD
1000
{"id":"e-mufq3hq0-24"}
0
ENDBLK
5
1EC
330
12A
100
AcDbEntity
8
0
100
AcDbBlockEnd
0
BLOCK
5
1ED
330
12B
100
AcDbEntity
8
0
100
AcDbBlockBegin
2
CC_REDUCER
70
0
10
0
20
0
30
0
3
CC_REDUCER
1

1001
CONDUITCAD
1000
{"ports":[{"name":"in","x":-45,"y":0,"dx":-1,"dy":0},{"name":"out","x":45,"y":0,"dx":1,"dy":0}],"symbol":{"name":"Concentric reducer","category":"P&ID","labelOffset":57}}
0
LINE
5
1EE
330
12B
100
AcDbEntity
8
0
100
AcDbLine
10
-45
20
0
30
0
11
-28
21
0
31
0
1001
CONDUITCAD
1000
{"id":"e-mufq3hq0-25"}
0
LWPOLYLINE
5
1EF
330
12B
100
AcDbEntity
8
0
100
AcDbPolyline
90
4
70
1
10
-28
20
-20
10
25
20
-10
10
25
20
10
10
-28
20
20
1001
CONDUITCAD
1000
{"id":"e-mufq3hq0-26"}
0
LINE
5
1F0
330
12B
100
AcDbEntity
8
0
100
AcDbLine
10
25
20
0
30
0
11
45
21
0
31
0
1001
CONDUITCAD
1000
{"id":"e-mufq3hq0-27"}
0
ENDBLK
5
1F1
330
12B
100
AcDbEntity
8
0
100
AcDbBlockEnd
0
BLOCK
5
1F2
330
12C
100
AcDbEntity
8
0
100
AcDbBlockBegin
2
CC_FLANGE
70
0
10
0
20
0
30
0
3
CC_FLANGE
1

1001
CONDUITCAD
1000
{"ports":[{"name":"in","x":-45,"y":0,"dx":-1,"dy":0},{"name":"out","x":45,"y":0,"dx":1,"dy":0}],"symbol":{"name":"Flanged joint","category":"P&ID","labelOffset":57}}
0
LINE
5
1F3
330
12C
100
AcDbEntity
8
0
100
AcDbLine
10
-45
20
0
30
0
11
-5
21
0
31
0
1001
CONDUITCAD
1000
{"id":"e-mufq3hq0-28"}
0
LINE
5
1F4
330
12C
100
AcDbEntity
8
0
100
AcDbLine
10
5
20
0
30
0
11
45
21
0
31
0
1001
CONDUITCAD
1000
{"id":"e-mufq3hq0-29"}
0
LINE
5
1F5
330
12C
100
AcDbEntity
8
0
100
AcDbLine
10
-5
20
-23
30
0
11
-5
21
23
31
0
1001
CONDUITCAD
1000
{"id":"e-mufq3hq0-2a"}
0
LINE
5
1F6
330
12C
100
AcDbEntity
8
0
100
AcDbLine
10
5
20
-23
30
0
11
5
21
23
31
0
1001
CONDUITCAD
1000
{"id":"e-mufq3hq0-2b"}
0
ENDBLK
5
1F7
330
12C
100
AcDbEntity
8
0
100
AcDbBlockEnd
0
BLOCK
5
1F8
330
12D
100
AcDbEntity
8
0
100
AcDbBlockBegin
2
CC_OFFPAGE
70
0
10
0
20
0
30
0
3
CC_OFFPAGE
1

1001
CONDUITCAD
1000
{"ports":[{"name":"in","x":-45,"y":0,"dx":-1,"dy":0},{"name":"out","x":45,"y":0,"dx":1,"dy":0}],"symbol":{"name":"Off-page connector","category":"P&ID","labelOffset":57}}
0
LWPOLYLINE
5
1F9
330
12D
100
AcDbEntity
8
0
100
AcDbPolyline
90
5
70
1
10
-40
20
-17
10
24
20
-17
10
44
20
0
10
24
20
17
10
-40
20
17
1001
CONDUITCAD
1000
{"id":"e-mufq3hq0-2c"}
0
TEXT
5
1FA
330
12D
100
AcDbEntity
8
0
100
AcDbText
10
-4
20
-5
30
0
40
13
1
PW
50
0
41
1
7
STANDARD
72
1
11
-4
21
-5
31
0
100
AcDbText
1001
CONDUITCAD
1000
{"id":"e-mufq3hq0-2d"}
0
ENDBLK
5
1FB
330
12D
100
AcDbEntity
8
0
100
AcDbBlockEnd
0
BLOCK
5
1FC
330
12E
100
AcDbEntity
8
0
100
AcDbBlockBegin
2
CC_RESISTOR
70
0
10
0
20
0
30
0
3
CC_RESISTOR
1

1001
CONDUITCAD
1000
{"ports":[{"name":"in","x":-45,"y":0,"dx":-1,"dy":0},{"name":"out","x":45,"y":0,"dx":1,"dy":0}],"symbol":{"name":"Resistor","category":"Electrical","labelOffset":57}}
0
LINE
5
1FD
330
12E
100
AcDbEntity
8
0
100
AcDbLine
10
-45
20
0
30
0
11
-25
21
0
31
0
1001
CONDUITCAD
1000
{"id":"e-mufq3hq0-1"}
0
LINE
5
1FE
330
12E
100
AcDbEntity
8
0
100
AcDbLine
10
25
20
0
30
0
11
45
21
0
31
0
1001
CONDUITCAD
1000
{"id":"e-mufq3hq0-2"}
0
LWPOLYLINE
5
1FF
330
12E
100
AcDbEntity
8
0
100
AcDbPolyline
90
7
70
0
10
-25
20
0
10
-19
20
12
10
-10
20
-12
10
0
20
12
10
10
20
-12
10
19
20
12
10
25
20
0
1001
CONDUITCAD
1000
{"id":"e-mufq3hq0-2e"}
0
ENDBLK
5
200
330
12E
100
AcDbEntity
8
0
100
AcDbBlockEnd
0
BLOCK
5
201
330
12F
100
AcDbEntity
8
0
100
AcDbBlockBegin
2
CC_RESISTOR_IEC
70
0
10
0
20
0
30
0
3
CC_RESISTOR_IEC
1

1001
CONDUITCAD
1000
{"ports":[{"name":"in","x":-45,"y":0,"dx":-1,"dy":0},{"name":"out","x":45,"y":0,"dx":1,"dy":0}],"symbol":{"name":"Resistor \u00b7 rectangular","category":"Electrical","labelOffset":57}}
0
LINE
5
202
330
12F
100
AcDbEntity
8
0
100
AcDbLine
10
-45
20
0
30
0
11
-25
21
0
31
0
1001
CONDUITCAD
1000
{"id":"e-mufq3hq0-1"}
0
LINE
5
203
330
12F
100
AcDbEntity
8
0
100
AcDbLine
10
25
20
0
30
0
11
45
21
0
31
0
1001
CONDUITCAD
1000
{"id":"e-mufq3hq0-2"}
0
LWPOLYLINE
5
204
330
12F
100
AcDbEntity
8
0
100
AcDbPolyline
90
4
70
1
10
-25
20
-11
10
25
20
-11
10
25
20
11
10
-25
20
11
1001
CONDUITCAD
1000
{"id":"e-mufq3hq0-2f"}
0
ENDBLK
5
205
330
12F
100
AcDbEntity
8
0
100
AcDbBlockEnd
0
BLOCK
5
206
330
130
100
AcDbEntity
8
0
100
AcDbBlockBegin
2
CC_CAPACITOR
70
0
10
0
20
0
30
0
3
CC_CAPACITOR
1

1001
CONDUITCAD
1000
{"ports":[{"name":"in","x":-45,"y":0,"dx":-1,"dy":0},{"name":"out","x":45,"y":0,"dx":1,"dy":0}],"symbol":{"name":"Capacitor","category":"Electrical","labelOffset":57}}
0
LINE
5
207
330
130
100
AcDbEntity
8
0
100
AcDbLine
10
-45
20
0
30
0
11
-6
21
0
31
0
1001
CONDUITCAD
1000
{"id":"e-mufq3hq0-2g"}
0
LINE
5
208
330
130
100
AcDbEntity
8
0
100
AcDbLine
10
6
20
0
30
0
11
45
21
0
31
0
1001
CONDUITCAD
1000
{"id":"e-mufq3hq0-2h"}
0
LINE
5
209
330
130
100
AcDbEntity
8
0
100
AcDbLine
10
-6
20
-25
30
0
11
-6
21
25
31
0
1001
CONDUITCAD
1000
{"id":"e-mufq3hq0-2i"}
0
LINE
5
20A
330
130
100
AcDbEntity
8
0
100
AcDbLine
10
6
20
-25
30
0
11
6
21
25
31
0
1001
CONDUITCAD
1000
{"id":"e-mufq3hq0-2j"}
0
ENDBLK
5
20B
330
130
100
AcDbEntity
8
0
100
AcDbBlockEnd
0
BLOCK
5
20C
330
131
100
AcDbEntity
8
0
100
AcDbBlockBegin
2
CC_INDUCTOR
70
0
10
0
20
0
30
0
3
CC_INDUCTOR
1

1001
CONDUITCAD
1000
{"ports":[{"name":"in","x":-45,"y":0,"dx":-1,"dy":0},{"name":"out","x":45,"y":0,"dx":1,"dy":0}],"symbol":{"name":"Inductor","category":"Electrical","labelOffset":57}}
0
LINE
5
20D
330
131
100
AcDbEntity
8
0
100
AcDbLine
10
-45
20
0
30
0
11
-30
21
0
31
0
1001
CONDUITCAD
1000
{"id":"e-mufq3hq0-2k"}
0
LINE
5
20E
330
131
100
AcDbEntity
8
0
100
AcDbLine
10
30
20
0
30
0
11
45
21
0
31
0
1001
CONDUITCAD
1000
{"id":"e-mufq3hq0-2l"}
0
LWPOLYLINE
5
20F
330
131
100
AcDbEntity
8
0
100
AcDbPolyline
90
8
70
0
10
-30
20
9.1848509936051e-16
10
-29.257266509268
20
3.2541280433817
10
-27.176173513941
20
5.8637361185102
10
-24.168907004672
20
7.3119593413637
10
-20.831092995328
20
7.3119593413637
10
-17.823826486059
20
5.8637361185102
10
-15.742733490732
20
3.2541280433817
10
-15
20
0
1001
CONDUITCAD
1000
{"id":"e-mufq3hq0-2m"}
0
LWPOLYLINE
5
210
330
131
100
AcDbEntity
8
0
100
AcDbPolyline
90
8
70
0
10
-15
20
9.1848509936051e-16
10
-14.257266509268
20
3.2541280433817
10
-12.176173513941
20
5.8637361185102
10
-9.1689070046724
20
7.3119593413637
10
-5.8310929953276
20
7.3119593413637
10
-2.8238264860595
20
5.8637361185102
10
-0.74273349073186
20
3.2541280433817
10
0
20
0
1001
CONDUITCAD
1000
{"id":"e-mufq3hq0-2n"}
0
LWPOLYLINE
5
211
330
131
100
AcDbEntity
8
0
100
AcDbPolyline
90
8
70
0
10
0
20
9.1848509936051e-16
10
0.74273349073186
20
3.2541280433817
10
2.8238264860595
20
5.8637361185102
10
5.8310929953276
20
7.3119593413637
10
9.1689070046724
20
7.3119593413637
10
12.176173513941
20
5.8637361185102
10
14.257266509268
20
3.2541280433817
10
15
20
0
1001
CONDUITCAD
1000
{"id":"e-mufq3hq0-2o"}
0
LWPOLYLINE
5
212
330
131
100
AcDbEntity
8
0
100
AcDbPolyline
90
8
70
0
10
15
20
9.1848509936051e-16
10
15.742733490732
20
3.2541280433817
10
17.823826486059
20
5.8637361185102
10
20.831092995328
20
7.3119593413637
10
24.168907004672
20
7.3119593413637
10
27.176173513941
20
5.8637361185102
10
29.257266509268
20
3.2541280433817
10
30
20
0
1001
CONDUITCAD
1000
{"id":"e-mufq3hq0-2p"}
0
ENDBLK
5
213
330
131
100
AcDbEntity
8
0
100
AcDbBlockEnd
0
BLOCK
5
214
330
132
100
AcDbEntity
8
0
100
AcDbBlockBegin
2
CC_DIODE
70
0
10
0
20
0
30
0
3
CC_DIODE
1

1001
CONDUITCAD
1000
{"ports":[{"name":"in","x":-45,"y":0,"dx":-1,"dy":0},{"name":"out","x":45,"y":0,"dx":1,"dy":0}],"symbol":{"name":"Diode","category":"Electrical","labelOffset":57}}
0
LINE
5
215
330
132
100
AcDbEntity
8
0
100
AcDbLine
10
-45
20
0
30
0
11
-25
21
0
31
0
1001
CONDUITCAD
1000
{"id":"e-mufq3hq0-1"}
0
LINE
5
216
330
132
100
AcDbEntity
8
0
100
AcDbLine
10
25
20
0
30
0
11
45
21
0
31
0
1001
CONDUITCAD
1000
{"id":"e-mufq3hq0-2"}
0
LWPOLYLINE
5
217
330
132
100
AcDbEntity
8
0
100
AcDbPolyline
90
3
70
1
10
-22
20
-22
10
20
20
0
10
-22
20
22
1001
CONDUITCAD
1000
{"id":"e-mufq3hq0-2q"}
0
LINE
5
218
330
132
100
AcDbEntity
8
0
100
AcDbLine
10
22
20
-24
30
0
11
22
21
24
31
0
1001
CONDUITCAD
1000
{"id":"e-mufq3hq0-2r"}
0
ENDBLK
5
219
330
132
100
AcDbEntity
8
0
100
AcDbBlockEnd
0
BLOCK
5
21A
330
133
100
AcDbEntity
8
0
100
AcDbBlockBegin
2
CC_LED
70
0
10
0
20
0
30
0
3
CC_LED
1

1001
CONDUITCAD
1000
{"ports":[{"name":"in","x":-45,"y":0,"dx":-1,"dy":0},{"name":"out","x":45,"y":0,"dx":1,"dy":0}],"symbol":{"name":"LED","category":"Electrical","labelOffset":57}}
0
LINE
5
21B
330
133
100
AcDbEntity
8
0
100
AcDbLine
10
-45
20
0
30
0
11
-25
21
0
31
0
1001
CONDUITCAD
1000
{"id":"e-mufq3hq0-1"}
0
LINE
5
21C
330
133
100
AcDbEntity
8
0
100
AcDbLine
10
25
20
0
30
0
11
45
21
0
31
0
1001
CONDUITCAD
1000
{"id":"e-mufq3hq0-2"}
0
LWPOLYLINE
5
21D
330
133
100
AcDbEntity
8
0
100
AcDbPolyline
90
3
70
1
10
-22
20
-22
10
20
20
0
10
-22
20
22
1001
CONDUITCAD
1000
{"id":"e-mufq3hq0-2s"}
0
LINE
5
21E
330
133
100
AcDbEntity
8
0
100
AcDbLine
10
22
20
-24
30
0
11
22
21
24
31
0
1001
CONDUITCAD
1000
{"id":"e-mufq3hq0-2t"}
0
LWPOLYLINE
5
21F
330
133
100
AcDbEntity
8
0
100
AcDbPolyline
90
3
70
0
10
4
20
27
10
21
20
44
10
14
20
42
1001
CONDUITCAD
1000
{"id":"e-mufq3hq0-2u"}
0
LWPOLYLINE
5
220
330
133
100
AcDbEntity
8
0
100
AcDbPolyline
90
3
70
0
10
18
20
22
10
35
20
39
10
28
20
37
1001
CONDUITCAD
1000
{"id":"e-mufq3hq0-2v"}
0
ENDBLK
5
221
330
133
100
AcDbEntity
8
0
100
AcDbBlockEnd
0
BLOCK
5
222
330
134
100
AcDbEntity
8
0
100
AcDbBlockBegin
2
CC_SWITCH
70
0
10
0
20
0
30
0
3
CC_SWITCH
1

1001
CONDUITCAD
1000
{"ports":[{"name":"in","x":-45,"y":0,"dx":-1,"dy":0},{"name":"out","x":45,"y":0,"dx":1,"dy":0}],"symbol":{"name":"Switch \u00b7 normally open","category":"Electrical","labelOffset":57}}
0
LINE
5
223
330
134
100
AcDbEntity
8
0
100
AcDbLine
10
-45
20
0
30
0
11
-23
21
0
31
0
1001
CONDUITCAD
1000
{"id":"e-mufq3hq0-2w"}
0
LINE
5
224
330
134
100
AcDbEntity
8
0
100
AcDbLine
10
23
20
0
30
0
11
45
21
0
31
0
1001
CONDUITCAD
1000
{"id":"e-mufq3hq0-2x"}
0
CIRCLE
5
225
330
134
100
AcDbEntity
8
0
100
AcDbCircle
10
-22
20
0
30
0
40
3
1001
CONDUITCAD
1000
{"id":"e-mufq3hq0-2y"}
0
CIRCLE
5
226
330
134
100
AcDbEntity
8
0
100
AcDbCircle
10
22
20
0
30
0
40
3
1001
CONDUITCAD
1000
{"id":"e-mufq3hq0-2z"}
0
LINE
5
227
330
134
100
AcDbEntity
8
0
100
AcDbLine
10
-20
20
2
30
0
11
19
21
26
31
0
1001
CONDUITCAD
1000
{"id":"e-mufq3hq0-30"}
0
ENDBLK
5
228
330
134
100
AcDbEntity
8
0
100
AcDbBlockEnd
0
BLOCK
5
229
330
135
100
AcDbEntity
8
0
100
AcDbBlockBegin
2
CC_SWITCH_NC
70
0
10
0
20
0
30
0
3
CC_SWITCH_NC
1

1001
CONDUITCAD
1000
{"ports":[{"name":"in","x":-45,"y":0,"dx":-1,"dy":0},{"name":"out","x":45,"y":0,"dx":1,"dy":0}],"symbol":{"name":"Switch \u00b7 normally closed","category":"Electrical","labelOffset":57}}
0
LINE
5
22A
330
135
100
AcDbEntity
8
0
100
AcDbLine
10
-45
20
0
30
0
11
-23
21
0
31
0
1001
CONDUITCAD
1000
{"id":"e-mufq3hq0-31"}
0
LINE
5
22B
330
135
100
AcDbEntity
8
0
100
AcDbLine
10
23
20
0
30
0
11
45
21
0
31
0
1001
CONDUITCAD
1000
{"id":"e-mufq3hq0-32"}
0
CIRCLE
5
22C
330
135
100
AcDbEntity
8
0
100
AcDbCircle
10
-22
20
0
30
0
40
3
1001
CONDUITCAD
1000
{"id":"e-mufq3hq0-33"}
0
CIRCLE
5
22D
330
135
100
AcDbEntity
8
0
100
AcDbCircle
10
22
20
0
30
0
40
3
1001
CONDUITCAD
1000
{"id":"e-mufq3hq0-34"}
0
LINE
5
22E
330
135
100
AcDbEntity
8
0
100
AcDbLine
10
-20
20
2
30
0
11
21
21
2
31
0
1001
CONDUITCAD
1000
{"id":"e-mufq3hq0-35"}
0
LINE
5
22F
330
135
100
AcDbEntity
8
0
100
AcDbLine
10
0
20
2
30
0
11
0
21
23
31
0
1001
CONDUITCAD
1000
{"id":"e-mufq3hq0-36"}
0
ENDBLK
5
230
330
135
100
AcDbEntity
8
0
100
AcDbBlockEnd
0
BLOCK
5
231
330
136
100
AcDbEntity
8
0
100
AcDbBlockBegin
2
CC_FUSE
70
0
10
0
20
0
30
0
3
CC_FUSE
1

1001
CONDUITCAD
1000
{"ports":[{"name":"in","x":-45,"y":0,"dx":-1,"dy":0},{"name":"out","x":45,"y":0,"dx":1,"dy":0}],"symbol":{"name":"Fuse","category":"Electrical","labelOffset":57}}
0
LINE
5
232
330
136
100
AcDbEntity
8
0
100
AcDbLine
10
-45
20
0
30
0
11
45
21
0
31
0
1001
CONDUITCAD
1000
{"id":"e-mufq3hq0-37"}
0
LWPOLYLINE
5
233
330
136
100
AcDbEntity
8
0
100
AcDbPolyline
90
4
70
1
10
-24
20
-10
10
24
20
-10
10
24
20
10
10
-24
20
10
1001
CONDUITCAD
1000
{"id":"e-mufq3hq0-38"}
0
ENDBLK
5
234
330
136
100
AcDbEntity
8
0
100
AcDbBlockEnd
0
BLOCK
5
235
330
137
100
AcDbEntity
8
0
100
AcDbBlockBegin
2
CC_RELAY
70
0
10
0
20
0
30
0
3
CC_RELAY
1

1001
CONDUITCAD
1000
{"ports":[{"name":"in","x":-45,"y":0,"dx":-1,"dy":0},{"name":"out","x":45,"y":0,"dx":1,"dy":0}],"symbol":{"name":"Relay coil","category":"Electrical","labelOffset":57}}
0
LINE
5
236
330
137
100
AcDbEntity
8
0
100
AcDbLine
10
-45
20
0
30
0
11
-25
21
0
31
0
1001
CONDUITCAD
1000
{"id":"e-mufq3hq0-1"}
0
LINE
5
237
330
137
100
AcDbEntity
8
0
100
AcDbLine
10
25
20
0
30
0
11
45
21
0
31
0
1001
CONDUITCAD
1000
{"id":"e-mufq3hq0-2"}
0
LWPOLYLINE
5
238
330
137
100
AcDbEntity
8
0
100
AcDbPolyline
90
4
70
1
10
-25
20
-22
10
25
20
-22
10
25
20
22
10
-25
20
22
1001
CONDUITCAD
1000
{"id":"e-mufq3hq0-39"}
0
LINE
5
239
330
137
100
AcDbEntity
8
0
100
AcDbLine
10
-20
20
-18
30
0
11
20
21
18
31
0
1001
CONDUITCAD
1000
{"id":"e-mufq3hq0-3a"}
0
ENDBLK
5
23A
330
137
100
AcDbEntity
8
0
100
AcDbBlockEnd
0
BLOCK
5
23B
330
138
100
AcDbEntity
8
0
100
AcDbBlockBegin
2
CC_MOTOR
70
0
10
0
20
0
30
0
3
CC_MOTOR
1

1001
CONDUITCAD
1000
{"ports":[{"name":"in","x":-45,"y":0,"dx":-1,"dy":0},{"name":"out","x":45,"y":0,"dx":1,"dy":0},{"name":"top","x":0,"y":45,"dx":0,"dy":1},{"name":"bottom","x":0,"y":-45,"dx":0,"dy":-1}],"symbol":{"name
1000
":"Motor","category":"Electrical","labelOffset":57}}
0
LINE
5
23C
330
138
100
AcDbEntity
8
0
100
AcDbLine
10
-45
20
0
30
0
11
-25
21
0
31
0
1001
CONDUITCAD
1000
{"id":"e-mufq3hq0-1"}
0
LINE
5
23D
330
138
100
AcDbEntity
8
0
100
AcDbLine
10
25
20
0
30
0
11
45
21
0
31
0
1001
CONDUITCAD
1000
{"id":"e-mufq3hq0-2"}
0
CIRCLE
5
23E
330
138
100
AcDbEntity
8
0
100
AcDbCircle
10
0
20
0
30
0
40
29
1001
CONDUITCAD
1000
{"id":"e-mufq3hq0-3b"}
0
TEXT
5
23F
330
138
100
AcDbEntity
8
0
100
AcDbText
10
0
20
-7
30
0
40
22
1
M
50
0
41
1
7
STANDARD
72
1
11
0
21
-7
31
0
100
AcDbText
1001
CONDUITCAD
1000
{"id":"e-mufq3hq0-3c"}
0
ENDBLK
5
240
330
138
100
AcDbEntity
8
0
100
AcDbBlockEnd
0
BLOCK
5
241
330
139
100
AcDbEntity
8
0
100
AcDbBlockBegin
2
CC_GENERATOR
70
0
10
0
20
0
30
0
3
CC_GENERATOR
1

1001
CONDUITCAD
1000
{"ports":[{"name":"in","x":-45,"y":0,"dx":-1,"dy":0},{"name":"out","x":45,"y":0,"dx":1,"dy":0},{"name":"top","x":0,"y":45,"dx":0,"dy":1},{"name":"bottom","x":0,"y":-45,"dx":0,"dy":-1}],"symbol":{"name
1000
":"Generator","category":"Electrical","labelOffset":57}}
0
LINE
5
242
330
139
100
AcDbEntity
8
0
100
AcDbLine
10
-45
20
0
30
0
11
-25
21
0
31
0
1001
CONDUITCAD
1000
{"id":"e-mufq3hq0-1"}
0
LINE
5
243
330
139
100
AcDbEntity
8
0
100
AcDbLine
10
25
20
0
30
0
11
45
21
0
31
0
1001
CONDUITCAD
1000
{"id":"e-mufq3hq0-2"}
0
CIRCLE
5
244
330
139
100
AcDbEntity
8
0
100
AcDbCircle
10
0
20
0
30
0
40
29
1001
CONDUITCAD
1000
{"id":"e-mufq3hq0-3d"}
0
TEXT
5
245
330
139
100
AcDbEntity
8
0
100
AcDbText
10
0
20
-7
30
0
40
22
1
G
50
0
41
1
7
STANDARD
72
1
11
0
21
-7
31
0
100
AcDbText
1001
CONDUITCAD
1000
{"id":"e-mufq3hq0-3e"}
0
ENDBLK
5
246
330
139
100
AcDbEntity
8
0
100
AcDbBlockEnd
0
BLOCK
5
247
330
13A
100
AcDbEntity
8
0
100
AcDbBlockBegin
2
CC_TRANSFORMER
70
0
10
0
20
0
30
0
3
CC_TRANSFORMER
1

1001
CONDUITCAD
1000
{"ports":[{"name":"in","x":-45,"y":0,"dx":-1,"dy":0},{"name":"out","x":45,"y":0,"dx":1,"dy":0}],"symbol":{"name":"Transformer","category":"Electrical","labelOffset":57}}
0
LINE
5
248
330
13A
100
AcDbEntity
8
0
100
AcDbLine
10
-45
20
0
30
0
11
-27
21
0
31
0
1001
CONDUITCAD
1000
{"id":"e-mufq3hq0-3f"}
0
LINE
5
249
330
13A
100
AcDbEntity
8
0
100
AcDbLine
10
27
20
0
30
0
11
45
21
0
31
0
1001
CONDUITCAD
1000
{"id":"e-mufq3hq0-3g"}
0
CIRCLE
5
24A
330
13A
100
AcDbEntity
8
0
100
AcDbCircle
10
-14
20
0
30
0
40
18
1001
CONDUITCAD
1000
{"id":"e-mufq3hq0-3h"}
0
CIRCLE
5
24B
330
13A
100
AcDbEntity
8
0
100
AcDbCircle
10
14
20
0
30
0
40
18
1001
CONDUITCAD
1000
{"id":"e-mufq3hq0-3i"}
0
LINE
5
24C
330
13A
100
AcDbEntity
8
0
100
AcDbLine
10
-3
20
-28
30
0
11
-3
21
28
31
0
1001
CONDUITCAD
1000
{"id":"e-mufq3hq0-3j"}
0
LINE
5
24D
330
13A
100
AcDbEntity
8
0
100
AcDbLine
10
3
20
-28
30
0
11
3
21
28
31
0
1001
CONDUITCAD
1000
{"id":"e-mufq3hq0-3k"}
0
ENDBLK
5
24E
330
13A
100
AcDbEntity
8
0
100
AcDbBlockEnd
0
BLOCK
5
24F
330
13B
100
AcDbEntity
8
0
100
AcDbBlockBegin
2
CC_GROUND
70
0
10
0
20
0
30
0
3
CC_GROUND
1

1001
CONDUITCAD
1000
{"ports":[{"name":"terminal","x":0,"y":40,"dx":0,"dy":1}],"symbol":{"name":"Protective earth","category":"Electrical","labelOffset":57}}
0
LINE
5
250
330
13B
100
AcDbEntity
8
0
100
AcDbLine
10
0
20
40
30
0
11
0
21
5
31
0
1001
CONDUITCAD
1000
{"id":"e-mufq3hq0-3l"}
0
LINE
5
251
330
13B
100
AcDbEntity
8
0
100
AcDbLine
10
-26
20
5
30
0
11
26
21
5
31
0
1001
CONDUITCAD
1000
{"id":"e-mufq3hq0-3m"}
0
LINE
5
252
330
13B
100
AcDbEntity
8
0
100
AcDbLine
10
-17
20
-5
30
0
11
17
21
-5
31
0
1001
CONDUITCAD
1000
{"id":"e-mufq3hq0-3n"}
0
LINE
5
253
330
13B
100
AcDbEntity
8
0
100
AcDbLine
10
-8
20
-15
30
0
11
8
21
-15
31
0
1001
CONDUITCAD
1000
{"id":"e-mufq3hq0-3o"}
0
ENDBLK
5
254
330
13B
100
AcDbEntity
8
0
100
AcDbBlockEnd
0
BLOCK
5
255
330
13C
100
AcDbEntity
8
0
100
AcDbBlockBegin
2
CC_BATTERY
70
0
10
0
20
0
30
0
3
CC_BATTERY
1

1001
CONDUITCAD
1000
{"ports":[{"name":"in","x":-45,"y":0,"dx":-1,"dy":0},{"name":"out","x":45,"y":0,"dx":1,"dy":0}],"symbol":{"name":"Battery","category":"Electrical","labelOffset":57}}
0
LINE
5
256
330
13C
100
AcDbEntity
8
0
100
AcDbLine
10
-45
20
0
30
0
11
-18
21
0
31
0
1001
CONDUITCAD
1000
{"id":"e-mufq3hq0-3p"}
0
LINE
5
257
330
13C
100
AcDbEntity
8
0
100
AcDbLine
10
18
20
0
30
0
11
45
21
0
31
0
1001
CONDUITCAD
1000
{"id":"e-mufq3hq0-3q"}
0
LINE
5
258
330
13C
100
AcDbEntity
8
0
100
AcDbLine
10
-18
20
-24
30
0
11
-18
21
24
31
0
1001
CONDUITCAD
1000
{"id":"e-mufq3hq0-3r"}
0
LINE
5
259
330
13C
100
AcDbEntity
8
0
100
AcDbLine
10
-6
20
-12
30
0
11
-6
21
12
31
0
1001
CONDUITCAD
1000
{"id":"e-mufq3hq0-3s"}
0
LINE
5
25A
330
13C
100
AcDbEntity
8
0
100
AcDbLine
10
6
20
-24
30
0
11
6
21
24
31
0
1001
CONDUITCAD
1000
{"id":"e-mufq3hq0-3t"}
0
LINE
5
25B
330
13C
100
AcDbEntity
8
0
100
AcDbLine
10
18
20
-12
30
0
11
18
21
12
31
0
1001
CONDUITCAD
1000
{"id":"e-mufq3hq0-3u"}
0
ENDBLK
5
25C
330
13C
100
AcDbEntity
8
0
100
AcDbBlockEnd
0
BLOCK
5
25D
330
13D
100
AcDbEntity
8
0
100
AcDbBlockBegin
2
CC_TERMINAL
70
0
10
0
20
0
30
0
3
CC_TERMINAL
1

1001
CONDUITCAD
1000
{"ports":[{"name":"in","x":-45,"y":0,"dx":-1,"dy":0},{"name":"out","x":45,"y":0,"dx":1,"dy":0}],"symbol":{"name":"Terminal block","category":"Electrical","labelOffset":57}}
0
LINE
5
25E
330
13D
100
AcDbEntity
8
0
100
AcDbLine
10
-45
20
0
30
0
11
45
21
0
31
0
1001
CONDUITCAD
1000
{"id":"e-mufq3hq0-3v"}
0
CIRCLE
5
25F
330
13D
100
AcDbEntity
8
0
100
AcDbCircle
10
0
20
0
30
0
40
12
1001
CONDUITCAD
1000
{"id":"e-mufq3hq0-3w"}
0
LWPOLYLINE
5
260
330
13D
100
AcDbEntity
8
0
100
AcDbPolyline
90
4
70
1
10
-25
20
-25
10
25
20
-25
10
25
20
25
10
-25
20
25
1001
CONDUITCAD
1000
{"id":"e-mufq3hq0-3x"}
0
ENDBLK
5
261
330
13D
100
AcDbEntity
8
0
100
AcDbBlockEnd
0
BLOCK
5
262
330
13E
100
AcDbEntity
8
0
100
AcDbBlockBegin
2
CC_OP_AMP
70
0
10
0
20
0
30
0
3
CC_OP_AMP
1

1001
CONDUITCAD
1000
{"ports":[{"name":"positive","x":-45,"y":18,"dx":-1,"dy":0},{"name":"negative","x":-45,"y":-18,"dx":-1,"dy":0},{"name":"out","x":45,"y":0,"dx":1,"dy":0}],"symbol":{"name":"Operational amplifier","cate
1000
gory":"Electrical","labelOffset":57}}
0
LWPOLYLINE
5
263
330
13E
100
AcDbEntity
8
0
100
AcDbPolyline
90
3
70
1
10
-30
20
-35
10
35
20
0
10
-30
20
35
1001
CONDUITCAD
1000
{"id":"e-mufq3hq0-3y"}
0
LINE
5
264
330
13E
100
AcDbEntity
8
0
100
AcDbLine
10
-45
20
18
30
0
11
-30
21
18
31
0
1001
CONDUITCAD
1000
{"id":"e-mufq3hq0-3z"}
0
LINE
5
265
330
13E
100
AcDbEntity
8
0
100
AcDbLine
10
-45
20
-18
30
0
11
-30
21
-18
31
0
1001
CONDUITCAD
1000
{"id":"e-mufq3hq0-40"}
0
LINE
5
266
330
13E
100
AcDbEntity
8
0
100
AcDbLine
10
35
20
0
30
0
11
45
21
0
31
0
1001
CONDUITCAD
1000
{"id":"e-mufq3hq0-41"}
0
TEXT
5
267
330
13E
100
AcDbEntity
8
0
100
AcDbText
10
-20
20
13
30
0
40
12
1
+
50
0
41
1
7
STANDARD
72
1
11
-20
21
13
31
0
100
AcDbText
1001
CONDUITCAD
1000
{"id":"e-mufq3hq0-42"}
0
TEXT
5
268
330
13E
100
AcDbEntity
8
0
100
AcDbText
10
-20
20
-23
30
0
40
12
1
−
50
0
41
1
7
STANDARD
72
1
11
-20
21
-23
31
0
100
AcDbText
1001
CONDUITCAD
1000
{"id":"e-mufq3hq0-43"}
0
ENDBLK
5
269
330
13E
100
AcDbEntity
8
0
100
AcDbBlockEnd
0
BLOCK
5
26A
330
13F
100
AcDbEntity
8
0
100
AcDbBlockBegin
2
CC_LAMP
70
0
10
0
20
0
30
0
3
CC_LAMP
1

1001
CONDUITCAD
1000
{"ports":[{"name":"in","x":-45,"y":0,"dx":-1,"dy":0},{"name":"out","x":45,"y":0,"dx":1,"dy":0}],"symbol":{"name":"Indicator lamp","category":"Electrical","labelOffset":57}}
0
LINE
5
26B
330
13F
100
AcDbEntity
8
0
100
AcDbLine
10
-45
20
0
30
0
11
-25
21
0
31
0
1001
CONDUITCAD
1000
{"id":"e-mufq3hq0-1"}
0
LINE
5
26C
330
13F
100
AcDbEntity
8
0
100
AcDbLine
10
25
20
0
30
0
11
45
21
0
31
0
1001
CONDUITCAD
1000
{"id":"e-mufq3hq0-2"}
0
CIRCLE
5
26D
330
13F
100
AcDbEntity
8
0
100
AcDbCircle
10
0
20
0
30
0
40
24
1001
CONDUITCAD
1000
{"id":"e-mufq3hq0-44"}
0
LINE
5
26E
330
13F
100
AcDbEntity
8
0
100
AcDbLine
10
-17
20
-17
30
0
11
17
21
17
31
0
1001
CONDUITCAD
1000
{"id":"e-mufq3hq0-45"}
0
LINE
5
26F
330
13F
100
AcDbEntity
8
0
100
AcDbLine
10
-17
20
17
30
0
11
17
21
-17
31
0
1001
CONDUITCAD
1000
{"id":"e-mufq3hq0-46"}
0
ENDBLK
5
270
330
13F
100
AcDbEntity
8
0
100
AcDbBlockEnd
0
BLOCK
5
271
330
140
100
AcDbEntity
8
0
100
AcDbBlockBegin
2
CC_PROCESS
70
0
10
0
20
0
30
0
3
CC_PROCESS
1

1001
CONDUITCAD
1000
{"ports":[{"name":"in","x":0,"y":35,"dx":0,"dy":1},{"name":"out","x":0,"y":-35,"dx":0,"dy":-1},{"name":"left","x":-55,"y":0,"dx":-1,"dy":0},{"name":"right","x":55,"y":0,"dx":1,"dy":0}],"symbol":{"name
1000
":"Process","category":"Flow","labelOffset":55}}
0
LWPOLYLINE
5
272
330
140
100
AcDbEntity
8
0
100
AcDbPolyline
90
4
70
1
10
-55
20
-35
10
55
20
-35
10
55
20
35
10
-55
20
35
1001
CONDUITCAD
1000
{"id":"e-mufq3hq0-47"}
0
TEXT
5
273
330
140
100
AcDbEntity
8
0
100
AcDbText
10
0
20
-5
30
0
40
14
1
Process
50
0
41
1
7
STANDARD
72
1
11
0
21
-5
31
0
100
AcDbText
1001
CONDUITCAD
1000
{"id":"e-mufq3hq0-48"}
0
ENDBLK
5
274
330
140
100
AcDbEntity
8
0
100
AcDbBlockEnd
0
BLOCK
5
275
330
141
100
AcDbEntity
8
0
100
AcDbBlockBegin
2
CC_DECISION
70
0
10
0
20
0
30
0
3
CC_DECISION
1

1001
CONDUITCAD
1000
{"ports":[{"name":"in","x":0,"y":42,"dx":0,"dy":1},{"name":"out","x":0,"y":-42,"dx":0,"dy":-1},{"name":"yes","x":60,"y":0,"dx":1,"dy":0},{"name":"no","x":-60,"y":0,"dx":-1,"dy":0}],"symbol":{"name":"D
1000
ecision","category":"Flow","labelOffset":57}}
0
LWPOLYLINE
5
276
330
141
100
AcDbEntity
8
0
100
AcDbPolyline
90
4
70
1
10
0
20
42
10
60
20
0
10
0
20
-42
10
-60
20
0
1001
CONDUITCAD
1000
{"id":"e-mufq3hq0-49"}
0
TEXT
5
277
330
141
100
AcDbEntity
8
0
100
AcDbText
10
0
20
-5
30
0
40
13
1
Decision
50
0
41
1
7
STANDARD
72
1
11
0
21
-5
31
0
100
AcDbText
1001
CONDUITCAD
1000
{"id":"e-mufq3hq0-4a"}
0
ENDBLK
5
278
330
141
100
AcDbEntity
8
0
100
AcDbBlockEnd
0
BLOCK
5
279
330
142
100
AcDbEntity
8
0
100
AcDbBlockBegin
2
CC_TERMINATOR
70
0
10
0
20
0
30
0
3
CC_TERMINATOR
1

1001
CONDUITCAD
1000
{"ports":[{"name":"in","x":0,"y":30,"dx":0,"dy":1},{"name":"out","x":0,"y":-30,"dx":0,"dy":-1}],"symbol":{"name":"Start / end","category":"Flow","labelOffset":57}}
0
LWPOLYLINE
5
27A
330
142
100
AcDbEntity
8
0
100
AcDbPolyline
90
26
70
1
10
-25
20
30
10
-32.764571353076
20
28.977774788672
10
-40
20
25.980762113533
10
-46.213203435596
20
21.213203435596
10
-50.980762113533
20
15
10
-53.977774788672
20
7.7645713530756
10
-55
20
3.6739403974421e-15
10
-53.977774788672
20
-7.7645713530756
10
-50.980762113533
20
-15
10
-46.213203435596
20
-21.213203435596
10
-40
20
-25.980762113533
10
-32.764571353076
20
-28.977774788672
10
-25
20
-30
10
25
20
-30
10
32.764571353076
20
-28.977774788672
10
40
20
-25.980762113533
10
46.213203435596
20
-21.213203435596
10
50.980762113533
20
-15
10
53.977774788672
20
-7.7645713530756
10
55
20
0
10
53.977774788672
20
7.7645713530756
10
50.980762113533
20
15
10
46.213203435596
20
21.213203435596
10
40
20
25.980762113533
10
32.764571353076
20
28.977774788672
10
25
20
30
1001
CONDUITCAD
1000
{"id":"e-mufq3hq1-4b"}
0
TEXT
5
27B
330
142
100
AcDbEntity
8
0
100
AcDbText
10
0
20
-5
30
0
40
13
1
Start / end
50
0
41
1
7
STANDARD
72
1
11
0
21
-5
31
0
100
AcDbText
1001
CONDUITCAD
1000
{"id":"e-mufq3hq1-4c"}
0
ENDBLK
5
27C
330
142
100
AcDbEntity
8
0
100
AcDbBlockEnd
0
BLOCK
5
27D
330
143
100
AcDbEntity
8
0
100
AcDbBlockBegin
2
CC_DATA
70
0
10
0
20
0
30
0
3
CC_DATA
1

1001
CONDUITCAD
1000
{"ports":[{"name":"in","x":0,"y":35,"dx":0,"dy":1},{"name":"out","x":0,"y":-35,"dx":0,"dy":-1},{"name":"left","x":-55,"y":0,"dx":-1,"dy":0},{"name":"right","x":55,"y":0,"dx":1,"dy":0}],"symbol":{"name
1000
":"Data / input","category":"Flow","labelOffset":57}}
0
LWPOLYLINE
5
27E
330
143
100
AcDbEntity
8
0
100
AcDbPolyline
90
4
70
1
10
-42
20
-35
10
65
20
-35
10
42
20
35
10
-65
20
35
1001
CONDUITCAD
1000
{"id":"e-mufq3hq1-4d"}
0
TEXT
5
27F
330
143
100
AcDbEntity
8
0
100
AcDbText
10
0
20
-5
30
0
40
14
1
Data
50
0
41
1
7
STANDARD
72
1
11
0
21
-5
31
0
100
AcDbText
1001
CONDUITCAD
1000
{"id":"e-mufq3hq1-4e"}
0
ENDBLK
5
280
330
143
100
AcDbEntity
8
0
100
AcDbBlockEnd
0
BLOCK
5
281
330
144
100
AcDbEntity
8
0
100
AcDbBlockBegin
2
CC_DOCUMENT
70
0
10
0
20
0
30
0
3
CC_DOCUMENT
1

1001
CONDUITCAD
1000
{"ports":[{"name":"in","x":0,"y":35,"dx":0,"dy":1},{"name":"out","x":0,"y":-35,"dx":0,"dy":-1},{"name":"left","x":-55,"y":0,"dx":-1,"dy":0},{"name":"right","x":55,"y":0,"dx":1,"dy":0}],"symbol":{"name
1000
":"Document","category":"Flow","labelOffset":57}}
0
LWPOLYLINE
5
282
330
144
100
AcDbEntity
8
0
100
AcDbPolyline
90
7
70
1
10
-55
20
35
10
55
20
35
10
55
20
-24
10
30
20
-36
10
0
20
-25
10
-30
20
-34
10
-55
20
-24
1001
CONDUITCAD
1000
{"id":"e-mufq3hq1-4f"}
0
TEXT
5
283
330
144
100
AcDbEntity
8
0
100
AcDbText
10
0
20
-5
30
0
40
14
1
Document
50
0
41
1
7
STANDARD
72
1
11
0
21
-5
31
0
100
AcDbText
1001
CONDUITCAD
1000
{"id":"e-mufq3hq1-4g"}
0
ENDBLK
5
284
330
144
100
AcDbEntity
8
0
100
AcDbBlockEnd
0
BLOCK
5
285
330
145
100
AcDbEntity
8
0
100
AcDbBlockBegin
2
CC_DATABASE
70
0
10
0
20
0
30
0
3
CC_DATABASE
1

1001
CONDUITCAD
1000
{"ports":[{"name":"in","x":0,"y":35,"dx":0,"dy":1},{"name":"out","x":0,"y":-35,"dx":0,"dy":-1},{"name":"left","x":-55,"y":0,"dx":-1,"dy":0},{"name":"right","x":55,"y":0,"dx":1,"dy":0}],"symbol":{"name
1000
":"Database","category":"Flow","labelOffset":57}}
0
LINE
5
286
330
145
100
AcDbEntity
8
0
100
AcDbLine
10
-45
20
-25
30
0
11
-45
21
25
31
0
1001
CONDUITCAD
1000
{"id":"e-mufq3hq1-4h"}
0
LINE
5
287
330
145
100
AcDbEntity
8
0
100
AcDbLine
10
45
20
-25
30
0
11
45
21
25
31
0
1001
CONDUITCAD
1000
{"id":"e-mufq3hq1-4i"}
0
ELLIPSE
5
288
330
145
100
AcDbEntity
8
0
100
AcDbEllipse
10
0
20
25
30
0
11
45
21
0
31
0
40
0.33333333333333
41
0
42
6.2831853071796
1001
CONDUITCAD
1000
{"id":"e-mufq3hq1-4j"}
0
LWPOLYLINE
5
289
330
145
100
AcDbEntity
8
0
100
AcDbPolyline
90
31
70
0
10
-45
20
-25
10
-44.753485291572
20
-26.567926949015
10
-44.016642033021
20
-28.118675362266
10
-42.797543233282
20
-29.635254915624
10
-41.109545593917
20
-31.101049646137
10
-38.9711431703
20
-32.5
10
-36.405764746873
20
-33.816778784387
10
-33.441517146483
20
-35.036959095383
10
-30.110877286149
20
-36.147172382161
10
-26.450336353161
20
-37.135254915624
10
-22.5
20
-37.990381056767
10
-18.303148938411
20
-38.703181864639
10
-13.905764746873
20
-39.265847744427
10
-9.3560260867992
20
-39.672214011007
10
-4.7037808470444
20
-39.917828430524
10
-8.2663658942446e-15
20
-40
10
4.7037808470444
20
-39.917828430524
10
9.3560260867992
20
-39.672214011007
10
13.905764746873
20
-39.265847744427
10
18.303148938411
20
-38.703181864639
10
22.5
20
-37.990381056767
10
26.450336353161
20
-37.135254915624
10
30.110877286149
20
-36.147172382161
10
33.441517146483
20
-35.036959095383
10
36.405764746873
20
-33.816778784387
10
38.9711431703
20
-32.5
10
41.109545593917
20
-31.101049646137
10
42.797543233282
20
-29.635254915624
10
44.016642033021
20
-28.118675362266
10
44.753485291572
20
-26.567926949015
10
45
20
-25
1001
CONDUITCAD
1000
{"id":"e-mufq3hq1-4k"}
0
TEXT
5
28A
330
145
100
AcDbEntity
8
0
100
AcDbText
10
0
20
-5
30
0
40
13
1
Database
50
0
41
1
7
STANDARD
72
1
11
0
21
-5
31
0
100
AcDbText
1001
CONDUITCAD
1000
{"id":"e-mufq3hq1-4l"}
0
ENDBLK
5
28B
330
145
100
AcDbEntity
8
0
100
AcDbBlockEnd
0
BLOCK
5
28C
330
146
100
AcDbEntity
8
0
100
AcDbBlockBegin
2
CC_SUBPROCESS
70
0
10
0
20
0
30
0
3
CC_SUBPROCESS
1

1001
CONDUITCAD
1000
{"ports":[{"name":"in","x":0,"y":35,"dx":0,"dy":1},{"name":"out","x":0,"y":-35,"dx":0,"dy":-1},{"name":"left","x":-55,"y":0,"dx":-1,"dy":0},{"name":"right","x":55,"y":0,"dx":1,"dy":0}],"symbol":{"name
1000
":"Subprocess","category":"Flow","labelOffset":57}}
0
LWPOLYLINE
5
28D
330
146
100
AcDbEntity
8
0
100
AcDbPolyline
90
4
70
1
10
-55
20
-35
10
55
20
-35
10
55
20
35
10
-55
20
35
1001
CONDUITCAD
1000
{"id":"e-mufq3hq1-4m"}
0
LINE
5
28E
330
146
100
AcDbEntity
8
0
100
AcDbLine
10
-43
20
-35
30
0
11
-43
21
35
31
0
1001
CONDUITCAD
1000
{"id":"e-mufq3hq1-4n"}
0
LINE
5
28F
330
146
100
AcDbEntity
8
0
100
AcDbLine
10
43
20
-35
30
0
11
43
21
35
31
0
1001
CONDUITCAD
1000
{"id":"e-mufq3hq1-4o"}
0
TEXT
5
290
330
146
100
AcDbEntity
8
0
100
AcDbText
10
0
20
-5
30
0
40
12
1
Subprocess
50
0
41
1
7
STANDARD
72
1
11
0
21
-5
31
0
100
AcDbText
1001
CONDUITCAD
1000
{"id":"e-mufq3hq1-4p"}
0
ENDBLK
5
291
330
146
100
AcDbEntity
8
0
100
AcDbBlockEnd
0
BLOCK
5
292
330
147
100
AcDbEntity
8
0
100
AcDbBlockBegin
2
CC_MANUAL
70
0
10
0
20
0
30
0
3
CC_MANUAL
1

1001
CONDUITCAD
1000
{"ports":[{"name":"in","x":0,"y":35,"dx":0,"dy":1},{"name":"out","x":0,"y":-35,"dx":0,"dy":-1},{"name":"left","x":-55,"y":0,"dx":-1,"dy":0},{"name":"right","x":55,"y":0,"dx":1,"dy":0}],"symbol":{"name
1000
":"Manual input","category":"Flow","labelOffset":57}}
0
LWPOLYLINE
5
293
330
147
100
AcDbEntity
8
0
100
AcDbPolyline
90
4
70
1
10
-55
20
-35
10
55
20
-35
10
55
20
42
10
-55
20
22
1001
CONDUITCAD
1000
{"id":"e-mufq3hq1-4q"}
0
TEXT
5
294
330
147
100
AcDbEntity
8
0
100
AcDbText
10
0
20
-5
30
0
40
14
1
Input
50
0
41
1
7
STANDARD
72
1
11
0
21
-5
31
0
100
AcDbText
1001
CONDUITCAD
1000
{"id":"e-mufq3hq1-4r"}
0
ENDBLK
5
295
330
147
100
AcDbEntity
8
0
100
AcDbBlockEnd
0
BLOCK
5
296
330
148
100
AcDbEntity
8
0
100
AcDbBlockBegin
2
CC_PREPARATION
70
0
10
0
20
0
30
0
3
CC_PREPARATION
1

1001
CONDUITCAD
1000
{"ports":[{"name":"in","x":0,"y":35,"dx":0,"dy":1},{"name":"out","x":0,"y":-35,"dx":0,"dy":-1},{"name":"left","x":-55,"y":0,"dx":-1,"dy":0},{"name":"right","x":55,"y":0,"dx":1,"dy":0}],"symbol":{"name
1000
":"Preparation","category":"Flow","labelOffset":57}}
0
LWPOLYLINE
5
297
330
148
100
AcDbEntity
8
0
100
AcDbPolyline
90
6
70
1
10
-40
20
-35
10
40
20
-35
10
60
20
0
10
40
20
35
10
-40
20
35
10
-60
20
0
1001
CONDUITCAD
1000
{"id":"e-mufq3hq1-4s"}
0
TEXT
5
298
330
148
100
AcDbEntity
8
0
100
AcDbText
10
0
20
-5
30
0
40
14
1
Prepare
50
0
41
1
7
STANDARD
72
1
11
0
21
-5
31
0
100
AcDbText
1001
CONDUITCAD
1000
{"id":"e-mufq3hq1-4t"}
0
ENDBLK
5
299
330
148
100
AcDbEntity
8
0
100
AcDbBlockEnd
0
BLOCK
5
29A
330
149
100
AcDbEntity
8
0
100
AcDbBlockBegin
2
CC_DELAY
70
0
10
0
20
0
30
0
3
CC_DELAY
1

1001
CONDUITCAD
1000
{"ports":[{"name":"in","x":0,"y":35,"dx":0,"dy":1},{"name":"out","x":0,"y":-35,"dx":0,"dy":-1},{"name":"left","x":-55,"y":0,"dx":-1,"dy":0},{"name":"right","x":55,"y":0,"dx":1,"dy":0}],"symbol":{"name
1000
":"Delay","category":"Flow","labelOffset":57}}
0
LWPOLYLINE
5
29B
330
149
100
AcDbEntity
8
0
100
AcDbPolyline
90
34
70
1
10
-50
20
-35
10
5
20
-35
10
5
20
-35
10
8.6584962143679
20
-34.80826633789
10
12.276909178622
20
-34.235166025683
10
15.815594803123
20
-33.28697807033
10
19.235782507653
20
-31.974091017491
10
22.5
20
-30.310889132455
10
25.572483830237
20
-28.315594803123
10
28.41957122256
20
-26.010068891709
10
31.010068891709
20
-23.41957122256
10
33.315594803123
20
-20.572483830237
10
35.310889132455
20
-17.5
10
36.974091017491
20
-14.235782507653
10
38.28697807033
20
-10.815594803123
10
39.235166025683
20
-7.2769091786216
10
39.80826633789
20
-3.6584962143679
10
40
20
-7.7715611723761e-15
10
39.80826633789
20
3.6584962143679
10
39.235166025683
20
7.2769091786216
10
38.28697807033
20
10.815594803123
10
36.974091017491
20
14.235782507653
10
35.310889132455
20
17.5
10
33.315594803123
20
20.572483830237
10
31.010068891709
20
23.41957122256
10
28.41957122256
20
26.010068891709
10
25.572483830237
20
28.315594803123
10
22.5
20
30.310889132455
10
19.235782507653
20
31.974091017491
10
15.815594803123
20
33.28697807033
10
12.276909178622
20
34.235166025683
10
8.6584962143679
20
34.80826633789
10
5
20
35
10
-50
20
35
1001
CONDUITCAD
1000
{"id":"e-mufq3hq1-4u"}
0
TEXT
5
29C
330
149
100
AcDbEntity
8
0
100
AcDbText
10
-5
20
-5
30
0
40
14
1
Delay
50
0
41
1
7
STANDARD
72
1
11
-5
21
-5
31
0
100
AcDbText
1001
CONDUITCAD
1000
{"id":"e-mufq3hq1-4v"}
0
ENDBLK
5
29D
330
149
100
AcDbEntity
8
0
100
AcDbBlockEnd
0
BLOCK
5
29E
330
14A
100
AcDbEntity
8
0
100
AcDbBlockBegin
2
CC_JUNCTION
70
0
10
0
20
0
30
0
3
CC_JUNCTION
1

1001
CONDUITCAD
1000
{"ports":[{"name":"in","x":0,"y":16,"dx":0,"dy":1},{"name":"out","x":0,"y":-16,"dx":0,"dy":-1},{"name":"left","x":-16,"y":0,"dx":-1,"dy":0},{"name":"right","x":16,"y":0,"dx":1,"dy":0}],"symbol":{"name
1000
":"Junction","category":"Flow","labelOffset":57}}
0
CIRCLE
5
29F
330
14A
100
AcDbEntity
8
0
100
AcDbCircle
10
0
20
0
30
0
40
16
1001
CONDUITCAD
1000
{"id":"e-mufq3hq1-4w"}
0
ENDBLK
5
2A0
330
14A
100
AcDbEntity
8
0
100
AcDbBlockEnd
0
BLOCK
5
2A1
330
14B
100
AcDbEntity
8
0
100
AcDbBlockBegin
2
CC_NOTE
70
0
10
0
20
0
30
0
3
CC_NOTE
1

1001
CONDUITCAD
1000
{"ports":[{"name":"in","x":0,"y":35,"dx":0,"dy":1},{"name":"out","x":0,"y":-35,"dx":0,"dy":-1},{"name":"left","x":-55,"y":0,"dx":-1,"dy":0},{"name":"right","x":55,"y":0,"dx":1,"dy":0}],"symbol":{"name
1000
":"Annotation","category":"Flow","labelOffset":57}}
0
LWPOLYLINE
5
2A2
330
14B
100
AcDbEntity
8
0
100
AcDbPolyline
90
4
70
0
10
45
20
35
10
-45
20
35
10
-45
20
-35
10
45
20
-35
1001
CONDUITCAD
1000
{"id":"e-mufq3hq1-4x"}
0
TEXT
5
2A3
330
14B
100
AcDbEntity
8
0
100
AcDbText
10
0
20
-5
30
0
40
14
1
Note
50
0
41
1
7
STANDARD
72
1
11
0
21
-5
31
0
100
AcDbText
1001
CONDUITCAD
1000
{"id":"e-mufq3hq1-4y"}
0
ENDBLK
5
2A4
330
14B
100
AcDbEntity
8
0
100
AcDbBlockEnd
0
ENDSEC
0
SECTION
2
ENTITIES
0
TEXT
5
2A5
330
112
100
AcDbEntity
8
Annotations
62
7
420
7181971
100
AcDbText
10
40
20
650
30
0
40
12
1
CONDUIT / ENGINEERING WORKSPACE
50
0
41
1
7
STANDARD
100
AcDbText
1001
CONDUITCAD
1000
{"id":"e-mufq3hq1-4z"}
0
TEXT
5
2A6
330
112
100
AcDbEntity
8
Annotations
62
7
420
3165272
100
AcDbText
10
40
20
606
30
0
40
30
1
Process water skid
50
0
41
1
7
STANDARD
100
AcDbText
1001
CONDUITCAD
1000
{"id":"e-mufq3hq1-50"}
0
TEXT
5
2A7
330
112
100
AcDbEntity
8
Annotations
62
7
420
8688280
100
AcDbText
10
40
20
576
30
0
40
12
1
PW-101   ·   PIPING & INSTRUMENTATION   ·   REV 01
50
0
41
1
7
STANDARD
100
AcDbText
1001
CONDUITCAD
1000
{"id":"e-mufq3hq1-51"}
0
LINE
5
2A8
330
112
100
AcDbEntity
8
Annotations
62
7
420
13424603
100
AcDbLine
10
40
20
553
30
0
11
1100
21
553
31
0
1001
CONDUITCAD
1000
{"id":"e-mufq3hq1-52","width":1}
0
TEXT
5
2A9
330
112
100
AcDbEntity
8
Annotations
62
7
420
8688280
100
AcDbText
10
40
20
520
30
0
40
11
1
01  /  INTAKE
50
0
41
1
7
STANDARD
100
AcDbText
1001
CONDUITCAD
1000
{"id":"e-mufq3hq1-53"}
0
TEXT
5
2AA
330
112
100
AcDbEntity
8
Annotations
62
7
420
8688280
100
AcDbText
10
415
20
520
30
0
40
11
1
02  /  PRESSURIZATION
50
0
41
1
7
STANDARD
100
AcDbText
1001
CONDUITCAD
1000
{"id":"e-mufq3hq1-54"}
0
TEXT
5
2AB
330
112
100
AcDbEntity
8
Annotations
62
7
420
8688280
100
AcDbText
10
795
20
520
30
0
40
11
1
03  /  CONDITIONING
50
0
41
1
7
STANDARD
100
AcDbText
1001
CONDUITCAD
1000
{"id":"e-mufq3hq1-55"}
0
INSERT
5
2AC
330
112
100
AcDbEntity
8
Equipment
100
AcDbBlockReference
2
CC_OFFPAGE
10
85
20
330
30
0
41
1
42
1
43
1
50
0
66
1
1001
CONDUITCAD
1000
{"id":"e-mufq3hq1-56","tag":"SUPPLY"}
0
ATTRIB
5
2AD
330
112
100
AcDbEntity
8
Equipment
100
AcDbText
10
85
20
273
30
0
40
12
1
SUPPLY
50
0
41
1
7
STANDARD
72
1
11
85
21
273
31
0
100
AcDbAttribute
2
TAG
70
0
0
SEQEND
5
2AE
100
AcDbEntity
8
Equipment
0
INSERT
5
2AF
330
112
100
AcDbEntity
8
Equipment
100
AcDbBlockReference
2
CC_GATE_VALVE
10
210
20
330
30
0
41
1
42
1
43
1
50
0
66
1
1001
CONDUITCAD
1000
{"id":"e-mufq3hq1-57","tag":"HV-101"}
0
ATTRIB
5
2B0
330
112
100
AcDbEntity
8
Equipment
100
AcDbText
10
210
20
273
30
0
40
12
1
HV-101
50
0
41
1
7
STANDARD
72
1
11
210
21
273
31
0
100
AcDbAttribute
2
TAG
70
0
0
SEQEND
5
2B1
100
AcDbEntity
8
Equipment
0
INSERT
5
2B2
330
112
100
AcDbEntity
8
Equipment
100
AcDbBlockReference
2
CC_STRAINER
10
340
20
330
30
0
41
1
42
1
43
1
50
0
66
1
1001
CONDUITCAD
1000
{"id":"e-mufq3hq1-58","tag":"ST-101"}
0
ATTRIB
5
2B3
330
112
100
AcDbEntity
8
Equipment
100
AcDbText
10
340
20
273
30
0
40
12
1
ST-101
50
0
41
1
7
STANDARD
72
1
11
340
21
273
31
0
100
AcDbAttribute
2
TAG
70
0
0
SEQEND
5
2B4
100
AcDbEntity
8
Equipment
0
INSERT
5
2B5
330
112
100
AcDbEntity
8
Equipment
100
AcDbBlockReference
2
CC_PUMP
10
485
20
330
30
0
41
1
42
1
43
1
50
0
66
1
1001
CONDUITCAD
1000
{"id":"e-mufq3hq1-59","tag":"P-101"}
0
ATTRIB
5
2B6
330
112
100
AcDbEntity
8
Equipment
100
AcDbText
10
485
20
273
30
0
40
12
1
P-101
50
0
41
1
7
STANDARD
72
1
11
485
21
273
31
0
100
AcDbAttribute
2
TAG
70
0
0
SEQEND
5
2B7
100
AcDbEntity
8
Equipment
0
INSERT
5
2B8
330
112
100
AcDbEntity
8
Equipment
100
AcDbBlockReference
2
CC_CHECK_VALVE
10
625
20
330
30
0
41
1
42
1
43
1
50
0
66
1
1001
CONDUITCAD
1000
{"id":"e-mufq3hq1-5a","tag":"NRV-101"}
0
ATTRIB
5
2B9
330
112
100
AcDbEntity
8
Equipment
100
AcDbText
10
625
20
273
30
0
40
12
1
NRV-101
50
0
41
1
7
STANDARD
72
1
11
625
21
273
31
0
100
AcDbAttribute
2
TAG
70
0
0
SEQEND
5
2BA
100
AcDbEntity
8
Equipment
0
INSERT
5
2BB
330
112
100
AcDbEntity
8
Equipment
100
AcDbBlockReference
2
CC_BALL_VALVE
10
755
20
330
30
0
41
1
42
1
43
1
50
0
66
1
1001
CONDUITCAD
1000
{"id":"e-mufq3hq1-5b","tag":"HV-102"}
0
ATTRIB
5
2BC
330
112
100
AcDbEntity
8
Equipment
100
AcDbText
10
755
20
273
30
0
40
12
1
HV-102
50
0
41
1
7
STANDARD
72
1
11
755
21
273
31
0
100
AcDbAttribute
2
TAG
70
0
0
SEQEND
5
2BD
100
AcDbEntity
8
Equipment
0
INSERT
5
2BE
330
112
100
AcDbEntity
8
Equipment
100
AcDbBlockReference
2
CC_HEAT_EXCHANGER
10
905
20
330
30
0
41
1
42
1
43
1
50
0
66
1
1001
CONDUITCAD
1000
{"id":"e-mufq3hq1-5c","tag":"E-101"}
0
ATTRIB
5
2BF
330
112
100
AcDbEntity
8
Equipment
100
AcDbText
10
905
20
273
30
0
40
12
1
E-101
50
0
41
1
7
STANDARD
72
1
11
905
21
273
31
0
100
AcDbAttribute
2
TAG
70
0
0
SEQEND
5
2C0
100
AcDbEntity
8
Equipment
0
INSERT
5
2C1
330
112
100
AcDbEntity
8
Equipment
100
AcDbBlockReference
2
CC_OFFPAGE
10
1055
20
330
30
0
41
1
42
1
43
1
50
0
66
1
1001
CONDUITCAD
1000
{"id":"e-mufq3hq1-5d","tag":"RETURN"}
0
ATTRIB
5
2C2
330
112
100
AcDbEntity
8
Equipment
100
AcDbText
10
1055
20
273
30
0
40
12
1
RETURN
50
0
41
1
7
STANDARD
72
1
11
1055
21
273
31
0
100
AcDbAttribute
2
TAG
70
0
0
SEQEND
5
2C3
100
AcDbEntity
8
Equipment
0
LWPOLYLINE
5
2C4
330
112
100
AcDbEntity
8
Process
62
7
420
1342583
100
AcDbPolyline
90
3
70
0
10
130
20
330
10
165
20
330
10
165
20
330
1001
CONDUITCAD
1000
{"id":"e-mufq3hq1-5e","connector":{"from":{"entityId":"e-mufq3hq1-56","port":"out"},"to":{"entityId":"e-mufq3hq1-57","port":"in"},"style":"process","arrow":"end","waypoints":[],"status":"routed"},"lab
1000
el":"DN 50","dash":[],"width":2}
0
LWPOLYLINE
5
2C5
330
112
100
AcDbEntity
8
Process
62
7
420
1342583
100
AcDbPolyline
90
3
70
0
10
255
20
330
10
295
20
330
10
295
20
330
1001
CONDUITCAD
1000
{"id":"e-mufq3hq2-5f","connector":{"from":{"entityId":"e-mufq3hq1-57","port":"out"},"to":{"entityId":"e-mufq3hq1-58","port":"in"},"style":"process","arrow":"end","waypoints":[],"status":"routed"},"lab
1000
el":"","dash":[],"width":2}
0
LWPOLYLINE
5
2C6
330
112
100
AcDbEntity
8
Process
62
7
420
1342583
100
AcDbPolyline
90
3
70
0
10
385
20
330
10
440
20
330
10
440
20
330
1001
CONDUITCAD
1000
{"id":"e-mufq3hq2-5g","connector":{"from":{"entityId":"e-mufq3hq1-58","port":"out"},"to":{"entityId":"e-mufq3hq1-59","port":"in"},"style":"process","arrow":"end","waypoints":[],"status":"routed"},"lab
1000
el":"","dash":[],"width":2}
0
LWPOLYLINE
5
2C7
330
112
100
AcDbEntity
8
Process
62
7
420
1342583
100
AcDbPolyline
90
3
70
0
10
530
20
330
10
580
20
330
10
580
20
330
1001
CONDUITCAD
1000
{"id":"e-mufq3hq2-5h","connector":{"from":{"entityId":"e-mufq3hq1-59","port":"out"},"to":{"entityId":"e-mufq3hq1-5a","port":"in"},"style":"process","arrow":"end","waypoints":[],"status":"routed"},"lab
1000
el":"","dash":[],"width":2}
0
LWPOLYLINE
5
2C8
330
112
100
AcDbEntity
8
Process
62
7
420
1342583
100
AcDbPolyline
90
3
70
0
10
670
20
330
10
710
20
330
10
710
20
330
1001
CONDUITCAD
1000
{"id":"e-mufq3hq2-5i","connector":{"from":{"entityId":"e-mufq3hq1-5a","port":"out"},"to":{"entityId":"e-mufq3hq1-5b","port":"in"},"style":"process","arrow":"end","waypoints":[],"status":"routed"},"lab
1000
el":"PW-101","dash":[],"width":2}
0
LWPOLYLINE
5
2C9
330
112
100
AcDbEntity
8
Process
62
7
420
1342583
100
AcDbPolyline
90
3
70
0
10
800
20
330
10
860
20
330
10
860
20
330
1001
CONDUITCAD
1000
{"id":"e-mufq3hq2-5j","connector":{"from":{"entityId":"e-mufq3hq1-5b","port":"out"},"to":{"entityId":"e-mufq3hq1-5c","port":"in"},"style":"process","arrow":"end","waypoints":[],"status":"routed"},"lab
1000
el":"","dash":[],"width":2}
0
LWPOLYLINE
5
2CA
330
112
100
AcDbEntity
8
Process
62
7
420
1342583
100
AcDbPolyline
90
3
70
0
10
950
20
330
10
1010
20
330
10
1010
20
330
1001
CONDUITCAD
1000
{"id":"e-mufq3hq2-5k","connector":{"from":{"entityId":"e-mufq3hq1-5c","port":"out"},"to":{"entityId":"e-mufq3hq1-5d","port":"in"},"style":"process","arrow":"end","waypoints":[],"status":"routed"},"lab
1000
el":"","dash":[],"width":2}
0
INSERT
5
2CB
330
112
100
AcDbEntity
8
Equipment
100
AcDbBlockReference
2
CC_PRESSURE_INDICATOR
10
625
20
455
30
0
41
1
42
1
43
1
50
0
66
1
1001
CONDUITCAD
1000
{"id":"e-mufq3hq2-5l","tag":"PI-101"}
0
ATTRIB
5
2CC
330
112
100
AcDbEntity
8
Equipment
100
AcDbText
10
625
20
390
30
0
40
11
1
PI-101
50
0
41
1
7
STANDARD
72
1
11
625
21
390
31
0
100
AcDbAttribute
2
TAG
70
0
0
SEQEND
5
2CD
100
AcDbEntity
8
Equipment
0
LWPOLYLINE
5
2CE
330
112
100
AcDbEntity
8
Instruments
62
7
420
11172939
6
CC_DASH_6_4
100
AcDbPolyline
90
3
70
0
10
625
20
348
10
625
20
348
10
625
20
410
1001
CONDUITCAD
1000
{"id":"e-mufq3hq2-5m","connector":{"from":{"entityId":"e-mufq3hq1-5a","port":"top"},"to":{"entityId":"e-mufq3hq2-5l","port":"sense"},"style":"signal","arrow":"none","waypoints":[],"status":"routed"},"
1000
label":"","dash":[6,4],"width":1.5}
0
INSERT
5
2CF
330
112
100
AcDbEntity
8
Equipment
100
AcDbBlockReference
2
CC_CONTROL_VALVE
10
755
20
170
30
0
41
1
42
1
43
1
50
0
66
1
1001
CONDUITCAD
1000
{"id":"e-mufq3hq2-5n","tag":"FCV-101"}
0
ATTRIB
5
2D0
330
112
100
AcDbEntity
8
Equipment
100
AcDbText
10
755
20
113
30
0
40
12
1
FCV-101
50
0
41
1
7
STANDARD
72
1
11
755
21
113
31
0
100
AcDbAttribute
2
TAG
70
0
0
SEQEND
5
2D1
100
AcDbEntity
8
Equipment
0
LWPOLYLINE
5
2D2
330
112
100
AcDbEntity
8
Process
62
7
420
1342583
100
AcDbPolyline
90
4
70
0
10
485
20
285
10
485
20
170
10
710
20
170
10
710
20
170
1001
CONDUITCAD
1000
{"id":"e-mufq3hq2-5o","connector":{"from":{"entityId":"e-mufq3hq1-59","port":"bottom"},"to":{"entityId":"e-mufq3hq2-5n","port":"in"},"style":"process","arrow":"end","waypoints":[{"x":485,"y":170},{"x"
1000
:710,"y":170}],"status":"routed"},"label":"BYPASS","dash":[],"width":2}
0
LWPOLYLINE
5
2D3
330
112
100
AcDbEntity
8
Process
62
7
420
1342583
100
AcDbPolyline
90
3
70
0
10
800
20
170
10
905
20
170
10
905
20
285
1001
CONDUITCAD
1000
{"id":"e-mufq3hq2-5p","connector":{"from":{"entityId":"e-mufq3hq2-5n","port":"out"},"to":{"entityId":"e-mufq3hq1-5c","port":"bottom"},"style":"process","arrow":"end","waypoints":[{"x":905,"y":170}],"s
1000
tatus":"routed"},"label":"","dash":[],"width":2}
0
INSERT
5
2D4
330
112
100
AcDbEntity
8
Equipment
100
AcDbBlockReference
2
CC_FLOW_TRANSMITTER
10
905
20
455
30
0
41
1
42
1
43
1
50
0
66
1
1001
CONDUITCAD
1000
{"id":"e-mufq3hq2-5q","tag":"FT-101"}
0
ATTRIB
5
2D5
330
112
100
AcDbEntity
8
Equipment
100
AcDbText
10
905
20
390
30
0
40
11
1
FT-101
50
0
41
1
7
STANDARD
72
1
11
905
21
390
31
0
100
AcDbAttribute
2
TAG
70
0
0
SEQEND
5
2D6
100
AcDbEntity
8
Equipment
0
LWPOLYLINE
5
2D7
330
112
100
AcDbEntity
8
Instruments
62
7
420
11172939
6
CC_DASH_6_4
100
AcDbPolyline
90
3
70
0
10
905
20
375
10
905
20
375
10
905
20
410
1001
CONDUITCAD
1000
{"id":"e-mufq3hq2-5r","connector":{"from":{"entityId":"e-mufq3hq1-5c","port":"top"},"to":{"entityId":"e-mufq3hq2-5q","port":"sense"},"style":"signal","arrow":"none","waypoints":[],"status":"routed"},"
1000
label":"","dash":[6,4],"width":1.5}
0
INSERT
5
2D8
330
112
100
AcDbEntity
8
Instruments
100
AcDbBlockReference
2
CC_PROCESS
10
1060
20
170
30
0
41
0.75
42
0.75
43
1
50
0
66
1
1001
CONDUITCAD
1000
{"id":"e-mufq3hq2-5s","tag":"FIC-101"}
0
ATTRIB
5
2D9
330
112
100
AcDbEntity
8
Instruments
100
AcDbText
10
1060
20
128.75
30
0
40
12
1
FIC-101
50
0
41
1
7
STANDARD
72
1
11
1060
21
128.75
31
0
100
AcDbAttribute
2
TAG
70
0
0
SEQEND
5
2DA
100
AcDbEntity
8
Instruments
0
LWPOLYLINE
5
2DB
330
112
100
AcDbEntity
8
Instruments
62
7
420
11172939
6
CC_DASH_6_4
100
AcDbPolyline
90
5
70
0
10
905
20
410
10
985
20
410
10
985
20
225
10
1060
20
225
10
1060
20
196.25
1001
CONDUITCAD
1000
{"id":"e-mufq3hq2-5t","connector":{"from":{"entityId":"e-mufq3hq2-5q","port":"sense"},"to":{"entityId":"e-mufq3hq2-5s","port":"in"},"style":"signal","arrow":"none","waypoints":[{"x":985,"y":410},{"x":
1000
985,"y":225},{"x":1060,"y":225}],"status":"routed"},"label":"","dash":[6,4],"width":1.5}
0
LWPOLYLINE
5
2DC
330
112
100
AcDbEntity
8
Instruments
62
7
420
11172939
6
CC_DASH_6_4
100
AcDbPolyline
90
5
70
0
10
1018.75
20
170
10
985
20
170
10
985
20
235
10
755
20
235
10
755
20
220
1001
CONDUITCAD
1000
{"id":"e-mufq3hq2-5u","connector":{"from":{"entityId":"e-mufq3hq2-5s","port":"left"},"to":{"entityId":"e-mufq3hq2-5n","port":"signal"},"style":"signal","arrow":"none","waypoints":[{"x":985,"y":170},{"
1000
x":985,"y":235},{"x":755,"y":235}],"status":"routed"},"label":"","dash":[6,4],"width":1.5}
0
TEXT
5
2DD
330
112
100
AcDbEntity
8
Annotations
62
7
420
8688280
100
AcDbText
10
47
20
225
30
0
40
10
1
DESIGN BASIS
50
0
41
1
7
STANDARD
100
AcDbText
1001
CONDUITCAD
1000
{"id":"e-mufq3hq2-5v"}
0
TEXT
5
2DE
330
112
100
AcDbEntity
8
Annotations
62
7
420
6979206
100
AcDbText
10
47
20
202
30
0
40
12
1
Flow       12.5 m³/h
50
0
41
1
7
STANDARD
100
AcDbText
1001
CONDUITCAD
1000
{"id":"e-mufq3hq2-5w"}
0
TEXT
5
2DF
330
112
100
AcDbEntity
8
Annotations
62
7
420
6979206
100
AcDbText
10
47
20
181
30
0
40
12
1
Pressure   6 bar
50
0
41
1
7
STANDARD
100
AcDbText
1001
CONDUITCAD
1000
{"id":"e-mufq3hq2-5x"}
0
TEXT
5
2E0
330
112
100
AcDbEntity
8
Annotations
62
7
420
6979206
100
AcDbText
10
47
20
160
30
0
40
12
1
Material   SS 316L
50
0
41
1
7
STANDARD
100
AcDbText
1001
CONDUITCAD
1000
{"id":"e-mufq3hq2-5y"}
0
LINE
5
2E1
330
112
100
AcDbEntity
8
Annotations
62
7
420
13424603
100
AcDbLine
10
40
20
92
30
0
11
1100
21
92
31
0
1001
CONDUITCAD
1000
{"id":"e-mufq3hq2-5z","width":1}
0
TEXT
5
2E2
330
112
100
AcDbEntity
8
Annotations
62
7
420
8688280
100
AcDbText
10
40
20
60
30
0
40
10
1
SCHEMATIC · NOT FOR CONSTRUCTION
50
0
41
1
7
STANDARD
100
AcDbText
1001
CONDUITCAD
1000
{"id":"e-mufq3hq2-60"}
0
TEXT
5
2E3
330
112
100
AcDbEntity
8
Annotations
62
7
420
8688280
100
AcDbText
10
720
20
60
30
0
40
10
1
UNITS: mm     |     MODEL SPACE     |     1 OF 1
50
0
41
1
7
STANDARD
100
AcDbText
1001
CONDUITCAD
1000
{"id":"e-mufq3hq2-61"}
0
ENDSEC
0
EOF
