0
SECTION
2
HEADER
9
$ACADVER
1
AC1024
9
$INSUNITS
70
4
9
$LTSCALE
40
1
9
$MEASUREMENT
70
1
999
CONDUIT:{"parameters":{"Span":{"expression":"100","unit":"mm","description":"Distance between the two risers"},"Rise":{"expression":"70","unit":"mm","description":"Height of the route"},"T
999
CONDUIT:ubeRadius":{"expression":"6","unit":"mm","description":"Circular sweep profile radius"},"PlateThickness":{"expression":"10","unit":"mm","description":"Base plate height"}},"constra
999
CONDUIT:ints":[],"metadata":{"author":"","description":"Edit Span / Rise in live Parameters. Edit the native WCS route with XYZ handles; the dependent sweep regenerates. 2D Draw retains th
999
CONDUIT:e footprint and native profile."}}
9
$HANDSEED
5
12E
9
$DWGCODEPAGE
3
ANSI_1252
9
$CLAYER
8
0
9
$TILEMODE
70
1
0
ENDSEC
0
SECTION
2
TABLES
0
TABLE
2
LTYPE
5
106
330
0
100
AcDbSymbolTable
70
4
0
LTYPE
5
107
100
AcDbSymbolTableRecord
100
AcDbLinetypeTableRecord
2
CONTINUOUS
70
0
3
Solid line
72
65
73
0
40
0
330
106
0
LTYPE
5
108
100
AcDbSymbolTableRecord
100
AcDbLinetypeTableRecord
2
DASHED
70
0
3
DASHED
72
65
73
2
40
12
49
8
74
0
49
-4
74
0
330
106
0
LTYPE
5
109
100
AcDbSymbolTableRecord
100
AcDbLinetypeTableRecord
2
CENTER
70
0
3
CENTER
72
65
73
4
40
20
49
12
74
0
49
-3
74
0
49
2
74
0
49
-3
74
0
330
106
0
LTYPE
5
10A
100
AcDbSymbolTableRecord
100
AcDbLinetypeTableRecord
2
HIDDEN
70
0
3
HIDDEN
72
65
73
2
40
7
49
4
74
0
49
-3
74
0
330
106
0
ENDTAB
0
TABLE
2
LAYER
5
10B
330
0
100
AcDbSymbolTable
70
6
0
LAYER
5
10C
100
AcDbSymbolTableRecord
100
AcDbLayerTableRecord
2
0
70
0
62
7
420
3426133
6
CONTINUOUS
330
10B
0
LAYER
5
10D
100
AcDbSymbolTableRecord
100
AcDbLayerTableRecord
2
Equipment
70
0
62
7
420
3495011
6
CONTINUOUS
330
10B
0
LAYER
5
10E
100
AcDbSymbolTableRecord
100
AcDbLayerTableRecord
2
Process
70
0
62
7
420
1342583
6
CONTINUOUS
330
10B
0
LAYER
5
10F
100
AcDbSymbolTableRecord
100
AcDbLayerTableRecord
2
Instruments
70
0
62
7
420
10187334
6
CONTINUOUS
330
10B
0
LAYER
5
110
100
AcDbSymbolTableRecord
100
AcDbLayerTableRecord
2
Electrical
70
0
62
7
420
6584250
6
CONTINUOUS
330
10B
0
LAYER
5
111
100
AcDbSymbolTableRecord
100
AcDbLayerTableRecord
2
Annotations
70
0
62
7
420
7438474
6
CONTINUOUS
330
10B
0
ENDTAB
0
TABLE
2
STYLE
5
112
330
0
100
AcDbSymbolTable
70
1
0
STYLE
5
113
100
AcDbSymbolTableRecord
100
AcDbTextStyleTableRecord
2
STANDARD
70
0
40
0
41
1
50
0
71
0
42
2.5
3
txt
4

330
112
0
ENDTAB
0
TABLE
2
APPID
5
114
330
0
100
AcDbSymbolTable
70
2
0
APPID
5
115
100
AcDbSymbolTableRecord
100
AcDbRegAppTableRecord
2
CONDUITCAD
70
0
330
114
0
APPID
5
127
100
AcDbSymbolTableRecord
100
AcDbRegAppTableRecord
2
ACAD
70
0
330
114
0
ENDTAB
0
TABLE
2
BLOCK_RECORD
5
116
330
0
100
AcDbSymbolTable
70
2
0
BLOCK_RECORD
5
117
100
AcDbSymbolTableRecord
100
AcDbBlockTableRecord
2
*Model_Space
340
12B
330
116
0
BLOCK_RECORD
5
118
100
AcDbSymbolTableRecord
100
AcDbBlockTableRecord
2
*Paper_Space
340
12C
330
116
0
ENDTAB
0
TABLE
2
VPORT
5
122
330
0
100
AcDbSymbolTable
70
0
0
ENDTAB
0
TABLE
2
VIEW
5
123
330
0
100
AcDbSymbolTable
70
0
0
ENDTAB
0
TABLE
2
UCS
5
124
330
0
100
AcDbSymbolTable
70
0
0
ENDTAB
0
TABLE
2
DIMSTYLE
5
125
330
0
100
AcDbSymbolTable
70
1
100
AcDbDimStyleTable
71
0
0
DIMSTYLE
105
126
330
125
100
AcDbSymbolTableRecord
100
AcDbDimStyleTableRecord
2
STANDARD
70
0
340
113
0
ENDTAB
0
ENDSEC
0
SECTION
2
BLOCKS
0
BLOCK
5
119
330
117
100
AcDbEntity
8
0
100
AcDbBlockBegin
2
*Model_Space
70
1
10
0
20
0
30
0
3
*Model_Space
1

1001
CONDUITCAD
1000
{"ports":[]}
0
ENDBLK
5
11A
330
117
100
AcDbEntity
8
0
100
AcDbBlockEnd
0
BLOCK
5
11B
330
118
100
AcDbEntity
8
0
100
AcDbBlockBegin
2
*Paper_Space
70
1
10
0
20
0
30
0
3
*Paper_Space
1

1001
CONDUITCAD
1000
{"ports":[]}
0
ENDBLK
5
11C
330
118
100
AcDbEntity
8
0
100
AcDbBlockEnd
0
ENDSEC
0
SECTION
2
ENTITIES
0
POLYLINE
5
100
330
117
100
AcDbEntity
8
Process
60
1
100
AcDb3dPolyline
66
1
10
0
20
0
30
0
70
8
1001
CONDUITCAD
1000
{"id":"live-route","label":"Editable WCS route","parametric":{"kind":"spatial-path","version":1,"coordinates":[{"x":0,"y":0,"z":0},{"x":0,"y":0,"z":"Rise"},{"x":"Span","y":0,"z":"Rise"},{"x":"Span","y
1000
":0,"z":0}]},"model3dConsumed":true,"model3dUserHidden":false}
0
VERTEX
5
11D
330
100
100
AcDbEntity
8
Process
100
AcDbVertex
100
AcDb3dPolylineVertex
10
0
20
0
30
0
70
32
0
VERTEX
5
11E
330
100
100
AcDbEntity
8
Process
100
AcDbVertex
100
AcDb3dPolylineVertex
10
0
20
0
30
70
70
32
0
VERTEX
5
11F
330
100
100
AcDbEntity
8
Process
100
AcDbVertex
100
AcDb3dPolylineVertex
10
100
20
0
30
70
70
32
0
VERTEX
5
120
330
100
100
AcDbEntity
8
Process
100
AcDbVertex
100
AcDb3dPolylineVertex
10
100
20
0
30
0
70
32
0
SEQEND
5
121
330
100
100
AcDbEntity
8
Process
0
CIRCLE
5
101
330
117
100
AcDbEntity
8
Process
60
1
100
AcDbCircle
10
0
20
0
30
0
40
6
1001
CONDUITCAD
1000
{"id":"live-profile","label":"Tube radius profile","parametric":{"radius":"TubeRadius"},"model3dConsumed":true,"model3dUserHidden":false}
0
MESH
5
102
330
117
100
AcDbEntity
8
Equipment
62
7
420
3640453
100
AcDbSubDMesh
71
2
72
0
91
0
92
128
10
6
20
0
30
0
10
5.884711682419383
20
1.1705419320967696
30
0
10
5.54327719506772
20
2.2961005941905386
30
0
10
4.988817673815271
20
3.333421398117613
30
0
10
4.242640687119286
20
4.242640687119285
30
0
10
3.333421398117614
20
4.988817673815271
30
0
10
2.296100594190539
20
5.54327719506772
30
0
10
1.17054193209677
20
5.884711682419383
30
0
10
3.6739403974420594e-16
20
6
30
0
10
-1.1705419320967692
20
5.884711682419383
30
0
10
-2.2961005941905386
20
5.54327719506772
30
0
10
-3.3334213981176117
20
4.988817673815272
30
0
10
-4.242640687119285
20
4.242640687119286
30
0
10
-4.988817673815272
20
3.333421398117613
30
0
10
-5.54327719506772
20
2.2961005941905395
30
0
10
-5.884711682419383
20
1.1705419320967716
30
0
10
-6
20
7.347880794884119e-16
30
0
10
-5.884711682419383
20
-1.17054193209677
30
0
10
-5.543277195067721
20
-2.296100594190538
30
0
10
-4.988817673815273
20
-3.3334213981176117
30
0
10
-4.242640687119286
20
-4.242640687119285
30
0
10
-3.333421398117613
20
-4.988817673815271
30
0
10
-2.296100594190542
20
-5.543277195067719
30
0
10
-1.170541932096772
20
-5.884711682419382
30
0
10
-1.102182119232618e-15
20
-6
30
0
10
1.1705419320967698
20
-5.884711682419383
30
0
10
2.29610059419054
20
-5.54327719506772
30
0
10
3.3334213981176113
20
-4.988817673815273
30
0
10
4.242640687119284
20
-4.242640687119286
30
0
10
4.988817673815271
20
-3.333421398117613
30
0
10
5.543277195067719
20
-2.296100594190542
30
0
10
5.884711682419382
20
-1.1705419320967723
30
0
10
3.44077406617997
20
0
30
65.08460847688576
10
3.374660557302485
20
1.1705419320967696
30
65.17905634671074
10
3.1788607357393097
20
2.2961005941905386
30
65.45877037751526
10
2.8608990788273116
20
3.333421398117613
30
65.91300131596098
10
2.4329946747266677
20
4.242640687119285
30
66.52429332181904
10
1.9115916497154104
20
4.988817673815271
30
67.26915478612084
10
1.3167272296385377
20
5.54327719506772
30
68.11896110051637
10
0.6712617205557936
20
5.884711682419383
30
69.0410546849203
10
2.1068664733682616e-16
20
6
30
70
10
-0.6712617205557931
20
5.884711682419383
30
70.9589453150797
10
-1.3167272296385375
20
5.54327719506772
30
71.88103889948363
10
-1.9115916497154093
20
4.988817673815272
30
72.73084521387915
10
-2.4329946747266673
20
4.242640687119286
30
73.47570667818096
10
-2.860899078827312
20
3.333421398117613
30
74.08699868403902
10
-3.1788607357393097
20
2.2961005941905395
30
74.54122962248474
10
-3.374660557302485
20
1.1705419320967716
30
74.82094365328926
10
-3.44077406617997
20
7.347880794884119e-16
30
74.91539152311424
10
-3.374660557302485
20
-1.17054193209677
30
74.82094365328926
10
-3.17886073573931
20
-2.296100594190538
30
74.54122962248474
10
-2.8608990788273125
20
-3.3334213981176117
30
74.08699868403902
10
-2.4329946747266677
20
-4.242640687119285
30
73.47570667818096
10
-1.91159164971541
20
-4.988817673815271
30
72.73084521387916
10
-1.3167272296385395
20
-5.543277195067719
30
71.88103889948363
10
-0.6712617205557948
20
-5.884711682419382
30
70.9589453150797
10
-6.320599420104785e-16
20
-6
30
70
10
0.6712617205557935
20
-5.884711682419383
30
69.0410546849203
10
1.3167272296385382
20
-5.54327719506772
30
68.11896110051637
10
1.911591649715409
20
-4.988817673815273
30
67.26915478612085
10
2.432994674726667
20
-4.242640687119286
30
66.52429332181904
10
2.8608990788273116
20
-3.333421398117613
30
65.91300131596098
10
3.178860735739309
20
-2.296100594190542
30
65.45877037751528
10
3.3746605573024846
20
-1.1705419320967723
30
65.17905634671074
10
96.55922593382003
20
0
30
65.08460847688576
10
96.62533944269751
20
1.1705419320967696
30
65.17905634671074
10
96.8211392642607
20
2.2961005941905386
30
65.45877037751528
10
97.13910092117268
20
3.333421398117613
30
65.91300131596098
10
97.56700532527333
20
4.242640687119285
30
66.52429332181904
10
98.0884083502846
20
4.988817673815271
30
67.26915478612084
10
98.68327277036146
20
5.54327719506772
30
68.11896110051637
10
99.32873827944421
20
5.884711682419383
30
69.0410546849203
10
100
20
6
30
70
10
100.67126172055579
20
5.884711682419383
30
70.9589453150797
10
101.31672722963853
20
5.54327719506772
30
71.88103889948363
10
101.9115916497154
20
4.988817673815272
30
72.73084521387915
10
102.43299467472667
20
4.242640687119286
30
73.47570667818096
10
102.86089907882732
20
3.333421398117613
30
74.08699868403902
10
103.1788607357393
20
2.2961005941905395
30
74.54122962248472
10
103.37466055730249
20
1.1705419320967716
30
74.82094365328926
10
103.44077406617997
20
7.347880794884119e-16
30
74.91539152311424
10
103.37466055730249
20
-1.17054193209677
30
74.82094365328926
10
103.1788607357393
20
-2.296100594190538
30
74.54122962248474
10
102.86089907882732
20
-3.3334213981176117
30
74.08699868403902
10
102.43299467472667
20
-4.242640687119285
30
73.47570667818096
10
101.9115916497154
20
-4.988817673815271
30
72.73084521387916
10
101.31672722963854
20
-5.543277195067719
30
71.88103889948363
10
100.67126172055579
20
-5.884711682419382
30
70.9589453150797
10
100
20
-6
30
70
10
99.32873827944421
20
-5.884711682419383
30
69.0410546849203
10
98.68327277036146
20
-5.54327719506772
30
68.11896110051637
10
98.0884083502846
20
-4.988817673815273
30
67.26915478612085
10
97.56700532527333
20
-4.242640687119286
30
66.52429332181904
10
97.13910092117268
20
-3.333421398117613
30
65.91300131596098
10
96.8211392642607
20
-2.296100594190542
30
65.45877037751528
10
96.62533944269751
20
-1.1705419320967723
30
65.17905634671074
10
94
20
0
30
9.992007221626409e-16
10
94.11528831758062
20
1.1705419320967696
30
9.80001360465396e-16
10
94.45672280493228
20
2.2961005941905386
30
9.231410960765607e-16
10
95.01118232618472
20
3.333421398117613
30
8.308050370689942e-16
10
95.75735931288071
20
4.242640687119285
30
7.065416064076989e-16
10
96.66657860188239
20
4.988817673815271
30
5.551261780452533e-16
10
97.70389940580947
20
5.54327719506772
30
3.823775619788759e-16
10
98.82945806790323
20
5.884711682419383
30
1.949343906454576e-16
10
100
20
6
30
6.11833983051101e-32
10
101.17054193209677
20
5.884711682419383
30
-1.9493439064545745e-16
10
102.29610059419053
20
5.54327719506772
30
-3.8237756197887583e-16
10
103.33342139811761
20
4.988817673815272
30
-5.55126178045253e-16
10
104.24264068711929
20
4.242640687119286
30
-7.065416064076988e-16
10
104.98881767381528
20
3.333421398117613
30
-8.308050370689943e-16
10
105.54327719506772
20
2.2961005941905395
30
-9.231410960765607e-16
10
105.88471168241938
20
1.1705419320967716
30
-9.80001360465396e-16
10
106
20
7.347880794884119e-16
30
-9.992007221626409e-16
10
105.88471168241938
20
-1.17054193209677
30
-9.80001360465396e-16
10
105.54327719506772
20
-2.296100594190538
30
-9.231410960765609e-16
10
104.98881767381528
20
-3.3334213981176117
30
-8.308050370689945e-16
10
104.24264068711929
20
-4.242640687119285
30
-7.065416064076989e-16
10
103.33342139811761
20
-4.988817673815271
30
-5.551261780452532e-16
10
102.29610059419055
20
-5.543277195067719
30
-3.823775619788764e-16
10
101.17054193209677
20
-5.884711682419382
30
-1.9493439064545792e-16
10
100
20
-6
30
-1.835501949153303e-31
10
98.82945806790323
20
-5.884711682419383
30
1.9493439064545757e-16
10
97.70389940580947
20
-5.54327719506772
30
3.823775619788761e-16
10
96.66657860188239
20
-4.988817673815273
30
5.551261780452529e-16
10
95.75735931288071
20
-4.242640687119286
30
7.065416064076986e-16
10
95.01118232618472
20
-3.333421398117613
30
8.308050370689942e-16
10
94.45672280493228
20
-2.296100594190542
30
9.231410960765605e-16
10
94.11528831758062
20
-1.1705419320967723
30
9.800013604653959e-16
93
1008
90
3
90
0
90
1
90
33
90
3
90
0
90
33
90
32
90
3
90
1
90
2
90
34
90
3
90
1
90
34
90
33
90
3
90
2
90
3
90
35
90
3
90
2
90
35
90
34
90
3
90
3
90
4
90
36
90
3
90
3
90
36
90
35
90
3
90
4
90
5
90
37
90
3
90
4
90
37
90
36
90
3
90
5
90
6
90
38
90
3
90
5
90
38
90
37
90
3
90
6
90
7
90
39
90
3
90
6
90
39
90
38
90
3
90
7
90
8
90
40
90
3
90
7
90
40
90
39
90
3
90
8
90
9
90
41
90
3
90
8
90
41
90
40
90
3
90
9
90
10
90
42
90
3
90
9
90
42
90
41
90
3
90
10
90
11
90
43
90
3
90
10
90
43
90
42
90
3
90
11
90
12
90
44
90
3
90
11
90
44
90
43
90
3
90
12
90
13
90
45
90
3
90
12
90
45
90
44
90
3
90
13
90
14
90
46
90
3
90
13
90
46
90
45
90
3
90
14
90
15
90
47
90
3
90
14
90
47
90
46
90
3
90
15
90
16
90
48
90
3
90
15
90
48
90
47
90
3
90
16
90
17
90
49
90
3
90
16
90
49
90
48
90
3
90
17
90
18
90
50
90
3
90
17
90
50
90
49
90
3
90
18
90
19
90
51
90
3
90
18
90
51
90
50
90
3
90
19
90
20
90
52
90
3
90
19
90
52
90
51
90
3
90
20
90
21
90
53
90
3
90
20
90
53
90
52
90
3
90
21
90
22
90
54
90
3
90
21
90
54
90
53
90
3
90
22
90
23
90
55
90
3
90
22
90
55
90
54
90
3
90
23
90
24
90
56
90
3
90
23
90
56
90
55
90
3
90
24
90
25
90
57
90
3
90
24
90
57
90
56
90
3
90
25
90
26
90
58
90
3
90
25
90
58
90
57
90
3
90
26
90
27
90
59
90
3
90
26
90
59
90
58
90
3
90
27
90
28
90
60
90
3
90
27
90
60
90
59
90
3
90
28
90
29
90
61
90
3
90
28
90
61
90
60
90
3
90
29
90
30
90
62
90
3
90
29
90
62
90
61
90
3
90
30
90
31
90
63
90
3
90
30
90
63
90
62
90
3
90
31
90
0
90
32
90
3
90
31
90
32
90
63
90
3
90
32
90
33
90
65
90
3
90
32
90
65
90
64
90
3
90
33
90
34
90
66
90
3
90
33
90
66
90
65
90
3
90
34
90
35
90
67
90
3
90
34
90
67
90
66
90
3
90
35
90
36
90
68
90
3
90
35
90
68
90
67
90
3
90
36
90
37
90
69
90
3
90
36
90
69
90
68
90
3
90
37
90
38
90
70
90
3
90
37
90
70
90
69
90
3
90
38
90
39
90
71
90
3
90
38
90
71
90
70
90
3
90
39
90
40
90
72
90
3
90
39
90
72
90
71
90
3
90
40
90
41
90
73
90
3
90
40
90
73
90
72
90
3
90
41
90
42
90
74
90
3
90
41
90
74
90
73
90
3
90
42
90
43
90
75
90
3
90
42
90
75
90
74
90
3
90
43
90
44
90
76
90
3
90
43
90
76
90
75
90
3
90
44
90
45
90
77
90
3
90
44
90
77
90
76
90
3
90
45
90
46
90
78
90
3
90
45
90
78
90
77
90
3
90
46
90
47
90
79
90
3
90
46
90
79
90
78
90
3
90
47
90
48
90
80
90
3
90
47
90
80
90
79
90
3
90
48
90
49
90
81
90
3
90
48
90
81
90
80
90
3
90
49
90
50
90
82
90
3
90
49
90
82
90
81
90
3
90
50
90
51
90
83
90
3
90
50
90
83
90
82
90
3
90
51
90
52
90
84
90
3
90
51
90
84
90
83
90
3
90
52
90
53
90
85
90
3
90
52
90
85
90
84
90
3
90
53
90
54
90
86
90
3
90
53
90
86
90
85
90
3
90
54
90
55
90
87
90
3
90
54
90
87
90
86
90
3
90
55
90
56
90
88
90
3
90
55
90
88
90
87
90
3
90
56
90
57
90
89
90
3
90
56
90
89
90
88
90
3
90
57
90
58
90
90
90
3
90
57
90
90
90
89
90
3
90
58
90
59
90
91
90
3
90
58
90
91
90
90
90
3
90
59
90
60
90
92
90
3
90
59
90
92
90
91
90
3
90
60
90
61
90
93
90
3
90
60
90
93
90
92
90
3
90
61
90
62
90
94
90
3
90
61
90
94
90
93
90
3
90
62
90
63
90
95
90
3
90
62
90
95
90
94
90
3
90
63
90
32
90
64
90
3
90
63
90
64
90
95
90
3
90
64
90
65
90
97
90
3
90
64
90
97
90
96
90
3
90
65
90
66
90
98
90
3
90
65
90
98
90
97
90
3
90
66
90
67
90
99
90
3
90
66
90
99
90
98
90
3
90
67
90
68
90
100
90
3
90
67
90
100
90
99
90
3
90
68
90
69
90
101
90
3
90
68
90
101
90
100
90
3
90
69
90
70
90
102
90
3
90
69
90
102
90
101
90
3
90
70
90
71
90
103
90
3
90
70
90
103
90
102
90
3
90
71
90
72
90
104
90
3
90
71
90
104
90
103
90
3
90
72
90
73
90
105
90
3
90
72
90
105
90
104
90
3
90
73
90
74
90
106
90
3
90
73
90
106
90
105
90
3
90
74
90
75
90
107
90
3
90
74
90
107
90
106
90
3
90
75
90
76
90
108
90
3
90
75
90
108
90
107
90
3
90
76
90
77
90
109
90
3
90
76
90
109
90
108
90
3
90
77
90
78
90
110
90
3
90
77
90
110
90
109
90
3
90
78
90
79
90
111
90
3
90
78
90
111
90
110
90
3
90
79
90
80
90
112
90
3
90
79
90
112
90
111
90
3
90
80
90
81
90
113
90
3
90
80
90
113
90
112
90
3
90
81
90
82
90
114
90
3
90
81
90
114
90
113
90
3
90
82
90
83
90
115
90
3
90
82
90
115
90
114
90
3
90
83
90
84
90
116
90
3
90
83
90
116
90
115
90
3
90
84
90
85
90
117
90
3
90
84
90
117
90
116
90
3
90
85
90
86
90
118
90
3
90
85
90
118
90
117
90
3
90
86
90
87
90
119
90
3
90
86
90
119
90
118
90
3
90
87
90
88
90
120
90
3
90
87
90
120
90
119
90
3
90
88
90
89
90
121
90
3
90
88
90
121
90
120
90
3
90
89
90
90
90
122
90
3
90
89
90
122
90
121
90
3
90
90
90
91
90
123
90
3
90
90
90
123
90
122
90
3
90
91
90
92
90
124
90
3
90
91
90
124
90
123
90
3
90
92
90
93
90
125
90
3
90
92
90
125
90
124
90
3
90
93
90
94
90
126
90
3
90
93
90
126
90
125
90
3
90
94
90
95
90
127
90
3
90
94
90
127
90
126
90
3
90
95
90
64
90
96
90
3
90
95
90
96
90
127
90
3
90
0
90
31
90
30
90
3
90
0
90
30
90
29
90
3
90
0
90
29
90
28
90
3
90
0
90
28
90
27
90
3
90
0
90
27
90
26
90
3
90
0
90
26
90
25
90
3
90
0
90
25
90
24
90
3
90
0
90
24
90
23
90
3
90
0
90
23
90
22
90
3
90
0
90
22
90
21
90
3
90
0
90
21
90
20
90
3
90
0
90
20
90
19
90
3
90
0
90
19
90
18
90
3
90
0
90
18
90
17
90
3
90
0
90
17
90
16
90
3
90
0
90
16
90
15
90
3
90
0
90
15
90
14
90
3
90
0
90
14
90
13
90
3
90
0
90
13
90
12
90
3
90
0
90
12
90
11
90
3
90
0
90
11
90
10
90
3
90
0
90
10
90
9
90
3
90
0
90
9
90
8
90
3
90
0
90
8
90
7
90
3
90
0
90
7
90
6
90
3
90
0
90
6
90
5
90
3
90
0
90
5
90
4
90
3
90
0
90
4
90
3
90
3
90
0
90
3
90
2
90
3
90
2
90
1
90
0
90
3
90
127
90
96
90
97
90
3
90
127
90
97
90
98
90
3
90
127
90
98
90
99
90
3
90
127
90
99
90
100
90
3
90
127
90
100
90
101
90
3
90
127
90
101
90
102
90
3
90
127
90
102
90
103
90
3
90
127
90
103
90
104
90
3
90
127
90
104
90
105
90
3
90
127
90
105
90
106
90
3
90
127
90
106
90
107
90
3
90
127
90
107
90
108
90
3
90
127
90
108
90
109
90
3
90
127
90
109
90
110
90
3
90
127
90
110
90
111
90
3
90
127
90
111
90
112
90
3
90
127
90
112
90
113
90
3
90
127
90
113
90
114
90
3
90
127
90
114
90
115
90
3
90
127
90
115
90
116
90
3
90
127
90
116
90
117
90
3
90
127
90
117
90
118
90
3
90
127
90
118
90
119
90
3
90
127
90
119
90
120
90
3
90
127
90
120
90
121
90
3
90
127
90
121
90
122
90
3
90
127
90
122
90
123
90
3
90
127
90
123
90
124
90
3
90
127
90
124
90
125
90
3
90
125
90
126
90
127
94
0
95
0
90
0
1001
CONDUITCAD
1000
{"id":"live-sweep","label":"Parametric conduit","feature3d":{"version":1,"kind":"sweep","parameters":{"segments":24},"inputs":["live-profile","live-route"],"suppressed":false},"model3dConsumed":false,
1000
"model3dUserHidden":false}
0
MESH
5
103
330
117
100
AcDbEntity
8
Equipment
62
7
420
11844019
100
AcDbSubDMesh
71
2
72
0
91
0
92
8
10
-18
20
-20
30
-10
10
118
20
-20
30
-10
10
118
20
20
30
-10
10
-18
20
20
30
-10
10
-18
20
-20
30
0
10
118
20
-20
30
0
10
118
20
20
30
0
10
-18
20
20
30
0
93
30
90
4
90
0
90
3
90
2
90
1
90
4
90
4
90
5
90
6
90
7
90
4
90
0
90
1
90
5
90
4
90
4
90
1
90
2
90
6
90
5
90
4
90
2
90
3
90
7
90
6
90
4
90
3
90
0
90
4
90
7
94
0
95
0
90
0
1001
CONDUITCAD
1000
{"id":"live-plate","label":"Parametric mounting plate","feature3d":{"version":1,"kind":"box","parameters":{"x":-18,"y":-20,"z":"-PlateThickness","width":"Span + 36","depth":40,"height":"PlateThickness
1000
"},"inputs":[],"suppressed":false},"model3dConsumed":false,"model3dUserHidden":false}
0
LWPOLYLINE
5
104
330
117
100
AcDbEntity
8
Annotations
100
AcDbPolyline
90
4
70
1
10
0
20
65
10
100
20
65
10
100
20
95
10
0
20
95
1001
CONDUITCAD
1000
{"id":"live-footprint","label":"Editable 2D footprint","parametric":{"kind":"rectangle","width":"Span","height":"30"}}
0
TEXT
5
105
330
117
100
AcDbEntity
8
Annotations
100
AcDbText
10
0
20
115
30
0
40
5
1
Span / Rise: live parameters · route: Edit on canvas
50
0
41
1
7
STANDARD
100
AcDbText
73
0
1001
CONDUITCAD
1000
{"id":"live-caption"}
0
ENDSEC
0
SECTION
2
OBJECTS
0
DICTIONARY
5
128
330
0
100
AcDbDictionary
281
1
3
ACAD_LAYOUT
350
129
3
ACAD_GROUP
350
12A
3
CONDUITCAD_METADATA
350
12D
0
DICTIONARY
5
129
330
128
100
AcDbDictionary
281
1
3
Model
350
12B
3
Layout1
350
12C
0
DICTIONARY
5
12A
330
128
100
AcDbDictionary
281
1
0
LAYOUT
5
12B
330
129
100
AcDbPlotSettings
1

2

4

6

40
0
41
0
42
0
43
0
44
420
45
297
46
0
47
0
48
0
49
0
140
0
141
0
142
1
143
1
70
0
72
1
73
0
74
5
7

75
16
76
0
77
0
78
300
147
1
148
0
149
0
100
AcDbLayout
1
Model
70
1
71
0
10
0
20
0
11
420
21
297
12
0
22
0
32
0
14
0
24
0
34
0
15
420
25
297
35
0
146
0
13
0
23
0
33
0
16
1
26
0
36
0
17
0
27
1
37
0
76
0
330
117
0
LAYOUT
5
12C
330
129
100
AcDbPlotSettings
1

2

4

6

40
0
41
0
42
0
43
0
44
420
45
297
46
0
47
0
48
0
49
0
140
0
141
0
142
1
143
1
70
0
72
1
73
0
74
5
7

75
16
76
0
77
0
78
300
147
1
148
0
149
0
100
AcDbLayout
1
Layout1
70
1
71
1
10
0
20
0
11
420
21
297
12
0
22
0
32
0
14
0
24
0
34
0
15
420
25
297
35
0
146
0
13
0
23
0
33
0
16
1
26
0
36
0
17
0
27
1
37
0
76
0
330
118
0
XRECORD
5
12D
330
128
100
AcDbXrecord
280
1
1
{"parameters":{"Span":{"expression":"100","unit":"mm","description":"Distance between the two risers"},"Rise":{"expression":"70","unit":"mm","description":"Height of the route"},"TubeRadius":{"express
1
ion":"6","unit":"mm","description":"Circular sweep profile radius"},"PlateThickness":{"expression":"10","unit":"mm","description":"Base plate height"}},"constraints":[],"metadata":{"author":"","descri
1
ption":"Edit Span / Rise in live Parameters. Edit the native WCS route with XYZ handles; the dependent sweep regenerates. 2D Draw retains the footprint and native profile."}}
0
ENDSEC
0
EOF
