0
SECTION
2
HEADER
9
$ACADVER
1
AC1032
9
$INSUNITS
70
4
9
$LTSCALE
40
1
9
$MEASUREMENT
70
1
999
CONDUIT:{"parameters":{"grid":"10","Width":"100","Depth":"65","Thickness":"8","Rise":"65","HoleRadius":"6"},"constraints":[],"metadata":{"description":"L-shaped bracket with a patterned th
999
CONDUIT:rough-hole cut. Edit Width, Thickness and HoleRadius.","modeling":{"version":1,"preferredMode":"3d","example":"bracket","notes":"Editable faceted concept model. Not certified or co
999
CONDUIT:nstruction-approved."}}}
9
$HANDSEED
5
129
9
$DWGCODEPAGE
3
ANSI_1252
9
$CLAYER
8
0
9
$TILEMODE
70
1
0
ENDSEC
0
SECTION
2
TABLES
0
TABLE
2
LTYPE
5
106
330
0
100
AcDbSymbolTable
70
4
0
LTYPE
5
107
100
AcDbSymbolTableRecord
100
AcDbLinetypeTableRecord
2
CONTINUOUS
70
0
3
Solid line
72
65
73
0
40
0
330
106
0
LTYPE
5
108
100
AcDbSymbolTableRecord
100
AcDbLinetypeTableRecord
2
DASHED
70
0
3
DASHED
72
65
73
2
40
12
49
8
74
0
49
-4
74
0
330
106
0
LTYPE
5
109
100
AcDbSymbolTableRecord
100
AcDbLinetypeTableRecord
2
CENTER
70
0
3
CENTER
72
65
73
4
40
20
49
12
74
0
49
-3
74
0
49
2
74
0
49
-3
74
0
330
106
0
LTYPE
5
10A
100
AcDbSymbolTableRecord
100
AcDbLinetypeTableRecord
2
HIDDEN
70
0
3
HIDDEN
72
65
73
2
40
7
49
4
74
0
49
-3
74
0
330
106
0
ENDTAB
0
TABLE
2
LAYER
5
10B
330
0
100
AcDbSymbolTable
70
6
0
LAYER
5
10C
100
AcDbSymbolTableRecord
100
AcDbLayerTableRecord
2
0
70
0
62
7
420
3426133
6
CONTINUOUS
330
10B
0
LAYER
5
10D
100
AcDbSymbolTableRecord
100
AcDbLayerTableRecord
2
Equipment
70
0
62
7
420
3495011
6
CONTINUOUS
330
10B
0
LAYER
5
10E
100
AcDbSymbolTableRecord
100
AcDbLayerTableRecord
2
Process
70
0
62
7
420
1342583
6
CONTINUOUS
330
10B
0
LAYER
5
10F
100
AcDbSymbolTableRecord
100
AcDbLayerTableRecord
2
Instruments
70
0
62
7
420
10187334
6
CONTINUOUS
330
10B
0
LAYER
5
110
100
AcDbSymbolTableRecord
100
AcDbLayerTableRecord
2
Electrical
70
0
62
7
420
6584250
6
CONTINUOUS
330
10B
0
LAYER
5
111
100
AcDbSymbolTableRecord
100
AcDbLayerTableRecord
2
Annotations
70
0
62
7
420
7438474
6
CONTINUOUS
330
10B
0
ENDTAB
0
TABLE
2
STYLE
5
112
330
0
100
AcDbSymbolTable
70
1
0
STYLE
5
113
100
AcDbSymbolTableRecord
100
AcDbTextStyleTableRecord
2
STANDARD
70
0
40
0
41
1
50
0
71
0
42
2.5
3
txt
4

330
112
0
ENDTAB
0
TABLE
2
APPID
5
114
330
0
100
AcDbSymbolTable
70
2
0
APPID
5
115
100
AcDbSymbolTableRecord
100
AcDbRegAppTableRecord
2
CONDUITCAD
70
0
330
114
0
APPID
5
122
100
AcDbSymbolTableRecord
100
AcDbRegAppTableRecord
2
ACAD
70
0
330
114
0
ENDTAB
0
TABLE
2
BLOCK_RECORD
5
116
330
0
100
AcDbSymbolTable
70
2
0
BLOCK_RECORD
5
117
100
AcDbSymbolTableRecord
100
AcDbBlockTableRecord
2
*Model_Space
340
126
330
116
0
BLOCK_RECORD
5
118
100
AcDbSymbolTableRecord
100
AcDbBlockTableRecord
2
*Paper_Space
340
127
330
116
0
ENDTAB
0
TABLE
2
VPORT
5
11D
330
0
100
AcDbSymbolTable
70
0
0
ENDTAB
0
TABLE
2
VIEW
5
11E
330
0
100
AcDbSymbolTable
70
0
0
ENDTAB
0
TABLE
2
UCS
5
11F
330
0
100
AcDbSymbolTable
70
0
0
ENDTAB
0
TABLE
2
DIMSTYLE
5
120
330
0
100
AcDbSymbolTable
70
1
100
AcDbDimStyleTable
71
0
0
DIMSTYLE
105
121
330
120
100
AcDbSymbolTableRecord
100
AcDbDimStyleTableRecord
2
STANDARD
70
0
340
113
0
ENDTAB
0
ENDSEC
0
SECTION
2
BLOCKS
0
BLOCK
5
119
330
117
100
AcDbEntity
8
0
100
AcDbBlockBegin
2
*Model_Space
70
1
10
0
20
0
30
0
3
*Model_Space
1

1001
CONDUITCAD
1000
{"ports":[]}
0
ENDBLK
5
11A
330
117
100
AcDbEntity
8
0
100
AcDbBlockEnd
0
BLOCK
5
11B
330
118
100
AcDbEntity
8
0
100
AcDbBlockBegin
2
*Paper_Space
70
1
10
0
20
0
30
0
3
*Paper_Space
1

1001
CONDUITCAD
1000
{"ports":[]}
0
ENDBLK
5
11C
330
118
100
AcDbEntity
8
0
100
AcDbBlockEnd
0
ENDSEC
0
SECTION
2
ENTITIES
0
MESH
5
100
330
117
100
AcDbEntity
8
Equipment
62
7
420
5543588
60
1
100
AcDbSubDMesh
71
2
72
0
91
0
92
8
10
0
20
0
30
0
10
100
20
0
30
0
10
100
20
65
30
0
10
0
20
65
30
0
10
0
20
0
30
8
10
100
20
0
30
8
10
100
20
65
30
8
10
0
20
65
30
8
93
30
90
4
90
0
90
3
90
2
90
1
90
4
90
4
90
5
90
6
90
7
90
4
90
0
90
1
90
5
90
4
90
4
90
1
90
2
90
6
90
5
90
4
90
2
90
3
90
7
90
6
90
4
90
3
90
0
90
4
90
7
94
0
95
0
90
0
1001
CONDUITCAD
1000
{"id":"3d-bracket-001","label":"Foot plate","feature3d":{"version":1,"kind":"box","parameters":{"width":"Width","depth":"Depth","height":"Thickness"},"inputs":[],"suppressed":false},"model3dConsumed":
1000
true,"model3dUserHidden":false}
0
MESH
5
101
330
117
100
AcDbEntity
8
Equipment
62
7
420
5543588
60
1
100
AcDbSubDMesh
71
2
72
0
91
0
92
8
10
0
20
57
30
0
10
100
20
57
30
0
10
100
20
65
30
0
10
0
20
65
30
0
10
0
20
57
30
65
10
100
20
57
30
65
10
100
20
65
30
65
10
0
20
65
30
65
93
30
90
4
90
0
90
3
90
2
90
1
90
4
90
4
90
5
90
6
90
7
90
4
90
0
90
1
90
5
90
4
90
4
90
1
90
2
90
6
90
5
90
4
90
2
90
3
90
7
90
6
90
4
90
3
90
0
90
4
90
7
94
0
95
0
90
0
1001
CONDUITCAD
1000
{"id":"3d-bracket-002","label":"Upright","feature3d":{"version":1,"kind":"box","parameters":{"width":"Width","depth":"Thickness","height":"Rise","y":"Depth-Thickness"},"inputs":[],"suppressed":false},
1000
"model3dConsumed":true,"model3dUserHidden":false}
0
MESH
5
102
330
117
100
AcDbEntity
8
Equipment
62
7
420
5543588
60
1
100
AcDbSubDMesh
71
2
72
0
91
0
92
23
10
100
20
0
30
8
10
100
20
0
30
0
10
100
20
65
30
0
10
100
20
65
30
8
10
100
20
64.01538461538462
30
8.000000000000007
10
100
20
57
30
65
10
100
20
57
30
8
10
100
20
65
30
65
10
0
20
0
30
8
10
0
20
0
30
0
10
0
20
65
30
0
10
0
20
65
30
8
10
12.30769230769232
20
65
30
8.000000000000007
10
0
20
65
30
65
10
0
20
57
30
8
10
12.30769230769232
20
56.99999999999999
30
8
10
0
20
57
30
65
10
0
20
57.98461538461538
30
8
10
87.6923076923077
20
57
30
8
10
0
20
57
30
0
10
0
20
56.99999999999999
30
7.015384615384615
10
12.307692307692307
20
57
30
0
10
100
20
57
30
0
93
120
90
4
90
0
90
1
90
22
90
2
90
5
90
2
90
3
90
4
90
6
90
0
90
3
90
4
90
5
90
6
90
4
90
4
90
3
90
7
90
5
90
3
90
8
90
9
90
1
90
3
90
1
90
0
90
8
90
3
90
3
90
2
90
10
90
4
90
10
90
11
90
12
90
3
90
3
90
12
90
7
90
3
90
4
90
12
90
11
90
13
90
7
90
4
90
14
90
8
90
0
90
15
90
4
90
0
90
6
90
18
90
15
90
3
90
13
90
16
90
5
90
3
90
5
90
7
90
13
90
3
90
13
90
11
90
17
90
4
90
14
90
16
90
13
90
17
90
4
90
16
90
14
90
15
90
18
90
4
90
6
90
5
90
16
90
18
90
3
90
19
90
9
90
20
90
4
90
9
90
8
90
14
90
20
90
4
90
11
90
10
90
19
90
20
90
4
90
14
90
17
90
11
90
20
90
4
90
1
90
9
90
19
90
21
90
3
90
22
90
1
90
21
90
3
90
19
90
10
90
21
90
4
90
10
90
2
90
22
90
21
94
0
95
0
90
0
1001
CONDUITCAD
1000
{"id":"3d-bracket-003","label":"Bracket blank","feature3d":{"version":1,"kind":"union","parameters":{},"inputs":["3d-bracket-001","3d-bracket-002"],"suppressed":false},"model3dConsumed":true,"model3dU
1000
serHidden":false}
0
MESH
5
103
330
117
100
AcDbEntity
8
Equipment
62
7
420
5543588
60
1
100
AcDbSubDMesh
71
2
72
0
91
0
92
48
10
31
20
32.5
30
-1
10
30.79555495773441
20
34.052914270615126
30
-1
10
30.196152422706632
20
35.5
30
-1
10
29.242640687119284
20
36.742640687119284
30
-1
10
28
20
37.69615242270663
30
-1
10
26.552914270615126
20
38.29555495773441
30
-1
10
25
20
38.5
30
-1
10
23.447085729384877
20
38.29555495773441
30
-1
10
22
20
37.69615242270663
30
-1
10
20.757359312880716
20
36.742640687119284
30
-1
10
19.803847577293368
20
35.5
30
-1
10
19.20444504226559
20
34.052914270615126
30
-1
10
19
20
32.5
30
-1
10
19.20444504226559
20
30.947085729384874
30
-1
10
19.803847577293368
20
29.5
30
-1
10
20.757359312880713
20
28.257359312880716
30
-1
10
21.999999999999996
20
27.303847577293368
30
-1
10
23.447085729384877
20
26.70444504226559
30
-1
10
25
20
26.5
30
-1
10
26.552914270615123
20
26.70444504226559
30
-1
10
28
20
27.303847577293368
30
-1
10
29.242640687119284
20
28.257359312880716
30
-1
10
30.196152422706632
20
29.499999999999996
30
-1
10
30.79555495773441
20
30.94708572938487
30
-1
10
31
20
32.5
30
9
10
30.79555495773441
20
34.052914270615126
30
9
10
30.196152422706632
20
35.5
30
9
10
29.242640687119284
20
36.742640687119284
30
9
10
28
20
37.69615242270663
30
9
10
26.552914270615126
20
38.29555495773441
30
9
10
25
20
38.5
30
9
10
23.447085729384877
20
38.29555495773441
30
9
10
22
20
37.69615242270663
30
9
10
20.757359312880716
20
36.742640687119284
30
9
10
19.803847577293368
20
35.5
30
9
10
19.20444504226559
20
34.052914270615126
30
9
10
19
20
32.5
30
9
10
19.20444504226559
20
30.947085729384874
30
9
10
19.803847577293368
20
29.5
30
9
10
20.757359312880713
20
28.257359312880716
30
9
10
21.999999999999996
20
27.303847577293368
30
9
10
23.447085729384877
20
26.70444504226559
30
9
10
25
20
26.5
30
9
10
26.552914270615123
20
26.70444504226559
30
9
10
28
20
27.303847577293368
30
9
10
29.242640687119284
20
28.257359312880716
30
9
10
30.196152422706632
20
29.499999999999996
30
9
10
30.79555495773441
20
30.94708572938487
30
9
93
170
90
24
90
23
90
22
90
21
90
20
90
19
90
18
90
17
90
16
90
15
90
14
90
13
90
12
90
11
90
10
90
9
90
8
90
7
90
6
90
5
90
4
90
3
90
2
90
1
90
0
90
24
90
24
90
25
90
26
90
27
90
28
90
29
90
30
90
31
90
32
90
33
90
34
90
35
90
36
90
37
90
38
90
39
90
40
90
41
90
42
90
43
90
44
90
45
90
46
90
47
90
4
90
0
90
1
90
25
90
24
90
4
90
1
90
2
90
26
90
25
90
4
90
2
90
3
90
27
90
26
90
4
90
3
90
4
90
28
90
27
90
4
90
4
90
5
90
29
90
28
90
4
90
5
90
6
90
30
90
29
90
4
90
6
90
7
90
31
90
30
90
4
90
7
90
8
90
32
90
31
90
4
90
8
90
9
90
33
90
32
90
4
90
9
90
10
90
34
90
33
90
4
90
10
90
11
90
35
90
34
90
4
90
11
90
12
90
36
90
35
90
4
90
12
90
13
90
37
90
36
90
4
90
13
90
14
90
38
90
37
90
4
90
14
90
15
90
39
90
38
90
4
90
15
90
16
90
40
90
39
90
4
90
16
90
17
90
41
90
40
90
4
90
17
90
18
90
42
90
41
90
4
90
18
90
19
90
43
90
42
90
4
90
19
90
20
90
44
90
43
90
4
90
20
90
21
90
45
90
44
90
4
90
21
90
22
90
46
90
45
90
4
90
22
90
23
90
47
90
46
90
4
90
23
90
0
90
24
90
47
94
0
95
0
90
0
1001
CONDUITCAD
1000
{"id":"3d-bracket-004","label":"Through-hole tool","feature3d":{"version":1,"kind":"cylinder","parameters":{"radius":"HoleRadius","height":"Thickness+2","segments":24,"x":"Width/4","y":"Depth/2","z":-
1000
1},"inputs":[],"suppressed":false},"model3dConsumed":true,"model3dUserHidden":false}
0
MESH
5
104
330
117
100
AcDbEntity
8
Equipment
62
7
420
5543588
60
1
100
AcDbSubDMesh
71
2
72
0
91
0
92
96
10
31
20
32.5
30
-1
10
30.79555495773441
20
34.052914270615126
30
-1
10
30.196152422706632
20
35.5
30
-1
10
29.242640687119284
20
36.742640687119284
30
-1
10
28
20
37.69615242270663
30
-1
10
26.552914270615126
20
38.29555495773441
30
-1
10
25
20
38.5
30
-1
10
23.447085729384877
20
38.29555495773441
30
-1
10
22
20
37.69615242270663
30
-1
10
20.757359312880716
20
36.742640687119284
30
-1
10
19.803847577293368
20
35.5
30
-1
10
19.20444504226559
20
34.052914270615126
30
-1
10
19
20
32.5
30
-1
10
19.20444504226559
20
30.947085729384874
30
-1
10
19.803847577293368
20
29.5
30
-1
10
20.757359312880713
20
28.257359312880716
30
-1
10
21.999999999999996
20
27.303847577293368
30
-1
10
23.447085729384877
20
26.70444504226559
30
-1
10
25
20
26.5
30
-1
10
26.552914270615123
20
26.70444504226559
30
-1
10
28
20
27.303847577293368
30
-1
10
29.242640687119284
20
28.257359312880716
30
-1
10
30.196152422706632
20
29.499999999999996
30
-1
10
30.79555495773441
20
30.94708572938487
30
-1
10
31
20
32.5
30
9
10
30.79555495773441
20
34.052914270615126
30
9
10
30.196152422706632
20
35.5
30
9
10
29.242640687119284
20
36.742640687119284
30
9
10
28
20
37.69615242270663
30
9
10
26.552914270615126
20
38.29555495773441
30
9
10
25
20
38.5
30
9
10
23.447085729384877
20
38.29555495773441
30
9
10
22
20
37.69615242270663
30
9
10
20.757359312880716
20
36.742640687119284
30
9
10
19.803847577293368
20
35.5
30
9
10
19.20444504226559
20
34.052914270615126
30
9
10
19
20
32.5
30
9
10
19.20444504226559
20
30.947085729384874
30
9
10
19.803847577293368
20
29.5
30
9
10
20.757359312880713
20
28.257359312880716
30
9
10
21.999999999999996
20
27.303847577293368
30
9
10
23.447085729384877
20
26.70444504226559
30
9
10
25
20
26.5
30
9
10
26.552914270615123
20
26.70444504226559
30
9
10
28
20
27.303847577293368
30
9
10
29.242640687119284
20
28.257359312880716
30
9
10
30.196152422706632
20
29.499999999999996
30
9
10
30.79555495773441
20
30.94708572938487
30
9
10
81
20
32.5
30
-1
10
80.79555495773441
20
34.052914270615126
30
-1
10
80.19615242270663
20
35.5
30
-1
10
79.24264068711929
20
36.742640687119284
30
-1
10
78
20
37.69615242270663
30
-1
10
76.55291427061513
20
38.29555495773441
30
-1
10
75
20
38.5
30
-1
10
73.44708572938488
20
38.29555495773441
30
-1
10
72
20
37.69615242270663
30
-1
10
70.75735931288071
20
36.742640687119284
30
-1
10
69.80384757729337
20
35.5
30
-1
10
69.20444504226559
20
34.052914270615126
30
-1
10
69
20
32.5
30
-1
10
69.20444504226559
20
30.947085729384874
30
-1
10
69.80384757729337
20
29.5
30
-1
10
70.75735931288071
20
28.257359312880716
30
-1
10
72
20
27.303847577293368
30
-1
10
73.44708572938488
20
26.70444504226559
30
-1
10
75
20
26.5
30
-1
10
76.55291427061512
20
26.70444504226559
30
-1
10
78
20
27.303847577293368
30
-1
10
79.24264068711929
20
28.257359312880716
30
-1
10
80.19615242270663
20
29.499999999999996
30
-1
10
80.79555495773441
20
30.94708572938487
30
-1
10
81
20
32.5
30
9
10
80.79555495773441
20
34.052914270615126
30
9
10
80.19615242270663
20
35.5
30
9
10
79.24264068711929
20
36.742640687119284
30
9
10
78
20
37.69615242270663
30
9
10
76.55291427061513
20
38.29555495773441
30
9
10
75
20
38.5
30
9
10
73.44708572938488
20
38.29555495773441
30
9
10
72
20
37.69615242270663
30
9
10
70.75735931288071
20
36.742640687119284
30
9
10
69.80384757729337
20
35.5
30
9
10
69.20444504226559
20
34.052914270615126
30
9
10
69
20
32.5
30
9
10
69.20444504226559
20
30.947085729384874
30
9
10
69.80384757729337
20
29.5
30
9
10
70.75735931288071
20
28.257359312880716
30
9
10
72
20
27.303847577293368
30
9
10
73.44708572938488
20
26.70444504226559
30
9
10
75
20
26.5
30
9
10
76.55291427061512
20
26.70444504226559
30
9
10
78
20
27.303847577293368
30
9
10
79.24264068711929
20
28.257359312880716
30
9
10
80.19615242270663
20
29.499999999999996
30
9
10
80.79555495773441
20
30.94708572938487
30
9
93
340
90
24
90
23
90
22
90
21
90
20
90
19
90
18
90
17
90
16
90
15
90
14
90
13
90
12
90
11
90
10
90
9
90
8
90
7
90
6
90
5
90
4
90
3
90
2
90
1
90
0
90
24
90
24
90
25
90
26
90
27
90
28
90
29
90
30
90
31
90
32
90
33
90
34
90
35
90
36
90
37
90
38
90
39
90
40
90
41
90
42
90
43
90
44
90
45
90
46
90
47
90
4
90
0
90
1
90
25
90
24
90
4
90
1
90
2
90
26
90
25
90
4
90
2
90
3
90
27
90
26
90
4
90
3
90
4
90
28
90
27
90
4
90
4
90
5
90
29
90
28
90
4
90
5
90
6
90
30
90
29
90
4
90
6
90
7
90
31
90
30
90
4
90
7
90
8
90
32
90
31
90
4
90
8
90
9
90
33
90
32
90
4
90
9
90
10
90
34
90
33
90
4
90
10
90
11
90
35
90
34
90
4
90
11
90
12
90
36
90
35
90
4
90
12
90
13
90
37
90
36
90
4
90
13
90
14
90
38
90
37
90
4
90
14
90
15
90
39
90
38
90
4
90
15
90
16
90
40
90
39
90
4
90
16
90
17
90
41
90
40
90
4
90
17
90
18
90
42
90
41
90
4
90
18
90
19
90
43
90
42
90
4
90
19
90
20
90
44
90
43
90
4
90
20
90
21
90
45
90
44
90
4
90
21
90
22
90
46
90
45
90
4
90
22
90
23
90
47
90
46
90
4
90
23
90
0
90
24
90
47
90
24
90
71
90
70
90
69
90
68
90
67
90
66
90
65
90
64
90
63
90
62
90
61
90
60
90
59
90
58
90
57
90
56
90
55
90
54
90
53
90
52
90
51
90
50
90
49
90
48
90
24
90
72
90
73
90
74
90
75
90
76
90
77
90
78
90
79
90
80
90
81
90
82
90
83
90
84
90
85
90
86
90
87
90
88
90
89
90
90
90
91
90
92
90
93
90
94
90
95
90
4
90
48
90
49
90
73
90
72
90
4
90
49
90
50
90
74
90
73
90
4
90
50
90
51
90
75
90
74
90
4
90
51
90
52
90
76
90
75
90
4
90
52
90
53
90
77
90
76
90
4
90
53
90
54
90
78
90
77
90
4
90
54
90
55
90
79
90
78
90
4
90
55
90
56
90
80
90
79
90
4
90
56
90
57
90
81
90
80
90
4
90
57
90
58
90
82
90
81
90
4
90
58
90
59
90
83
90
82
90
4
90
59
90
60
90
84
90
83
90
4
90
60
90
61
90
85
90
84
90
4
90
61
90
62
90
86
90
85
90
4
90
62
90
63
90
87
90
86
90
4
90
63
90
64
90
88
90
87
90
4
90
64
90
65
90
89
90
88
90
4
90
65
90
66
90
90
90
89
90
4
90
66
90
67
90
91
90
90
90
4
90
67
90
68
90
92
90
91
90
4
90
68
90
69
90
93
90
92
90
4
90
69
90
70
90
94
90
93
90
4
90
70
90
71
90
95
90
94
90
4
90
71
90
48
90
72
90
95
94
0
95
0
90
0
1001
CONDUITCAD
1000
{"id":"3d-bracket-005","label":"Two holes","feature3d":{"version":1,"kind":"linear-pattern","parameters":{"count":2,"dx":"Width/2"},"inputs":["3d-bracket-004"],"suppressed":false},"model3dConsumed":tr
1000
ue,"model3dUserHidden":false}
0
MESH
5
105
330
117
100
AcDbEntity
8
Equipment
62
7
420
5406622
100
AcDbSubDMesh
71
2
72
0
91
0
92
388
10
0
20
65
30
65
10
0
20
57
30
65
10
100
20
57
30
65
10
100
20
65
30
65
10
0
20
58.10769230769231
30
8.999999999999996
10
0
20
65
30
9
10
0
20
57.967341430499324
30
9
10
0
20
57
30
8.999999999999996
10
0
20
65
30
8
10
0
20
57.98461538461538
30
8
10
0
20
57
30
8
10
0
20
57
30
0
10
0
20
0
30
0
10
0
20
56.99999999999999
30
7.015384615384615
10
0
20
0
30
8
10
0
20
65
30
0
10
13.84615384615384
20
65
30
8.999999999999996
10
100
20
65
30
9
10
1.754385964912288
20
65
30
8.999999999999996
10
76.72129382840967
20
65
30
6.137703506272771
10
100
20
65
30
8
10
100
20
65
30
0
10
76.72129382840967
20
65
30
0
10
76.72129382840967
20
65
30
8.000000000000004
10
76.72129382840967
20
65
30
9
10
35.27870617159037
20
65
30
2.822296493727226
10
64.72129382840961
20
65
30
5.177703506272767
10
64.72129382840961
20
65
30
0
10
35.27870617159037
20
65
30
0
10
35.27870617159038
20
65
30
8.000000000000007
10
64.72129382840961
20
65
30
8.000000000000004
10
35.27870617159037
20
65
30
8.999999999999996
10
64.72129382840961
20
65
30
9
10
73.27870617159039
20
65
30
5.862296493727232
10
73.27870617159039
20
65
30
0
10
73.27870617159039
20
65
30
8.000000000000004
10
73.27870617159039
20
65
30
9
10
23.278706171590326
20
65
30
1.8622964937272215
10
23.278706171590326
20
65
30
0
10
12.30769230769232
20
65
30
8.000000000000007
10
23.278706171590326
20
65
30
8.000000000000007
10
23.278706171590326
20
65
30
8.999999999999996
10
32.023147667299654
20
65
30
2.561851813383967
10
32.02314766729966
20
65
30
0
10
32.023147667299654
20
65
30
8.000000000000007
10
32.02314766729966
20
65
30
8.999999999999996
10
85.27870617159033
20
0
30
8
10
100
20
0
30
8
10
83.9010528839602
20
10.464315625425868
30
8
10
100
20
57
30
8
10
87.6923076923077
20
57
30
8
10
77.77451380910884
20
57
30
8
10
26.72129382840962
20
0
30
8
10
73.27870617159039
20
0
30
8
10
70.77806467081435
20
18.99425796397068
30
8
10
32.49774051362277
20
43.8764686661452
30
8
10
65.77451380910878
20
57
30
8
10
34.2254861908912
20
57
30
8
10
82.02314766729967
20
0
30
8
10
75.39982594170459
20
15.99011313789202
30
8
10
69.20444504226559
20
30.947085729384884
30
8
10
69
20
32.49999999999999
30
8
10
72.22548619089122
20
57
30
8
10
69.80384757729337
20
29.499999999999996
30
8
10
83.7955549577344
20
11.265651932439628
30
8
10
69.20444504226559
20
34.052914270615126
30
8
10
78.00000000000003
20
55.28726233817552
30
8
10
70.75735931288071
20
28.25735931288071
30
8
10
82.77231082552805
20
19.037962757967794
30
8
10
69.80384757729337
20
35.5
30
8
10
79.02324413220634
20
47.51495151264743
30
8
10
72
20
27.30384757729337
30
8
10
82.24264068711926
20
23.0612068901741
30
8
10
70.75735931288071
20
36.742640687119284
30
8
10
79.55291427061515
20
43.49170738044104
30
8
10
73.4470857293849
20
26.70444504226559
30
8
10
81.9096761185236
20
25.590323881476387
30
8
10
72
20
37.69615242270663
30
8
10
79.88587883921082
20
40.96259038913874
30
8
10
75
20
26.5
30
8
10
81.67423461417476
20
27.378679656440355
30
8
10
73.44708572938488
20
38.29555495773441
30
8
10
80.12132034355966
20
39.17423461417477
30
8
10
76.5529142706151
20
26.70444504226559
30
8
10
81.49357399379753
20
28.750933306678235
30
8
10
75
20
38.5
30
8
10
80.3019809639369
20
37.801980963936884
30
8
10
78.00000000000001
20
27.303847577293375
30
8
10
81.34606521495124
20
29.87137372026306
30
8
10
76.55291427061513
20
38.29555495773441
30
8
10
80.44948974278319
20
36.68154055035205
30
8
10
79.24264068711928
20
28.257359312880705
30
8
10
81.21939655491296
20
30.833517715702165
30
8
10
78
20
37.69615242270663
30
8
10
80.57615840282145
20
35.71939655491296
30
8
10
80.19615242270665
20
29.500000000000014
30
8
10
81.10582854123025
20
31.696152422706625
30
8
10
79.2426406871193
20
36.74264068711928
30
8
10
80.68972641650416
20
34.85676184790849
30
8
10
80.79555495773442
20
30.947085729384877
30
8
10
81
20
32.499999999999986
30
8
10
80.19615242270665
20
35.49999999999999
30
8
10
80.79555495773441
20
34.05291427061514
30
8
10
12.30769230769232
20
56.99999999999999
30
8
10
14.721293828409678
20
0
30
8
10
21.443681890647646
20
51.06160677107903
30
8
10
22.225486190891164
20
56.99999999999999
30
8
10
19
20
32.5
30
8
10
23.278706171590326
20
0
30
8
10
19.20444504226559
20
34.05291427061513
30
8
10
25.23019882086728
20
48.60037076643627
30
8
10
28.709439168314898
20
57
30
8
10
19.20444504226559
20
30.94708572938487
30
8
10
27.999999999999993
20
9.712737661824551
30
8
10
19.80384757729336
20
35.49999999999999
30
8
10
28.3166896210011
20
46.59415174634928
30
8
10
33.79555495773441
20
53.734348067560305
30
8
10
19.803847577293364
20
29.49999999999999
30
8
10
29.023244132206326
20
17.48504848735265
30
8
10
20.75735931288071
20
36.742640687119284
30
8
10
31.174910015532976
20
44.736308489903564
30
8
10
32.772310825528095
20
45.96203724203228
30
8
10
20.757359312880695
20
28.257359312880727
30
8
10
29.552914270615123
20
21.50829261955895
30
8
10
21.999999999999996
20
37.69615242270663
30
8
10
32.24264068711929
20
41.93879310982592
30
8
10
22.000000000000004
20
27.30384757729336
30
8
10
29.885878839210793
20
24.037409610861253
30
8
10
23.447085729384874
20
38.29555495773441
30
8
10
31.90967611852362
20
39.40967611852361
30
8
10
23.447085729384863
20
26.70444504226559
30
8
10
30.121320343559642
20
25.825765385825235
30
8
10
25
20
38.5
30
8
10
31.67423461417477
20
37.621320343559645
30
8
10
24.999999999999993
20
26.5
30
8
10
30.30198096393688
20
27.198019036063116
30
8
10
26.552914270615126
20
38.29555495773441
30
8
10
31.493573993797533
20
36.24906669332175
30
8
10
26.552914270615126
20
26.70444504226559
30
8
10
30.44948974278318
20
28.318459449647943
30
8
10
27.999999999999996
20
37.69615242270663
30
8
10
31.346065214951235
20
35.12862627973692
30
8
10
27.999999999999993
20
27.303847577293364
30
8
10
30.576158402821456
20
29.280603445087046
30
8
10
29.24264068711928
20
36.742640687119284
30
8
10
31.21939655491296
20
34.16648228429783
30
8
10
29.242640687119287
20
28.257359312880716
30
8
10
30.68972641650416
20
30.143238152091502
30
8
10
30.19615242270663
20
35.5
30
8
10
31.105828541230252
20
33.30384757729336
30
8
10
30.196152422706632
20
29.499999999999993
30
8
10
30.795554957734414
20
30.94708572938488
30
8
10
30.79555495773441
20
34.052914270615126
30
8
10
31
20
32.499999999999986
30
8
10
12.09176788124158
20
56.99999999999999
30
8.999999999999996
10
86.15384615384615
20
57
30
8.999999999999996
10
87.90823211875843
20
57
30
9
10
100
20
57
30
8.999999999999996
10
77.77451380910884
20
57
30
8.999999999999996
10
65.77451380910878
20
57
30
8.999999999999996
10
34.2254861908912
20
57
30
9
10
72.22548619089122
20
57
30
8.999999999999996
10
22.225486190891164
20
56.99999999999999
30
9
10
28.709439168314898
20
57
30
9
10
100
20
63.892307692307696
30
8.999999999999996
10
100
20
64.85964912280701
30
8.999999999999996
10
100
20
64.01538461538462
30
8.000000000000007
10
85.27870617159033
20
0
30
1.177703506272774
10
85.27870617159033
20
0
30
0
10
100
20
0
30
0
10
73.27870617159039
20
0
30
2.137703506272768
10
26.72129382840962
20
0
30
5.862296493727232
10
26.72129382840962
20
0
30
0
10
73.27870617159039
20
0
30
0
10
82.02314766729967
20
0
30
1.4381481866160293
10
82.02314766729967
20
0
30
0
10
14.721293828409678
20
0
30
6.822296493727226
10
14.721293828409678
20
0
30
0
10
23.278706171590326
20
0
30
6.137703506272771
10
23.278706171590326
20
0
30
0
10
83.9010528839602
20
10.464315625425861
30
0
10
77.77451380910884
20
57
30
0
10
100
20
57
30
0
10
76.99756238083839
20
62.90153200667298
30
0
10
32.49774051362277
20
43.8764686661452
30
0
10
70.77806467081435
20
18.99425796397068
30
0
10
34.2254861908912
20
57
30
0
10
65.77451380910878
20
57
30
0
10
65.13997676610131
20
61.81978735410047
30
0
10
34.49192780587532
20
59.0238249928167
30
0
10
75.39982594170459
20
15.990113137892024
30
0
10
69.20444504226559
20
30.947085729384874
30
0
10
69
20
32.5
30
0
10
72.22548619089122
20
57
30
0
10
72.95387125800156
20
62.53263386915102
30
0
10
69.80384757729337
20
29.500000000000007
30
0
10
83.7955549577344
20
11.265651932439631
30
0
10
69.20444504226559
20
34.05291427061511
30
0
10
78.00000000000001
20
55.287262338175516
30
0
10
70.75735931288071
20
28.257359312880713
30
0
10
82.77231082552805
20
19.037962757967794
30
0
10
69.80384757729337
20
35.5
30
0
10
79.02324413220634
20
47.51495151264743
30
0
10
72
20
27.30384757729337
30
0
10
82.24264068711926
20
23.0612068901741
30
0
10
70.75735931288072
20
36.74264068711929
30
0
10
79.55291427061513
20
43.49170738044104
30
0
10
73.44708572938488
20
26.70444504226559
30
0
10
81.9096761185236
20
25.590323881476387
30
0
10
72
20
37.696152422706625
30
0
10
79.8858788392108
20
40.96259038913874
30
0
10
75
20
26.5
30
0
10
81.67423461417476
20
27.378679656440355
30
0
10
73.4470857293849
20
38.29555495773441
30
0
10
80.12132034355966
20
39.174234614174765
30
0
10
76.55291427061512
20
26.70444504226559
30
0
10
81.49357399379753
20
28.750933306678235
30
0
10
75
20
38.5
30
0
10
80.3019809639369
20
37.80198096393689
30
0
10
78
20
27.30384757729337
30
0
10
81.34606521495124
20
29.87137372026306
30
0
10
76.55291427061513
20
38.29555495773441
30
0
10
80.44948974278319
20
36.68154055035205
30
0
10
79.24264068711928
20
28.257359312880705
30
0
10
81.21939655491296
20
30.833517715702165
30
0
10
78
20
37.69615242270663
30
0
10
80.57615840282146
20
35.71939655491296
30
0
10
80.19615242270665
20
29.500000000000014
30
0
10
81.10582854123025
20
31.69615242270663
30
0
10
79.2426406871193
20
36.74264068711928
30
0
10
80.68972641650417
20
34.85676184790849
30
0
10
80.79555495773442
20
30.94708572938488
30
0
10
81
20
32.49999999999999
30
0
10
80.19615242270663
20
35.5
30
0
10
80.79555495773442
20
34.05291427061512
30
0
10
12.307692307692307
20
57
30
0
10
21.443681890647646
20
51.06160677107903
30
0
10
22.225486190891168
20
57
30
0
10
22.346050926256467
20
57.91578008450059
30
0
10
19
20
32.50000000000001
30
0
10
19.20444504226559
20
34.05291427061512
30
0
10
25.23019882086728
20
48.60037076643627
30
0
10
28.709439168314905
20
57
30
0
10
29.353567045405125
20
58.5550622567738
30
0
10
19.204445042265593
20
30.947085729384856
30
0
10
27.999999999999993
20
9.712737661824548
30
0
10
19.803847577293375
20
35.50000000000002
30
0
10
28.3166896210011
20
46.59415174634928
30
0
10
33.79555495773441
20
53.734348067560305
30
0
10
19.803847577293364
20
29.499999999999993
30
0
10
29.023244132206326
20
17.48504848735265
30
0
10
20.757359312880702
20
36.74264068711928
30
0
10
31.174910015532976
20
44.736308489903564
30
0
10
32.772310825528095
20
45.962037242032274
30
0
10
20.757359312880702
20
28.257359312880723
30
0
10
29.552914270615123
20
21.50829261955895
30
0
10
21.999999999999996
20
37.69615242270663
30
0
10
32.24264068711929
20
41.93879310982592
30
0
10
22.000000000000004
20
27.303847577293364
30
0
10
29.885878839210793
20
24.037409610861257
30
0
10
23.447085729384874
20
38.29555495773441
30
0
10
31.909676118523624
20
39.40967611852362
30
0
10
23.44708572938487
20
26.70444504226559
30
0
10
30.121320343559642
20
25.825765385825235
30
0
10
24.999999999999993
20
38.5
30
0
10
31.67423461417477
20
37.621320343559645
30
0
10
25
20
26.5
30
0
10
30.30198096393688
20
27.198019036063116
30
0
10
26.55291427061513
20
38.29555495773441
30
0
10
31.493573993797533
20
36.24906669332175
30
0
10
26.552914270615123
20
26.70444504226559
30
0
10
30.44948974278318
20
28.318459449647943
30
0
10
27.999999999999996
20
37.69615242270663
30
0
10
31.346065214951235
20
35.12862627973692
30
0
10
27.999999999999993
20
27.303847577293364
30
0
10
30.576158402821456
20
29.280603445087046
30
0
10
29.242640687119284
20
36.742640687119284
30
0
10
31.21939655491296
20
34.16648228429783
30
0
10
29.242640687119287
20
28.257359312880716
30
0
10
30.68972641650416
20
30.143238152091502
30
0
10
30.196152422706636
20
35.49999999999999
30
0
10
31.105828541230252
20
33.30384757729336
30
0
10
30.196152422706636
20
29.5
30
0
10
30.79555495773441
20
30.947085729384874
30
0
10
30.795554957734407
20
34.05291427061513
30
0
10
31.000000000000004
20
32.499999999999986
30
0
10
80.73561470423164
20
34.19762284355361
30
8
10
80.25609267620942
20
35.35529142706151
30
0
10
80.81599946196097
20
31.102377156446384
30
8
10
80.97955549577344
20
32.34470857293849
30
0
10
19.18400053803903
20
33.89762284355361
30
8
10
19.020444504226557
20
32.65529142706151
30
0
10
80.1008012491479
20
35.62426406871193
30
8
10
79.33799186067802
20
36.61837661840735
30
0
10
19.020444504226557
20
32.34470857293849
30
8
10
19.18400053803903
20
31.102377156446387
30
0
10
80.25609267620942
20
29.644708572938484
30
8
10
80.73561470423164
20
30.802377156446383
30
0
10
19.743907323790587
20
35.355291427061516
30
8
10
19.264385295768367
20
34.19762284355362
30
0
10
79.11837661840737
20
36.83799186067802
30
8
10
78.12426406871194
20
37.6008012491479
30
0
10
19.264385295768367
20
30.802377156446386
30
8
10
19.743907323790587
20
29.644708572938487
30
0
10
79.33799186067802
20
28.381623381592643
30
8
10
80.1008012491479
20
29.37573593128807
30
0
10
20.66200813932198
20
36.61837661840735
30
8
10
19.899198750852097
20
35.62426406871193
30
0
10
77.85529142706152
20
37.75609267620941
30
8
10
76.69762284355362
20
38.23561470423164
30
0
10
19.899198750852097
20
29.375735931288073
30
8
10
20.66200813932198
20
28.381623381592647
30
0
10
78.12426406871194
20
27.3991987508521
30
8
10
79.11837661840737
20
28.16200813932198
30
0
10
21.87573593128807
20
37.6008012491479
30
8
10
20.88162338159264
20
36.83799186067802
30
0
10
76.39762284355362
20
38.31599946196097
30
8
10
75.15529142706151
20
38.47955549577344
30
0
10
20.88162338159264
20
28.162008139321983
30
8
10
21.87573593128807
20
27.399198750852104
30
0
10
76.6976228435536
20
26.764385295768367
30
8
10
77.85529142706152
20
27.24390732379059
30
0
10
23.302377156446386
20
38.23561470423164
30
8
10
22.144708572938487
20
37.75609267620941
30
0
10
74.84470857293849
20
38.47955549577344
30
8
10
73.6023771564464
20
38.31599946196097
30
0
10
73.6023771564464
20
26.68400053803903
30
8
10
74.84470857293849
20
26.52044450422656
30
0
10
70.88162338159265
20
28.162008139321983
30
8
10
71.87573593128806
20
27.399198750852104
30
0
10
69.7439073237906
20
35.355291427061516
30
8
10
69.26438529576836
20
34.19762284355362
30
0
10
70.66200813932198
20
36.61837661840735
30
8
10
69.8991987508521
20
35.62426406871193
30
0
10
69.8991987508521
20
29.375735931288073
30
8
10
70.66200813932198
20
28.381623381592647
30
0
10
72.14470857293848
20
27.24390732379059
30
8
10
73.3023771564464
20
26.764385295768367
30
0
10
69.18400053803903
20
33.89762284355361
30
8
10
69.02044450422656
20
32.65529142706151
30
0
10
71.87573593128806
20
37.6008012491479
30
8
10
70.88162338159265
20
36.83799186067802
30
0
10
69.26438529576836
20
30.802377156446386
30
8
10
69.7439073237906
20
29.644708572938487
30
0
10
73.3023771564464
20
38.23561470423164
30
8
10
72.14470857293848
20
37.75609267620941
30
0
10
69.02044450422656
20
32.34470857293849
30
8
10
69.18400053803903
20
31.102377156446387
30
0
10
75.15529142706151
20
26.52044450422656
30
8
10
76.3976228435536
20
26.68400053803903
30
0
10
80.97955549577344
20
32.65529142706151
30
8
10
80.81599946196097
20
33.89762284355361
30
0
10
30.979555495773443
20
32.65529142706151
30
8
10
30.973174686332932
20
32.70375848661177
30
7.687896103040792
10
30.973174686332932
20
32.70375848661177
30
0
10
30.973174686332932
20
32.70375848661177
30
8
10
30.973174686332932
20
32.296241513388246
30
0.31210389695913676
10
30.97955549577344
20
32.34470857293849
30
0
10
30.973174686332932
20
32.296241513388246
30
0
10
30.973174686332932
20
32.296241513388246
30
8
10
26.69762284355361
20
26.764385295768367
30
8
10
27.855291427061513
20
27.24390732379059
30
0
10
25.155291427061513
20
26.52044450422656
30
8
10
26.39762284355361
20
26.68400053803903
30
0
10
28.12426406871193
20
27.3991987508521
30
8
10
29.118376618407353
20
28.16200813932198
30
0
10
23.602377156446387
20
26.68400053803903
30
8
10
24.84470857293849
20
26.52044450422656
30
0
10
29.33799186067802
20
28.381623381592643
30
8
10
30.100801249147896
20
29.37573593128807
30
0
10
22.144708572938487
20
27.24390732379059
30
8
10
23.302377156446386
20
26.764385295768367
30
0
10
30.25609267620941
20
29.644708572938484
30
8
10
30.735614704231633
20
30.802377156446383
30
0
10
30.815999461960967
20
31.102377156446384
30
8
10
29.118376618407353
20
36.83799186067802
30
8
10
28.12426406871193
20
37.6008012491479
30
0
10
30.100801249147896
20
35.62426406871193
30
8
10
29.33799186067802
20
36.61837661840735
30
0
10
27.855291427061513
20
37.75609267620941
30
8
10
26.69762284355361
20
38.23561470423164
30
0
10
30.735614704231633
20
34.19762284355361
30
8
10
30.25609267620941
20
35.35529142706151
30
0
10
26.397622843553613
20
38.31599946196097
30
8
10
25.155291427061513
20
38.47955549577344
30
0
10
30.81599946196097
20
33.89762284355361
30
0
10
24.84470857293849
20
38.47955549577344
30
8
10
23.602377156446387
20
38.31599946196097
30
0
93
1713
90
3
90
0
90
1
90
2
90
3
90
2
90
3
90
0
90
3
90
4
90
0
90
5
90
3
90
6
90
7
90
1
90
4
90
6
90
1
90
0
90
4
90
4
90
4
90
5
90
8
90
9
90
4
90
6
90
9
90
10
90
7
90
3
90
6
90
4
90
9
90
3
90
11
90
12
90
13
90
3
90
13
90
12
90
14
90
3
90
14
90
10
90
13
90
3
90
13
90
8
90
15
90
3
90
15
90
11
90
13
90
3
90
13
90
10
90
9
90
3
90
9
90
8
90
13
90
9
90
16
90
3
90
17
90
24
90
36
90
32
90
31
90
45
90
41
90
3
90
18
90
3
90
16
90
4
90
18
90
5
90
0
90
3
90
4
90
19
90
20
90
21
90
22
90
3
90
19
90
23
90
20
90
4
90
23
90
24
90
17
90
20
90
4
90
25
90
26
90
27
90
28
90
4
90
26
90
25
90
29
90
30
90
4
90
30
90
29
90
31
90
32
90
4
90
26
90
33
90
34
90
27
90
4
90
33
90
26
90
30
90
35
90
4
90
35
90
30
90
32
90
36
90
4
90
33
90
19
90
22
90
34
90
4
90
19
90
33
90
35
90
23
90
4
90
23
90
35
90
36
90
24
90
3
90
37
90
38
90
15
90
3
90
15
90
8
90
39
90
4
90
37
90
15
90
39
90
40
90
4
90
40
90
39
90
16
90
41
90
4
90
18
90
16
90
39
90
8
90
3
90
18
90
8
90
5
90
4
90
37
90
42
90
43
90
38
90
4
90
42
90
37
90
40
90
44
90
4
90
44
90
40
90
41
90
45
90
4
90
42
90
25
90
28
90
43
90
4
90
25
90
42
90
44
90
29
90
4
90
29
90
44
90
45
90
31
90
3
90
46
90
47
90
48
90
3
90
47
90
49
90
50
90
25
90
48
90
47
90
50
90
51
90
66
90
70
90
74
90
78
90
82
90
86
90
90
90
94
90
98
90
102
90
350
90
100
90
96
90
92
90
88
90
84
90
80
90
76
90
72
90
68
90
64
90
24
90
52
90
53
90
54
90
55
90
125
90
129
90
133
90
137
90
141
90
145
90
149
90
153
90
359
90
374
90
151
90
147
90
143
90
139
90
135
90
131
90
127
90
123
90
118
90
113
90
9
90
55
90
54
90
60
90
346
90
61
90
56
90
57
90
116
90
121
90
4
90
53
90
58
90
59
90
54
90
5
90
60
90
54
90
59
90
63
90
342
90
5
90
61
90
338
90
65
90
62
90
56
90
4
90
58
90
46
90
48
90
59
90
6
90
63
90
59
90
48
90
64
90
67
90
334
90
6
90
65
90
330
90
69
90
66
90
51
90
62
90
5
90
67
90
64
90
68
90
71
90
328
90
5
90
69
90
332
90
73
90
70
90
66
90
5
90
71
90
68
90
72
90
75
90
336
90
5
90
73
90
340
90
77
90
74
90
70
90
5
90
75
90
72
90
76
90
79
90
326
90
5
90
77
90
344
90
81
90
78
90
74
90
5
90
79
90
76
90
80
90
83
90
348
90
5
90
81
90
324
90
85
90
82
90
78
90
5
90
83
90
80
90
84
90
87
90
320
90
5
90
85
90
316
90
89
90
86
90
82
90
5
90
87
90
84
90
88
90
91
90
312
90
5
90
89
90
308
90
93
90
90
90
86
90
5
90
91
90
88
90
92
90
95
90
304
90
5
90
93
90
300
90
97
90
94
90
90
90
5
90
95
90
92
90
96
90
99
90
296
90
5
90
97
90
292
90
101
90
98
90
94
90
4
90
99
90
96
90
100
90
288
90
4
90
101
90
286
90
102
90
98
90
3
90
103
90
10
90
14
90
7
90
14
90
104
90
107
90
290
90
109
90
105
90
103
90
3
90
105
90
106
90
103
90
5
90
107
90
104
90
108
90
112
90
294
90
5
90
109
90
298
90
114
90
110
90
105
90
4
90
105
90
110
90
111
90
106
90
6
90
112
90
108
90
52
90
113
90
117
90
302
90
5
90
114
90
306
90
119
90
115
90
110
90
5
90
110
90
115
90
116
90
57
90
111
90
5
90
117
90
113
90
118
90
122
90
310
90
5
90
119
90
314
90
124
90
120
90
115
90
4
90
115
90
120
90
121
90
116
90
5
90
122
90
118
90
123
90
126
90
318
90
6
90
124
90
322
90
128
90
125
90
55
90
120
90
3
90
120
90
55
90
121
90
5
90
126
90
123
90
127
90
130
90
370
90
5
90
128
90
386
90
132
90
129
90
125
90
5
90
130
90
127
90
131
90
134
90
366
90
5
90
132
90
383
90
136
90
133
90
129
90
5
90
134
90
131
90
135
90
138
90
362
90
5
90
136
90
379
90
140
90
137
90
133
90
5
90
138
90
135
90
139
90
142
90
360
90
5
90
140
90
375
90
144
90
141
90
137
90
5
90
142
90
139
90
143
90
146
90
364
90
5
90
144
90
377
90
148
90
145
90
141
90
5
90
146
90
143
90
147
90
150
90
368
90
5
90
148
90
381
90
152
90
149
90
145
90
4
90
150
90
147
90
151
90
372
90
5
90
152
90
355
90
352
90
153
90
149
90
3
90
154
90
1
90
7
90
9
90
155
90
1
90
154
90
162
90
163
90
160
90
159
90
161
90
158
90
3
90
156
90
157
90
2
90
4
90
156
90
2
90
1
90
155
90
4
90
155
90
158
90
51
90
50
90
4
90
156
90
50
90
49
90
157
90
3
90
156
90
155
90
50
90
4
90
159
90
160
90
57
90
56
90
4
90
161
90
159
90
56
90
62
90
4
90
158
90
161
90
62
90
51
90
4
90
154
90
7
90
10
90
103
90
4
90
162
90
154
90
103
90
106
90
4
90
163
90
162
90
106
90
111
90
4
90
160
90
163
90
111
90
57
90
3
90
164
90
2
90
157
90
3
90
165
90
2
90
164
90
4
90
165
90
17
90
3
90
2
90
4
90
166
90
164
90
157
90
49
90
4
90
165
90
164
90
166
90
20
90
3
90
165
90
20
90
17
90
3
90
167
90
168
90
169
90
4
90
167
90
169
90
47
90
46
90
4
90
170
90
171
90
172
90
173
90
4
90
171
90
170
90
53
90
52
90
4
90
174
90
170
90
173
90
175
90
4
90
170
90
174
90
58
90
53
90
4
90
167
90
174
90
175
90
168
90
4
90
174
90
167
90
46
90
58
90
4
90
176
90
14
90
12
90
177
90
3
90
176
90
104
90
14
90
4
90
178
90
176
90
177
90
179
90
4
90
176
90
178
90
108
90
104
90
4
90
171
90
178
90
179
90
172
90
4
90
178
90
171
90
52
90
108
90
3
90
180
90
169
90
168
90
25
90
181
90
182
90
169
90
180
90
196
90
200
90
204
90
208
90
212
90
216
90
220
90
224
90
228
90
232
90
351
90
234
90
230
90
226
90
222
90
218
90
214
90
210
90
206
90
202
90
198
90
3
90
183
90
22
90
21
90
4
90
183
90
21
90
182
90
181
90
24
90
184
90
185
90
173
90
172
90
245
90
250
90
255
90
259
90
263
90
267
90
271
90
275
90
279
90
283
90
358
90
357
90
285
90
281
90
277
90
273
90
269
90
265
90
261
90
257
90
9
90
186
90
187
90
192
90
347
90
191
90
185
90
184
90
253
90
248
90
4
90
188
90
189
90
28
90
27
90
4
90
189
90
188
90
187
90
186
90
4
90
185
90
190
90
175
90
173
90
5
90
191
90
343
90
195
90
190
90
185
90
5
90
192
90
187
90
193
90
197
90
339
90
4
90
194
90
188
90
27
90
34
90
4
90
188
90
194
90
193
90
187
90
4
90
190
90
180
90
168
90
175
90
6
90
195
90
335
90
199
90
196
90
180
90
190
90
6
90
197
90
193
90
181
90
198
90
201
90
331
90
4
90
183
90
194
90
34
90
22
90
4
90
194
90
183
90
181
90
193
90
5
90
199
90
329
90
203
90
200
90
196
90
5
90
201
90
198
90
202
90
205
90
333
90
5
90
203
90
337
90
207
90
204
90
200
90
5
90
205
90
202
90
206
90
209
90
341
90
5
90
207
90
327
90
211
90
208
90
204
90
5
90
209
90
206
90
210
90
213
90
345
90
5
90
211
90
349
90
215
90
212
90
208
90
5
90
213
90
210
90
214
90
217
90
325
90
5
90
215
90
321
90
219
90
216
90
212
90
5
90
217
90
214
90
218
90
221
90
317
90
5
90
219
90
313
90
223
90
220
90
216
90
5
90
221
90
218
90
222
90
225
90
309
90
5
90
223
90
305
90
227
90
224
90
220
90
5
90
225
90
222
90
226
90
229
90
301
90
5
90
227
90
297
90
231
90
228
90
224
90
5
90
229
90
226
90
230
90
233
90
293
90
4
90
231
90
289
90
232
90
228
90
4
90
233
90
230
90
234
90
287
90
7
90
235
90
236
90
240
90
291
90
239
90
177
90
12
90
3
90
12
90
11
90
235
90
3
90
237
90
236
90
235
90
3
90
11
90
15
90
235
90
4
90
238
90
235
90
15
90
38
90
3
90
238
90
237
90
235
90
5
90
239
90
295
90
244
90
179
90
177
90
5
90
240
90
236
90
241
90
246
90
299
90
4
90
237
90
242
90
241
90
236
90
4
90
243
90
238
90
38
90
43
90
4
90
238
90
243
90
242
90
237
90
6
90
244
90
303
90
249
90
245
90
172
90
179
90
5
90
246
90
241
90
247
90
251
90
307
90
5
90
242
90
186
90
248
90
247
90
241
90
4
90
189
90
243
90
43
90
28
90
4
90
243
90
189
90
186
90
242
90
5
90
249
90
311
90
254
90
250
90
245
90
5
90
251
90
247
90
252
90
256
90
315
90
4
90
248
90
253
90
252
90
247
90
5
90
254
90
319
90
258
90
255
90
250
90
6
90
256
90
252
90
184
90
257
90
260
90
323
90
3
90
253
90
184
90
252
90
5
90
258
90
371
90
262
90
259
90
255
90
5
90
260
90
257
90
261
90
264
90
387
90
5
90
262
90
367
90
266
90
263
90
259
90
5
90
264
90
261
90
265
90
268
90
384
90
5
90
266
90
363
90
270
90
267
90
263
90
5
90
268
90
265
90
269
90
272
90
380
90
5
90
270
90
361
90
274
90
271
90
267
90
5
90
272
90
269
90
273
90
276
90
376
90
5
90
274
90
365
90
278
90
275
90
271
90
5
90
276
90
273
90
277
90
280
90
378
90
5
90
278
90
369
90
282
90
279
90
275
90
5
90
280
90
277
90
281
90
284
90
382
90
4
90
282
90
373
90
283
90
279
90
5
90
284
90
281
90
285
90
354
90
385
90
3
90
47
90
169
90
182
90
3
90
47
90
182
90
21
90
3
90
21
90
20
90
166
90
3
90
21
90
166
90
49
90
3
90
21
90
49
90
47
90
4
90
286
90
287
90
234
90
102
90
4
90
287
90
286
90
101
90
233
90
4
90
288
90
289
90
231
90
99
90
4
90
289
90
288
90
100
90
232
90
4
90
290
90
291
90
240
90
109
90
4
90
291
90
290
90
107
90
239
90
4
90
292
90
293
90
233
90
101
90
4
90
293
90
292
90
97
90
229
90
4
90
294
90
295
90
239
90
107
90
4
90
295
90
294
90
112
90
244
90
4
90
296
90
297
90
227
90
95
90
4
90
297
90
296
90
99
90
231
90
4
90
298
90
299
90
246
90
114
90
4
90
299
90
298
90
109
90
240
90
4
90
300
90
301
90
229
90
97
90
4
90
301
90
300
90
93
90
225
90
4
90
302
90
303
90
244
90
112
90
4
90
303
90
302
90
117
90
249
90
4
90
304
90
305
90
223
90
91
90
4
90
305
90
304
90
95
90
227
90
4
90
306
90
307
90
251
90
119
90
4
90
307
90
306
90
114
90
246
90
4
90
308
90
309
90
225
90
93
90
4
90
309
90
308
90
89
90
221
90
4
90
310
90
311
90
249
90
117
90
4
90
311
90
310
90
122
90
254
90
4
90
312
90
313
90
219
90
87
90
4
90
313
90
312
90
91
90
223
90
4
90
314
90
315
90
256
90
124
90
4
90
315
90
314
90
119
90
251
90
4
90
316
90
317
90
221
90
89
90
4
90
317
90
316
90
85
90
217
90
4
90
318
90
319
90
254
90
122
90
4
90
319
90
318
90
126
90
258
90
4
90
320
90
321
90
215
90
83
90
4
90
321
90
320
90
87
90
219
90
4
90
322
90
323
90
260
90
128
90
4
90
323
90
322
90
124
90
256
90
4
90
324
90
325
90
217
90
85
90
4
90
325
90
324
90
81
90
213
90
4
90
326
90
327
90
207
90
75
90
4
90
327
90
326
90
79
90
211
90
4
90
328
90
329
90
199
90
67
90
4
90
329
90
328
90
71
90
203
90
4
90
330
90
331
90
201
90
69
90
4
90
331
90
330
90
65
90
197
90
4
90
332
90
333
90
205
90
73
90
4
90
333
90
332
90
69
90
201
90
4
90
334
90
335
90
195
90
63
90
4
90
335
90
334
90
67
90
199
90
4
90
336
90
337
90
203
90
71
90
4
90
337
90
336
90
75
90
207
90
4
90
338
90
339
90
197
90
65
90
4
90
339
90
338
90
61
90
192
90
4
90
340
90
341
90
209
90
77
90
4
90
341
90
340
90
73
90
205
90
4
90
342
90
343
90
191
90
60
90
4
90
343
90
342
90
63
90
195
90
4
90
344
90
345
90
213
90
81
90
4
90
345
90
344
90
77
90
209
90
4
90
346
90
347
90
192
90
61
90
4
90
347
90
346
90
60
90
191
90
4
90
348
90
349
90
211
90
79
90
4
90
349
90
348
90
83
90
215
90
4
90
350
90
351
90
232
90
100
90
4
90
351
90
350
90
102
90
234
90
5
90
352
90
353
90
354
90
285
90
153
90
3
90
353
90
352
90
355
90
3
90
356
90
357
90
358
90
5
90
357
90
356
90
359
90
153
90
285
90
4
90
360
90
361
90
270
90
138
90
4
90
361
90
360
90
142
90
274
90
4
90
362
90
363
90
266
90
134
90
4
90
363
90
362
90
138
90
270
90
4
90
364
90
365
90
274
90
142
90
4
90
365
90
364
90
146
90
278
90
4
90
366
90
367
90
262
90
130
90
4
90
367
90
366
90
134
90
266
90
4
90
368
90
369
90
278
90
146
90
4
90
369
90
368
90
150
90
282
90
4
90
370
90
371
90
258
90
126
90
4
90
371
90
370
90
130
90
262
90
4
90
372
90
373
90
282
90
150
90
4
90
373
90
372
90
151
90
283
90
5
90
374
90
356
90
358
90
283
90
151
90
3
90
356
90
374
90
359
90
4
90
375
90
376
90
276
90
144
90
4
90
376
90
375
90
140
90
272
90
4
90
377
90
378
90
280
90
148
90
4
90
378
90
377
90
144
90
276
90
4
90
379
90
380
90
272
90
140
90
4
90
380
90
379
90
136
90
268
90
4
90
381
90
382
90
284
90
152
90
4
90
382
90
381
90
148
90
280
90
4
90
383
90
384
90
268
90
136
90
4
90
384
90
383
90
132
90
264
90
3
90
353
90
385
90
354
90
5
90
385
90
353
90
355
90
152
90
284
90
4
90
386
90
387
90
264
90
132
90
4
90
387
90
386
90
128
90
260
94
0
95
0
90
0
1001
CONDUITCAD
1000
{"id":"3d-bracket-006","label":"Finished bracket","feature3d":{"version":1,"kind":"subtract","parameters":{},"inputs":["3d-bracket-003","3d-bracket-005"],"suppressed":false},"model3dConsumed":false,"m
1000
odel3dUserHidden":false}
0
ENDSEC
0
SECTION
2
OBJECTS
0
DICTIONARY
5
123
330
0
100
AcDbDictionary
281
1
3
ACAD_LAYOUT
350
124
3
ACAD_GROUP
350
125
3
CONDUITCAD_METADATA
350
128
0
DICTIONARY
5
124
330
123
100
AcDbDictionary
281
1
3
Model
350
126
3
Layout1
350
127
0
DICTIONARY
5
125
330
123
100
AcDbDictionary
281
1
0
LAYOUT
5
126
330
124
100
AcDbPlotSettings
1

2

4

6

40
0
41
0
42
0
43
0
44
420
45
297
46
0
47
0
48
0
49
0
140
0
141
0
142
1
143
1
70
0
72
1
73
0
74
5
7

75
16
76
0
77
0
78
300
147
1
148
0
149
0
100
AcDbLayout
1
Model
70
1
71
0
10
0
20
0
11
420
21
297
12
0
22
0
32
0
14
0
24
0
34
0
15
420
25
297
35
0
146
0
13
0
23
0
33
0
16
1
26
0
36
0
17
0
27
1
37
0
76
0
330
117
0
LAYOUT
5
127
330
124
100
AcDbPlotSettings
1

2

4

6

40
0
41
0
42
0
43
0
44
420
45
297
46
0
47
0
48
0
49
0
140
0
141
0
142
1
143
1
70
0
72
1
73
0
74
5
7

75
16
76
0
77
0
78
300
147
1
148
0
149
0
100
AcDbLayout
1
Layout1
70
1
71
1
10
0
20
0
11
420
21
297
12
0
22
0
32
0
14
0
24
0
34
0
15
420
25
297
35
0
146
0
13
0
23
0
33
0
16
1
26
0
36
0
17
0
27
1
37
0
76
0
330
118
0
XRECORD
5
128
330
123
100
AcDbXrecord
280
1
1
{"parameters":{"grid":"10","Width":"100","Depth":"65","Thickness":"8","Rise":"65","HoleRadius":"6"},"constraints":[],"metadata":{"description":"L-shaped bracket with a patterned through-hole cut. Edit
1
 Width, Thickness and HoleRadius.","modeling":{"version":1,"preferredMode":"3d","example":"bracket","notes":"Editable faceted concept model. Not certified or construction-approved."}}}
0
ENDSEC
0
EOF
