0
SECTION
2
HEADER
9
$ACADVER
1
AC1032
9
$INSUNITS
70
4
9
$LTSCALE
40
1
9
$MEASUREMENT
70
1
999
CONDUIT:{"parameters":{"grid":"10"},"constraints":[],"metadata":{"description":"Circular profile swept along a native 3D polyline using transported frames.","modeling":{"version":1,"prefer
999
CONDUIT:redMode":"3d","example":"conduit","notes":"Editable faceted concept model. Not certified or construction-approved."}}}
9
$HANDSEED
5
12D
9
$DWGCODEPAGE
3
ANSI_1252
9
$CLAYER
8
0
9
$TILEMODE
70
1
0
ENDSEC
0
SECTION
2
TABLES
0
TABLE
2
LTYPE
5
103
330
0
100
AcDbSymbolTable
70
4
0
LTYPE
5
104
100
AcDbSymbolTableRecord
100
AcDbLinetypeTableRecord
2
CONTINUOUS
70
0
3
Solid line
72
65
73
0
40
0
330
103
0
LTYPE
5
105
100
AcDbSymbolTableRecord
100
AcDbLinetypeTableRecord
2
DASHED
70
0
3
DASHED
72
65
73
2
40
12
49
8
74
0
49
-4
74
0
330
103
0
LTYPE
5
106
100
AcDbSymbolTableRecord
100
AcDbLinetypeTableRecord
2
CENTER
70
0
3
CENTER
72
65
73
4
40
20
49
12
74
0
49
-3
74
0
49
2
74
0
49
-3
74
0
330
103
0
LTYPE
5
107
100
AcDbSymbolTableRecord
100
AcDbLinetypeTableRecord
2
HIDDEN
70
0
3
HIDDEN
72
65
73
2
40
7
49
4
74
0
49
-3
74
0
330
103
0
ENDTAB
0
TABLE
2
LAYER
5
108
330
0
100
AcDbSymbolTable
70
6
0
LAYER
5
109
100
AcDbSymbolTableRecord
100
AcDbLayerTableRecord
2
0
70
0
62
7
420
3426133
6
CONTINUOUS
330
108
0
LAYER
5
10A
100
AcDbSymbolTableRecord
100
AcDbLayerTableRecord
2
Equipment
70
0
62
7
420
3495011
6
CONTINUOUS
330
108
0
LAYER
5
10B
100
AcDbSymbolTableRecord
100
AcDbLayerTableRecord
2
Process
70
0
62
7
420
1342583
6
CONTINUOUS
330
108
0
LAYER
5
10C
100
AcDbSymbolTableRecord
100
AcDbLayerTableRecord
2
Instruments
70
0
62
7
420
10187334
6
CONTINUOUS
330
108
0
LAYER
5
10D
100
AcDbSymbolTableRecord
100
AcDbLayerTableRecord
2
Electrical
70
0
62
7
420
6584250
6
CONTINUOUS
330
108
0
LAYER
5
10E
100
AcDbSymbolTableRecord
100
AcDbLayerTableRecord
2
Annotations
70
0
62
7
420
7438474
6
CONTINUOUS
330
108
0
ENDTAB
0
TABLE
2
STYLE
5
10F
330
0
100
AcDbSymbolTable
70
1
0
STYLE
5
110
100
AcDbSymbolTableRecord
100
AcDbTextStyleTableRecord
2
STANDARD
70
0
40
0
41
1
50
0
71
0
42
2.5
3
txt
4

330
10F
0
ENDTAB
0
TABLE
2
APPID
5
111
330
0
100
AcDbSymbolTable
70
2
0
APPID
5
112
100
AcDbSymbolTableRecord
100
AcDbRegAppTableRecord
2
CONDUITCAD
70
0
330
111
0
APPID
5
126
100
AcDbSymbolTableRecord
100
AcDbRegAppTableRecord
2
ACAD
70
0
330
111
0
ENDTAB
0
TABLE
2
BLOCK_RECORD
5
113
330
0
100
AcDbSymbolTable
70
2
0
BLOCK_RECORD
5
114
100
AcDbSymbolTableRecord
100
AcDbBlockTableRecord
2
*Model_Space
340
12A
330
113
0
BLOCK_RECORD
5
115
100
AcDbSymbolTableRecord
100
AcDbBlockTableRecord
2
*Paper_Space
340
12B
330
113
0
ENDTAB
0
TABLE
2
VPORT
5
121
330
0
100
AcDbSymbolTable
70
0
0
ENDTAB
0
TABLE
2
VIEW
5
122
330
0
100
AcDbSymbolTable
70
0
0
ENDTAB
0
TABLE
2
UCS
5
123
330
0
100
AcDbSymbolTable
70
0
0
ENDTAB
0
TABLE
2
DIMSTYLE
5
124
330
0
100
AcDbSymbolTable
70
1
100
AcDbDimStyleTable
71
0
0
DIMSTYLE
105
125
330
124
100
AcDbSymbolTableRecord
100
AcDbDimStyleTableRecord
2
STANDARD
70
0
340
110
0
ENDTAB
0
ENDSEC
0
SECTION
2
BLOCKS
0
BLOCK
5
116
330
114
100
AcDbEntity
8
0
100
AcDbBlockBegin
2
*Model_Space
70
1
10
0
20
0
30
0
3
*Model_Space
1

1001
CONDUITCAD
1000
{"ports":[]}
0
ENDBLK
5
117
330
114
100
AcDbEntity
8
0
100
AcDbBlockEnd
0
BLOCK
5
118
330
115
100
AcDbEntity
8
0
100
AcDbBlockBegin
2
*Paper_Space
70
1
10
0
20
0
30
0
3
*Paper_Space
1

1001
CONDUITCAD
1000
{"ports":[]}
0
ENDBLK
5
119
330
115
100
AcDbEntity
8
0
100
AcDbBlockEnd
0
ENDSEC
0
SECTION
2
ENTITIES
0
CIRCLE
5
100
330
114
100
AcDbEntity
8
Annotations
60
1
100
AcDbCircle
10
0
20
0
30
0
40
7
1001
CONDUITCAD
1000
{"id":"3d-conduit-001","label":"Conduit section","model3dConsumed":true,"model3dUserHidden":false}
0
POLYLINE
5
101
330
114
100
AcDbEntity
8
Annotations
60
1
100
AcDb3dPolyline
66
1
10
0
20
0
30
0
70
8
1001
CONDUITCAD
1000
{"id":"3d-conduit-002","label":"3D route","model3dConsumed":true,"model3dUserHidden":false}
0
VERTEX
5
11A
330
101
100
AcDbEntity
8
Annotations
100
AcDbVertex
100
AcDb3dPolylineVertex
10
0
20
0
30
0
70
32
0
VERTEX
5
11B
330
101
100
AcDbEntity
8
Annotations
100
AcDbVertex
100
AcDb3dPolylineVertex
10
0
20
0
30
35
70
32
0
VERTEX
5
11C
330
101
100
AcDbEntity
8
Annotations
100
AcDbVertex
100
AcDb3dPolylineVertex
10
20
20
0
30
60
70
32
0
VERTEX
5
11D
330
101
100
AcDbEntity
8
Annotations
100
AcDbVertex
100
AcDb3dPolylineVertex
10
50
20
15
30
85
70
32
0
VERTEX
5
11E
330
101
100
AcDbEntity
8
Annotations
100
AcDbVertex
100
AcDb3dPolylineVertex
10
100
20
40
30
85
70
32
0
VERTEX
5
11F
330
101
100
AcDbEntity
8
Annotations
100
AcDbVertex
100
AcDb3dPolylineVertex
10
150
20
40
30
85
70
32
0
SEQEND
5
120
330
101
100
AcDbEntity
8
Annotations
0
MESH
5
102
330
114
100
AcDbEntity
8
Equipment
62
7
420
13209929
100
AcDbSubDMesh
71
2
72
0
91
0
92
192
10
7
20
0
30
0
10
6.865496962822613
20
1.3656322541128978
30
0
10
6.467156727579007
20
2.6787840265556286
30
0
10
5.820287286117817
20
3.8889916311372152
30
0
10
4.949747468305833
20
4.949747468305832
30
0
10
3.888991631137216
20
5.820287286117817
30
0
10
2.678784026555629
20
6.467156727579007
30
0
10
1.3656322541128982
20
6.865496962822613
30
0
10
4.286263797015736e-16
20
7
30
0
10
-1.3656322541128973
20
6.865496962822613
30
0
10
-2.678784026555628
20
6.467156727579007
30
0
10
-3.8889916311372135
20
5.820287286117818
30
0
10
-4.949747468305832
20
4.949747468305833
30
0
10
-5.820287286117818
20
3.8889916311372152
30
0
10
-6.467156727579007
20
2.678784026555629
30
0
10
-6.865496962822613
20
1.3656322541129002
30
0
10
-7
20
8.572527594031472e-16
30
0
10
-6.865496962822613
20
-1.3656322541128985
30
0
10
-6.467156727579008
20
-2.6787840265556278
30
0
10
-5.820287286117818
20
-3.8889916311372135
30
0
10
-4.949747468305834
20
-4.949747468305832
30
0
10
-3.8889916311372152
20
-5.820287286117817
30
0
10
-2.678784026555632
20
-6.467156727579006
30
0
10
-1.3656322541129007
20
-6.865496962822612
30
0
10
-1.2858791391047208e-15
20
-7
30
0
10
1.365632254112898
20
-6.865496962822613
30
0
10
2.67878402655563
20
-6.467156727579006
30
0
10
3.888991631137213
20
-5.820287286117818
30
0
10
4.949747468305832
20
-4.949747468305834
30
0
10
5.820287286117817
20
-3.8889916311372152
30
0
10
6.467156727579006
20
-2.6787840265556326
30
0
10
6.865496962822612
20
-1.3656322541129011
30
0
10
6.640783086353596
20
0
30
32.78640563788213
10
6.513182301446342
20
1.3656322541128976
30
32.82893923285122
10
6.13528357332922
20
2.678784026555628
30
32.95490547555693
10
5.5216093381957245
20
3.888991631137215
30
33.159463553934756
10
4.695742752749558
20
4.949747468305831
30
33.43475241575015
10
3.6894214067181013
20
5.820287286117816
30
33.7701928644273
10
2.541317665077829
20
6.467156727579006
30
34.15289411164073
10
1.2955525107559815
20
6.865496962822612
30
34.56814916308134
10
4.0663068752674065e-16
20
6.999999999999999
30
35
10
-1.2955525107559807
20
6.865496962822612
30
35.43185083691866
10
-2.541317665077828
20
6.467156727579006
30
35.84710588835927
10
-3.6894214067180986
20
5.820287286117817
30
36.2298071355727
10
-4.695742752749557
20
4.949747468305832
30
36.56524758424985
10
-5.521609338195725
20
3.888991631137215
30
36.840536446065244
10
-6.13528357332922
20
2.6787840265556286
30
37.04509452444307
10
-6.513182301446342
20
1.3656322541129
30
37.17106076714878
10
-6.640783086353596
20
8.572527594031471e-16
30
37.21359436211787
10
-6.513182301446342
20
-1.3656322541128982
30
37.17106076714878
10
-6.135283573329221
20
-2.6787840265556273
30
37.04509452444307
10
-5.521609338195725
20
-3.888991631137213
30
36.840536446065244
10
-4.695742752749559
20
-4.949747468305831
30
36.56524758424985
10
-3.6894214067181004
20
-5.820287286117816
30
36.2298071355727
10
-2.541317665077832
20
-6.467156727579005
30
35.84710588835928
10
-1.295552510755984
20
-6.865496962822611
30
35.43185083691866
10
-1.2198920625802218e-15
20
-6.999999999999999
30
35
10
1.2955525107559813
20
-6.865496962822612
30
34.56814916308134
10
2.54131766507783
20
-6.467156727579005
30
34.15289411164073
10
3.689421406718098
20
-5.820287286117817
30
33.7701928644273
10
4.695742752749557
20
-4.949747468305833
30
33.43475241575015
10
5.5216093381957245
20
-3.888991631137215
30
33.159463553934756
10
6.13528357332922
20
-2.678784026555632
30
32.95490547555693
10
6.513182301446341
20
-1.365632254112901
30
32.82893923285122
10
24.99452031459124
20
-0.33893126117492633
30
55.10715906376124
10
24.746207730988797
20
1.0018489444848222
30
54.953237585665754
10
24.315501045988416
20
2.3041286570513804
30
54.99326035689617
10
23.71895207595157
20
3.5178619974976906
30
55.22568932479912
10
22.979485863248257
20
4.596405874219902
30
55.641592374485775
10
22.125519679735234
20
5.498312450889954
30
56.22498658499778
10
21.189870966935157
20
6.188921963561451
30
56.95345244399641
10
20.20849618016309
20
6.6416946759607045
30
57.7989954170487
10
19.219109002113353
20
6.839230786668074
30
58.729121761886226
10
18.259731027183687
20
6.773939093728603
30
59.70808724469773
10
17.36723061292527
20
6.448328720285949
30
60.69827077098895
10
16.57590604973805
20
5.874912690387118
30
61.66162014314581
10
15.91616749680539
20
5.0757270604857005
30
62.5611143850489
10
15.41336833673084
20
4.081484086150348
30
63.36218643742406
10
15.08683085926306
20
2.930391967306884
30
64.03405155054487
10
14.949103716536799
20
1.6666865285425658
30
64.55089032490044
10
15.00547968540876
20
0.33893126117492717
30
64.89284093623876
10
15.253792269011203
20
-1.0018489444848229
30
65.04676241433424
10
15.684498954011582
20
-2.3041286570513795
30
65.00673964310383
10
16.28104792404843
20
-3.517861997497689
30
64.77431067520088
10
17.020514136751743
20
-4.596405874219902
30
64.35840762551423
10
17.874480320264766
20
-5.498312450889954
30
63.77501341500222
10
18.81012903306484
20
-6.188921963561449
30
63.046547556003596
10
19.79150381983691
20
-6.641694675960704
30
62.2010045829513
10
20.780890997886644
20
-6.839230786668074
30
61.270878238113774
10
21.740268972816313
20
-6.773939093728603
30
60.29191275530227
10
22.63276938707473
20
-6.448328720285948
30
59.30172922901105
10
23.42409395026195
20
-5.874912690387118
30
58.33837985685419
10
24.08383250319461
20
-5.075727060485701
30
57.4388856149511
10
24.58663166326916
20
-4.081484086150348
30
56.63781356257595
10
24.91316914073694
20
-2.9303919673068877
30
55.96594844945513
10
25.050896283463203
20
-1.6666865285425667
30
55.44910967509957
10
52.63819192536472
20
13.692791822597647
30
78.64931892267666
10
52.12252450037508
20
14.923708936788277
30
78.32998729993851
10
51.52528964916147
20
16.157557873753614
30
78.2669805246775
10
50.869438772122884
20
17.34692251079653
30
78.46271991193234
10
50.180175850658486
20
18.446096231918844
30
78.90968330682269
10
49.48398887229707
20
19.41283840744155
30
79.5906941567429
10
48.8076319121909
20
20.20999767771457
30
80.4795815966458
10
48.17709698901151
20
20.806939659033375
30
81.54218618070978
10
47.61661520624862
20
21.180724205824802
30
82.73767261068473
10
47.147725564492006
20
21.316986987576456
30
84.02009901350326
10
46.78844722971803
20
21.21049150200266
30
85.34018246169805
10
46.55258706684645
20
20.865330310890663
30
86.64719288866631
10
46.44920904966451
20
20.29476776524627
30
87.89090261667954
10
46.48228593739746
20
19.520730263723433
30
89.02351657837065
10
46.65054660379945
20
18.572963633420446
30
90.00150905436905
10
46.94752488582232
20
17.487890014426206
30
90.78729634228664
10
47.36180807463528
20
16.307208177402355
30
91.35068107732334
10
47.87747549962492
20
15.076291063211722
30
91.67001270006149
10
48.47471035083853
20
13.842442126246388
30
91.7330194753225
10
49.130561227877116
20
12.65307748920347
30
91.53728008806766
10
49.819824149341514
20
11.553903768081154
30
91.09031669317731
10
50.51601112770293
20
10.587161592558449
30
90.4093058432571
10
51.19236808780909
20
9.790002322285433
30
89.5204184033542
10
51.82290301098849
20
9.193060340966628
30
88.45781381929024
10
52.38338479375138
20
8.819275794175196
30
87.26232738931527
10
52.852274435507994
20
8.683013012423544
30
85.97990098649674
10
53.21155277028197
20
8.78950849799734
30
84.65981753830195
10
53.44741293315355
20
9.134669689109337
30
83.35280711133369
10
53.55079095033549
20
9.70523223475373
30
82.10909738332046
10
53.51771406260254
20
10.479269736276567
30
80.97648342162935
10
53.34945339620055
20
11.42703636657955
30
79.99849094563096
10
53.05247511417768
20
12.512109985573794
30
79.21270365771336
10
100.52133063555975
20
37.914677457761
30
78.3381951196949
10
100.1961011009894
20
39.2155955960424
30
78.04685293631418
10
99.8633355110828
20
40.54665795566882
30
78.02271629522112
10
99.53582186084294
20
41.85671255662821
30
78.26671275399691
10
99.22614631617681
20
43.09541473529277
30
78.76946566556562
10
98.94620953459784
20
44.215161861608614
30
79.51165451748273
10
98.70676932963178
20
45.17292268147284
30
80.46475740839338
10
98.51702725407587
20
45.93189098369653
30
81.59214712870612
10
98.3842749894851
20
46.46290004205956
30
82.85049872371677
10
98.31361413093941
20
46.745543476242325
30
84.19145444732078
10
98.30776013560563
20
46.76895945757747
30
85.5634821230767
10
98.36693796924148
20
46.53224812303411
30
86.91385549684718
10
98.48887346088762
20
46.0445061564495
30
88.19068047717636
10
98.66888069798235
20
45.32447720807064
30
89.34488939612187
10
98.90004210335329
20
44.39983158658684
30
90.33212665221647
10
99.17347427382887
20
43.3061029046845
30
91.11445327135746
10
99.47866936444025
20
42.085322542239
30
91.6618048803051
10
99.8038988990106
20
40.7844044039576
30
91.95314706368582
10
100.1366644889172
20
39.45334204433118
30
91.97728370477888
10
100.46417813915706
20
38.14328744337179
30
91.73328724600309
10
100.77385368382319
20
36.90458526470723
30
91.23053433443438
10
101.05379046540216
20
35.784838138391386
30
90.48834548251727
10
101.29323067036822
20
34.82707731852716
30
89.53524259160663
10
101.48297274592413
20
34.06810901630347
30
88.40785287129388
10
101.6157250105149
20
33.53709995794044
30
87.14950127628323
10
101.68638586906059
20
33.254456523757675
30
85.80854555267922
10
101.69223986439437
20
33.23104054242253
30
84.4365178769233
10
101.63306203075852
20
33.46775187696589
30
83.08614450315282
10
101.51112653911238
20
33.9554938435505
30
81.80931952282364
10
101.33111930201765
20
34.67552279192936
30
80.65511060387813
10
101.09995789664671
20
35.60016841341315
30
79.66787334778353
10
100.82652572617113
20
36.6938970953155
30
78.88554672864254
10
150
20
37.85049872371677
30
78.3381951196949
10
150
20
39.19145444732079
30
78.04685293631418
10
150
20
40.563482123076696
30
78.02271629522112
10
150
20
41.91385549684718
30
78.26671275399691
10
150
20
43.19068047717636
30
78.76946566556562
10
150
20
44.34488939612187
30
79.51165451748273
10
150
20
45.33212665221647
30
80.46475740839338
10
150
20
46.11445327135746
30
81.59214712870612
10
150
20
46.66180488030509
30
82.85049872371677
10
150
20
46.95314706368581
30
84.19145444732078
10
150
20
46.977283704778884
30
85.5634821230767
10
150
20
46.73328724600309
30
86.91385549684718
10
150
20
46.23053433443438
30
88.19068047717636
10
150
20
45.48834548251727
30
89.34488939612187
10
150
20
44.535242591606625
30
90.33212665221647
10
150
20
43.40785287129389
30
91.11445327135746
10
150
20
42.14950127628323
30
91.6618048803051
10
150
20
40.80854555267921
30
91.95314706368582
10
150
20
39.436517876923304
30
91.97728370477888
10
150
20
38.08614450315282
30
91.73328724600309
10
150
20
36.80931952282364
30
91.23053433443438
10
150
20
35.65511060387813
30
90.48834548251727
10
150
20
34.667873347783534
30
89.53524259160663
10
150
20
33.88554672864254
30
88.40785287129388
10
150
20
33.33819511969491
30
87.14950127628323
10
150
20
33.04685293631419
30
85.80854555267922
10
150
20
33.022716295221116
30
84.4365178769233
10
150
20
33.26671275399691
30
83.08614450315282
10
150
20
33.76946566556562
30
81.80931952282364
10
150
20
34.51165451748273
30
80.65511060387813
10
150
20
35.46475740839337
30
79.66787334778353
10
150
20
36.59214712870611
30
78.88554672864254
93
1520
90
3
90
0
90
1
90
33
90
3
90
0
90
33
90
32
90
3
90
1
90
2
90
34
90
3
90
1
90
34
90
33
90
3
90
2
90
3
90
35
90
3
90
2
90
35
90
34
90
3
90
3
90
4
90
36
90
3
90
3
90
36
90
35
90
3
90
4
90
5
90
37
90
3
90
4
90
37
90
36
90
3
90
5
90
6
90
38
90
3
90
5
90
38
90
37
90
3
90
6
90
7
90
39
90
3
90
6
90
39
90
38
90
3
90
7
90
8
90
40
90
3
90
7
90
40
90
39
90
3
90
8
90
9
90
41
90
3
90
8
90
41
90
40
90
3
90
9
90
10
90
42
90
3
90
9
90
42
90
41
90
3
90
10
90
11
90
43
90
3
90
10
90
43
90
42
90
3
90
11
90
12
90
44
90
3
90
11
90
44
90
43
90
3
90
12
90
13
90
45
90
3
90
12
90
45
90
44
90
3
90
13
90
14
90
46
90
3
90
13
90
46
90
45
90
3
90
14
90
15
90
47
90
3
90
14
90
47
90
46
90
3
90
15
90
16
90
48
90
3
90
15
90
48
90
47
90
3
90
16
90
17
90
49
90
3
90
16
90
49
90
48
90
3
90
17
90
18
90
50
90
3
90
17
90
50
90
49
90
3
90
18
90
19
90
51
90
3
90
18
90
51
90
50
90
3
90
19
90
20
90
52
90
3
90
19
90
52
90
51
90
3
90
20
90
21
90
53
90
3
90
20
90
53
90
52
90
3
90
21
90
22
90
54
90
3
90
21
90
54
90
53
90
3
90
22
90
23
90
55
90
3
90
22
90
55
90
54
90
3
90
23
90
24
90
56
90
3
90
23
90
56
90
55
90
3
90
24
90
25
90
57
90
3
90
24
90
57
90
56
90
3
90
25
90
26
90
58
90
3
90
25
90
58
90
57
90
3
90
26
90
27
90
59
90
3
90
26
90
59
90
58
90
3
90
27
90
28
90
60
90
3
90
27
90
60
90
59
90
3
90
28
90
29
90
61
90
3
90
28
90
61
90
60
90
3
90
29
90
30
90
62
90
3
90
29
90
62
90
61
90
3
90
30
90
31
90
63
90
3
90
30
90
63
90
62
90
3
90
31
90
0
90
32
90
3
90
31
90
32
90
63
90
3
90
32
90
33
90
65
90
3
90
32
90
65
90
64
90
3
90
33
90
34
90
66
90
3
90
33
90
66
90
65
90
3
90
34
90
35
90
67
90
3
90
34
90
67
90
66
90
3
90
35
90
36
90
68
90
3
90
35
90
68
90
67
90
3
90
36
90
37
90
69
90
3
90
36
90
69
90
68
90
3
90
37
90
38
90
70
90
3
90
37
90
70
90
69
90
3
90
38
90
39
90
71
90
3
90
38
90
71
90
70
90
3
90
39
90
40
90
72
90
3
90
39
90
72
90
71
90
3
90
40
90
41
90
73
90
3
90
40
90
73
90
72
90
3
90
41
90
42
90
74
90
3
90
41
90
74
90
73
90
3
90
42
90
43
90
75
90
3
90
42
90
75
90
74
90
3
90
43
90
44
90
76
90
3
90
43
90
76
90
75
90
3
90
44
90
45
90
77
90
3
90
44
90
77
90
76
90
3
90
45
90
46
90
78
90
3
90
45
90
78
90
77
90
3
90
46
90
47
90
79
90
3
90
46
90
79
90
78
90
3
90
47
90
48
90
80
90
3
90
47
90
80
90
79
90
3
90
48
90
49
90
81
90
3
90
48
90
81
90
80
90
3
90
49
90
50
90
82
90
3
90
49
90
82
90
81
90
3
90
50
90
51
90
83
90
3
90
50
90
83
90
82
90
3
90
51
90
52
90
84
90
3
90
51
90
84
90
83
90
3
90
52
90
53
90
85
90
3
90
52
90
85
90
84
90
3
90
53
90
54
90
86
90
3
90
53
90
86
90
85
90
3
90
54
90
55
90
87
90
3
90
54
90
87
90
86
90
3
90
55
90
56
90
88
90
3
90
55
90
88
90
87
90
3
90
56
90
57
90
89
90
3
90
56
90
89
90
88
90
3
90
57
90
58
90
90
90
3
90
57
90
90
90
89
90
3
90
58
90
59
90
91
90
3
90
58
90
91
90
90
90
3
90
59
90
60
90
92
90
3
90
59
90
92
90
91
90
3
90
60
90
61
90
93
90
3
90
60
90
93
90
92
90
3
90
61
90
62
90
94
90
3
90
61
90
94
90
93
90
3
90
62
90
63
90
95
90
3
90
62
90
95
90
94
90
3
90
63
90
32
90
64
90
3
90
63
90
64
90
95
90
3
90
64
90
65
90
97
90
3
90
64
90
97
90
96
90
3
90
65
90
66
90
98
90
3
90
65
90
98
90
97
90
3
90
66
90
67
90
99
90
3
90
66
90
99
90
98
90
3
90
67
90
68
90
100
90
3
90
67
90
100
90
99
90
3
90
68
90
69
90
101
90
3
90
68
90
101
90
100
90
3
90
69
90
70
90
102
90
3
90
69
90
102
90
101
90
3
90
70
90
71
90
103
90
3
90
70
90
103
90
102
90
3
90
71
90
72
90
104
90
3
90
71
90
104
90
103
90
3
90
72
90
73
90
105
90
3
90
72
90
105
90
104
90
3
90
73
90
74
90
106
90
3
90
73
90
106
90
105
90
3
90
74
90
75
90
107
90
3
90
74
90
107
90
106
90
3
90
75
90
76
90
108
90
3
90
75
90
108
90
107
90
3
90
76
90
77
90
109
90
3
90
76
90
109
90
108
90
3
90
77
90
78
90
110
90
3
90
77
90
110
90
109
90
3
90
78
90
79
90
111
90
3
90
78
90
111
90
110
90
3
90
79
90
80
90
112
90
3
90
79
90
112
90
111
90
3
90
80
90
81
90
113
90
3
90
80
90
113
90
112
90
3
90
81
90
82
90
114
90
3
90
81
90
114
90
113
90
3
90
82
90
83
90
115
90
3
90
82
90
115
90
114
90
3
90
83
90
84
90
116
90
3
90
83
90
116
90
115
90
3
90
84
90
85
90
117
90
3
90
84
90
117
90
116
90
3
90
85
90
86
90
118
90
3
90
85
90
118
90
117
90
3
90
86
90
87
90
119
90
3
90
86
90
119
90
118
90
3
90
87
90
88
90
120
90
3
90
87
90
120
90
119
90
3
90
88
90
89
90
121
90
3
90
88
90
121
90
120
90
3
90
89
90
90
90
122
90
3
90
89
90
122
90
121
90
3
90
90
90
91
90
123
90
3
90
90
90
123
90
122
90
3
90
91
90
92
90
124
90
3
90
91
90
124
90
123
90
3
90
92
90
93
90
125
90
3
90
92
90
125
90
124
90
3
90
93
90
94
90
126
90
3
90
93
90
126
90
125
90
3
90
94
90
95
90
127
90
3
90
94
90
127
90
126
90
3
90
95
90
64
90
96
90
3
90
95
90
96
90
127
90
3
90
96
90
97
90
129
90
3
90
96
90
129
90
128
90
3
90
97
90
98
90
130
90
3
90
97
90
130
90
129
90
3
90
98
90
99
90
131
90
3
90
98
90
131
90
130
90
3
90
99
90
100
90
132
90
3
90
99
90
132
90
131
90
3
90
100
90
101
90
133
90
3
90
100
90
133
90
132
90
3
90
101
90
102
90
134
90
3
90
101
90
134
90
133
90
3
90
102
90
103
90
135
90
3
90
102
90
135
90
134
90
3
90
103
90
104
90
136
90
3
90
103
90
136
90
135
90
3
90
104
90
105
90
137
90
3
90
104
90
137
90
136
90
3
90
105
90
106
90
138
90
3
90
105
90
138
90
137
90
3
90
106
90
107
90
139
90
3
90
106
90
139
90
138
90
3
90
107
90
108
90
140
90
3
90
107
90
140
90
139
90
3
90
108
90
109
90
141
90
3
90
108
90
141
90
140
90
3
90
109
90
110
90
142
90
3
90
109
90
142
90
141
90
3
90
110
90
111
90
143
90
3
90
110
90
143
90
142
90
3
90
111
90
112
90
144
90
3
90
111
90
144
90
143
90
3
90
112
90
113
90
145
90
3
90
112
90
145
90
144
90
3
90
113
90
114
90
146
90
3
90
113
90
146
90
145
90
3
90
114
90
115
90
147
90
3
90
114
90
147
90
146
90
3
90
115
90
116
90
148
90
3
90
115
90
148
90
147
90
3
90
116
90
117
90
149
90
3
90
116
90
149
90
148
90
3
90
117
90
118
90
150
90
3
90
117
90
150
90
149
90
3
90
118
90
119
90
151
90
3
90
118
90
151
90
150
90
3
90
119
90
120
90
152
90
3
90
119
90
152
90
151
90
3
90
120
90
121
90
153
90
3
90
120
90
153
90
152
90
3
90
121
90
122
90
154
90
3
90
121
90
154
90
153
90
3
90
122
90
123
90
155
90
3
90
122
90
155
90
154
90
3
90
123
90
124
90
156
90
3
90
123
90
156
90
155
90
3
90
124
90
125
90
157
90
3
90
124
90
157
90
156
90
3
90
125
90
126
90
158
90
3
90
125
90
158
90
157
90
3
90
126
90
127
90
159
90
3
90
126
90
159
90
158
90
3
90
127
90
96
90
128
90
3
90
127
90
128
90
159
90
3
90
128
90
129
90
161
90
3
90
128
90
161
90
160
90
3
90
129
90
130
90
162
90
3
90
129
90
162
90
161
90
3
90
130
90
131
90
163
90
3
90
130
90
163
90
162
90
3
90
131
90
132
90
164
90
3
90
131
90
164
90
163
90
3
90
132
90
133
90
165
90
3
90
132
90
165
90
164
90
3
90
133
90
134
90
166
90
3
90
133
90
166
90
165
90
3
90
134
90
135
90
167
90
3
90
134
90
167
90
166
90
3
90
135
90
136
90
168
90
3
90
135
90
168
90
167
90
3
90
136
90
137
90
169
90
3
90
136
90
169
90
168
90
3
90
137
90
138
90
170
90
3
90
137
90
170
90
169
90
3
90
138
90
139
90
171
90
3
90
138
90
171
90
170
90
3
90
139
90
140
90
172
90
3
90
139
90
172
90
171
90
3
90
140
90
141
90
173
90
3
90
140
90
173
90
172
90
3
90
141
90
142
90
174
90
3
90
141
90
174
90
173
90
3
90
142
90
143
90
175
90
3
90
142
90
175
90
174
90
3
90
143
90
144
90
176
90
3
90
143
90
176
90
175
90
3
90
144
90
145
90
177
90
3
90
144
90
177
90
176
90
3
90
145
90
146
90
178
90
3
90
145
90
178
90
177
90
3
90
146
90
147
90
179
90
3
90
146
90
179
90
178
90
3
90
147
90
148
90
180
90
3
90
147
90
180
90
179
90
3
90
148
90
149
90
181
90
3
90
148
90
181
90
180
90
3
90
149
90
150
90
182
90
3
90
149
90
182
90
181
90
3
90
150
90
151
90
183
90
3
90
150
90
183
90
182
90
3
90
151
90
152
90
184
90
3
90
151
90
184
90
183
90
3
90
152
90
153
90
185
90
3
90
152
90
185
90
184
90
3
90
153
90
154
90
186
90
3
90
153
90
186
90
185
90
3
90
154
90
155
90
187
90
3
90
154
90
187
90
186
90
3
90
155
90
156
90
188
90
3
90
155
90
188
90
187
90
3
90
156
90
157
90
189
90
3
90
156
90
189
90
188
90
3
90
157
90
158
90
190
90
3
90
157
90
190
90
189
90
3
90
158
90
159
90
191
90
3
90
158
90
191
90
190
90
3
90
159
90
128
90
160
90
3
90
159
90
160
90
191
90
3
90
0
90
31
90
30
90
3
90
0
90
30
90
29
90
3
90
0
90
29
90
28
90
3
90
0
90
28
90
27
90
3
90
0
90
27
90
26
90
3
90
0
90
26
90
25
90
3
90
0
90
25
90
24
90
3
90
0
90
24
90
23
90
3
90
0
90
23
90
22
90
3
90
0
90
22
90
21
90
3
90
0
90
21
90
20
90
3
90
0
90
20
90
19
90
3
90
0
90
19
90
18
90
3
90
0
90
18
90
17
90
3
90
0
90
17
90
16
90
3
90
0
90
16
90
15
90
3
90
0
90
15
90
14
90
3
90
0
90
14
90
13
90
3
90
0
90
13
90
12
90
3
90
0
90
12
90
11
90
3
90
0
90
11
90
10
90
3
90
0
90
10
90
9
90
3
90
0
90
9
90
8
90
3
90
0
90
8
90
7
90
3
90
0
90
7
90
6
90
3
90
0
90
6
90
5
90
3
90
0
90
5
90
4
90
3
90
0
90
4
90
3
90
3
90
0
90
3
90
2
90
3
90
2
90
1
90
0
90
3
90
191
90
160
90
161
90
3
90
191
90
161
90
162
90
3
90
191
90
162
90
163
90
3
90
191
90
163
90
164
90
3
90
191
90
164
90
165
90
3
90
191
90
165
90
166
90
3
90
191
90
166
90
167
90
3
90
191
90
167
90
168
90
3
90
191
90
168
90
169
90
3
90
191
90
169
90
170
90
3
90
191
90
170
90
171
90
3
90
191
90
171
90
172
90
3
90
191
90
172
90
173
90
3
90
191
90
173
90
174
90
3
90
191
90
174
90
175
90
3
90
191
90
175
90
176
90
3
90
191
90
176
90
177
90
3
90
191
90
177
90
178
90
3
90
191
90
178
90
179
90
3
90
191
90
179
90
180
90
3
90
191
90
180
90
181
90
3
90
191
90
181
90
182
90
3
90
191
90
182
90
183
90
3
90
191
90
183
90
184
90
3
90
191
90
184
90
185
90
3
90
191
90
185
90
186
90
3
90
191
90
186
90
187
90
3
90
191
90
187
90
188
90
3
90
191
90
188
90
189
90
3
90
189
90
190
90
191
94
0
95
0
90
0
1001
CONDUITCAD
1000
{"id":"3d-conduit-003","label":"Routed conduit","feature3d":{"version":1,"kind":"sweep","parameters":{},"inputs":["3d-conduit-001","3d-conduit-002"],"suppressed":false},"model3dConsumed":false,"model3
1000
dUserHidden":false}
0
ENDSEC
0
SECTION
2
OBJECTS
0
DICTIONARY
5
127
330
0
100
AcDbDictionary
281
1
3
ACAD_LAYOUT
350
128
3
ACAD_GROUP
350
129
3
CONDUITCAD_METADATA
350
12C
0
DICTIONARY
5
128
330
127
100
AcDbDictionary
281
1
3
Model
350
12A
3
Layout1
350
12B
0
DICTIONARY
5
129
330
127
100
AcDbDictionary
281
1
0
LAYOUT
5
12A
330
128
100
AcDbPlotSettings
1

2

4

6

40
0
41
0
42
0
43
0
44
420
45
297
46
0
47
0
48
0
49
0
140
0
141
0
142
1
143
1
70
0
72
1
73
0
74
5
7

75
16
76
0
77
0
78
300
147
1
148
0
149
0
100
AcDbLayout
1
Model
70
1
71
0
10
0
20
0
11
420
21
297
12
0
22
0
32
0
14
0
24
0
34
0
15
420
25
297
35
0
146
0
13
0
23
0
33
0
16
1
26
0
36
0
17
0
27
1
37
0
76
0
330
114
0
LAYOUT
5
12B
330
128
100
AcDbPlotSettings
1

2

4

6

40
0
41
0
42
0
43
0
44
420
45
297
46
0
47
0
48
0
49
0
140
0
141
0
142
1
143
1
70
0
72
1
73
0
74
5
7

75
16
76
0
77
0
78
300
147
1
148
0
149
0
100
AcDbLayout
1
Layout1
70
1
71
1
10
0
20
0
11
420
21
297
12
0
22
0
32
0
14
0
24
0
34
0
15
420
25
297
35
0
146
0
13
0
23
0
33
0
16
1
26
0
36
0
17
0
27
1
37
0
76
0
330
115
0
XRECORD
5
12C
330
127
100
AcDbXrecord
280
1
1
{"parameters":{"grid":"10"},"constraints":[],"metadata":{"description":"Circular profile swept along a native 3D polyline using transported frames.","modeling":{"version":1,"preferredMode":"3d","examp
1
le":"conduit","notes":"Editable faceted concept model. Not certified or construction-approved."}}}
0
ENDSEC
0
EOF
