0
SECTION
2
HEADER
9
$ACADVER
1
AC1032
9
$INSUNITS
70
4
9
$LTSCALE
40
1
9
$MEASUREMENT
70
1
999
CONDUIT:{"parameters":{"grid":"10","Width":"120","Depth":"90","Height":"55","Wall":"4"},"constraints":[],"metadata":{"description":"Hollow enclosure built by subtractive operations with a 
999
CONDUIT:patterned side ventilation cut.","modeling":{"version":1,"preferredMode":"3d","example":"enclosure","notes":"Editable faceted concept model. Not certified or construction-approved.
999
CONDUIT:"}}}
9
$HANDSEED
5
129
9
$DWGCODEPAGE
3
ANSI_1252
9
$CLAYER
8
0
9
$TILEMODE
70
1
0
ENDSEC
0
SECTION
2
TABLES
0
TABLE
2
LTYPE
5
106
330
0
100
AcDbSymbolTable
70
4
0
LTYPE
5
107
100
AcDbSymbolTableRecord
100
AcDbLinetypeTableRecord
2
CONTINUOUS
70
0
3
Solid line
72
65
73
0
40
0
330
106
0
LTYPE
5
108
100
AcDbSymbolTableRecord
100
AcDbLinetypeTableRecord
2
DASHED
70
0
3
DASHED
72
65
73
2
40
12
49
8
74
0
49
-4
74
0
330
106
0
LTYPE
5
109
100
AcDbSymbolTableRecord
100
AcDbLinetypeTableRecord
2
CENTER
70
0
3
CENTER
72
65
73
4
40
20
49
12
74
0
49
-3
74
0
49
2
74
0
49
-3
74
0
330
106
0
LTYPE
5
10A
100
AcDbSymbolTableRecord
100
AcDbLinetypeTableRecord
2
HIDDEN
70
0
3
HIDDEN
72
65
73
2
40
7
49
4
74
0
49
-3
74
0
330
106
0
ENDTAB
0
TABLE
2
LAYER
5
10B
330
0
100
AcDbSymbolTable
70
6
0
LAYER
5
10C
100
AcDbSymbolTableRecord
100
AcDbLayerTableRecord
2
0
70
0
62
7
420
3426133
6
CONTINUOUS
330
10B
0
LAYER
5
10D
100
AcDbSymbolTableRecord
100
AcDbLayerTableRecord
2
Equipment
70
0
62
7
420
3495011
6
CONTINUOUS
330
10B
0
LAYER
5
10E
100
AcDbSymbolTableRecord
100
AcDbLayerTableRecord
2
Process
70
0
62
7
420
1342583
6
CONTINUOUS
330
10B
0
LAYER
5
10F
100
AcDbSymbolTableRecord
100
AcDbLayerTableRecord
2
Instruments
70
0
62
7
420
10187334
6
CONTINUOUS
330
10B
0
LAYER
5
110
100
AcDbSymbolTableRecord
100
AcDbLayerTableRecord
2
Electrical
70
0
62
7
420
6584250
6
CONTINUOUS
330
10B
0
LAYER
5
111
100
AcDbSymbolTableRecord
100
AcDbLayerTableRecord
2
Annotations
70
0
62
7
420
7438474
6
CONTINUOUS
330
10B
0
ENDTAB
0
TABLE
2
STYLE
5
112
330
0
100
AcDbSymbolTable
70
1
0
STYLE
5
113
100
AcDbSymbolTableRecord
100
AcDbTextStyleTableRecord
2
STANDARD
70
0
40
0
41
1
50
0
71
0
42
2.5
3
txt
4

330
112
0
ENDTAB
0
TABLE
2
APPID
5
114
330
0
100
AcDbSymbolTable
70
2
0
APPID
5
115
100
AcDbSymbolTableRecord
100
AcDbRegAppTableRecord
2
CONDUITCAD
70
0
330
114
0
APPID
5
122
100
AcDbSymbolTableRecord
100
AcDbRegAppTableRecord
2
ACAD
70
0
330
114
0
ENDTAB
0
TABLE
2
BLOCK_RECORD
5
116
330
0
100
AcDbSymbolTable
70
2
0
BLOCK_RECORD
5
117
100
AcDbSymbolTableRecord
100
AcDbBlockTableRecord
2
*Model_Space
340
126
330
116
0
BLOCK_RECORD
5
118
100
AcDbSymbolTableRecord
100
AcDbBlockTableRecord
2
*Paper_Space
340
127
330
116
0
ENDTAB
0
TABLE
2
VPORT
5
11D
330
0
100
AcDbSymbolTable
70
0
0
ENDTAB
0
TABLE
2
VIEW
5
11E
330
0
100
AcDbSymbolTable
70
0
0
ENDTAB
0
TABLE
2
UCS
5
11F
330
0
100
AcDbSymbolTable
70
0
0
ENDTAB
0
TABLE
2
DIMSTYLE
5
120
330
0
100
AcDbSymbolTable
70
1
100
AcDbDimStyleTable
71
0
0
DIMSTYLE
105
121
330
120
100
AcDbSymbolTableRecord
100
AcDbDimStyleTableRecord
2
STANDARD
70
0
340
113
0
ENDTAB
0
ENDSEC
0
SECTION
2
BLOCKS
0
BLOCK
5
119
330
117
100
AcDbEntity
8
0
100
AcDbBlockBegin
2
*Model_Space
70
1
10
0
20
0
30
0
3
*Model_Space
1

1001
CONDUITCAD
1000
{"ports":[]}
0
ENDBLK
5
11A
330
117
100
AcDbEntity
8
0
100
AcDbBlockEnd
0
BLOCK
5
11B
330
118
100
AcDbEntity
8
0
100
AcDbBlockBegin
2
*Paper_Space
70
1
10
0
20
0
30
0
3
*Paper_Space
1

1001
CONDUITCAD
1000
{"ports":[]}
0
ENDBLK
5
11C
330
118
100
AcDbEntity
8
0
100
AcDbBlockEnd
0
ENDSEC
0
SECTION
2
ENTITIES
0
MESH
5
100
330
117
100
AcDbEntity
8
Equipment
62
7
420
5543588
60
1
100
AcDbSubDMesh
71
2
72
0
91
0
92
8
10
0
20
0
30
0
10
120
20
0
30
0
10
120
20
90
30
0
10
0
20
90
30
0
10
0
20
0
30
55
10
120
20
0
30
55
10
120
20
90
30
55
10
0
20
90
30
55
93
30
90
4
90
0
90
3
90
2
90
1
90
4
90
4
90
5
90
6
90
7
90
4
90
0
90
1
90
5
90
4
90
4
90
1
90
2
90
6
90
5
90
4
90
2
90
3
90
7
90
6
90
4
90
3
90
0
90
4
90
7
94
0
95
0
90
0
1001
CONDUITCAD
1000
{"id":"3d-enclosure-001","label":"Outer stock","feature3d":{"version":1,"kind":"box","parameters":{"width":"Width","depth":"Depth","height":"Height"},"inputs":[],"suppressed":false},"model3dConsumed":
1000
true,"model3dUserHidden":false}
0
MESH
5
101
330
117
100
AcDbEntity
8
Equipment
62
7
420
5543588
60
1
100
AcDbSubDMesh
71
2
72
0
91
0
92
8
10
4
20
4
30
4
10
116
20
4
30
4
10
116
20
86
30
4
10
4
20
86
30
4
10
4
20
4
30
59
10
116
20
4
30
59
10
116
20
86
30
59
10
4
20
86
30
59
93
30
90
4
90
0
90
3
90
2
90
1
90
4
90
4
90
5
90
6
90
7
90
4
90
0
90
1
90
5
90
4
90
4
90
1
90
2
90
6
90
5
90
4
90
2
90
3
90
7
90
6
90
4
90
3
90
0
90
4
90
7
94
0
95
0
90
0
1001
CONDUITCAD
1000
{"id":"3d-enclosure-002","label":"Cavity tool","feature3d":{"version":1,"kind":"box","parameters":{"width":"Width-2*Wall","depth":"Depth-2*Wall","height":"Height","x":"Wall","y":"Wall","z":"Wall"},"in
1000
puts":[],"suppressed":false},"model3dConsumed":true,"model3dUserHidden":false}
0
MESH
5
102
330
117
100
AcDbEntity
8
Equipment
62
7
420
5543588
60
1
100
AcDbSubDMesh
71
2
72
0
91
0
92
42
10
120
20
0
30
55
10
120
20
0
30
0
10
120
20
90
30
0
10
120
20
90
30
55
10
116
20
0
30
1.8333333333333357
10
116
20
0
30
0
10
116
20
0
30
55
10
0
20
0
30
55
10
0
20
0
30
0
10
116
20
90
30
53.166666666666664
10
116
20
90
30
0
10
116
20
90
30
55
10
0
20
90
30
0
10
0
20
90
30
55
10
116
20
3
30
55
10
114.66666666666667
20
4
30
55
10
0
20
4
30
55
10
116
20
4
30
55
10
5.333333333333336
20
86
30
55
10
0
20
86
30
55
10
116
20
86
30
55
10
4
20
4
30
55
10
4
20
86
30
55
10
0
20
4
30
2.4444444444444464
10
0
20
4
30
0
10
0
20
86
30
52.55555555555556
10
0
20
86
30
0
10
116
20
3
30
0
10
114.66666666666667
20
4
30
0
10
116
20
4
30
0
10
5.333333333333329
20
86
30
0
10
116
20
86
30
0
10
4
20
86
30
0
10
4
20
4
30
0
10
107.85454545454546
20
86
30
55
10
4
20
86
30
4
10
116
20
86
30
4
10
4
20
80.03636363636363
30
55
10
4
20
4
30
4
10
12.145454545454541
20
4
30
55
10
116
20
4
30
4
10
116
20
9.963636363636361
30
55
93
206
90
3
90
0
90
1
90
2
90
3
90
2
90
3
90
0
90
3
90
4
90
5
90
1
90
4
90
4
90
1
90
0
90
6
90
4
90
4
90
7
90
8
90
5
90
3
90
4
90
6
90
7
90
4
90
9
90
3
90
2
90
10
90
3
90
9
90
11
90
3
90
3
90
9
90
10
90
12
90
4
90
9
90
12
90
13
90
11
90
3
90
14
90
6
90
0
90
7
90
14
90
0
90
3
90
11
90
20
90
41
90
17
90
7
90
14
90
15
90
39
90
21
90
16
90
7
90
6
90
3
90
15
90
14
90
17
90
4
90
18
90
13
90
19
90
22
90
5
90
18
90
34
90
20
90
11
90
13
90
5
90
21
90
37
90
22
90
19
90
16
90
3
90
23
90
24
90
8
90
4
90
23
90
8
90
7
90
16
90
4
90
25
90
13
90
12
90
26
90
3
90
25
90
19
90
13
90
4
90
23
90
25
90
26
90
24
90
4
90
25
90
23
90
16
90
19
90
3
90
27
90
1
90
5
90
6
90
27
90
29
90
31
90
10
90
2
90
1
90
6
90
28
90
27
90
5
90
8
90
24
90
33
90
3
90
29
90
27
90
28
90
4
90
30
90
32
90
26
90
12
90
4
90
31
90
30
90
12
90
10
90
4
90
32
90
33
90
24
90
26
90
4
90
32
90
30
90
28
90
33
90
4
90
31
90
29
90
28
90
30
90
4
90
34
90
35
90
36
90
20
90
4
90
34
90
18
90
22
90
35
90
4
90
37
90
38
90
35
90
22
90
3
90
37
90
21
90
38
90
4
90
39
90
40
90
38
90
21
90
4
90
39
90
15
90
17
90
40
90
3
90
35
90
38
90
40
90
3
90
40
90
36
90
35
90
4
90
41
90
36
90
40
90
17
90
3
90
41
90
20
90
36
94
0
95
0
90
0
1001
CONDUITCAD
1000
{"id":"3d-enclosure-003","label":"Open enclosure","feature3d":{"version":1,"kind":"subtract","parameters":{},"inputs":["3d-enclosure-001","3d-enclosure-002"],"suppressed":false},"model3dConsumed":true
1000
,"model3dUserHidden":false}
0
MESH
5
103
330
117
100
AcDbEntity
8
Equipment
62
7
420
5543588
60
1
100
AcDbSubDMesh
71
2
72
0
91
0
92
8
10
15
20
-1
30
20
10
22
20
-1
30
20
10
22
20
5
30
20
10
15
20
5
30
20
10
15
20
-1
30
40
10
22
20
-1
30
40
10
22
20
5
30
40
10
15
20
5
30
40
93
30
90
4
90
0
90
3
90
2
90
1
90
4
90
4
90
5
90
6
90
7
90
4
90
0
90
1
90
5
90
4
90
4
90
1
90
2
90
6
90
5
90
4
90
2
90
3
90
7
90
6
90
4
90
3
90
0
90
4
90
7
94
0
95
0
90
0
1001
CONDUITCAD
1000
{"id":"3d-enclosure-004","label":"Vent tool","feature3d":{"version":1,"kind":"box","parameters":{"width":7,"depth":"Wall+2","height":20,"x":15,"y":-1,"z":20},"inputs":[],"suppressed":false},"model3dCo
1000
nsumed":true,"model3dUserHidden":false}
0
MESH
5
104
330
117
100
AcDbEntity
8
Equipment
62
7
420
5543588
60
1
100
AcDbSubDMesh
71
2
72
0
91
0
92
56
10
15
20
-1
30
20
10
22
20
-1
30
20
10
22
20
5
30
20
10
15
20
5
30
20
10
15
20
-1
30
40
10
22
20
-1
30
40
10
22
20
5
30
40
10
15
20
5
30
40
10
29
20
-1
30
20
10
36
20
-1
30
20
10
36
20
5
30
20
10
29
20
5
30
20
10
29
20
-1
30
40
10
36
20
-1
30
40
10
36
20
5
30
40
10
29
20
5
30
40
10
43
20
-1
30
20
10
50
20
-1
30
20
10
50
20
5
30
20
10
43
20
5
30
20
10
43
20
-1
30
40
10
50
20
-1
30
40
10
50
20
5
30
40
10
43
20
5
30
40
10
57
20
-1
30
20
10
64
20
-1
30
20
10
64
20
5
30
20
10
57
20
5
30
20
10
57
20
-1
30
40
10
64
20
-1
30
40
10
64
20
5
30
40
10
57
20
5
30
40
10
71
20
-1
30
20
10
78
20
-1
30
20
10
78
20
5
30
20
10
71
20
5
30
20
10
71
20
-1
30
40
10
78
20
-1
30
40
10
78
20
5
30
40
10
71
20
5
30
40
10
85
20
-1
30
20
10
92
20
-1
30
20
10
92
20
5
30
20
10
85
20
5
30
20
10
85
20
-1
30
40
10
92
20
-1
30
40
10
92
20
5
30
40
10
85
20
5
30
40
10
99
20
-1
30
20
10
106
20
-1
30
20
10
106
20
5
30
20
10
99
20
5
30
20
10
99
20
-1
30
40
10
106
20
-1
30
40
10
106
20
5
30
40
10
99
20
5
30
40
93
210
90
4
90
0
90
3
90
2
90
1
90
4
90
4
90
5
90
6
90
7
90
4
90
0
90
1
90
5
90
4
90
4
90
1
90
2
90
6
90
5
90
4
90
2
90
3
90
7
90
6
90
4
90
3
90
0
90
4
90
7
90
4
90
8
90
11
90
10
90
9
90
4
90
12
90
13
90
14
90
15
90
4
90
8
90
9
90
13
90
12
90
4
90
9
90
10
90
14
90
13
90
4
90
10
90
11
90
15
90
14
90
4
90
11
90
8
90
12
90
15
90
4
90
16
90
19
90
18
90
17
90
4
90
20
90
21
90
22
90
23
90
4
90
16
90
17
90
21
90
20
90
4
90
17
90
18
90
22
90
21
90
4
90
18
90
19
90
23
90
22
90
4
90
19
90
16
90
20
90
23
90
4
90
24
90
27
90
26
90
25
90
4
90
28
90
29
90
30
90
31
90
4
90
24
90
25
90
29
90
28
90
4
90
25
90
26
90
30
90
29
90
4
90
26
90
27
90
31
90
30
90
4
90
27
90
24
90
28
90
31
90
4
90
32
90
35
90
34
90
33
90
4
90
36
90
37
90
38
90
39
90
4
90
32
90
33
90
37
90
36
90
4
90
33
90
34
90
38
90
37
90
4
90
34
90
35
90
39
90
38
90
4
90
35
90
32
90
36
90
39
90
4
90
40
90
43
90
42
90
41
90
4
90
44
90
45
90
46
90
47
90
4
90
40
90
41
90
45
90
44
90
4
90
41
90
42
90
46
90
45
90
4
90
42
90
43
90
47
90
46
90
4
90
43
90
40
90
44
90
47
90
4
90
48
90
51
90
50
90
49
90
4
90
52
90
53
90
54
90
55
90
4
90
48
90
49
90
53
90
52
90
4
90
49
90
50
90
54
90
53
90
4
90
50
90
51
90
55
90
54
90
4
90
51
90
48
90
52
90
55
94
0
95
0
90
0
1001
CONDUITCAD
1000
{"id":"3d-enclosure-005","label":"Vent pattern","feature3d":{"version":1,"kind":"linear-pattern","parameters":{"count":7,"dx":14},"inputs":["3d-enclosure-004"],"suppressed":false},"model3dConsumed":tr
1000
ue,"model3dUserHidden":false}
0
MESH
5
105
330
117
100
AcDbEntity
8
Equipment
62
7
420
7575694
100
AcDbSubDMesh
71
2
72
0
91
0
92
470
10
0
20
86
30
0
10
0
20
86
30
52.55555555555556
10
0
20
90
30
55
10
0
20
90
30
0
10
0
20
86
30
55
10
0
20
5
30
0.6409214092140942
10
0
20
4.999999999999993
30
3.0555555555555536
10
0
20
5
30
0
10
0
20
4.999999999999993
30
3.085365853658537
10
0
20
4.999999999999993
30
55
10
0
20
2.9090909090909065
30
40
10
0
20
4
30
55
10
0
20
4
30
40
10
0
20
0
30
40
10
0
20
0
30
55
10
0
20
4.999999999999993
30
40
10
0
20
4
30
2.4444444444444464
10
0
20
4
30
0
10
0
20
0
30
0
10
116
20
3
30
0
10
120
20
0
30
0
10
116
20
0
30
0
10
116
20
4
30
0
10
116
20
86
30
0
10
116
20
90
30
0
10
120
20
90
30
0
10
106
20
3.0892857142857153
30
0
10
106
20
4
30
0
10
114.66666666666667
20
4
30
0
10
106
20
0.3571428571428541
30
0
10
106
20
0
30
0
10
106
20
89.63855421686748
30
0
10
106
20
86
30
0
10
106
20
90
30
0
10
106
20
10.5
30
0
10
106
20
11.409638554216862
30
0
10
92
20
89.13253012048193
30
0
10
92
20
86
30
0
10
92
20
90
30
0
10
92
20
5
30
0
10
92
20
21
30
0
10
106
20
5
30
0
10
92
20
21.78313253012048
30
0
10
99
20
3.151785714285708
30
0
10
92
20
3.2142857142857153
30
0
10
92
20
4
30
0
10
99
20
4
30
0
10
99
20
0.6071428571428541
30
0
10
92
20
0.8571428571428541
30
0
10
99
20
0
30
0
10
92
20
0
30
0
10
99
20
5
30
0
10
71
20
3.4017857142857153
30
0
10
64
20
3.4642857142857153
30
0
10
64
20
4
30
0
10
71
20
4
30
0
10
71
20
1.607142857142854
30
0
10
64
20
1.857142857142854
30
0
10
71
20
0
30
0
10
64
20
0
30
0
10
64
20
88.12048192771084
30
0
10
71
20
88.37349397590361
30
0
10
71
20
86
30
0
10
64
20
86
30
0
10
64
20
90
30
0
10
71
20
90
30
0
10
64
20
42
30
0
10
71
20
36.75
30
0
10
71
20
37.343373493975896
30
0
10
64
20
42.5301204819277
30
0
10
29.000000000000004
20
3.776785714285708
30
0
10
22
20
3.8392857142857153
30
0
10
22
20
4
30
0
10
29.000000000000004
20
4
30
0
10
29.000000000000004
20
3.107142857142861
30
0
10
22
20
3.357142857142854
30
0
10
29.000000000000004
20
0
30
0
10
22
20
0
30
0
10
22
20
86.6024096385542
30
0
10
29.000000000000004
20
86.85542168674698
30
0
10
29.000000000000004
20
86
30
0
10
22
20
86
30
0
10
22
20
90
30
0
10
29.000000000000004
20
90
30
0
10
22
20
73.5
30
0
10
29.000000000000004
20
68.25
30
0
10
29.000000000000004
20
68.46385542168673
30
0
10
22
20
73.65060240963854
30
0
10
5.333333333333329
20
86
30
0
10
4
20
86
30
0
10
3.9512195121951166
20
4.999999999999993
30
0
10
4
20
5
30
0
10
4.016260162601625
20
5
30
0
10
22
20
5
30
0
10
15
20
3.9017857142857153
30
0
10
4
20
4
30
0
10
15
20
4
30
0
10
15
20
3.607142857142854
30
0
10
15
20
0
30
0
10
15
20
5
30
0
10
50
20
87.6144578313253
30
0
10
50.00000000000001
20
86
30
0
10
50
20
90
30
0
10
50.00000000000001
20
5
30
0
10
50
20
52.5
30
0
10
64
20
5
30
0
10
50.00000000000001
20
52.90361445783132
30
0
10
57
20
3.5267857142857153
30
0
10
50.00000000000001
20
3.5892857142857153
30
0
10
50
20
4
30
0
10
57
20
4
30
0
10
57
20
2.107142857142854
30
0
10
50.00000000000001
20
2.357142857142854
30
0
10
57
20
0
30
0
10
50.00000000000001
20
0
30
0
10
57
20
5
30
0
10
116
20
3
30
55
10
116
20
0
30
55
10
120
20
0
30
55
10
116
20
4
30
55
10
120
20
90
30
55
10
116
20
90
30
55
10
116
20
86
30
55
10
116
20
9.963636363636361
30
55
10
114.66666666666667
20
4
30
55
10
106
20
0.3851540616246467
30
55
10
106
20
4
30
55
10
106
20
0.3571428571428541
30
55
10
106
20
0.3448275862068968
30
55
10
106
20
0
30
55
10
106
20
86.06877950101146
30
55
10
106
20
86
30
55
10
107.85454545454546
20
86
30
55
10
106
20
86.34482758620689
30
55
10
106
20
90
30
55
10
92
20
86.58799730276466
30
55
10
92
20
86
30
55
10
92
20
86.82758620689656
30
55
10
92
20
90
30
55
10
92
20
0.9243697478991564
30
55
10
92
20
4
30
55
10
92
20
0.8571428571428541
30
55
10
92
20
0.8275862068965552
30
55
10
92
20
0
30
55
10
64
20
2.0028011204481757
30
55
10
71
20
1.7331932773109244
30
55
10
71
20
4
30
55
10
64
20
4
30
55
10
64
20
1.857142857142854
30
55
10
71
20
1.607142857142854
30
55
10
64
20
1.7931034482758577
30
55
10
71
20
1.551724137931032
30
55
10
64
20
0
30
55
10
71
20
0
30
55
10
71
20
87.36682400539448
30
55
10
64
20
87.62643290627108
30
55
10
64
20
86
30
55
10
71
20
86
30
55
10
71
20
87.55172413793103
30
55
10
64
20
87.79310344827586
30
55
10
71
20
90
30
55
10
64
20
90
30
55
10
22
20
3.6204481792717047
30
55
10
29.000000000000004
20
3.3508403361344534
30
55
10
29.000000000000004
20
4
30
55
10
22
20
4
30
55
10
22
20
3.357142857142854
30
55
10
29.000000000000004
20
3.107142857142861
30
55
10
22
20
3.2413793103448185
30
55
10
29.000000000000004
20
2.999999999999993
30
55
10
22
20
0
30
55
10
29.000000000000004
20
0
30
55
10
29.000000000000004
20
88.92447741065408
30
55
10
22
20
89.18408631153068
30
55
10
22
20
86
30
55
10
29.000000000000004
20
86
30
55
10
29.000000000000004
20
89
30
55
10
22
20
89.24137931034483
30
55
10
29.000000000000004
20
90
30
55
10
22
20
90
30
55
10
4
20
86
30
55
10
5.333333333333336
20
86
30
55
10
0.05260640841702724
20
5
30
55
10
4
20
5
30
55
10
4
20
80.03636363636363
30
55
10
0.04878048780488342
20
5
30
55
10
12.145454545454541
20
4
30
55
10
4
20
4
30
55
10
50.00000000000001
20
88.14565070802428
30
55
10
50
20
86
30
55
10
50.00000000000001
20
88.27586206896552
30
55
10
50.00000000000001
20
90
30
55
10
50
20
2.5420168067226854
30
55
10
50.00000000000001
20
4
30
55
10
50
20
2.357142857142854
30
55
10
50
20
2.275862068965516
30
55
10
50
20
0
30
55
10
106
20
86
30
50.44642857142857
10
106
20
86
30
54.08928571428571
10
106
20
86
30
4
10
116
20
86
30
4
10
92
20
86
30
44.07142857142857
10
92
20
86
30
47.21428571428571
10
92
20
86
30
4
10
64
20
86
30
31.32142857142857
10
71
20
86
30
34.50892857142857
10
71
20
86
30
36.90178571428571
10
63.99999999999999
20
86
30
33.46428571428571
10
64
20
86
30
4
10
71
20
86
30
4
10
92
20
86
30
20
10
71
20
86
30
20
10
83.05882352941177
20
86
30
40
10
77.30909090909091
20
86
30
40
10
92
20
86
30
40
10
71
20
86
30
40
10
22
20
86
30
12.196428571428573
10
29.000000000000004
20
86
30
15.383928571428575
10
29.000000000000004
20
86
30
16.276785714285715
10
22
20
86
30
12.839285714285715
10
22
20
86
30
4
10
29.000000000000004
20
86
30
4
10
4
20
86
30
4
10
50
20
86
30
24.946428571428573
10
50
20
86
30
26.589285714285715
10
50
20
86
30
4
10
39.13725490196078
20
86
30
20
10
36.58181818181818
20
86
30
20
10
50
20
86
30
20
10
29.000000000000004
20
86
30
20
10
29.000000000000004
20
86
30
40
10
50
20
86
30
40
10
4
20
4.999999999999993
30
4.621951219512194
10
4
20
5
30
4.670731707317078
10
4
20
4.999999999999993
30
4
10
4
20
5
30
40
10
4
20
4
30
40
10
4
20
4
30
4
10
106
20
4
30
8.55357142857143
10
106
20
4
30
8.910714285714288
10
116
20
4
30
4
10
106
20
4
30
4
10
106
20
4
30
40
10
92
20
4
30
40
10
99
20
4
30
11.741071428571427
10
92
20
4
30
14.928571428571429
10
92
20
4
30
15.785714285714286
10
99
20
4
30
12.348214285714286
10
99
20
4
30
4
10
92
20
4
30
4
10
99
20
4
30
40
10
99
20
4
30
20
10
106
20
4
30
20
10
71
20
4
30
24.491071428571427
10
64
20
4
30
27.678571428571427
10
64
20
4
30
29.535714285714285
10
71
20
4
30
26.098214285714285
10
71
20
4
30
4
10
64
20
4
30
4
10
80.86274509803921
20
4
30
20
10
83.41818181818181
20
4
30
20
10
71
20
4
30
20
10
92
20
4
30
20
10
71
20
4
30
40
10
78
20
4
30
21.30357142857143
10
78
20
4
30
22.660714285714285
10
78
20
4
30
20
10
78
20
4
30
40
10
85
20
4
30
40
10
85
20
4
30
20
10
29.000000000000004
20
4
30
43.61607142857143
10
22
20
4
30
46.80357142857143
10
22
20
4
30
50.16071428571428
10
29.000000000000004
20
4
30
46.72321428571428
10
29.000000000000004
20
4
30
4
10
22
20
4
30
4
10
22
20
4
30
40.00000000000001
10
15
20
4
30
40
10
15
20
4
30
4
10
15
20
4
30
20
10
22
20
4
30
20
10
64
20
4
30
40
10
50
20
4
30
40
10
57
20
4
30
30.86607142857143
10
50.00000000000001
20
4
30
34.05357142857143
10
50
20
4
30
36.410714285714285
10
57
20
4
30
32.973214285714285
10
57
20
4
30
4
10
50.00000000000001
20
4
30
4
10
57
20
4
30
40
10
57
20
4
30
20
10
64
20
4
30
20
10
29.000000000000004
20
4
30
20
10
50
20
4
30
20
10
36.94117647058824
20
4
30
40
10
42.69090909090909
20
4
30
40
10
29.000000000000004
20
4
30
40
10
43
20
4
30
37.24107142857143
10
43
20
4
30
39.848214285714285
10
43
20
4
30
20
10
36
20
4
30
20
10
36
20
4
30
40
10
43
20
4
30
40
10
106
20
11.321428571428577
30
4
10
106
20
5
30
4
10
92
20
21.571428571428573
30
4
10
92
20
5
30
4
10
99
20
5
30
4
10
71
20
36.94642857142857
30
4
10
64
20
42.07142857142858
30
4
10
29.000000000000004
20
67.69642857142857
30
4
10
22
20
72.82142857142857
30
4
10
22
20
5
30
4
10
15
20
5
30
4
10
64
20
5
30
4
10
50.00000000000001
20
52.32142857142857
30
4
10
50
20
5
30
4
10
57
20
5
30
4
10
120
20
83.45454545454547
30
4
10
120
20
4
30
52.55555555555556
10
120
20
4
30
4
10
120
20
86
30
55
10
120
20
4
30
55
10
120
20
86
30
4
10
120
20
4
30
0
10
120
20
86
30
0
10
120
20
86
30
2.4444444444444464
10
116
20
0
30
1.8333333333333357
10
106
20
0
30
4.741379310344829
10
106
20
0
30
6.416666666666668
10
92
20
0
30
40
10
106
20
0
30
40
10
92
20
0
30
11.379310344827587
10
99
20
0
30
8.060344827586206
10
99
20
0
30
9.625
10
92
20
0
30
12.833333333333334
10
99
20
0
30
40
10
99
20
0
30
20
10
106
20
0
30
20
10
64
20
0
30
24.655172413793103
10
71
20
0
30
21.336206896551722
10
71
20
0
30
22.458333333333332
10
64
20
0
30
25.666666666666668
10
73.81818181818181
20
0
30
20
10
76.36363636363636
20
0
30
20
10
71
20
0
30
20
10
92
20
0
30
20.000000000000004
10
71
20
0
30
40
10
85
20
0
30
40
10
78
20
0
30
40
10
78
20
0
30
20
10
85
20
0
30
20
10
22
20
0
30
44.56896551724138
10
29.000000000000004
20
0
30
41.25
10
29.000000000000004
20
0
30
41.70833333333333
10
22
20
0
30
44.916666666666664
10
4
20
0
30
53.166666666666664
10
4
20
0
30
53.103448275862064
10
4
20
0
30
40
10
22
20
0
30
40
10
4
20
0
30
55
10
15
20
0
30
40
10
4
20
0
30
0
10
15
20
0
30
19.999999999999996
10
22
20
0
30
20
10
50
20
0
30
40
10
64
20
0
30
40
10
50
20
0
30
31.29310344827586
10
57
20
0
30
27.97413793103448
10
57
20
0
30
28.875
10
50.00000000000001
20
0
30
32.08333333333333
10
57
20
0
30
40
10
57
20
0
30
20
10
64
20
0
30
20
10
29.000000000000004
20
0
30
20
10
50
20
0
30
20
10
31.636363636363633
20
0
30
40
10
32.72727272727273
20
0
30
40
10
29.000000000000004
20
0
30
40
10
36
20
0
30
37.93103448275862
10
43
20
0
30
34.61206896551724
10
43
20
0
30
35.291666666666664
10
36
20
0
30
38.5
10
36
20
0
30
20
10
43
20
0
30
20
10
43
20
0
30
40
10
36
20
0
30
40
10
22
20
0
30
36.66666666666667
10
22
20
4
30
23.333333333333343
10
15
20
4
30
36.66666666666666
10
15
20
0
30
23.33333333333332
10
20.833333333333343
20
0
30
20
10
16.16666666666667
20
4
30
20
10
16.16666666666667
20
4
30
40
10
20.833333333333343
20
0
30
40
10
78
20
0
30
36.66666666666667
10
78
20
4
30
23.333333333333343
10
57
20
4
30
36.66666666666666
10
57
20
0
30
23.33333333333332
10
72.16666666666667
20
4
30
40
10
76.83333333333334
20
0
30
40
10
58.16666666666667
20
4
30
40
10
62.833333333333336
20
0
30
40
10
76.83333333333334
20
0
30
20
10
72.16666666666667
20
4
30
20
10
62.833333333333336
20
0
30
20
10
58.16666666666667
20
4
30
20
10
71
20
4
30
36.66666666666666
10
71
20
0
30
23.33333333333332
10
64
20
0
30
36.66666666666667
10
64
20
4
30
23.333333333333343
10
30.16666666666667
20
4
30
40
10
34.833333333333336
20
0
30
40
10
44.16666666666667
20
4
30
40
10
48.833333333333336
20
0
30
40
10
34.833333333333336
20
0
30
20
10
30.16666666666667
20
4
30
20
10
48.833333333333336
20
0
30
20
10
44.16666666666667
20
4
30
20
10
43
20
4
30
36.66666666666666
10
43
20
0
30
23.33333333333332
10
50
20
0
30
36.66666666666667
10
50
20
4
30
23.333333333333343
10
36
20
0
30
36.66666666666667
10
36
20
4
30
23.333333333333343
10
29.000000000000004
20
4
30
36.66666666666666
10
29.000000000000004
20
0
30
23.33333333333332
10
104.83333333333334
20
0
30
20
10
100.16666666666667
20
4
30
20
10
90.83333333333334
20
0
30
20
10
86.16666666666667
20
4
30
20
10
99
20
4
30
36.66666666666666
10
99
20
0
30
23.33333333333332
10
100.16666666666667
20
4
30
40
10
104.83333333333334
20
0
30
40
10
106
20
0
30
36.66666666666667
10
106
20
4
30
23.333333333333343
10
86.16666666666667
20
4
30
40
10
90.83333333333334
20
0
30
40
10
85
20
4
30
36.66666666666666
10
85
20
0
30
23.33333333333332
10
92
20
0
30
36.66666666666667
10
92
20
4
30
23.333333333333343
10
116
20
90
30
53.166666666666664
10
106
20
90
30
48.58333333333333
10
106
20
90
30
50.258620689655174
10
92
20
90
30
42.166666666666664
10
92
20
90
30
43.62068965517241
10
64
20
90
30
29.333333333333332
10
71
20
90
30
32.54166666666667
10
64
20
90
30
30.344827586206897
10
71
20
90
30
33.66379310344828
10
71
20
90
30
20
10
92
20
90
30
20
10
87.27272727272728
20
90
30
40
10
92
20
90
30
40
10
84.36363636363636
20
90
30
40
10
71
20
90
30
40
10
22
20
90
30
10.083333333333336
10
29.000000000000004
20
90
30
13.291666666666671
10
22
20
90
30
10.431034482758623
10
29.000000000000004
20
90
30
13.750000000000002
10
50
20
90
30
22.916666666666668
10
50
20
90
30
23.70689655172414
10
43.636363636363626
20
90
30
20
10
50
20
90
30
20
10
42.18181818181818
20
90
30
20
10
29.000000000000004
20
90
30
19.999999999999996
10
50
20
90
30
40
10
29.000000000000004
20
90
30
40
93
2263
90
3
90
0
90
1
90
2
90
3
90
2
90
3
90
0
90
3
90
1
90
4
90
2
90
3
90
5
90
6
90
1
90
4
90
5
90
1
90
0
90
7
90
4
90
8
90
4
90
1
90
6
90
4
90
8
90
15
90
9
90
4
90
3
90
10
90
11
90
12
90
4
90
10
90
13
90
14
90
11
90
4
90
15
90
12
90
11
90
9
90
3
90
16
90
17
90
18
90
4
90
10
90
12
90
16
90
18
90
3
90
10
90
18
90
13
90
4
90
5
90
17
90
16
90
6
90
3
90
5
90
7
90
17
90
3
90
8
90
6
90
16
90
4
90
15
90
8
90
16
90
12
90
3
90
19
90
20
90
21
90
3
90
20
90
19
90
22
90
3
90
20
90
22
90
23
90
3
90
20
90
23
90
24
90
5
90
24
90
25
90
325
90
324
90
20
90
4
90
26
90
27
90
28
90
19
90
4
90
29
90
26
90
19
90
21
90
3
90
29
90
21
90
30
90
3
90
22
90
19
90
28
90
4
90
31
90
24
90
23
90
32
90
3
90
31
90
33
90
24
90
4
90
34
90
28
90
27
90
41
90
4
90
35
90
32
90
23
90
22
90
4
90
35
90
22
90
28
90
34
90
4
90
36
90
31
90
32
90
37
90
4
90
31
90
36
90
38
90
33
90
5
90
39
90
40
90
34
90
41
90
51
90
4
90
35
90
42
90
37
90
32
90
4
90
42
90
35
90
34
90
40
90
4
90
43
90
44
90
45
90
46
90
4
90
47
90
48
90
44
90
43
90
4
90
48
90
47
90
49
90
50
90
4
90
39
90
51
90
46
90
45
90
4
90
26
90
43
90
46
90
27
90
4
90
29
90
47
90
43
90
26
90
4
90
47
90
29
90
30
90
49
90
4
90
51
90
41
90
27
90
46
90
4
90
52
90
53
90
54
90
55
90
4
90
56
90
57
90
53
90
52
90
4
90
57
90
56
90
58
90
59
90
4
90
60
90
61
90
62
90
63
90
4
90
61
90
60
90
64
90
65
90
5
90
66
90
67
90
55
90
54
90
105
90
4
90
68
90
69
90
63
90
62
90
4
90
69
90
68
90
67
90
66
90
4
90
44
90
52
90
55
90
45
90
4
90
48
90
56
90
52
90
44
90
4
90
56
90
48
90
50
90
58
90
4
90
61
90
36
90
37
90
62
90
4
90
36
90
61
90
65
90
38
90
5
90
67
90
40
90
39
90
45
90
55
90
4
90
42
90
68
90
62
90
37
90
4
90
68
90
42
90
40
90
67
90
4
90
70
90
71
90
72
90
73
90
4
90
74
90
75
90
71
90
70
90
4
90
75
90
74
90
76
90
77
90
4
90
78
90
79
90
80
90
81
90
4
90
79
90
78
90
82
90
83
90
5
90
84
90
85
90
73
90
72
90
93
90
4
90
86
90
87
90
81
90
80
90
4
90
87
90
86
90
85
90
84
90
3
90
3
90
88
90
89
90
3
90
89
90
0
90
3
90
3
90
78
90
81
90
88
90
4
90
78
90
88
90
3
90
82
90
4
90
90
90
0
90
89
90
91
90
3
90
90
90
7
90
0
90
4
90
92
90
91
90
89
90
88
90
5
90
92
90
88
90
84
90
93
90
99
90
3
90
87
90
88
90
81
90
3
90
87
90
84
90
88
90
3
90
94
90
95
90
96
90
3
90
97
90
95
90
94
90
5
90
95
90
97
90
98
90
362
90
18
90
3
90
18
90
17
90
95
90
3
90
90
90
91
90
95
90
4
90
90
90
95
90
17
90
7
90
3
90
92
90
95
90
91
90
4
90
92
90
99
90
96
90
95
90
4
90
71
90
94
90
96
90
72
90
4
90
75
90
97
90
94
90
71
90
4
90
97
90
75
90
77
90
98
90
4
90
99
90
93
90
72
90
96
90
4
90
100
90
60
90
63
90
101
90
4
90
60
90
100
90
102
90
64
90
5
90
103
90
104
90
66
90
105
90
115
90
4
90
69
90
106
90
101
90
63
90
4
90
106
90
69
90
66
90
104
90
4
90
107
90
108
90
109
90
110
90
4
90
111
90
112
90
108
90
107
90
4
90
112
90
111
90
113
90
114
90
4
90
103
90
115
90
110
90
109
90
4
90
53
90
107
90
110
90
54
90
4
90
57
90
111
90
107
90
53
90
4
90
111
90
57
90
59
90
113
90
4
90
115
90
105
90
54
90
110
90
4
90
108
90
70
90
73
90
109
90
4
90
112
90
74
90
70
90
108
90
4
90
74
90
112
90
114
90
76
90
4
90
79
90
100
90
101
90
80
90
4
90
100
90
79
90
83
90
102
90
5
90
85
90
104
90
103
90
109
90
73
90
4
90
106
90
86
90
80
90
101
90
4
90
86
90
106
90
104
90
85
90
3
90
116
90
117
90
118
90
3
90
119
90
116
90
118
90
5
90
119
90
118
90
322
90
321
90
120
90
3
90
120
90
121
90
122
90
3
90
120
90
122
90
123
90
3
90
120
90
123
90
119
90
3
90
117
90
116
90
124
90
4
90
125
90
117
90
124
90
126
90
3
90
127
90
117
90
125
90
3
90
128
90
117
90
127
90
3
90
128
90
129
90
117
90
3
90
124
90
116
90
119
90
3
90
130
90
131
90
132
90
4
90
133
90
130
90
132
90
122
90
4
90
133
90
122
90
121
90
134
90
4
90
130
90
135
90
136
90
131
90
4
90
133
90
137
90
135
90
130
90
4
90
137
90
133
90
134
90
138
90
4
90
139
90
125
90
126
90
140
90
4
90
141
90
127
90
125
90
139
90
4
90
142
90
128
90
127
90
141
90
4
90
128
90
142
90
143
90
129
90
4
90
144
90
145
90
146
90
147
90
4
90
148
90
149
90
145
90
144
90
4
90
150
90
151
90
149
90
148
90
4
90
151
90
150
90
152
90
153
90
4
90
154
90
155
90
156
90
157
90
4
90
158
90
159
90
155
90
154
90
4
90
159
90
158
90
160
90
161
90
4
90
145
90
139
90
140
90
146
90
4
90
149
90
141
90
139
90
145
90
4
90
151
90
142
90
141
90
149
90
4
90
142
90
151
90
153
90
143
90
4
90
135
90
154
90
157
90
136
90
4
90
137
90
158
90
154
90
135
90
4
90
158
90
137
90
138
90
160
90
4
90
162
90
163
90
164
90
165
90
4
90
166
90
167
90
163
90
162
90
4
90
168
90
169
90
167
90
166
90
4
90
169
90
168
90
170
90
171
90
4
90
172
90
173
90
174
90
175
90
4
90
176
90
177
90
173
90
172
90
4
90
177
90
176
90
178
90
179
90
3
90
180
90
181
90
2
90
3
90
2
90
4
90
180
90
4
90
173
90
2
90
181
90
174
90
3
90
177
90
2
90
173
90
3
90
177
90
179
90
2
90
3
90
182
90
183
90
184
90
4
90
185
90
182
90
184
90
180
90
4
90
185
90
180
90
4
90
9
90
3
90
162
90
165
90
186
90
4
90
166
90
162
90
186
90
187
90
4
90
168
90
166
90
187
90
11
90
5
90
168
90
11
90
14
90
360
90
170
90
4
90
182
90
11
90
187
90
183
90
3
90
185
90
11
90
182
90
3
90
185
90
9
90
11
90
4
90
155
90
188
90
189
90
156
90
4
90
159
90
190
90
188
90
155
90
4
90
190
90
159
90
161
90
191
90
4
90
192
90
144
90
147
90
193
90
4
90
194
90
148
90
144
90
192
90
4
90
195
90
150
90
148
90
194
90
4
90
150
90
195
90
196
90
152
90
4
90
163
90
192
90
193
90
164
90
4
90
167
90
194
90
192
90
163
90
4
90
169
90
195
90
194
90
167
90
4
90
195
90
169
90
171
90
196
90
4
90
188
90
172
90
175
90
189
90
4
90
190
90
176
90
172
90
188
90
4
90
176
90
190
90
191
90
178
90
4
90
197
90
122
90
132
90
198
90
4
90
197
90
199
90
200
90
122
90
3
90
198
90
132
90
131
90
4
90
201
90
197
90
198
90
202
90
6
90
197
90
201
90
214
90
210
90
203
90
199
90
4
90
202
90
198
90
131
90
136
90
4
90
204
90
205
90
206
90
207
90
5
90
205
90
204
90
208
90
209
90
211
90
5
90
207
90
206
90
215
90
157
90
156
90
4
90
210
90
211
90
209
90
203
90
4
90
212
90
201
90
202
90
213
90
3
90
214
90
201
90
212
90
5
90
215
90
213
90
202
90
136
90
157
90
4
90
205
90
212
90
213
90
206
90
5
90
210
90
214
90
212
90
205
90
211
90
3
90
215
90
206
90
213
90
4
90
216
90
217
90
218
90
219
90
4
90
217
90
216
90
220
90
221
90
6
90
219
90
218
90
229
90
230
90
175
90
174
90
3
90
216
90
219
90
222
90
3
90
216
90
222
90
220
90
4
90
222
90
219
90
174
90
181
90
3
90
181
90
180
90
222
90
4
90
223
90
204
90
207
90
224
90
5
90
204
90
223
90
228
90
225
90
208
90
5
90
224
90
207
90
156
90
189
90
231
90
4
90
217
90
226
90
227
90
218
90
5
90
228
90
226
90
217
90
221
90
225
90
3
90
229
90
218
90
227
90
4
90
230
90
231
90
189
90
175
90
4
90
226
90
223
90
224
90
227
90
3
90
228
90
223
90
226
90
5
90
230
90
229
90
227
90
224
90
231
90
4
90
232
90
180
90
184
90
233
90
4
90
232
90
234
90
222
90
180
90
4
90
233
90
184
90
183
90
235
90
4
90
235
90
183
90
187
90
236
90
3
90
232
90
233
90
237
90
3
90
232
90
237
90
234
90
4
90
233
90
235
90
236
90
237
90
3
90
238
90
239
90
240
90
3
90
238
90
240
90
241
90
7
90
240
90
239
90
252
90
436
90
242
90
126
90
124
90
3
90
124
90
119
90
240
90
6
90
242
90
433
90
250
90
243
90
140
90
126
90
4
90
244
90
245
90
246
90
247
90
4
90
245
90
244
90
248
90
249
90
8
90
250
90
431
90
251
90
247
90
246
90
262
90
442
90
243
90
4
90
238
90
244
90
247
90
239
90
4
90
244
90
238
90
241
90
248
90
5
90
251
90
428
90
252
90
239
90
247
90
4
90
253
90
254
90
255
90
256
90
7
90
254
90
253
90
261
90
257
90
258
90
291
90
410
90
7
90
256
90
255
90
281
90
147
90
146
90
263
90
407
90
4
90
245
90
259
90
260
90
246
90
7
90
261
90
404
90
266
90
259
90
245
90
249
90
257
90
5
90
262
90
246
90
260
90
269
90
430
90
8
90
243
90
437
90
268
90
267
90
399
90
263
90
146
90
140
90
4
90
259
90
264
90
265
90
260
90
3
90
266
90
264
90
259
90
7
90
267
90
268
90
439
90
269
90
260
90
265
90
396
90
4
90
270
90
271
90
272
90
273
90
10
90
271
90
270
90
296
90
425
90
292
90
274
90
275
90
280
90
388
90
276
90
4
90
273
90
272
90
165
90
164
90
4
90
271
90
187
90
186
90
272
90
6
90
271
90
276
90
393
90
277
90
236
90
187
90
3
90
272
90
186
90
165
90
6
90
277
90
389
90
279
90
278
90
237
90
236
90
5
90
279
90
392
90
280
90
275
90
278
90
6
90
281
90
401
90
289
90
282
90
193
90
147
90
4
90
283
90
284
90
285
90
286
90
7
90
284
90
283
90
290
90
287
90
288
90
293
90
422
90
5
90
289
90
397
90
286
90
285
90
282
90
5
90
290
90
406
90
291
90
258
90
287
90
8
90
292
90
416
90
300
90
299
90
418
90
293
90
288
90
274
90
4
90
294
90
270
90
273
90
295
90
5
90
296
90
270
90
294
90
301
90
411
90
7
90
282
90
413
90
302
90
295
90
273
90
164
90
193
90
4
90
297
90
294
90
295
90
298
90
7
90
299
90
300
90
424
90
301
90
294
90
297
90
419
90
3
90
302
90
298
90
295
90
4
90
303
90
304
90
241
90
240
90
4
90
303
90
240
90
200
90
199
90
5
90
304
90
303
90
305
90
306
90
307
90
4
90
305
90
303
90
199
90
203
90
4
90
307
90
306
90
249
90
248
90
4
90
304
90
307
90
248
90
241
90
5
90
308
90
309
90
314
90
258
90
257
90
4
90
309
90
308
90
209
90
208
90
5
90
305
90
308
90
257
90
249
90
306
90
4
90
308
90
305
90
203
90
209
90
5
90
310
90
311
90
312
90
275
90
274
90
4
90
311
90
310
90
221
90
220
90
5
90
312
90
311
90
222
90
234
90
313
90
3
90
311
90
220
90
222
90
4
90
313
90
234
90
237
90
278
90
4
90
312
90
313
90
278
90
275
90
5
90
314
90
309
90
315
90
316
90
317
90
4
90
315
90
309
90
208
90
225
90
4
90
317
90
316
90
288
90
287
90
4
90
314
90
317
90
287
90
258
90
5
90
315
90
310
90
274
90
288
90
316
90
4
90
310
90
315
90
225
90
221
90
3
90
119
90
123
90
200
90
3
90
200
90
240
90
119
90
3
90
123
90
122
90
200
90
3
90
318
90
319
90
320
90
5
90
321
90
322
90
319
90
318
90
323
90
5
90
324
90
325
90
326
90
318
90
320
90
3
90
318
90
326
90
323
90
3
90
327
90
21
90
20
90
3
90
117
90
327
90
20
90
3
90
20
90
118
90
117
90
4
90
328
90
21
90
327
90
329
90
3
90
30
90
21
90
328
90
7
90
329
90
327
90
117
90
129
90
331
90
435
90
338
90
6
90
330
90
336
90
434
90
331
90
129
90
143
90
4
90
332
90
333
90
334
90
335
90
4
90
50
90
49
90
333
90
332
90
8
90
336
90
330
90
441
90
346
90
335
90
334
90
337
90
432
90
4
90
333
90
328
90
329
90
334
90
4
90
49
90
30
90
328
90
333
90
5
90
337
90
334
90
329
90
338
90
427
90
4
90
339
90
340
90
341
90
342
90
6
90
59
90
58
90
345
90
340
90
339
90
373
90
8
90
342
90
341
90
408
90
347
90
153
90
152
90
366
90
409
90
4
90
343
90
332
90
335
90
344
90
5
90
345
90
58
90
50
90
332
90
343
90
7
90
344
90
335
90
346
90
429
90
351
90
350
90
403
90
8
90
347
90
400
90
349
90
348
90
438
90
330
90
143
90
153
90
6
90
348
90
349
90
395
90
350
90
351
90
440
90
4
90
352
90
353
90
354
90
355
90
10
90
77
90
76
90
374
90
426
90
378
90
353
90
352
90
359
90
387
90
364
90
4
90
355
90
354
90
171
90
170
90
4
90
352
90
355
90
356
90
357
90
6
90
358
90
361
90
394
90
359
90
352
90
357
90
4
90
355
90
170
90
360
90
356
90
6
90
361
90
358
90
362
90
98
90
363
90
390
90
5
90
363
90
98
90
77
90
364
90
391
90
6
90
365
90
371
90
402
90
366
90
152
90
196
90
4
90
367
90
368
90
369
90
370
90
7
90
114
90
113
90
372
90
398
90
368
90
367
90
375
90
5
90
371
90
365
90
421
90
370
90
369
90
5
90
372
90
113
90
59
90
373
90
405
90
8
90
374
90
76
90
114
90
375
90
417
90
384
90
383
90
415
90
4
90
353
90
376
90
377
90
354
90
3
90
378
90
376
90
353
90
9
90
354
90
377
90
412
90
386
90
385
90
414
90
365
90
196
90
171
90
4
90
379
90
380
90
381
90
382
90
6
90
383
90
384
90
420
90
380
90
379
90
423
90
4
90
385
90
386
90
382
90
381
90
5
90
118
90
20
90
324
90
320
90
319
90
3
90
322
90
118
90
319
90
4
90
387
90
388
90
280
90
364
90
4
90
388
90
387
90
359
90
276
90
4
90
389
90
390
90
363
90
279
90
4
90
390
90
389
90
277
90
361
90
4
90
391
90
392
90
279
90
363
90
4
90
392
90
391
90
364
90
280
90
4
90
393
90
394
90
361
90
277
90
4
90
394
90
393
90
276
90
359
90
6
90
395
90
396
90
265
90
264
90
266
90
350
90
4
90
396
90
395
90
349
90
267
90
6
90
397
90
398
90
372
90
290
90
283
90
286
90
6
90
398
90
397
90
289
90
371
90
369
90
368
90
4
90
399
90
400
90
347
90
263
90
4
90
400
90
399
90
267
90
349
90
4
90
401
90
402
90
371
90
289
90
4
90
402
90
401
90
281
90
366
90
6
90
403
90
404
90
261
90
345
90
343
90
344
90
4
90
404
90
403
90
350
90
266
90
4
90
405
90
406
90
290
90
372
90
4
90
406
90
405
90
373
90
291
90
8
90
407
90
408
90
341
90
340
90
345
90
261
90
253
90
256
90
4
90
408
90
407
90
263
90
347
90
6
90
409
90
410
90
291
90
373
90
339
90
342
90
6
90
410
90
409
90
366
90
281
90
255
90
254
90
6
90
411
90
412
90
377
90
376
90
378
90
296
90
4
90
412
90
411
90
301
90
386
90
4
90
413
90
414
90
385
90
302
90
4
90
414
90
413
90
282
90
365
90
4
90
415
90
416
90
292
90
374
90
4
90
416
90
415
90
383
90
300
90
4
90
417
90
418
90
299
90
384
90
4
90
418
90
417
90
375
90
293
90
4
90
419
90
420
90
384
90
299
90
8
90
420
90
419
90
297
90
298
90
302
90
385
90
381
90
380
90
6
90
421
90
422
90
293
90
375
90
367
90
370
90
6
90
422
90
421
90
365
90
282
90
285
90
284
90
4
90
423
90
424
90
300
90
383
90
6
90
424
90
423
90
379
90
382
90
386
90
301
90
4
90
425
90
426
90
374
90
292
90
4
90
426
90
425
90
296
90
378
90
4
90
427
90
428
90
251
90
337
90
4
90
428
90
427
90
338
90
252
90
4
90
429
90
430
90
269
90
351
90
4
90
430
90
429
90
346
90
262
90
4
90
431
90
432
90
337
90
251
90
4
90
432
90
431
90
250
90
336
90
4
90
433
90
434
90
336
90
250
90
4
90
434
90
433
90
242
90
331
90
4
90
435
90
436
90
252
90
338
90
4
90
436
90
435
90
331
90
242
90
4
90
437
90
438
90
348
90
268
90
4
90
438
90
437
90
243
90
330
90
4
90
439
90
440
90
351
90
269
90
4
90
440
90
439
90
268
90
348
90
4
90
441
90
442
90
262
90
346
90
4
90
442
90
441
90
330
90
243
90
3
90
356
90
14
90
357
90
4
90
14
90
13
90
358
90
357
90
3
90
360
90
14
90
356
90
4
90
13
90
18
90
362
90
358
90
3
90
24
90
443
90
120
90
3
90
120
90
25
90
24
90
3
90
443
90
121
90
120
90
4
90
444
90
443
90
24
90
33
90
4
90
445
90
121
90
443
90
444
90
3
90
445
90
134
90
121
90
6
90
446
90
444
90
33
90
38
90
453
90
455
90
4
90
447
90
445
90
444
90
446
90
4
90
445
90
447
90
138
90
134
90
5
90
448
90
449
90
452
90
65
90
64
90
4
90
450
90
451
90
449
90
448
90
5
90
451
90
450
90
161
90
160
90
457
90
4
90
452
90
453
90
38
90
65
90
3
90
454
90
446
90
455
90
4
90
456
90
447
90
446
90
454
90
5
90
447
90
456
90
457
90
160
90
138
90
5
90
452
90
449
90
454
90
455
90
453
90
4
90
451
90
456
90
454
90
449
90
3
90
456
90
451
90
457
90
4
90
458
90
459
90
83
90
82
90
4
90
460
90
461
90
459
90
458
90
6
90
461
90
460
90
179
90
178
90
469
90
467
90
3
90
458
90
82
90
3
90
3
90
460
90
458
90
3
90
4
90
460
90
3
90
2
90
179
90
5
90
462
90
448
90
64
90
102
90
465
90
4
90
463
90
450
90
448
90
462
90
5
90
450
90
463
90
468
90
191
90
161
90
5
90
459
90
464
90
465
90
102
90
83
90
4
90
461
90
466
90
464
90
459
90
3
90
466
90
461
90
467
90
4
90
468
90
469
90
178
90
191
90
3
90
464
90
462
90
465
90
4
90
466
90
463
90
462
90
464
90
5
90
468
90
463
90
466
90
467
90
469
90
3
90
325
90
25
90
326
90
5
90
25
90
120
90
321
90
323
90
326
94
0
95
0
90
0
1001
CONDUITCAD
1000
{"id":"3d-enclosure-006","label":"Ventilated enclosure","feature3d":{"version":1,"kind":"subtract","parameters":{},"inputs":["3d-enclosure-003","3d-enclosure-005"],"suppressed":false},"model3dConsumed
1000
":false,"model3dUserHidden":false}
0
ENDSEC
0
SECTION
2
OBJECTS
0
DICTIONARY
5
123
330
0
100
AcDbDictionary
281
1
3
ACAD_LAYOUT
350
124
3
ACAD_GROUP
350
125
3
CONDUITCAD_METADATA
350
128
0
DICTIONARY
5
124
330
123
100
AcDbDictionary
281
1
3
Model
350
126
3
Layout1
350
127
0
DICTIONARY
5
125
330
123
100
AcDbDictionary
281
1
0
LAYOUT
5
126
330
124
100
AcDbPlotSettings
1

2

4

6

40
0
41
0
42
0
43
0
44
420
45
297
46
0
47
0
48
0
49
0
140
0
141
0
142
1
143
1
70
0
72
1
73
0
74
5
7

75
16
76
0
77
0
78
300
147
1
148
0
149
0
100
AcDbLayout
1
Model
70
1
71
0
10
0
20
0
11
420
21
297
12
0
22
0
32
0
14
0
24
0
34
0
15
420
25
297
35
0
146
0
13
0
23
0
33
0
16
1
26
0
36
0
17
0
27
1
37
0
76
0
330
117
0
LAYOUT
5
127
330
124
100
AcDbPlotSettings
1

2

4

6

40
0
41
0
42
0
43
0
44
420
45
297
46
0
47
0
48
0
49
0
140
0
141
0
142
1
143
1
70
0
72
1
73
0
74
5
7

75
16
76
0
77
0
78
300
147
1
148
0
149
0
100
AcDbLayout
1
Layout1
70
1
71
1
10
0
20
0
11
420
21
297
12
0
22
0
32
0
14
0
24
0
34
0
15
420
25
297
35
0
146
0
13
0
23
0
33
0
16
1
26
0
36
0
17
0
27
1
37
0
76
0
330
118
0
XRECORD
5
128
330
123
100
AcDbXrecord
280
1
1
{"parameters":{"grid":"10","Width":"120","Depth":"90","Height":"55","Wall":"4"},"constraints":[],"metadata":{"description":"Hollow enclosure built by subtractive operations with a patterned side venti
1
lation cut.","modeling":{"version":1,"preferredMode":"3d","example":"enclosure","notes":"Editable faceted concept model. Not certified or construction-approved."}}}
0
ENDSEC
0
EOF
