0
SECTION
2
HEADER
9
$ACADVER
1
AC1032
9
$INSUNITS
70
4
9
$LTSCALE
40
1
9
$MEASUREMENT
70
1
999
CONDUIT:{"parameters":{"grid":"10","Distance":"40","SecondSide":"15"},"constraints":[],"metadata":{"description":"One-sided, symmetric-total and independent two-sided extrusions share name
999
CONDUIT:d distance parameters.","modeling":{"version":1,"preferredMode":"3d","example":"extrusion-study","notes":"Editable faceted concept model. Not certified or construction-approved."}}
999
CONDUIT:}
9
$HANDSEED
5
129
9
$DWGCODEPAGE
3
ANSI_1252
9
$CLAYER
8
0
9
$TILEMODE
70
1
0
ENDSEC
0
SECTION
2
TABLES
0
TABLE
2
LTYPE
5
106
330
0
100
AcDbSymbolTable
70
4
0
LTYPE
5
107
100
AcDbSymbolTableRecord
100
AcDbLinetypeTableRecord
2
CONTINUOUS
70
0
3
Solid line
72
65
73
0
40
0
330
106
0
LTYPE
5
108
100
AcDbSymbolTableRecord
100
AcDbLinetypeTableRecord
2
DASHED
70
0
3
DASHED
72
65
73
2
40
12
49
8
74
0
49
-4
74
0
330
106
0
LTYPE
5
109
100
AcDbSymbolTableRecord
100
AcDbLinetypeTableRecord
2
CENTER
70
0
3
CENTER
72
65
73
4
40
20
49
12
74
0
49
-3
74
0
49
2
74
0
49
-3
74
0
330
106
0
LTYPE
5
10A
100
AcDbSymbolTableRecord
100
AcDbLinetypeTableRecord
2
HIDDEN
70
0
3
HIDDEN
72
65
73
2
40
7
49
4
74
0
49
-3
74
0
330
106
0
ENDTAB
0
TABLE
2
LAYER
5
10B
330
0
100
AcDbSymbolTable
70
6
0
LAYER
5
10C
100
AcDbSymbolTableRecord
100
AcDbLayerTableRecord
2
0
70
0
62
7
420
3426133
6
CONTINUOUS
330
10B
0
LAYER
5
10D
100
AcDbSymbolTableRecord
100
AcDbLayerTableRecord
2
Equipment
70
0
62
7
420
3495011
6
CONTINUOUS
330
10B
0
LAYER
5
10E
100
AcDbSymbolTableRecord
100
AcDbLayerTableRecord
2
Process
70
0
62
7
420
1342583
6
CONTINUOUS
330
10B
0
LAYER
5
10F
100
AcDbSymbolTableRecord
100
AcDbLayerTableRecord
2
Instruments
70
0
62
7
420
10187334
6
CONTINUOUS
330
10B
0
LAYER
5
110
100
AcDbSymbolTableRecord
100
AcDbLayerTableRecord
2
Electrical
70
0
62
7
420
6584250
6
CONTINUOUS
330
10B
0
LAYER
5
111
100
AcDbSymbolTableRecord
100
AcDbLayerTableRecord
2
Annotations
70
0
62
7
420
7438474
6
CONTINUOUS
330
10B
0
ENDTAB
0
TABLE
2
STYLE
5
112
330
0
100
AcDbSymbolTable
70
1
0
STYLE
5
113
100
AcDbSymbolTableRecord
100
AcDbTextStyleTableRecord
2
STANDARD
70
0
40
0
41
1
50
0
71
0
42
2.5
3
txt
4

330
112
0
ENDTAB
0
TABLE
2
APPID
5
114
330
0
100
AcDbSymbolTable
70
2
0
APPID
5
115
100
AcDbSymbolTableRecord
100
AcDbRegAppTableRecord
2
CONDUITCAD
70
0
330
114
0
APPID
5
122
100
AcDbSymbolTableRecord
100
AcDbRegAppTableRecord
2
ACAD
70
0
330
114
0
ENDTAB
0
TABLE
2
BLOCK_RECORD
5
116
330
0
100
AcDbSymbolTable
70
2
0
BLOCK_RECORD
5
117
100
AcDbSymbolTableRecord
100
AcDbBlockTableRecord
2
*Model_Space
340
126
330
116
0
BLOCK_RECORD
5
118
100
AcDbSymbolTableRecord
100
AcDbBlockTableRecord
2
*Paper_Space
340
127
330
116
0
ENDTAB
0
TABLE
2
VPORT
5
11D
330
0
100
AcDbSymbolTable
70
0
0
ENDTAB
0
TABLE
2
VIEW
5
11E
330
0
100
AcDbSymbolTable
70
0
0
ENDTAB
0
TABLE
2
UCS
5
11F
330
0
100
AcDbSymbolTable
70
0
0
ENDTAB
0
TABLE
2
DIMSTYLE
5
120
330
0
100
AcDbSymbolTable
70
1
100
AcDbDimStyleTable
71
0
0
DIMSTYLE
105
121
330
120
100
AcDbSymbolTableRecord
100
AcDbDimStyleTableRecord
2
STANDARD
70
0
340
113
0
ENDTAB
0
ENDSEC
0
SECTION
2
BLOCKS
0
BLOCK
5
119
330
117
100
AcDbEntity
8
0
100
AcDbBlockBegin
2
*Model_Space
70
1
10
0
20
0
30
0
3
*Model_Space
1

1001
CONDUITCAD
1000
{"ports":[]}
0
ENDBLK
5
11A
330
117
100
AcDbEntity
8
0
100
AcDbBlockEnd
0
BLOCK
5
11B
330
118
100
AcDbEntity
8
0
100
AcDbBlockBegin
2
*Paper_Space
70
1
10
0
20
0
30
0
3
*Paper_Space
1

1001
CONDUITCAD
1000
{"ports":[]}
0
ENDBLK
5
11C
330
118
100
AcDbEntity
8
0
100
AcDbBlockEnd
0
ENDSEC
0
SECTION
2
ENTITIES
0
LWPOLYLINE
5
100
330
117
100
AcDbEntity
8
Annotations
60
1
100
AcDbPolyline
90
4
70
1
10
0
20
0
10
40
20
0
10
40
20
30
10
0
20
30
1001
CONDUITCAD
1000
{"id":"3d-extrusion-study-001","label":"Source plane 1","model3dConsumed":true,"model3dUserHidden":false}
0
MESH
5
101
330
117
100
AcDbEntity
8
Equipment
62
7
420
5543588
100
AcDbSubDMesh
71
2
72
0
91
0
92
8
10
0
20
0
30
0
10
40
20
0
30
0
10
40
20
30
30
0
10
0
20
30
30
0
10
0
20
0
30
40
10
40
20
0
30
40
10
40
20
30
30
40
10
0
20
30
30
40
93
36
90
3
90
1
90
0
90
3
90
3
90
3
90
2
90
1
90
3
90
7
90
4
90
5
90
3
90
5
90
6
90
7
90
4
90
0
90
1
90
5
90
4
90
4
90
1
90
2
90
6
90
5
90
4
90
2
90
3
90
7
90
6
90
4
90
3
90
0
90
4
90
7
94
0
95
0
90
0
1001
CONDUITCAD
1000
{"id":"3d-extrusion-study-002","label":"One side","feature3d":{"version":1,"kind":"extrude","parameters":{"height":"Distance","extent":0,"distance2":"SecondSide"},"inputs":["3d-extrusion-study-001"],"
1000
suppressed":false},"model3dConsumed":false,"model3dUserHidden":false}
0
LWPOLYLINE
5
102
330
117
100
AcDbEntity
8
Annotations
60
1
100
AcDbPolyline
90
4
70
1
10
70
20
0
10
110
20
0
10
110
20
30
10
70
20
30
1001
CONDUITCAD
1000
{"id":"3d-extrusion-study-003","label":"Source plane 2","model3dConsumed":true,"model3dUserHidden":false}
0
MESH
5
103
330
117
100
AcDbEntity
8
Equipment
62
7
420
5543588
100
AcDbSubDMesh
71
2
72
0
91
0
92
8
10
70
20
0
30
-20
10
110
20
0
30
-20
10
110
20
30
30
-20
10
70
20
30
30
-20
10
70
20
0
30
20
10
110
20
0
30
20
10
110
20
30
30
20
10
70
20
30
30
20
93
36
90
3
90
1
90
0
90
3
90
3
90
3
90
2
90
1
90
3
90
7
90
4
90
5
90
3
90
5
90
6
90
7
90
4
90
0
90
1
90
5
90
4
90
4
90
1
90
2
90
6
90
5
90
4
90
2
90
3
90
7
90
6
90
4
90
3
90
0
90
4
90
7
94
0
95
0
90
0
1001
CONDUITCAD
1000
{"id":"3d-extrusion-study-004","label":"Symmetric total","feature3d":{"version":1,"kind":"extrude","parameters":{"height":"Distance","extent":1,"distance2":"SecondSide"},"inputs":["3d-extrusion-study-
1000
003"],"suppressed":false},"model3dConsumed":false,"model3dUserHidden":false}
0
LWPOLYLINE
5
104
330
117
100
AcDbEntity
8
Annotations
60
1
100
AcDbPolyline
90
4
70
1
10
140
20
0
10
180
20
0
10
180
20
30
10
140
20
30
1001
CONDUITCAD
1000
{"id":"3d-extrusion-study-005","label":"Source plane 3","model3dConsumed":true,"model3dUserHidden":false}
0
MESH
5
105
330
117
100
AcDbEntity
8
Equipment
62
7
420
5543588
100
AcDbSubDMesh
71
2
72
0
91
0
92
8
10
140
20
0
30
-15
10
180
20
0
30
-15
10
180
20
30
30
-15
10
140
20
30
30
-15
10
140
20
0
30
40
10
180
20
0
30
40
10
180
20
30
30
40
10
140
20
30
30
40
93
36
90
3
90
1
90
0
90
3
90
3
90
3
90
2
90
1
90
3
90
7
90
4
90
5
90
3
90
5
90
6
90
7
90
4
90
0
90
1
90
5
90
4
90
4
90
1
90
2
90
6
90
5
90
4
90
2
90
3
90
7
90
6
90
4
90
3
90
0
90
4
90
7
94
0
95
0
90
0
1001
CONDUITCAD
1000
{"id":"3d-extrusion-study-006","label":"Two independent sides","feature3d":{"version":1,"kind":"extrude","parameters":{"height":"Distance","extent":2,"distance2":"SecondSide"},"inputs":["3d-extrusion-
1000
study-005"],"suppressed":false},"model3dConsumed":false,"model3dUserHidden":false}
0
ENDSEC
0
SECTION
2
OBJECTS
0
DICTIONARY
5
123
330
0
100
AcDbDictionary
281
1
3
ACAD_LAYOUT
350
124
3
ACAD_GROUP
350
125
3
CONDUITCAD_METADATA
350
128
0
DICTIONARY
5
124
330
123
100
AcDbDictionary
281
1
3
Model
350
126
3
Layout1
350
127
0
DICTIONARY
5
125
330
123
100
AcDbDictionary
281
1
0
LAYOUT
5
126
330
124
100
AcDbPlotSettings
1

2

4

6

40
0
41
0
42
0
43
0
44
420
45
297
46
0
47
0
48
0
49
0
140
0
141
0
142
1
143
1
70
0
72
1
73
0
74
5
7

75
16
76
0
77
0
78
300
147
1
148
0
149
0
100
AcDbLayout
1
Model
70
1
71
0
10
0
20
0
11
420
21
297
12
0
22
0
32
0
14
0
24
0
34
0
15
420
25
297
35
0
146
0
13
0
23
0
33
0
16
1
26
0
36
0
17
0
27
1
37
0
76
0
330
117
0
LAYOUT
5
127
330
124
100
AcDbPlotSettings
1

2

4

6

40
0
41
0
42
0
43
0
44
420
45
297
46
0
47
0
48
0
49
0
140
0
141
0
142
1
143
1
70
0
72
1
73
0
74
5
7

75
16
76
0
77
0
78
300
147
1
148
0
149
0
100
AcDbLayout
1
Layout1
70
1
71
1
10
0
20
0
11
420
21
297
12
0
22
0
32
0
14
0
24
0
34
0
15
420
25
297
35
0
146
0
13
0
23
0
33
0
16
1
26
0
36
0
17
0
27
1
37
0
76
0
330
118
0
XRECORD
5
128
330
123
100
AcDbXrecord
280
1
1
{"parameters":{"grid":"10","Distance":"40","SecondSide":"15"},"constraints":[],"metadata":{"description":"One-sided, symmetric-total and independent two-sided extrusions share named distance parameter
1
s.","modeling":{"version":1,"preferredMode":"3d","example":"extrusion-study","notes":"Editable faceted concept model. Not certified or construction-approved."}}}
0
ENDSEC
0
EOF
