0
SECTION
2
HEADER
9
$ACADVER
1
AC1032
9
$INSUNITS
70
4
9
$LTSCALE
40
1
9
$MEASUREMENT
70
1
999
CONDUIT:{"parameters":{"grid":"10"},"constraints":[],"metadata":{"description":"Native face-aligned profile joined to a stock body with an editable extrusion operation.","modeling":{"versi
999
CONDUIT:on":1,"preferredMode":"3d","example":"face-boss","notes":"Editable faceted concept model. Not certified or construction-approved."}}}
9
$HANDSEED
5
126
9
$DWGCODEPAGE
3
ANSI_1252
9
$CLAYER
8
0
9
$TILEMODE
70
1
0
ENDSEC
0
SECTION
2
TABLES
0
TABLE
2
LTYPE
5
103
330
0
100
AcDbSymbolTable
70
4
0
LTYPE
5
104
100
AcDbSymbolTableRecord
100
AcDbLinetypeTableRecord
2
CONTINUOUS
70
0
3
Solid line
72
65
73
0
40
0
330
103
0
LTYPE
5
105
100
AcDbSymbolTableRecord
100
AcDbLinetypeTableRecord
2
DASHED
70
0
3
DASHED
72
65
73
2
40
12
49
8
74
0
49
-4
74
0
330
103
0
LTYPE
5
106
100
AcDbSymbolTableRecord
100
AcDbLinetypeTableRecord
2
CENTER
70
0
3
CENTER
72
65
73
4
40
20
49
12
74
0
49
-3
74
0
49
2
74
0
49
-3
74
0
330
103
0
LTYPE
5
107
100
AcDbSymbolTableRecord
100
AcDbLinetypeTableRecord
2
HIDDEN
70
0
3
HIDDEN
72
65
73
2
40
7
49
4
74
0
49
-3
74
0
330
103
0
ENDTAB
0
TABLE
2
LAYER
5
108
330
0
100
AcDbSymbolTable
70
6
0
LAYER
5
109
100
AcDbSymbolTableRecord
100
AcDbLayerTableRecord
2
0
70
0
62
7
420
3426133
6
CONTINUOUS
330
108
0
LAYER
5
10A
100
AcDbSymbolTableRecord
100
AcDbLayerTableRecord
2
Equipment
70
0
62
7
420
3495011
6
CONTINUOUS
330
108
0
LAYER
5
10B
100
AcDbSymbolTableRecord
100
AcDbLayerTableRecord
2
Process
70
0
62
7
420
1342583
6
CONTINUOUS
330
108
0
LAYER
5
10C
100
AcDbSymbolTableRecord
100
AcDbLayerTableRecord
2
Instruments
70
0
62
7
420
10187334
6
CONTINUOUS
330
108
0
LAYER
5
10D
100
AcDbSymbolTableRecord
100
AcDbLayerTableRecord
2
Electrical
70
0
62
7
420
6584250
6
CONTINUOUS
330
108
0
LAYER
5
10E
100
AcDbSymbolTableRecord
100
AcDbLayerTableRecord
2
Annotations
70
0
62
7
420
7438474
6
CONTINUOUS
330
108
0
ENDTAB
0
TABLE
2
STYLE
5
10F
330
0
100
AcDbSymbolTable
70
1
0
STYLE
5
110
100
AcDbSymbolTableRecord
100
AcDbTextStyleTableRecord
2
STANDARD
70
0
40
0
41
1
50
0
71
0
42
2.5
3
txt
4

330
10F
0
ENDTAB
0
TABLE
2
APPID
5
111
330
0
100
AcDbSymbolTable
70
2
0
APPID
5
112
100
AcDbSymbolTableRecord
100
AcDbRegAppTableRecord
2
CONDUITCAD
70
0
330
111
0
APPID
5
11F
100
AcDbSymbolTableRecord
100
AcDbRegAppTableRecord
2
ACAD
70
0
330
111
0
ENDTAB
0
TABLE
2
BLOCK_RECORD
5
113
330
0
100
AcDbSymbolTable
70
2
0
BLOCK_RECORD
5
114
100
AcDbSymbolTableRecord
100
AcDbBlockTableRecord
2
*Model_Space
340
123
330
113
0
BLOCK_RECORD
5
115
100
AcDbSymbolTableRecord
100
AcDbBlockTableRecord
2
*Paper_Space
340
124
330
113
0
ENDTAB
0
TABLE
2
VPORT
5
11A
330
0
100
AcDbSymbolTable
70
0
0
ENDTAB
0
TABLE
2
VIEW
5
11B
330
0
100
AcDbSymbolTable
70
0
0
ENDTAB
0
TABLE
2
UCS
5
11C
330
0
100
AcDbSymbolTable
70
0
0
ENDTAB
0
TABLE
2
DIMSTYLE
5
11D
330
0
100
AcDbSymbolTable
70
1
100
AcDbDimStyleTable
71
0
0
DIMSTYLE
105
11E
330
11D
100
AcDbSymbolTableRecord
100
AcDbDimStyleTableRecord
2
STANDARD
70
0
340
110
0
ENDTAB
0
ENDSEC
0
SECTION
2
BLOCKS
0
BLOCK
5
116
330
114
100
AcDbEntity
8
0
100
AcDbBlockBegin
2
*Model_Space
70
1
10
0
20
0
30
0
3
*Model_Space
1

1001
CONDUITCAD
1000
{"ports":[]}
0
ENDBLK
5
117
330
114
100
AcDbEntity
8
0
100
AcDbBlockEnd
0
BLOCK
5
118
330
115
100
AcDbEntity
8
0
100
AcDbBlockBegin
2
*Paper_Space
70
1
10
0
20
0
30
0
3
*Paper_Space
1

1001
CONDUITCAD
1000
{"ports":[]}
0
ENDBLK
5
119
330
115
100
AcDbEntity
8
0
100
AcDbBlockEnd
0
ENDSEC
0
SECTION
2
ENTITIES
0
MESH
5
100
330
114
100
AcDbEntity
8
Equipment
62
7
420
5543588
60
1
100
AcDbSubDMesh
71
2
72
0
91
0
92
8
10
0
20
0
30
0
10
80
20
0
30
0
10
80
20
60
30
0
10
0
20
60
30
0
10
0
20
0
30
15
10
80
20
0
30
15
10
80
20
60
30
15
10
0
20
60
30
15
93
30
90
4
90
0
90
3
90
2
90
1
90
4
90
4
90
5
90
6
90
7
90
4
90
0
90
1
90
5
90
4
90
4
90
1
90
2
90
6
90
5
90
4
90
2
90
3
90
7
90
6
90
4
90
3
90
0
90
4
90
7
94
0
95
0
90
0
1001
CONDUITCAD
1000
{"id":"3d-face-boss-001","label":"Fixture base","feature3d":{"version":1,"kind":"box","parameters":{"width":80,"depth":60,"height":15},"inputs":[],"suppressed":false},"model3dConsumed":true,"model3dUs
1000
erHidden":false}
0
LWPOLYLINE
5
101
330
114
100
AcDbEntity
8
Annotations
60
1
100
AcDbPolyline
90
4
70
1
38
15
10
25
20
20
10
55
20
20
10
55
20
40
10
25
20
40
210
0
220
0
230
1
1001
CONDUITCAD
1000
{"id":"3d-face-boss-002","label":"Native top-face profile","model3dConsumed":true,"model3dUserHidden":false}
0
MESH
5
102
330
114
100
AcDbEntity
8
Equipment
62
7
420
5543588
100
AcDbSubDMesh
71
2
72
0
91
0
92
38
10
80
20
0
30
15
10
80
20
0
30
0
10
80
20
60
30
0
10
80
20
60
30
15
10
55
20
0
30
0
10
55
20
0
30
4.6875
10
55
20
0
30
15
10
0
20
0
30
15
10
0
20
0
30
0
10
55
20
60
30
0
10
55
20
60
30
10.3125
10
55
20
60
30
15
10
0
20
60
30
0
10
0
20
60
30
15
10
55
20
18.75
30
15
10
0
20
20
30
15
10
53.33333333333333
20
20
30
15
10
55
20
20
30
15
10
0
20
40
30
15
10
26.666666666666668
20
40
30
15
10
55
20
40
30
15
10
25
20
20
30
15
10
25
20
40
30
15
10
55
20
40
30
40
10
25
20
40
30
40
10
25
20
20
30
40
10
55
20
20
30
40
10
0
20
20
30
0
10
0
20
20
30
5
10
0
20
40
30
0
10
0
20
40
30
10
10
55
20
18.75
30
0
10
53.33333333333334
20
20
30
0
10
55
20
20
30
0
10
26.66666666666667
20
40
30
0
10
55
20
40
30
0
10
25
20
40
30
0
10
25.000000000000004
20
20
30
0
93
198
90
3
90
0
90
1
90
2
90
3
90
2
90
3
90
0
90
3
90
4
90
1
90
5
90
4
90
1
90
0
90
6
90
5
90
4
90
7
90
8
90
4
90
5
90
3
90
6
90
7
90
5
90
4
90
3
90
2
90
9
90
10
90
3
90
11
90
3
90
10
90
3
90
9
90
12
90
10
90
4
90
12
90
13
90
11
90
10
90
3
90
6
90
0
90
14
90
6
90
0
90
3
90
11
90
20
90
17
90
14
90
6
90
15
90
7
90
6
90
14
90
16
90
21
90
3
90
16
90
14
90
17
90
4
90
13
90
18
90
22
90
19
90
4
90
11
90
13
90
19
90
20
90
4
90
18
90
15
90
21
90
22
90
4
90
23
90
20
90
19
90
22
90
3
90
22
90
24
90
23
90
3
90
24
90
25
90
26
90
3
90
26
90
23
90
24
90
4
90
25
90
21
90
16
90
17
90
3
90
17
90
26
90
25
90
3
90
24
90
22
90
21
90
3
90
21
90
25
90
24
90
3
90
26
90
17
90
20
90
3
90
20
90
23
90
26
90
3
90
27
90
8
90
28
90
4
90
8
90
7
90
15
90
28
90
4
90
13
90
12
90
29
90
30
90
3
90
18
90
13
90
30
90
4
90
29
90
27
90
28
90
30
90
4
90
15
90
18
90
30
90
28
90
3
90
1
90
4
90
31
90
6
90
9
90
2
90
1
90
31
90
33
90
35
90
6
90
4
90
8
90
27
90
37
90
32
90
31
90
3
90
33
90
31
90
32
90
4
90
29
90
12
90
34
90
36
90
4
90
12
90
9
90
35
90
34
90
4
90
27
90
29
90
36
90
37
90
4
90
36
90
34
90
32
90
37
90
4
90
35
90
33
90
32
90
34
94
0
95
0
90
0
1001
CONDUITCAD
1000
{"id":"3d-face-boss-003","label":"Joined mounting boss","feature3d":{"version":1,"kind":"extrude","parameters":{"height":25,"operation":1,"useNormal":1},"inputs":["3d-face-boss-002","3d-face-boss-001"
1000
],"suppressed":false},"model3dConsumed":false,"model3dUserHidden":false}
0
ENDSEC
0
SECTION
2
OBJECTS
0
DICTIONARY
5
120
330
0
100
AcDbDictionary
281
1
3
ACAD_LAYOUT
350
121
3
ACAD_GROUP
350
122
3
CONDUITCAD_METADATA
350
125
0
DICTIONARY
5
121
330
120
100
AcDbDictionary
281
1
3
Model
350
123
3
Layout1
350
124
0
DICTIONARY
5
122
330
120
100
AcDbDictionary
281
1
0
LAYOUT
5
123
330
121
100
AcDbPlotSettings
1

2

4

6

40
0
41
0
42
0
43
0
44
420
45
297
46
0
47
0
48
0
49
0
140
0
141
0
142
1
143
1
70
0
72
1
73
0
74
5
7

75
16
76
0
77
0
78
300
147
1
148
0
149
0
100
AcDbLayout
1
Model
70
1
71
0
10
0
20
0
11
420
21
297
12
0
22
0
32
0
14
0
24
0
34
0
15
420
25
297
35
0
146
0
13
0
23
0
33
0
16
1
26
0
36
0
17
0
27
1
37
0
76
0
330
114
0
LAYOUT
5
124
330
121
100
AcDbPlotSettings
1

2

4

6

40
0
41
0
42
0
43
0
44
420
45
297
46
0
47
0
48
0
49
0
140
0
141
0
142
1
143
1
70
0
72
1
73
0
74
5
7

75
16
76
0
77
0
78
300
147
1
148
0
149
0
100
AcDbLayout
1
Layout1
70
1
71
1
10
0
20
0
11
420
21
297
12
0
22
0
32
0
14
0
24
0
34
0
15
420
25
297
35
0
146
0
13
0
23
0
33
0
16
1
26
0
36
0
17
0
27
1
37
0
76
0
330
115
0
XRECORD
5
125
330
120
100
AcDbXrecord
280
1
1
{"parameters":{"grid":"10"},"constraints":[],"metadata":{"description":"Native face-aligned profile joined to a stock body with an editable extrusion operation.","modeling":{"version":1,"preferredMode
1
":"3d","example":"face-boss","notes":"Editable faceted concept model. Not certified or construction-approved."}}}
0
ENDSEC
0
EOF
