0
SECTION
2
HEADER
9
$ACADVER
1
AC1032
9
$INSUNITS
70
4
9
$LTSCALE
40
1
9
$MEASUREMENT
70
1
999
CONDUIT:{"parameters":{"grid":"10","PitchX":"45","PitchY":"40","Rows":"3","Columns":"4","PinHeight":"25"},"constraints":[],"metadata":{"description":"Two nested linear patterns build a fix
999
CONDUIT:ture array over a parameter-driven base plate.","modeling":{"version":1,"preferredMode":"3d","example":"fixture","notes":"Editable faceted concept model. Not certified or construct
999
CONDUIT:ion-approved."}}}
9
$HANDSEED
5
127
9
$DWGCODEPAGE
3
ANSI_1252
9
$CLAYER
8
0
9
$TILEMODE
70
1
0
ENDSEC
0
SECTION
2
TABLES
0
TABLE
2
LTYPE
5
104
330
0
100
AcDbSymbolTable
70
4
0
LTYPE
5
105
100
AcDbSymbolTableRecord
100
AcDbLinetypeTableRecord
2
CONTINUOUS
70
0
3
Solid line
72
65
73
0
40
0
330
104
0
LTYPE
5
106
100
AcDbSymbolTableRecord
100
AcDbLinetypeTableRecord
2
DASHED
70
0
3
DASHED
72
65
73
2
40
12
49
8
74
0
49
-4
74
0
330
104
0
LTYPE
5
107
100
AcDbSymbolTableRecord
100
AcDbLinetypeTableRecord
2
CENTER
70
0
3
CENTER
72
65
73
4
40
20
49
12
74
0
49
-3
74
0
49
2
74
0
49
-3
74
0
330
104
0
LTYPE
5
108
100
AcDbSymbolTableRecord
100
AcDbLinetypeTableRecord
2
HIDDEN
70
0
3
HIDDEN
72
65
73
2
40
7
49
4
74
0
49
-3
74
0
330
104
0
ENDTAB
0
TABLE
2
LAYER
5
109
330
0
100
AcDbSymbolTable
70
6
0
LAYER
5
10A
100
AcDbSymbolTableRecord
100
AcDbLayerTableRecord
2
0
70
0
62
7
420
3426133
6
CONTINUOUS
330
109
0
LAYER
5
10B
100
AcDbSymbolTableRecord
100
AcDbLayerTableRecord
2
Equipment
70
0
62
7
420
3495011
6
CONTINUOUS
330
109
0
LAYER
5
10C
100
AcDbSymbolTableRecord
100
AcDbLayerTableRecord
2
Process
70
0
62
7
420
1342583
6
CONTINUOUS
330
109
0
LAYER
5
10D
100
AcDbSymbolTableRecord
100
AcDbLayerTableRecord
2
Instruments
70
0
62
7
420
10187334
6
CONTINUOUS
330
109
0
LAYER
5
10E
100
AcDbSymbolTableRecord
100
AcDbLayerTableRecord
2
Electrical
70
0
62
7
420
6584250
6
CONTINUOUS
330
109
0
LAYER
5
10F
100
AcDbSymbolTableRecord
100
AcDbLayerTableRecord
2
Annotations
70
0
62
7
420
7438474
6
CONTINUOUS
330
109
0
ENDTAB
0
TABLE
2
STYLE
5
110
330
0
100
AcDbSymbolTable
70
1
0
STYLE
5
111
100
AcDbSymbolTableRecord
100
AcDbTextStyleTableRecord
2
STANDARD
70
0
40
0
41
1
50
0
71
0
42
2.5
3
txt
4

330
110
0
ENDTAB
0
TABLE
2
APPID
5
112
330
0
100
AcDbSymbolTable
70
2
0
APPID
5
113
100
AcDbSymbolTableRecord
100
AcDbRegAppTableRecord
2
CONDUITCAD
70
0
330
112
0
APPID
5
120
100
AcDbSymbolTableRecord
100
AcDbRegAppTableRecord
2
ACAD
70
0
330
112
0
ENDTAB
0
TABLE
2
BLOCK_RECORD
5
114
330
0
100
AcDbSymbolTable
70
2
0
BLOCK_RECORD
5
115
100
AcDbSymbolTableRecord
100
AcDbBlockTableRecord
2
*Model_Space
340
124
330
114
0
BLOCK_RECORD
5
116
100
AcDbSymbolTableRecord
100
AcDbBlockTableRecord
2
*Paper_Space
340
125
330
114
0
ENDTAB
0
TABLE
2
VPORT
5
11B
330
0
100
AcDbSymbolTable
70
0
0
ENDTAB
0
TABLE
2
VIEW
5
11C
330
0
100
AcDbSymbolTable
70
0
0
ENDTAB
0
TABLE
2
UCS
5
11D
330
0
100
AcDbSymbolTable
70
0
0
ENDTAB
0
TABLE
2
DIMSTYLE
5
11E
330
0
100
AcDbSymbolTable
70
1
100
AcDbDimStyleTable
71
0
0
DIMSTYLE
105
11F
330
11E
100
AcDbSymbolTableRecord
100
AcDbDimStyleTableRecord
2
STANDARD
70
0
340
111
0
ENDTAB
0
ENDSEC
0
SECTION
2
BLOCKS
0
BLOCK
5
117
330
115
100
AcDbEntity
8
0
100
AcDbBlockBegin
2
*Model_Space
70
1
10
0
20
0
30
0
3
*Model_Space
1

1001
CONDUITCAD
1000
{"ports":[]}
0
ENDBLK
5
118
330
115
100
AcDbEntity
8
0
100
AcDbBlockEnd
0
BLOCK
5
119
330
116
100
AcDbEntity
8
0
100
AcDbBlockBegin
2
*Paper_Space
70
1
10
0
20
0
30
0
3
*Paper_Space
1

1001
CONDUITCAD
1000
{"ports":[]}
0
ENDBLK
5
11A
330
116
100
AcDbEntity
8
0
100
AcDbBlockEnd
0
ENDSEC
0
SECTION
2
ENTITIES
0
MESH
5
100
330
115
100
AcDbEntity
8
Equipment
62
7
420
6653582
100
AcDbSubDMesh
71
2
72
0
91
0
92
8
10
0
20
0
30
0
10
175
20
0
30
0
10
175
20
120
30
0
10
0
20
120
30
0
10
0
20
0
30
10
10
175
20
0
30
10
10
175
20
120
30
10
10
0
20
120
30
10
93
30
90
4
90
0
90
3
90
2
90
1
90
4
90
4
90
5
90
6
90
7
90
4
90
0
90
1
90
5
90
4
90
4
90
1
90
2
90
6
90
5
90
4
90
2
90
3
90
7
90
6
90
4
90
3
90
0
90
4
90
7
94
0
95
0
90
0
1001
CONDUITCAD
1000
{"id":"3d-fixture-001","label":"Fixture base","feature3d":{"version":1,"kind":"box","parameters":{"width":"PitchX*(Columns-1)+40","depth":"PitchY*(Rows-1)+40","height":10},"inputs":[],"suppressed":fal
1000
se},"model3dConsumed":false,"model3dUserHidden":false}
0
MESH
5
101
330
115
100
AcDbEntity
8
Equipment
62
7
420
14262098
60
1
100
AcDbSubDMesh
71
2
72
0
91
0
92
40
10
27
20
20
30
10
10
26.657395614066075
20
22.163118960624633
30
10
10
25.663118960624633
20
24.11449676604731
30
10
10
24.11449676604731
20
25.663118960624633
30
10
10
22.163118960624633
20
26.657395614066075
30
10
10
20
20
27
30
10
10
17.83688103937537
20
26.657395614066075
30
10
10
15.88550323395269
20
25.663118960624633
30
10
10
14.336881039375369
20
24.114496766047314
30
10
10
13.342604385933925
20
22.163118960624633
30
10
10
13
20
20
30
10
10
13.342604385933925
20
17.83688103937537
30
10
10
14.336881039375367
20
15.88550323395269
30
10
10
15.885503233952686
20
14.336881039375369
30
10
10
17.836881039375367
20
13.342604385933925
30
10
10
20
20
13
30
10
10
22.16311896062463
20
13.342604385933925
30
10
10
24.11449676604731
20
14.336881039375367
30
10
10
25.66311896062463
20
15.885503233952686
30
10
10
26.657395614066075
20
17.836881039375367
30
10
10
27
20
20
30
35
10
26.657395614066075
20
22.163118960624633
30
35
10
25.663118960624633
20
24.11449676604731
30
35
10
24.11449676604731
20
25.663118960624633
30
35
10
22.163118960624633
20
26.657395614066075
30
35
10
20
20
27
30
35
10
17.83688103937537
20
26.657395614066075
30
35
10
15.88550323395269
20
25.663118960624633
30
35
10
14.336881039375369
20
24.114496766047314
30
35
10
13.342604385933925
20
22.163118960624633
30
35
10
13
20
20
30
35
10
13.342604385933925
20
17.83688103937537
30
35
10
14.336881039375367
20
15.88550323395269
30
35
10
15.885503233952686
20
14.336881039375369
30
35
10
17.836881039375367
20
13.342604385933925
30
35
10
20
20
13
30
35
10
22.16311896062463
20
13.342604385933925
30
35
10
24.11449676604731
20
14.336881039375367
30
35
10
25.66311896062463
20
15.885503233952686
30
35
10
26.657395614066075
20
17.836881039375367
30
35
93
142
90
20
90
19
90
18
90
17
90
16
90
15
90
14
90
13
90
12
90
11
90
10
90
9
90
8
90
7
90
6
90
5
90
4
90
3
90
2
90
1
90
0
90
20
90
20
90
21
90
22
90
23
90
24
90
25
90
26
90
27
90
28
90
29
90
30
90
31
90
32
90
33
90
34
90
35
90
36
90
37
90
38
90
39
90
4
90
0
90
1
90
21
90
20
90
4
90
1
90
2
90
22
90
21
90
4
90
2
90
3
90
23
90
22
90
4
90
3
90
4
90
24
90
23
90
4
90
4
90
5
90
25
90
24
90
4
90
5
90
6
90
26
90
25
90
4
90
6
90
7
90
27
90
26
90
4
90
7
90
8
90
28
90
27
90
4
90
8
90
9
90
29
90
28
90
4
90
9
90
10
90
30
90
29
90
4
90
10
90
11
90
31
90
30
90
4
90
11
90
12
90
32
90
31
90
4
90
12
90
13
90
33
90
32
90
4
90
13
90
14
90
34
90
33
90
4
90
14
90
15
90
35
90
34
90
4
90
15
90
16
90
36
90
35
90
4
90
16
90
17
90
37
90
36
90
4
90
17
90
18
90
38
90
37
90
4
90
18
90
19
90
39
90
38
90
4
90
19
90
0
90
20
90
39
94
0
95
0
90
0
1001
CONDUITCAD
1000
{"id":"3d-fixture-002","label":"Locating pin","feature3d":{"version":1,"kind":"cylinder","parameters":{"radius":7,"height":"PinHeight","x":20,"y":20,"z":10,"segments":20},"inputs":[],"suppressed":fals
1000
e},"model3dConsumed":true,"model3dUserHidden":false}
0
MESH
5
102
330
115
100
AcDbEntity
8
Equipment
62
7
420
5543588
60
1
100
AcDbSubDMesh
71
2
72
0
91
0
92
160
10
27
20
20
30
10
10
26.657395614066075
20
22.163118960624633
30
10
10
25.663118960624633
20
24.11449676604731
30
10
10
24.11449676604731
20
25.663118960624633
30
10
10
22.163118960624633
20
26.657395614066075
30
10
10
20
20
27
30
10
10
17.83688103937537
20
26.657395614066075
30
10
10
15.88550323395269
20
25.663118960624633
30
10
10
14.336881039375369
20
24.114496766047314
30
10
10
13.342604385933925
20
22.163118960624633
30
10
10
13
20
20
30
10
10
13.342604385933925
20
17.83688103937537
30
10
10
14.336881039375367
20
15.88550323395269
30
10
10
15.885503233952686
20
14.336881039375369
30
10
10
17.836881039375367
20
13.342604385933925
30
10
10
20
20
13
30
10
10
22.16311896062463
20
13.342604385933925
30
10
10
24.11449676604731
20
14.336881039375367
30
10
10
25.66311896062463
20
15.885503233952686
30
10
10
26.657395614066075
20
17.836881039375367
30
10
10
27
20
20
30
35
10
26.657395614066075
20
22.163118960624633
30
35
10
25.663118960624633
20
24.11449676604731
30
35
10
24.11449676604731
20
25.663118960624633
30
35
10
22.163118960624633
20
26.657395614066075
30
35
10
20
20
27
30
35
10
17.83688103937537
20
26.657395614066075
30
35
10
15.88550323395269
20
25.663118960624633
30
35
10
14.336881039375369
20
24.114496766047314
30
35
10
13.342604385933925
20
22.163118960624633
30
35
10
13
20
20
30
35
10
13.342604385933925
20
17.83688103937537
30
35
10
14.336881039375367
20
15.88550323395269
30
35
10
15.885503233952686
20
14.336881039375369
30
35
10
17.836881039375367
20
13.342604385933925
30
35
10
20
20
13
30
35
10
22.16311896062463
20
13.342604385933925
30
35
10
24.11449676604731
20
14.336881039375367
30
35
10
25.66311896062463
20
15.885503233952686
30
35
10
26.657395614066075
20
17.836881039375367
30
35
10
72
20
20
30
10
10
71.65739561406608
20
22.163118960624633
30
10
10
70.66311896062463
20
24.11449676604731
30
10
10
69.11449676604731
20
25.663118960624633
30
10
10
67.16311896062463
20
26.657395614066075
30
10
10
65
20
27
30
10
10
62.83688103937537
20
26.657395614066075
30
10
10
60.88550323395269
20
25.663118960624633
30
10
10
59.33688103937537
20
24.114496766047314
30
10
10
58.342604385933925
20
22.163118960624633
30
10
10
58
20
20
30
10
10
58.342604385933925
20
17.83688103937537
30
10
10
59.33688103937537
20
15.88550323395269
30
10
10
60.88550323395269
20
14.336881039375369
30
10
10
62.83688103937537
20
13.342604385933925
30
10
10
65
20
13
30
10
10
67.16311896062463
20
13.342604385933925
30
10
10
69.11449676604731
20
14.336881039375367
30
10
10
70.66311896062463
20
15.885503233952686
30
10
10
71.65739561406608
20
17.836881039375367
30
10
10
72
20
20
30
35
10
71.65739561406608
20
22.163118960624633
30
35
10
70.66311896062463
20
24.11449676604731
30
35
10
69.11449676604731
20
25.663118960624633
30
35
10
67.16311896062463
20
26.657395614066075
30
35
10
65
20
27
30
35
10
62.83688103937537
20
26.657395614066075
30
35
10
60.88550323395269
20
25.663118960624633
30
35
10
59.33688103937537
20
24.114496766047314
30
35
10
58.342604385933925
20
22.163118960624633
30
35
10
58
20
20
30
35
10
58.342604385933925
20
17.83688103937537
30
35
10
59.33688103937537
20
15.88550323395269
30
35
10
60.88550323395269
20
14.336881039375369
30
35
10
62.83688103937537
20
13.342604385933925
30
35
10
65
20
13
30
35
10
67.16311896062463
20
13.342604385933925
30
35
10
69.11449676604731
20
14.336881039375367
30
35
10
70.66311896062463
20
15.885503233952686
30
35
10
71.65739561406608
20
17.836881039375367
30
35
10
117
20
20
30
10
10
116.65739561406608
20
22.163118960624633
30
10
10
115.66311896062463
20
24.11449676604731
30
10
10
114.11449676604731
20
25.663118960624633
30
10
10
112.16311896062463
20
26.657395614066075
30
10
10
110
20
27
30
10
10
107.83688103937537
20
26.657395614066075
30
10
10
105.88550323395269
20
25.663118960624633
30
10
10
104.33688103937537
20
24.114496766047314
30
10
10
103.34260438593392
20
22.163118960624633
30
10
10
103
20
20
30
10
10
103.34260438593392
20
17.83688103937537
30
10
10
104.33688103937537
20
15.88550323395269
30
10
10
105.88550323395269
20
14.336881039375369
30
10
10
107.83688103937537
20
13.342604385933925
30
10
10
110
20
13
30
10
10
112.16311896062463
20
13.342604385933925
30
10
10
114.11449676604731
20
14.336881039375367
30
10
10
115.66311896062463
20
15.885503233952686
30
10
10
116.65739561406608
20
17.836881039375367
30
10
10
117
20
20
30
35
10
116.65739561406608
20
22.163118960624633
30
35
10
115.66311896062463
20
24.11449676604731
30
35
10
114.11449676604731
20
25.663118960624633
30
35
10
112.16311896062463
20
26.657395614066075
30
35
10
110
20
27
30
35
10
107.83688103937537
20
26.657395614066075
30
35
10
105.88550323395269
20
25.663118960624633
30
35
10
104.33688103937537
20
24.114496766047314
30
35
10
103.34260438593392
20
22.163118960624633
30
35
10
103
20
20
30
35
10
103.34260438593392
20
17.83688103937537
30
35
10
104.33688103937537
20
15.88550323395269
30
35
10
105.88550323395269
20
14.336881039375369
30
35
10
107.83688103937537
20
13.342604385933925
30
35
10
110
20
13
30
35
10
112.16311896062463
20
13.342604385933925
30
35
10
114.11449676604731
20
14.336881039375367
30
35
10
115.66311896062463
20
15.885503233952686
30
35
10
116.65739561406608
20
17.836881039375367
30
35
10
162
20
20
30
10
10
161.65739561406608
20
22.163118960624633
30
10
10
160.66311896062464
20
24.11449676604731
30
10
10
159.1144967660473
20
25.663118960624633
30
10
10
157.16311896062464
20
26.657395614066075
30
10
10
155
20
27
30
10
10
152.83688103937538
20
26.657395614066075
30
10
10
150.8855032339527
20
25.663118960624633
30
10
10
149.33688103937536
20
24.114496766047314
30
10
10
148.34260438593392
20
22.163118960624633
30
10
10
148
20
20
30
10
10
148.34260438593392
20
17.83688103937537
30
10
10
149.33688103937536
20
15.88550323395269
30
10
10
150.88550323395268
20
14.336881039375369
30
10
10
152.83688103937536
20
13.342604385933925
30
10
10
155
20
13
30
10
10
157.16311896062462
20
13.342604385933925
30
10
10
159.1144967660473
20
14.336881039375367
30
10
10
160.66311896062462
20
15.885503233952686
30
10
10
161.65739561406608
20
17.836881039375367
30
10
10
162
20
20
30
35
10
161.65739561406608
20
22.163118960624633
30
35
10
160.66311896062464
20
24.11449676604731
30
35
10
159.1144967660473
20
25.663118960624633
30
35
10
157.16311896062464
20
26.657395614066075
30
35
10
155
20
27
30
35
10
152.83688103937538
20
26.657395614066075
30
35
10
150.8855032339527
20
25.663118960624633
30
35
10
149.33688103937536
20
24.114496766047314
30
35
10
148.34260438593392
20
22.163118960624633
30
35
10
148
20
20
30
35
10
148.34260438593392
20
17.83688103937537
30
35
10
149.33688103937536
20
15.88550323395269
30
35
10
150.88550323395268
20
14.336881039375369
30
35
10
152.83688103937536
20
13.342604385933925
30
35
10
155
20
13
30
35
10
157.16311896062462
20
13.342604385933925
30
35
10
159.1144967660473
20
14.336881039375367
30
35
10
160.66311896062462
20
15.885503233952686
30
35
10
161.65739561406608
20
17.836881039375367
30
35
93
568
90
20
90
19
90
18
90
17
90
16
90
15
90
14
90
13
90
12
90
11
90
10
90
9
90
8
90
7
90
6
90
5
90
4
90
3
90
2
90
1
90
0
90
20
90
20
90
21
90
22
90
23
90
24
90
25
90
26
90
27
90
28
90
29
90
30
90
31
90
32
90
33
90
34
90
35
90
36
90
37
90
38
90
39
90
4
90
0
90
1
90
21
90
20
90
4
90
1
90
2
90
22
90
21
90
4
90
2
90
3
90
23
90
22
90
4
90
3
90
4
90
24
90
23
90
4
90
4
90
5
90
25
90
24
90
4
90
5
90
6
90
26
90
25
90
4
90
6
90
7
90
27
90
26
90
4
90
7
90
8
90
28
90
27
90
4
90
8
90
9
90
29
90
28
90
4
90
9
90
10
90
30
90
29
90
4
90
10
90
11
90
31
90
30
90
4
90
11
90
12
90
32
90
31
90
4
90
12
90
13
90
33
90
32
90
4
90
13
90
14
90
34
90
33
90
4
90
14
90
15
90
35
90
34
90
4
90
15
90
16
90
36
90
35
90
4
90
16
90
17
90
37
90
36
90
4
90
17
90
18
90
38
90
37
90
4
90
18
90
19
90
39
90
38
90
4
90
19
90
0
90
20
90
39
90
20
90
59
90
58
90
57
90
56
90
55
90
54
90
53
90
52
90
51
90
50
90
49
90
48
90
47
90
46
90
45
90
44
90
43
90
42
90
41
90
40
90
20
90
60
90
61
90
62
90
63
90
64
90
65
90
66
90
67
90
68
90
69
90
70
90
71
90
72
90
73
90
74
90
75
90
76
90
77
90
78
90
79
90
4
90
40
90
41
90
61
90
60
90
4
90
41
90
42
90
62
90
61
90
4
90
42
90
43
90
63
90
62
90
4
90
43
90
44
90
64
90
63
90
4
90
44
90
45
90
65
90
64
90
4
90
45
90
46
90
66
90
65
90
4
90
46
90
47
90
67
90
66
90
4
90
47
90
48
90
68
90
67
90
4
90
48
90
49
90
69
90
68
90
4
90
49
90
50
90
70
90
69
90
4
90
50
90
51
90
71
90
70
90
4
90
51
90
52
90
72
90
71
90
4
90
52
90
53
90
73
90
72
90
4
90
53
90
54
90
74
90
73
90
4
90
54
90
55
90
75
90
74
90
4
90
55
90
56
90
76
90
75
90
4
90
56
90
57
90
77
90
76
90
4
90
57
90
58
90
78
90
77
90
4
90
58
90
59
90
79
90
78
90
4
90
59
90
40
90
60
90
79
90
20
90
99
90
98
90
97
90
96
90
95
90
94
90
93
90
92
90
91
90
90
90
89
90
88
90
87
90
86
90
85
90
84
90
83
90
82
90
81
90
80
90
20
90
100
90
101
90
102
90
103
90
104
90
105
90
106
90
107
90
108
90
109
90
110
90
111
90
112
90
113
90
114
90
115
90
116
90
117
90
118
90
119
90
4
90
80
90
81
90
101
90
100
90
4
90
81
90
82
90
102
90
101
90
4
90
82
90
83
90
103
90
102
90
4
90
83
90
84
90
104
90
103
90
4
90
84
90
85
90
105
90
104
90
4
90
85
90
86
90
106
90
105
90
4
90
86
90
87
90
107
90
106
90
4
90
87
90
88
90
108
90
107
90
4
90
88
90
89
90
109
90
108
90
4
90
89
90
90
90
110
90
109
90
4
90
90
90
91
90
111
90
110
90
4
90
91
90
92
90
112
90
111
90
4
90
92
90
93
90
113
90
112
90
4
90
93
90
94
90
114
90
113
90
4
90
94
90
95
90
115
90
114
90
4
90
95
90
96
90
116
90
115
90
4
90
96
90
97
90
117
90
116
90
4
90
97
90
98
90
118
90
117
90
4
90
98
90
99
90
119
90
118
90
4
90
99
90
80
90
100
90
119
90
20
90
139
90
138
90
137
90
136
90
135
90
134
90
133
90
132
90
131
90
130
90
129
90
128
90
127
90
126
90
125
90
124
90
123
90
122
90
121
90
120
90
20
90
140
90
141
90
142
90
143
90
144
90
145
90
146
90
147
90
148
90
149
90
150
90
151
90
152
90
153
90
154
90
155
90
156
90
157
90
158
90
159
90
4
90
120
90
121
90
141
90
140
90
4
90
121
90
122
90
142
90
141
90
4
90
122
90
123
90
143
90
142
90
4
90
123
90
124
90
144
90
143
90
4
90
124
90
125
90
145
90
144
90
4
90
125
90
126
90
146
90
145
90
4
90
126
90
127
90
147
90
146
90
4
90
127
90
128
90
148
90
147
90
4
90
128
90
129
90
149
90
148
90
4
90
129
90
130
90
150
90
149
90
4
90
130
90
131
90
151
90
150
90
4
90
131
90
132
90
152
90
151
90
4
90
132
90
133
90
153
90
152
90
4
90
133
90
134
90
154
90
153
90
4
90
134
90
135
90
155
90
154
90
4
90
135
90
136
90
156
90
155
90
4
90
136
90
137
90
157
90
156
90
4
90
137
90
138
90
158
90
157
90
4
90
138
90
139
90
159
90
158
90
4
90
139
90
120
90
140
90
159
94
0
95
0
90
0
1001
CONDUITCAD
1000
{"id":"3d-fixture-003","label":"Column pattern","feature3d":{"version":1,"kind":"linear-pattern","parameters":{"count":"Columns","dx":"PitchX"},"inputs":["3d-fixture-002"],"suppressed":false},"model3d
1000
Consumed":true,"model3dUserHidden":false}
0
MESH
5
103
330
115
100
AcDbEntity
8
Equipment
62
7
420
14262098
100
AcDbSubDMesh
71
2
72
0
91
0
92
480
10
27
20
20
30
10
10
26.657395614066075
20
22.163118960624633
30
10
10
25.663118960624633
20
24.11449676604731
30
10
10
24.11449676604731
20
25.663118960624633
30
10
10
22.163118960624633
20
26.657395614066075
30
10
10
20
20
27
30
10
10
17.83688103937537
20
26.657395614066075
30
10
10
15.88550323395269
20
25.663118960624633
30
10
10
14.336881039375369
20
24.114496766047314
30
10
10
13.342604385933925
20
22.163118960624633
30
10
10
13
20
20
30
10
10
13.342604385933925
20
17.83688103937537
30
10
10
14.336881039375367
20
15.88550323395269
30
10
10
15.885503233952686
20
14.336881039375369
30
10
10
17.836881039375367
20
13.342604385933925
30
10
10
20
20
13
30
10
10
22.16311896062463
20
13.342604385933925
30
10
10
24.11449676604731
20
14.336881039375367
30
10
10
25.66311896062463
20
15.885503233952686
30
10
10
26.657395614066075
20
17.836881039375367
30
10
10
27
20
20
30
35
10
26.657395614066075
20
22.163118960624633
30
35
10
25.663118960624633
20
24.11449676604731
30
35
10
24.11449676604731
20
25.663118960624633
30
35
10
22.163118960624633
20
26.657395614066075
30
35
10
20
20
27
30
35
10
17.83688103937537
20
26.657395614066075
30
35
10
15.88550323395269
20
25.663118960624633
30
35
10
14.336881039375369
20
24.114496766047314
30
35
10
13.342604385933925
20
22.163118960624633
30
35
10
13
20
20
30
35
10
13.342604385933925
20
17.83688103937537
30
35
10
14.336881039375367
20
15.88550323395269
30
35
10
15.885503233952686
20
14.336881039375369
30
35
10
17.836881039375367
20
13.342604385933925
30
35
10
20
20
13
30
35
10
22.16311896062463
20
13.342604385933925
30
35
10
24.11449676604731
20
14.336881039375367
30
35
10
25.66311896062463
20
15.885503233952686
30
35
10
26.657395614066075
20
17.836881039375367
30
35
10
72
20
20
30
10
10
71.65739561406608
20
22.163118960624633
30
10
10
70.66311896062463
20
24.11449676604731
30
10
10
69.11449676604731
20
25.663118960624633
30
10
10
67.16311896062463
20
26.657395614066075
30
10
10
65
20
27
30
10
10
62.83688103937537
20
26.657395614066075
30
10
10
60.88550323395269
20
25.663118960624633
30
10
10
59.33688103937537
20
24.114496766047314
30
10
10
58.342604385933925
20
22.163118960624633
30
10
10
58
20
20
30
10
10
58.342604385933925
20
17.83688103937537
30
10
10
59.33688103937537
20
15.88550323395269
30
10
10
60.88550323395269
20
14.336881039375369
30
10
10
62.83688103937537
20
13.342604385933925
30
10
10
65
20
13
30
10
10
67.16311896062463
20
13.342604385933925
30
10
10
69.11449676604731
20
14.336881039375367
30
10
10
70.66311896062463
20
15.885503233952686
30
10
10
71.65739561406608
20
17.836881039375367
30
10
10
72
20
20
30
35
10
71.65739561406608
20
22.163118960624633
30
35
10
70.66311896062463
20
24.11449676604731
30
35
10
69.11449676604731
20
25.663118960624633
30
35
10
67.16311896062463
20
26.657395614066075
30
35
10
65
20
27
30
35
10
62.83688103937537
20
26.657395614066075
30
35
10
60.88550323395269
20
25.663118960624633
30
35
10
59.33688103937537
20
24.114496766047314
30
35
10
58.342604385933925
20
22.163118960624633
30
35
10
58
20
20
30
35
10
58.342604385933925
20
17.83688103937537
30
35
10
59.33688103937537
20
15.88550323395269
30
35
10
60.88550323395269
20
14.336881039375369
30
35
10
62.83688103937537
20
13.342604385933925
30
35
10
65
20
13
30
35
10
67.16311896062463
20
13.342604385933925
30
35
10
69.11449676604731
20
14.336881039375367
30
35
10
70.66311896062463
20
15.885503233952686
30
35
10
71.65739561406608
20
17.836881039375367
30
35
10
117
20
20
30
10
10
116.65739561406608
20
22.163118960624633
30
10
10
115.66311896062463
20
24.11449676604731
30
10
10
114.11449676604731
20
25.663118960624633
30
10
10
112.16311896062463
20
26.657395614066075
30
10
10
110
20
27
30
10
10
107.83688103937537
20
26.657395614066075
30
10
10
105.88550323395269
20
25.663118960624633
30
10
10
104.33688103937537
20
24.114496766047314
30
10
10
103.34260438593392
20
22.163118960624633
30
10
10
103
20
20
30
10
10
103.34260438593392
20
17.83688103937537
30
10
10
104.33688103937537
20
15.88550323395269
30
10
10
105.88550323395269
20
14.336881039375369
30
10
10
107.83688103937537
20
13.342604385933925
30
10
10
110
20
13
30
10
10
112.16311896062463
20
13.342604385933925
30
10
10
114.11449676604731
20
14.336881039375367
30
10
10
115.66311896062463
20
15.885503233952686
30
10
10
116.65739561406608
20
17.836881039375367
30
10
10
117
20
20
30
35
10
116.65739561406608
20
22.163118960624633
30
35
10
115.66311896062463
20
24.11449676604731
30
35
10
114.11449676604731
20
25.663118960624633
30
35
10
112.16311896062463
20
26.657395614066075
30
35
10
110
20
27
30
35
10
107.83688103937537
20
26.657395614066075
30
35
10
105.88550323395269
20
25.663118960624633
30
35
10
104.33688103937537
20
24.114496766047314
30
35
10
103.34260438593392
20
22.163118960624633
30
35
10
103
20
20
30
35
10
103.34260438593392
20
17.83688103937537
30
35
10
104.33688103937537
20
15.88550323395269
30
35
10
105.88550323395269
20
14.336881039375369
30
35
10
107.83688103937537
20
13.342604385933925
30
35
10
110
20
13
30
35
10
112.16311896062463
20
13.342604385933925
30
35
10
114.11449676604731
20
14.336881039375367
30
35
10
115.66311896062463
20
15.885503233952686
30
35
10
116.65739561406608
20
17.836881039375367
30
35
10
162
20
20
30
10
10
161.65739561406608
20
22.163118960624633
30
10
10
160.66311896062464
20
24.11449676604731
30
10
10
159.1144967660473
20
25.663118960624633
30
10
10
157.16311896062464
20
26.657395614066075
30
10
10
155
20
27
30
10
10
152.83688103937538
20
26.657395614066075
30
10
10
150.8855032339527
20
25.663118960624633
30
10
10
149.33688103937536
20
24.114496766047314
30
10
10
148.34260438593392
20
22.163118960624633
30
10
10
148
20
20
30
10
10
148.34260438593392
20
17.83688103937537
30
10
10
149.33688103937536
20
15.88550323395269
30
10
10
150.88550323395268
20
14.336881039375369
30
10
10
152.83688103937536
20
13.342604385933925
30
10
10
155
20
13
30
10
10
157.16311896062462
20
13.342604385933925
30
10
10
159.1144967660473
20
14.336881039375367
30
10
10
160.66311896062462
20
15.885503233952686
30
10
10
161.65739561406608
20
17.836881039375367
30
10
10
162
20
20
30
35
10
161.65739561406608
20
22.163118960624633
30
35
10
160.66311896062464
20
24.11449676604731
30
35
10
159.1144967660473
20
25.663118960624633
30
35
10
157.16311896062464
20
26.657395614066075
30
35
10
155
20
27
30
35
10
152.83688103937538
20
26.657395614066075
30
35
10
150.8855032339527
20
25.663118960624633
30
35
10
149.33688103937536
20
24.114496766047314
30
35
10
148.34260438593392
20
22.163118960624633
30
35
10
148
20
20
30
35
10
148.34260438593392
20
17.83688103937537
30
35
10
149.33688103937536
20
15.88550323395269
30
35
10
150.88550323395268
20
14.336881039375369
30
35
10
152.83688103937536
20
13.342604385933925
30
35
10
155
20
13
30
35
10
157.16311896062462
20
13.342604385933925
30
35
10
159.1144967660473
20
14.336881039375367
30
35
10
160.66311896062462
20
15.885503233952686
30
35
10
161.65739561406608
20
17.836881039375367
30
35
10
27
20
60
30
10
10
26.657395614066075
20
62.16311896062463
30
10
10
25.663118960624633
20
64.11449676604731
30
10
10
24.11449676604731
20
65.66311896062463
30
10
10
22.163118960624633
20
66.65739561406608
30
10
10
20
20
67
30
10
10
17.83688103937537
20
66.65739561406608
30
10
10
15.88550323395269
20
65.66311896062463
30
10
10
14.336881039375369
20
64.11449676604731
30
10
10
13.342604385933925
20
62.16311896062463
30
10
10
13
20
60
30
10
10
13.342604385933925
20
57.83688103937537
30
10
10
14.336881039375367
20
55.88550323395269
30
10
10
15.885503233952686
20
54.33688103937537
30
10
10
17.836881039375367
20
53.342604385933925
30
10
10
20
20
53
30
10
10
22.16311896062463
20
53.342604385933925
30
10
10
24.11449676604731
20
54.33688103937537
30
10
10
25.66311896062463
20
55.88550323395269
30
10
10
26.657395614066075
20
57.83688103937537
30
10
10
27
20
60
30
35
10
26.657395614066075
20
62.16311896062463
30
35
10
25.663118960624633
20
64.11449676604731
30
35
10
24.11449676604731
20
65.66311896062463
30
35
10
22.163118960624633
20
66.65739561406608
30
35
10
20
20
67
30
35
10
17.83688103937537
20
66.65739561406608
30
35
10
15.88550323395269
20
65.66311896062463
30
35
10
14.336881039375369
20
64.11449676604731
30
35
10
13.342604385933925
20
62.16311896062463
30
35
10
13
20
60
30
35
10
13.342604385933925
20
57.83688103937537
30
35
10
14.336881039375367
20
55.88550323395269
30
35
10
15.885503233952686
20
54.33688103937537
30
35
10
17.836881039375367
20
53.342604385933925
30
35
10
20
20
53
30
35
10
22.16311896062463
20
53.342604385933925
30
35
10
24.11449676604731
20
54.33688103937537
30
35
10
25.66311896062463
20
55.88550323395269
30
35
10
26.657395614066075
20
57.83688103937537
30
35
10
72
20
60
30
10
10
71.65739561406608
20
62.16311896062463
30
10
10
70.66311896062463
20
64.11449676604731
30
10
10
69.11449676604731
20
65.66311896062463
30
10
10
67.16311896062463
20
66.65739561406608
30
10
10
65
20
67
30
10
10
62.83688103937537
20
66.65739561406608
30
10
10
60.88550323395269
20
65.66311896062463
30
10
10
59.33688103937537
20
64.11449676604731
30
10
10
58.342604385933925
20
62.16311896062463
30
10
10
58
20
60
30
10
10
58.342604385933925
20
57.83688103937537
30
10
10
59.33688103937537
20
55.88550323395269
30
10
10
60.88550323395269
20
54.33688103937537
30
10
10
62.83688103937537
20
53.342604385933925
30
10
10
65
20
53
30
10
10
67.16311896062463
20
53.342604385933925
30
10
10
69.11449676604731
20
54.33688103937537
30
10
10
70.66311896062463
20
55.88550323395269
30
10
10
71.65739561406608
20
57.83688103937537
30
10
10
72
20
60
30
35
10
71.65739561406608
20
62.16311896062463
30
35
10
70.66311896062463
20
64.11449676604731
30
35
10
69.11449676604731
20
65.66311896062463
30
35
10
67.16311896062463
20
66.65739561406608
30
35
10
65
20
67
30
35
10
62.83688103937537
20
66.65739561406608
30
35
10
60.88550323395269
20
65.66311896062463
30
35
10
59.33688103937537
20
64.11449676604731
30
35
10
58.342604385933925
20
62.16311896062463
30
35
10
58
20
60
30
35
10
58.342604385933925
20
57.83688103937537
30
35
10
59.33688103937537
20
55.88550323395269
30
35
10
60.88550323395269
20
54.33688103937537
30
35
10
62.83688103937537
20
53.342604385933925
30
35
10
65
20
53
30
35
10
67.16311896062463
20
53.342604385933925
30
35
10
69.11449676604731
20
54.33688103937537
30
35
10
70.66311896062463
20
55.88550323395269
30
35
10
71.65739561406608
20
57.83688103937537
30
35
10
117
20
60
30
10
10
116.65739561406608
20
62.16311896062463
30
10
10
115.66311896062463
20
64.11449676604731
30
10
10
114.11449676604731
20
65.66311896062463
30
10
10
112.16311896062463
20
66.65739561406608
30
10
10
110
20
67
30
10
10
107.83688103937537
20
66.65739561406608
30
10
10
105.88550323395269
20
65.66311896062463
30
10
10
104.33688103937537
20
64.11449676604731
30
10
10
103.34260438593392
20
62.16311896062463
30
10
10
103
20
60
30
10
10
103.34260438593392
20
57.83688103937537
30
10
10
104.33688103937537
20
55.88550323395269
30
10
10
105.88550323395269
20
54.33688103937537
30
10
10
107.83688103937537
20
53.342604385933925
30
10
10
110
20
53
30
10
10
112.16311896062463
20
53.342604385933925
30
10
10
114.11449676604731
20
54.33688103937537
30
10
10
115.66311896062463
20
55.88550323395269
30
10
10
116.65739561406608
20
57.83688103937537
30
10
10
117
20
60
30
35
10
116.65739561406608
20
62.16311896062463
30
35
10
115.66311896062463
20
64.11449676604731
30
35
10
114.11449676604731
20
65.66311896062463
30
35
10
112.16311896062463
20
66.65739561406608
30
35
10
110
20
67
30
35
10
107.83688103937537
20
66.65739561406608
30
35
10
105.88550323395269
20
65.66311896062463
30
35
10
104.33688103937537
20
64.11449676604731
30
35
10
103.34260438593392
20
62.16311896062463
30
35
10
103
20
60
30
35
10
103.34260438593392
20
57.83688103937537
30
35
10
104.33688103937537
20
55.88550323395269
30
35
10
105.88550323395269
20
54.33688103937537
30
35
10
107.83688103937537
20
53.342604385933925
30
35
10
110
20
53
30
35
10
112.16311896062463
20
53.342604385933925
30
35
10
114.11449676604731
20
54.33688103937537
30
35
10
115.66311896062463
20
55.88550323395269
30
35
10
116.65739561406608
20
57.83688103937537
30
35
10
162
20
60
30
10
10
161.65739561406608
20
62.16311896062463
30
10
10
160.66311896062464
20
64.11449676604731
30
10
10
159.1144967660473
20
65.66311896062463
30
10
10
157.16311896062464
20
66.65739561406608
30
10
10
155
20
67
30
10
10
152.83688103937538
20
66.65739561406608
30
10
10
150.8855032339527
20
65.66311896062463
30
10
10
149.33688103937536
20
64.11449676604731
30
10
10
148.34260438593392
20
62.16311896062463
30
10
10
148
20
60
30
10
10
148.34260438593392
20
57.83688103937537
30
10
10
149.33688103937536
20
55.88550323395269
30
10
10
150.88550323395268
20
54.33688103937537
30
10
10
152.83688103937536
20
53.342604385933925
30
10
10
155
20
53
30
10
10
157.16311896062462
20
53.342604385933925
30
10
10
159.1144967660473
20
54.33688103937537
30
10
10
160.66311896062462
20
55.88550323395269
30
10
10
161.65739561406608
20
57.83688103937537
30
10
10
162
20
60
30
35
10
161.65739561406608
20
62.16311896062463
30
35
10
160.66311896062464
20
64.11449676604731
30
35
10
159.1144967660473
20
65.66311896062463
30
35
10
157.16311896062464
20
66.65739561406608
30
35
10
155
20
67
30
35
10
152.83688103937538
20
66.65739561406608
30
35
10
150.8855032339527
20
65.66311896062463
30
35
10
149.33688103937536
20
64.11449676604731
30
35
10
148.34260438593392
20
62.16311896062463
30
35
10
148
20
60
30
35
10
148.34260438593392
20
57.83688103937537
30
35
10
149.33688103937536
20
55.88550323395269
30
35
10
150.88550323395268
20
54.33688103937537
30
35
10
152.83688103937536
20
53.342604385933925
30
35
10
155
20
53
30
35
10
157.16311896062462
20
53.342604385933925
30
35
10
159.1144967660473
20
54.33688103937537
30
35
10
160.66311896062462
20
55.88550323395269
30
35
10
161.65739561406608
20
57.83688103937537
30
35
10
27
20
100
30
10
10
26.657395614066075
20
102.16311896062463
30
10
10
25.663118960624633
20
104.11449676604731
30
10
10
24.11449676604731
20
105.66311896062463
30
10
10
22.163118960624633
20
106.65739561406608
30
10
10
20
20
107
30
10
10
17.83688103937537
20
106.65739561406608
30
10
10
15.88550323395269
20
105.66311896062463
30
10
10
14.336881039375369
20
104.11449676604731
30
10
10
13.342604385933925
20
102.16311896062463
30
10
10
13
20
100
30
10
10
13.342604385933925
20
97.83688103937537
30
10
10
14.336881039375367
20
95.88550323395269
30
10
10
15.885503233952686
20
94.33688103937537
30
10
10
17.836881039375367
20
93.34260438593392
30
10
10
20
20
93
30
10
10
22.16311896062463
20
93.34260438593392
30
10
10
24.11449676604731
20
94.33688103937537
30
10
10
25.66311896062463
20
95.88550323395269
30
10
10
26.657395614066075
20
97.83688103937537
30
10
10
27
20
100
30
35
10
26.657395614066075
20
102.16311896062463
30
35
10
25.663118960624633
20
104.11449676604731
30
35
10
24.11449676604731
20
105.66311896062463
30
35
10
22.163118960624633
20
106.65739561406608
30
35
10
20
20
107
30
35
10
17.83688103937537
20
106.65739561406608
30
35
10
15.88550323395269
20
105.66311896062463
30
35
10
14.336881039375369
20
104.11449676604731
30
35
10
13.342604385933925
20
102.16311896062463
30
35
10
13
20
100
30
35
10
13.342604385933925
20
97.83688103937537
30
35
10
14.336881039375367
20
95.88550323395269
30
35
10
15.885503233952686
20
94.33688103937537
30
35
10
17.836881039375367
20
93.34260438593392
30
35
10
20
20
93
30
35
10
22.16311896062463
20
93.34260438593392
30
35
10
24.11449676604731
20
94.33688103937537
30
35
10
25.66311896062463
20
95.88550323395269
30
35
10
26.657395614066075
20
97.83688103937537
30
35
10
72
20
100
30
10
10
71.65739561406608
20
102.16311896062463
30
10
10
70.66311896062463
20
104.11449676604731
30
10
10
69.11449676604731
20
105.66311896062463
30
10
10
67.16311896062463
20
106.65739561406608
30
10
10
65
20
107
30
10
10
62.83688103937537
20
106.65739561406608
30
10
10
60.88550323395269
20
105.66311896062463
30
10
10
59.33688103937537
20
104.11449676604731
30
10
10
58.342604385933925
20
102.16311896062463
30
10
10
58
20
100
30
10
10
58.342604385933925
20
97.83688103937537
30
10
10
59.33688103937537
20
95.88550323395269
30
10
10
60.88550323395269
20
94.33688103937537
30
10
10
62.83688103937537
20
93.34260438593392
30
10
10
65
20
93
30
10
10
67.16311896062463
20
93.34260438593392
30
10
10
69.11449676604731
20
94.33688103937537
30
10
10
70.66311896062463
20
95.88550323395269
30
10
10
71.65739561406608
20
97.83688103937537
30
10
10
72
20
100
30
35
10
71.65739561406608
20
102.16311896062463
30
35
10
70.66311896062463
20
104.11449676604731
30
35
10
69.11449676604731
20
105.66311896062463
30
35
10
67.16311896062463
20
106.65739561406608
30
35
10
65
20
107
30
35
10
62.83688103937537
20
106.65739561406608
30
35
10
60.88550323395269
20
105.66311896062463
30
35
10
59.33688103937537
20
104.11449676604731
30
35
10
58.342604385933925
20
102.16311896062463
30
35
10
58
20
100
30
35
10
58.342604385933925
20
97.83688103937537
30
35
10
59.33688103937537
20
95.88550323395269
30
35
10
60.88550323395269
20
94.33688103937537
30
35
10
62.83688103937537
20
93.34260438593392
30
35
10
65
20
93
30
35
10
67.16311896062463
20
93.34260438593392
30
35
10
69.11449676604731
20
94.33688103937537
30
35
10
70.66311896062463
20
95.88550323395269
30
35
10
71.65739561406608
20
97.83688103937537
30
35
10
117
20
100
30
10
10
116.65739561406608
20
102.16311896062463
30
10
10
115.66311896062463
20
104.11449676604731
30
10
10
114.11449676604731
20
105.66311896062463
30
10
10
112.16311896062463
20
106.65739561406608
30
10
10
110
20
107
30
10
10
107.83688103937537
20
106.65739561406608
30
10
10
105.88550323395269
20
105.66311896062463
30
10
10
104.33688103937537
20
104.11449676604731
30
10
10
103.34260438593392
20
102.16311896062463
30
10
10
103
20
100
30
10
10
103.34260438593392
20
97.83688103937537
30
10
10
104.33688103937537
20
95.88550323395269
30
10
10
105.88550323395269
20
94.33688103937537
30
10
10
107.83688103937537
20
93.34260438593392
30
10
10
110
20
93
30
10
10
112.16311896062463
20
93.34260438593392
30
10
10
114.11449676604731
20
94.33688103937537
30
10
10
115.66311896062463
20
95.88550323395269
30
10
10
116.65739561406608
20
97.83688103937537
30
10
10
117
20
100
30
35
10
116.65739561406608
20
102.16311896062463
30
35
10
115.66311896062463
20
104.11449676604731
30
35
10
114.11449676604731
20
105.66311896062463
30
35
10
112.16311896062463
20
106.65739561406608
30
35
10
110
20
107
30
35
10
107.83688103937537
20
106.65739561406608
30
35
10
105.88550323395269
20
105.66311896062463
30
35
10
104.33688103937537
20
104.11449676604731
30
35
10
103.34260438593392
20
102.16311896062463
30
35
10
103
20
100
30
35
10
103.34260438593392
20
97.83688103937537
30
35
10
104.33688103937537
20
95.88550323395269
30
35
10
105.88550323395269
20
94.33688103937537
30
35
10
107.83688103937537
20
93.34260438593392
30
35
10
110
20
93
30
35
10
112.16311896062463
20
93.34260438593392
30
35
10
114.11449676604731
20
94.33688103937537
30
35
10
115.66311896062463
20
95.88550323395269
30
35
10
116.65739561406608
20
97.83688103937537
30
35
10
162
20
100
30
10
10
161.65739561406608
20
102.16311896062463
30
10
10
160.66311896062464
20
104.11449676604731
30
10
10
159.1144967660473
20
105.66311896062463
30
10
10
157.16311896062464
20
106.65739561406608
30
10
10
155
20
107
30
10
10
152.83688103937538
20
106.65739561406608
30
10
10
150.8855032339527
20
105.66311896062463
30
10
10
149.33688103937536
20
104.11449676604731
30
10
10
148.34260438593392
20
102.16311896062463
30
10
10
148
20
100
30
10
10
148.34260438593392
20
97.83688103937537
30
10
10
149.33688103937536
20
95.88550323395269
30
10
10
150.88550323395268
20
94.33688103937537
30
10
10
152.83688103937536
20
93.34260438593392
30
10
10
155
20
93
30
10
10
157.16311896062462
20
93.34260438593392
30
10
10
159.1144967660473
20
94.33688103937537
30
10
10
160.66311896062462
20
95.88550323395269
30
10
10
161.65739561406608
20
97.83688103937537
30
10
10
162
20
100
30
35
10
161.65739561406608
20
102.16311896062463
30
35
10
160.66311896062464
20
104.11449676604731
30
35
10
159.1144967660473
20
105.66311896062463
30
35
10
157.16311896062464
20
106.65739561406608
30
35
10
155
20
107
30
35
10
152.83688103937538
20
106.65739561406608
30
35
10
150.8855032339527
20
105.66311896062463
30
35
10
149.33688103937536
20
104.11449676604731
30
35
10
148.34260438593392
20
102.16311896062463
30
35
10
148
20
100
30
35
10
148.34260438593392
20
97.83688103937537
30
35
10
149.33688103937536
20
95.88550323395269
30
35
10
150.88550323395268
20
94.33688103937537
30
35
10
152.83688103937536
20
93.34260438593392
30
35
10
155
20
93
30
35
10
157.16311896062462
20
93.34260438593392
30
35
10
159.1144967660473
20
94.33688103937537
30
35
10
160.66311896062462
20
95.88550323395269
30
35
10
161.65739561406608
20
97.83688103937537
30
35
93
1704
90
20
90
19
90
18
90
17
90
16
90
15
90
14
90
13
90
12
90
11
90
10
90
9
90
8
90
7
90
6
90
5
90
4
90
3
90
2
90
1
90
0
90
20
90
20
90
21
90
22
90
23
90
24
90
25
90
26
90
27
90
28
90
29
90
30
90
31
90
32
90
33
90
34
90
35
90
36
90
37
90
38
90
39
90
4
90
0
90
1
90
21
90
20
90
4
90
1
90
2
90
22
90
21
90
4
90
2
90
3
90
23
90
22
90
4
90
3
90
4
90
24
90
23
90
4
90
4
90
5
90
25
90
24
90
4
90
5
90
6
90
26
90
25
90
4
90
6
90
7
90
27
90
26
90
4
90
7
90
8
90
28
90
27
90
4
90
8
90
9
90
29
90
28
90
4
90
9
90
10
90
30
90
29
90
4
90
10
90
11
90
31
90
30
90
4
90
11
90
12
90
32
90
31
90
4
90
12
90
13
90
33
90
32
90
4
90
13
90
14
90
34
90
33
90
4
90
14
90
15
90
35
90
34
90
4
90
15
90
16
90
36
90
35
90
4
90
16
90
17
90
37
90
36
90
4
90
17
90
18
90
38
90
37
90
4
90
18
90
19
90
39
90
38
90
4
90
19
90
0
90
20
90
39
90
20
90
59
90
58
90
57
90
56
90
55
90
54
90
53
90
52
90
51
90
50
90
49
90
48
90
47
90
46
90
45
90
44
90
43
90
42
90
41
90
40
90
20
90
60
90
61
90
62
90
63
90
64
90
65
90
66
90
67
90
68
90
69
90
70
90
71
90
72
90
73
90
74
90
75
90
76
90
77
90
78
90
79
90
4
90
40
90
41
90
61
90
60
90
4
90
41
90
42
90
62
90
61
90
4
90
42
90
43
90
63
90
62
90
4
90
43
90
44
90
64
90
63
90
4
90
44
90
45
90
65
90
64
90
4
90
45
90
46
90
66
90
65
90
4
90
46
90
47
90
67
90
66
90
4
90
47
90
48
90
68
90
67
90
4
90
48
90
49
90
69
90
68
90
4
90
49
90
50
90
70
90
69
90
4
90
50
90
51
90
71
90
70
90
4
90
51
90
52
90
72
90
71
90
4
90
52
90
53
90
73
90
72
90
4
90
53
90
54
90
74
90
73
90
4
90
54
90
55
90
75
90
74
90
4
90
55
90
56
90
76
90
75
90
4
90
56
90
57
90
77
90
76
90
4
90
57
90
58
90
78
90
77
90
4
90
58
90
59
90
79
90
78
90
4
90
59
90
40
90
60
90
79
90
20
90
99
90
98
90
97
90
96
90
95
90
94
90
93
90
92
90
91
90
90
90
89
90
88
90
87
90
86
90
85
90
84
90
83
90
82
90
81
90
80
90
20
90
100
90
101
90
102
90
103
90
104
90
105
90
106
90
107
90
108
90
109
90
110
90
111
90
112
90
113
90
114
90
115
90
116
90
117
90
118
90
119
90
4
90
80
90
81
90
101
90
100
90
4
90
81
90
82
90
102
90
101
90
4
90
82
90
83
90
103
90
102
90
4
90
83
90
84
90
104
90
103
90
4
90
84
90
85
90
105
90
104
90
4
90
85
90
86
90
106
90
105
90
4
90
86
90
87
90
107
90
106
90
4
90
87
90
88
90
108
90
107
90
4
90
88
90
89
90
109
90
108
90
4
90
89
90
90
90
110
90
109
90
4
90
90
90
91
90
111
90
110
90
4
90
91
90
92
90
112
90
111
90
4
90
92
90
93
90
113
90
112
90
4
90
93
90
94
90
114
90
113
90
4
90
94
90
95
90
115
90
114
90
4
90
95
90
96
90
116
90
115
90
4
90
96
90
97
90
117
90
116
90
4
90
97
90
98
90
118
90
117
90
4
90
98
90
99
90
119
90
118
90
4
90
99
90
80
90
100
90
119
90
20
90
139
90
138
90
137
90
136
90
135
90
134
90
133
90
132
90
131
90
130
90
129
90
128
90
127
90
126
90
125
90
124
90
123
90
122
90
121
90
120
90
20
90
140
90
141
90
142
90
143
90
144
90
145
90
146
90
147
90
148
90
149
90
150
90
151
90
152
90
153
90
154
90
155
90
156
90
157
90
158
90
159
90
4
90
120
90
121
90
141
90
140
90
4
90
121
90
122
90
142
90
141
90
4
90
122
90
123
90
143
90
142
90
4
90
123
90
124
90
144
90
143
90
4
90
124
90
125
90
145
90
144
90
4
90
125
90
126
90
146
90
145
90
4
90
126
90
127
90
147
90
146
90
4
90
127
90
128
90
148
90
147
90
4
90
128
90
129
90
149
90
148
90
4
90
129
90
130
90
150
90
149
90
4
90
130
90
131
90
151
90
150
90
4
90
131
90
132
90
152
90
151
90
4
90
132
90
133
90
153
90
152
90
4
90
133
90
134
90
154
90
153
90
4
90
134
90
135
90
155
90
154
90
4
90
135
90
136
90
156
90
155
90
4
90
136
90
137
90
157
90
156
90
4
90
137
90
138
90
158
90
157
90
4
90
138
90
139
90
159
90
158
90
4
90
139
90
120
90
140
90
159
90
20
90
179
90
178
90
177
90
176
90
175
90
174
90
173
90
172
90
171
90
170
90
169
90
168
90
167
90
166
90
165
90
164
90
163
90
162
90
161
90
160
90
20
90
180
90
181
90
182
90
183
90
184
90
185
90
186
90
187
90
188
90
189
90
190
90
191
90
192
90
193
90
194
90
195
90
196
90
197
90
198
90
199
90
4
90
160
90
161
90
181
90
180
90
4
90
161
90
162
90
182
90
181
90
4
90
162
90
163
90
183
90
182
90
4
90
163
90
164
90
184
90
183
90
4
90
164
90
165
90
185
90
184
90
4
90
165
90
166
90
186
90
185
90
4
90
166
90
167
90
187
90
186
90
4
90
167
90
168
90
188
90
187
90
4
90
168
90
169
90
189
90
188
90
4
90
169
90
170
90
190
90
189
90
4
90
170
90
171
90
191
90
190
90
4
90
171
90
172
90
192
90
191
90
4
90
172
90
173
90
193
90
192
90
4
90
173
90
174
90
194
90
193
90
4
90
174
90
175
90
195
90
194
90
4
90
175
90
176
90
196
90
195
90
4
90
176
90
177
90
197
90
196
90
4
90
177
90
178
90
198
90
197
90
4
90
178
90
179
90
199
90
198
90
4
90
179
90
160
90
180
90
199
90
20
90
219
90
218
90
217
90
216
90
215
90
214
90
213
90
212
90
211
90
210
90
209
90
208
90
207
90
206
90
205
90
204
90
203
90
202
90
201
90
200
90
20
90
220
90
221
90
222
90
223
90
224
90
225
90
226
90
227
90
228
90
229
90
230
90
231
90
232
90
233
90
234
90
235
90
236
90
237
90
238
90
239
90
4
90
200
90
201
90
221
90
220
90
4
90
201
90
202
90
222
90
221
90
4
90
202
90
203
90
223
90
222
90
4
90
203
90
204
90
224
90
223
90
4
90
204
90
205
90
225
90
224
90
4
90
205
90
206
90
226
90
225
90
4
90
206
90
207
90
227
90
226
90
4
90
207
90
208
90
228
90
227
90
4
90
208
90
209
90
229
90
228
90
4
90
209
90
210
90
230
90
229
90
4
90
210
90
211
90
231
90
230
90
4
90
211
90
212
90
232
90
231
90
4
90
212
90
213
90
233
90
232
90
4
90
213
90
214
90
234
90
233
90
4
90
214
90
215
90
235
90
234
90
4
90
215
90
216
90
236
90
235
90
4
90
216
90
217
90
237
90
236
90
4
90
217
90
218
90
238
90
237
90
4
90
218
90
219
90
239
90
238
90
4
90
219
90
200
90
220
90
239
90
20
90
259
90
258
90
257
90
256
90
255
90
254
90
253
90
252
90
251
90
250
90
249
90
248
90
247
90
246
90
245
90
244
90
243
90
242
90
241
90
240
90
20
90
260
90
261
90
262
90
263
90
264
90
265
90
266
90
267
90
268
90
269
90
270
90
271
90
272
90
273
90
274
90
275
90
276
90
277
90
278
90
279
90
4
90
240
90
241
90
261
90
260
90
4
90
241
90
242
90
262
90
261
90
4
90
242
90
243
90
263
90
262
90
4
90
243
90
244
90
264
90
263
90
4
90
244
90
245
90
265
90
264
90
4
90
245
90
246
90
266
90
265
90
4
90
246
90
247
90
267
90
266
90
4
90
247
90
248
90
268
90
267
90
4
90
248
90
249
90
269
90
268
90
4
90
249
90
250
90
270
90
269
90
4
90
250
90
251
90
271
90
270
90
4
90
251
90
252
90
272
90
271
90
4
90
252
90
253
90
273
90
272
90
4
90
253
90
254
90
274
90
273
90
4
90
254
90
255
90
275
90
274
90
4
90
255
90
256
90
276
90
275
90
4
90
256
90
257
90
277
90
276
90
4
90
257
90
258
90
278
90
277
90
4
90
258
90
259
90
279
90
278
90
4
90
259
90
240
90
260
90
279
90
20
90
299
90
298
90
297
90
296
90
295
90
294
90
293
90
292
90
291
90
290
90
289
90
288
90
287
90
286
90
285
90
284
90
283
90
282
90
281
90
280
90
20
90
300
90
301
90
302
90
303
90
304
90
305
90
306
90
307
90
308
90
309
90
310
90
311
90
312
90
313
90
314
90
315
90
316
90
317
90
318
90
319
90
4
90
280
90
281
90
301
90
300
90
4
90
281
90
282
90
302
90
301
90
4
90
282
90
283
90
303
90
302
90
4
90
283
90
284
90
304
90
303
90
4
90
284
90
285
90
305
90
304
90
4
90
285
90
286
90
306
90
305
90
4
90
286
90
287
90
307
90
306
90
4
90
287
90
288
90
308
90
307
90
4
90
288
90
289
90
309
90
308
90
4
90
289
90
290
90
310
90
309
90
4
90
290
90
291
90
311
90
310
90
4
90
291
90
292
90
312
90
311
90
4
90
292
90
293
90
313
90
312
90
4
90
293
90
294
90
314
90
313
90
4
90
294
90
295
90
315
90
314
90
4
90
295
90
296
90
316
90
315
90
4
90
296
90
297
90
317
90
316
90
4
90
297
90
298
90
318
90
317
90
4
90
298
90
299
90
319
90
318
90
4
90
299
90
280
90
300
90
319
90
20
90
339
90
338
90
337
90
336
90
335
90
334
90
333
90
332
90
331
90
330
90
329
90
328
90
327
90
326
90
325
90
324
90
323
90
322
90
321
90
320
90
20
90
340
90
341
90
342
90
343
90
344
90
345
90
346
90
347
90
348
90
349
90
350
90
351
90
352
90
353
90
354
90
355
90
356
90
357
90
358
90
359
90
4
90
320
90
321
90
341
90
340
90
4
90
321
90
322
90
342
90
341
90
4
90
322
90
323
90
343
90
342
90
4
90
323
90
324
90
344
90
343
90
4
90
324
90
325
90
345
90
344
90
4
90
325
90
326
90
346
90
345
90
4
90
326
90
327
90
347
90
346
90
4
90
327
90
328
90
348
90
347
90
4
90
328
90
329
90
349
90
348
90
4
90
329
90
330
90
350
90
349
90
4
90
330
90
331
90
351
90
350
90
4
90
331
90
332
90
352
90
351
90
4
90
332
90
333
90
353
90
352
90
4
90
333
90
334
90
354
90
353
90
4
90
334
90
335
90
355
90
354
90
4
90
335
90
336
90
356
90
355
90
4
90
336
90
337
90
357
90
356
90
4
90
337
90
338
90
358
90
357
90
4
90
338
90
339
90
359
90
358
90
4
90
339
90
320
90
340
90
359
90
20
90
379
90
378
90
377
90
376
90
375
90
374
90
373
90
372
90
371
90
370
90
369
90
368
90
367
90
366
90
365
90
364
90
363
90
362
90
361
90
360
90
20
90
380
90
381
90
382
90
383
90
384
90
385
90
386
90
387
90
388
90
389
90
390
90
391
90
392
90
393
90
394
90
395
90
396
90
397
90
398
90
399
90
4
90
360
90
361
90
381
90
380
90
4
90
361
90
362
90
382
90
381
90
4
90
362
90
363
90
383
90
382
90
4
90
363
90
364
90
384
90
383
90
4
90
364
90
365
90
385
90
384
90
4
90
365
90
366
90
386
90
385
90
4
90
366
90
367
90
387
90
386
90
4
90
367
90
368
90
388
90
387
90
4
90
368
90
369
90
389
90
388
90
4
90
369
90
370
90
390
90
389
90
4
90
370
90
371
90
391
90
390
90
4
90
371
90
372
90
392
90
391
90
4
90
372
90
373
90
393
90
392
90
4
90
373
90
374
90
394
90
393
90
4
90
374
90
375
90
395
90
394
90
4
90
375
90
376
90
396
90
395
90
4
90
376
90
377
90
397
90
396
90
4
90
377
90
378
90
398
90
397
90
4
90
378
90
379
90
399
90
398
90
4
90
379
90
360
90
380
90
399
90
20
90
419
90
418
90
417
90
416
90
415
90
414
90
413
90
412
90
411
90
410
90
409
90
408
90
407
90
406
90
405
90
404
90
403
90
402
90
401
90
400
90
20
90
420
90
421
90
422
90
423
90
424
90
425
90
426
90
427
90
428
90
429
90
430
90
431
90
432
90
433
90
434
90
435
90
436
90
437
90
438
90
439
90
4
90
400
90
401
90
421
90
420
90
4
90
401
90
402
90
422
90
421
90
4
90
402
90
403
90
423
90
422
90
4
90
403
90
404
90
424
90
423
90
4
90
404
90
405
90
425
90
424
90
4
90
405
90
406
90
426
90
425
90
4
90
406
90
407
90
427
90
426
90
4
90
407
90
408
90
428
90
427
90
4
90
408
90
409
90
429
90
428
90
4
90
409
90
410
90
430
90
429
90
4
90
410
90
411
90
431
90
430
90
4
90
411
90
412
90
432
90
431
90
4
90
412
90
413
90
433
90
432
90
4
90
413
90
414
90
434
90
433
90
4
90
414
90
415
90
435
90
434
90
4
90
415
90
416
90
436
90
435
90
4
90
416
90
417
90
437
90
436
90
4
90
417
90
418
90
438
90
437
90
4
90
418
90
419
90
439
90
438
90
4
90
419
90
400
90
420
90
439
90
20
90
459
90
458
90
457
90
456
90
455
90
454
90
453
90
452
90
451
90
450
90
449
90
448
90
447
90
446
90
445
90
444
90
443
90
442
90
441
90
440
90
20
90
460
90
461
90
462
90
463
90
464
90
465
90
466
90
467
90
468
90
469
90
470
90
471
90
472
90
473
90
474
90
475
90
476
90
477
90
478
90
479
90
4
90
440
90
441
90
461
90
460
90
4
90
441
90
442
90
462
90
461
90
4
90
442
90
443
90
463
90
462
90
4
90
443
90
444
90
464
90
463
90
4
90
444
90
445
90
465
90
464
90
4
90
445
90
446
90
466
90
465
90
4
90
446
90
447
90
467
90
466
90
4
90
447
90
448
90
468
90
467
90
4
90
448
90
449
90
469
90
468
90
4
90
449
90
450
90
470
90
469
90
4
90
450
90
451
90
471
90
470
90
4
90
451
90
452
90
472
90
471
90
4
90
452
90
453
90
473
90
472
90
4
90
453
90
454
90
474
90
473
90
4
90
454
90
455
90
475
90
474
90
4
90
455
90
456
90
476
90
475
90
4
90
456
90
457
90
477
90
476
90
4
90
457
90
458
90
478
90
477
90
4
90
458
90
459
90
479
90
478
90
4
90
459
90
440
90
460
90
479
94
0
95
0
90
0
1001
CONDUITCAD
1000
{"id":"3d-fixture-004","label":"Row pattern","feature3d":{"version":1,"kind":"linear-pattern","parameters":{"count":"Rows","dx":0,"dy":"PitchY"},"inputs":["3d-fixture-003"],"suppressed":false},"model3
1000
dConsumed":false,"model3dUserHidden":false}
0
ENDSEC
0
SECTION
2
OBJECTS
0
DICTIONARY
5
121
330
0
100
AcDbDictionary
281
1
3
ACAD_LAYOUT
350
122
3
ACAD_GROUP
350
123
3
CONDUITCAD_METADATA
350
126
0
DICTIONARY
5
122
330
121
100
AcDbDictionary
281
1
3
Model
350
124
3
Layout1
350
125
0
DICTIONARY
5
123
330
121
100
AcDbDictionary
281
1
0
LAYOUT
5
124
330
122
100
AcDbPlotSettings
1

2

4

6

40
0
41
0
42
0
43
0
44
420
45
297
46
0
47
0
48
0
49
0
140
0
141
0
142
1
143
1
70
0
72
1
73
0
74
5
7

75
16
76
0
77
0
78
300
147
1
148
0
149
0
100
AcDbLayout
1
Model
70
1
71
0
10
0
20
0
11
420
21
297
12
0
22
0
32
0
14
0
24
0
34
0
15
420
25
297
35
0
146
0
13
0
23
0
33
0
16
1
26
0
36
0
17
0
27
1
37
0
76
0
330
115
0
LAYOUT
5
125
330
122
100
AcDbPlotSettings
1

2

4

6

40
0
41
0
42
0
43
0
44
420
45
297
46
0
47
0
48
0
49
0
140
0
141
0
142
1
143
1
70
0
72
1
73
0
74
5
7

75
16
76
0
77
0
78
300
147
1
148
0
149
0
100
AcDbLayout
1
Layout1
70
1
71
1
10
0
20
0
11
420
21
297
12
0
22
0
32
0
14
0
24
0
34
0
15
420
25
297
35
0
146
0
13
0
23
0
33
0
16
1
26
0
36
0
17
0
27
1
37
0
76
0
330
116
0
XRECORD
5
126
330
121
100
AcDbXrecord
280
1
1
{"parameters":{"grid":"10","PitchX":"45","PitchY":"40","Rows":"3","Columns":"4","PinHeight":"25"},"constraints":[],"metadata":{"description":"Two nested linear patterns build a fixture array over a pa
1
rameter-driven base plate.","modeling":{"version":1,"preferredMode":"3d","example":"fixture","notes":"Editable faceted concept model. Not certified or construction-approved."}}}
0
ENDSEC
0
EOF
