0
SECTION
2
HEADER
9
$ACADVER
1
AC1032
9
$INSUNITS
70
4
9
$LTSCALE
40
1
9
$MEASUREMENT
70
1
999
CONDUIT:{"parameters":{"grid":"10","HoleDiameter":"10","PlateThickness":"20"},"constraints":[],"metadata":{"description":"Three editable plates compare simple, counterbore and countersink 
999
CONDUIT:holes. Change HoleDiameter or PlateThickness.","modeling":{"version":1,"preferredMode":"3d","example":"hole-plate","notes":"Editable faceted concept model. Not certified or constru
999
CONDUIT:ction-approved."}}}
9
$HANDSEED
5
129
9
$DWGCODEPAGE
3
ANSI_1252
9
$CLAYER
8
0
9
$TILEMODE
70
1
0
ENDSEC
0
SECTION
2
TABLES
0
TABLE
2
LTYPE
5
106
330
0
100
AcDbSymbolTable
70
4
0
LTYPE
5
107
100
AcDbSymbolTableRecord
100
AcDbLinetypeTableRecord
2
CONTINUOUS
70
0
3
Solid line
72
65
73
0
40
0
330
106
0
LTYPE
5
108
100
AcDbSymbolTableRecord
100
AcDbLinetypeTableRecord
2
DASHED
70
0
3
DASHED
72
65
73
2
40
12
49
8
74
0
49
-4
74
0
330
106
0
LTYPE
5
109
100
AcDbSymbolTableRecord
100
AcDbLinetypeTableRecord
2
CENTER
70
0
3
CENTER
72
65
73
4
40
20
49
12
74
0
49
-3
74
0
49
2
74
0
49
-3
74
0
330
106
0
LTYPE
5
10A
100
AcDbSymbolTableRecord
100
AcDbLinetypeTableRecord
2
HIDDEN
70
0
3
HIDDEN
72
65
73
2
40
7
49
4
74
0
49
-3
74
0
330
106
0
ENDTAB
0
TABLE
2
LAYER
5
10B
330
0
100
AcDbSymbolTable
70
6
0
LAYER
5
10C
100
AcDbSymbolTableRecord
100
AcDbLayerTableRecord
2
0
70
0
62
7
420
3426133
6
CONTINUOUS
330
10B
0
LAYER
5
10D
100
AcDbSymbolTableRecord
100
AcDbLayerTableRecord
2
Equipment
70
0
62
7
420
3495011
6
CONTINUOUS
330
10B
0
LAYER
5
10E
100
AcDbSymbolTableRecord
100
AcDbLayerTableRecord
2
Process
70
0
62
7
420
1342583
6
CONTINUOUS
330
10B
0
LAYER
5
10F
100
AcDbSymbolTableRecord
100
AcDbLayerTableRecord
2
Instruments
70
0
62
7
420
10187334
6
CONTINUOUS
330
10B
0
LAYER
5
110
100
AcDbSymbolTableRecord
100
AcDbLayerTableRecord
2
Electrical
70
0
62
7
420
6584250
6
CONTINUOUS
330
10B
0
LAYER
5
111
100
AcDbSymbolTableRecord
100
AcDbLayerTableRecord
2
Annotations
70
0
62
7
420
7438474
6
CONTINUOUS
330
10B
0
ENDTAB
0
TABLE
2
STYLE
5
112
330
0
100
AcDbSymbolTable
70
1
0
STYLE
5
113
100
AcDbSymbolTableRecord
100
AcDbTextStyleTableRecord
2
STANDARD
70
0
40
0
41
1
50
0
71
0
42
2.5
3
txt
4

330
112
0
ENDTAB
0
TABLE
2
APPID
5
114
330
0
100
AcDbSymbolTable
70
2
0
APPID
5
115
100
AcDbSymbolTableRecord
100
AcDbRegAppTableRecord
2
CONDUITCAD
70
0
330
114
0
APPID
5
122
100
AcDbSymbolTableRecord
100
AcDbRegAppTableRecord
2
ACAD
70
0
330
114
0
ENDTAB
0
TABLE
2
BLOCK_RECORD
5
116
330
0
100
AcDbSymbolTable
70
2
0
BLOCK_RECORD
5
117
100
AcDbSymbolTableRecord
100
AcDbBlockTableRecord
2
*Model_Space
340
126
330
116
0
BLOCK_RECORD
5
118
100
AcDbSymbolTableRecord
100
AcDbBlockTableRecord
2
*Paper_Space
340
127
330
116
0
ENDTAB
0
TABLE
2
VPORT
5
11D
330
0
100
AcDbSymbolTable
70
0
0
ENDTAB
0
TABLE
2
VIEW
5
11E
330
0
100
AcDbSymbolTable
70
0
0
ENDTAB
0
TABLE
2
UCS
5
11F
330
0
100
AcDbSymbolTable
70
0
0
ENDTAB
0
TABLE
2
DIMSTYLE
5
120
330
0
100
AcDbSymbolTable
70
1
100
AcDbDimStyleTable
71
0
0
DIMSTYLE
105
121
330
120
100
AcDbSymbolTableRecord
100
AcDbDimStyleTableRecord
2
STANDARD
70
0
340
113
0
ENDTAB
0
ENDSEC
0
SECTION
2
BLOCKS
0
BLOCK
5
119
330
117
100
AcDbEntity
8
0
100
AcDbBlockBegin
2
*Model_Space
70
1
10
0
20
0
30
0
3
*Model_Space
1

1001
CONDUITCAD
1000
{"ports":[]}
0
ENDBLK
5
11A
330
117
100
AcDbEntity
8
0
100
AcDbBlockEnd
0
BLOCK
5
11B
330
118
100
AcDbEntity
8
0
100
AcDbBlockBegin
2
*Paper_Space
70
1
10
0
20
0
30
0
3
*Paper_Space
1

1001
CONDUITCAD
1000
{"ports":[]}
0
ENDBLK
5
11C
330
118
100
AcDbEntity
8
0
100
AcDbBlockEnd
0
ENDSEC
0
SECTION
2
ENTITIES
0
MESH
5
100
330
117
100
AcDbEntity
8
Equipment
62
7
420
5543588
60
1
100
AcDbSubDMesh
71
2
72
0
91
0
92
8
10
0
20
0
30
0
10
65
20
0
30
0
10
65
20
45
30
0
10
0
20
45
30
0
10
0
20
0
30
20
10
65
20
0
30
20
10
65
20
45
30
20
10
0
20
45
30
20
93
30
90
4
90
0
90
3
90
2
90
1
90
4
90
4
90
5
90
6
90
7
90
4
90
0
90
1
90
5
90
4
90
4
90
1
90
2
90
6
90
5
90
4
90
2
90
3
90
7
90
6
90
4
90
3
90
0
90
4
90
7
94
0
95
0
90
0
1001
CONDUITCAD
1000
{"id":"3d-hole-plate-001","label":"Plate 1","feature3d":{"version":1,"kind":"box","parameters":{"width":65,"depth":45,"height":"PlateThickness","x":0},"inputs":[],"suppressed":false},"model3dConsumed"
1000
:true,"model3dUserHidden":false}
0
MESH
5
101
330
117
100
AcDbEntity
8
Equipment
62
7
420
7443854
100
AcDbSubDMesh
71
2
72
0
91
0
92
185
10
65
20
41.3276017019805
30
1.6321770213420024
10
65
20
41.3276017019805
30
0
10
65
20
45
30
0
10
65
20
45
30
20
10
65
20
41.3276017019805
30
20
10
65
20
3.672398298019562
30
18.367822978657973
10
65
20
0
30
20
10
65
20
0
30
0
10
65
20
3.672398298019555
30
0
10
65
20
3.672398298019562
30
20
10
65
20
31.778706171590397
30
5.8761305904042676
10
65
20
31.778706171590393
30
0
10
65
20
31.778706171590397
30
20
10
65
20
13.221293828409605
30
14.12386940959573
10
65
20
13.221293828409602
30
0
10
65
20
13.221293828409605
30
20
10
65
20
23.22129382840968
30
9.679424965151252
10
65
20
23.22129382840968
30
0
10
65
20
23.22129382840968
30
20
10
65
20
21.778706171590386
30
10.320575034848718
10
65
20
21.778706171590386
30
0
10
65
20
21.778706171590386
30
20
10
24.53781880428357
20
0
30
12.449901906374285
10
0
20
0
30
20
10
0
20
0
30
0
10
24.53781880428357
20
0
30
0
10
24.53781880428357
20
0
30
20
10
30.462181195716422
20
0
30
10.627021170548794
10
30.46218119571642
20
0
30
0
10
30.462181195716422
20
0
30
20
10
36.45414422853968
20
0
30
8.783340237372405
10
36.45414422853968
20
0
30
0
10
36.45414422853968
20
0
30
20
10
43.51641274065704
20
0
30
6.610334541336297
10
43.51641274065703
20
0
30
0
10
43.51641274065704
20
0
30
20
10
53.67943949024243
20
0
30
3.483249387617711
10
53.67943949024243
20
0
30
0
10
53.67943949024243
20
0
30
20
10
30.462181195716425
20
45
30
9.37297882945121
10
30.462181195716433
20
45
30
0
10
0
20
45
30
0
10
0
20
45
30
20
10
30.462181195716425
20
45
30
20
10
36.45414422853966
20
45
30
11.21665976262759
10
36.45414422853966
20
45
30
0
10
36.45414422853966
20
45
30
20
10
43.51641274065708
20
45
30
13.389665458663718
10
43.51641274065708
20
45
30
0
10
43.51641274065708
20
45
30
20
10
53.679439490242366
20
45
30
16.516750612382268
10
53.67943949024237
20
45
30
0
10
53.679439490242366
20
45
30
20
10
27.917653553142728
20
25.672393693978112
30
20
10
27.5
20
22.499999999999996
30
20
10
28.330110173441827
20
25.38684680300181
30
20
10
27.67037086855466
20
23.794095225512606
30
20
10
27.67037086855466
20
21.205904774487397
30
20
10
28.419320235329174
20
25.325085990925956
30
20
10
28.169872981077805
20
25
30
20
10
28.169872981077805
20
20
30
20
10
28.964466094067248
20
26.035533905932724
30
20
10
28.964466094067262
20
18.964466094067262
30
20
10
29.999999999999996
20
26.83012701892219
30
20
10
51.794405552957144
20
9.142334617183513
30
20
10
30
20
18.169872981077805
30
20
10
31.2059047744874
20
27.32962913144534
30
20
10
31.205904774487404
20
17.67037086855466
30
20
10
41.418137292020354
20
16.32590495167822
30
20
10
32.5
20
27.5
30
20
10
32.5
20
17.5
30
20
10
38.56825434204124
20
18.29890084012529
30
20
10
33.7940952255126
20
27.329629131445344
30
20
10
51.48938528181277
20
20
30
20
10
33.794095225512606
20
17.67037086855466
30
20
10
37.349125945079855
20
19.142912807252404
30
20
10
45.45385137588008
20
22.499999999999996
30
20
10
42.329629131445344
20
21.20590477448741
30
20
10
34.99999999999999
20
26.830127018922195
30
20
10
35
20
18.16987298107781
30
20
10
36.780827643559746
20
19.536350092920173
30
20
10
40.643131398684666
20
22.5
30
20
10
39.45059741539384
20
21.5849364905389
30
20
10
36.03553390593274
20
26.035533905932738
30
20
10
36.03553390593274
20
18.964466094067262
30
20
10
36.580679764670826
20
19.674914009074044
30
20
10
38.748444488869595
20
22.500000000000007
30
20
10
38.17513902507416
20
21.752853773193305
30
20
10
36.83012701892219
20
25.000000000000004
30
20
10
36.8301270189222
20
20.000000000000007
30
20
10
37.865660924854936
20
22.5
30
20
10
37.588190451025206
20
21.83012701892218
30
20
10
37.329629131445344
20
23.794095225512603
30
20
10
37.329629131445344
20
21.205904774487394
30
20
10
37.5
20
22.500000000000004
30
20
10
27.91765355314272
20
25.672393693978115
30
0
10
27.5
20
22.50000000000001
30
0
10
27.670370868554656
20
23.79409522551259
30
0
10
28.330110173441827
20
25.386846803001813
30
0
10
27.67037086855466
20
21.205904774487394
30
0
10
28.16987298107781
20
25.000000000000004
30
0
10
28.419320235329174
20
25.32508599092596
30
0
10
28.169872981077805
20
20
30
0
10
28.964466094067255
20
26.03553390593273
30
0
10
28.964466094067266
20
18.96446609406726
30
0
10
29.999999999999993
20
26.83012701892219
30
0
10
30
20
18.169872981077805
30
0
10
51.79440555295716
20
9.14233461718351
30
0
10
31.20590477448739
20
27.329629131445337
30
0
10
31.205904774487394
20
17.67037086855466
30
0
10
41.418137292020354
20
16.32590495167822
30
0
10
32.50000000000001
20
27.5
30
0
10
32.5
20
17.5
30
0
10
38.56825434204124
20
18.29890084012529
30
0
10
51.48938528181277
20
20
30
0
10
33.794095225512606
20
27.329629131445344
30
0
10
33.794095225512606
20
17.67037086855466
30
0
10
37.34912594507986
20
19.142912807252404
30
0
10
45.45385137588008
20
22.499999999999996
30
0
10
34.99999999999999
20
26.830127018922195
30
0
10
42.329629131445344
20
21.20590477448741
30
0
10
35
20
18.16987298107781
30
0
10
36.780827643559746
20
19.536350092920177
30
0
10
40.643131398684666
20
22.5
30
0
10
36.03553390593274
20
26.035533905932738
30
0
10
39.45059741539384
20
21.5849364905389
30
0
10
36.03553390593274
20
18.96446609406726
30
0
10
36.58067976467082
20
19.674914009074048
30
0
10
38.748444488869595
20
22.500000000000007
30
0
10
36.83012701892219
20
25.000000000000004
30
0
10
38.17513902507416
20
21.7528537731933
30
0
10
37.865660924854936
20
22.5
30
0
10
36.83012701892219
20
20
30
0
10
37.329629131445344
20
23.794095225512606
30
0
10
37.588190451025206
20
21.83012701892218
30
0
10
37.5
20
22.5
30
0
10
37.329629131445344
20
21.205904774487394
30
0
10
33.79404246467911
20
27.329636077540847
30
0
10
32.50005276083349
20
27.499993053904497
30
20
10
31.205957535320888
20
17.670363922459156
30
0
10
32.49994723916651
20
17.500006946095503
30
20
10
32.50005276083349
20
17.500006946095503
30
0
10
33.794042464679116
20
17.670363922459156
30
20
10
32.49994723916651
20
27.499993053904497
30
0
10
31.205957535320888
20
27.329636077540844
30
20
10
34.99995083473012
20
26.830147383843773
30
0
10
33.79414439078248
20
27.329608766523762
30
20
10
30.00004916526988
20
18.169852616156223
30
0
10
31.20585560921752
20
17.67039123347624
30
20
10
33.794144390782485
20
17.67039123347624
30
0
10
34.99995083473012
20
18.169852616156227
30
20
10
31.20585560921752
20
27.32960876652376
30
0
10
30.000049165269875
20
26.830147383843773
30
20
10
36.03549168675836
20
26.035566301844646
30
0
10
35.000042219174375
20
26.830094623010282
30
20
10
28.964508313241637
20
18.964433698155354
30
0
10
29.999957780825625
20
18.16990537698971
30
20
10
35.000042219174375
20
18.169905376989718
30
0
10
36.03549168675836
20
18.964433698155354
30
20
10
29.99995778082562
20
26.830094623010282
30
0
10
28.964508313241637
20
26.035566301844643
30
20
10
36.83009462301028
20
25.00004221917438
30
0
10
36.035566301844646
20
26.035491686758363
30
20
10
28.16990537698971
20
19.999957780825625
30
0
10
28.964433698155354
20
18.964508313241637
30
20
10
36.035566301844646
20
18.964508313241637
30
0
10
36.83009462301028
20
19.999957780825625
30
20
10
28.964433698155354
20
26.03549168675836
30
0
10
28.16990537698971
20
25.000042219174375
30
20
10
37.32960876652376
20
23.794144390782485
30
0
10
36.83014738384377
20
24.999950834730125
30
20
10
27.67039123347624
20
21.205855609217515
30
0
10
28.169852616156223
20
20.00004916526988
30
20
10
36.83014738384377
20
20.00004916526988
30
0
10
37.32960876652376
20
21.20585560921752
30
20
10
28.169852616156223
20
24.99995083473012
30
0
10
27.67039123347624
20
23.79414439078248
30
20
10
37.4999930539045
20
22.50005276083349
30
0
10
37.32963607754085
20
23.794042464679116
30
20
10
27.500006946095503
20
22.49994723916651
30
0
10
27.670363922459156
20
21.205957535320884
30
20
10
37.32963607754085
20
21.205957535320888
30
0
10
37.4999930539045
20
22.49994723916651
30
20
10
27.670363922459156
20
23.794042464679112
30
0
10
27.500006946095503
20
22.50005276083349
30
20
93
826
90
3
90
0
90
1
90
2
90
4
90
0
90
2
90
3
90
4
90
4
90
5
90
6
90
7
90
8
90
3
90
5
90
9
90
6
90
4
90
0
90
10
90
11
90
1
90
4
90
10
90
0
90
4
90
12
90
4
90
13
90
5
90
8
90
14
90
4
90
5
90
13
90
15
90
9
90
4
90
10
90
16
90
17
90
11
90
4
90
16
90
10
90
12
90
18
90
4
90
19
90
13
90
14
90
20
90
4
90
13
90
19
90
21
90
15
90
4
90
16
90
19
90
20
90
17
90
4
90
19
90
16
90
18
90
21
90
4
90
22
90
23
90
24
90
25
90
3
90
22
90
26
90
23
90
4
90
27
90
22
90
25
90
28
90
4
90
22
90
27
90
29
90
26
90
4
90
30
90
27
90
28
90
31
90
4
90
27
90
30
90
32
90
29
90
4
90
33
90
30
90
31
90
34
90
4
90
30
90
33
90
35
90
32
90
4
90
36
90
33
90
34
90
37
90
4
90
33
90
36
90
38
90
35
90
3
90
36
90
37
90
7
90
4
90
36
90
7
90
6
90
38
90
3
90
39
90
40
90
41
90
4
90
39
90
41
90
42
90
43
90
4
90
39
90
44
90
45
90
40
90
4
90
44
90
39
90
43
90
46
90
4
90
44
90
47
90
48
90
45
90
4
90
47
90
44
90
46
90
49
90
4
90
47
90
50
90
51
90
48
90
4
90
50
90
47
90
49
90
52
90
4
90
50
90
3
90
2
90
51
90
3
90
50
90
52
90
3
90
7
90
53
90
42
90
23
90
26
90
54
90
184
90
56
90
3
90
53
90
43
90
42
90
5
90
54
90
26
90
29
90
57
90
180
90
5
90
55
90
53
90
56
90
176
90
59
90
4
90
53
90
55
90
46
90
43
90
5
90
57
90
29
90
32
90
60
90
172
90
4
90
58
90
55
90
59
90
168
90
5
90
55
90
58
90
61
90
49
90
46
90
5
90
60
90
32
90
35
90
62
90
164
90
5
90
61
90
160
90
63
90
52
90
49
90
5
90
62
90
35
90
38
90
65
90
156
90
6
90
63
90
152
90
66
90
4
90
3
90
52
90
6
90
64
90
67
90
148
90
65
90
38
90
6
90
3
90
64
90
6
90
9
90
5
90
66
90
144
90
69
90
12
90
4
90
5
90
67
90
64
90
68
90
70
90
140
90
4
90
68
90
64
90
9
90
15
90
5
90
69
90
138
90
72
90
18
90
12
90
5
90
70
90
68
90
71
90
74
90
142
90
5
90
71
90
68
90
15
90
21
90
73
90
7
90
72
90
146
90
78
90
76
90
73
90
21
90
18
90
5
90
74
90
71
90
75
90
79
90
150
90
5
90
76
90
77
90
75
90
71
90
73
90
6
90
77
90
76
90
78
90
154
90
83
90
81
90
5
90
79
90
75
90
80
90
84
90
158
90
5
90
77
90
81
90
82
90
80
90
75
90
6
90
82
90
81
90
83
90
162
90
88
90
86
90
3
90
84
90
80
90
85
90
7
90
82
90
86
90
87
90
89
90
166
90
85
90
80
90
6
90
87
90
86
90
88
90
170
90
92
90
90
90
6
90
89
90
87
90
90
90
91
90
93
90
174
90
5
90
91
90
90
90
92
90
178
90
94
90
4
90
93
90
91
90
94
90
182
90
3
90
42
90
41
90
24
90
3
90
24
90
23
90
42
90
7
90
95
90
97
90
183
90
96
90
25
90
24
90
41
90
3
90
95
90
41
90
40
90
5
90
96
90
179
90
99
90
28
90
25
90
5
90
97
90
95
90
98
90
100
90
175
90
4
90
98
90
95
90
40
90
45
90
5
90
99
90
171
90
102
90
31
90
28
90
3
90
100
90
98
90
101
90
6
90
101
90
98
90
45
90
48
90
103
90
167
90
5
90
102
90
163
90
104
90
34
90
31
90
5
90
103
90
48
90
51
90
105
90
159
90
5
90
104
90
155
90
106
90
37
90
34
90
6
90
105
90
51
90
2
90
1
90
108
90
151
90
6
90
106
90
147
90
109
90
107
90
7
90
37
90
3
90
107
90
8
90
7
90
5
90
108
90
1
90
11
90
111
90
143
90
5
90
109
90
139
90
112
90
110
90
107
90
4
90
107
90
110
90
14
90
8
90
5
90
111
90
11
90
17
90
115
90
137
90
5
90
112
90
141
90
116
90
113
90
110
90
5
90
110
90
113
90
114
90
20
90
14
90
7
90
114
90
118
90
119
90
145
90
115
90
17
90
20
90
5
90
116
90
149
90
121
90
117
90
113
90
5
90
118
90
114
90
113
90
117
90
120
90
6
90
119
90
118
90
120
90
123
90
124
90
153
90
5
90
121
90
157
90
126
90
122
90
117
90
5
90
123
90
120
90
117
90
122
90
125
90
6
90
124
90
123
90
125
90
128
90
129
90
161
90
4
90
126
90
165
90
127
90
122
90
6
90
128
90
125
90
122
90
127
90
132
90
130
90
6
90
129
90
128
90
130
90
131
90
133
90
169
90
6
90
131
90
130
90
132
90
173
90
136
90
134
90
5
90
133
90
131
90
134
90
135
90
177
90
4
90
135
90
134
90
136
90
181
90
4
90
137
90
138
90
69
90
111
90
4
90
138
90
137
90
115
90
72
90
4
90
139
90
140
90
70
90
112
90
4
90
140
90
139
90
109
90
67
90
4
90
141
90
142
90
74
90
116
90
4
90
142
90
141
90
112
90
70
90
4
90
143
90
144
90
66
90
108
90
4
90
144
90
143
90
111
90
69
90
4
90
145
90
146
90
72
90
115
90
4
90
146
90
145
90
119
90
78
90
4
90
147
90
148
90
67
90
109
90
4
90
148
90
147
90
106
90
65
90
4
90
149
90
150
90
79
90
121
90
4
90
150
90
149
90
116
90
74
90
4
90
151
90
152
90
63
90
105
90
4
90
152
90
151
90
108
90
66
90
4
90
153
90
154
90
78
90
119
90
4
90
154
90
153
90
124
90
83
90
4
90
155
90
156
90
65
90
106
90
4
90
156
90
155
90
104
90
62
90
4
90
157
90
158
90
84
90
126
90
4
90
158
90
157
90
121
90
79
90
4
90
159
90
160
90
61
90
103
90
4
90
160
90
159
90
105
90
63
90
4
90
161
90
162
90
83
90
124
90
4
90
162
90
161
90
129
90
88
90
4
90
163
90
164
90
62
90
104
90
4
90
164
90
163
90
102
90
60
90
5
90
165
90
166
90
89
90
132
90
127
90
5
90
166
90
165
90
126
90
84
90
85
90
5
90
167
90
168
90
59
90
100
90
101
90
5
90
168
90
167
90
103
90
61
90
58
90
4
90
169
90
170
90
88
90
129
90
4
90
170
90
169
90
133
90
92
90
4
90
171
90
172
90
60
90
102
90
4
90
172
90
171
90
99
90
57
90
4
90
173
90
174
90
93
90
136
90
4
90
174
90
173
90
132
90
89
90
4
90
175
90
176
90
56
90
97
90
4
90
176
90
175
90
100
90
59
90
4
90
177
90
178
90
92
90
133
90
4
90
178
90
177
90
135
90
94
90
4
90
179
90
180
90
57
90
99
90
4
90
180
90
179
90
96
90
54
90
4
90
181
90
182
90
94
90
135
90
4
90
182
90
181
90
136
90
93
90
4
90
183
90
184
90
54
90
96
90
4
90
184
90
183
90
97
90
56
94
0
95
0
90
0
1001
CONDUITCAD
1000
{"id":"3d-hole-plate-002","label":"Simple through hole","feature3d":{"version":1,"kind":"hole","parameters":{"holeType":0,"diameter":"HoleDiameter","counterDiameter":"HoleDiameter+8","counterDepth":4,
1000
"segments":24},"inputs":["3d-hole-plate-001"],"suppressed":false,"attachment":{"face":1,"vertices":[4,5,6,7],"vertexCount":8,"faceCount":6}},"model3dConsumed":false,"model3dUserHidden":false}
0
MESH
5
102
330
117
100
AcDbEntity
8
Equipment
62
7
420
5543588
60
1
100
AcDbSubDMesh
71
2
72
0
91
0
92
8
10
85
20
0
30
0
10
150
20
0
30
0
10
150
20
45
30
0
10
85
20
45
30
0
10
85
20
0
30
20
10
150
20
0
30
20
10
150
20
45
30
20
10
85
20
45
30
20
93
30
90
4
90
0
90
3
90
2
90
1
90
4
90
4
90
5
90
6
90
7
90
4
90
0
90
1
90
5
90
4
90
4
90
1
90
2
90
6
90
5
90
4
90
2
90
3
90
7
90
6
90
4
90
3
90
0
90
4
90
7
94
0
95
0
90
0
1001
CONDUITCAD
1000
{"id":"3d-hole-plate-003","label":"Plate 2","feature3d":{"version":1,"kind":"box","parameters":{"width":65,"depth":45,"height":"PlateThickness","x":85},"inputs":[],"suppressed":false},"model3dConsumed
1000
":true,"model3dUserHidden":false}
0
MESH
5
103
330
117
100
AcDbEntity
8
Equipment
62
7
420
7638957
100
AcDbSubDMesh
71
2
72
0
91
0
92
461
10
150
20
41.32760170198058
30
1.6321770213419597
10
150
20
41.32760170198058
30
0
10
150
20
45
30
0
10
150
20
41.32760170198058
30
15.999999999999998
10
150
20
45
30
16
10
150
20
45
30
20
10
150
20
41.32760170198058
30
20
10
150
20
3.672398298019516
30
18.36782297865799
10
150
20
0
30
20
10
150
20
0
30
0
10
150
20
3.672398298019516
30
0
10
150
20
3.672398298019516
30
20
10
150
20
31.778706171590386
30
5.876130590404269
10
150
20
31.778706171590386
30
0
10
150
20
31.778706171590386
30
16
10
150
20
31.778706171590386
30
20
10
150
20
13.221293828409614
30
14.123869409595727
10
150
20
13.22129382840961
30
0
10
150
20
13.221293828409614
30
20
10
150
20
23.221293828409703
30
9.67942496515124
10
150
20
23.221293828409703
30
0
10
150
20
23.221293828409703
30
16
10
150
20
23.221293828409703
30
20
10
150
20
21.778706171590386
30
10.320575034848714
10
150
20
21.778706171590386
30
0
10
150
20
21.778706171590386
30
20
10
150
20
21.778706171590386
30
16
10
105.53781880428366
20
0
30
13.680671137143488
10
85
20
0
30
20
10
85
20
0
30
0
10
105.53781880428366
20
0
30
0
10
105.53781880428366
20
0
30
20
10
109.53781880428363
20
0
30
12.449901906374269
10
109.53781880428363
20
0
30
0
10
105.53781880428366
20
0
30
16
10
109.53781880428363
20
0
30
16
10
109.53781880428363
20
0
30
20
10
115.46218119571635
20
0
30
10.627021170548813
10
115.46218119571635
20
0
30
0
10
115.46218119571635
20
0
30
20
10
121.45414422853968
20
0
30
8.783340237372405
10
121.45414422853968
20
0
30
0
10
121.45414422853968
20
0
30
20
10
128.5164127406571
20
0
30
6.610334541336275
10
128.5164127406571
20
0
30
0
10
128.5164127406571
20
0
30
20
10
138.67943949024243
20
0
30
3.483249387617711
10
138.67943949024243
20
0
30
0
10
138.67943949024243
20
0
30
20
10
111.46218119571634
20
45
30
8.14220959868195
10
111.46218119571634
20
45
30
0
10
85
20
45
30
0
10
85
20
45
30
20
10
111.46218119571634
20
45
30
20
10
115.46218119571637
20
45
30
9.37297882945119
10
115.46218119571637
20
45
30
0
10
115.46218119571637
20
45
30
16
10
111.46218119571634
20
45
30
16
10
115.46218119571637
20
45
30
20
10
121.45414422853966
20
45
30
11.216659762627586
10
121.45414422853966
20
45
30
0
10
121.45414422853966
20
45
30
16
10
121.45414422853966
20
45
30
20
10
128.51641274065716
20
45
30
13.389665458663739
10
128.51641274065716
20
45
30
0
10
128.51641274065716
20
45
30
16
10
128.51641274065716
20
45
30
20
10
137
20
45
30
16
10
138.67943949024246
20
45
30
16
10
138.67943949024246
20
45
30
0
10
138.67943949024246
20
45
30
16.516750612382292
10
138.67943949024246
20
45
30
20
10
109.25177639565689
20
28.210308649160616
30
20
10
109.9941983121953
20
27.696324245403257
30
20
10
108.80666756339838
20
24.8293714059227
30
20
10
114.6703708685546
20
38.985603450962635
30
20
10
110.50000000000003
20
7.30849177454977
30
20
10
108.5
20
22.49999999999999
30
20
10
110.15477642359252
20
27.58515478366672
30
20
10
109.70577136594005
20
26.999999999999996
30
20
10
113.79383749998993
20
32.327671511746686
30
20
10
108.80666756339839
20
20.17062859407731
30
20
10
111.37653336856472
20
13.966423713765874
30
20
10
111.13603896932106
20
28.863961030678922
30
20
10
113.58525213855098
20
30.74330839474252
30
20
10
109.70577136594005
20
18.000000000000007
30
20
10
111.58511873000367
20
15.550786830770067
30
20
10
113
20
30.294228634059948
30
20
10
113.55647552912603
20
30.5247283453527
30
20
10
111.13603896932108
20
16.13603896932107
30
20
10
111.61389533942861
20
15.769366880159895
30
20
10
113.58525213855098
20
14.256691605257481
30
20
10
113
20
14.705771365940056
30
20
10
113.55647552912603
20
14.475271654647305
30
20
10
113.61758091491483
20
30.98886983076757
30
20
10
115.76780039453122
20
31.27195159562013
30
20
10
115.1706285940773
20
31.19333243660161
30
20
10
115.85216914442935
20
13.524364224135343
30
20
10
115.17062859407731
20
13.806667563398385
30
20
10
115.76780039453124
20
13.728048404379862
30
20
10
115.94695232083751
20
31.704462605834053
30
20
10
118.09717180045396
20
31.421380840981474
30
20
10
117.5
20
31.5
30
20
10
118.23138309994566
20
13.40371158819894
30
20
10
117.5
20
13.5
30
20
10
118.09717180045395
20
13.578619159018526
30
20
10
118.38216135956253
20
31.792786465406586
30
20
10
120.38584693504873
20
30.962832725308857
30
20
10
119.82937140592269
20
31.193332436601615
30
20
10
120.5607545058683
20
13.902955975199436
30
20
10
119.82937140592269
20
13.806667563398385
30
20
10
120.38584693504873
20
14.037167274691138
30
20
10
120.75725255947386
20
31.24782228441743
30
20
10
122.47785637010752
20
29.927556544898785
30
20
10
122
20
30.294228634059948
30
20
10
136.79440555295724
20
9.14233461718344
30
20
10
122.68154055035207
20
14.9880747052031
30
20
10
122
20
14.705771365940052
30
20
10
122.47785637010753
20
15.07244345510123
30
20
10
122.91036738032143
20
30.106708471205074
30
20
10
124.23063311984009
20
28.386104660571398
30
20
10
123.86396103067894
20
28.86396103067892
30
20
10
124.44921316922992
20
16.585118730003654
30
20
10
126.41813729202035
20
16.32590495167822
30
20
10
123.86396103067892
20
16.136038969321067
30
20
10
124.23063311984009
20
16.613895339428602
30
20
10
124.69477460525496
20
28.44721004636019
30
20
10
125.52472834535268
20
26.443524470873964
30
20
10
125.29422863405995
20
27.00000000000001
30
20
10
124.84522357640748
20
17.414845216333283
30
20
10
125.74330839474254
20
18.585252138551006
30
20
10
125.29422863405995
20
18
30
20
10
125.52472834535271
20
18.556475529126057
30
20
10
125.98886983076756
20
26.382419085085175
30
20
10
126.27195159562014
20
24.232199605468725
30
20
10
136.4893852818127
20
19.99999999999999
30
20
10
126.19333243660161
20
24.829371405922696
30
20
10
130.45385137588005
20
22.499999999999986
30
20
10
126.47563577586467
20
20.852169144429393
30
20
10
126.19333243660162
20
20.170628594077314
30
20
10
126.27195159562015
20
20.76780039453126
30
20
10
126.59628841180105
20
21.768616900054383
30
20
10
127.32962913144534
20
21.20590477448741
30
20
10
126.42138084098148
20
21.902828199546082
30
20
10
126.5
20
22.500000000000004
30
20
10
109.25177639565689
20
28.210308649160616
30
0
10
112.91765355314271
20
25.67239369397812
30
0
10
111.61389533942861
20
15.769366880159893
30
0
10
113.58525213855098
20
14.25669160525748
30
0
10
112.5
20
22.500000000000014
30
0
10
112.67037086855466
20
23.794095225512592
30
0
10
113.33011017344182
20
25.38684680300181
30
0
10
113.55647552912603
20
14.475271654647303
30
0
10
115.85216914442935
20
13.524364224135343
30
0
10
112.67037086855466
20
21.20590477448739
30
0
10
113.16987298107782
20
25.00000000000001
30
0
10
113.41932023532917
20
25.325085990925956
30
0
10
115.76780039453124
20
13.728048404379864
30
0
10
118.23138309994566
20
13.40371158819894
30
0
10
113.1698729810778
20
20
30
0
10
113.96446609406726
20
26.035533905932738
30
0
10
118.09717180045395
20
13.578619159018523
30
0
10
120.5607545058683
20
13.902955975199436
30
0
10
113.96446609406726
20
18.96446609406726
30
0
10
115
20
26.83012701892219
30
0
10
120.38584693504873
20
14.037167274691138
30
0
10
122.68154055035207
20
14.9880747052031
30
0
10
136.79440555295724
20
9.142334617183444
30
0
10
115
20
18.16987298107781
30
0
10
116.2059047744874
20
27.32962913144534
30
0
10
122.47785637010755
20
15.07244345510123
30
0
10
124.44921316922992
20
16.585118730003654
30
0
10
126.41813729202035
20
16.32590495167822
30
0
10
116.2059047744874
20
17.67037086855466
30
0
10
117.49999999999999
20
27.5
30
0
10
124.23063311984009
20
16.613895339428602
30
0
10
124.84522357640748
20
17.414845216333283
30
0
10
125.74330839474254
20
18.58525213855101
30
0
10
117.5
20
17.5
30
0
10
123.56825434204124
20
18.29890084012529
30
0
10
136.4893852818127
20
19.99999999999999
30
0
10
118.7940952255126
20
27.32962913144534
30
0
10
126.47563577586467
20
20.852169144429393
30
0
10
130.45385137588005
20
22.499999999999986
30
0
10
125.52472834535271
20
18.55647552912606
30
0
10
118.7940952255126
20
17.67037086855466
30
0
10
122.34912594507986
20
19.142912807252404
30
0
10
120
20
26.83012701892219
30
0
10
127.32962913144534
20
21.20590477448741
30
0
10
120
20
18.16987298107781
30
0
10
121.78082764355975
20
19.536350092920173
30
0
10
125.64313139868467
20
22.5
30
0
10
121.03553390593274
20
26.035533905932738
30
0
10
124.45059741539386
20
21.584936490538915
30
0
10
121.03553390593274
20
18.964466094067262
30
0
10
121.58067976467083
20
19.674914009074044
30
0
10
123.74844448886961
20
22.500000000000007
30
0
10
121.8301270189222
20
25.000000000000007
30
0
10
123.17513902507416
20
21.752853773193277
30
0
10
122.86566092485494
20
22.5
30
0
10
121.8301270189222
20
19.999999999999993
30
0
10
122.32962913144534
20
23.794095225512603
30
0
10
122.58819045102521
20
21.83012701892219
30
0
10
122.5
20
22.5
30
0
10
122.32962913144534
20
21.205904774487397
30
0
10
111.741936567897
20
16.741936567896992
30
16
10
111.13603896932108
20
16.13603896932107
30
16
10
111.61389533942861
20
15.769366880159893
30
16
10
111.83765632644287
20
17.469000317540882
30
16
10
112.08868833850207
20
19.37577775556521
30
16
10
109.70577136594005
20
18
30
16
10
112.27306537258109
20
20.776260370463042
30
16
10
112.31716953757254
20
21.11126476308514
30
16
10
108.80666756339839
20
20.17062859407731
30
16
10
112.5
20
22.5
30
16
10
108.5
20
22.5
30
16
10
112.67037086855466
20
23.794095225512603
30
16
10
108.80666756339838
20
24.829371405922686
30
16
10
112.82736787862613
20
24.98660591044858
30
16
10
112.85320133098212
20
25.182830462427464
30
16
10
109.70577136594005
20
26.999999999999996
30
16
10
112.99438514831611
20
26.25522802359238
30
16
10
113.08168253005259
20
26.9183174699474
30
16
10
111.13603896932106
20
28.863961030678922
30
16
10
113.1951425083881
20
27.7801315670191
30
16
10
113.42843430065767
20
29.552158657615635
30
16
10
113
20
30.294228634059948
30
16
10
113.46902864432509
20
29.860503310480894
30
16
10
113.55647552912603
20
30.5247283453527
30
16
10
113.42843430065766
20
15.447841342384361
30
16
10
113
20
14.705771365940052
30
16
10
113.55647552912603
20
14.475271654647303
30
16
10
113.33271454211179
20
16.174905092028226
30
16
10
113.08168253005259
20
18.08168253005259
30
16
10
112.89730549597357
20
19.482165144950432
30
16
10
112.85320133098212
20
19.817169537572532
30
16
10
112.67037086855466
20
21.205904774487394
30
16
10
113.1698729810778
20
25
30
16
10
113.63016492450569
20
26.111243052474673
30
16
10
113.7059047744874
20
26.294095225512606
30
16
10
114.11983478265535
20
27.293410665104894
30
16
10
114.3757777555652
20
27.91131166149795
30
16
10
114.70842558054966
20
28.714394552069347
30
16
10
115.39240250724808
20
30.365660924854957
30
16
10
115.17062859407731
20
31.193332436601615
30
16
10
115.51141910081475
20
30.652992399191078
30
16
10
115.76780039453122
20
31.271951595620134
30
16
10
115.39240250724808
20
14.634339075145053
30
16
10
115.17062859407731
20
13.806667563398385
30
16
10
115.76780039453124
20
13.728048404379864
30
16
10
115.11176637497098
20
15.311854631780346
30
16
10
114.3757777555652
20
17.088688338502052
30
16
10
113.83521164350314
20
18.39373037760155
30
16
10
113.7059047744874
20
18.70590477448739
30
16
10
113.1698729810778
20
20
30
16
10
113.96446609406726
20
26.035533905932734
30
16
10
114.69668483557535
20
26.98977994833593
30
16
10
114.81716953757254
20
27.146798669017866
30
16
10
115.4756370905695
20
28.00493029127616
30
16
10
115.88278356401467
20
28.535533905932716
30
16
10
116.41194983610191
20
29.225156818168603
30
16
10
117.5
20
30.64313139868461
30
16
10
117.5
20
31.5
30
16
10
117.68932805929859
20
30.889868529353322
30
16
10
118.09717180045396
20
31.421380840981474
30
16
10
117.5
20
14.356868601315373
30
16
10
117.5
20
13.5
30
16
10
118.09717180045395
20
13.578619159018524
30
16
10
117.0535723826332
20
14.938664399404821
30
16
10
115.88278356401466
20
16.464466094067276
30
16
10
115.02286706117887
20
17.585131099087743
30
16
10
114.81716953757254
20
17.853201330982127
30
16
10
113.96446609406726
20
18.964466094067262
30
16
10
115
20
26.83012701892219
30
16
10
115.9542460424032
20
27.56234576043028
30
16
10
116.11126476308513
20
27.68283046242746
30
16
10
116.96939638534343
20
28.34129801542442
30
16
10
117.5
20
28.748444488869595
30
16
10
118.18962291223589
20
29.277610760956833
30
16
10
119.60759749275192
20
30.365660924854932
30
16
10
119.82937140592269
20
31.193332436601615
30
16
10
119.85433462342061
20
30.554988984153518
30
16
10
120.38584693504873
20
30.96283272530886
30
16
10
119.60759749275192
20
14.63433907514506
30
16
10
119.82937140592269
20
13.806667563398385
30
16
10
120.38584693504873
20
14.037167274691138
30
16
10
119.02580169466249
20
15.080766692511833
30
16
10
117.5
20
16.251555511130398
30
16
10
116.37933499497953
20
17.111472013966186
30
16
10
116.11126476308513
20
17.317169537572532
30
16
10
115
20
18.169872981077805
30
16
10
116.2059047744874
20
27.32962913144534
30
16
10
117.31714782696207
20
27.78992107487323
30
16
10
117.5
20
27.865660924854932
30
16
10
118.4993154395923
20
28.279590933022895
30
16
10
119.11721643598534
20
28.535533905932745
30
16
10
119.92029932655673
20
28.868181730917208
30
16
10
121.57156569934233
20
29.55215865761563
30
16
10
122
20
30.294228634059948
30
16
10
121.85889717367846
20
29.671175251182312
30
16
10
122.47785637010752
20
29.927556544898785
30
16
10
121.57156569934233
20
15.44784134238439
30
16
10
122
20
14.705771365940052
30
16
10
122.47785637010753
20
15.07244345510123
30
16
10
120.89405014270702
20
15.728477474661492
30
16
10
119.11721643598534
20
16.464466094067266
30
16
10
117.81217439688584
20
17.005032206129314
30
16
10
117.5
20
17.13433907514507
30
16
10
116.2059047744874
20
17.67037086855466
30
16
10
117.5
20
27.5
30
16
10
118.69251068493598
20
27.65699701007148
30
16
10
118.88873523691487
20
27.682830462427468
30
16
10
119.96113279807977
20
27.82401427976146
30
16
10
120.6242222444348
20
27.911311661497944
30
16
10
121.48603634150649
20
28.02477163983346
30
16
10
123.25806343210301
20
28.258063432103018
30
16
10
123.86396103067892
20
28.86396103067893
30
16
10
123.56640808496827
20
28.29865777577045
30
16
10
124.23063311984009
20
28.386104660571398
30
16
10
123.25806343210301
20
16.741936567896982
30
16
10
123.86396103067892
20
16.13603896932107
30
16
10
124.23063311984009
20
16.613895339428602
30
16
10
122.53099968245914
20
16.837656326442854
30
16
10
120.6242222444348
20
17.088688338502056
30
16
10
119.22373962953696
20
17.273065372581087
30
16
10
118.88873523691487
20
17.317169537572532
30
16
10
117.5
20
17.5
30
16
10
118.7940952255126
20
27.329629131445344
30
16
10
119.98660591044857
20
27.17263212137387
30
16
10
120.18283046242748
20
27.146798669017883
30
16
10
121.25522802359238
20
27.00561485168389
30
16
10
121.91831746994741
20
26.91831746994741
30
16
10
122.78013156701911
20
26.804857491611894
30
16
10
124.55215865761564
20
26.57156569934234
30
16
10
125.29422863405995
20
27.000000000000004
30
16
10
124.8605033104809
20
26.530971355674907
30
16
10
125.5247283453527
20
26.443524470873964
30
16
10
124.5521586576156
20
18.428434300657678
30
16
10
125.29422863405995
20
18
30
16
10
125.52472834535271
20
18.55647552912606
30
16
10
123.82509490797173
20
18.332714542111802
30
16
10
121.9183174699474
20
18.081682530052603
30
16
10
120.51783485504956
20
17.897305495973573
30
16
10
120.18283046242746
20
17.853201330982124
30
16
10
118.7940952255126
20
17.67037086855466
30
16
10
120
20
26.83012701892219
30
16
10
121.11124305247468
20
26.369835075494297
30
16
10
121.29409522551259
20
26.2940952255126
30
16
10
122.29341066510489
20
25.880165217344633
30
16
10
122.91131166149792
20
25.624222244434787
30
16
10
123.71439455206932
20
25.29157441945032
30
16
10
125.36566092485488
20
24.607597492751907
30
16
10
126.19333243660161
20
24.829371405922693
30
16
10
125.65299239919102
20
24.48858089918522
30
16
10
126.27195159562014
20
24.232199605468725
30
16
10
125.36566092485492
20
20.39240250724809
30
16
10
126.19333243660162
20
20.170628594077314
30
16
10
126.27195159562015
20
20.767800394531257
30
16
10
124.6881453682196
20
20.111766374970983
30
16
10
122.91131166149793
20
19.37577775556521
30
16
10
121.60626962239843
20
18.835211643503154
30
16
10
121.2940952255126
20
18.7059047744874
30
16
10
120
20
18.16987298107781
30
16
10
125.88986852935336
20
22.31067194070142
30
16
10
126.5
20
22.5
30
16
10
125.64313139868467
20
22.5
30
16
10
126.42138084098148
20
21.902828199546082
30
16
10
121.03553390593274
20
26.035533905932738
30
16
10
121.98977994833594
20
25.303315164424646
30
16
10
122.14679866901788
20
25.182830462427468
30
16
10
123.00493029127617
20
24.52436290943051
30
16
10
123.53553390593274
20
24.11721643598534
30
16
10
124.22515681816863
20
23.588050163898103
30
16
10
125.06133560059524
20
22.053572382633227
30
16
10
123.53553390593274
20
20.882783564014662
30
16
10
122.41486890091227
20
20.02286706117888
30
16
10
122.14679866901788
20
19.817169537572536
30
16
10
121.03553390593274
20
18.964466094067262
30
16
10
124.27761076095686
20
21.810377087764124
30
16
10
123.74844448886962
20
22.5
30
16
10
124.45059741539386
20
21.584936490538915
30
16
10
121.8301270189222
20
25.000000000000004
30
16
10
122.56234576043029
20
24.045753957596812
30
16
10
122.68283046242748
20
23.88873523691487
30
16
10
123.34129801542444
20
23.030603614656577
30
16
10
122.88852798603382
20
21.379334994979533
30
16
10
122.68283046242748
20
21.11126476308514
30
16
10
121.8301270189222
20
20
30
16
10
123.17513902507416
20
21.752853773193273
30
16
10
122.86566092485494
20
22.5
30
16
10
122.32962913144534
20
23.794095225512606
30
16
10
122.78992107487323
20
22.68285217303793
30
16
10
122.32962913144534
20
21.205904774487397
30
16
10
122.58819045102521
20
21.83012701892219
30
16
10
122.5
20
22.5
30
16
10
118.09717180045395
20
13.578619159018524
30
17.025673353166027
10
119.82889661649341
20
13.80660505618419
30
20
10
120.38584693504873
20
14.037167274691138
30
17.025673353165974
10
121.9995575666857
20
14.705588104060823
30
20
10
118.09717180045396
20
31.421380840981474
30
18.975142122155468
10
117.50047478942928
20
31.499937492785808
30
20
10
122.47785637010752
20
29.927556544898785
30
18.975142122155553
10
122.00037992610011
20
30.293937106509897
30
20
10
120.38584693504873
20
30.96283272530886
30
18.975142122155532
10
119.82981383923699
20
31.193149174722386
30
20
10
115.76780039453124
20
13.728048404379864
30
17.025673353165963
10
117.49952521057072
20
13.500062507214192
30
20
10
122.47785637010753
20
15.07244345510123
30
17.025673353166
10
123.86358110457881
20
16.13574744177102
30
20
10
115.76780039453122
20
31.271951595620134
30
18.975142122155567
10
115.17110338350659
20
31.19339494381581
30
20
10
124.23063311984009
20
28.386104660571398
30
18.975142122155535
10
123.86425255822897
20
28.863581104578824
30
20
10
113.55647552912603
20
14.475271654647303
30
17.025673353165953
10
115.17018616076301
20
13.806850825277612
30
20
10
124.23063311984009
20
16.613895339428602
30
17.025673353165978
10
125.2939371065099
20
17.999620073899894
30
20
10
113.55647552912603
20
30.5247283453527
30
18.975142122155557
10
113.0004424333143
20
30.294411895939177
30
20
10
125.5247283453527
20
26.443524470873964
30
18.975142122155553
10
125.29441189593918
20
26.999557566685702
30
20
10
111.61389533942861
20
15.769366880159893
30
17.025673353166
10
112.99962007389989
20
14.706062893490103
30
20
10
125.52472834535271
20
18.55647552912606
30
17.025673353165995
10
126.1931491747224
20
20.170186160763016
30
20
10
111.13574744177103
20
16.136418895421176
30
20
10
111.13641889542117
20
28.864252558228973
30
20
10
126.27195159562014
20
24.232199605468725
30
18.975142122155468
10
126.1933949438158
20
24.828896616493417
30
20
10
109.70558810406082
20
18.000442433314298
30
20
10
109.7060628934901
20
27.000379926100102
30
20
10
126.27195159562015
20
20.767800394531257
30
17.025673353166013
10
126.42138084098148
20
21.902828199546082
30
18.975142122155546
10
126.4999374927858
20
22.49952521057072
30
20
10
108.8068508252776
20
24.829813839236984
30
20
10
108.8066050561842
20
20.17110338350659
30
20
10
108.5000625072142
20
22.50047478942928
30
20
10
118.79402927245404
20
27.329637814330226
30
0
10
116.20597072754596
20
17.670362185669777
30
0
10
117.50006595305857
20
17.500008682884882
30
0
10
117.49993404694143
20
27.499991317115118
30
0
10
119.99993854153338
20
26.830152475852586
30
0
10
115.00006145846662
20
18.16984752414741
30
0
10
118.79415668397922
20
17.670396325485054
30
0
10
116.20584331602078
20
27.329603674514946
30
0
10
121.035481130351
20
26.035574402060906
30
0
10
113.964518869649
20
18.964425597939094
30
0
10
120.00005277558174
20
18.169913477205977
30
0
10
114.99994722441826
20
26.830086522794023
30
0
10
121.83008652279403
20
25.000052775581736
30
0
10
113.16991347720597
20
19.999947224418268
30
0
10
121.0355744020609
20
18.964518869648995
30
0
10
113.9644255979391
20
26.035481130351002
30
0
10
122.32960367451496
20
23.79415668397922
30
0
10
112.67039632548504
20
21.20584331602078
30
0
10
121.8301524758526
20
20.000061458466615
30
0
10
113.1698475241474
20
24.999938541533385
30
0
10
122.49999131711512
20
22.500065953058563
30
0
10
112.50000868288488
20
22.499934046941437
30
0
10
122.32963781433023
20
21.20597072754596
30
0
10
112.67036218566977
20
23.79402927245404
30
0
93
2332
90
3
90
0
90
1
90
2
90
4
90
3
90
0
90
2
90
4
90
4
90
3
90
4
90
5
90
6
90
4
90
7
90
8
90
9
90
10
90
3
90
7
90
11
90
8
90
4
90
0
90
12
90
13
90
1
90
4
90
14
90
12
90
0
90
3
90
4
90
14
90
3
90
6
90
15
90
4
90
16
90
7
90
10
90
17
90
4
90
7
90
16
90
18
90
11
90
4
90
12
90
19
90
20
90
13
90
4
90
21
90
19
90
12
90
14
90
4
90
21
90
14
90
15
90
22
90
4
90
23
90
16
90
17
90
24
90
5
90
16
90
23
90
26
90
25
90
18
90
4
90
19
90
23
90
24
90
20
90
4
90
26
90
23
90
19
90
21
90
4
90
26
90
21
90
22
90
25
90
4
90
27
90
28
90
29
90
30
90
4
90
27
90
34
90
31
90
28
90
4
90
32
90
27
90
30
90
33
90
4
90
34
90
27
90
32
90
35
90
4
90
34
90
35
90
36
90
31
90
4
90
37
90
32
90
33
90
38
90
5
90
32
90
37
90
39
90
36
90
35
90
4
90
40
90
37
90
38
90
41
90
4
90
37
90
40
90
42
90
39
90
4
90
43
90
40
90
41
90
44
90
4
90
40
90
43
90
45
90
42
90
4
90
46
90
43
90
44
90
47
90
4
90
43
90
46
90
48
90
45
90
3
90
46
90
47
90
9
90
4
90
46
90
9
90
8
90
48
90
3
90
49
90
50
90
51
90
5
90
49
90
51
90
52
90
53
90
57
90
4
90
49
90
54
90
55
90
50
90
4
90
56
90
54
90
49
90
57
90
4
90
56
90
57
90
53
90
58
90
4
90
54
90
59
90
60
90
55
90
4
90
61
90
59
90
54
90
56
90
4
90
61
90
56
90
58
90
62
90
4
90
59
90
63
90
64
90
60
90
4
90
65
90
63
90
59
90
61
90
4
90
65
90
61
90
62
90
66
90
5
90
63
90
67
90
68
90
69
90
64
90
3
90
67
90
63
90
65
90
3
90
67
90
70
90
68
90
5
90
70
90
67
90
65
90
66
90
71
90
4
90
68
90
4
90
2
90
69
90
4
90
68
90
70
90
5
90
4
90
3
90
70
90
71
90
5
90
7
90
72
90
52
90
28
90
31
90
77
90
436
90
74
90
3
90
72
90
53
90
52
90
5
90
73
90
72
90
74
90
434
90
79
90
5
90
72
90
73
90
75
90
58
90
53
90
6
90
76
90
81
90
435
90
77
90
31
90
36
90
4
90
78
90
73
90
79
90
430
90
5
90
73
90
78
90
83
90
80
90
75
90
5
90
81
90
76
90
82
90
85
90
429
90
6
90
83
90
426
90
87
90
84
90
94
90
80
90
5
90
85
90
82
90
86
90
89
90
425
90
4
90
87
90
418
90
88
90
84
90
3
90
89
90
86
90
90
90
9
90
91
90
92
90
422
90
90
90
86
90
82
90
76
90
36
90
39
90
3
90
92
90
91
90
93
90
9
90
94
90
96
90
410
90
95
90
100
90
62
90
58
90
75
90
80
90
4
90
96
90
94
90
84
90
88
90
7
90
97
90
98
90
414
90
93
90
91
90
39
90
42
90
3
90
98
90
97
90
99
90
7
90
100
90
102
90
400
90
101
90
106
90
66
90
62
90
3
90
102
90
100
90
95
90
7
90
103
90
104
90
406
90
99
90
97
90
42
90
45
90
3
90
104
90
103
90
105
90
7
90
106
90
108
90
404
90
107
90
112
90
71
90
66
90
3
90
108
90
106
90
101
90
7
90
109
90
110
90
396
90
105
90
103
90
45
90
48
90
3
90
110
90
109
90
111
90
8
90
112
90
114
90
402
90
113
90
119
90
6
90
5
90
71
90
3
90
114
90
112
90
107
90
8
90
115
90
116
90
117
90
398
90
111
90
109
90
48
90
8
90
3
90
115
90
8
90
11
90
3
90
117
90
116
90
118
90
7
90
119
90
121
90
412
90
120
90
126
90
15
90
6
90
3
90
121
90
119
90
113
90
7
90
122
90
124
90
408
90
118
90
116
90
115
90
123
90
4
90
123
90
115
90
11
90
18
90
3
90
124
90
122
90
125
90
7
90
126
90
128
90
420
90
127
90
133
90
22
90
15
90
3
90
128
90
126
90
120
90
4
90
125
90
122
90
123
90
129
90
8
90
130
90
131
90
416
90
129
90
123
90
18
90
25
90
135
90
3
90
131
90
130
90
132
90
8
90
133
90
136
90
428
90
134
90
137
90
135
90
25
90
22
90
3
90
136
90
133
90
127
90
8
90
137
90
142
90
138
90
139
90
424
90
132
90
130
90
135
90
3
90
139
90
138
90
140
90
5
90
141
90
142
90
137
90
134
90
144
90
4
90
143
90
141
90
144
90
433
90
5
90
140
90
138
90
142
90
141
90
143
90
3
90
52
90
51
90
29
90
3
90
29
90
28
90
52
90
4
90
145
90
30
90
29
90
51
90
3
90
145
90
51
90
50
90
8
90
145
90
146
90
150
90
460
90
149
90
147
90
33
90
30
90
4
90
146
90
145
90
50
90
55
90
4
90
147
90
148
90
38
90
33
90
6
90
147
90
149
90
458
90
154
90
152
90
148
90
5
90
150
90
146
90
151
90
155
90
456
90
4
90
151
90
146
90
55
90
60
90
5
90
152
90
153
90
41
90
38
90
148
90
6
90
152
90
154
90
454
90
159
90
157
90
153
90
3
90
155
90
151
90
156
90
6
90
156
90
151
90
60
90
64
90
160
90
452
90
5
90
157
90
158
90
44
90
41
90
153
90
6
90
157
90
159
90
450
90
163
90
161
90
158
90
5
90
160
90
64
90
69
90
164
90
448
90
5
90
161
90
162
90
47
90
44
90
158
90
6
90
161
90
163
90
446
90
168
90
165
90
162
90
6
90
164
90
69
90
2
90
1
90
169
90
444
90
6
90
165
90
166
90
167
90
9
90
47
90
162
90
3
90
167
90
10
90
9
90
6
90
165
90
168
90
442
90
173
90
170
90
166
90
5
90
169
90
1
90
13
90
174
90
440
90
5
90
170
90
171
90
172
90
167
90
166
90
4
90
167
90
172
90
17
90
10
90
6
90
170
90
173
90
438
90
178
90
175
90
171
90
5
90
174
90
13
90
20
90
181
90
437
90
4
90
175
90
176
90
172
90
171
90
6
90
172
90
176
90
177
90
180
90
24
90
17
90
6
90
175
90
178
90
439
90
185
90
179
90
176
90
4
90
176
90
179
90
184
90
177
90
7
90
180
90
183
90
187
90
441
90
181
90
20
90
24
90
6
90
182
90
188
90
183
90
180
90
177
90
184
90
5
90
185
90
443
90
189
90
186
90
179
90
4
90
182
90
184
90
179
90
186
90
6
90
187
90
183
90
188
90
191
90
192
90
445
90
5
90
189
90
447
90
194
90
190
90
186
90
6
90
191
90
188
90
182
90
186
90
190
90
193
90
6
90
192
90
191
90
193
90
196
90
197
90
449
90
4
90
194
90
451
90
195
90
190
90
6
90
196
90
193
90
190
90
195
90
200
90
198
90
6
90
197
90
196
90
198
90
199
90
201
90
453
90
6
90
199
90
198
90
200
90
455
90
204
90
202
90
5
90
201
90
199
90
202
90
203
90
457
90
4
90
203
90
202
90
204
90
459
90
3
90
205
90
206
90
207
90
3
90
208
90
206
90
205
90
4
90
208
90
209
90
210
90
206
90
3
90
211
90
210
90
209
90
4
90
211
90
212
90
213
90
210
90
3
90
213
90
212
90
214
90
3
90
214
90
215
90
213
90
3
90
215
90
214
90
216
90
3
90
216
90
217
90
215
90
3
90
218
90
217
90
216
90
4
90
218
90
219
90
220
90
217
90
3
90
221
90
220
90
219
90
4
90
221
90
222
90
223
90
220
90
3
90
224
90
223
90
222
90
4
90
224
90
225
90
226
90
223
90
3
90
227
90
226
90
225
90
3
90
227
90
228
90
226
90
3
90
229
90
230
90
231
90
3
90
232
90
230
90
229
90
5
90
232
90
233
90
205
90
207
90
230
90
4
90
234
90
208
90
205
90
233
90
4
90
208
90
234
90
235
90
209
90
4
90
211
90
209
90
235
90
236
90
3
90
211
90
236
90
212
90
3
90
212
90
236
90
214
90
3
90
218
90
216
90
237
90
3
90
218
90
237
90
219
90
4
90
238
90
221
90
219
90
237
90
4
90
221
90
238
90
239
90
222
90
4
90
240
90
224
90
222
90
239
90
4
90
224
90
240
90
241
90
225
90
4
90
242
90
227
90
225
90
241
90
5
90
227
90
242
90
243
90
244
90
228
90
3
90
245
90
244
90
243
90
3
90
245
90
246
90
244
90
3
90
247
90
248
90
249
90
3
90
250
90
248
90
247
90
5
90
250
90
251
90
229
90
231
90
248
90
4
90
252
90
232
90
229
90
251
90
4
90
232
90
252
90
253
90
233
90
4
90
234
90
233
90
253
90
254
90
3
90
234
90
254
90
235
90
3
90
235
90
254
90
236
90
3
90
238
90
237
90
255
90
3
90
238
90
255
90
239
90
4
90
256
90
240
90
239
90
255
90
4
90
240
90
256
90
257
90
241
90
4
90
258
90
242
90
241
90
257
90
4
90
242
90
258
90
259
90
243
90
4
90
260
90
245
90
243
90
259
90
5
90
245
90
260
90
261
90
262
90
246
90
3
90
263
90
262
90
261
90
3
90
263
90
264
90
262
90
3
90
265
90
266
90
267
90
3
90
268
90
266
90
265
90
5
90
268
90
269
90
247
90
249
90
266
90
4
90
270
90
250
90
247
90
269
90
4
90
250
90
270
90
271
90
251
90
4
90
252
90
251
90
271
90
272
90
3
90
252
90
272
90
253
90
3
90
253
90
272
90
254
90
3
90
256
90
255
90
273
90
3
90
256
90
273
90
257
90
4
90
274
90
258
90
257
90
273
90
4
90
258
90
274
90
275
90
259
90
4
90
276
90
260
90
259
90
275
90
4
90
260
90
276
90
277
90
261
90
4
90
278
90
263
90
261
90
277
90
5
90
263
90
278
90
279
90
280
90
264
90
3
90
281
90
280
90
279
90
3
90
281
90
282
90
280
90
3
90
283
90
284
90
285
90
3
90
286
90
284
90
283
90
5
90
286
90
287
90
265
90
267
90
284
90
4
90
288
90
268
90
265
90
287
90
4
90
268
90
288
90
289
90
269
90
4
90
270
90
269
90
289
90
290
90
3
90
270
90
290
90
271
90
3
90
271
90
290
90
272
90
3
90
274
90
273
90
291
90
3
90
274
90
291
90
275
90
4
90
292
90
276
90
275
90
291
90
4
90
276
90
292
90
293
90
277
90
4
90
294
90
278
90
277
90
293
90
4
90
278
90
294
90
295
90
279
90
4
90
296
90
281
90
279
90
295
90
5
90
281
90
296
90
297
90
298
90
282
90
3
90
299
90
298
90
297
90
3
90
299
90
300
90
298
90
3
90
301
90
302
90
303
90
3
90
304
90
302
90
301
90
5
90
304
90
305
90
283
90
285
90
302
90
4
90
306
90
286
90
283
90
305
90
4
90
286
90
306
90
307
90
287
90
4
90
288
90
287
90
307
90
308
90
3
90
288
90
308
90
289
90
3
90
289
90
308
90
290
90
3
90
292
90
291
90
309
90
3
90
292
90
309
90
293
90
4
90
310
90
294
90
293
90
309
90
4
90
294
90
310
90
311
90
295
90
4
90
312
90
296
90
295
90
311
90
4
90
296
90
312
90
313
90
297
90
4
90
314
90
299
90
297
90
313
90
5
90
299
90
314
90
315
90
316
90
300
90
3
90
317
90
316
90
315
90
3
90
317
90
318
90
316
90
3
90
319
90
320
90
321
90
3
90
322
90
320
90
319
90
5
90
322
90
323
90
301
90
303
90
320
90
4
90
324
90
304
90
301
90
323
90
4
90
304
90
324
90
325
90
305
90
4
90
306
90
305
90
325
90
326
90
3
90
306
90
326
90
307
90
3
90
307
90
326
90
308
90
3
90
310
90
309
90
327
90
3
90
310
90
327
90
311
90
4
90
328
90
312
90
311
90
327
90
4
90
312
90
328
90
329
90
313
90
4
90
330
90
314
90
313
90
329
90
4
90
314
90
330
90
331
90
315
90
4
90
332
90
317
90
315
90
331
90
5
90
317
90
332
90
333
90
334
90
318
90
3
90
335
90
334
90
333
90
3
90
335
90
336
90
334
90
3
90
337
90
338
90
339
90
3
90
340
90
338
90
337
90
5
90
340
90
341
90
319
90
321
90
338
90
4
90
342
90
322
90
319
90
341
90
4
90
322
90
342
90
343
90
323
90
4
90
324
90
323
90
343
90
344
90
3
90
324
90
344
90
325
90
3
90
325
90
344
90
326
90
3
90
328
90
327
90
345
90
3
90
328
90
345
90
329
90
4
90
346
90
330
90
329
90
345
90
4
90
330
90
346
90
347
90
331
90
4
90
348
90
332
90
331
90
347
90
4
90
332
90
348
90
349
90
333
90
4
90
350
90
335
90
333
90
349
90
5
90
335
90
350
90
351
90
352
90
336
90
3
90
353
90
352
90
351
90
3
90
353
90
354
90
352
90
3
90
355
90
356
90
357
90
3
90
358
90
356
90
355
90
5
90
358
90
359
90
337
90
339
90
356
90
4
90
360
90
340
90
337
90
359
90
4
90
340
90
360
90
361
90
341
90
4
90
342
90
341
90
361
90
362
90
3
90
342
90
362
90
343
90
3
90
343
90
362
90
344
90
3
90
363
90
364
90
365
90
3
90
363
90
366
90
364
90
3
90
346
90
345
90
367
90
3
90
346
90
367
90
347
90
4
90
368
90
348
90
347
90
367
90
4
90
348
90
368
90
369
90
349
90
4
90
370
90
350
90
349
90
369
90
4
90
350
90
370
90
371
90
351
90
4
90
372
90
353
90
351
90
371
90
5
90
353
90
372
90
365
90
364
90
354
90
3
90
373
90
363
90
365
90
7
90
363
90
373
90
380
90
374
90
355
90
357
90
366
90
4
90
375
90
358
90
355
90
374
90
4
90
358
90
375
90
376
90
359
90
4
90
360
90
359
90
376
90
377
90
3
90
360
90
377
90
361
90
3
90
361
90
377
90
362
90
4
90
378
90
373
90
365
90
379
90
3
90
380
90
373
90
378
90
3
90
368
90
367
90
381
90
3
90
368
90
381
90
369
90
4
90
382
90
370
90
369
90
381
90
4
90
370
90
382
90
383
90
371
90
4
90
384
90
372
90
371
90
383
90
4
90
372
90
384
90
379
90
365
90
4
90
385
90
378
90
379
90
388
90
5
90
380
90
378
90
385
90
386
90
374
90
4
90
375
90
374
90
386
90
387
90
3
90
375
90
387
90
376
90
3
90
376
90
387
90
377
90
3
90
388
90
379
90
389
90
3
90
382
90
381
90
390
90
3
90
382
90
390
90
383
90
4
90
391
90
384
90
383
90
390
90
4
90
384
90
391
90
389
90
379
90
5
90
385
90
388
90
389
90
393
90
392
90
3
90
385
90
392
90
386
90
3
90
386
90
392
90
387
90
3
90
393
90
389
90
394
90
3
90
391
90
390
90
394
90
3
90
391
90
394
90
389
90
3
90
393
90
394
90
392
90
3
90
395
90
267
90
266
90
4
90
105
90
395
90
266
90
104
90
5
90
395
90
396
90
110
90
284
90
267
90
3
90
396
90
395
90
105
90
3
90
397
90
285
90
284
90
4
90
111
90
397
90
284
90
110
90
5
90
397
90
398
90
117
90
302
90
285
90
3
90
398
90
397
90
111
90
5
90
399
90
400
90
102
90
262
90
264
90
3
90
400
90
399
90
101
90
3
90
399
90
264
90
280
90
4
90
101
90
399
90
280
90
108
90
5
90
401
90
402
90
114
90
298
90
300
90
3
90
402
90
401
90
113
90
3
90
401
90
300
90
316
90
4
90
113
90
401
90
316
90
121
90
5
90
403
90
404
90
108
90
280
90
282
90
3
90
404
90
403
90
107
90
3
90
403
90
282
90
298
90
4
90
107
90
403
90
298
90
114
90
3
90
405
90
249
90
248
90
4
90
99
90
405
90
248
90
98
90
5
90
405
90
406
90
104
90
266
90
249
90
3
90
406
90
405
90
99
90
3
90
407
90
303
90
302
90
4
90
118
90
407
90
302
90
117
90
5
90
407
90
408
90
124
90
320
90
303
90
3
90
408
90
407
90
118
90
5
90
409
90
410
90
96
90
244
90
246
90
3
90
410
90
409
90
95
90
3
90
409
90
246
90
262
90
4
90
95
90
409
90
262
90
102
90
5
90
411
90
412
90
121
90
316
90
318
90
3
90
412
90
411
90
120
90
3
90
411
90
318
90
334
90
4
90
120
90
411
90
334
90
128
90
3
90
413
90
231
90
230
90
4
90
93
90
413
90
230
90
92
90
5
90
413
90
414
90
98
90
248
90
231
90
3
90
414
90
413
90
93
90
3
90
415
90
321
90
320
90
4
90
125
90
415
90
320
90
124
90
5
90
415
90
416
90
131
90
338
90
321
90
4
90
416
90
415
90
125
90
129
90
5
90
417
90
418
90
87
90
226
90
228
90
3
90
418
90
417
90
88
90
3
90
417
90
228
90
244
90
4
90
88
90
417
90
244
90
96
90
5
90
419
90
420
90
128
90
334
90
336
90
3
90
420
90
419
90
127
90
3
90
419
90
336
90
352
90
4
90
127
90
419
90
352
90
136
90
3
90
421
90
207
90
206
90
4
90
90
90
421
90
206
90
89
90
5
90
421
90
422
90
92
90
230
90
207
90
3
90
422
90
421
90
90
90
3
90
423
90
339
90
338
90
4
90
132
90
423
90
338
90
131
90
5
90
423
90
424
90
139
90
356
90
339
90
3
90
424
90
423
90
132
90
4
90
425
90
89
90
206
90
210
90
3
90
425
90
210
90
85
90
4
90
426
90
83
90
223
90
226
90
3
90
426
90
226
90
87
90
5
90
427
90
428
90
136
90
352
90
354
90
3
90
428
90
427
90
134
90
3
90
427
90
354
90
364
90
4
90
134
90
427
90
364
90
144
90
4
90
429
90
85
90
210
90
213
90
3
90
429
90
213
90
81
90
4
90
430
90
79
90
220
90
223
90
4
90
430
90
223
90
83
90
78
90
3
90
431
90
357
90
356
90
4
90
140
90
431
90
356
90
139
90
5
90
432
90
433
90
144
90
364
90
366
90
3
90
433
90
432
90
143
90
4
90
431
90
432
90
366
90
357
90
4
90
143
90
432
90
431
90
140
90
4
90
434
90
74
90
217
90
220
90
3
90
434
90
220
90
79
90
4
90
435
90
81
90
213
90
215
90
3
90
435
90
215
90
77
90
4
90
436
90
77
90
215
90
217
90
3
90
436
90
217
90
74
90
3
90
437
90
309
90
174
90
4
90
437
90
181
90
327
90
309
90
3
90
438
90
326
90
178
90
4
90
438
90
173
90
308
90
326
90
3
90
439
90
344
90
185
90
4
90
439
90
178
90
326
90
344
90
3
90
440
90
291
90
169
90
4
90
440
90
174
90
309
90
291
90
3
90
441
90
327
90
181
90
4
90
441
90
187
90
345
90
327
90
3
90
442
90
308
90
173
90
4
90
442
90
168
90
290
90
308
90
3
90
443
90
362
90
189
90
4
90
443
90
185
90
344
90
362
90
3
90
444
90
273
90
164
90
4
90
444
90
169
90
291
90
273
90
3
90
445
90
345
90
187
90
4
90
445
90
192
90
367
90
345
90
3
90
446
90
290
90
168
90
4
90
446
90
163
90
272
90
290
90
3
90
447
90
377
90
194
90
4
90
447
90
189
90
362
90
377
90
3
90
448
90
255
90
160
90
4
90
448
90
164
90
273
90
255
90
3
90
449
90
367
90
192
90
4
90
449
90
197
90
381
90
367
90
3
90
450
90
272
90
163
90
4
90
450
90
159
90
254
90
272
90
4
90
451
90
387
90
200
90
195
90
4
90
451
90
194
90
377
90
387
90
4
90
452
90
237
90
155
90
156
90
4
90
452
90
160
90
255
90
237
90
3
90
453
90
381
90
197
90
4
90
453
90
201
90
390
90
381
90
3
90
454
90
254
90
159
90
4
90
454
90
154
90
236
90
254
90
3
90
455
90
392
90
204
90
4
90
455
90
200
90
387
90
392
90
3
90
456
90
216
90
150
90
4
90
456
90
155
90
237
90
216
90
3
90
457
90
390
90
201
90
4
90
457
90
203
90
394
90
390
90
3
90
458
90
236
90
154
90
4
90
458
90
149
90
214
90
236
90
3
90
459
90
394
90
203
90
4
90
459
90
204
90
392
90
394
90
3
90
460
90
214
90
149
90
4
90
460
90
150
90
216
90
214
94
0
95
0
90
0
1001
CONDUITCAD
1000
{"id":"3d-hole-plate-004","label":"Counterbored hole","feature3d":{"version":1,"kind":"hole","parameters":{"holeType":1,"diameter":"HoleDiameter","counterDiameter":"HoleDiameter+8","counterDepth":4,"s
1000
egments":24},"inputs":["3d-hole-plate-003"],"suppressed":false,"attachment":{"face":1,"vertices":[4,5,6,7],"vertexCount":8,"faceCount":6}},"model3dConsumed":false,"model3dUserHidden":false}
0
MESH
5
104
330
117
100
AcDbEntity
8
Equipment
62
7
420
5543588
60
1
100
AcDbSubDMesh
71
2
72
0
91
0
92
8
10
170
20
0
30
0
10
235
20
0
30
0
10
235
20
45
30
0
10
170
20
45
30
0
10
170
20
0
30
20
10
235
20
0
30
20
10
235
20
45
30
20
10
170
20
45
30
20
93
30
90
4
90
0
90
3
90
2
90
1
90
4
90
4
90
5
90
6
90
7
90
4
90
0
90
1
90
5
90
4
90
4
90
1
90
2
90
6
90
5
90
4
90
2
90
3
90
7
90
6
90
4
90
3
90
0
90
4
90
7
94
0
95
0
90
0
1001
CONDUITCAD
1000
{"id":"3d-hole-plate-005","label":"Plate 3","feature3d":{"version":1,"kind":"box","parameters":{"width":65,"depth":45,"height":"PlateThickness","x":170},"inputs":[],"suppressed":false},"model3dConsume
1000
d":true,"model3dUserHidden":false}
0
MESH
5
105
330
117
100
AcDbEntity
8
Equipment
62
7
420
11243881
100
AcDbSubDMesh
71
2
72
0
91
0
92
532
10
235
20
41.32760170198041
30
1.632177021342038
10
235
20
41.32760170198041
30
0
10
235
20
45
30
0
10
235
20
45
30
20
10
235
20
41.32760170198041
30
20
10
235
20
3.6723982980196865
30
18.367822978657916
10
235
20
0
30
20
10
235
20
0
30
0
10
235
20
3.67239829801969
30
0
10
235
20
3.6723982980196865
30
20
10
235
20
31.778706171590436
30
5.876130590404248
10
235
20
31.778706171590436
30
0
10
235
20
31.778706171590436
30
20
10
235
20
13.221293828409566
30
14.123869409595748
10
235
20
13.22129382840957
30
0
10
235
20
13.221293828409566
30
20
10
235
20
23.221293828409653
30
9.679424965151263
10
235
20
23.221293828409657
30
0
10
235
20
23.221293828409653
30
20
10
235
20
21.778706171590432
30
10.320575034848696
10
235
20
21.778706171590432
30
0
10
235
20
21.778706171590432
30
20
10
190.53781880428366
20
0
30
13.68067113714349
10
170
20
0
30
20
10
170
20
0
30
0
10
190.53781880428366
20
0
30
0
10
190.53781880428366
20
0
30
20
10
194.5378188042834
20
0
30
12.44990190637434
10
194.5378188042834
20
0
30
0
10
194.5378188042834
20
0
30
16.000000000000284
10
194.5378188042834
20
0
30
20
10
200.4621811957166
20
0
30
10.62702117054874
10
200.4621811957166
20
0
30
0
10
200.4621811957166
20
0
30
20
10
206.45414422853972
20
0
30
8.783340237372398
10
206.45414422853972
20
0
30
0
10
206.45414422853972
20
0
30
20
10
213.51641274065685
20
0
30
6.610334541336357
10
213.51641274065685
20
0
30
0
10
213.51641274065685
20
0
30
20
10
223.67943949024243
20
0
30
3.483249387617711
10
223.67943949024243
20
0
30
0
10
223.67943949024243
20
0
30
20
10
196.46218119571634
20
45
30
8.14220959868195
10
196.46218119571634
20
45
30
0
10
170
20
45
30
0
10
170
20
45
30
20
10
196.46218119571634
20
45
30
20
10
200.4621811957166
20
45
30
9.372978829451265
10
200.4621811957166
20
45
30
0
10
200.4621811957166
20
45
30
15.999999999999746
10
200.4621811957166
20
45
30
20
10
206.4541442285397
20
45
30
11.216659762627597
10
206.4541442285397
20
45
30
0
10
206.4541442285397
20
45
30
20
10
213.51641274065688
20
45
30
13.389665458663657
10
213.51641274065688
20
45
30
0
10
213.51641274065688
20
45
30
20
10
223.67943949024246
20
45
30
16.516750612382292
10
223.67943949024246
20
45
30
0
10
223.67943949024246
20
45
30
20
10
194.2517763956569
20
28.210308649160616
30
20
10
194.9941983121953
20
27.696324245403265
30
20
10
193.80666756339838
20
24.82937140592269
30
20
10
199.6703708685549
20
38.98560345096354
30
20
10
195.49999999999991
20
7.308491774550026
30
20
10
193.5
20
22.500000000000004
30
20
10
195.15477642359252
20
27.58515478366672
30
20
10
194.70577136594002
20
26.99999999999996
30
20
10
198.79383749999008
20
32.327671511746885
30
20
10
193.80666756339838
20
20.1706285940773
30
20
10
196.37653336856465
20
13.966423713766089
30
20
10
196.13603896932102
20
28.86396103067888
30
20
10
198.58525213855108
20
30.74330839474259
30
20
10
194.70577136594005
20
18.000000000000004
30
20
10
196.58511873000361
20
15.550786830770146
30
20
10
198.00000000000003
20
30.294228634059955
30
20
10
198.55647552912612
20
30.52472834535273
30
20
10
196.13603896932108
20
16.136038969321067
30
20
10
196.61389533942855
20
15.769366880159943
30
20
10
198.58525213855108
20
14.256691605257407
30
20
10
198
20
14.705771365940052
30
20
10
198.55647552912612
20
14.475271654647266
30
20
10
200.85216914442938
20
31.475635775864667
30
20
10
200.1706285940773
20
31.193332436601615
30
20
10
200.76780039453124
20
31.271951595620134
30
20
10
200.85216914442938
20
13.524364224135327
30
20
10
200.1706285940773
20
13.806667563398385
30
20
10
200.76780039453126
20
13.728048404379862
30
20
10
203.2313830999456
20
31.596288411801048
30
20
10
202.5
20
31.5
30
20
10
203.0971718004539
20
31.421380840981485
30
20
10
203.23138309994556
20
13.403711588198954
30
20
10
202.5
20
13.5
30
20
10
203.09717180045388
20
13.578619159018515
30
20
10
205.56075450586832
20
31.09704402480056
30
20
10
204.82937140592267
20
31.193332436601615
30
20
10
205.38584693504873
20
30.962832725308857
30
20
10
205.56075450586832
20
13.902955975199436
30
20
10
204.8293714059227
20
13.806667563398387
30
20
10
205.38584693504873
20
14.037167274691134
30
20
10
207.68154055035208
20
30.011925294796892
30
20
10
207
20
30.29422863405995
30
20
10
207.47785637010756
20
29.92755654489876
30
20
10
221.79440555295687
20
9.142334617183705
30
20
10
207.6815405503521
20
14.988074705203118
30
20
10
207
20
14.705771365940054
30
20
10
207.47785637010756
20
15.07244345510125
30
20
10
209.44921316922992
20
28.414881269996354
30
20
10
208.86396103067892
20
28.86396103067893
30
20
10
209.2306331198401
20
28.386104660571405
30
20
10
209.44921316922992
20
16.585118730003646
30
20
10
211.41813729202036
20
16.325904951678204
30
20
10
208.86396103067892
20
16.13603896932107
30
20
10
209.2306331198401
20
16.61389533942859
30
20
10
210.74330839474254
20
26.414747861449005
30
20
10
210.29422863405995
20
27.000000000000004
30
20
10
210.5247283453527
20
26.44352447087395
30
20
10
209.84522357640748
20
17.41484521633328
30
20
10
210.74330839474254
20
18.58525213855102
30
20
10
210.29422863405995
20
18
30
20
10
210.5247283453527
20
18.55647552912607
30
20
10
211.47563577586467
20
24.147830855570625
30
20
10
221.48938528181282
20
20.00000000000003
30
20
10
211.19333243660162
20
24.829371405922686
30
20
10
211.27195159562015
20
24.23219960546875
30
20
10
215.45385137588016
20
22.499999999999986
30
20
10
211.47563577586467
20
20.852169144429354
30
20
10
211.19333243660162
20
20.170628594077314
30
20
10
211.27195159562015
20
20.76780039453123
30
20
10
214.15881186919108
20
21.9635770725204
30
20
10
212.95202716472886
20
23.53628951893223
30
20
10
212.64082814808708
20
21.334807627777558
30
20
10
211.59628841180108
20
21.768616900054365
30
20
10
212.32962913144536
20
21.205904774487387
30
20
10
211.4213808409815
20
21.90282819954608
30
20
10
211.5
20
22.500000000000057
30
20
10
211.7927864654066
20
21.617838640437505
30
20
10
194.2517763956569
20
28.210308649160616
30
0
10
197.91765355314274
20
25.672393693978094
30
0
10
196.61389533942855
20
15.76936688015994
30
0
10
198.58525213855108
20
14.256691605257405
30
0
10
197.5
20
22.499999999999993
30
0
10
197.67037086855467
20
23.794095225512613
30
0
10
198.33011017344182
20
25.386846803001802
30
0
10
198.55647552912612
20
14.475271654647264
30
0
10
200.85216914442938
20
13.524364224135327
30
0
10
197.67037086855467
20
21.205904774487394
30
0
10
198.16987298107782
20
25
30
0
10
198.41932023532917
20
25.32508599092595
30
0
10
200.76780039453126
20
13.72804840437986
30
0
10
203.23138309994556
20
13.403711588198952
30
0
10
198.16987298107782
20
20
30
0
10
198.96446609406726
20
26.03553390593273
30
0
10
203.09717180045388
20
13.578619159018515
30
0
10
205.56075450586832
20
13.902955975199436
30
0
10
198.96446609406726
20
18.964466094067262
30
0
10
200
20
26.830127018922195
30
0
10
205.38584693504873
20
14.037167274691134
30
0
10
207.6815405503521
20
14.988074705203118
30
0
10
221.79440555295687
20
9.142334617183705
30
0
10
200
20
18.169872981077805
30
0
10
201.2059047744874
20
27.32962913144534
30
0
10
207.47785637010756
20
15.07244345510125
30
0
10
209.44921316922992
20
16.585118730003646
30
0
10
211.41813729202036
20
16.325904951678204
30
0
10
201.2059047744874
20
17.67037086855466
30
0
10
202.5
20
27.5
30
0
10
209.2306331198401
20
16.61389533942859
30
0
10
209.84522357640748
20
17.41484521633328
30
0
10
210.74330839474254
20
18.58525213855102
30
0
10
202.5
20
17.5
30
0
10
208.56825434204123
20
18.2989008401253
30
0
10
221.48938528181282
20
20.00000000000003
30
0
10
203.7940952255126
20
27.329629131445344
30
0
10
211.47563577586467
20
20.852169144429354
30
0
10
215.45385137588016
20
22.499999999999986
30
0
10
210.5247283453527
20
18.55647552912607
30
0
10
203.7940952255126
20
17.67037086855466
30
0
10
207.34912594507986
20
19.142912807252397
30
0
10
205
20
26.83012701892219
30
0
10
212.32962913144536
20
21.205904774487387
30
0
10
205
20
18.16987298107781
30
0
10
206.78082764355975
20
19.536350092920173
30
0
10
210.64313139868466
20
22.5
30
0
10
206.03553390593274
20
26.035533905932738
30
0
10
209.45059741539382
20
21.584936490538887
30
0
10
206.03553390593274
20
18.964466094067262
30
0
10
206.58067976467083
20
19.674914009074044
30
0
10
208.74844448886958
20
22.500000000000007
30
0
10
206.83012701892218
20
25.000000000000004
30
0
10
208.17513902507415
20
21.752853773193298
30
0
10
207.86566092485492
20
22.5
30
0
10
206.83012701892218
20
19.999999999999996
30
0
10
207.32962913144533
20
23.79409522551261
30
0
10
207.5881904510252
20
21.830127018922227
30
0
10
207.5
20
22.500000000000004
30
0
10
207.32962913144533
20
21.205904774487394
30
0
10
206.85889717367846
20
29.671175251182277
30
19.414794041223367
10
206.5715656993423
20
29.55215865761559
30
19.143131398684623
10
206.4860363415065
20
28.024771639833467
30
17.86840133974619
10
205.6242222444348
20
27.911311661497948
30
17.248444488869602
10
208.25806343210303
20
28.25806343210303
30
19.143131398684673
10
206.2552280235924
20
27.005614851683884
30
16.911153306522863
10
205.18283046242746
20
27.146798669017876
30
16.365660924854936
10
206.9183174699474
20
26.918317469947404
30
17.2484444888696
10
206.11124305247466
20
26.369835075494304
30
16.313994020142953
10
205
20
26.83012701892219
30
16
10
206.2940952255126
20
26.294095225512603
30
16.36566092485493
10
206.03553390593274
20
26.035533905932738
30
16
10
206.5715656993423
20
15.447841342384432
30
19.1431313986846
10
207.53099968245917
20
16.837656326442847
30
18.620108911413578
10
208.25806343210303
20
16.74193656789697
30
19.143131398684673
10
205.6242222444348
20
17.088688338502052
30
17.248444488869602
10
205.51783485504956
20
17.897305495973576
30
16.536066332903538
10
206.9183174699474
20
18.081682530052607
30
17.24844448886958
10
205.18283046242746
20
17.85320133098213
30
16.36566092485493
10
206.2940952255126
20
18.705904774487394
30
16.365660924854932
10
205
20
18.16987298107781
30
16
10
206.03553390593274
20
18.964466094067262
30
16
10
202.5
20
14.356868601315291
30
19.14313139868471
10
204.0258016946625
20
15.08076669251182
30
18.62010891141358
10
204.60759749275192
20
14.63433907514505
30
19.143131398684673
10
202.5
20
16.2515555111304
30
17.2484444888696
10
202.81217439688584
20
17.005032206129332
30
16.536066332903523
10
204.1172164359853
20
16.46446609406729
30
17.248444488869566
10
202.5
20
17.134339075145082
30
16.365660924854918
10
203.88873523691484
20
17.317169537572532
30
16.365660924854936
10
202.5
20
17.5
30
16
10
203.7940952255126
20
17.67037086855466
30
16
10
201.17912291569343
20
17.681464277692687
30
15.644638955152399
10
201.2059047744874
20
17.67037086855466
30
16
10
201.2059047744874
20
17.67037086855466
30
15.659258262890686
10
200
20
18.169872981077805
30
15.000995774953708
10
200
20
18.169872981077805
30
16
10
202.6893280592986
20
30.88986852935338
30
19.414794041223413
10
202.5
20
30.64313139868469
30
19.14313139868469
10
203.18962291223588
20
29.27761076095683
30
17.868401339746175
10
202.5
20
28.748444488869595
30
17.248444488869595
10
204.6075974927519
20
30.365660924854918
30
19.14313139868464
10
203.4993154395923
20
28.279590933022874
30
16.911153306522845
10
202.5
20
27.86566092485492
30
16.36566092485492
10
204.1172164359853
20
28.535533905932716
30
17.24844448886957
10
203.69251068493597
20
27.65699701007148
30
16.313994020142953
10
202.5
20
27.5
30
16
10
203.88873523691484
20
27.682830462427468
30
16.36566092485493
10
203.7940952255126
20
27.329629131445344
30
16
10
200.51141910081475
20
30.65299239919105
30
19.414794041223377
10
200.39240250724808
20
30.365660924854918
30
19.14313139868464
10
201.41194983610188
20
29.225156818168628
30
17.868401339746192
10
200.88278356401466
20
28.535533905932756
30
17.248444488869612
10
201.96939638534343
20
28.34129801542442
30
16.91115330652286
10
201.11126476308516
20
27.68283046242747
30
16.365660924854936
10
202.31714782696207
20
27.78992107487322
30
16.313994020142946
10
201.2059047744874
20
27.32962913144534
30
16
10
208.5664080849683
20
28.298657775770458
30
19.414794041223402
10
207.78013156701908
20
26.80485749161189
30
17.868401339746182
10
209.55215865761562
20
26.571565699342333
30
19.14313139868466
10
207.2934106651049
20
25.880165217344647
30
16.91115330652286
10
207.91131166149793
20
25.624222244434797
30
17.24844448886959
10
206.98977994833592
20
25.303315164424657
30
16.313994020142957
10
207.14679866901787
20
25.18283046242747
30
16.365660924854936
10
206.83012701892218
20
25.000000000000004
30
16
10
204.22373962953696
20
17.273065372581083
30
16.53606633290355
10
205.89405014270696
20
15.728477474661545
30
18.620108911413464
10
204.8543346234206
20
30.554988984153507
30
19.41479404122338
10
204.92029932655672
20
28.86818173091718
30
17.868401339746164
10
204.96113279807977
20
27.824014279761464
30
16.911153306522866
10
204.9866059104486
20
27.172632121373866
30
16.313994020142957
10
198.46902864432516
20
29.860503310480834
30
19.414794041223317
10
198.42843430065773
20
29.552158657615532
30
19.143131398684552
10
199.70842558054966
20
28.714394552069344
30
17.868401339746185
10
199.3757777555652
20
27.911311661497933
30
17.248444488869588
10
200.47563709056948
20
28.00493029127618
30
16.911153306522877
10
199.81716953757254
20
27.14679866901788
30
16.365660924854936
10
200.9542460424032
20
27.562345760430286
30
16.31399402014296
10
200
20
26.83012701892219
30
16
10
209.86050331048088
20
26.5309713556749
30
19.414794041223388
10
208.71439455206934
20
25.291574419450335
30
17.86840133974618
10
210.36566092485492
20
24.607597492751918
30
19.14313139868464
10
208.00493029127617
20
24.524362909430515
30
16.911153306522866
10
208.53553390593274
20
24.11721643598534
30
17.248444488869602
10
207.56234576043028
20
24.0457539575968
30
16.313994020142953
10
207.68283046242746
20
23.88873523691486
30
16.365660924854925
10
207.32962913144533
20
23.794095225512606
30
16
10
199.93135300735796
20
18.22254767117564
30
14.939283536822682
10
198.96446609406726
20
18.964466094067262
30
14.070072036911775
10
198.96446609406726
20
18.964466094067262
30
16
10
208.8250949079717
20
18.33271454211181
30
18.620108911413517
10
209.5521586576156
20
18.428434300657685
30
19.14313139868463
10
206.60626962239846
20
18.83521164350315
30
16.53606633290355
10
207.91131166149793
20
19.3757777555652
30
17.248444488869605
10
207.14679866901787
20
19.817169537572532
30
16.36566092485494
10
206.83012701892218
20
20
30
16
10
198.98605826042916
20
26.052102157911143
30
15.666363150747998
10
198.96446609406726
20
26.035533905932734
30
16
10
198.96446609406726
20
26.035533905932734
30
15.659258262890681
10
210.65299239919105
20
24.488580899185234
30
19.41479404122338
10
209.2251568181686
20
23.588050163898103
30
17.868401339746182
10
210.64313139868466
20
22.5
30
19.143131398684666
10
208.3412980154244
20
23.030603614656556
30
16.911153306522845
10
208.74844448886958
20
22.5
30
17.248444488869573
10
207.78992107487323
20
22.682852173037922
30
16.313994020142946
10
207.86566092485492
20
22.5
30
16.36566092485492
10
207.5
20
22.5
30
16
10
198.86127375325006
20
19.098948970903102
30
13.92200363067546
10
198.16987298107782
20
20
30
12.929927963088232
10
198.16987298107782
20
20
30
16
10
209.68814536821966
20
20.111766374970983
30
18.62010891141358
10
210.36566092485495
20
20.39240250724808
30
19.143131398684673
10
207.41486890091227
20
20.02286706117888
30
16.53606633290356
10
208.53553390593274
20
20.882783564014662
30
17.248444488869605
10
207.68283046242746
20
21.111264763085142
30
16.36566092485492
10
207.32962913144533
20
21.205904774487397
30
16
10
198.10500356377256
20
20.15660862704159
30
13.922003630675466
10
198.16987298107782
20
20
30
14.070072036911778
10
197.67037086855467
20
21.205904774487394
30
12.92992796308824
10
197.67037086855467
20
21.205904774487394
30
16
10
198.2175227897179
20
25.06209843963076
30
15.040470168920091
10
198.16987298107782
20
25
30
16
10
198.16987298107782
20
25
30
15.000995774953697
10
210.88986852935335
20
22.31067194070142
30
19.4147940412234
10
210.06133560059524
20
22.05357238263323
30
18.620108911413574
10
209.2776107609568
20
21.810377087764113
30
17.868401339746164
10
209.45059741539382
20
21.584936490538887
30
18.07106781186547
10
207.88852798603378
20
21.379334994979523
30
16.53606633290353
10
208.17513902507415
20
21.752853773193294
30
16.773502691896248
10
207.5881904510252
20
21.830127018922223
30
16.17638090205042
10
197.21007892512677
20
22.317147826962078
30
16.313994020142946
10
197.4118095489748
20
21.830127018922223
30
16.17638090205042
10
197.5
20
22.5
30
16
10
197.13433907514508
20
22.5
30
16.36566092485492
10
197.75856131957988
20
24.46396820659042
30
16.17638090205041
10
197.31716953757254
20
23.888735236914858
30
16.365660924854925
10
197.67037086855467
20
23.794095225512603
30
16
10
197.11147201396622
20
23.620665005020474
30
16.536066332903538
10
196.82486097492585
20
23.247146226806702
30
16.773502691896248
10
197.58518543427732
20
23.14704761275628
30
15.829629131445344
10
197.6814642776927
20
23.82087708430658
30
15.644638955152386
10
197.67037086855467
20
23.794095225512603
30
15.659258262890674
10
197.6348595974054
20
21.47563965836741
30
12.664868226747524
10
197.58518543427732
20
21.852952387243704
30
12.294095225512606
10
197.5
20
22.5
30
12.929927963088227
10
197.72730554504787
20
23.93154769367181
30
14.176181381670144
10
197.67037086855467
20
23.794095225512603
30
14.070072036911764
10
197.53051467672825
20
22.73178198125702
30
13.134136159779928
10
207.41481456572268
20
21.852952387243715
30
15.829629131445339
10
198.42843430065767
20
25.6242222444348
30
16.176380902050415
10
197.85320133098216
20
25.182830462427457
30
16.365660924854915
10
197.82736787862615
20
24.98660591044858
30
16.313994020142943
10
197.58513109908773
20
24.97713293882112
30
16.536066332903545
10
196.46446609406726
20
24.117216435985334
30
17.248444488869595
10
196.7204090669771
20
23.49931543959229
30
16.911153306522856
10
197.43765423956972
20
20.954246042403202
30
16.31399402014295
10
197.75856131957988
20
20.536031793409585
30
16.17638090205041
10
197.3171695375725
20
21.11126476308513
30
16.365660924854954
10
196.6587019845756
20
21.969396385343448
30
16.911153306522838
10
196.25155551113045
20
22.5
30
17.248444488869563
10
195.7223892390432
20
23.18962291223589
30
17.868401339746157
10
195.54940258460618
20
23.415063509461113
30
18.071067811865454
10
207.3192138928424
20
21.180760164196847
30
15.666363150747987
10
207.32962913144533
20
21.205904774487397
30
15.659258262890669
10
198.06575920207374
20
20.251352897301565
30
12.66486822674752
10
197.67037086855467
20
21.205904774487394
30
11.658262487936987
10
197.6275451972983
20
21.531198043063032
30
11.977917649930857
10
197.21161232087397
20
20.309478100219238
30
16.773502691896276
10
197.27306537258107
20
20.776260370463007
30
16.536066332903587
10
196.99506970872383
20
20.47563709056949
30
16.911153306522863
10
196.46446609406726
20
20.882783564014662
30
17.248444488869595
10
197.85320133098216
20
19.817169537572543
30
16.365660924854915
10
195.7748431818314
20
21.411949836101904
30
17.86840133974617
10
194.35686860131534
20
22.5
30
19.143131398684645
10
198.01022005166408
20
19.696684835575347
30
16.31399402014296
10
198.4284343006577
20
19.375777755565196
30
16.176380902050415
10
194.9386643994048
20
22.946427617366783
30
18.62010891141354
10
207.49621624473113
20
22.471259525354835
30
15.644638955152395
10
207.5
20
22.5
30
15.659258262890681
10
207.41481456572268
20
21.85295238724369
30
15.330127018922187
10
198.19514250838816
20
27.780131567019076
30
17.86840133974614
10
198.08168253005263
20
26.918317469947365
30
17.24844448886955
10
199.11983478265535
20
27.29341066510489
30
16.91115330652286
10
198.7059047744874
20
26.294095225512596
30
16.365660924854925
10
199.69668483557535
20
26.989779948335936
30
16.31399402014296
10
197.99438514831616
20
26.25522802359237
30
16.91115330652283
10
198.6301649245057
20
26.11124305247467
30
16.31399402014295
10
194.11013147064665
20
22.689328059298585
30
19.41479404122338
10
193.57861915901853
20
23.097171800453935
30
20
10
207.29967520950976
20
21.133589609904256
30
15.040470168920095
10
207.32962913144533
20
21.205904774487397
30
15.0009957749537
10
206.83012701892218
20
20
30
15.659258262890681
10
206.81355876694377
20
19.978407833638112
30
15.666363150748
10
197.95875854768073
20
19.015382874706592
30
16.773502691896255
10
197.8973054959736
20
19.48216514495046
30
16.53606633290352
10
197.7065893348951
20
19.11983478265534
30
16.911153306522877
10
197.08868833850204
20
19.37577775556518
30
17.248444488869637
10
198.7059047744874
20
18.7059047744874
30
16.36566092485492
10
196.28560544793066
20
19.708425580549644
30
17.868401339746203
10
194.63433907514502
20
20.392402507248068
30
19.1431313986847
10
194.3470076008089
20
20.511419100814745
30
19.41479404122342
10
193.72804840437988
20
20.7678003945312
30
20
10
198.8887569475253
20
18.630164924505685
30
16.313994020142964
10
199.3757777555652
20
18.428434300657667
30
16.17638090205042
10
207.3334128867142
20
23.76535475086744
30
15.64463895515242
10
207.32962913144533
20
23.794095225512606
30
15.659258262890706
10
207.5
20
22.5
30
15.000995774953747
10
207.48870587655983
20
22.41421261542967
30
14.939283536822725
10
207.41481456572265
20
21.85295238724367
30
14.535533905932759
10
198.26044297206997
20
25.11803311027896
30
14.176181381670158
10
198.16987298107782
20
25
30
14.070072036911782
10
198.96446609406726
20
26.035533905932734
30
15.000995774953712
10
197.75983537394825
20
24.01008164778479
30
13.13413615977994
10
197.67037086855467
20
23.794095225512603
30
12.92992796308824
10
199.026564533698
20
26.083183714572797
30
15.040470168920102
10
200
20
26.83012701892219
30
15.659258262890688
10
197.6199969270289
20
21.5885328480059
30
11.269002559203292
10
197.58518543427732
20
21.852952387243693
30
11.000000000000009
10
197.5
20
22.5
30
11.658262487936993
10
200.02514461029054
20
26.840542257525122
30
15.666363150748007
10
197.54282567125637
20
22.825293268575635
30
11.977917649930873
10
204.3970476127563
20
27.079878075183768
30
15.829629131445337
10
204.3970476127563
20
17.920121924816236
30
15.829629131445339
10
207.3409232548855
20
23.70830784094227
30
14.939283536822671
10
207.32962913144533
20
23.794095225512606
30
15.000995774953697
10
207.5
20
22.5
30
14.070072036911771
10
206.8412204280602
20
24.973218141206026
30
15.644638955152391
10
206.83012701892218
20
25.000000000000004
30
15.65925826289068
10
207.48058064211975
20
22.352495332514657
30
14.176181381670155
10
198.31219045694124
20
25.185471745543946
30
13.134136159779938
10
198.16987298107782
20
25
30
12.929927963088238
10
198.96446609406726
20
26.035533905932734
30
14.070072036911778
10
199.08249920434622
20
26.126103896924878
30
14.176181381670155
10
200
20
26.83012701892219
30
15.000995774953708
10
197.79592938360037
20
24.097220295407354
30
11.97791764993087
10
197.67037086855467
20
23.794095225512603
30
11.658262487936987
10
200.07231516458313
20
26.86008094085777
30
15.040470168920102
10
201.2059047744874
20
27.32962913144534
30
15.659258262890688
10
197.5
20
22.5
30
10.341737512063025
10
201.23288826506874
20
27.333181575374
30
15.666363150748008
10
197.55566692514344
20
22.922832275601003
30
10.771898477392174
10
200.21598642227218
20
26.919591524315774
30
13.13413615977992
10
200
20
26.83012701892219
30
12.929927963088215
10
201.2059047744874
20
27.32962913144534
30
14.07007203691177
10
199.22476549270567
20
26.235268659462676
30
11.977917649930848
10
198.96446609406726
20
26.035533905932734
30
11.658262487936964
10
201.35340944197276
20
27.349048489325583
30
14.176181381670148
10
202.5
20
27.5
30
15.000995774953697
10
198.42949809020308
20
25.338350029638736
30
10.77189847739216
10
198.16987298107782
20
25
30
10.341737512063013
10
202.57760373057565
20
27.489783275047618
30
15.040470168920091
10
203.7940952255126
20
27.329629131445344
30
15.659258262890674
10
197.87077714875966
20
24.277918785168236
30
9.580279583888583
10
197.67037086855467
20
23.794095225512603
30
9.070072036911764
10
203.81923983580313
20
27.319213892842413
30
15.66636315074799
10
197.5654486575647
20
22.997131909869317
30
9.85322208142584
10
200.39240250724808
20
14.634339075145089
30
19.14313139868463
10
202.05357238263326
20
14.938664399404686
30
18.620108911413638
10
200.88278356401466
20
16.464466094067237
30
17.248444488869623
10
201.37933499497953
20
17.111472013966175
30
16.536066332903562
10
201.11126476308513
20
17.317169537572525
30
16.365660924854943
10
198.42843430065773
20
15.447841342384464
30
19.14313139868456
10
200.11176637497098
20
15.311854631780417
30
18.62010891141351
10
199.3757777555652
20
17.088688338502067
30
17.248444488869584
10
200.02286706117889
20
17.585131099087718
30
16.53606633290356
10
199.81716953757254
20
17.853201330982117
30
16.36566092485494
10
196.74193656789691
20
16.74193656789692
30
19.143131398684744
10
198.33271454211183
20
16.174905092028407
30
18.62010891141341
10
198.08168253005263
20
18.081682530052632
30
17.248444488869552
10
198.83521164350316
20
18.39373037760157
30
16.536066332903534
10
196.8376563264428
20
17.469000317540733
30
18.62010891141368
10
199.78415837384767
20
18.33549408595374
30
12.664868226747513
10
200
20
18.169872981077805
30
12.929927963088229
10
198.96446609406726
20
18.964466094067262
30
11.658262487936977
10
198.72952694425794
20
19.270644755172505
30
11.269002559203285
10
198.16987298107782
20
20
30
10.341737512063025
10
201.04929614744583
20
17.735240285859916
30
13.922003630675462
10
201.2059047744874
20
17.67037086855466
30
14.070072036911776
10
197.97798722623776
20
20.463253191761048
30
9.85322208142584
10
197.67037086855467
20
21.205904774487394
30
9.07007203691178
10
202.41421261542968
20
17.511294123440173
30
14.939283536822678
10
202.5
20
17.5
30
15.000995774953704
10
197.5909223823999
20
21.809375939947305
30
8.538392405105728
10
197.5
20
22.5
30
7.929927963088215
10
203.76535475086743
20
17.666587113285775
30
15.644638955152388
10
203.7940952255126
20
17.67037086855466
30
15.659258262890676
10
197.58021168116554
20
23.109268207101696
30
8.466714995449715
10
203.10109477968487
20
17.57913562903226
30
7.431409343456398
10
203.7940952255126
20
17.67037086855466
30
7.929927963088215
10
202.5
20
17.5
30
6.9990042250462885
10
201.74079482294738
20
17.599951257740262
30
6.612822220160721
10
201.2059047744874
20
17.67037086855466
30
6.340741737109315
10
204.4376543971829
20
17.9369418056501
30
8.538392405105716
10
205
20
18.16987298107781
30
9.070072036911771
10
200.46209310080388
20
17.978467751645795
30
6.130569518593266
10
200
20
18.169872981077805
30
5.999999999999988
10
205.63772937173638
20
18.659219939037996
30
9.853222081425832
10
206.03553390593274
20
18.964466094067262
30
10.341737512063018
10
199.35282429353063
20
18.66646836661611
30
5.999999999999988
10
198.96446609406726
20
18.964466094067262
30
5.999999999999988
10
206.59518786911286
20
19.693821338894757
30
11.269002559203278
10
206.83012701892218
20
20
30
11.658262487936971
10
198.4782253382689
20
19.598147384333174
30
6.208512403487536
10
198.16987298107782
20
20
30
6.340741737109308
10
207.22551535244125
20
20.954551877185832
30
12.664868226747505
10
207.32962913144533
20
21.205904774487397
30
12.929927963088222
10
197.88025191571262
20
20.69920710395357
30
6.722415164040829
10
197.67037086855467
20
21.205904774487394
30
6.999004225046285
10
207.47787424979424
20
22.331938241877552
30
13.922003630675455
10
197.57980087756252
20
21.89385215605546
30
7.493887859109476
10
203.79402927245403
20
27.329637814330226
30
0
10
201.20597072754597
20
17.670362185669777
30
0
10
202.50006595305857
20
17.500008682884882
30
0
10
202.49993404694143
20
27.499991317115118
30
0
10
204.9999385415334
20
26.830152475852586
30
0
10
200.0000614584666
20
18.16984752414741
30
0
10
203.7941566839792
20
17.670396325485054
30
0
10
201.2058433160208
20
27.329603674514946
30
0
10
206.035481130351
20
26.035574402060906
30
0
10
198.964518869649
20
18.964425597939094
30
0
10
205.00005277558174
20
18.169913477205977
30
0
10
199.99994722441826
20
26.830086522794023
30
0
10
206.830086522794
20
25.000052775581736
30
0
10
198.169913477206
20
19.999947224418268
30
0
10
206.03557440206092
20
18.964518869648995
30
0
10
198.96442559793908
20
26.035481130351002
30
0
10
207.32960367451494
20
23.79415668397922
30
0
10
197.67039632548506
20
21.20584331602078
30
0
10
206.83015247585257
20
20.000061458466615
30
0
10
198.16984752414743
20
24.999938541533385
30
0
10
207.4999913171151
20
22.500065953058563
30
0
10
197.5000086828849
20
22.499934046941437
30
0
10
207.32963781433023
20
21.20597072754596
30
0
10
197.67036218566977
20
23.79402927245404
30
0
93
2735
90
3
90
0
90
1
90
2
90
4
90
0
90
2
90
3
90
4
90
4
90
5
90
6
90
7
90
8
90
3
90
5
90
9
90
6
90
4
90
0
90
10
90
11
90
1
90
4
90
10
90
0
90
4
90
12
90
4
90
13
90
5
90
8
90
14
90
4
90
5
90
13
90
15
90
9
90
4
90
10
90
16
90
17
90
11
90
4
90
16
90
10
90
12
90
18
90
4
90
19
90
13
90
14
90
20
90
4
90
13
90
19
90
21
90
15
90
4
90
16
90
19
90
20
90
17
90
4
90
19
90
16
90
18
90
21
90
4
90
22
90
23
90
24
90
25
90
3
90
22
90
26
90
23
90
4
90
27
90
22
90
25
90
28
90
4
90
22
90
27
90
29
90
26
90
3
90
29
90
30
90
26
90
4
90
31
90
27
90
28
90
32
90
5
90
27
90
31
90
33
90
30
90
29
90
4
90
34
90
31
90
32
90
35
90
4
90
31
90
34
90
36
90
33
90
4
90
37
90
34
90
35
90
38
90
4
90
34
90
37
90
39
90
36
90
4
90
40
90
37
90
38
90
41
90
4
90
37
90
40
90
42
90
39
90
3
90
40
90
41
90
7
90
4
90
40
90
7
90
6
90
42
90
3
90
43
90
44
90
45
90
4
90
43
90
45
90
46
90
47
90
4
90
43
90
48
90
49
90
44
90
4
90
50
90
48
90
43
90
47
90
3
90
50
90
47
90
51
90
4
90
48
90
52
90
53
90
49
90
5
90
52
90
48
90
50
90
51
90
54
90
4
90
52
90
55
90
56
90
53
90
4
90
55
90
52
90
54
90
57
90
4
90
55
90
58
90
59
90
56
90
4
90
58
90
55
90
57
90
60
90
4
90
58
90
3
90
2
90
59
90
3
90
58
90
60
90
3
90
7
90
61
90
46
90
23
90
26
90
66
90
386
90
63
90
3
90
61
90
47
90
46
90
4
90
62
90
61
90
63
90
68
90
5
90
61
90
62
90
64
90
51
90
47
90
6
90
65
90
70
90
399
90
66
90
26
90
30
90
3
90
67
90
62
90
68
90
5
90
62
90
67
90
72
90
69
90
64
90
4
90
70
90
65
90
71
90
74
90
4
90
72
90
76
90
73
90
69
90
4
90
74
90
71
90
75
90
78
90
3
90
76
90
77
90
73
90
3
90
78
90
75
90
79
90
8
90
80
90
81
90
79
90
75
90
71
90
65
90
30
90
33
90
3
90
81
90
80
90
82
90
8
90
77
90
84
90
83
90
54
90
51
90
64
90
69
90
73
90
3
90
84
90
85
90
83
90
6
90
86
90
87
90
82
90
80
90
33
90
36
90
3
90
87
90
86
90
88
90
6
90
85
90
90
90
89
90
57
90
54
90
83
90
3
90
90
90
91
90
89
90
6
90
92
90
93
90
88
90
86
90
36
90
39
90
3
90
93
90
92
90
94
90
6
90
91
90
96
90
95
90
60
90
57
90
89
90
3
90
96
90
97
90
95
90
6
90
98
90
99
90
94
90
92
90
39
90
42
90
3
90
99
90
98
90
100
90
7
90
97
90
102
90
101
90
4
90
3
90
60
90
95
90
3
90
102
90
103
90
101
90
7
90
104
90
105
90
106
90
100
90
98
90
42
90
6
90
3
90
104
90
6
90
9
90
3
90
106
90
105
90
107
90
6
90
103
90
109
90
108
90
12
90
4
90
101
90
3
90
109
90
110
90
108
90
6
90
111
90
113
90
107
90
105
90
104
90
112
90
4
90
112
90
104
90
9
90
15
90
3
90
113
90
111
90
114
90
6
90
110
90
116
90
115
90
18
90
12
90
108
90
3
90
116
90
117
90
115
90
4
90
114
90
111
90
112
90
118
90
7
90
119
90
120
90
118
90
112
90
15
90
21
90
123
90
3
90
120
90
119
90
121
90
9
90
117
90
124
90
122
90
131
90
126
90
123
90
21
90
18
90
115
90
3
90
124
90
125
90
122
90
9
90
126
90
130
90
132
90
134
90
127
90
128
90
121
90
119
90
123
90
3
90
128
90
127
90
129
90
3
90
130
90
126
90
131
90
4
90
132
90
130
90
131
90
122
90
7
90
133
90
137
90
134
90
132
90
122
90
125
90
136
90
3
90
135
90
133
90
136
90
3
90
127
90
134
90
137
90
5
90
129
90
127
90
137
90
133
90
135
90
3
90
46
90
45
90
24
90
3
90
24
90
23
90
46
90
4
90
138
90
25
90
24
90
45
90
3
90
138
90
45
90
44
90
8
90
138
90
139
90
143
90
531
90
142
90
140
90
28
90
25
90
4
90
139
90
138
90
44
90
49
90
4
90
140
90
141
90
32
90
28
90
6
90
140
90
142
90
529
90
147
90
145
90
141
90
5
90
143
90
139
90
144
90
148
90
527
90
4
90
144
90
139
90
49
90
53
90
5
90
145
90
146
90
35
90
32
90
141
90
6
90
145
90
147
90
525
90
152
90
150
90
146
90
3
90
148
90
144
90
149
90
6
90
149
90
144
90
53
90
56
90
153
90
523
90
5
90
150
90
151
90
38
90
35
90
146
90
6
90
150
90
152
90
521
90
156
90
154
90
151
90
5
90
153
90
56
90
59
90
157
90
519
90
5
90
154
90
155
90
41
90
38
90
151
90
6
90
154
90
156
90
517
90
161
90
158
90
155
90
6
90
157
90
59
90
2
90
1
90
162
90
515
90
6
90
158
90
159
90
160
90
7
90
41
90
155
90
3
90
160
90
8
90
7
90
6
90
158
90
161
90
513
90
166
90
163
90
159
90
5
90
162
90
1
90
11
90
167
90
511
90
5
90
163
90
164
90
165
90
160
90
159
90
4
90
160
90
165
90
14
90
8
90
6
90
163
90
166
90
509
90
171
90
168
90
164
90
5
90
167
90
11
90
17
90
174
90
508
90
4
90
168
90
169
90
165
90
164
90
6
90
165
90
169
90
170
90
173
90
20
90
14
90
6
90
168
90
171
90
510
90
178
90
172
90
169
90
4
90
169
90
172
90
177
90
170
90
7
90
173
90
176
90
180
90
512
90
174
90
17
90
20
90
6
90
175
90
181
90
176
90
173
90
170
90
177
90
5
90
178
90
514
90
182
90
179
90
172
90
4
90
175
90
177
90
172
90
179
90
6
90
180
90
176
90
181
90
184
90
185
90
516
90
5
90
182
90
518
90
187
90
183
90
179
90
6
90
184
90
181
90
175
90
179
90
183
90
186
90
6
90
185
90
184
90
186
90
189
90
190
90
520
90
4
90
187
90
522
90
188
90
183
90
6
90
189
90
186
90
183
90
188
90
193
90
191
90
6
90
190
90
189
90
191
90
192
90
194
90
524
90
6
90
192
90
191
90
193
90
526
90
197
90
195
90
5
90
194
90
192
90
195
90
196
90
528
90
4
90
196
90
195
90
197
90
530
90
3
90
198
90
102
90
199
90
3
90
198
90
103
90
102
90
4
90
200
90
198
90
199
90
201
90
5
90
198
90
200
90
202
90
109
90
103
90
4
90
203
90
200
90
201
90
204
90
4
90
200
90
203
90
205
90
202
90
4
90
206
90
203
90
204
90
207
90
4
90
203
90
206
90
208
90
205
90
3
90
206
90
207
90
209
90
3
90
206
90
209
90
208
90
3
90
210
90
106
90
107
90
3
90
211
90
113
90
212
90
5
90
211
90
213
90
210
90
107
90
113
90
4
90
214
90
211
90
212
90
215
90
4
90
211
90
214
90
216
90
213
90
4
90
214
90
215
90
217
90
218
90
3
90
214
90
218
90
216
90
3
90
217
90
219
90
218
90
3
90
220
90
93
90
94
90
3
90
221
90
99
90
222
90
5
90
221
90
223
90
220
90
94
90
99
90
4
90
224
90
221
90
222
90
225
90
4
90
221
90
224
90
226
90
223
90
4
90
224
90
225
90
227
90
228
90
3
90
224
90
228
90
226
90
3
90
227
90
229
90
228
90
3
90
230
90
231
90
232
90
4
90
230
90
233
90
234
90
231
90
3
90
235
90
90
90
236
90
3
90
235
90
91
90
90
90
4
90
237
90
235
90
236
90
238
90
5
90
235
90
237
90
239
90
96
90
91
90
4
90
240
90
237
90
238
90
241
90
4
90
237
90
240
90
242
90
239
90
4
90
243
90
240
90
241
90
244
90
4
90
240
90
243
90
245
90
242
90
3
90
243
90
244
90
246
90
3
90
243
90
246
90
245
90
3
90
247
90
84
90
248
90
3
90
247
90
85
90
84
90
4
90
249
90
247
90
248
90
250
90
5
90
247
90
249
90
236
90
90
90
85
90
4
90
251
90
249
90
250
90
252
90
4
90
249
90
251
90
238
90
236
90
4
90
253
90
251
90
252
90
254
90
4
90
251
90
253
90
241
90
238
90
3
90
253
90
254
90
244
90
3
90
253
90
244
90
241
90
3
90
255
90
109
90
202
90
3
90
255
90
110
90
109
90
4
90
256
90
255
90
202
90
205
90
5
90
255
90
256
90
257
90
116
90
110
90
4
90
258
90
256
90
205
90
208
90
4
90
256
90
258
90
259
90
257
90
4
90
260
90
258
90
208
90
209
90
4
90
258
90
260
90
261
90
259
90
3
90
260
90
209
90
262
90
3
90
260
90
262
90
261
90
4
90
263
90
264
90
210
90
213
90
4
90
264
90
263
90
227
90
225
90
4
90
263
90
213
90
216
90
229
90
3
90
263
90
229
90
227
90
3
90
216
90
218
90
229
90
3
90
265
90
96
90
239
90
3
90
265
90
97
90
96
90
4
90
266
90
265
90
239
90
242
90
5
90
265
90
266
90
199
90
102
90
97
90
4
90
267
90
266
90
242
90
245
90
4
90
266
90
267
90
201
90
199
90
4
90
268
90
267
90
245
90
246
90
4
90
267
90
268
90
204
90
201
90
3
90
268
90
246
90
207
90
3
90
268
90
207
90
204
90
3
90
269
90
76
90
270
90
3
90
269
90
77
90
76
90
4
90
271
90
269
90
270
90
272
90
5
90
269
90
271
90
248
90
84
90
77
90
4
90
273
90
271
90
272
90
274
90
4
90
271
90
273
90
250
90
248
90
4
90
275
90
273
90
274
90
276
90
4
90
273
90
275
90
252
90
250
90
3
90
275
90
276
90
254
90
3
90
275
90
254
90
252
90
3
90
277
90
116
90
257
90
3
90
277
90
117
90
116
90
4
90
278
90
277
90
257
90
259
90
5
90
277
90
278
90
279
90
124
90
117
90
4
90
280
90
278
90
259
90
261
90
4
90
278
90
280
90
281
90
279
90
4
90
282
90
280
90
261
90
262
90
4
90
280
90
282
90
283
90
281
90
3
90
282
90
262
90
284
90
3
90
282
90
284
90
283
90
3
90
285
90
234
90
233
90
4
90
285
90
286
90
287
90
234
90
3
90
212
90
113
90
114
90
3
90
288
90
120
90
289
90
6
90
288
90
215
90
212
90
114
90
118
90
120
90
4
90
290
90
288
90
289
90
291
90
4
90
288
90
290
90
217
90
215
90
4
90
290
90
291
90
292
90
219
90
3
90
290
90
219
90
217
90
3
90
292
90
293
90
219
90
3
90
294
90
295
90
296
90
3
90
294
90
276
90
295
90
3
90
297
90
124
90
279
90
3
90
297
90
125
90
124
90
4
90
298
90
297
90
279
90
281
90
5
90
297
90
298
90
299
90
136
90
125
90
4
90
300
90
298
90
281
90
283
90
4
90
298
90
300
90
301
90
299
90
4
90
302
90
300
90
283
90
284
90
4
90
300
90
302
90
303
90
301
90
3
90
302
90
284
90
304
90
3
90
302
90
304
90
303
90
3
90
305
90
287
90
286
90
5
90
305
90
306
90
315
90
307
90
287
90
3
90
226
90
228
90
231
90
3
90
289
90
120
90
121
90
3
90
308
90
128
90
309
90
5
90
308
90
291
90
289
90
121
90
128
90
4
90
310
90
308
90
309
90
311
90
4
90
308
90
310
90
292
90
291
90
4
90
310
90
311
90
312
90
293
90
3
90
310
90
293
90
292
90
3
90
312
90
313
90
293
90
3
90
314
90
307
90
315
90
4
90
314
90
316
90
317
90
307
90
3
90
318
90
319
90
320
90
4
90
318
90
296
90
295
90
319
90
3
90
309
90
128
90
129
90
3
90
321
90
136
90
299
90
3
90
321
90
135
90
136
90
3
90
322
90
321
90
299
90
7
90
321
90
322
90
324
90
311
90
309
90
129
90
135
90
4
90
323
90
322
90
299
90
301
90
3
90
324
90
322
90
323
90
4
90
325
90
323
90
301
90
326
90
5
90
324
90
323
90
325
90
312
90
311
90
3
90
326
90
301
90
303
90
5
90
325
90
326
90
303
90
327
90
313
90
3
90
325
90
313
90
312
90
3
90
327
90
303
90
304
90
3
90
327
90
304
90
313
90
3
90
328
90
329
90
330
90
3
90
328
90
330
90
331
90
3
90
329
90
317
90
330
90
3
90
332
90
333
90
334
90
3
90
332
90
334
90
319
90
5
90
335
90
336
90
331
90
330
90
334
90
3
90
335
90
334
90
333
90
3
90
337
90
334
90
330
90
3
90
338
90
334
90
339
90
4
90
338
90
320
90
319
90
334
90
3
90
337
90
339
90
334
90
3
90
340
90
317
90
316
90
5
90
340
90
341
90
342
90
330
90
317
90
4
90
343
90
338
90
339
90
344
90
3
90
338
90
343
90
320
90
3
90
345
90
330
90
342
90
5
90
345
90
344
90
339
90
337
90
330
90
3
90
346
90
313
90
304
90
3
90
347
90
348
90
319
90
3
90
347
90
319
90
295
90
5
90
332
90
349
90
350
90
351
90
333
90
3
90
350
90
349
90
348
90
3
90
349
90
332
90
319
90
3
90
349
90
319
90
348
90
3
90
335
90
352
90
336
90
4
90
352
90
335
90
333
90
351
90
3
90
353
90
354
90
317
90
3
90
353
90
317
90
355
90
3
90
354
90
307
90
317
90
4
90
328
90
356
90
355
90
329
90
4
90
356
90
328
90
331
90
357
90
3
90
329
90
355
90
317
90
5
90
352
90
358
90
357
90
331
90
336
90
4
90
359
90
358
90
352
90
351
90
3
90
360
90
313
90
361
90
3
90
360
90
293
90
313
90
3
90
346
90
361
90
313
90
4
90
362
90
314
90
315
90
306
90
4
90
314
90
362
90
363
90
316
90
4
90
364
90
340
90
316
90
363
90
3
90
340
90
364
90
341
90
3
90
232
90
231
90
228
90
3
90
365
90
366
90
367
90
4
90
367
90
366
90
355
90
368
90
5
90
353
90
366
90
365
90
369
90
354
90
3
90
366
90
353
90
355
90
3
90
354
90
369
90
307
90
4
90
356
90
370
90
368
90
355
90
4
90
370
90
356
90
357
90
371
90
3
90
372
90
373
90
307
90
3
90
372
90
307
90
369
90
3
90
373
90
287
90
307
90
4
90
358
90
374
90
371
90
357
90
3
90
359
90
374
90
358
90
3
90
375
90
304
90
376
90
5
90
375
90
377
90
361
90
346
90
304
90
3
90
376
90
304
90
284
90
3
90
378
90
72
90
379
90
4
90
378
90
270
90
76
90
72
90
4
90
380
90
378
90
379
90
381
90
4
90
378
90
380
90
272
90
270
90
4
90
382
90
380
90
381
90
295
90
4
90
380
90
382
90
274
90
272
90
3
90
382
90
295
90
276
90
3
90
382
90
276
90
274
90
3
90
383
90
68
90
348
90
5
90
383
90
379
90
72
90
67
90
68
90
4
90
347
90
384
90
383
90
348
90
4
90
383
90
384
90
381
90
379
90
3
90
384
90
347
90
295
90
3
90
384
90
295
90
381
90
3
90
350
90
63
90
351
90
4
90
350
90
348
90
68
90
63
90
3
90
374
90
385
90
371
90
6
90
385
90
374
90
359
90
351
90
63
90
386
90
4
90
387
90
360
90
361
90
388
90
4
90
360
90
387
90
389
90
293
90
3
90
390
90
293
90
389
90
3
90
390
90
219
90
293
90
3
90
377
90
388
90
361
90
3
90
391
90
392
90
393
90
4
90
393
90
392
90
369
90
394
90
5
90
372
90
392
90
391
90
395
90
373
90
3
90
392
90
372
90
369
90
3
90
373
90
395
90
287
90
4
90
365
90
367
90
396
90
394
90
4
90
396
90
367
90
368
90
397
90
3
90
365
90
394
90
369
90
4
90
370
90
398
90
397
90
368
90
5
90
398
90
370
90
371
90
66
90
399
90
3
90
400
90
401
90
287
90
3
90
400
90
287
90
395
90
3
90
401
90
234
90
287
90
3
90
385
90
66
90
371
90
3
90
385
90
386
90
66
90
3
90
402
90
284
90
403
90
4
90
402
90
404
90
376
90
284
90
4
90
405
90
375
90
376
90
404
90
5
90
375
90
405
90
406
90
388
90
377
90
3
90
403
90
284
90
262
90
4
90
407
90
318
90
320
90
408
90
4
90
318
90
407
90
409
90
296
90
4
90
410
90
343
90
344
90
411
90
4
90
343
90
410
90
408
90
320
90
4
90
412
90
294
90
296
90
409
90
4
90
294
90
412
90
413
90
276
90
3
90
414
90
364
90
363
90
6
90
364
90
414
90
415
90
416
90
342
90
341
90
3
90
417
90
276
90
413
90
3
90
417
90
254
90
276
90
4
90
418
90
345
90
342
90
416
90
4
90
345
90
418
90
411
90
344
90
3
90
419
90
207
90
246
90
3
90
420
90
229
90
218
90
4
90
421
90
402
90
403
90
422
90
4
90
402
90
421
90
423
90
404
90
3
90
424
90
262
90
425
90
4
90
424
90
422
90
403
90
262
90
4
90
426
90
405
90
404
90
423
90
3
90
405
90
426
90
406
90
3
90
425
90
262
90
209
90
4
90
427
90
407
90
408
90
428
90
4
90
407
90
427
90
429
90
409
90
4
90
430
90
412
90
409
90
429
90
4
90
412
90
430
90
431
90
413
90
4
90
432
90
410
90
411
90
433
90
4
90
410
90
432
90
428
90
408
90
4
90
434
90
417
90
413
90
431
90
4
90
417
90
434
90
435
90
254
90
3
90
415
90
436
90
416
90
3
90
437
90
254
90
435
90
3
90
437
90
244
90
254
90
4
90
438
90
418
90
416
90
436
90
4
90
418
90
438
90
433
90
411
90
4
90
439
90
434
90
431
90
440
90
4
90
434
90
439
90
441
90
435
90
4
90
442
90
430
90
429
90
443
90
4
90
430
90
442
90
440
90
431
90
4
90
444
90
437
90
435
90
441
90
4
90
437
90
444
90
445
90
244
90
4
90
446
90
427
90
428
90
447
90
4
90
427
90
446
90
443
90
429
90
3
90
448
90
244
90
445
90
4
90
448
90
449
90
246
90
244
90
4
90
450
90
432
90
433
90
451
90
4
90
432
90
450
90
447
90
428
90
3
90
452
90
246
90
449
90
3
90
452
90
419
90
246
90
3
90
453
90
438
90
436
90
4
90
438
90
453
90
451
90
433
90
3
90
454
90
87
90
88
90
3
90
455
90
93
90
220
90
5
90
455
90
456
90
454
90
88
90
93
90
4
90
457
90
455
90
220
90
223
90
4
90
455
90
457
90
458
90
456
90
4
90
457
90
223
90
226
90
231
90
3
90
457
90
231
90
458
90
3
90
459
90
81
90
82
90
3
90
460
90
87
90
454
90
5
90
460
90
461
90
459
90
82
90
87
90
4
90
462
90
460
90
454
90
456
90
4
90
460
90
462
90
463
90
461
90
4
90
462
90
456
90
458
90
234
90
3
90
462
90
234
90
463
90
3
90
458
90
231
90
234
90
3
90
464
90
78
90
79
90
3
90
465
90
81
90
459
90
5
90
465
90
466
90
464
90
79
90
81
90
4
90
467
90
465
90
459
90
461
90
4
90
465
90
467
90
395
90
466
90
5
90
400
90
467
90
461
90
463
90
401
90
3
90
467
90
400
90
395
90
3
90
401
90
463
90
234
90
3
90
468
90
78
90
464
90
4
90
468
90
394
90
74
90
78
90
5
90
391
90
393
90
468
90
464
90
466
90
3
90
468
90
393
90
394
90
3
90
391
90
466
90
395
90
3
90
396
90
74
90
394
90
4
90
396
90
397
90
70
90
74
90
3
90
222
90
99
90
100
90
3
90
264
90
106
90
210
90
5
90
264
90
225
90
222
90
100
90
106
90
3
90
398
90
70
90
397
90
3
90
398
90
399
90
70
90
4
90
469
90
285
90
233
90
470
90
4
90
285
90
469
90
471
90
286
90
4
90
472
90
305
90
286
90
471
90
4
90
305
90
472
90
473
90
306
90
4
90
474
90
230
90
232
90
475
90
4
90
230
90
474
90
470
90
233
90
4
90
476
90
362
90
306
90
473
90
4
90
362
90
476
90
477
90
363
90
3
90
478
90
228
90
479
90
4
90
478
90
475
90
232
90
228
90
4
90
480
90
414
90
363
90
477
90
5
90
414
90
480
90
481
90
436
90
415
90
3
90
482
90
229
90
483
90
4
90
482
90
479
90
228
90
229
90
4
90
484
90
453
90
436
90
481
90
3
90
453
90
484
90
451
90
3
90
420
90
483
90
229
90
4
90
485
90
482
90
483
90
486
90
4
90
482
90
485
90
487
90
479
90
4
90
488
90
478
90
479
90
487
90
4
90
478
90
488
90
489
90
475
90
3
90
490
90
218
90
491
90
5
90
490
90
486
90
483
90
420
90
218
90
4
90
492
90
474
90
475
90
489
90
4
90
474
90
492
90
493
90
470
90
3
90
494
90
219
90
495
90
4
90
494
90
491
90
218
90
219
90
4
90
496
90
469
90
470
90
493
90
4
90
469
90
496
90
497
90
471
90
4
90
498
90
390
90
389
90
499
90
4
90
390
90
498
90
495
90
219
90
4
90
500
90
472
90
471
90
497
90
4
90
472
90
500
90
501
90
473
90
4
90
502
90
387
90
388
90
503
90
4
90
387
90
502
90
499
90
389
90
4
90
504
90
476
90
473
90
501
90
4
90
476
90
504
90
505
90
477
90
3
90
506
90
426
90
423
90
5
90
426
90
506
90
503
90
388
90
406
90
4
90
507
90
480
90
477
90
505
90
3
90
480
90
507
90
481
90
4
90
508
90
448
90
445
90
167
90
4
90
448
90
508
90
174
90
449
90
4
90
509
90
488
90
487
90
171
90
4
90
488
90
509
90
166
90
489
90
4
90
510
90
485
90
486
90
178
90
4
90
485
90
510
90
171
90
487
90
4
90
511
90
444
90
441
90
162
90
4
90
444
90
511
90
167
90
445
90
4
90
512
90
452
90
449
90
174
90
5
90
452
90
512
90
180
90
207
90
419
90
4
90
513
90
492
90
489
90
166
90
4
90
492
90
513
90
161
90
493
90
4
90
514
90
490
90
491
90
182
90
4
90
490
90
514
90
178
90
486
90
4
90
515
90
439
90
440
90
157
90
4
90
439
90
515
90
162
90
441
90
3
90
516
90
207
90
180
90
4
90
516
90
185
90
209
90
207
90
4
90
517
90
496
90
493
90
161
90
4
90
496
90
517
90
156
90
497
90
4
90
518
90
494
90
495
90
187
90
4
90
494
90
518
90
182
90
491
90
4
90
519
90
442
90
443
90
153
90
4
90
442
90
519
90
157
90
440
90
3
90
520
90
209
90
185
90
4
90
520
90
190
90
425
90
209
90
4
90
521
90
500
90
497
90
156
90
4
90
500
90
521
90
152
90
501
90
5
90
522
90
498
90
499
90
193
90
188
90
4
90
498
90
522
90
187
90
495
90
5
90
523
90
446
90
447
90
148
90
149
90
4
90
446
90
523
90
153
90
443
90
4
90
524
90
424
90
425
90
190
90
4
90
424
90
524
90
194
90
422
90
4
90
525
90
504
90
501
90
152
90
4
90
504
90
525
90
147
90
505
90
4
90
526
90
502
90
503
90
197
90
4
90
502
90
526
90
193
90
499
90
4
90
527
90
450
90
451
90
143
90
4
90
450
90
527
90
148
90
447
90
4
90
528
90
421
90
422
90
194
90
4
90
421
90
528
90
196
90
423
90
4
90
529
90
507
90
505
90
147
90
4
90
507
90
529
90
142
90
481
90
4
90
530
90
506
90
423
90
196
90
4
90
506
90
530
90
197
90
503
90
4
90
531
90
484
90
481
90
142
90
4
90
484
90
531
90
143
90
451
94
0
95
0
90
0
1001
CONDUITCAD
1000
{"id":"3d-hole-plate-006","label":"Countersunk hole","feature3d":{"version":1,"kind":"hole","parameters":{"holeType":2,"diameter":"HoleDiameter","counterDiameter":"HoleDiameter+8","counterDepth":4,"se
1000
gments":24},"inputs":["3d-hole-plate-005"],"suppressed":false,"attachment":{"face":1,"vertices":[4,5,6,7],"vertexCount":8,"faceCount":6}},"model3dConsumed":false,"model3dUserHidden":false}
0
ENDSEC
0
SECTION
2
OBJECTS
0
DICTIONARY
5
123
330
0
100
AcDbDictionary
281
1
3
ACAD_LAYOUT
350
124
3
ACAD_GROUP
350
125
3
CONDUITCAD_METADATA
350
128
0
DICTIONARY
5
124
330
123
100
AcDbDictionary
281
1
3
Model
350
126
3
Layout1
350
127
0
DICTIONARY
5
125
330
123
100
AcDbDictionary
281
1
0
LAYOUT
5
126
330
124
100
AcDbPlotSettings
1

2

4

6

40
0
41
0
42
0
43
0
44
420
45
297
46
0
47
0
48
0
49
0
140
0
141
0
142
1
143
1
70
0
72
1
73
0
74
5
7

75
16
76
0
77
0
78
300
147
1
148
0
149
0
100
AcDbLayout
1
Model
70
1
71
0
10
0
20
0
11
420
21
297
12
0
22
0
32
0
14
0
24
0
34
0
15
420
25
297
35
0
146
0
13
0
23
0
33
0
16
1
26
0
36
0
17
0
27
1
37
0
76
0
330
117
0
LAYOUT
5
127
330
124
100
AcDbPlotSettings
1

2

4

6

40
0
41
0
42
0
43
0
44
420
45
297
46
0
47
0
48
0
49
0
140
0
141
0
142
1
143
1
70
0
72
1
73
0
74
5
7

75
16
76
0
77
0
78
300
147
1
148
0
149
0
100
AcDbLayout
1
Layout1
70
1
71
1
10
0
20
0
11
420
21
297
12
0
22
0
32
0
14
0
24
0
34
0
15
420
25
297
35
0
146
0
13
0
23
0
33
0
16
1
26
0
36
0
17
0
27
1
37
0
76
0
330
118
0
XRECORD
5
128
330
123
100
AcDbXrecord
280
1
1
{"parameters":{"grid":"10","HoleDiameter":"10","PlateThickness":"20"},"constraints":[],"metadata":{"description":"Three editable plates compare simple, counterbore and countersink holes. Change HoleDi
1
ameter or PlateThickness.","modeling":{"version":1,"preferredMode":"3d","example":"hole-plate","notes":"Editable faceted concept model. Not certified or construction-approved."}}}
0
ENDSEC
0
EOF
