0
SECTION
2
HEADER
9
$ACADVER
1
AC1032
9
$INSUNITS
70
4
9
$LTSCALE
40
1
9
$MEASUREMENT
70
1
999
CONDUIT:{"parameters":{"grid":"10"},"constraints":[],"metadata":{"description":"Six editable primitive features plus a 2D reference outline. Try face selection, XYZ edits and section analy
999
CONDUIT:sis.","modeling":{"version":1,"preferredMode":"3d","example":"primitives","notes":"Editable faceted concept model. Not certified or construction-approved."}}}
9
$HANDSEED
5
12A
9
$DWGCODEPAGE
3
ANSI_1252
9
$CLAYER
8
0
9
$TILEMODE
70
1
0
ENDSEC
0
SECTION
2
TABLES
0
TABLE
2
LTYPE
5
107
330
0
100
AcDbSymbolTable
70
4
0
LTYPE
5
108
100
AcDbSymbolTableRecord
100
AcDbLinetypeTableRecord
2
CONTINUOUS
70
0
3
Solid line
72
65
73
0
40
0
330
107
0
LTYPE
5
109
100
AcDbSymbolTableRecord
100
AcDbLinetypeTableRecord
2
DASHED
70
0
3
DASHED
72
65
73
2
40
12
49
8
74
0
49
-4
74
0
330
107
0
LTYPE
5
10A
100
AcDbSymbolTableRecord
100
AcDbLinetypeTableRecord
2
CENTER
70
0
3
CENTER
72
65
73
4
40
20
49
12
74
0
49
-3
74
0
49
2
74
0
49
-3
74
0
330
107
0
LTYPE
5
10B
100
AcDbSymbolTableRecord
100
AcDbLinetypeTableRecord
2
HIDDEN
70
0
3
HIDDEN
72
65
73
2
40
7
49
4
74
0
49
-3
74
0
330
107
0
ENDTAB
0
TABLE
2
LAYER
5
10C
330
0
100
AcDbSymbolTable
70
6
0
LAYER
5
10D
100
AcDbSymbolTableRecord
100
AcDbLayerTableRecord
2
0
70
0
62
7
420
3426133
6
CONTINUOUS
330
10C
0
LAYER
5
10E
100
AcDbSymbolTableRecord
100
AcDbLayerTableRecord
2
Equipment
70
0
62
7
420
3495011
6
CONTINUOUS
330
10C
0
LAYER
5
10F
100
AcDbSymbolTableRecord
100
AcDbLayerTableRecord
2
Process
70
0
62
7
420
1342583
6
CONTINUOUS
330
10C
0
LAYER
5
110
100
AcDbSymbolTableRecord
100
AcDbLayerTableRecord
2
Instruments
70
0
62
7
420
10187334
6
CONTINUOUS
330
10C
0
LAYER
5
111
100
AcDbSymbolTableRecord
100
AcDbLayerTableRecord
2
Electrical
70
0
62
7
420
6584250
6
CONTINUOUS
330
10C
0
LAYER
5
112
100
AcDbSymbolTableRecord
100
AcDbLayerTableRecord
2
Annotations
70
0
62
7
420
7438474
6
CONTINUOUS
330
10C
0
ENDTAB
0
TABLE
2
STYLE
5
113
330
0
100
AcDbSymbolTable
70
1
0
STYLE
5
114
100
AcDbSymbolTableRecord
100
AcDbTextStyleTableRecord
2
STANDARD
70
0
40
0
41
1
50
0
71
0
42
2.5
3
txt
4

330
113
0
ENDTAB
0
TABLE
2
APPID
5
115
330
0
100
AcDbSymbolTable
70
2
0
APPID
5
116
100
AcDbSymbolTableRecord
100
AcDbRegAppTableRecord
2
CONDUITCAD
70
0
330
115
0
APPID
5
123
100
AcDbSymbolTableRecord
100
AcDbRegAppTableRecord
2
ACAD
70
0
330
115
0
ENDTAB
0
TABLE
2
BLOCK_RECORD
5
117
330
0
100
AcDbSymbolTable
70
2
0
BLOCK_RECORD
5
118
100
AcDbSymbolTableRecord
100
AcDbBlockTableRecord
2
*Model_Space
340
127
330
117
0
BLOCK_RECORD
5
119
100
AcDbSymbolTableRecord
100
AcDbBlockTableRecord
2
*Paper_Space
340
128
330
117
0
ENDTAB
0
TABLE
2
VPORT
5
11E
330
0
100
AcDbSymbolTable
70
0
0
ENDTAB
0
TABLE
2
VIEW
5
11F
330
0
100
AcDbSymbolTable
70
0
0
ENDTAB
0
TABLE
2
UCS
5
120
330
0
100
AcDbSymbolTable
70
0
0
ENDTAB
0
TABLE
2
DIMSTYLE
5
121
330
0
100
AcDbSymbolTable
70
1
100
AcDbDimStyleTable
71
0
0
DIMSTYLE
105
122
330
121
100
AcDbSymbolTableRecord
100
AcDbDimStyleTableRecord
2
STANDARD
70
0
340
114
0
ENDTAB
0
ENDSEC
0
SECTION
2
BLOCKS
0
BLOCK
5
11A
330
118
100
AcDbEntity
8
0
100
AcDbBlockBegin
2
*Model_Space
70
1
10
0
20
0
30
0
3
*Model_Space
1

1001
CONDUITCAD
1000
{"ports":[]}
0
ENDBLK
5
11B
330
118
100
AcDbEntity
8
0
100
AcDbBlockEnd
0
BLOCK
5
11C
330
119
100
AcDbEntity
8
0
100
AcDbBlockBegin
2
*Paper_Space
70
1
10
0
20
0
30
0
3
*Paper_Space
1

1001
CONDUITCAD
1000
{"ports":[]}
0
ENDBLK
5
11D
330
119
100
AcDbEntity
8
0
100
AcDbBlockEnd
0
ENDSEC
0
SECTION
2
ENTITIES
0
MESH
5
100
330
118
100
AcDbEntity
8
Equipment
62
7
420
5671313
100
AcDbSubDMesh
71
2
72
0
91
0
92
8
10
0
20
0
30
0
10
60
20
0
30
0
10
60
20
45
30
0
10
0
20
45
30
0
10
0
20
0
30
40
10
60
20
0
30
40
10
60
20
45
30
40
10
0
20
45
30
40
93
30
90
4
90
0
90
3
90
2
90
1
90
4
90
4
90
5
90
6
90
7
90
4
90
0
90
1
90
5
90
4
90
4
90
1
90
2
90
6
90
5
90
4
90
2
90
3
90
7
90
6
90
4
90
3
90
0
90
4
90
7
94
0
95
0
90
0
1001
CONDUITCAD
1000
{"id":"3d-primitives-001","label":"Box","feature3d":{"version":1,"kind":"box","parameters":{"width":60,"depth":45,"height":40},"inputs":[],"suppressed":false},"model3dConsumed":false,"model3dUserHidde
1000
n":false}
0
MESH
5
101
330
118
100
AcDbEntity
8
Equipment
62
7
420
11570008
100
AcDbSubDMesh
71
2
72
0
91
0
92
96
10
140
20
0
30
0
10
139.78612153434526
20
3.2631548055012893
30
0
10
139.1481456572267
20
6.4704761275630185
30
0
10
138.09698831278217
20
9.567085809127244
30
0
10
136.65063509461098
20
12.499999999999998
30
0
10
134.83383350728087
20
15.219035725218017
30
0
10
132.6776695296637
20
17.677669529663685
30
0
10
130.21903572521802
20
19.83383350728088
30
0
10
127.5
20
21.650635094610966
30
0
10
124.56708580912725
20
23.09698831278217
30
0
10
121.47047612756302
20
24.148145657226706
30
0
10
118.26315480550129
20
24.78612153434526
30
0
10
115
20
25
30
0
10
111.73684519449871
20
24.78612153434526
30
0
10
108.52952387243698
20
24.148145657226706
30
0
10
105.43291419087276
20
23.09698831278217
30
0
10
102.5
20
21.65063509461097
30
0
10
99.78096427478198
20
19.83383350728088
30
0
10
97.32233047033631
20
17.67766952966369
30
0
10
95.16616649271913
20
15.219035725218022
30
0
10
93.34936490538902
20
12.499999999999998
30
0
10
91.90301168721783
20
9.567085809127247
30
0
10
90.8518543427733
20
6.470476127563026
30
0
10
90.21387846565474
20
3.2631548055012995
30
0
10
90
20
3.061616997868383e-15
30
0
10
90.21387846565474
20
-3.263154805501294
30
0
10
90.8518543427733
20
-6.47047612756302
30
0
10
91.90301168721783
20
-9.567085809127242
30
0
10
93.34936490538902
20
-12.499999999999993
30
0
10
95.16616649271913
20
-15.219035725218017
30
0
10
97.32233047033631
20
-17.677669529663678
30
0
10
99.78096427478198
20
-19.833833507280872
30
0
10
102.49999999999999
20
-21.650635094610962
30
0
10
105.43291419087276
20
-23.09698831278217
30
0
10
108.52952387243698
20
-24.148145657226706
30
0
10
111.73684519449871
20
-24.78612153434526
30
0
10
115
20
-25
30
0
10
118.26315480550129
20
-24.786121534345263
30
0
10
121.470476127563
20
-24.14814565722671
30
0
10
124.56708580912724
20
-23.096988312782173
30
0
10
127.5
20
-21.650635094610966
30
0
10
130.219035725218
20
-19.833833507280893
30
0
10
132.6776695296637
20
-17.677669529663692
30
0
10
134.83383350728087
20
-15.219035725218022
30
0
10
136.65063509461095
20
-12.50000000000001
30
0
10
138.09698831278217
20
-9.567085809127239
30
0
10
139.1481456572267
20
-6.470476127563039
30
0
10
139.78612153434526
20
-3.263154805501292
30
0
10
140
20
0
30
60
10
139.78612153434526
20
3.2631548055012893
30
60
10
139.1481456572267
20
6.4704761275630185
30
60
10
138.09698831278217
20
9.567085809127244
30
60
10
136.65063509461098
20
12.499999999999998
30
60
10
134.83383350728087
20
15.219035725218017
30
60
10
132.6776695296637
20
17.677669529663685
30
60
10
130.21903572521802
20
19.83383350728088
30
60
10
127.5
20
21.650635094610966
30
60
10
124.56708580912725
20
23.09698831278217
30
60
10
121.47047612756302
20
24.148145657226706
30
60
10
118.26315480550129
20
24.78612153434526
30
60
10
115
20
25
30
60
10
111.73684519449871
20
24.78612153434526
30
60
10
108.52952387243698
20
24.148145657226706
30
60
10
105.43291419087276
20
23.09698831278217
30
60
10
102.5
20
21.65063509461097
30
60
10
99.78096427478198
20
19.83383350728088
30
60
10
97.32233047033631
20
17.67766952966369
30
60
10
95.16616649271913
20
15.219035725218022
30
60
10
93.34936490538902
20
12.499999999999998
30
60
10
91.90301168721783
20
9.567085809127247
30
60
10
90.8518543427733
20
6.470476127563026
30
60
10
90.21387846565474
20
3.2631548055012995
30
60
10
90
20
3.061616997868383e-15
30
60
10
90.21387846565474
20
-3.263154805501294
30
60
10
90.8518543427733
20
-6.47047612756302
30
60
10
91.90301168721783
20
-9.567085809127242
30
60
10
93.34936490538902
20
-12.499999999999993
30
60
10
95.16616649271913
20
-15.219035725218017
30
60
10
97.32233047033631
20
-17.677669529663678
30
60
10
99.78096427478198
20
-19.833833507280872
30
60
10
102.49999999999999
20
-21.650635094610962
30
60
10
105.43291419087276
20
-23.09698831278217
30
60
10
108.52952387243698
20
-24.148145657226706
30
60
10
111.73684519449871
20
-24.78612153434526
30
60
10
115
20
-25
30
60
10
118.26315480550129
20
-24.786121534345263
30
60
10
121.470476127563
20
-24.14814565722671
30
60
10
124.56708580912724
20
-23.096988312782173
30
60
10
127.5
20
-21.650635094610966
30
60
10
130.219035725218
20
-19.833833507280893
30
60
10
132.6776695296637
20
-17.677669529663692
30
60
10
134.83383350728087
20
-15.219035725218022
30
60
10
136.65063509461095
20
-12.50000000000001
30
60
10
138.09698831278217
20
-9.567085809127239
30
60
10
139.1481456572267
20
-6.470476127563039
30
60
10
139.78612153434526
20
-3.263154805501292
30
60
93
338
90
48
90
47
90
46
90
45
90
44
90
43
90
42
90
41
90
40
90
39
90
38
90
37
90
36
90
35
90
34
90
33
90
32
90
31
90
30
90
29
90
28
90
27
90
26
90
25
90
24
90
23
90
22
90
21
90
20
90
19
90
18
90
17
90
16
90
15
90
14
90
13
90
12
90
11
90
10
90
9
90
8
90
7
90
6
90
5
90
4
90
3
90
2
90
1
90
0
90
48
90
48
90
49
90
50
90
51
90
52
90
53
90
54
90
55
90
56
90
57
90
58
90
59
90
60
90
61
90
62
90
63
90
64
90
65
90
66
90
67
90
68
90
69
90
70
90
71
90
72
90
73
90
74
90
75
90
76
90
77
90
78
90
79
90
80
90
81
90
82
90
83
90
84
90
85
90
86
90
87
90
88
90
89
90
90
90
91
90
92
90
93
90
94
90
95
90
4
90
0
90
1
90
49
90
48
90
4
90
1
90
2
90
50
90
49
90
4
90
2
90
3
90
51
90
50
90
4
90
3
90
4
90
52
90
51
90
4
90
4
90
5
90
53
90
52
90
4
90
5
90
6
90
54
90
53
90
4
90
6
90
7
90
55
90
54
90
4
90
7
90
8
90
56
90
55
90
4
90
8
90
9
90
57
90
56
90
4
90
9
90
10
90
58
90
57
90
4
90
10
90
11
90
59
90
58
90
4
90
11
90
12
90
60
90
59
90
4
90
12
90
13
90
61
90
60
90
4
90
13
90
14
90
62
90
61
90
4
90
14
90
15
90
63
90
62
90
4
90
15
90
16
90
64
90
63
90
4
90
16
90
17
90
65
90
64
90
4
90
17
90
18
90
66
90
65
90
4
90
18
90
19
90
67
90
66
90
4
90
19
90
20
90
68
90
67
90
4
90
20
90
21
90
69
90
68
90
4
90
21
90
22
90
70
90
69
90
4
90
22
90
23
90
71
90
70
90
4
90
23
90
24
90
72
90
71
90
4
90
24
90
25
90
73
90
72
90
4
90
25
90
26
90
74
90
73
90
4
90
26
90
27
90
75
90
74
90
4
90
27
90
28
90
76
90
75
90
4
90
28
90
29
90
77
90
76
90
4
90
29
90
30
90
78
90
77
90
4
90
30
90
31
90
79
90
78
90
4
90
31
90
32
90
80
90
79
90
4
90
32
90
33
90
81
90
80
90
4
90
33
90
34
90
82
90
81
90
4
90
34
90
35
90
83
90
82
90
4
90
35
90
36
90
84
90
83
90
4
90
36
90
37
90
85
90
84
90
4
90
37
90
38
90
86
90
85
90
4
90
38
90
39
90
87
90
86
90
4
90
39
90
40
90
88
90
87
90
4
90
40
90
41
90
89
90
88
90
4
90
41
90
42
90
90
90
89
90
4
90
42
90
43
90
91
90
90
90
4
90
43
90
44
90
92
90
91
90
4
90
44
90
45
90
93
90
92
90
4
90
45
90
46
90
94
90
93
90
4
90
46
90
47
90
95
90
94
90
4
90
47
90
0
90
48
90
95
94
0
95
0
90
0
1001
CONDUITCAD
1000
{"id":"3d-primitives-002","label":"Cylinder","feature3d":{"version":1,"kind":"cylinder","parameters":{"radius":25,"height":60,"x":115},"inputs":[],"suppressed":false},"model3dConsumed":false,"model3dU
1000
serHidden":false}
0
MESH
5
102
330
118
100
AcDbEntity
8
Equipment
62
7
420
7444875
100
AcDbSubDMesh
71
2
72
0
91
0
92
49
10
238
20
0
30
0
10
237.7604561184667
20
3.654733382161444
30
0
10
237.0459231360939
20
7.246933262870581
30
0
10
235.86862691031604
20
10.715136106222515
30
0
10
234.2487113059643
20
13.999999999999998
30
0
10
232.21389352815459
20
17.04532001224418
30
0
10
229.79898987322332
20
19.798989873223327
30
0
10
227.0453200122442
20
22.213893528154586
30
0
10
224
20
24.24871130596428
30
0
10
220.71513610622253
20
25.868626910316028
30
0
10
217.24693326287058
20
27.04592313609391
30
0
10
213.65473338216145
20
27.760456118466692
30
0
10
210
20
28
30
0
10
206.34526661783855
20
27.760456118466692
30
0
10
202.75306673712942
20
27.04592313609391
30
0
10
199.2848638937775
20
25.86862691031603
30
0
10
196
20
24.248711305964285
30
0
10
192.9546799877558
20
22.213893528154586
30
0
10
190.20101012677668
20
19.79898987322333
30
0
10
187.78610647184541
20
17.045320012244183
30
0
10
185.7512886940357
20
13.999999999999998
30
0
10
184.13137308968396
20
10.715136106222516
30
0
10
182.9540768639061
20
7.246933262870589
30
0
10
182.2395438815333
20
3.6547333821614556
30
0
10
182
20
3.429011037612589e-15
30
0
10
182.2395438815333
20
-3.6547333821614494
30
0
10
182.9540768639061
20
-7.2469332628705825
30
0
10
184.13137308968396
20
-10.715136106222511
30
0
10
185.7512886940357
20
-13.999999999999993
30
0
10
187.78610647184541
20
-17.04532001224418
30
0
10
190.20101012677665
20
-19.79898987322332
30
0
10
192.9546799877558
20
-22.21389352815458
30
0
10
196
20
-24.248711305964278
30
0
10
199.2848638937775
20
-25.86862691031603
30
0
10
202.75306673712942
20
-27.04592313609391
30
0
10
206.34526661783855
20
-27.760456118466692
30
0
10
210
20
-28
30
0
10
213.65473338216142
20
-27.760456118466692
30
0
10
217.24693326287056
20
-27.045923136093915
30
0
10
220.7151361062225
20
-25.868626910316035
30
0
10
224
20
-24.24871130596428
30
0
10
227.04532001224416
20
-22.2138935281546
30
0
10
229.79898987322332
20
-19.798989873223334
30
0
10
232.21389352815459
20
-17.045320012244183
30
0
10
234.24871130596426
20
-14.000000000000012
30
0
10
235.86862691031604
20
-10.715136106222507
30
0
10
237.0459231360939
20
-7.246933262870604
30
0
10
237.7604561184667
20
-3.654733382161447
30
0
10
210
20
0
30
70
93
241
90
48
90
47
90
46
90
45
90
44
90
43
90
42
90
41
90
40
90
39
90
38
90
37
90
36
90
35
90
34
90
33
90
32
90
31
90
30
90
29
90
28
90
27
90
26
90
25
90
24
90
23
90
22
90
21
90
20
90
19
90
18
90
17
90
16
90
15
90
14
90
13
90
12
90
11
90
10
90
9
90
8
90
7
90
6
90
5
90
4
90
3
90
2
90
1
90
0
90
3
90
0
90
1
90
48
90
3
90
1
90
2
90
48
90
3
90
2
90
3
90
48
90
3
90
3
90
4
90
48
90
3
90
4
90
5
90
48
90
3
90
5
90
6
90
48
90
3
90
6
90
7
90
48
90
3
90
7
90
8
90
48
90
3
90
8
90
9
90
48
90
3
90
9
90
10
90
48
90
3
90
10
90
11
90
48
90
3
90
11
90
12
90
48
90
3
90
12
90
13
90
48
90
3
90
13
90
14
90
48
90
3
90
14
90
15
90
48
90
3
90
15
90
16
90
48
90
3
90
16
90
17
90
48
90
3
90
17
90
18
90
48
90
3
90
18
90
19
90
48
90
3
90
19
90
20
90
48
90
3
90
20
90
21
90
48
90
3
90
21
90
22
90
48
90
3
90
22
90
23
90
48
90
3
90
23
90
24
90
48
90
3
90
24
90
25
90
48
90
3
90
25
90
26
90
48
90
3
90
26
90
27
90
48
90
3
90
27
90
28
90
48
90
3
90
28
90
29
90
48
90
3
90
29
90
30
90
48
90
3
90
30
90
31
90
48
90
3
90
31
90
32
90
48
90
3
90
32
90
33
90
48
90
3
90
33
90
34
90
48
90
3
90
34
90
35
90
48
90
3
90
35
90
36
90
48
90
3
90
36
90
37
90
48
90
3
90
37
90
38
90
48
90
3
90
38
90
39
90
48
90
3
90
39
90
40
90
48
90
3
90
40
90
41
90
48
90
3
90
41
90
42
90
48
90
3
90
42
90
43
90
48
90
3
90
43
90
44
90
48
90
3
90
44
90
45
90
48
90
3
90
45
90
46
90
48
90
3
90
46
90
47
90
48
90
3
90
47
90
0
90
48
94
0
95
0
90
0
1001
CONDUITCAD
1000
{"id":"3d-primitives-003","label":"Cone","feature3d":{"version":1,"kind":"cone","parameters":{"radius":28,"height":70,"x":210},"inputs":[],"suppressed":false},"model3dConsumed":false,"model3dUserHidde
1000
n":false}
0
MESH
5
103
330
118
100
AcDbEntity
8
Equipment
62
7
420
8884912
100
AcDbSubDMesh
71
2
72
0
91
0
92
482
10
30
20
110
30
2
10
35.46252901645159
20
110
30
2.538012148709548
10
35.35756805311126
20
111.06568654484198
30
2.538012148709548
10
35.046718754048634
20
112.09041935340959
30
2.538012148709548
10
34.54192688350041
20
113.03481851854634
30
2.538012148709548
10
33.8625913099612
20
113.8625913099612
30
2.538012148709548
10
33.03481851854635
20
114.54192688350041
30
2.538012148709548
10
32.090419353409594
20
115.04671875404864
30
2.538012148709548
10
31.065686544841988
20
115.35756805311127
30
2.538012148709548
10
30
20
115.4625290164516
30
2.538012148709548
10
28.934313455158016
20
115.35756805311127
30
2.538012148709548
10
27.909580646590406
20
115.04671875404864
30
2.538012148709548
10
26.96518148145365
20
114.54192688350041
30
2.538012148709548
10
26.137408690038797
20
113.8625913099612
30
2.538012148709548
10
25.45807311649959
20
113.03481851854634
30
2.538012148709548
10
24.953281245951363
20
112.0904193534096
30
2.538012148709548
10
24.642431946888742
20
111.06568654484198
30
2.538012148709548
10
24.537470983548406
20
110
30
2.538012148709548
10
24.642431946888742
20
108.93431345515802
30
2.538012148709548
10
24.953281245951363
20
107.90958064659041
30
2.538012148709548
10
25.45807311649959
20
106.96518148145366
30
2.538012148709548
10
26.137408690038797
20
106.1374086900388
30
2.538012148709548
10
26.96518148145365
20
105.45807311649959
30
2.538012148709548
10
27.909580646590403
20
104.95328124595136
30
2.538012148709548
10
28.934313455158012
20
104.64243194688875
30
2.538012148709548
10
30
20
104.5374709835484
30
2.538012148709548
10
31.065686544841984
20
104.64243194688873
30
2.538012148709548
10
32.090419353409594
20
104.95328124595136
30
2.538012148709548
10
33.034818518546345
20
105.45807311649959
30
2.538012148709548
10
33.8625913099612
20
106.1374086900388
30
2.538012148709548
10
34.54192688350041
20
106.96518148145366
30
2.538012148709548
10
35.046718754048634
20
107.9095806465904
30
2.538012148709548
10
35.35756805311126
20
108.934313455158
30
2.538012148709548
10
40.715136106222516
20
110
30
4.131373089683972
10
40.50924777050023
20
112.09041935340959
30
4.131373089683972
10
39.89949493661167
20
114.10050506338834
30
4.131373089683972
10
38.909310064009844
20
115.95301066337079
30
4.131373089683972
10
37.57674540204676
20
117.57674540204675
30
4.131373089683972
10
35.9530106633708
20
118.90931006400984
30
4.131373089683972
10
34.10050506338834
20
119.89949493661166
30
4.131373089683972
10
32.090419353409594
20
120.50924777050022
30
4.131373089683972
10
30
20
120.71513610622252
30
4.131373089683972
10
27.909580646590406
20
120.50924777050022
30
4.131373089683972
10
25.899494936611664
20
119.89949493661166
30
4.131373089683972
10
24.046989336629206
20
118.90931006400984
30
4.131373089683972
10
22.42325459795324
20
117.57674540204675
30
4.131373089683972
10
21.09068993599016
20
115.95301066337079
30
4.131373089683972
10
20.100505063388333
20
114.10050506338834
30
4.131373089683972
10
19.49075222949977
20
112.0904193534096
30
4.131373089683972
10
19.284863893777484
20
110
30
4.131373089683972
10
19.49075222949977
20
107.9095806465904
30
4.131373089683972
10
20.100505063388333
20
105.89949493661166
30
4.131373089683972
10
21.090689935990156
20
104.04698933662921
30
4.131373089683972
10
22.42325459795324
20
102.42325459795325
30
4.131373089683972
10
24.046989336629203
20
101.09068993599016
30
4.131373089683972
10
25.89949493661166
20
100.10050506338834
30
4.131373089683972
10
27.909580646590403
20
99.49075222949978
30
4.131373089683972
10
29.999999999999996
20
99.28486389377748
30
4.131373089683972
10
32.090419353409594
20
99.49075222949978
30
4.131373089683972
10
34.10050506338834
20
100.10050506338834
30
4.131373089683972
10
35.95301066337079
20
101.09068993599016
30
4.131373089683972
10
37.576745402046754
20
102.42325459795325
30
4.131373089683972
10
38.909310064009844
20
104.04698933662921
30
4.131373089683972
10
39.89949493661167
20
105.89949493661166
30
4.131373089683972
10
40.509247770500224
20
107.9095806465904
30
4.131373089683972
10
45.555966524548865
20
110
30
6.718850855528732
10
45.257062989722925
20
113.03481851854634
30
6.718850855528732
10
44.37183908046143
20
115.95301066337079
30
6.718850855528732
10
42.93431345515802
20
118.64243194688875
30
6.718850855528732
10
40.99972941741943
20
120.99972941741943
30
6.718850855528732
10
38.64243194688875
20
122.93431345515802
30
6.718850855528732
10
35.9530106633708
20
124.37183908046143
30
6.718850855528732
10
33.03481851854635
20
125.25706298972293
30
6.718850855528732
10
30
20
125.55596652454886
30
6.718850855528732
10
26.96518148145365
20
125.25706298972293
30
6.718850855528732
10
24.046989336629203
20
124.37183908046143
30
6.718850855528732
10
21.357568053111258
20
122.93431345515802
30
6.718850855528732
10
19.00027058258057
20
120.99972941741943
30
6.718850855528732
10
17.06568654484198
20
118.64243194688875
30
6.718850855528732
10
15.62816091953857
20
115.9530106633708
30
6.718850855528732
10
14.742937010277076
20
113.03481851854636
30
6.718850855528732
10
14.444033475451135
20
110
30
6.718850855528732
10
14.742937010277076
20
106.96518148145366
30
6.718850855528732
10
15.628160919538567
20
104.04698933662921
30
6.718850855528732
10
17.06568654484198
20
101.35756805311127
30
6.718850855528732
10
19.000270582580566
20
99.00027058258057
30
6.718850855528732
10
21.357568053111258
20
97.06568654484198
30
6.718850855528732
10
24.046989336629196
20
95.62816091953857
30
6.718850855528732
10
26.965181481453644
20
94.74293701027707
30
6.718850855528732
10
29.999999999999996
20
94.44403347545114
30
6.718850855528732
10
33.03481851854635
20
94.74293701027707
30
6.718850855528732
10
35.9530106633708
20
95.62816091953857
30
6.718850855528732
10
38.642431946888735
20
97.06568654484198
30
6.718850855528732
10
40.99972941741943
20
99.00027058258057
30
6.718850855528732
10
42.93431345515802
20
101.35756805311125
30
6.718850855528732
10
44.37183908046143
20
104.0469893366292
30
6.718850855528732
10
45.257062989722925
20
106.96518148145364
30
6.718850855528732
10
49.798989873223334
20
110
30
10.201010126776673
10
49.41855783451007
20
113.8625913099612
30
10.201010126776673
10
48.29188150826927
20
117.57674540204675
30
10.201010126776673
10
46.46225843387102
20
120.99972941741943
30
10.201010126776673
10
44
20
124
30
10.201010126776673
10
40.99972941741943
20
126.46225843387103
30
10.201010126776673
10
37.57674540204676
20
128.29188150826928
30
10.201010126776673
10
33.8625913099612
20
129.41855783451007
30
10.201010126776673
10
30
20
129.79898987322332
30
10.201010126776673
10
26.1374086900388
20
129.41855783451007
30
10.201010126776673
10
22.423254597953242
20
128.29188150826928
30
10.201010126776673
10
19.000270582580576
20
126.46225843387103
30
10.201010126776673
10
16
20
124
30
10.201010126776673
10
13.537741566128975
20
120.99972941741943
30
10.201010126776673
10
11.70811849173073
20
117.57674540204675
30
10.201010126776673
10
10.581442165489936
20
113.8625913099612
30
10.201010126776673
10
10.20101012677667
20
110
30
10.201010126776673
10
10.581442165489936
20
106.1374086900388
30
10.201010126776673
10
11.708118491730726
20
102.42325459795325
30
10.201010126776673
10
13.537741566128975
20
99.00027058258057
30
10.201010126776673
10
15.999999999999996
20
96
30
10.201010126776673
10
19.00027058258057
20
93.53774156612897
30
10.201010126776673
10
22.423254597953232
20
91.70811849173073
30
10.201010126776673
10
26.13740869003879
20
90.58144216548993
30
10.201010126776673
10
29.999999999999996
20
90.20101012677667
30
10.201010126776673
10
33.8625913099612
20
90.58144216548993
30
10.201010126776673
10
37.57674540204676
20
91.70811849173073
30
10.201010126776673
10
40.999729417419424
20
93.53774156612897
30
10.201010126776673
10
44
20
96
30
10.201010126776673
10
46.46225843387102
20
99.00027058258057
30
10.201010126776673
10
48.29188150826927
20
102.42325459795323
30
10.201010126776673
10
49.41855783451006
20
106.13740869003878
30
10.201010126776673
10
53.28114914447127
20
110
30
14.444033475451139
10
52.83380839176968
20
114.54192688350041
30
14.444033475451139
10
51.508977187919655
20
118.90931006400984
30
14.444033475451139
10
49.35756805311126
20
122.93431345515802
30
14.444033475451139
10
46.46225843387103
20
126.46225843387103
30
14.444033475451139
10
42.93431345515802
20
129.35756805311127
30
14.444033475451139
10
38.90931006400984
20
131.50897718791967
30
14.444033475451139
10
34.54192688350041
20
132.83380839176968
30
14.444033475451139
10
30
20
133.28114914447127
30
14.444033475451139
10
25.45807311649959
20
132.83380839176968
30
14.444033475451139
10
21.090689935990163
20
131.50897718791967
30
14.444033475451139
10
17.06568654484199
20
129.35756805311127
30
14.444033475451139
10
13.537741566128979
20
126.46225843387103
30
14.444033475451139
10
10.642431946888738
20
122.93431345515802
30
14.444033475451139
10
8.491022812080342
20
118.90931006400984
30
14.444033475451139
10
7.166191608230321
20
114.54192688350042
30
14.444033475451139
10
6.718850855528732
20
110
30
14.444033475451139
10
7.166191608230321
20
105.45807311649959
30
14.444033475451139
10
8.491022812080338
20
101.09068993599017
30
14.444033475451139
10
10.642431946888738
20
97.065686544842
30
14.444033475451139
10
13.537741566128972
20
93.53774156612897
30
14.444033475451139
10
17.065686544841988
20
90.64243194688873
30
14.444033475451139
10
21.09068993599015
20
88.49102281208035
30
14.444033475451139
10
25.458073116499584
20
87.16619160823032
30
14.444033475451139
10
29.999999999999996
20
86.71885085552873
30
14.444033475451139
10
34.54192688350041
20
87.16619160823032
30
14.444033475451139
10
38.909310064009844
20
88.49102281208035
30
14.444033475451139
10
42.934313455158005
20
90.64243194688873
30
14.444033475451139
10
46.462258433871014
20
93.53774156612897
30
14.444033475451139
10
49.35756805311126
20
97.06568654484198
30
14.444033475451139
10
51.508977187919655
20
101.09068993599014
30
14.444033475451139
10
52.83380839176968
20
105.45807311649958
30
14.444033475451139
10
55.868626910316024
20
110
30
19.284863893777484
10
55.37156849788086
20
115.04671875404864
30
19.284863893777484
10
53.89949493661166
20
119.89949493661166
30
19.284863893777484
10
51.508977187919655
20
124.37183908046143
30
19.284863893777484
10
48.29188150826927
20
128.29188150826928
30
19.284863893777484
10
44.37183908046143
20
131.50897718791964
30
19.284863893777484
10
39.89949493661167
20
133.89949493661166
30
19.284863893777484
10
35.04671875404864
20
135.37156849788084
30
19.284863893777484
10
30
20
135.86862691031604
30
19.284863893777484
10
24.953281245951366
20
135.37156849788084
30
19.284863893777484
10
20.100505063388336
20
133.89949493661166
30
19.284863893777484
10
15.628160919538578
20
131.50897718791967
30
19.284863893777484
10
11.70811849173073
20
128.29188150826928
30
19.284863893777484
10
8.491022812080342
20
124.37183908046143
30
19.284863893777484
10
6.100505063388336
20
119.89949493661166
30
19.284863893777484
10
4.628431502119142
20
115.04671875404864
30
19.284863893777484
10
4.131373089683972
20
110
30
19.284863893777484
10
4.628431502119142
20
104.95328124595136
30
19.284863893777484
10
6.100505063388333
20
100.10050506338834
30
19.284863893777484
10
8.491022812080338
20
95.62816091953857
30
19.284863893777484
10
11.708118491730726
20
91.70811849173073
30
19.284863893777484
10
15.628160919538573
20
88.49102281208035
30
19.284863893777484
10
20.10050506338832
20
86.10050506338834
30
19.284863893777484
10
24.953281245951356
20
84.62843150211914
30
19.284863893777484
10
29.999999999999996
20
84.13137308968398
30
19.284863893777484
10
35.046718754048634
20
84.62843150211914
30
19.284863893777484
10
39.899494936611674
20
86.10050506338834
30
19.284863893777484
10
44.37183908046142
20
88.49102281208033
30
19.284863893777484
10
48.29188150826927
20
91.70811849173073
30
19.284863893777484
10
51.508977187919655
20
95.62816091953857
30
19.284863893777484
10
53.89949493661166
20
100.10050506338831
30
19.284863893777484
10
55.37156849788086
20
104.95328124595136
30
19.284863893777484
10
57.46198785129045
20
110
30
24.53747098354841
10
56.93431345515801
20
115.35756805311125
30
24.53747098354841
10
55.37156849788086
20
120.50924777050022
30
24.53747098354841
10
52.83380839176968
20
125.25706298972293
30
24.53747098354841
10
49.41855783451007
20
129.41855783451007
30
24.53747098354841
10
45.257062989722925
20
132.83380839176968
30
24.53747098354841
10
40.50924777050023
20
135.37156849788084
30
24.53747098354841
10
35.35756805311126
20
136.93431345515802
30
24.53747098354841
10
30
20
137.46198785129044
30
24.53747098354841
10
24.642431946888745
20
136.93431345515802
30
24.53747098354841
10
19.490752229499776
20
135.37156849788084
30
24.53747098354841
10
14.742937010277085
20
132.83380839176968
30
24.53747098354841
10
10.581442165489939
20
129.41855783451007
30
24.53747098354841
10
7.166191608230317
20
125.25706298972293
30
24.53747098354841
10
4.628431502119142
20
120.50924777050022
30
24.53747098354841
10
3.065686544841988
20
115.35756805311127
30
24.53747098354841
10
2.538012148709548
20
110
30
24.53747098354841
10
3.065686544841988
20
104.64243194688873
30
24.53747098354841
10
4.628431502119138
20
99.49075222949978
30
24.53747098354841
10
7.166191608230314
20
94.74293701027709
30
24.53747098354841
10
10.581442165489932
20
90.58144216548993
30
24.53747098354841
10
14.74293701027708
20
87.16619160823032
30
24.53747098354841
10
19.49075222949976
20
84.62843150211916
30
24.53747098354841
10
24.64243194688873
20
83.06568654484198
30
24.53747098354841
10
29.999999999999996
20
82.53801214870956
30
24.53747098354841
10
35.35756805311126
20
83.06568654484198
30
24.53747098354841
10
40.50924777050023
20
84.62843150211914
30
24.53747098354841
10
45.25706298972291
20
87.16619160823032
30
24.53747098354841
10
49.41855783451006
20
90.58144216548993
30
24.53747098354841
10
52.83380839176968
20
94.74293701027707
30
24.53747098354841
10
55.37156849788085
20
99.49075222949976
30
24.53747098354841
10
56.93431345515801
20
104.64243194688873
30
24.53747098354841
10
58
20
110
30
30
10
57.46198785129045
20
115.4625290164516
30
30
10
55.868626910316024
20
120.71513610622252
30
30
10
53.28114914447127
20
125.55596652454886
30
30
10
49.798989873223334
20
129.79898987322332
30
30
10
45.555966524548865
20
133.28114914447127
30
30
10
40.715136106222516
20
135.86862691031604
30
30
10
35.46252901645159
20
137.46198785129044
30
30
10
30
20
138
30
30
10
24.53747098354841
20
137.46198785129044
30
30
10
19.284863893777487
20
135.86862691031604
30
30
10
14.444033475451146
20
133.28114914447127
30
30
10
10.201010126776673
20
129.79898987322332
30
30
10
6.7188508555287285
20
125.55596652454886
30
30
10
4.131373089683972
20
120.71513610622252
30
30
10
2.538012148709548
20
115.4625290164516
30
30
10
2
20
110
30
30
10
2.538012148709548
20
104.5374709835484
30
30
10
4.131373089683969
20
99.28486389377748
30
30
10
6.7188508555287285
20
94.44403347545115
30
30
10
10.201010126776666
20
90.20101012677668
30
30
10
14.444033475451139
20
86.71885085552873
30
30
10
19.28486389377747
20
84.13137308968398
30
30
10
24.537470983548396
20
82.53801214870956
30
30
10
29.999999999999996
20
82
30
30
10
35.46252901645159
20
82.53801214870956
30
30
10
40.715136106222516
20
84.13137308968398
30
30
10
45.55596652454885
20
86.71885085552873
30
30
10
49.79898987322333
20
90.20101012677667
30
30
10
53.28114914447127
20
94.44403347545114
30
30
10
55.868626910316024
20
99.28486389377747
30
30
10
57.461987851290445
20
104.53747098354839
30
30
10
57.46198785129045
20
110
30
35.46252901645159
10
56.93431345515801
20
115.35756805311125
30
35.46252901645159
10
55.37156849788086
20
120.50924777050022
30
35.46252901645159
10
52.83380839176968
20
125.25706298972293
30
35.46252901645159
10
49.41855783451007
20
129.41855783451007
30
35.46252901645159
10
45.257062989722925
20
132.83380839176968
30
35.46252901645159
10
40.50924777050023
20
135.37156849788084
30
35.46252901645159
10
35.35756805311126
20
136.93431345515802
30
35.46252901645159
10
30
20
137.46198785129044
30
35.46252901645159
10
24.642431946888745
20
136.93431345515802
30
35.46252901645159
10
19.490752229499776
20
135.37156849788084
30
35.46252901645159
10
14.742937010277085
20
132.83380839176968
30
35.46252901645159
10
10.581442165489939
20
129.41855783451007
30
35.46252901645159
10
7.166191608230317
20
125.25706298972293
30
35.46252901645159
10
4.628431502119142
20
120.50924777050022
30
35.46252901645159
10
3.065686544841988
20
115.35756805311127
30
35.46252901645159
10
2.538012148709548
20
110
30
35.46252901645159
10
3.065686544841988
20
104.64243194688873
30
35.46252901645159
10
4.628431502119138
20
99.49075222949978
30
35.46252901645159
10
7.166191608230314
20
94.74293701027709
30
35.46252901645159
10
10.581442165489932
20
90.58144216548993
30
35.46252901645159
10
14.74293701027708
20
87.16619160823032
30
35.46252901645159
10
19.49075222949976
20
84.62843150211916
30
35.46252901645159
10
24.64243194688873
20
83.06568654484198
30
35.46252901645159
10
29.999999999999996
20
82.53801214870956
30
35.46252901645159
10
35.35756805311126
20
83.06568654484198
30
35.46252901645159
10
40.50924777050023
20
84.62843150211914
30
35.46252901645159
10
45.25706298972291
20
87.16619160823032
30
35.46252901645159
10
49.41855783451006
20
90.58144216548993
30
35.46252901645159
10
52.83380839176968
20
94.74293701027707
30
35.46252901645159
10
55.37156849788085
20
99.49075222949976
30
35.46252901645159
10
56.93431345515801
20
104.64243194688873
30
35.46252901645159
10
55.868626910316024
20
110
30
40.715136106222516
10
55.37156849788086
20
115.04671875404864
30
40.715136106222516
10
53.89949493661166
20
119.89949493661166
30
40.715136106222516
10
51.508977187919655
20
124.37183908046143
30
40.715136106222516
10
48.29188150826927
20
128.29188150826928
30
40.715136106222516
10
44.37183908046143
20
131.50897718791964
30
40.715136106222516
10
39.89949493661167
20
133.89949493661166
30
40.715136106222516
10
35.04671875404864
20
135.37156849788084
30
40.715136106222516
10
30
20
135.86862691031604
30
40.715136106222516
10
24.953281245951366
20
135.37156849788084
30
40.715136106222516
10
20.100505063388336
20
133.89949493661166
30
40.715136106222516
10
15.628160919538578
20
131.50897718791967
30
40.715136106222516
10
11.70811849173073
20
128.29188150826928
30
40.715136106222516
10
8.491022812080342
20
124.37183908046143
30
40.715136106222516
10
6.100505063388336
20
119.89949493661166
30
40.715136106222516
10
4.628431502119142
20
115.04671875404864
30
40.715136106222516
10
4.131373089683972
20
110
30
40.715136106222516
10
4.628431502119142
20
104.95328124595136
30
40.715136106222516
10
6.100505063388333
20
100.10050506338834
30
40.715136106222516
10
8.491022812080338
20
95.62816091953857
30
40.715136106222516
10
11.708118491730726
20
91.70811849173073
30
40.715136106222516
10
15.628160919538573
20
88.49102281208035
30
40.715136106222516
10
20.10050506338832
20
86.10050506338834
30
40.715136106222516
10
24.953281245951356
20
84.62843150211914
30
40.715136106222516
10
29.999999999999996
20
84.13137308968398
30
40.715136106222516
10
35.046718754048634
20
84.62843150211914
30
40.715136106222516
10
39.899494936611674
20
86.10050506338834
30
40.715136106222516
10
44.37183908046142
20
88.49102281208033
30
40.715136106222516
10
48.29188150826927
20
91.70811849173073
30
40.715136106222516
10
51.508977187919655
20
95.62816091953857
30
40.715136106222516
10
53.89949493661166
20
100.10050506338831
30
40.715136106222516
10
55.37156849788086
20
104.95328124595136
30
40.715136106222516
10
53.28114914447127
20
110
30
45.55596652454886
10
52.83380839176968
20
114.54192688350041
30
45.55596652454886
10
51.50897718791966
20
118.90931006400984
30
45.55596652454886
10
49.357568053111265
20
122.93431345515802
30
45.55596652454886
10
46.46225843387103
20
126.46225843387103
30
45.55596652454886
10
42.93431345515802
20
129.35756805311127
30
45.55596652454886
10
38.909310064009844
20
131.50897718791967
30
45.55596652454886
10
34.54192688350041
20
132.83380839176968
30
45.55596652454886
10
30
20
133.28114914447127
30
45.55596652454886
10
25.45807311649959
20
132.83380839176968
30
45.55596652454886
10
21.090689935990163
20
131.50897718791967
30
45.55596652454886
10
17.065686544841988
20
129.35756805311127
30
45.55596652454886
10
13.537741566128975
20
126.46225843387103
30
45.55596652454886
10
10.642431946888738
20
122.93431345515802
30
45.55596652454886
10
8.491022812080338
20
118.90931006400984
30
45.55596652454886
10
7.166191608230317
20
114.54192688350042
30
45.55596652454886
10
6.7188508555287285
20
110
30
45.55596652454886
10
7.166191608230317
20
105.45807311649959
30
45.55596652454886
10
8.491022812080335
20
101.09068993599016
30
45.55596652454886
10
10.642431946888735
20
97.065686544842
30
45.55596652454886
10
13.537741566128972
20
93.53774156612897
30
45.55596652454886
10
17.065686544841984
20
90.64243194688873
30
45.55596652454886
10
21.09068993599015
20
88.49102281208035
30
45.55596652454886
10
25.45807311649958
20
87.16619160823032
30
45.55596652454886
10
29.999999999999996
20
86.71885085552873
30
45.55596652454886
10
34.54192688350041
20
87.16619160823032
30
45.55596652454886
10
38.909310064009844
20
88.49102281208035
30
45.55596652454886
10
42.934313455158005
20
90.64243194688873
30
45.55596652454886
10
46.46225843387102
20
93.53774156612897
30
45.55596652454886
10
49.357568053111265
20
97.06568654484198
30
45.55596652454886
10
51.508977187919655
20
101.09068993599014
30
45.55596652454886
10
52.83380839176968
20
105.45807311649958
30
45.55596652454886
10
49.798989873223334
20
110
30
49.79898987322333
10
49.41855783451007
20
113.8625913099612
30
49.79898987322333
10
48.29188150826927
20
117.57674540204675
30
49.79898987322333
10
46.46225843387102
20
120.99972941741943
30
49.79898987322333
10
44
20
124
30
49.79898987322333
10
40.99972941741943
20
126.46225843387103
30
49.79898987322333
10
37.57674540204676
20
128.29188150826928
30
49.79898987322333
10
33.8625913099612
20
129.41855783451007
30
49.79898987322333
10
30
20
129.79898987322332
30
49.79898987322333
10
26.1374086900388
20
129.41855783451007
30
49.79898987322333
10
22.423254597953242
20
128.29188150826928
30
49.79898987322333
10
19.000270582580576
20
126.46225843387103
30
49.79898987322333
10
16
20
124
30
49.79898987322333
10
13.537741566128975
20
120.99972941741943
30
49.79898987322333
10
11.70811849173073
20
117.57674540204675
30
49.79898987322333
10
10.581442165489936
20
113.8625913099612
30
49.79898987322333
10
10.20101012677667
20
110
30
49.79898987322333
10
10.581442165489936
20
106.1374086900388
30
49.79898987322333
10
11.708118491730726
20
102.42325459795325
30
49.79898987322333
10
13.537741566128975
20
99.00027058258057
30
49.79898987322333
10
15.999999999999996
20
96
30
49.79898987322333
10
19.00027058258057
20
93.53774156612897
30
49.79898987322333
10
22.423254597953232
20
91.70811849173073
30
49.79898987322333
10
26.13740869003879
20
90.58144216548993
30
49.79898987322333
10
29.999999999999996
20
90.20101012677667
30
49.79898987322333
10
33.8625913099612
20
90.58144216548993
30
49.79898987322333
10
37.57674540204676
20
91.70811849173073
30
49.79898987322333
10
40.999729417419424
20
93.53774156612897
30
49.79898987322333
10
44
20
96
30
49.79898987322333
10
46.46225843387102
20
99.00027058258057
30
49.79898987322333
10
48.29188150826927
20
102.42325459795323
30
49.79898987322333
10
49.41855783451006
20
106.13740869003878
30
49.79898987322333
10
45.55596652454886
20
110
30
53.28114914447127
10
45.25706298972292
20
113.03481851854634
30
53.28114914447127
10
44.37183908046143
20
115.95301066337079
30
53.28114914447127
10
42.93431345515801
20
118.64243194688873
30
53.28114914447127
10
40.99972941741943
20
120.99972941741943
30
53.28114914447127
10
38.64243194688874
20
122.934313455158
30
53.28114914447127
10
35.9530106633708
20
124.37183908046143
30
53.28114914447127
10
33.03481851854635
20
125.25706298972291
30
53.28114914447127
10
30
20
125.55596652454886
30
53.28114914447127
10
26.96518148145365
20
125.25706298972291
30
53.28114914447127
10
24.046989336629206
20
124.37183908046143
30
53.28114914447127
10
21.357568053111265
20
122.93431345515802
30
53.28114914447127
10
19.000270582580576
20
120.99972941741943
30
53.28114914447127
10
17.065686544841988
20
118.64243194688873
30
53.28114914447127
10
15.628160919538576
20
115.95301066337079
30
53.28114914447127
10
14.742937010277084
20
113.03481851854636
30
53.28114914447127
10
14.444033475451143
20
110
30
53.28114914447127
10
14.742937010277084
20
106.96518148145366
30
53.28114914447127
10
15.628160919538574
20
104.04698933662921
30
53.28114914447127
10
17.065686544841988
20
101.35756805311127
30
53.28114914447127
10
19.00027058258057
20
99.00027058258057
30
53.28114914447127
10
21.357568053111258
20
97.065686544842
30
53.28114914447127
10
24.0469893366292
20
95.62816091953857
30
53.28114914447127
10
26.965181481453644
20
94.74293701027709
30
53.28114914447127
10
29.999999999999996
20
94.44403347545114
30
53.28114914447127
10
33.03481851854635
20
94.74293701027709
30
53.28114914447127
10
35.9530106633708
20
95.62816091953857
30
53.28114914447127
10
38.642431946888735
20
97.06568654484198
30
53.28114914447127
10
40.999729417419424
20
99.00027058258057
30
53.28114914447127
10
42.93431345515801
20
101.35756805311127
30
53.28114914447127
10
44.37183908046142
20
104.0469893366292
30
53.28114914447127
10
45.25706298972291
20
106.96518148145364
30
53.28114914447127
10
40.715136106222516
20
110
30
55.868626910316024
10
40.50924777050023
20
112.09041935340959
30
55.868626910316024
10
39.89949493661167
20
114.10050506338834
30
55.868626910316024
10
38.909310064009844
20
115.95301066337079
30
55.868626910316024
10
37.57674540204676
20
117.57674540204675
30
55.868626910316024
10
35.9530106633708
20
118.90931006400984
30
55.868626910316024
10
34.10050506338834
20
119.89949493661166
30
55.868626910316024
10
32.090419353409594
20
120.50924777050022
30
55.868626910316024
10
30
20
120.71513610622252
30
55.868626910316024
10
27.909580646590406
20
120.50924777050022
30
55.868626910316024
10
25.899494936611664
20
119.89949493661166
30
55.868626910316024
10
24.046989336629206
20
118.90931006400984
30
55.868626910316024
10
22.42325459795324
20
117.57674540204675
30
55.868626910316024
10
21.09068993599016
20
115.95301066337079
30
55.868626910316024
10
20.100505063388333
20
114.10050506338834
30
55.868626910316024
10
19.49075222949977
20
112.0904193534096
30
55.868626910316024
10
19.284863893777484
20
110
30
55.868626910316024
10
19.49075222949977
20
107.9095806465904
30
55.868626910316024
10
20.100505063388333
20
105.89949493661166
30
55.868626910316024
10
21.090689935990156
20
104.04698933662921
30
55.868626910316024
10
22.42325459795324
20
102.42325459795325
30
55.868626910316024
10
24.046989336629203
20
101.09068993599016
30
55.868626910316024
10
25.89949493661166
20
100.10050506338834
30
55.868626910316024
10
27.909580646590403
20
99.49075222949978
30
55.868626910316024
10
29.999999999999996
20
99.28486389377748
30
55.868626910316024
10
32.090419353409594
20
99.49075222949978
30
55.868626910316024
10
34.10050506338834
20
100.10050506338834
30
55.868626910316024
10
35.95301066337079
20
101.09068993599016
30
55.868626910316024
10
37.576745402046754
20
102.42325459795325
30
55.868626910316024
10
38.909310064009844
20
104.04698933662921
30
55.868626910316024
10
39.89949493661167
20
105.89949493661166
30
55.868626910316024
10
40.509247770500224
20
107.9095806465904
30
55.868626910316024
10
35.4625290164516
20
110
30
57.46198785129045
10
35.357568053111265
20
111.06568654484198
30
57.46198785129045
10
35.04671875404864
20
112.0904193534096
30
57.46198785129045
10
34.541926883500416
20
113.03481851854636
30
57.46198785129045
10
33.86259130996121
20
113.8625913099612
30
57.46198785129045
10
33.03481851854635
20
114.54192688350041
30
57.46198785129045
10
32.090419353409594
20
115.04671875404864
30
57.46198785129045
10
31.065686544841988
20
115.35756805311127
30
57.46198785129045
10
30
20
115.4625290164516
30
57.46198785129045
10
28.934313455158012
20
115.35756805311127
30
57.46198785129045
10
27.909580646590406
20
115.04671875404864
30
57.46198785129045
10
26.965181481453648
20
114.54192688350041
30
57.46198785129045
10
26.137408690038793
20
113.8625913099612
30
57.46198785129045
10
25.458073116499584
20
113.03481851854636
30
57.46198785129045
10
24.95328124595136
20
112.0904193534096
30
57.46198785129045
10
24.642431946888735
20
111.065686544842
30
57.46198785129045
10
24.537470983548403
20
110
30
57.46198785129045
10
24.642431946888735
20
108.93431345515802
30
57.46198785129045
10
24.953281245951356
20
107.9095806465904
30
57.46198785129045
10
25.458073116499584
20
106.96518148145364
30
57.46198785129045
10
26.137408690038793
20
106.1374086900388
30
57.46198785129045
10
26.965181481453648
20
105.45807311649959
30
57.46198785129045
10
27.9095806465904
20
104.95328124595136
30
57.46198785129045
10
28.934313455158012
20
104.64243194688873
30
57.46198785129045
10
30
20
104.5374709835484
30
57.46198785129045
10
31.065686544841988
20
104.64243194688873
30
57.46198785129045
10
32.090419353409594
20
104.95328124595136
30
57.46198785129045
10
33.03481851854635
20
105.45807311649958
30
57.46198785129045
10
33.8625913099612
20
106.1374086900388
30
57.46198785129045
10
34.541926883500416
20
106.96518148145364
30
57.46198785129045
10
35.04671875404864
20
107.9095806465904
30
57.46198785129045
10
35.357568053111265
20
108.934313455158
30
57.46198785129045
10
30
20
110
30
58
93
2496
90
3
90
0
90
2
90
1
90
3
90
481
90
449
90
450
90
4
90
1
90
2
90
34
90
33
90
4
90
33
90
34
90
66
90
65
90
4
90
65
90
66
90
98
90
97
90
4
90
97
90
98
90
130
90
129
90
4
90
129
90
130
90
162
90
161
90
4
90
161
90
162
90
194
90
193
90
4
90
193
90
194
90
226
90
225
90
4
90
225
90
226
90
258
90
257
90
4
90
257
90
258
90
290
90
289
90
4
90
289
90
290
90
322
90
321
90
4
90
321
90
322
90
354
90
353
90
4
90
353
90
354
90
386
90
385
90
4
90
385
90
386
90
418
90
417
90
4
90
417
90
418
90
450
90
449
90
3
90
0
90
3
90
2
90
3
90
481
90
450
90
451
90
4
90
2
90
3
90
35
90
34
90
4
90
34
90
35
90
67
90
66
90
4
90
66
90
67
90
99
90
98
90
4
90
98
90
99
90
131
90
130
90
4
90
130
90
131
90
163
90
162
90
4
90
162
90
163
90
195
90
194
90
4
90
194
90
195
90
227
90
226
90
4
90
226
90
227
90
259
90
258
90
4
90
258
90
259
90
291
90
290
90
4
90
290
90
291
90
323
90
322
90
4
90
322
90
323
90
355
90
354
90
4
90
354
90
355
90
387
90
386
90
4
90
386
90
387
90
419
90
418
90
4
90
418
90
419
90
451
90
450
90
3
90
0
90
4
90
3
90
3
90
481
90
451
90
452
90
4
90
3
90
4
90
36
90
35
90
4
90
35
90
36
90
68
90
67
90
4
90
67
90
68
90
100
90
99
90
4
90
99
90
100
90
132
90
131
90
4
90
131
90
132
90
164
90
163
90
4
90
163
90
164
90
196
90
195
90
4
90
195
90
196
90
228
90
227
90
4
90
227
90
228
90
260
90
259
90
4
90
259
90
260
90
292
90
291
90
4
90
291
90
292
90
324
90
323
90
4
90
323
90
324
90
356
90
355
90
4
90
355
90
356
90
388
90
387
90
4
90
387
90
388
90
420
90
419
90
4
90
419
90
420
90
452
90
451
90
3
90
0
90
5
90
4
90
3
90
481
90
452
90
453
90
4
90
4
90
5
90
37
90
36
90
4
90
36
90
37
90
69
90
68
90
4
90
68
90
69
90
101
90
100
90
4
90
100
90
101
90
133
90
132
90
4
90
132
90
133
90
165
90
164
90
4
90
164
90
165
90
197
90
196
90
4
90
196
90
197
90
229
90
228
90
4
90
228
90
229
90
261
90
260
90
4
90
260
90
261
90
293
90
292
90
4
90
292
90
293
90
325
90
324
90
4
90
324
90
325
90
357
90
356
90
4
90
356
90
357
90
389
90
388
90
4
90
388
90
389
90
421
90
420
90
4
90
420
90
421
90
453
90
452
90
3
90
0
90
6
90
5
90
3
90
481
90
453
90
454
90
4
90
5
90
6
90
38
90
37
90
4
90
37
90
38
90
70
90
69
90
4
90
69
90
70
90
102
90
101
90
4
90
101
90
102
90
134
90
133
90
4
90
133
90
134
90
166
90
165
90
4
90
165
90
166
90
198
90
197
90
4
90
197
90
198
90
230
90
229
90
4
90
229
90
230
90
262
90
261
90
4
90
261
90
262
90
294
90
293
90
4
90
293
90
294
90
326
90
325
90
4
90
325
90
326
90
358
90
357
90
4
90
357
90
358
90
390
90
389
90
4
90
389
90
390
90
422
90
421
90
4
90
421
90
422
90
454
90
453
90
3
90
0
90
7
90
6
90
3
90
481
90
454
90
455
90
4
90
6
90
7
90
39
90
38
90
4
90
38
90
39
90
71
90
70
90
4
90
70
90
71
90
103
90
102
90
4
90
102
90
103
90
135
90
134
90
4
90
134
90
135
90
167
90
166
90
4
90
166
90
167
90
199
90
198
90
4
90
198
90
199
90
231
90
230
90
4
90
230
90
231
90
263
90
262
90
4
90
262
90
263
90
295
90
294
90
4
90
294
90
295
90
327
90
326
90
4
90
326
90
327
90
359
90
358
90
4
90
358
90
359
90
391
90
390
90
4
90
390
90
391
90
423
90
422
90
4
90
422
90
423
90
455
90
454
90
3
90
0
90
8
90
7
90
3
90
481
90
455
90
456
90
4
90
7
90
8
90
40
90
39
90
4
90
39
90
40
90
72
90
71
90
4
90
71
90
72
90
104
90
103
90
4
90
103
90
104
90
136
90
135
90
4
90
135
90
136
90
168
90
167
90
4
90
167
90
168
90
200
90
199
90
4
90
199
90
200
90
232
90
231
90
4
90
231
90
232
90
264
90
263
90
4
90
263
90
264
90
296
90
295
90
4
90
295
90
296
90
328
90
327
90
4
90
327
90
328
90
360
90
359
90
4
90
359
90
360
90
392
90
391
90
4
90
391
90
392
90
424
90
423
90
4
90
423
90
424
90
456
90
455
90
3
90
0
90
9
90
8
90
3
90
481
90
456
90
457
90
4
90
8
90
9
90
41
90
40
90
4
90
40
90
41
90
73
90
72
90
4
90
72
90
73
90
105
90
104
90
4
90
104
90
105
90
137
90
136
90
4
90
136
90
137
90
169
90
168
90
4
90
168
90
169
90
201
90
200
90
4
90
200
90
201
90
233
90
232
90
4
90
232
90
233
90
265
90
264
90
4
90
264
90
265
90
297
90
296
90
4
90
296
90
297
90
329
90
328
90
4
90
328
90
329
90
361
90
360
90
4
90
360
90
361
90
393
90
392
90
4
90
392
90
393
90
425
90
424
90
4
90
424
90
425
90
457
90
456
90
3
90
0
90
10
90
9
90
3
90
481
90
457
90
458
90
4
90
9
90
10
90
42
90
41
90
4
90
41
90
42
90
74
90
73
90
4
90
73
90
74
90
106
90
105
90
4
90
105
90
106
90
138
90
137
90
4
90
137
90
138
90
170
90
169
90
4
90
169
90
170
90
202
90
201
90
4
90
201
90
202
90
234
90
233
90
4
90
233
90
234
90
266
90
265
90
4
90
265
90
266
90
298
90
297
90
4
90
297
90
298
90
330
90
329
90
4
90
329
90
330
90
362
90
361
90
4
90
361
90
362
90
394
90
393
90
4
90
393
90
394
90
426
90
425
90
4
90
425
90
426
90
458
90
457
90
3
90
0
90
11
90
10
90
3
90
481
90
458
90
459
90
4
90
10
90
11
90
43
90
42
90
4
90
42
90
43
90
75
90
74
90
4
90
74
90
75
90
107
90
106
90
4
90
106
90
107
90
139
90
138
90
4
90
138
90
139
90
171
90
170
90
4
90
170
90
171
90
203
90
202
90
4
90
202
90
203
90
235
90
234
90
4
90
234
90
235
90
267
90
266
90
4
90
266
90
267
90
299
90
298
90
4
90
298
90
299
90
331
90
330
90
4
90
330
90
331
90
363
90
362
90
4
90
362
90
363
90
395
90
394
90
4
90
394
90
395
90
427
90
426
90
4
90
426
90
427
90
459
90
458
90
3
90
0
90
12
90
11
90
3
90
481
90
459
90
460
90
4
90
11
90
12
90
44
90
43
90
4
90
43
90
44
90
76
90
75
90
4
90
75
90
76
90
108
90
107
90
4
90
107
90
108
90
140
90
139
90
4
90
139
90
140
90
172
90
171
90
4
90
171
90
172
90
204
90
203
90
4
90
203
90
204
90
236
90
235
90
4
90
235
90
236
90
268
90
267
90
4
90
267
90
268
90
300
90
299
90
4
90
299
90
300
90
332
90
331
90
4
90
331
90
332
90
364
90
363
90
4
90
363
90
364
90
396
90
395
90
4
90
395
90
396
90
428
90
427
90
4
90
427
90
428
90
460
90
459
90
3
90
0
90
13
90
12
90
3
90
481
90
460
90
461
90
4
90
12
90
13
90
45
90
44
90
4
90
44
90
45
90
77
90
76
90
4
90
76
90
77
90
109
90
108
90
4
90
108
90
109
90
141
90
140
90
4
90
140
90
141
90
173
90
172
90
4
90
172
90
173
90
205
90
204
90
4
90
204
90
205
90
237
90
236
90
4
90
236
90
237
90
269
90
268
90
4
90
268
90
269
90
301
90
300
90
4
90
300
90
301
90
333
90
332
90
4
90
332
90
333
90
365
90
364
90
4
90
364
90
365
90
397
90
396
90
4
90
396
90
397
90
429
90
428
90
4
90
428
90
429
90
461
90
460
90
3
90
0
90
14
90
13
90
3
90
481
90
461
90
462
90
4
90
13
90
14
90
46
90
45
90
4
90
45
90
46
90
78
90
77
90
4
90
77
90
78
90
110
90
109
90
4
90
109
90
110
90
142
90
141
90
4
90
141
90
142
90
174
90
173
90
4
90
173
90
174
90
206
90
205
90
4
90
205
90
206
90
238
90
237
90
4
90
237
90
238
90
270
90
269
90
4
90
269
90
270
90
302
90
301
90
4
90
301
90
302
90
334
90
333
90
4
90
333
90
334
90
366
90
365
90
4
90
365
90
366
90
398
90
397
90
4
90
397
90
398
90
430
90
429
90
4
90
429
90
430
90
462
90
461
90
3
90
0
90
15
90
14
90
3
90
481
90
462
90
463
90
4
90
14
90
15
90
47
90
46
90
4
90
46
90
47
90
79
90
78
90
4
90
78
90
79
90
111
90
110
90
4
90
110
90
111
90
143
90
142
90
4
90
142
90
143
90
175
90
174
90
4
90
174
90
175
90
207
90
206
90
4
90
206
90
207
90
239
90
238
90
4
90
238
90
239
90
271
90
270
90
4
90
270
90
271
90
303
90
302
90
4
90
302
90
303
90
335
90
334
90
4
90
334
90
335
90
367
90
366
90
4
90
366
90
367
90
399
90
398
90
4
90
398
90
399
90
431
90
430
90
4
90
430
90
431
90
463
90
462
90
3
90
0
90
16
90
15
90
3
90
481
90
463
90
464
90
4
90
15
90
16
90
48
90
47
90
4
90
47
90
48
90
80
90
79
90
4
90
79
90
80
90
112
90
111
90
4
90
111
90
112
90
144
90
143
90
4
90
143
90
144
90
176
90
175
90
4
90
175
90
176
90
208
90
207
90
4
90
207
90
208
90
240
90
239
90
4
90
239
90
240
90
272
90
271
90
4
90
271
90
272
90
304
90
303
90
4
90
303
90
304
90
336
90
335
90
4
90
335
90
336
90
368
90
367
90
4
90
367
90
368
90
400
90
399
90
4
90
399
90
400
90
432
90
431
90
4
90
431
90
432
90
464
90
463
90
3
90
0
90
17
90
16
90
3
90
481
90
464
90
465
90
4
90
16
90
17
90
49
90
48
90
4
90
48
90
49
90
81
90
80
90
4
90
80
90
81
90
113
90
112
90
4
90
112
90
113
90
145
90
144
90
4
90
144
90
145
90
177
90
176
90
4
90
176
90
177
90
209
90
208
90
4
90
208
90
209
90
241
90
240
90
4
90
240
90
241
90
273
90
272
90
4
90
272
90
273
90
305
90
304
90
4
90
304
90
305
90
337
90
336
90
4
90
336
90
337
90
369
90
368
90
4
90
368
90
369
90
401
90
400
90
4
90
400
90
401
90
433
90
432
90
4
90
432
90
433
90
465
90
464
90
3
90
0
90
18
90
17
90
3
90
481
90
465
90
466
90
4
90
17
90
18
90
50
90
49
90
4
90
49
90
50
90
82
90
81
90
4
90
81
90
82
90
114
90
113
90
4
90
113
90
114
90
146
90
145
90
4
90
145
90
146
90
178
90
177
90
4
90
177
90
178
90
210
90
209
90
4
90
209
90
210
90
242
90
241
90
4
90
241
90
242
90
274
90
273
90
4
90
273
90
274
90
306
90
305
90
4
90
305
90
306
90
338
90
337
90
4
90
337
90
338
90
370
90
369
90
4
90
369
90
370
90
402
90
401
90
4
90
401
90
402
90
434
90
433
90
4
90
433
90
434
90
466
90
465
90
3
90
0
90
19
90
18
90
3
90
481
90
466
90
467
90
4
90
18
90
19
90
51
90
50
90
4
90
50
90
51
90
83
90
82
90
4
90
82
90
83
90
115
90
114
90
4
90
114
90
115
90
147
90
146
90
4
90
146
90
147
90
179
90
178
90
4
90
178
90
179
90
211
90
210
90
4
90
210
90
211
90
243
90
242
90
4
90
242
90
243
90
275
90
274
90
4
90
274
90
275
90
307
90
306
90
4
90
306
90
307
90
339
90
338
90
4
90
338
90
339
90
371
90
370
90
4
90
370
90
371
90
403
90
402
90
4
90
402
90
403
90
435
90
434
90
4
90
434
90
435
90
467
90
466
90
3
90
0
90
20
90
19
90
3
90
481
90
467
90
468
90
4
90
19
90
20
90
52
90
51
90
4
90
51
90
52
90
84
90
83
90
4
90
83
90
84
90
116
90
115
90
4
90
115
90
116
90
148
90
147
90
4
90
147
90
148
90
180
90
179
90
4
90
179
90
180
90
212
90
211
90
4
90
211
90
212
90
244
90
243
90
4
90
243
90
244
90
276
90
275
90
4
90
275
90
276
90
308
90
307
90
4
90
307
90
308
90
340
90
339
90
4
90
339
90
340
90
372
90
371
90
4
90
371
90
372
90
404
90
403
90
4
90
403
90
404
90
436
90
435
90
4
90
435
90
436
90
468
90
467
90
3
90
0
90
21
90
20
90
3
90
481
90
468
90
469
90
4
90
20
90
21
90
53
90
52
90
4
90
52
90
53
90
85
90
84
90
4
90
84
90
85
90
117
90
116
90
4
90
116
90
117
90
149
90
148
90
4
90
148
90
149
90
181
90
180
90
4
90
180
90
181
90
213
90
212
90
4
90
212
90
213
90
245
90
244
90
4
90
244
90
245
90
277
90
276
90
4
90
276
90
277
90
309
90
308
90
4
90
308
90
309
90
341
90
340
90
4
90
340
90
341
90
373
90
372
90
4
90
372
90
373
90
405
90
404
90
4
90
404
90
405
90
437
90
436
90
4
90
436
90
437
90
469
90
468
90
3
90
0
90
22
90
21
90
3
90
481
90
469
90
470
90
4
90
21
90
22
90
54
90
53
90
4
90
53
90
54
90
86
90
85
90
4
90
85
90
86
90
118
90
117
90
4
90
117
90
118
90
150
90
149
90
4
90
149
90
150
90
182
90
181
90
4
90
181
90
182
90
214
90
213
90
4
90
213
90
214
90
246
90
245
90
4
90
245
90
246
90
278
90
277
90
4
90
277
90
278
90
310
90
309
90
4
90
309
90
310
90
342
90
341
90
4
90
341
90
342
90
374
90
373
90
4
90
373
90
374
90
406
90
405
90
4
90
405
90
406
90
438
90
437
90
4
90
437
90
438
90
470
90
469
90
3
90
0
90
23
90
22
90
3
90
481
90
470
90
471
90
4
90
22
90
23
90
55
90
54
90
4
90
54
90
55
90
87
90
86
90
4
90
86
90
87
90
119
90
118
90
4
90
118
90
119
90
151
90
150
90
4
90
150
90
151
90
183
90
182
90
4
90
182
90
183
90
215
90
214
90
4
90
214
90
215
90
247
90
246
90
4
90
246
90
247
90
279
90
278
90
4
90
278
90
279
90
311
90
310
90
4
90
310
90
311
90
343
90
342
90
4
90
342
90
343
90
375
90
374
90
4
90
374
90
375
90
407
90
406
90
4
90
406
90
407
90
439
90
438
90
4
90
438
90
439
90
471
90
470
90
3
90
0
90
24
90
23
90
3
90
481
90
471
90
472
90
4
90
23
90
24
90
56
90
55
90
4
90
55
90
56
90
88
90
87
90
4
90
87
90
88
90
120
90
119
90
4
90
119
90
120
90
152
90
151
90
4
90
151
90
152
90
184
90
183
90
4
90
183
90
184
90
216
90
215
90
4
90
215
90
216
90
248
90
247
90
4
90
247
90
248
90
280
90
279
90
4
90
279
90
280
90
312
90
311
90
4
90
311
90
312
90
344
90
343
90
4
90
343
90
344
90
376
90
375
90
4
90
375
90
376
90
408
90
407
90
4
90
407
90
408
90
440
90
439
90
4
90
439
90
440
90
472
90
471
90
3
90
0
90
25
90
24
90
3
90
481
90
472
90
473
90
4
90
24
90
25
90
57
90
56
90
4
90
56
90
57
90
89
90
88
90
4
90
88
90
89
90
121
90
120
90
4
90
120
90
121
90
153
90
152
90
4
90
152
90
153
90
185
90
184
90
4
90
184
90
185
90
217
90
216
90
4
90
216
90
217
90
249
90
248
90
4
90
248
90
249
90
281
90
280
90
4
90
280
90
281
90
313
90
312
90
4
90
312
90
313
90
345
90
344
90
4
90
344
90
345
90
377
90
376
90
4
90
376
90
377
90
409
90
408
90
4
90
408
90
409
90
441
90
440
90
4
90
440
90
441
90
473
90
472
90
3
90
0
90
26
90
25
90
3
90
481
90
473
90
474
90
4
90
25
90
26
90
58
90
57
90
4
90
57
90
58
90
90
90
89
90
4
90
89
90
90
90
122
90
121
90
4
90
121
90
122
90
154
90
153
90
4
90
153
90
154
90
186
90
185
90
4
90
185
90
186
90
218
90
217
90
4
90
217
90
218
90
250
90
249
90
4
90
249
90
250
90
282
90
281
90
4
90
281
90
282
90
314
90
313
90
4
90
313
90
314
90
346
90
345
90
4
90
345
90
346
90
378
90
377
90
4
90
377
90
378
90
410
90
409
90
4
90
409
90
410
90
442
90
441
90
4
90
441
90
442
90
474
90
473
90
3
90
0
90
27
90
26
90
3
90
481
90
474
90
475
90
4
90
26
90
27
90
59
90
58
90
4
90
58
90
59
90
91
90
90
90
4
90
90
90
91
90
123
90
122
90
4
90
122
90
123
90
155
90
154
90
4
90
154
90
155
90
187
90
186
90
4
90
186
90
187
90
219
90
218
90
4
90
218
90
219
90
251
90
250
90
4
90
250
90
251
90
283
90
282
90
4
90
282
90
283
90
315
90
314
90
4
90
314
90
315
90
347
90
346
90
4
90
346
90
347
90
379
90
378
90
4
90
378
90
379
90
411
90
410
90
4
90
410
90
411
90
443
90
442
90
4
90
442
90
443
90
475
90
474
90
3
90
0
90
28
90
27
90
3
90
481
90
475
90
476
90
4
90
27
90
28
90
60
90
59
90
4
90
59
90
60
90
92
90
91
90
4
90
91
90
92
90
124
90
123
90
4
90
123
90
124
90
156
90
155
90
4
90
155
90
156
90
188
90
187
90
4
90
187
90
188
90
220
90
219
90
4
90
219
90
220
90
252
90
251
90
4
90
251
90
252
90
284
90
283
90
4
90
283
90
284
90
316
90
315
90
4
90
315
90
316
90
348
90
347
90
4
90
347
90
348
90
380
90
379
90
4
90
379
90
380
90
412
90
411
90
4
90
411
90
412
90
444
90
443
90
4
90
443
90
444
90
476
90
475
90
3
90
0
90
29
90
28
90
3
90
481
90
476
90
477
90
4
90
28
90
29
90
61
90
60
90
4
90
60
90
61
90
93
90
92
90
4
90
92
90
93
90
125
90
124
90
4
90
124
90
125
90
157
90
156
90
4
90
156
90
157
90
189
90
188
90
4
90
188
90
189
90
221
90
220
90
4
90
220
90
221
90
253
90
252
90
4
90
252
90
253
90
285
90
284
90
4
90
284
90
285
90
317
90
316
90
4
90
316
90
317
90
349
90
348
90
4
90
348
90
349
90
381
90
380
90
4
90
380
90
381
90
413
90
412
90
4
90
412
90
413
90
445
90
444
90
4
90
444
90
445
90
477
90
476
90
3
90
0
90
30
90
29
90
3
90
481
90
477
90
478
90
4
90
29
90
30
90
62
90
61
90
4
90
61
90
62
90
94
90
93
90
4
90
93
90
94
90
126
90
125
90
4
90
125
90
126
90
158
90
157
90
4
90
157
90
158
90
190
90
189
90
4
90
189
90
190
90
222
90
221
90
4
90
221
90
222
90
254
90
253
90
4
90
253
90
254
90
286
90
285
90
4
90
285
90
286
90
318
90
317
90
4
90
317
90
318
90
350
90
349
90
4
90
349
90
350
90
382
90
381
90
4
90
381
90
382
90
414
90
413
90
4
90
413
90
414
90
446
90
445
90
4
90
445
90
446
90
478
90
477
90
3
90
0
90
31
90
30
90
3
90
481
90
478
90
479
90
4
90
30
90
31
90
63
90
62
90
4
90
62
90
63
90
95
90
94
90
4
90
94
90
95
90
127
90
126
90
4
90
126
90
127
90
159
90
158
90
4
90
158
90
159
90
191
90
190
90
4
90
190
90
191
90
223
90
222
90
4
90
222
90
223
90
255
90
254
90
4
90
254
90
255
90
287
90
286
90
4
90
286
90
287
90
319
90
318
90
4
90
318
90
319
90
351
90
350
90
4
90
350
90
351
90
383
90
382
90
4
90
382
90
383
90
415
90
414
90
4
90
414
90
415
90
447
90
446
90
4
90
446
90
447
90
479
90
478
90
3
90
0
90
32
90
31
90
3
90
481
90
479
90
480
90
4
90
31
90
32
90
64
90
63
90
4
90
63
90
64
90
96
90
95
90
4
90
95
90
96
90
128
90
127
90
4
90
127
90
128
90
160
90
159
90
4
90
159
90
160
90
192
90
191
90
4
90
191
90
192
90
224
90
223
90
4
90
223
90
224
90
256
90
255
90
4
90
255
90
256
90
288
90
287
90
4
90
287
90
288
90
320
90
319
90
4
90
319
90
320
90
352
90
351
90
4
90
351
90
352
90
384
90
383
90
4
90
383
90
384
90
416
90
415
90
4
90
415
90
416
90
448
90
447
90
4
90
447
90
448
90
480
90
479
90
3
90
0
90
1
90
32
90
3
90
481
90
480
90
449
90
4
90
32
90
1
90
33
90
64
90
4
90
64
90
33
90
65
90
96
90
4
90
96
90
65
90
97
90
128
90
4
90
128
90
97
90
129
90
160
90
4
90
160
90
129
90
161
90
192
90
4
90
192
90
161
90
193
90
224
90
4
90
224
90
193
90
225
90
256
90
4
90
256
90
225
90
257
90
288
90
4
90
288
90
257
90
289
90
320
90
4
90
320
90
289
90
321
90
352
90
4
90
352
90
321
90
353
90
384
90
4
90
384
90
353
90
385
90
416
90
4
90
416
90
385
90
417
90
448
90
4
90
448
90
417
90
449
90
480
94
0
95
0
90
0
1001
CONDUITCAD
1000
{"id":"3d-primitives-004","label":"Sphere","feature3d":{"version":1,"kind":"sphere","parameters":{"radius":28,"x":30,"y":110,"z":30},"inputs":[],"suppressed":false},"model3dConsumed":false,"model3dUse
1000
rHidden":false}
0
MESH
5
104
330
118
100
AcDbEntity
8
Equipment
62
7
420
6068386
100
AcDbSubDMesh
71
2
72
0
91
0
92
768
10
158.3149157926016
20
110
30
11.555849108714186
10
156.36396103067892
20
110
30
8.63603896932107
10
153.4441508912858
20
110
30
6.68508420739842
10
150
20
110
30
6
10
146.5558491087142
20
110
30
6.685084207398422
10
143.63603896932108
20
110
30
8.636038969321072
10
141.6850842073984
20
110
30
11.555849108714193
10
141
20
110
30
15.000000000000002
10
141.6850842073984
20
110
30
18.44415089128581
10
143.63603896932108
20
110
30
21.36396103067893
10
146.5558491087142
20
110
30
23.31491579260158
10
150
20
110
30
24
10
153.4441508912858
20
110
30
23.31491579260158
10
156.36396103067892
20
110
30
21.36396103067893
10
158.3149157926016
20
110
30
18.44415089128581
10
159
20
110
30
15
10
157.9871263765451
20
115.00110006364021
30
11.555849108714186
10
156.0528623030641
20
114.74644936737286
30
8.63603896932107
10
153.15803154417566
20
114.36533766787238
30
6.68508420739842
10
149.7433458412143
20
113.91578576660154
30
6
10
146.32866013825296
20
113.46623386533071
30
6.685084207398422
10
143.4338293793645
20
113.08512216583023
30
8.636038969321072
10
141.49956530588352
20
112.8304714695629
30
11.555849108714193
10
140.82034208885003
20
112.74105003662109
30
15.000000000000002
10
141.49956530588352
20
112.8304714695629
30
18.44415089128581
10
143.4338293793645
20
113.08512216583023
30
21.36396103067893
10
146.32866013825296
20
113.46623386533071
30
23.31491579260158
10
149.7433458412143
20
113.91578576660154
30
24
10
153.15803154417566
20
114.36533766787238
30
23.31491579260158
10
156.0528623030641
20
114.74644936737286
30
21.36396103067893
10
157.9871263765451
20
115.00110006364021
30
18.44415089128581
10
158.66634959357862
20
115.09052149658201
30
15
10
157.00936669616476
20
119.91662991862464
30
11.555849108714186
10
155.124889105702
20
119.4116856701056
30
8.63603896932107
10
152.30456908420152
20
118.65598319794721
30
6.68508420739842
10
148.97777478867204
20
117.76457135307562
30
6
10
145.65098049314258
20
116.87315950820403
30
6.685084207398422
10
142.83066047164206
20
116.11745703604565
30
8.636038969321072
10
140.94618288117934
20
115.61251278752661
30
11.555849108714193
10
140.28444235207044
20
115.43519994715294
30
15.000000000000002
10
140.94618288117934
20
115.61251278752661
30
18.44415089128581
10
142.83066047164206
20
116.11745703604565
30
21.36396103067893
10
145.65098049314258
20
116.87315950820404
30
23.31491579260158
10
148.97777478867204
20
117.76457135307562
30
24
10
152.30456908420152
20
118.65598319794721
30
23.31491579260158
10
155.12488910570204
20
119.4116856701056
30
21.36396103067893
10
157.00936669616476
20
119.91662991862464
30
18.44415089128581
10
157.67110722527366
20
120.09394275899831
30
15
10
155.39836649067806
20
124.66248348629216
30
11.555849108714186
10
153.5959193172823
20
123.91588542161058
30
8.63603896932107
10
150.89836649067806
20
122.79852245561322
30
6.68508420739842
10
147.7163859753386
20
121.4805029709527
30
6
10
144.53440545999914
20
120.16248348629216
30
6.685084207398422
10
141.8368526333949
20
119.0451205202948
30
8.636038969321072
10
140.03440545999914
20
118.29852245561322
30
11.555849108714193
10
139.40147018273703
20
118.03635207966688
30
15.000000000000002
10
140.03440545999914
20
118.29852245561322
30
18.44415089128581
10
141.8368526333949
20
119.0451205202948
30
21.36396103067893
10
144.53440545999914
20
120.16248348629216
30
23.31491579260158
10
147.7163859753386
20
121.4805029709527
30
24
10
150.89836649067806
20
122.79852245561322
30
23.31491579260158
10
153.5959193172823
20
123.91588542161058
30
21.36396103067893
10
155.39836649067806
20
124.66248348629216
30
18.44415089128581
10
156.0313017679402
20
124.9246538622385
30
15
10
153.18169042025454
20
129.1574578963008
30
11.555849108714186
10
151.4921140347953
20
128.18198051533946
30
8.63603896932107
10
148.9634842798535
20
126.7220754456429
30
6.68508420739842
10
145.98076211353316
20
125
30
6
10
142.99803994721282
20
123.2779245543571
30
6.685084207398422
10
140.469410192271
20
121.81801948466054
30
8.636038969321072
10
138.77983380681178
20
120.8425421036992
30
11.555849108714193
10
138.1865334794732
20
120.5
30
15.000000000000002
10
138.77983380681178
20
120.8425421036992
30
18.44415089128581
10
140.469410192271
20
121.81801948466054
30
21.36396103067893
10
142.99803994721285
20
123.2779245543571
30
23.31491579260158
10
145.98076211353316
20
125
30
24
10
148.9634842798535
20
126.7220754456429
30
23.31491579260158
10
151.49211403479532
20
128.18198051533946
30
21.36396103067893
10
153.18169042025454
20
129.1574578963008
30
18.44415089128581
10
153.7749907475931
20
129.5
30
15
10
150.39726642703786
20
133.32464289025293
30
11.555849108714186
10
148.84946994990943
20
132.13697688145353
30
8.63603896932107
10
146.53302882280568
20
130.35950908856242
30
6.68508420739842
10
143.80060020873705
20
128.2628428702616
30
6
10
141.06817159466843
20
126.16617665196081
30
6.685084207398422
10
138.75173046756467
20
124.38870885906971
30
8.636038969321072
10
137.20393399043624
20
123.2010428502703
30
11.555849108714193
10
136.66042014611594
20
122.78399000918313
30
15.000000000000002
10
137.20393399043624
20
123.2010428502703
30
18.44415089128581
10
138.75173046756467
20
124.38870885906971
30
21.36396103067893
10
141.06817159466843
20
126.16617665196081
30
23.31491579260158
10
143.80060020873705
20
128.2628428702616
30
24
10
146.53302882280568
20
130.35950908856242
30
23.31491579260158
10
148.84946994990943
20
132.13697688145353
30
21.36396103067893
10
150.39726642703786
20
133.32464289025293
30
18.44415089128581
10
150.94078027135816
20
133.74169573134012
30
15
10
147.09273677754013
20
137.09273677754013
30
11.555849108714186
10
145.71320343559643
20
135.71320343559643
30
8.63603896932107
10
143.64858588625432
20
133.6485858862543
30
6.68508420739842
10
141.21320343559643
20
131.21320343559643
30
6
10
138.77782098493853
20
128.77782098493853
30
6.685084207398422
10
136.71320343559643
20
126.71320343559643
30
8.636038969321072
10
135.33367009365273
20
125.33367009365273
30
11.555849108714193
10
134.8492424049175
20
124.8492424049175
30
15.000000000000002
10
135.33367009365273
20
125.33367009365273
30
18.44415089128581
10
136.71320343559643
20
126.71320343559643
30
21.36396103067893
10
138.77782098493853
20
128.77782098493853
30
23.31491579260158
10
141.21320343559643
20
131.21320343559643
30
24
10
143.64858588625432
20
133.6485858862543
30
23.31491579260158
10
145.71320343559643
20
135.71320343559643
30
21.36396103067893
10
147.09273677754013
20
137.09273677754013
30
18.44415089128581
10
147.57716446627535
20
137.57716446627535
30
15
10
143.32464289025293
20
140.39726642703786
30
11.555849108714186
10
142.13697688145353
20
138.84946994990943
30
8.63603896932107
10
140.35950908856242
20
136.53302882280568
30
6.68508420739842
10
138.2628428702616
20
133.80060020873705
30
6
10
136.16617665196082
20
131.06817159466843
30
6.685084207398422
10
134.3887088590697
20
128.75173046756467
30
8.636038969321072
10
133.2010428502703
20
127.20393399043624
30
11.555849108714193
10
132.78399000918313
20
126.66042014611594
30
15.000000000000002
10
133.2010428502703
20
127.20393399043624
30
18.44415089128581
10
134.3887088590697
20
128.75173046756467
30
21.36396103067893
10
136.16617665196082
20
131.06817159466843
30
23.31491579260158
10
138.2628428702616
20
133.80060020873705
30
24
10
140.35950908856242
20
136.53302882280568
30
23.31491579260158
10
142.13697688145353
20
138.84946994990943
30
21.36396103067893
10
143.32464289025293
20
140.39726642703786
30
18.44415089128581
10
143.74169573134012
20
140.94078027135816
30
15
10
139.1574578963008
20
143.18169042025454
30
11.555849108714186
10
138.18198051533946
20
141.4921140347953
30
8.63603896932107
10
136.7220754456429
20
138.96348427985347
30
6.68508420739842
10
135
20
135.98076211353316
30
6
10
133.2779245543571
20
132.99803994721282
30
6.685084207398422
10
131.81801948466054
20
130.469410192271
30
8.636038969321072
10
130.8425421036992
20
128.77983380681178
30
11.555849108714193
10
130.5
20
128.1865334794732
30
15.000000000000002
10
130.8425421036992
20
128.77983380681178
30
18.44415089128581
10
131.81801948466054
20
130.469410192271
30
21.36396103067893
10
133.2779245543571
20
132.99803994721282
30
23.31491579260158
10
135
20
135.98076211353316
30
24
10
136.7220754456429
20
138.96348427985347
30
23.31491579260158
10
138.18198051533946
20
141.49211403479532
30
21.36396103067893
10
139.1574578963008
20
143.18169042025454
30
18.44415089128581
10
139.5
20
143.7749907475931
30
15
10
134.66248348629216
20
145.39836649067806
30
11.555849108714186
10
133.91588542161057
20
143.5959193172823
30
8.63603896932107
10
132.79852245561324
20
140.89836649067806
30
6.68508420739842
10
131.4805029709527
20
137.7163859753386
30
6
10
130.16248348629216
20
134.53440545999914
30
6.685084207398422
10
129.0451205202948
20
131.8368526333949
30
8.636038969321072
10
128.29852245561324
20
130.03440545999914
30
11.555849108714193
10
128.0363520796669
20
129.40147018273703
30
15.000000000000002
10
128.29852245561324
20
130.03440545999914
30
18.44415089128581
10
129.0451205202948
20
131.8368526333949
30
21.36396103067893
10
130.16248348629216
20
134.53440545999914
30
23.31491579260158
10
131.4805029709527
20
137.7163859753386
30
24
10
132.79852245561324
20
140.89836649067806
30
23.31491579260158
10
133.9158854216106
20
143.5959193172823
30
21.36396103067893
10
134.66248348629216
20
145.39836649067806
30
18.44415089128581
10
134.9246538622385
20
146.0313017679402
30
15
10
129.91662991862464
20
147.00936669616476
30
11.555849108714186
10
129.41168567010558
20
145.124889105702
30
8.63603896932107
10
128.65598319794722
20
142.30456908420152
30
6.68508420739842
10
127.76457135307562
20
138.97777478867204
30
6
10
126.87315950820403
20
135.65098049314258
30
6.685084207398422
10
126.11745703604565
20
132.83066047164206
30
8.636038969321072
10
125.61251278752661
20
130.94618288117934
30
11.555849108714193
10
125.43519994715294
20
130.28444235207044
30
15.000000000000002
10
125.61251278752661
20
130.94618288117934
30
18.44415089128581
10
126.11745703604565
20
132.83066047164206
30
21.36396103067893
10
126.87315950820404
20
135.65098049314258
30
23.31491579260158
10
127.76457135307562
20
138.97777478867204
30
24
10
128.65598319794722
20
142.30456908420152
30
23.31491579260158
10
129.41168567010558
20
145.12488910570204
30
21.36396103067893
10
129.91662991862464
20
147.00936669616476
30
18.44415089128581
10
130.0939427589983
20
147.67110722527366
30
15
10
125.00110006364021
20
147.9871263765451
30
11.555849108714186
10
124.74644936737286
20
146.0528623030641
30
8.63603896932107
10
124.36533766787238
20
143.15803154417566
30
6.68508420739842
10
123.91578576660154
20
139.7433458412143
30
6
10
123.46623386533072
20
136.32866013825296
30
6.685084207398422
10
123.08512216583023
20
133.4338293793645
30
8.636038969321072
10
122.8304714695629
20
131.49956530588352
30
11.555849108714193
10
122.74105003662109
20
130.82034208885003
30
15.000000000000002
10
122.8304714695629
20
131.49956530588352
30
18.44415089128581
10
123.08512216583023
20
133.4338293793645
30
21.36396103067893
10
123.46623386533072
20
136.32866013825296
30
23.31491579260158
10
123.91578576660154
20
139.7433458412143
30
24
10
124.36533766787238
20
143.15803154417566
30
23.31491579260158
10
124.74644936737286
20
146.0528623030641
30
21.36396103067893
10
125.00110006364021
20
147.9871263765451
30
18.44415089128581
10
125.09052149658201
20
148.66634959357862
30
15
10
120
20
148.3149157926016
30
11.555849108714186
10
120
20
146.36396103067892
30
8.63603896932107
10
120
20
143.4441508912858
30
6.68508420739842
10
120
20
140
30
6
10
120
20
136.5558491087142
30
6.685084207398422
10
120
20
133.63603896932108
30
8.636038969321072
10
120
20
131.6850842073984
30
11.555849108714193
10
120
20
131
30
15.000000000000002
10
120
20
131.6850842073984
30
18.44415089128581
10
120
20
133.63603896932108
30
21.36396103067893
10
120
20
136.5558491087142
30
23.31491579260158
10
120
20
140
30
24
10
120
20
143.4441508912858
30
23.31491579260158
10
120
20
146.36396103067892
30
21.36396103067893
10
120
20
148.3149157926016
30
18.44415089128581
10
120
20
149
30
15
10
114.99889993635979
20
147.9871263765451
30
11.555849108714186
10
115.25355063262714
20
146.0528623030641
30
8.63603896932107
10
115.63466233212762
20
143.15803154417566
30
6.68508420739842
10
116.08421423339846
20
139.7433458412143
30
6
10
116.53376613466929
20
136.32866013825296
30
6.685084207398422
10
116.91487783416977
20
133.4338293793645
30
8.636038969321072
10
117.1695285304371
20
131.49956530588352
30
11.555849108714193
10
117.25894996337891
20
130.82034208885003
30
15.000000000000002
10
117.1695285304371
20
131.49956530588352
30
18.44415089128581
10
116.91487783416977
20
133.4338293793645
30
21.36396103067893
10
116.53376613466929
20
136.32866013825296
30
23.31491579260158
10
116.08421423339846
20
139.7433458412143
30
24
10
115.63466233212762
20
143.15803154417566
30
23.31491579260158
10
115.25355063262714
20
146.0528623030641
30
21.36396103067893
10
114.99889993635979
20
147.9871263765451
30
18.44415089128581
10
114.90947850341799
20
148.66634959357862
30
15
10
110.08337008137536
20
147.00936669616476
30
11.555849108714186
10
110.58831432989442
20
145.124889105702
30
8.63603896932107
10
111.34401680205279
20
142.30456908420152
30
6.68508420739842
10
112.23542864692438
20
138.97777478867204
30
6
10
113.12684049179597
20
135.65098049314258
30
6.685084207398422
10
113.88254296395435
20
132.83066047164206
30
8.636038969321072
10
114.38748721247339
20
130.94618288117934
30
11.555849108714193
10
114.56480005284706
20
130.28444235207044
30
15.000000000000002
10
114.38748721247339
20
130.94618288117934
30
18.44415089128581
10
113.88254296395435
20
132.83066047164206
30
21.36396103067893
10
113.12684049179597
20
135.65098049314258
30
23.31491579260158
10
112.23542864692438
20
138.97777478867204
30
24
10
111.34401680205279
20
142.30456908420152
30
23.31491579260158
10
110.5883143298944
20
145.12488910570204
30
21.36396103067893
10
110.08337008137536
20
147.00936669616476
30
18.44415089128581
10
109.90605724100169
20
147.67110722527366
30
15
10
105.33751651370785
20
145.3983664906781
30
11.555849108714186
10
106.08411457838943
20
143.5959193172823
30
8.63603896932107
10
107.20147754438678
20
140.8983664906781
30
6.68508420739842
10
108.51949702904732
20
137.7163859753386
30
6
10
109.83751651370785
20
134.53440545999914
30
6.685084207398422
10
110.9548794797052
20
131.8368526333949
30
8.636038969321072
10
111.70147754438678
20
130.03440545999914
30
11.555849108714193
10
111.96364792033312
20
129.40147018273703
30
15.000000000000002
10
111.70147754438678
20
130.03440545999914
30
18.44415089128581
10
110.9548794797052
20
131.8368526333949
30
21.36396103067893
10
109.83751651370785
20
134.53440545999914
30
23.31491579260158
10
108.51949702904732
20
137.7163859753386
30
24
10
107.20147754438678
20
140.8983664906781
30
23.31491579260158
10
106.08411457838943
20
143.5959193172823
30
21.36396103067893
10
105.33751651370785
20
145.3983664906781
30
18.44415089128581
10
105.07534613776151
20
146.0313017679402
30
15
10
100.84254210369922
20
143.18169042025454
30
11.555849108714186
10
101.81801948466054
20
141.4921140347953
30
8.63603896932107
10
103.2779245543571
20
138.9634842798535
30
6.68508420739842
10
105
20
135.98076211353316
30
6
10
106.72207544564291
20
132.99803994721282
30
6.685084207398422
10
108.18198051533948
20
130.469410192271
30
8.636038969321072
10
109.1574578963008
20
128.77983380681178
30
11.555849108714193
10
109.5
20
128.1865334794732
30
15.000000000000002
10
109.1574578963008
20
128.77983380681178
30
18.44415089128581
10
108.18198051533948
20
130.469410192271
30
21.36396103067893
10
106.72207544564291
20
132.99803994721285
30
23.31491579260158
10
105
20
135.98076211353316
30
24
10
103.2779245543571
20
138.9634842798535
30
23.31491579260158
10
101.81801948466054
20
141.49211403479532
30
21.36396103067893
10
100.84254210369922
20
143.18169042025454
30
18.44415089128581
10
100.5
20
143.7749907475931
30
15
10
96.67535710974707
20
140.39726642703786
30
11.555849108714186
10
97.86302311854647
20
138.84946994990943
30
8.63603896932107
10
99.64049091143758
20
136.53302882280568
30
6.68508420739842
10
101.73715712973838
20
133.80060020873705
30
6
10
103.83382334803919
20
131.06817159466843
30
6.685084207398422
10
105.61129114093029
20
128.75173046756467
30
8.636038969321072
10
106.7989571497297
20
127.20393399043624
30
11.555849108714193
10
107.21600999081687
20
126.66042014611594
30
15.000000000000002
10
106.7989571497297
20
127.20393399043624
30
18.44415089128581
10
105.61129114093029
20
128.75173046756467
30
21.36396103067893
10
103.83382334803919
20
131.06817159466843
30
23.31491579260158
10
101.73715712973838
20
133.80060020873705
30
24
10
99.64049091143758
20
136.53302882280568
30
23.31491579260158
10
97.86302311854647
20
138.84946994990943
30
21.36396103067893
10
96.67535710974707
20
140.39726642703786
30
18.44415089128581
10
96.2583042686599
20
140.94078027135816
30
15
10
92.90726322245987
20
137.09273677754013
30
11.555849108714186
10
94.28679656440357
20
135.71320343559643
30
8.63603896932107
10
96.35141411374569
20
133.64858588625432
30
6.68508420739842
10
98.78679656440357
20
131.21320343559643
30
6
10
101.22217901506147
20
128.77782098493853
30
6.685084207398422
10
103.28679656440357
20
126.71320343559643
30
8.636038969321072
10
104.66632990634727
20
125.33367009365273
30
11.555849108714193
10
105.1507575950825
20
124.8492424049175
30
15.000000000000002
10
104.66632990634727
20
125.33367009365273
30
18.44415089128581
10
103.28679656440357
20
126.71320343559643
30
21.36396103067893
10
101.22217901506147
20
128.77782098493853
30
23.31491579260158
10
98.78679656440357
20
131.21320343559643
30
24
10
96.35141411374569
20
133.64858588625432
30
23.31491579260158
10
94.28679656440357
20
135.71320343559643
30
21.36396103067893
10
92.90726322245987
20
137.09273677754013
30
18.44415089128581
10
92.42283553372465
20
137.57716446627535
30
15
10
89.60273357296214
20
133.32464289025296
30
11.555849108714186
10
91.15053005009057
20
132.13697688145353
30
8.63603896932107
10
93.46697117719432
20
130.35950908856245
30
6.68508420739842
10
96.19939979126295
20
128.26284287026164
30
6
10
98.93182840533159
20
126.16617665196081
30
6.685084207398422
10
101.24826953243533
20
124.38870885906971
30
8.636038969321072
10
102.79606600956376
20
123.20104285027031
30
11.555849108714193
10
103.33957985388406
20
122.78399000918314
30
15.000000000000002
10
102.79606600956376
20
123.20104285027031
30
18.44415089128581
10
101.24826953243533
20
124.38870885906971
30
21.36396103067893
10
98.93182840533157
20
126.16617665196082
30
23.31491579260158
10
96.19939979126295
20
128.26284287026164
30
24
10
93.46697117719432
20
130.35950908856245
30
23.31491579260158
10
91.15053005009057
20
132.13697688145353
30
21.36396103067893
10
89.60273357296214
20
133.32464289025296
30
18.44415089128581
10
89.05921972864184
20
133.74169573134012
30
15
10
86.81830957974545
20
129.1574578963008
30
11.555849108714186
10
88.5078859652047
20
128.18198051533946
30
8.63603896932107
10
91.03651572014651
20
126.7220754456429
30
6.68508420739842
10
94.01923788646684
20
125
30
6
10
97.00196005278717
20
123.2779245543571
30
6.685084207398422
10
99.53058980772899
20
121.81801948466054
30
8.636038969321072
10
101.22016619318823
20
120.8425421036992
30
11.555849108714193
10
101.81346652052679
20
120.5
30
15.000000000000002
10
101.22016619318823
20
120.8425421036992
30
18.44415089128581
10
99.53058980772899
20
121.81801948466054
30
21.36396103067893
10
97.00196005278717
20
123.2779245543571
30
23.31491579260158
10
94.01923788646684
20
125
30
24
10
91.03651572014651
20
126.7220754456429
30
23.31491579260158
10
88.50788596520468
20
128.18198051533946
30
21.36396103067893
10
86.81830957974545
20
129.1574578963008
30
18.44415089128581
10
86.22500925240689
20
129.5
30
15
10
84.60163350932194
20
124.66248348629216
30
11.555849108714186
10
86.4040806827177
20
123.91588542161058
30
8.63603896932107
10
89.10163350932194
20
122.79852245561324
30
6.68508420739842
10
92.2836140246614
20
121.4805029709527
30
6
10
95.46559454000086
20
120.16248348629216
30
6.685084207398422
10
98.1631473666051
20
119.0451205202948
30
8.636038969321072
10
99.96559454000086
20
118.29852245561324
30
11.555849108714193
10
100.59852981726297
20
118.03635207966688
30
15.000000000000002
10
99.96559454000086
20
118.29852245561324
30
18.44415089128581
10
98.1631473666051
20
119.0451205202948
30
21.36396103067893
10
95.46559454000086
20
120.16248348629216
30
23.31491579260158
10
92.2836140246614
20
121.4805029709527
30
24
10
89.10163350932194
20
122.79852245561324
30
23.31491579260158
10
86.4040806827177
20
123.91588542161058
30
21.36396103067893
10
84.60163350932194
20
124.66248348629216
30
18.44415089128581
10
83.96869823205981
20
124.9246538622385
30
15
10
82.99063330383524
20
119.91662991862464
30
11.555849108714186
10
84.87511089429799
20
119.41168567010561
30
8.63603896932107
10
87.69543091579848
20
118.65598319794722
30
6.68508420739842
10
91.02222521132795
20
117.76457135307562
30
6
10
94.34901950685743
20
116.87315950820404
30
6.685084207398422
10
97.16933952835794
20
116.11745703604565
30
8.636038969321072
10
99.05381711882066
20
115.61251278752661
30
11.555849108714193
10
99.71555764792957
20
115.43519994715294
30
15.000000000000002
10
99.05381711882066
20
115.61251278752661
30
18.44415089128581
10
97.16933952835794
20
116.11745703604565
30
21.36396103067893
10
94.34901950685743
20
116.87315950820404
30
23.31491579260158
10
91.02222521132795
20
117.76457135307562
30
24
10
87.69543091579848
20
118.65598319794722
30
23.31491579260158
10
84.87511089429798
20
119.41168567010561
30
21.36396103067893
10
82.99063330383524
20
119.91662991862464
30
18.44415089128581
10
82.32889277472634
20
120.09394275899832
30
15
10
82.01287362345491
20
115.00110006364022
30
11.555849108714186
10
83.9471376969359
20
114.74644936737288
30
8.63603896932107
10
86.84196845582434
20
114.3653376678724
30
6.68508420739842
10
90.2566541587857
20
113.91578576660156
30
6
10
93.67133986174704
20
113.46623386533072
30
6.685084207398422
10
96.56617062063549
20
113.08512216583024
30
8.636038969321072
10
98.50043469411648
20
112.8304714695629
30
11.555849108714193
10
99.17965791114997
20
112.74105003662109
30
15.000000000000002
10
98.50043469411648
20
112.8304714695629
30
18.44415089128581
10
96.56617062063549
20
113.08512216583024
30
21.36396103067893
10
93.67133986174703
20
113.46623386533072
30
23.31491579260158
10
90.2566541587857
20
113.91578576660156
30
24
10
86.84196845582434
20
114.3653376678724
30
23.31491579260158
10
83.94713769693588
20
114.74644936737288
30
21.36396103067893
10
82.01287362345491
20
115.00110006364022
30
18.44415089128581
10
81.3336504064214
20
115.09052149658203
30
15
10
81.68508420739842
20
110
30
11.555849108714186
10
83.63603896932108
20
110
30
8.63603896932107
10
86.5558491087142
20
110
30
6.68508420739842
10
90
20
110
30
6
10
93.44415089128582
20
110
30
6.685084207398422
10
96.36396103067892
20
110
30
8.636038969321072
10
98.31491579260158
20
110
30
11.555849108714193
10
99
20
110
30
15.000000000000002
10
98.31491579260158
20
110
30
18.44415089128581
10
96.36396103067892
20
110
30
21.36396103067893
10
93.4441508912858
20
110
30
23.31491579260158
10
90
20
110
30
24
10
86.5558491087142
20
110
30
23.31491579260158
10
83.63603896932108
20
110
30
21.36396103067893
10
81.68508420739842
20
110
30
18.44415089128581
10
81
20
110
30
15
10
82.01287362345491
20
104.99889993635979
30
11.555849108714186
10
83.9471376969359
20
105.25355063262712
30
8.63603896932107
10
86.84196845582434
20
105.63466233212762
30
6.68508420739842
10
90.2566541587857
20
106.08421423339844
30
6
10
93.67133986174704
20
106.53376613466928
30
6.685084207398422
10
96.56617062063549
20
106.91487783416976
30
8.636038969321072
10
98.50043469411648
20
107.1695285304371
30
11.555849108714193
10
99.17965791114997
20
107.25894996337891
30
15.000000000000002
10
98.50043469411648
20
107.1695285304371
30
18.44415089128581
10
96.56617062063549
20
106.91487783416976
30
21.36396103067893
10
93.67133986174703
20
106.53376613466928
30
23.31491579260158
10
90.2566541587857
20
106.08421423339844
30
24
10
86.84196845582434
20
105.63466233212762
30
23.31491579260158
10
83.94713769693588
20
105.25355063262712
30
21.36396103067893
10
82.01287362345491
20
104.99889993635979
30
18.44415089128581
10
81.3336504064214
20
104.90947850341799
30
15
10
82.99063330383524
20
100.08337008137536
30
11.555849108714186
10
84.87511089429799
20
100.5883143298944
30
8.63603896932107
10
87.69543091579848
20
101.34401680205279
30
6.68508420739842
10
91.02222521132795
20
102.23542864692438
30
6
10
94.34901950685743
20
103.12684049179596
30
6.685084207398422
10
97.16933952835792
20
103.88254296395435
30
8.636038969321072
10
99.05381711882066
20
104.38748721247339
30
11.555849108714193
10
99.71555764792956
20
104.56480005284706
30
15.000000000000002
10
99.05381711882066
20
104.38748721247339
30
18.44415089128581
10
97.16933952835792
20
103.88254296395435
30
21.36396103067893
10
94.34901950685743
20
103.12684049179596
30
23.31491579260158
10
91.02222521132795
20
102.23542864692438
30
24
10
87.69543091579848
20
101.34401680205279
30
23.31491579260158
10
84.87511089429798
20
100.5883143298944
30
21.36396103067893
10
82.99063330383524
20
100.08337008137536
30
18.44415089128581
10
82.32889277472634
20
99.90605724100169
30
15
10
84.60163350932193
20
95.33751651370784
30
11.555849108714186
10
86.4040806827177
20
96.08411457838943
30
8.63603896932107
10
89.10163350932193
20
97.20147754438678
30
6.68508420739842
10
92.28361402466139
20
98.51949702904732
30
6
10
95.46559454000086
20
99.83751651370784
30
6.685084207398422
10
98.16314736660509
20
100.9548794797052
30
8.636038969321072
10
99.96559454000086
20
101.70147754438678
30
11.555849108714193
10
100.59852981726297
20
101.96364792033312
30
15.000000000000002
10
99.96559454000086
20
101.70147754438678
30
18.44415089128581
10
98.16314736660509
20
100.9548794797052
30
21.36396103067893
10
95.46559454000086
20
99.83751651370784
30
23.31491579260158
10
92.28361402466139
20
98.51949702904732
30
24
10
89.10163350932193
20
97.20147754438678
30
23.31491579260158
10
86.4040806827177
20
96.08411457838942
30
21.36396103067893
10
84.60163350932193
20
95.33751651370784
30
18.44415089128581
10
83.96869823205981
20
95.0753461377615
30
15
10
86.81830957974545
20
90.84254210369922
30
11.555849108714186
10
88.5078859652047
20
91.81801948466055
30
8.63603896932107
10
91.03651572014651
20
93.2779245543571
30
6.68508420739842
10
94.01923788646684
20
95.00000000000001
30
6
10
97.00196005278717
20
96.72207544564291
30
6.685084207398422
10
99.53058980772899
20
98.18198051533948
30
8.636038969321072
10
101.22016619318822
20
99.1574578963008
30
11.555849108714193
10
101.81346652052679
20
99.5
30
15.000000000000002
10
101.22016619318822
20
99.1574578963008
30
18.44415089128581
10
99.53058980772899
20
98.18198051533948
30
21.36396103067893
10
97.00196005278715
20
96.72207544564291
30
23.31491579260158
10
94.01923788646684
20
95.00000000000001
30
24
10
91.03651572014651
20
93.2779245543571
30
23.31491579260158
10
88.50788596520468
20
91.81801948466054
30
21.36396103067893
10
86.81830957974545
20
90.84254210369922
30
18.44415089128581
10
86.22500925240689
20
90.50000000000001
30
15
10
89.60273357296214
20
86.67535710974707
30
11.555849108714186
10
91.15053005009057
20
87.86302311854647
30
8.63603896932107
10
93.46697117719431
20
89.64049091143758
30
6.68508420739842
10
96.19939979126295
20
91.73715712973838
30
6
10
98.93182840533157
20
93.83382334803919
30
6.685084207398422
10
101.24826953243533
20
95.61129114093029
30
8.636038969321072
10
102.79606600956376
20
96.7989571497297
30
11.555849108714193
10
103.33957985388406
20
97.21600999081687
30
15.000000000000002
10
102.79606600956376
20
96.7989571497297
30
18.44415089128581
10
101.24826953243533
20
95.61129114093029
30
21.36396103067893
10
98.93182840533157
20
93.83382334803919
30
23.31491579260158
10
96.19939979126295
20
91.73715712973838
30
24
10
93.46697117719431
20
89.64049091143758
30
23.31491579260158
10
91.15053005009057
20
87.86302311854647
30
21.36396103067893
10
89.60273357296214
20
86.67535710974707
30
18.44415089128581
10
89.05921972864184
20
86.2583042686599
30
15
10
92.90726322245986
20
82.90726322245989
30
11.555849108714186
10
94.28679656440356
20
84.28679656440359
30
8.63603896932107
10
96.35141411374568
20
86.3514141137457
30
6.68508420739842
10
98.78679656440356
20
88.78679656440359
30
6
10
101.22217901506146
20
91.22217901506147
30
6.685084207398422
10
103.28679656440357
20
93.28679656440359
30
8.636038969321072
10
104.66632990634726
20
94.66632990634727
30
11.555849108714193
10
105.1507575950825
20
95.15075759508251
30
15.000000000000002
10
104.66632990634726
20
94.66632990634727
30
18.44415089128581
10
103.28679656440357
20
93.28679656440359
30
21.36396103067893
10
101.22217901506144
20
91.22217901506147
30
23.31491579260158
10
98.78679656440356
20
88.78679656440359
30
24
10
96.35141411374568
20
86.3514141137457
30
23.31491579260158
10
94.28679656440356
20
84.28679656440359
30
21.36396103067893
10
92.90726322245986
20
82.90726322245989
30
18.44415089128581
10
92.42283553372462
20
82.42283553372467
30
15
10
96.67535710974705
20
79.60273357296214
30
11.555849108714186
10
97.86302311854647
20
81.15053005009058
30
8.63603896932107
10
99.64049091143757
20
83.46697117719432
30
6.68508420739842
10
101.73715712973838
20
86.19939979126295
30
6
10
103.83382334803919
20
88.93182840533159
30
6.685084207398422
10
105.61129114093029
20
91.24826953243533
30
8.636038969321072
10
106.79895714972969
20
92.79606600956376
30
11.555849108714193
10
107.21600999081686
20
93.33957985388406
30
15.000000000000002
10
106.79895714972969
20
92.79606600956376
30
18.44415089128581
10
105.61129114093029
20
91.24826953243533
30
21.36396103067893
10
103.83382334803918
20
88.93182840533159
30
23.31491579260158
10
101.73715712973838
20
86.19939979126295
30
24
10
99.64049091143757
20
83.46697117719432
30
23.31491579260158
10
97.86302311854647
20
81.15053005009057
30
21.36396103067893
10
96.67535710974705
20
79.60273357296214
30
18.44415089128581
10
96.25830426865988
20
79.05921972864184
30
15
10
100.84254210369919
20
76.81830957974546
30
11.555849108714186
10
101.81801948466052
20
78.50788596520471
30
8.63603896932107
10
103.27792455435709
20
81.03651572014653
30
6.68508420739842
10
104.99999999999999
20
84.01923788646684
30
6
10
106.7220754456429
20
87.00196005278718
30
6.685084207398422
10
108.18198051533946
20
89.530589807729
30
8.636038969321072
10
109.15745789630078
20
91.22016619318823
30
11.555849108714193
10
109.49999999999999
20
91.81346652052679
30
15.000000000000002
10
109.15745789630078
20
91.22016619318823
30
18.44415089128581
10
108.18198051533946
20
89.530589807729
30
21.36396103067893
10
106.72207544564289
20
87.00196005278717
30
23.31491579260158
10
104.99999999999999
20
84.01923788646684
30
24
10
103.27792455435709
20
81.03651572014653
30
23.31491579260158
10
101.81801948466051
20
78.5078859652047
30
21.36396103067893
10
100.84254210369919
20
76.81830957974546
30
18.44415089128581
10
100.49999999999999
20
76.22500925240689
30
15
10
105.33751651370785
20
74.60163350932193
30
11.555849108714186
10
106.08411457838943
20
76.4040806827177
30
8.63603896932107
10
107.20147754438678
20
79.10163350932193
30
6.68508420739842
10
108.51949702904732
20
82.28361402466139
30
6
10
109.83751651370785
20
85.46559454000086
30
6.685084207398422
10
110.9548794797052
20
88.16314736660509
30
8.636038969321072
10
111.70147754438678
20
89.96559454000086
30
11.555849108714193
10
111.96364792033312
20
90.59852981726297
30
15.000000000000002
10
111.70147754438678
20
89.96559454000086
30
18.44415089128581
10
110.9548794797052
20
88.16314736660509
30
21.36396103067893
10
109.83751651370785
20
85.46559454000086
30
23.31491579260158
10
108.51949702904732
20
82.28361402466139
30
24
10
107.20147754438678
20
79.10163350932193
30
23.31491579260158
10
106.08411457838943
20
76.4040806827177
30
21.36396103067893
10
105.33751651370785
20
74.60163350932193
30
18.44415089128581
10
105.07534613776151
20
73.96869823205981
30
15
10
110.08337008137536
20
72.99063330383524
30
11.555849108714186
10
110.58831432989442
20
74.87511089429799
30
8.63603896932107
10
111.34401680205279
20
77.69543091579848
30
6.68508420739842
10
112.23542864692438
20
81.02222521132795
30
6
10
113.12684049179597
20
84.34901950685743
30
6.685084207398422
10
113.88254296395435
20
87.16933952835792
30
8.636038969321072
10
114.38748721247339
20
89.05381711882066
30
11.555849108714193
10
114.56480005284706
20
89.71555764792956
30
15.000000000000002
10
114.38748721247339
20
89.05381711882066
30
18.44415089128581
10
113.88254296395435
20
87.16933952835792
30
21.36396103067893
10
113.12684049179597
20
84.34901950685743
30
23.31491579260158
10
112.23542864692438
20
81.02222521132795
30
24
10
111.34401680205279
20
77.69543091579848
30
23.31491579260158
10
110.5883143298944
20
74.87511089429798
30
21.36396103067893
10
110.08337008137536
20
72.99063330383524
30
18.44415089128581
10
109.90605724100169
20
72.32889277472634
30
15
10
114.99889993635979
20
72.01287362345491
30
11.555849108714186
10
115.25355063262714
20
73.9471376969359
30
8.63603896932107
10
115.63466233212762
20
76.84196845582434
30
6.68508420739842
10
116.08421423339846
20
80.2566541587857
30
6
10
116.53376613466928
20
83.67133986174704
30
6.685084207398422
10
116.91487783416977
20
86.56617062063549
30
8.636038969321072
10
117.1695285304371
20
88.50043469411648
30
11.555849108714193
10
117.25894996337891
20
89.17965791114997
30
15.000000000000002
10
117.1695285304371
20
88.50043469411648
30
18.44415089128581
10
116.91487783416977
20
86.56617062063549
30
21.36396103067893
10
116.53376613466928
20
83.67133986174703
30
23.31491579260158
10
116.08421423339846
20
80.2566541587857
30
24
10
115.63466233212762
20
76.84196845582434
30
23.31491579260158
10
115.25355063262714
20
73.94713769693588
30
21.36396103067893
10
114.99889993635979
20
72.01287362345491
30
18.44415089128581
10
114.90947850341799
20
71.3336504064214
30
15
10
120
20
71.68508420739842
30
11.555849108714186
10
120
20
73.63603896932108
30
8.63603896932107
10
120
20
76.5558491087142
30
6.68508420739842
10
120
20
80
30
6
10
120
20
83.44415089128582
30
6.685084207398422
10
120
20
86.36396103067892
30
8.636038969321072
10
120
20
88.31491579260158
30
11.555849108714193
10
120
20
89
30
15.000000000000002
10
120
20
88.31491579260158
30
18.44415089128581
10
120
20
86.36396103067892
30
21.36396103067893
10
120
20
83.4441508912858
30
23.31491579260158
10
120
20
80
30
24
10
120
20
76.5558491087142
30
23.31491579260158
10
120
20
73.63603896932108
30
21.36396103067893
10
120
20
71.68508420739842
30
18.44415089128581
10
119.99999999999999
20
71
30
15
10
125.0011000636402
20
72.01287362345491
30
11.555849108714186
10
124.74644936737285
20
73.9471376969359
30
8.63603896932107
10
124.36533766787237
20
76.84196845582434
30
6.68508420739842
10
123.91578576660154
20
80.2566541587857
30
6
10
123.46623386533071
20
83.67133986174703
30
6.685084207398422
10
123.08512216583023
20
86.56617062063549
30
8.636038969321072
10
122.83047146956288
20
88.50043469411646
30
11.555849108714193
10
122.74105003662108
20
89.17965791114997
30
15.000000000000002
10
122.83047146956288
20
88.50043469411646
30
18.44415089128581
10
123.08512216583023
20
86.56617062063549
30
21.36396103067893
10
123.46623386533071
20
83.67133986174703
30
23.31491579260158
10
123.91578576660154
20
80.2566541587857
30
24
10
124.36533766787237
20
76.84196845582434
30
23.31491579260158
10
124.74644936737285
20
73.94713769693588
30
21.36396103067893
10
125.0011000636402
20
72.01287362345491
30
18.44415089128581
10
125.090521496582
20
71.33365040642138
30
15
10
129.9166299186246
20
72.99063330383524
30
11.555849108714186
10
129.41168567010558
20
74.87511089429798
30
8.63603896932107
10
128.6559831979472
20
77.69543091579847
30
6.68508420739842
10
127.76457135307561
20
81.02222521132795
30
6
10
126.87315950820403
20
84.34901950685743
30
6.685084207398422
10
126.11745703604564
20
87.16933952835792
30
8.636038969321072
10
125.6125127875266
20
89.05381711882066
30
11.555849108714193
10
125.43519994715292
20
89.71555764792956
30
15.000000000000002
10
125.6125127875266
20
89.05381711882066
30
18.44415089128581
10
126.11745703604564
20
87.16933952835792
30
21.36396103067893
10
126.87315950820403
20
84.34901950685742
30
23.31491579260158
10
127.76457135307561
20
81.02222521132795
30
24
10
128.6559831979472
20
77.69543091579847
30
23.31491579260158
10
129.41168567010558
20
74.87511089429796
30
21.36396103067893
10
129.9166299186246
20
72.99063330383524
30
18.44415089128581
10
130.09394275899828
20
72.32889277472634
30
15
10
134.66248348629213
20
74.60163350932193
30
11.555849108714186
10
133.91588542161057
20
76.4040806827177
30
8.63603896932107
10
132.7985224556132
20
79.10163350932193
30
6.68508420739842
10
131.48050297095267
20
82.28361402466139
30
6
10
130.16248348629213
20
85.46559454000086
30
6.685084207398422
10
129.0451205202948
20
88.16314736660509
30
8.636038969321072
10
128.2985224556132
20
89.96559454000086
30
11.555849108714193
10
128.03635207966687
20
90.59852981726297
30
15.000000000000002
10
128.2985224556132
20
89.96559454000086
30
18.44415089128581
10
129.0451205202948
20
88.16314736660509
30
21.36396103067893
10
130.16248348629213
20
85.46559454000086
30
23.31491579260158
10
131.48050297095267
20
82.28361402466139
30
24
10
132.7985224556132
20
79.10163350932193
30
23.31491579260158
10
133.91588542161057
20
76.40408068271769
30
21.36396103067893
10
134.66248348629213
20
74.60163350932193
30
18.44415089128581
10
134.92465386223847
20
73.96869823205981
30
15
10
139.1574578963008
20
76.81830957974546
30
11.555849108714186
10
138.18198051533946
20
78.5078859652047
30
8.63603896932107
10
136.7220754456429
20
81.03651572014651
30
6.68508420739842
10
135
20
84.01923788646684
30
6
10
133.2779245543571
20
87.00196005278717
30
6.685084207398422
10
131.81801948466054
20
89.530589807729
30
8.636038969321072
10
130.8425421036992
20
91.22016619318823
30
11.555849108714193
10
130.5
20
91.81346652052679
30
15.000000000000002
10
130.8425421036992
20
91.22016619318823
30
18.44415089128581
10
131.81801948466054
20
89.530589807729
30
21.36396103067893
10
133.2779245543571
20
87.00196005278717
30
23.31491579260158
10
135
20
84.01923788646684
30
24
10
136.7220754456429
20
81.03651572014651
30
23.31491579260158
10
138.18198051533946
20
78.5078859652047
30
21.36396103067893
10
139.1574578963008
20
76.81830957974546
30
18.44415089128581
10
139.5
20
76.22500925240689
30
15
10
143.3246428902529
20
79.60273357296211
30
11.555849108714186
10
142.1369768814535
20
81.15053005009055
30
8.63603896932107
10
140.3595090885624
20
83.4669711771943
30
6.68508420739842
10
138.2628428702616
20
86.19939979126292
30
6
10
136.1661766519608
20
88.93182840533157
30
6.685084207398422
10
134.38870885906968
20
91.24826953243532
30
8.636038969321072
10
133.20104285027028
20
92.79606600956375
30
11.555849108714193
10
132.78399000918313
20
93.33957985388405
30
15.000000000000002
10
133.20104285027028
20
92.79606600956375
30
18.44415089128581
10
134.38870885906968
20
91.24826953243532
30
21.36396103067893
10
136.1661766519608
20
88.93182840533156
30
23.31491579260158
10
138.2628428702616
20
86.19939979126292
30
24
10
140.3595090885624
20
83.4669711771943
30
23.31491579260158
10
142.1369768814535
20
81.15053005009054
30
21.36396103067893
10
143.3246428902529
20
79.60273357296211
30
18.44415089128581
10
143.7416957313401
20
79.0592197286418
30
15
10
147.09273677754013
20
82.90726322245987
30
11.555849108714186
10
145.71320343559643
20
84.28679656440357
30
8.63603896932107
10
143.6485858862543
20
86.35141411374568
30
6.68508420739842
10
141.21320343559643
20
88.78679656440357
30
6
10
138.77782098493853
20
91.22217901506146
30
6.685084207398422
10
136.71320343559643
20
93.28679656440357
30
8.636038969321072
10
135.33367009365273
20
94.66632990634727
30
11.555849108714193
10
134.8492424049175
20
95.1507575950825
30
15.000000000000002
10
135.33367009365273
20
94.66632990634727
30
18.44415089128581
10
136.71320343559643
20
93.28679656440357
30
21.36396103067893
10
138.77782098493853
20
91.22217901506146
30
23.31491579260158
10
141.21320343559643
20
88.78679656440357
30
24
10
143.6485858862543
20
86.35141411374568
30
23.31491579260158
10
145.71320343559643
20
84.28679656440357
30
21.36396103067893
10
147.09273677754013
20
82.90726322245987
30
18.44415089128581
10
147.57716446627535
20
82.42283553372464
30
15
10
150.39726642703786
20
86.67535710974705
30
11.555849108714186
10
148.84946994990943
20
87.86302311854647
30
8.63603896932107
10
146.53302882280568
20
89.64049091143757
30
6.68508420739842
10
143.80060020873705
20
91.73715712973838
30
6
10
141.06817159466843
20
93.83382334803919
30
6.685084207398422
10
138.75173046756467
20
95.61129114093029
30
8.636038969321072
10
137.20393399043624
20
96.79895714972969
30
11.555849108714193
10
136.66042014611594
20
97.21600999081686
30
15.000000000000002
10
137.20393399043624
20
96.79895714972969
30
18.44415089128581
10
138.75173046756467
20
95.61129114093029
30
21.36396103067893
10
141.06817159466843
20
93.83382334803918
30
23.31491579260158
10
143.80060020873705
20
91.73715712973838
30
24
10
146.53302882280568
20
89.64049091143757
30
23.31491579260158
10
148.84946994990943
20
87.86302311854647
30
21.36396103067893
10
150.39726642703786
20
86.67535710974705
30
18.44415089128581
10
150.94078027135816
20
86.25830426865988
30
15
10
153.18169042025454
20
90.84254210369919
30
11.555849108714186
10
151.4921140347953
20
91.81801948466052
30
8.63603896932107
10
148.96348427985347
20
93.27792455435709
30
6.68508420739842
10
145.98076211353316
20
94.99999999999999
30
6
10
142.99803994721282
20
96.7220754456429
30
6.685084207398422
10
140.469410192271
20
98.18198051533946
30
8.636038969321072
10
138.77983380681175
20
99.15745789630078
30
11.555849108714193
10
138.1865334794732
20
99.49999999999999
30
15.000000000000002
10
138.77983380681175
20
99.15745789630078
30
18.44415089128581
10
140.469410192271
20
98.18198051533946
30
21.36396103067893
10
142.99803994721282
20
96.72207544564289
30
23.31491579260158
10
145.98076211353316
20
94.99999999999999
30
24
10
148.96348427985347
20
93.27792455435709
30
23.31491579260158
10
151.4921140347953
20
91.81801948466051
30
21.36396103067893
10
153.18169042025454
20
90.84254210369919
30
18.44415089128581
10
153.7749907475931
20
90.49999999999999
30
15
10
155.3983664906781
20
95.33751651370785
30
11.555849108714186
10
153.5959193172823
20
96.08411457838943
30
8.63603896932107
10
150.8983664906781
20
97.20147754438678
30
6.68508420739842
10
147.7163859753386
20
98.51949702904732
30
6
10
144.53440545999914
20
99.83751651370785
30
6.685084207398422
10
141.8368526333949
20
100.9548794797052
30
8.636038969321072
10
140.03440545999914
20
101.70147754438678
30
11.555849108714193
10
139.40147018273703
20
101.96364792033312
30
15.000000000000002
10
140.03440545999914
20
101.70147754438678
30
18.44415089128581
10
141.8368526333949
20
100.9548794797052
30
21.36396103067893
10
144.53440545999914
20
99.83751651370785
30
23.31491579260158
10
147.7163859753386
20
98.51949702904732
30
24
10
150.8983664906781
20
97.20147754438678
30
23.31491579260158
10
153.5959193172823
20
96.08411457838943
30
21.36396103067893
10
155.3983664906781
20
95.33751651370785
30
18.44415089128581
10
156.0313017679402
20
95.0753461377615
30
15
10
157.00936669616476
20
100.08337008137534
30
11.555849108714186
10
155.124889105702
20
100.58831432989437
30
8.63603896932107
10
152.30456908420152
20
101.34401680205276
30
6.68508420739842
10
148.97777478867204
20
102.23542864692435
30
6
10
145.65098049314255
20
103.12684049179595
30
6.685084207398422
10
142.83066047164206
20
103.88254296395434
30
8.636038969321072
10
140.94618288117934
20
104.38748721247337
30
11.555849108714193
10
140.2844423520704
20
104.56480005284705
30
15.000000000000002
10
140.94618288117934
20
104.38748721247337
30
18.44415089128581
10
142.83066047164206
20
103.88254296395434
30
21.36396103067893
10
145.65098049314258
20
103.12684049179595
30
23.31491579260158
10
148.97777478867204
20
102.23542864692435
30
24
10
152.30456908420152
20
101.34401680205276
30
23.31491579260158
10
155.124889105702
20
100.58831432989437
30
21.36396103067893
10
157.00936669616476
20
100.08337008137534
30
18.44415089128581
10
157.67110722527366
20
99.90605724100166
30
15
10
157.9871263765451
20
104.99889993635979
30
11.555849108714186
10
156.0528623030641
20
105.25355063262714
30
8.63603896932107
10
153.15803154417566
20
105.63466233212762
30
6.68508420739842
10
149.7433458412143
20
106.08421423339846
30
6
10
146.32866013825296
20
106.53376613466928
30
6.685084207398422
10
143.4338293793645
20
106.91487783416977
30
8.636038969321072
10
141.49956530588352
20
107.1695285304371
30
11.555849108714193
10
140.82034208885003
20
107.25894996337891
30
15.000000000000002
10
141.49956530588352
20
107.1695285304371
30
18.44415089128581
10
143.4338293793645
20
106.91487783416977
30
21.36396103067893
10
146.32866013825296
20
106.53376613466928
30
23.31491579260158
10
149.7433458412143
20
106.08421423339846
30
24
10
153.15803154417566
20
105.63466233212762
30
23.31491579260158
10
156.0528623030641
20
105.25355063262714
30
21.36396103067893
10
157.9871263765451
20
104.99889993635979
30
18.44415089128581
10
158.66634959357862
20
104.90947850341799
30
15
93
3840
90
4
90
0
90
1
90
17
90
16
90
4
90
1
90
2
90
18
90
17
90
4
90
2
90
3
90
19
90
18
90
4
90
3
90
4
90
20
90
19
90
4
90
4
90
5
90
21
90
20
90
4
90
5
90
6
90
22
90
21
90
4
90
6
90
7
90
23
90
22
90
4
90
7
90
8
90
24
90
23
90
4
90
8
90
9
90
25
90
24
90
4
90
9
90
10
90
26
90
25
90
4
90
10
90
11
90
27
90
26
90
4
90
11
90
12
90
28
90
27
90
4
90
12
90
13
90
29
90
28
90
4
90
13
90
14
90
30
90
29
90
4
90
14
90
15
90
31
90
30
90
4
90
15
90
0
90
16
90
31
90
4
90
16
90
17
90
33
90
32
90
4
90
17
90
18
90
34
90
33
90
4
90
18
90
19
90
35
90
34
90
4
90
19
90
20
90
36
90
35
90
4
90
20
90
21
90
37
90
36
90
4
90
21
90
22
90
38
90
37
90
4
90
22
90
23
90
39
90
38
90
4
90
23
90
24
90
40
90
39
90
4
90
24
90
25
90
41
90
40
90
4
90
25
90
26
90
42
90
41
90
4
90
26
90
27
90
43
90
42
90
4
90
27
90
28
90
44
90
43
90
4
90
28
90
29
90
45
90
44
90
4
90
29
90
30
90
46
90
45
90
4
90
30
90
31
90
47
90
46
90
4
90
31
90
16
90
32
90
47
90
4
90
32
90
33
90
49
90
48
90
4
90
33
90
34
90
50
90
49
90
4
90
34
90
35
90
51
90
50
90
4
90
35
90
36
90
52
90
51
90
4
90
36
90
37
90
53
90
52
90
4
90
37
90
38
90
54
90
53
90
4
90
38
90
39
90
55
90
54
90
4
90
39
90
40
90
56
90
55
90
4
90
40
90
41
90
57
90
56
90
4
90
41
90
42
90
58
90
57
90
4
90
42
90
43
90
59
90
58
90
4
90
43
90
44
90
60
90
59
90
4
90
44
90
45
90
61
90
60
90
4
90
45
90
46
90
62
90
61
90
4
90
46
90
47
90
63
90
62
90
4
90
47
90
32
90
48
90
63
90
4
90
48
90
49
90
65
90
64
90
4
90
49
90
50
90
66
90
65
90
4
90
50
90
51
90
67
90
66
90
4
90
51
90
52
90
68
90
67
90
4
90
52
90
53
90
69
90
68
90
4
90
53
90
54
90
70
90
69
90
4
90
54
90
55
90
71
90
70
90
4
90
55
90
56
90
72
90
71
90
4
90
56
90
57
90
73
90
72
90
4
90
57
90
58
90
74
90
73
90
4
90
58
90
59
90
75
90
74
90
4
90
59
90
60
90
76
90
75
90
4
90
60
90
61
90
77
90
76
90
4
90
61
90
62
90
78
90
77
90
4
90
62
90
63
90
79
90
78
90
4
90
63
90
48
90
64
90
79
90
4
90
64
90
65
90
81
90
80
90
4
90
65
90
66
90
82
90
81
90
4
90
66
90
67
90
83
90
82
90
4
90
67
90
68
90
84
90
83
90
4
90
68
90
69
90
85
90
84
90
4
90
69
90
70
90
86
90
85
90
4
90
70
90
71
90
87
90
86
90
4
90
71
90
72
90
88
90
87
90
4
90
72
90
73
90
89
90
88
90
4
90
73
90
74
90
90
90
89
90
4
90
74
90
75
90
91
90
90
90
4
90
75
90
76
90
92
90
91
90
4
90
76
90
77
90
93
90
92
90
4
90
77
90
78
90
94
90
93
90
4
90
78
90
79
90
95
90
94
90
4
90
79
90
64
90
80
90
95
90
4
90
80
90
81
90
97
90
96
90
4
90
81
90
82
90
98
90
97
90
4
90
82
90
83
90
99
90
98
90
4
90
83
90
84
90
100
90
99
90
4
90
84
90
85
90
101
90
100
90
4
90
85
90
86
90
102
90
101
90
4
90
86
90
87
90
103
90
102
90
4
90
87
90
88
90
104
90
103
90
4
90
88
90
89
90
105
90
104
90
4
90
89
90
90
90
106
90
105
90
4
90
90
90
91
90
107
90
106
90
4
90
91
90
92
90
108
90
107
90
4
90
92
90
93
90
109
90
108
90
4
90
93
90
94
90
110
90
109
90
4
90
94
90
95
90
111
90
110
90
4
90
95
90
80
90
96
90
111
90
4
90
96
90
97
90
113
90
112
90
4
90
97
90
98
90
114
90
113
90
4
90
98
90
99
90
115
90
114
90
4
90
99
90
100
90
116
90
115
90
4
90
100
90
101
90
117
90
116
90
4
90
101
90
102
90
118
90
117
90
4
90
102
90
103
90
119
90
118
90
4
90
103
90
104
90
120
90
119
90
4
90
104
90
105
90
121
90
120
90
4
90
105
90
106
90
122
90
121
90
4
90
106
90
107
90
123
90
122
90
4
90
107
90
108
90
124
90
123
90
4
90
108
90
109
90
125
90
124
90
4
90
109
90
110
90
126
90
125
90
4
90
110
90
111
90
127
90
126
90
4
90
111
90
96
90
112
90
127
90
4
90
112
90
113
90
129
90
128
90
4
90
113
90
114
90
130
90
129
90
4
90
114
90
115
90
131
90
130
90
4
90
115
90
116
90
132
90
131
90
4
90
116
90
117
90
133
90
132
90
4
90
117
90
118
90
134
90
133
90
4
90
118
90
119
90
135
90
134
90
4
90
119
90
120
90
136
90
135
90
4
90
120
90
121
90
137
90
136
90
4
90
121
90
122
90
138
90
137
90
4
90
122
90
123
90
139
90
138
90
4
90
123
90
124
90
140
90
139
90
4
90
124
90
125
90
141
90
140
90
4
90
125
90
126
90
142
90
141
90
4
90
126
90
127
90
143
90
142
90
4
90
127
90
112
90
128
90
143
90
4
90
128
90
129
90
145
90
144
90
4
90
129
90
130
90
146
90
145
90
4
90
130
90
131
90
147
90
146
90
4
90
131
90
132
90
148
90
147
90
4
90
132
90
133
90
149
90
148
90
4
90
133
90
134
90
150
90
149
90
4
90
134
90
135
90
151
90
150
90
4
90
135
90
136
90
152
90
151
90
4
90
136
90
137
90
153
90
152
90
4
90
137
90
138
90
154
90
153
90
4
90
138
90
139
90
155
90
154
90
4
90
139
90
140
90
156
90
155
90
4
90
140
90
141
90
157
90
156
90
4
90
141
90
142
90
158
90
157
90
4
90
142
90
143
90
159
90
158
90
4
90
143
90
128
90
144
90
159
90
4
90
144
90
145
90
161
90
160
90
4
90
145
90
146
90
162
90
161
90
4
90
146
90
147
90
163
90
162
90
4
90
147
90
148
90
164
90
163
90
4
90
148
90
149
90
165
90
164
90
4
90
149
90
150
90
166
90
165
90
4
90
150
90
151
90
167
90
166
90
4
90
151
90
152
90
168
90
167
90
4
90
152
90
153
90
169
90
168
90
4
90
153
90
154
90
170
90
169
90
4
90
154
90
155
90
171
90
170
90
4
90
155
90
156
90
172
90
171
90
4
90
156
90
157
90
173
90
172
90
4
90
157
90
158
90
174
90
173
90
4
90
158
90
159
90
175
90
174
90
4
90
159
90
144
90
160
90
175
90
4
90
160
90
161
90
177
90
176
90
4
90
161
90
162
90
178
90
177
90
4
90
162
90
163
90
179
90
178
90
4
90
163
90
164
90
180
90
179
90
4
90
164
90
165
90
181
90
180
90
4
90
165
90
166
90
182
90
181
90
4
90
166
90
167
90
183
90
182
90
4
90
167
90
168
90
184
90
183
90
4
90
168
90
169
90
185
90
184
90
4
90
169
90
170
90
186
90
185
90
4
90
170
90
171
90
187
90
186
90
4
90
171
90
172
90
188
90
187
90
4
90
172
90
173
90
189
90
188
90
4
90
173
90
174
90
190
90
189
90
4
90
174
90
175
90
191
90
190
90
4
90
175
90
160
90
176
90
191
90
4
90
176
90
177
90
193
90
192
90
4
90
177
90
178
90
194
90
193
90
4
90
178
90
179
90
195
90
194
90
4
90
179
90
180
90
196
90
195
90
4
90
180
90
181
90
197
90
196
90
4
90
181
90
182
90
198
90
197
90
4
90
182
90
183
90
199
90
198
90
4
90
183
90
184
90
200
90
199
90
4
90
184
90
185
90
201
90
200
90
4
90
185
90
186
90
202
90
201
90
4
90
186
90
187
90
203
90
202
90
4
90
187
90
188
90
204
90
203
90
4
90
188
90
189
90
205
90
204
90
4
90
189
90
190
90
206
90
205
90
4
90
190
90
191
90
207
90
206
90
4
90
191
90
176
90
192
90
207
90
4
90
192
90
193
90
209
90
208
90
4
90
193
90
194
90
210
90
209
90
4
90
194
90
195
90
211
90
210
90
4
90
195
90
196
90
212
90
211
90
4
90
196
90
197
90
213
90
212
90
4
90
197
90
198
90
214
90
213
90
4
90
198
90
199
90
215
90
214
90
4
90
199
90
200
90
216
90
215
90
4
90
200
90
201
90
217
90
216
90
4
90
201
90
202
90
218
90
217
90
4
90
202
90
203
90
219
90
218
90
4
90
203
90
204
90
220
90
219
90
4
90
204
90
205
90
221
90
220
90
4
90
205
90
206
90
222
90
221
90
4
90
206
90
207
90
223
90
222
90
4
90
207
90
192
90
208
90
223
90
4
90
208
90
209
90
225
90
224
90
4
90
209
90
210
90
226
90
225
90
4
90
210
90
211
90
227
90
226
90
4
90
211
90
212
90
228
90
227
90
4
90
212
90
213
90
229
90
228
90
4
90
213
90
214
90
230
90
229
90
4
90
214
90
215
90
231
90
230
90
4
90
215
90
216
90
232
90
231
90
4
90
216
90
217
90
233
90
232
90
4
90
217
90
218
90
234
90
233
90
4
90
218
90
219
90
235
90
234
90
4
90
219
90
220
90
236
90
235
90
4
90
220
90
221
90
237
90
236
90
4
90
221
90
222
90
238
90
237
90
4
90
222
90
223
90
239
90
238
90
4
90
223
90
208
90
224
90
239
90
4
90
224
90
225
90
241
90
240
90
4
90
225
90
226
90
242
90
241
90
4
90
226
90
227
90
243
90
242
90
4
90
227
90
228
90
244
90
243
90
4
90
228
90
229
90
245
90
244
90
4
90
229
90
230
90
246
90
245
90
4
90
230
90
231
90
247
90
246
90
4
90
231
90
232
90
248
90
247
90
4
90
232
90
233
90
249
90
248
90
4
90
233
90
234
90
250
90
249
90
4
90
234
90
235
90
251
90
250
90
4
90
235
90
236
90
252
90
251
90
4
90
236
90
237
90
253
90
252
90
4
90
237
90
238
90
254
90
253
90
4
90
238
90
239
90
255
90
254
90
4
90
239
90
224
90
240
90
255
90
4
90
240
90
241
90
257
90
256
90
4
90
241
90
242
90
258
90
257
90
4
90
242
90
243
90
259
90
258
90
4
90
243
90
244
90
260
90
259
90
4
90
244
90
245
90
261
90
260
90
4
90
245
90
246
90
262
90
261
90
4
90
246
90
247
90
263
90
262
90
4
90
247
90
248
90
264
90
263
90
4
90
248
90
249
90
265
90
264
90
4
90
249
90
250
90
266
90
265
90
4
90
250
90
251
90
267
90
266
90
4
90
251
90
252
90
268
90
267
90
4
90
252
90
253
90
269
90
268
90
4
90
253
90
254
90
270
90
269
90
4
90
254
90
255
90
271
90
270
90
4
90
255
90
240
90
256
90
271
90
4
90
256
90
257
90
273
90
272
90
4
90
257
90
258
90
274
90
273
90
4
90
258
90
259
90
275
90
274
90
4
90
259
90
260
90
276
90
275
90
4
90
260
90
261
90
277
90
276
90
4
90
261
90
262
90
278
90
277
90
4
90
262
90
263
90
279
90
278
90
4
90
263
90
264
90
280
90
279
90
4
90
264
90
265
90
281
90
280
90
4
90
265
90
266
90
282
90
281
90
4
90
266
90
267
90
283
90
282
90
4
90
267
90
268
90
284
90
283
90
4
90
268
90
269
90
285
90
284
90
4
90
269
90
270
90
286
90
285
90
4
90
270
90
271
90
287
90
286
90
4
90
271
90
256
90
272
90
287
90
4
90
272
90
273
90
289
90
288
90
4
90
273
90
274
90
290
90
289
90
4
90
274
90
275
90
291
90
290
90
4
90
275
90
276
90
292
90
291
90
4
90
276
90
277
90
293
90
292
90
4
90
277
90
278
90
294
90
293
90
4
90
278
90
279
90
295
90
294
90
4
90
279
90
280
90
296
90
295
90
4
90
280
90
281
90
297
90
296
90
4
90
281
90
282
90
298
90
297
90
4
90
282
90
283
90
299
90
298
90
4
90
283
90
284
90
300
90
299
90
4
90
284
90
285
90
301
90
300
90
4
90
285
90
286
90
302
90
301
90
4
90
286
90
287
90
303
90
302
90
4
90
287
90
272
90
288
90
303
90
4
90
288
90
289
90
305
90
304
90
4
90
289
90
290
90
306
90
305
90
4
90
290
90
291
90
307
90
306
90
4
90
291
90
292
90
308
90
307
90
4
90
292
90
293
90
309
90
308
90
4
90
293
90
294
90
310
90
309
90
4
90
294
90
295
90
311
90
310
90
4
90
295
90
296
90
312
90
311
90
4
90
296
90
297
90
313
90
312
90
4
90
297
90
298
90
314
90
313
90
4
90
298
90
299
90
315
90
314
90
4
90
299
90
300
90
316
90
315
90
4
90
300
90
301
90
317
90
316
90
4
90
301
90
302
90
318
90
317
90
4
90
302
90
303
90
319
90
318
90
4
90
303
90
288
90
304
90
319
90
4
90
304
90
305
90
321
90
320
90
4
90
305
90
306
90
322
90
321
90
4
90
306
90
307
90
323
90
322
90
4
90
307
90
308
90
324
90
323
90
4
90
308
90
309
90
325
90
324
90
4
90
309
90
310
90
326
90
325
90
4
90
310
90
311
90
327
90
326
90
4
90
311
90
312
90
328
90
327
90
4
90
312
90
313
90
329
90
328
90
4
90
313
90
314
90
330
90
329
90
4
90
314
90
315
90
331
90
330
90
4
90
315
90
316
90
332
90
331
90
4
90
316
90
317
90
333
90
332
90
4
90
317
90
318
90
334
90
333
90
4
90
318
90
319
90
335
90
334
90
4
90
319
90
304
90
320
90
335
90
4
90
320
90
321
90
337
90
336
90
4
90
321
90
322
90
338
90
337
90
4
90
322
90
323
90
339
90
338
90
4
90
323
90
324
90
340
90
339
90
4
90
324
90
325
90
341
90
340
90
4
90
325
90
326
90
342
90
341
90
4
90
326
90
327
90
343
90
342
90
4
90
327
90
328
90
344
90
343
90
4
90
328
90
329
90
345
90
344
90
4
90
329
90
330
90
346
90
345
90
4
90
330
90
331
90
347
90
346
90
4
90
331
90
332
90
348
90
347
90
4
90
332
90
333
90
349
90
348
90
4
90
333
90
334
90
350
90
349
90
4
90
334
90
335
90
351
90
350
90
4
90
335
90
320
90
336
90
351
90
4
90
336
90
337
90
353
90
352
90
4
90
337
90
338
90
354
90
353
90
4
90
338
90
339
90
355
90
354
90
4
90
339
90
340
90
356
90
355
90
4
90
340
90
341
90
357
90
356
90
4
90
341
90
342
90
358
90
357
90
4
90
342
90
343
90
359
90
358
90
4
90
343
90
344
90
360
90
359
90
4
90
344
90
345
90
361
90
360
90
4
90
345
90
346
90
362
90
361
90
4
90
346
90
347
90
363
90
362
90
4
90
347
90
348
90
364
90
363
90
4
90
348
90
349
90
365
90
364
90
4
90
349
90
350
90
366
90
365
90
4
90
350
90
351
90
367
90
366
90
4
90
351
90
336
90
352
90
367
90
4
90
352
90
353
90
369
90
368
90
4
90
353
90
354
90
370
90
369
90
4
90
354
90
355
90
371
90
370
90
4
90
355
90
356
90
372
90
371
90
4
90
356
90
357
90
373
90
372
90
4
90
357
90
358
90
374
90
373
90
4
90
358
90
359
90
375
90
374
90
4
90
359
90
360
90
376
90
375
90
4
90
360
90
361
90
377
90
376
90
4
90
361
90
362
90
378
90
377
90
4
90
362
90
363
90
379
90
378
90
4
90
363
90
364
90
380
90
379
90
4
90
364
90
365
90
381
90
380
90
4
90
365
90
366
90
382
90
381
90
4
90
366
90
367
90
383
90
382
90
4
90
367
90
352
90
368
90
383
90
4
90
368
90
369
90
385
90
384
90
4
90
369
90
370
90
386
90
385
90
4
90
370
90
371
90
387
90
386
90
4
90
371
90
372
90
388
90
387
90
4
90
372
90
373
90
389
90
388
90
4
90
373
90
374
90
390
90
389
90
4
90
374
90
375
90
391
90
390
90
4
90
375
90
376
90
392
90
391
90
4
90
376
90
377
90
393
90
392
90
4
90
377
90
378
90
394
90
393
90
4
90
378
90
379
90
395
90
394
90
4
90
379
90
380
90
396
90
395
90
4
90
380
90
381
90
397
90
396
90
4
90
381
90
382
90
398
90
397
90
4
90
382
90
383
90
399
90
398
90
4
90
383
90
368
90
384
90
399
90
4
90
384
90
385
90
401
90
400
90
4
90
385
90
386
90
402
90
401
90
4
90
386
90
387
90
403
90
402
90
4
90
387
90
388
90
404
90
403
90
4
90
388
90
389
90
405
90
404
90
4
90
389
90
390
90
406
90
405
90
4
90
390
90
391
90
407
90
406
90
4
90
391
90
392
90
408
90
407
90
4
90
392
90
393
90
409
90
408
90
4
90
393
90
394
90
410
90
409
90
4
90
394
90
395
90
411
90
410
90
4
90
395
90
396
90
412
90
411
90
4
90
396
90
397
90
413
90
412
90
4
90
397
90
398
90
414
90
413
90
4
90
398
90
399
90
415
90
414
90
4
90
399
90
384
90
400
90
415
90
4
90
400
90
401
90
417
90
416
90
4
90
401
90
402
90
418
90
417
90
4
90
402
90
403
90
419
90
418
90
4
90
403
90
404
90
420
90
419
90
4
90
404
90
405
90
421
90
420
90
4
90
405
90
406
90
422
90
421
90
4
90
406
90
407
90
423
90
422
90
4
90
407
90
408
90
424
90
423
90
4
90
408
90
409
90
425
90
424
90
4
90
409
90
410
90
426
90
425
90
4
90
410
90
411
90
427
90
426
90
4
90
411
90
412
90
428
90
427
90
4
90
412
90
413
90
429
90
428
90
4
90
413
90
414
90
430
90
429
90
4
90
414
90
415
90
431
90
430
90
4
90
415
90
400
90
416
90
431
90
4
90
416
90
417
90
433
90
432
90
4
90
417
90
418
90
434
90
433
90
4
90
418
90
419
90
435
90
434
90
4
90
419
90
420
90
436
90
435
90
4
90
420
90
421
90
437
90
436
90
4
90
421
90
422
90
438
90
437
90
4
90
422
90
423
90
439
90
438
90
4
90
423
90
424
90
440
90
439
90
4
90
424
90
425
90
441
90
440
90
4
90
425
90
426
90
442
90
441
90
4
90
426
90
427
90
443
90
442
90
4
90
427
90
428
90
444
90
443
90
4
90
428
90
429
90
445
90
444
90
4
90
429
90
430
90
446
90
445
90
4
90
430
90
431
90
447
90
446
90
4
90
431
90
416
90
432
90
447
90
4
90
432
90
433
90
449
90
448
90
4
90
433
90
434
90
450
90
449
90
4
90
434
90
435
90
451
90
450
90
4
90
435
90
436
90
452
90
451
90
4
90
436
90
437
90
453
90
452
90
4
90
437
90
438
90
454
90
453
90
4
90
438
90
439
90
455
90
454
90
4
90
439
90
440
90
456
90
455
90
4
90
440
90
441
90
457
90
456
90
4
90
441
90
442
90
458
90
457
90
4
90
442
90
443
90
459
90
458
90
4
90
443
90
444
90
460
90
459
90
4
90
444
90
445
90
461
90
460
90
4
90
445
90
446
90
462
90
461
90
4
90
446
90
447
90
463
90
462
90
4
90
447
90
432
90
448
90
463
90
4
90
448
90
449
90
465
90
464
90
4
90
449
90
450
90
466
90
465
90
4
90
450
90
451
90
467
90
466
90
4
90
451
90
452
90
468
90
467
90
4
90
452
90
453
90
469
90
468
90
4
90
453
90
454
90
470
90
469
90
4
90
454
90
455
90
471
90
470
90
4
90
455
90
456
90
472
90
471
90
4
90
456
90
457
90
473
90
472
90
4
90
457
90
458
90
474
90
473
90
4
90
458
90
459
90
475
90
474
90
4
90
459
90
460
90
476
90
475
90
4
90
460
90
461
90
477
90
476
90
4
90
461
90
462
90
478
90
477
90
4
90
462
90
463
90
479
90
478
90
4
90
463
90
448
90
464
90
479
90
4
90
464
90
465
90
481
90
480
90
4
90
465
90
466
90
482
90
481
90
4
90
466
90
467
90
483
90
482
90
4
90
467
90
468
90
484
90
483
90
4
90
468
90
469
90
485
90
484
90
4
90
469
90
470
90
486
90
485
90
4
90
470
90
471
90
487
90
486
90
4
90
471
90
472
90
488
90
487
90
4
90
472
90
473
90
489
90
488
90
4
90
473
90
474
90
490
90
489
90
4
90
474
90
475
90
491
90
490
90
4
90
475
90
476
90
492
90
491
90
4
90
476
90
477
90
493
90
492
90
4
90
477
90
478
90
494
90
493
90
4
90
478
90
479
90
495
90
494
90
4
90
479
90
464
90
480
90
495
90
4
90
480
90
481
90
497
90
496
90
4
90
481
90
482
90
498
90
497
90
4
90
482
90
483
90
499
90
498
90
4
90
483
90
484
90
500
90
499
90
4
90
484
90
485
90
501
90
500
90
4
90
485
90
486
90
502
90
501
90
4
90
486
90
487
90
503
90
502
90
4
90
487
90
488
90
504
90
503
90
4
90
488
90
489
90
505
90
504
90
4
90
489
90
490
90
506
90
505
90
4
90
490
90
491
90
507
90
506
90
4
90
491
90
492
90
508
90
507
90
4
90
492
90
493
90
509
90
508
90
4
90
493
90
494
90
510
90
509
90
4
90
494
90
495
90
511
90
510
90
4
90
495
90
480
90
496
90
511
90
4
90
496
90
497
90
513
90
512
90
4
90
497
90
498
90
514
90
513
90
4
90
498
90
499
90
515
90
514
90
4
90
499
90
500
90
516
90
515
90
4
90
500
90
501
90
517
90
516
90
4
90
501
90
502
90
518
90
517
90
4
90
502
90
503
90
519
90
518
90
4
90
503
90
504
90
520
90
519
90
4
90
504
90
505
90
521
90
520
90
4
90
505
90
506
90
522
90
521
90
4
90
506
90
507
90
523
90
522
90
4
90
507
90
508
90
524
90
523
90
4
90
508
90
509
90
525
90
524
90
4
90
509
90
510
90
526
90
525
90
4
90
510
90
511
90
527
90
526
90
4
90
511
90
496
90
512
90
527
90
4
90
512
90
513
90
529
90
528
90
4
90
513
90
514
90
530
90
529
90
4
90
514
90
515
90
531
90
530
90
4
90
515
90
516
90
532
90
531
90
4
90
516
90
517
90
533
90
532
90
4
90
517
90
518
90
534
90
533
90
4
90
518
90
519
90
535
90
534
90
4
90
519
90
520
90
536
90
535
90
4
90
520
90
521
90
537
90
536
90
4
90
521
90
522
90
538
90
537
90
4
90
522
90
523
90
539
90
538
90
4
90
523
90
524
90
540
90
539
90
4
90
524
90
525
90
541
90
540
90
4
90
525
90
526
90
542
90
541
90
4
90
526
90
527
90
543
90
542
90
4
90
527
90
512
90
528
90
543
90
4
90
528
90
529
90
545
90
544
90
4
90
529
90
530
90
546
90
545
90
4
90
530
90
531
90
547
90
546
90
4
90
531
90
532
90
548
90
547
90
4
90
532
90
533
90
549
90
548
90
4
90
533
90
534
90
550
90
549
90
4
90
534
90
535
90
551
90
550
90
4
90
535
90
536
90
552
90
551
90
4
90
536
90
537
90
553
90
552
90
4
90
537
90
538
90
554
90
553
90
4
90
538
90
539
90
555
90
554
90
4
90
539
90
540
90
556
90
555
90
4
90
540
90
541
90
557
90
556
90
4
90
541
90
542
90
558
90
557
90
4
90
542
90
543
90
559
90
558
90
4
90
543
90
528
90
544
90
559
90
4
90
544
90
545
90
561
90
560
90
4
90
545
90
546
90
562
90
561
90
4
90
546
90
547
90
563
90
562
90
4
90
547
90
548
90
564
90
563
90
4
90
548
90
549
90
565
90
564
90
4
90
549
90
550
90
566
90
565
90
4
90
550
90
551
90
567
90
566
90
4
90
551
90
552
90
568
90
567
90
4
90
552
90
553
90
569
90
568
90
4
90
553
90
554
90
570
90
569
90
4
90
554
90
555
90
571
90
570
90
4
90
555
90
556
90
572
90
571
90
4
90
556
90
557
90
573
90
572
90
4
90
557
90
558
90
574
90
573
90
4
90
558
90
559
90
575
90
574
90
4
90
559
90
544
90
560
90
575
90
4
90
560
90
561
90
577
90
576
90
4
90
561
90
562
90
578
90
577
90
4
90
562
90
563
90
579
90
578
90
4
90
563
90
564
90
580
90
579
90
4
90
564
90
565
90
581
90
580
90
4
90
565
90
566
90
582
90
581
90
4
90
566
90
567
90
583
90
582
90
4
90
567
90
568
90
584
90
583
90
4
90
568
90
569
90
585
90
584
90
4
90
569
90
570
90
586
90
585
90
4
90
570
90
571
90
587
90
586
90
4
90
571
90
572
90
588
90
587
90
4
90
572
90
573
90
589
90
588
90
4
90
573
90
574
90
590
90
589
90
4
90
574
90
575
90
591
90
590
90
4
90
575
90
560
90
576
90
591
90
4
90
576
90
577
90
593
90
592
90
4
90
577
90
578
90
594
90
593
90
4
90
578
90
579
90
595
90
594
90
4
90
579
90
580
90
596
90
595
90
4
90
580
90
581
90
597
90
596
90
4
90
581
90
582
90
598
90
597
90
4
90
582
90
583
90
599
90
598
90
4
90
583
90
584
90
600
90
599
90
4
90
584
90
585
90
601
90
600
90
4
90
585
90
586
90
602
90
601
90
4
90
586
90
587
90
603
90
602
90
4
90
587
90
588
90
604
90
603
90
4
90
588
90
589
90
605
90
604
90
4
90
589
90
590
90
606
90
605
90
4
90
590
90
591
90
607
90
606
90
4
90
591
90
576
90
592
90
607
90
4
90
592
90
593
90
609
90
608
90
4
90
593
90
594
90
610
90
609
90
4
90
594
90
595
90
611
90
610
90
4
90
595
90
596
90
612
90
611
90
4
90
596
90
597
90
613
90
612
90
4
90
597
90
598
90
614
90
613
90
4
90
598
90
599
90
615
90
614
90
4
90
599
90
600
90
616
90
615
90
4
90
600
90
601
90
617
90
616
90
4
90
601
90
602
90
618
90
617
90
4
90
602
90
603
90
619
90
618
90
4
90
603
90
604
90
620
90
619
90
4
90
604
90
605
90
621
90
620
90
4
90
605
90
606
90
622
90
621
90
4
90
606
90
607
90
623
90
622
90
4
90
607
90
592
90
608
90
623
90
4
90
608
90
609
90
625
90
624
90
4
90
609
90
610
90
626
90
625
90
4
90
610
90
611
90
627
90
626
90
4
90
611
90
612
90
628
90
627
90
4
90
612
90
613
90
629
90
628
90
4
90
613
90
614
90
630
90
629
90
4
90
614
90
615
90
631
90
630
90
4
90
615
90
616
90
632
90
631
90
4
90
616
90
617
90
633
90
632
90
4
90
617
90
618
90
634
90
633
90
4
90
618
90
619
90
635
90
634
90
4
90
619
90
620
90
636
90
635
90
4
90
620
90
621
90
637
90
636
90
4
90
621
90
622
90
638
90
637
90
4
90
622
90
623
90
639
90
638
90
4
90
623
90
608
90
624
90
639
90
4
90
624
90
625
90
641
90
640
90
4
90
625
90
626
90
642
90
641
90
4
90
626
90
627
90
643
90
642
90
4
90
627
90
628
90
644
90
643
90
4
90
628
90
629
90
645
90
644
90
4
90
629
90
630
90
646
90
645
90
4
90
630
90
631
90
647
90
646
90
4
90
631
90
632
90
648
90
647
90
4
90
632
90
633
90
649
90
648
90
4
90
633
90
634
90
650
90
649
90
4
90
634
90
635
90
651
90
650
90
4
90
635
90
636
90
652
90
651
90
4
90
636
90
637
90
653
90
652
90
4
90
637
90
638
90
654
90
653
90
4
90
638
90
639
90
655
90
654
90
4
90
639
90
624
90
640
90
655
90
4
90
640
90
641
90
657
90
656
90
4
90
641
90
642
90
658
90
657
90
4
90
642
90
643
90
659
90
658
90
4
90
643
90
644
90
660
90
659
90
4
90
644
90
645
90
661
90
660
90
4
90
645
90
646
90
662
90
661
90
4
90
646
90
647
90
663
90
662
90
4
90
647
90
648
90
664
90
663
90
4
90
648
90
649
90
665
90
664
90
4
90
649
90
650
90
666
90
665
90
4
90
650
90
651
90
667
90
666
90
4
90
651
90
652
90
668
90
667
90
4
90
652
90
653
90
669
90
668
90
4
90
653
90
654
90
670
90
669
90
4
90
654
90
655
90
671
90
670
90
4
90
655
90
640
90
656
90
671
90
4
90
656
90
657
90
673
90
672
90
4
90
657
90
658
90
674
90
673
90
4
90
658
90
659
90
675
90
674
90
4
90
659
90
660
90
676
90
675
90
4
90
660
90
661
90
677
90
676
90
4
90
661
90
662
90
678
90
677
90
4
90
662
90
663
90
679
90
678
90
4
90
663
90
664
90
680
90
679
90
4
90
664
90
665
90
681
90
680
90
4
90
665
90
666
90
682
90
681
90
4
90
666
90
667
90
683
90
682
90
4
90
667
90
668
90
684
90
683
90
4
90
668
90
669
90
685
90
684
90
4
90
669
90
670
90
686
90
685
90
4
90
670
90
671
90
687
90
686
90
4
90
671
90
656
90
672
90
687
90
4
90
672
90
673
90
689
90
688
90
4
90
673
90
674
90
690
90
689
90
4
90
674
90
675
90
691
90
690
90
4
90
675
90
676
90
692
90
691
90
4
90
676
90
677
90
693
90
692
90
4
90
677
90
678
90
694
90
693
90
4
90
678
90
679
90
695
90
694
90
4
90
679
90
680
90
696
90
695
90
4
90
680
90
681
90
697
90
696
90
4
90
681
90
682
90
698
90
697
90
4
90
682
90
683
90
699
90
698
90
4
90
683
90
684
90
700
90
699
90
4
90
684
90
685
90
701
90
700
90
4
90
685
90
686
90
702
90
701
90
4
90
686
90
687
90
703
90
702
90
4
90
687
90
672
90
688
90
703
90
4
90
688
90
689
90
705
90
704
90
4
90
689
90
690
90
706
90
705
90
4
90
690
90
691
90
707
90
706
90
4
90
691
90
692
90
708
90
707
90
4
90
692
90
693
90
709
90
708
90
4
90
693
90
694
90
710
90
709
90
4
90
694
90
695
90
711
90
710
90
4
90
695
90
696
90
712
90
711
90
4
90
696
90
697
90
713
90
712
90
4
90
697
90
698
90
714
90
713
90
4
90
698
90
699
90
715
90
714
90
4
90
699
90
700
90
716
90
715
90
4
90
700
90
701
90
717
90
716
90
4
90
701
90
702
90
718
90
717
90
4
90
702
90
703
90
719
90
718
90
4
90
703
90
688
90
704
90
719
90
4
90
704
90
705
90
721
90
720
90
4
90
705
90
706
90
722
90
721
90
4
90
706
90
707
90
723
90
722
90
4
90
707
90
708
90
724
90
723
90
4
90
708
90
709
90
725
90
724
90
4
90
709
90
710
90
726
90
725
90
4
90
710
90
711
90
727
90
726
90
4
90
711
90
712
90
728
90
727
90
4
90
712
90
713
90
729
90
728
90
4
90
713
90
714
90
730
90
729
90
4
90
714
90
715
90
731
90
730
90
4
90
715
90
716
90
732
90
731
90
4
90
716
90
717
90
733
90
732
90
4
90
717
90
718
90
734
90
733
90
4
90
718
90
719
90
735
90
734
90
4
90
719
90
704
90
720
90
735
90
4
90
720
90
721
90
737
90
736
90
4
90
721
90
722
90
738
90
737
90
4
90
722
90
723
90
739
90
738
90
4
90
723
90
724
90
740
90
739
90
4
90
724
90
725
90
741
90
740
90
4
90
725
90
726
90
742
90
741
90
4
90
726
90
727
90
743
90
742
90
4
90
727
90
728
90
744
90
743
90
4
90
728
90
729
90
745
90
744
90
4
90
729
90
730
90
746
90
745
90
4
90
730
90
731
90
747
90
746
90
4
90
731
90
732
90
748
90
747
90
4
90
732
90
733
90
749
90
748
90
4
90
733
90
734
90
750
90
749
90
4
90
734
90
735
90
751
90
750
90
4
90
735
90
720
90
736
90
751
90
4
90
736
90
737
90
753
90
752
90
4
90
737
90
738
90
754
90
753
90
4
90
738
90
739
90
755
90
754
90
4
90
739
90
740
90
756
90
755
90
4
90
740
90
741
90
757
90
756
90
4
90
741
90
742
90
758
90
757
90
4
90
742
90
743
90
759
90
758
90
4
90
743
90
744
90
760
90
759
90
4
90
744
90
745
90
761
90
760
90
4
90
745
90
746
90
762
90
761
90
4
90
746
90
747
90
763
90
762
90
4
90
747
90
748
90
764
90
763
90
4
90
748
90
749
90
765
90
764
90
4
90
749
90
750
90
766
90
765
90
4
90
750
90
751
90
767
90
766
90
4
90
751
90
736
90
752
90
767
90
4
90
752
90
753
90
1
90
0
90
4
90
753
90
754
90
2
90
1
90
4
90
754
90
755
90
3
90
2
90
4
90
755
90
756
90
4
90
3
90
4
90
756
90
757
90
5
90
4
90
4
90
757
90
758
90
6
90
5
90
4
90
758
90
759
90
7
90
6
90
4
90
759
90
760
90
8
90
7
90
4
90
760
90
761
90
9
90
8
90
4
90
761
90
762
90
10
90
9
90
4
90
762
90
763
90
11
90
10
90
4
90
763
90
764
90
12
90
11
90
4
90
764
90
765
90
13
90
12
90
4
90
765
90
766
90
14
90
13
90
4
90
766
90
767
90
15
90
14
90
4
90
767
90
752
90
0
90
15
94
0
95
0
90
0
1001
CONDUITCAD
1000
{"id":"3d-primitives-005","label":"Torus","feature3d":{"version":1,"kind":"torus","parameters":{"major":30,"minor":9,"x":120,"y":110,"z":15},"inputs":[],"suppressed":false},"model3dConsumed":false,"mo
1000
del3dUserHidden":false}
0
MESH
5
105
330
118
100
AcDbEntity
8
Equipment
62
7
420
11963755
100
AcDbSubDMesh
71
2
72
0
91
0
92
6
10
190
20
95
30
45
10
250
20
95
30
0
10
190
20
95
30
0
10
190
20
135
30
45
10
250
20
135
30
0
10
190
20
135
30
0
93
23
90
3
90
2
90
1
90
0
90
3
90
3
90
4
90
5
90
4
90
0
90
1
90
4
90
3
90
4
90
1
90
2
90
5
90
4
90
4
90
2
90
0
90
3
90
5
94
0
95
0
90
0
1001
CONDUITCAD
1000
{"id":"3d-primitives-006","label":"Wedge","feature3d":{"version":1,"kind":"wedge","parameters":{"width":60,"depth":40,"height":45,"x":190,"y":95},"inputs":[],"suppressed":false},"model3dConsumed":fals
1000
e,"model3dUserHidden":false}
0
LWPOLYLINE
5
106
330
118
100
AcDbEntity
8
Annotations
100
AcDbPolyline
90
4
70
1
10
-15
20
-40
10
250
20
-40
10
250
20
160
10
-15
20
160
1001
CONDUITCAD
1000
{"id":"3d-primitives-007","label":"2D reference boundary","model3dConsumed":false}
0
ENDSEC
0
SECTION
2
OBJECTS
0
DICTIONARY
5
124
330
0
100
AcDbDictionary
281
1
3
ACAD_LAYOUT
350
125
3
ACAD_GROUP
350
126
3
CONDUITCAD_METADATA
350
129
0
DICTIONARY
5
125
330
124
100
AcDbDictionary
281
1
3
Model
350
127
3
Layout1
350
128
0
DICTIONARY
5
126
330
124
100
AcDbDictionary
281
1
0
LAYOUT
5
127
330
125
100
AcDbPlotSettings
1

2

4

6

40
0
41
0
42
0
43
0
44
420
45
297
46
0
47
0
48
0
49
0
140
0
141
0
142
1
143
1
70
0
72
1
73
0
74
5
7

75
16
76
0
77
0
78
300
147
1
148
0
149
0
100
AcDbLayout
1
Model
70
1
71
0
10
0
20
0
11
420
21
297
12
0
22
0
32
0
14
0
24
0
34
0
15
420
25
297
35
0
146
0
13
0
23
0
33
0
16
1
26
0
36
0
17
0
27
1
37
0
76
0
330
118
0
LAYOUT
5
128
330
125
100
AcDbPlotSettings
1

2

4

6

40
0
41
0
42
0
43
0
44
420
45
297
46
0
47
0
48
0
49
0
140
0
141
0
142
1
143
1
70
0
72
1
73
0
74
5
7

75
16
76
0
77
0
78
300
147
1
148
0
149
0
100
AcDbLayout
1
Layout1
70
1
71
1
10
0
20
0
11
420
21
297
12
0
22
0
32
0
14
0
24
0
34
0
15
420
25
297
35
0
146
0
13
0
23
0
33
0
16
1
26
0
36
0
17
0
27
1
37
0
76
0
330
119
0
XRECORD
5
129
330
124
100
AcDbXrecord
280
1
1
{"parameters":{"grid":"10"},"constraints":[],"metadata":{"description":"Six editable primitive features plus a 2D reference outline. Try face selection, XYZ edits and section analysis.","modeling":{"v
1
ersion":1,"preferredMode":"3d","example":"primitives","notes":"Editable faceted concept model. Not certified or construction-approved."}}}
0
ENDSEC
0
EOF
