0
SECTION
2
HEADER
9
$ACADVER
1
AC1032
9
$INSUNITS
70
4
9
$LTSCALE
40
1
9
$MEASUREMENT
70
1
999
CONDUIT:{"parameters":{"grid":"10"},"constraints":[],"metadata":{"description":"A closed radius/height sketch creates a turned profile. Change the revolve angle for inspection.","modeling"
999
CONDUIT::{"version":1,"preferredMode":"3d","example":"shaft","notes":"Editable faceted concept model. Not certified or construction-approved."}}}
9
$HANDSEED
5
125
9
$DWGCODEPAGE
3
ANSI_1252
9
$CLAYER
8
0
9
$TILEMODE
70
1
0
ENDSEC
0
SECTION
2
TABLES
0
TABLE
2
LTYPE
5
102
330
0
100
AcDbSymbolTable
70
4
0
LTYPE
5
103
100
AcDbSymbolTableRecord
100
AcDbLinetypeTableRecord
2
CONTINUOUS
70
0
3
Solid line
72
65
73
0
40
0
330
102
0
LTYPE
5
104
100
AcDbSymbolTableRecord
100
AcDbLinetypeTableRecord
2
DASHED
70
0
3
DASHED
72
65
73
2
40
12
49
8
74
0
49
-4
74
0
330
102
0
LTYPE
5
105
100
AcDbSymbolTableRecord
100
AcDbLinetypeTableRecord
2
CENTER
70
0
3
CENTER
72
65
73
4
40
20
49
12
74
0
49
-3
74
0
49
2
74
0
49
-3
74
0
330
102
0
LTYPE
5
106
100
AcDbSymbolTableRecord
100
AcDbLinetypeTableRecord
2
HIDDEN
70
0
3
HIDDEN
72
65
73
2
40
7
49
4
74
0
49
-3
74
0
330
102
0
ENDTAB
0
TABLE
2
LAYER
5
107
330
0
100
AcDbSymbolTable
70
6
0
LAYER
5
108
100
AcDbSymbolTableRecord
100
AcDbLayerTableRecord
2
0
70
0
62
7
420
3426133
6
CONTINUOUS
330
107
0
LAYER
5
109
100
AcDbSymbolTableRecord
100
AcDbLayerTableRecord
2
Equipment
70
0
62
7
420
3495011
6
CONTINUOUS
330
107
0
LAYER
5
10A
100
AcDbSymbolTableRecord
100
AcDbLayerTableRecord
2
Process
70
0
62
7
420
1342583
6
CONTINUOUS
330
107
0
LAYER
5
10B
100
AcDbSymbolTableRecord
100
AcDbLayerTableRecord
2
Instruments
70
0
62
7
420
10187334
6
CONTINUOUS
330
107
0
LAYER
5
10C
100
AcDbSymbolTableRecord
100
AcDbLayerTableRecord
2
Electrical
70
0
62
7
420
6584250
6
CONTINUOUS
330
107
0
LAYER
5
10D
100
AcDbSymbolTableRecord
100
AcDbLayerTableRecord
2
Annotations
70
0
62
7
420
7438474
6
CONTINUOUS
330
107
0
ENDTAB
0
TABLE
2
STYLE
5
10E
330
0
100
AcDbSymbolTable
70
1
0
STYLE
5
10F
100
AcDbSymbolTableRecord
100
AcDbTextStyleTableRecord
2
STANDARD
70
0
40
0
41
1
50
0
71
0
42
2.5
3
txt
4

330
10E
0
ENDTAB
0
TABLE
2
APPID
5
110
330
0
100
AcDbSymbolTable
70
2
0
APPID
5
111
100
AcDbSymbolTableRecord
100
AcDbRegAppTableRecord
2
CONDUITCAD
70
0
330
110
0
APPID
5
11E
100
AcDbSymbolTableRecord
100
AcDbRegAppTableRecord
2
ACAD
70
0
330
110
0
ENDTAB
0
TABLE
2
BLOCK_RECORD
5
112
330
0
100
AcDbSymbolTable
70
2
0
BLOCK_RECORD
5
113
100
AcDbSymbolTableRecord
100
AcDbBlockTableRecord
2
*Model_Space
340
122
330
112
0
BLOCK_RECORD
5
114
100
AcDbSymbolTableRecord
100
AcDbBlockTableRecord
2
*Paper_Space
340
123
330
112
0
ENDTAB
0
TABLE
2
VPORT
5
119
330
0
100
AcDbSymbolTable
70
0
0
ENDTAB
0
TABLE
2
VIEW
5
11A
330
0
100
AcDbSymbolTable
70
0
0
ENDTAB
0
TABLE
2
UCS
5
11B
330
0
100
AcDbSymbolTable
70
0
0
ENDTAB
0
TABLE
2
DIMSTYLE
5
11C
330
0
100
AcDbSymbolTable
70
1
100
AcDbDimStyleTable
71
0
0
DIMSTYLE
105
11D
330
11C
100
AcDbSymbolTableRecord
100
AcDbDimStyleTableRecord
2
STANDARD
70
0
340
10F
0
ENDTAB
0
ENDSEC
0
SECTION
2
BLOCKS
0
BLOCK
5
115
330
113
100
AcDbEntity
8
0
100
AcDbBlockBegin
2
*Model_Space
70
1
10
0
20
0
30
0
3
*Model_Space
1

1001
CONDUITCAD
1000
{"ports":[]}
0
ENDBLK
5
116
330
113
100
AcDbEntity
8
0
100
AcDbBlockEnd
0
BLOCK
5
117
330
114
100
AcDbEntity
8
0
100
AcDbBlockBegin
2
*Paper_Space
70
1
10
0
20
0
30
0
3
*Paper_Space
1

1001
CONDUITCAD
1000
{"ports":[]}
0
ENDBLK
5
118
330
114
100
AcDbEntity
8
0
100
AcDbBlockEnd
0
ENDSEC
0
SECTION
2
ENTITIES
0
LWPOLYLINE
5
100
330
113
100
AcDbEntity
8
Annotations
60
1
100
AcDbPolyline
90
10
70
1
10
0
20
0
10
14
20
0
10
14
20
25
10
22
20
25
10
22
20
45
10
17
20
45
10
17
20
105
10
11
20
105
10
11
20
145
10
0
20
145
1001
CONDUITCAD
1000
{"id":"3d-shaft-001","label":"Turned outline","model3dConsumed":true,"model3dUserHidden":false}
0
MESH
5
101
330
113
100
AcDbEntity
8
Equipment
62
7
420
7247016
100
AcDbSubDMesh
71
2
72
0
91
0
92
450
10
0
20
0
30
145
10
11
20
0
30
145
10
11
20
0
30
105
10
17
20
0
30
105
10
17
20
0
30
45
10
22
20
0
30
45
10
22
20
0
30
25
10
14
20
0
30
25
10
14
20
0
30
0
10
0
20
0
30
0
10
10.930834308825668
20
1.2316092371363865
30
145
10
10.930834308825668
20
1.2316092371363865
30
105
10
16.893107568185123
20
1.9033960937562335
30
105
10
16.893107568185123
20
1.9033960937562335
30
45
10
21.861668617651336
20
2.463218474272773
30
45
10
21.861668617651336
20
2.463218474272773
30
25
10
13.911970938505396
20
1.56750266544631
30
25
10
13.911970938505396
20
1.56750266544631
30
0
10
10.72420703400006
20
2.447730273519458
30
145
10
10.72420703400006
20
2.447730273519458
30
105
10
16.573774507091002
20
3.7828558772573446
30
105
10
16.573774507091002
20
3.7828558772573446
30
45
10
21.44841406800012
20
4.895460547038916
30
45
10
21.44841406800012
20
4.895460547038916
30
25
10
13.648990770545531
20
3.1152930753884016
30
25
10
13.648990770545531
20
3.1152930753884016
30
0
10
10.382716633392043
20
3.6330696815068375
30
145
10
10.382716633392043
20
3.6330696815068375
30
105
10
16.046016615242248
20
5.61474405323784
30
105
10
16.046016615242248
20
5.61474405323784
30
45
10
20.765433266784086
20
7.266139363013675
30
45
10
20.765433266784086
20
7.266139363013675
30
25
10
13.214366624317146
20
4.623906867372338
30
25
10
13.214366624317146
20
4.623906867372338
30
0
10
9.910657546926611
20
4.77272113029314
30
145
10
9.910657546926611
20
4.77272113029314
30
105
10
15.316470754341125
20
7.376023564998488
30
105
10
15.316470754341125
20
7.376023564998488
30
45
10
19.821315093853222
20
9.54544226058628
30
45
10
19.821315093853222
20
9.54544226058628
30
25
10
12.613564150633868
20
6.074372347645814
30
25
10
12.613564150633868
20
6.074372347645814
30
0
10
9.313966191511126
20
5.8523528416687025
30
145
10
9.313966191511126
20
5.8523528416687025
30
105
10
14.394311386880831
20
9.044545300760722
30
105
10
14.394311386880831
20
9.044545300760722
30
45
10
18.62793238302225
20
11.704705683337405
30
45
10
18.62793238302225
20
11.704705683337405
30
25
10
11.854138789195979
20
7.4484490712147124
30
25
10
11.854138789195979
20
7.4484490712147124
30
0
10
8.600146307148329
20
6.858387820446068
30
145
10
8.600146307148329
20
6.858387820446068
30
105
10
13.291135201956507
20
10.599326631598469
30
105
10
13.291135201956507
20
10.599326631598469
30
45
10
17.200292614296657
20
13.716775640892136
30
45
10
17.200292614296657
20
13.716775640892136
30
25
10
10.945640754552418
20
8.728857226022269
30
25
10
10.945640754552418
20
8.728857226022269
30
0
10
7.778174593052023
20
7.778174593052022
30
145
10
7.778174593052023
20
7.778174593052022
30
105
10
12.020815280171309
20
12.020815280171307
30
105
10
12.020815280171309
20
12.020815280171307
30
45
10
15.556349186104047
20
15.556349186104043
30
45
10
15.556349186104047
20
15.556349186104043
30
25
10
9.899494936611665
20
9.899494936611664
30
25
10
9.899494936611665
20
9.899494936611664
30
0
10
6.85838782044607
20
8.600146307148329
30
145
10
6.85838782044607
20
8.600146307148329
30
105
10
10.59932663159847
20
13.291135201956507
30
105
10
10.59932663159847
20
13.291135201956507
30
45
10
13.71677564089214
20
17.200292614296657
30
45
10
13.71677564089214
20
17.200292614296657
30
25
10
8.72885722602227
20
10.945640754552418
30
25
10
8.72885722602227
20
10.945640754552418
30
0
10
5.8523528416687025
20
9.313966191511126
30
145
10
5.8523528416687025
20
9.313966191511126
30
105
10
9.044545300760722
20
14.39431138688083
30
105
10
9.044545300760722
20
14.39431138688083
30
45
10
11.704705683337405
20
18.62793238302225
30
45
10
11.704705683337405
20
18.62793238302225
30
25
10
7.4484490712147124
20
11.854138789195979
30
25
10
7.4484490712147124
20
11.854138789195979
30
0
10
4.77272113029314
20
9.910657546926611
30
145
10
4.77272113029314
20
9.910657546926611
30
105
10
7.376023564998489
20
15.316470754341125
30
105
10
7.376023564998489
20
15.316470754341125
30
45
10
9.54544226058628
20
19.821315093853222
30
45
10
9.54544226058628
20
19.821315093853222
30
25
10
6.074372347645815
20
12.613564150633868
30
25
10
6.074372347645815
20
12.613564150633868
30
0
10
3.6330696815068406
20
10.382716633392041
30
145
10
3.6330696815068406
20
10.382716633392041
30
105
10
5.614744053237844
20
16.046016615242248
30
105
10
5.614744053237844
20
16.046016615242248
30
45
10
7.266139363013681
20
20.765433266784083
30
45
10
7.266139363013681
20
20.765433266784083
30
25
10
4.623906867372343
20
13.214366624317144
30
25
10
4.623906867372343
20
13.214366624317144
30
0
10
2.447730273519459
20
10.72420703400006
30
145
10
2.447730273519459
20
10.72420703400006
30
105
10
3.7828558772573455
20
16.573774507091002
30
105
10
3.7828558772573455
20
16.573774507091002
30
45
10
4.895460547038918
20
21.44841406800012
30
45
10
4.895460547038918
20
21.44841406800012
30
25
10
3.1152930753884025
20
13.648990770545531
30
25
10
3.1152930753884025
20
13.648990770545531
30
0
10
1.2316092371363845
20
10.930834308825668
30
145
10
1.2316092371363845
20
10.930834308825668
30
105
10
1.9033960937562306
20
16.893107568185123
30
105
10
1.9033960937562306
20
16.893107568185123
30
45
10
2.463218474272769
20
21.861668617651336
30
45
10
2.463218474272769
20
21.861668617651336
30
25
10
1.5675026654463076
20
13.911970938505396
30
25
10
1.5675026654463076
20
13.911970938505396
30
0
10
6.735557395310443e-16
20
11
30
145
10
6.735557395310443e-16
20
11
30
105
10
1.0409497792752501e-15
20
17
30
105
10
1.0409497792752501e-15
20
17
30
45
10
1.3471114790620886e-15
20
22
30
45
10
1.3471114790620886e-15
20
22
30
25
10
8.572527594031472e-16
20
14
30
25
10
8.572527594031472e-16
20
14
30
0
10
-1.2316092371363834
20
10.930834308825668
30
145
10
-1.2316092371363834
20
10.930834308825668
30
105
10
-1.9033960937562289
20
16.893107568185123
30
105
10
-1.9033960937562289
20
16.893107568185123
30
45
10
-2.4632184742727667
20
21.861668617651336
30
45
10
-2.4632184742727667
20
21.861668617651336
30
25
10
-1.567502665446306
20
13.911970938505396
30
25
10
-1.567502665446306
20
13.911970938505396
30
0
10
-2.4477302735194577
20
10.72420703400006
30
145
10
-2.4477302735194577
20
10.72420703400006
30
105
10
-3.7828558772573437
20
16.573774507091002
30
105
10
-3.7828558772573437
20
16.573774507091002
30
45
10
-4.895460547038915
20
21.44841406800012
30
45
10
-4.895460547038915
20
21.44841406800012
30
25
10
-3.1152930753884007
20
13.648990770545531
30
25
10
-3.1152930753884007
20
13.648990770545531
30
0
10
-3.6330696815068393
20
10.382716633392041
30
145
10
-3.6330696815068393
20
10.382716633392041
30
105
10
-5.6147440532378425
20
16.046016615242248
30
105
10
-5.6147440532378425
20
16.046016615242248
30
45
10
-7.266139363013679
20
20.765433266784083
30
45
10
-7.266139363013679
20
20.765433266784083
30
25
10
-4.623906867372341
20
13.214366624317144
30
25
10
-4.623906867372341
20
13.214366624317144
30
0
10
-4.772721130293139
20
9.910657546926611
30
145
10
-4.772721130293139
20
9.910657546926611
30
105
10
-7.376023564998487
20
15.316470754341125
30
105
10
-7.376023564998487
20
15.316470754341125
30
45
10
-9.545442260586277
20
19.821315093853222
30
45
10
-9.545442260586277
20
19.821315093853222
30
25
10
-6.074372347645813
20
12.613564150633868
30
25
10
-6.074372347645813
20
12.613564150633868
30
0
10
-5.852352841668701
20
9.313966191511126
30
145
10
-5.852352841668701
20
9.313966191511126
30
105
10
-9.04454530076072
20
14.394311386880831
30
105
10
-9.04454530076072
20
14.394311386880831
30
45
10
-11.704705683337401
20
18.62793238302225
30
45
10
-11.704705683337401
20
18.62793238302225
30
25
10
-7.448449071214711
20
11.854138789195979
30
25
10
-7.448449071214711
20
11.854138789195979
30
0
10
-6.858387820446068
20
8.600146307148329
30
145
10
-6.858387820446068
20
8.600146307148329
30
105
10
-10.599326631598469
20
13.291135201956509
30
105
10
-10.599326631598469
20
13.291135201956509
30
45
10
-13.716775640892136
20
17.200292614296657
30
45
10
-13.716775640892136
20
17.200292614296657
30
25
10
-8.728857226022269
20
10.945640754552418
30
25
10
-8.728857226022269
20
10.945640754552418
30
0
10
-7.778174593052022
20
7.778174593052023
30
145
10
-7.778174593052022
20
7.778174593052023
30
105
10
-12.020815280171307
20
12.020815280171309
30
105
10
-12.020815280171307
20
12.020815280171309
30
45
10
-15.556349186104043
20
15.556349186104047
30
45
10
-15.556349186104043
20
15.556349186104047
30
25
10
-9.899494936611664
20
9.899494936611665
30
25
10
-9.899494936611664
20
9.899494936611665
30
0
10
-8.600146307148325
20
6.858387820446073
30
145
10
-8.600146307148325
20
6.858387820446073
30
105
10
-13.2911352019565
20
10.599326631598476
30
105
10
-13.2911352019565
20
10.599326631598476
30
45
10
-17.20029261429665
20
13.716775640892147
30
45
10
-17.20029261429665
20
13.716775640892147
30
25
10
-10.945640754552413
20
8.728857226022274
30
25
10
-10.945640754552413
20
8.728857226022274
30
0
10
-9.313966191511126
20
5.852352841668703
30
145
10
-9.313966191511126
20
5.852352841668703
30
105
10
-14.39431138688083
20
9.044545300760724
30
105
10
-14.39431138688083
20
9.044545300760724
30
45
10
-18.62793238302225
20
11.704705683337407
30
45
10
-18.62793238302225
20
11.704705683337407
30
25
10
-11.854138789195979
20
7.448449071214713
30
25
10
-11.854138789195979
20
7.448449071214713
30
0
10
-9.91065754692661
20
4.7727211302931405
30
145
10
-9.91065754692661
20
4.7727211302931405
30
105
10
-15.316470754341124
20
7.37602356499849
30
105
10
-15.316470754341124
20
7.37602356499849
30
45
10
-19.82131509385322
20
9.545442260586281
30
45
10
-19.82131509385322
20
9.545442260586281
30
25
10
-12.613564150633866
20
6.074372347645816
30
25
10
-12.613564150633866
20
6.074372347645816
30
0
10
-10.382716633392043
20
3.6330696815068393
30
145
10
-10.382716633392043
20
3.6330696815068393
30
105
10
-16.046016615242248
20
5.6147440532378425
30
105
10
-16.046016615242248
20
5.6147440532378425
30
45
10
-20.765433266784086
20
7.266139363013679
30
45
10
-20.765433266784086
20
7.266139363013679
30
25
10
-13.214366624317146
20
4.623906867372341
30
25
10
-13.214366624317146
20
4.623906867372341
30
0
10
-10.724207034000061
20
2.447730273519455
30
145
10
-10.724207034000061
20
2.447730273519455
30
105
10
-16.573774507091002
20
3.7828558772573393
30
105
10
-16.573774507091002
20
3.7828558772573393
30
45
10
-21.448414068000123
20
4.89546054703891
30
45
10
-21.448414068000123
20
4.89546054703891
30
25
10
-13.648990770545533
20
3.115293075388397
30
25
10
-13.648990770545533
20
3.115293075388397
30
0
10
-10.930834308825668
20
1.2316092371363878
30
145
10
-10.930834308825668
20
1.2316092371363878
30
105
10
-16.893107568185123
20
1.9033960937562358
30
105
10
-16.893107568185123
20
1.9033960937562358
30
45
10
-21.861668617651336
20
2.4632184742727756
30
45
10
-21.861668617651336
20
2.4632184742727756
30
25
10
-13.911970938505396
20
1.5675026654463118
30
25
10
-13.911970938505396
20
1.5675026654463118
30
0
10
-11
20
1.3471114790620886e-15
30
145
10
-11
20
1.3471114790620886e-15
30
105
10
-17
20
2.0818995585505003e-15
30
105
10
-17
20
2.0818995585505003e-15
30
45
10
-22
20
2.6942229581241772e-15
30
45
10
-22
20
2.6942229581241772e-15
30
25
10
-14
20
1.7145055188062944e-15
30
25
10
-14
20
1.7145055188062944e-15
30
0
10
-10.930834308825668
20
-1.231609237136385
30
145
10
-10.930834308825668
20
-1.231609237136385
30
105
10
-16.893107568185123
20
-1.9033960937562315
30
105
10
-16.893107568185123
20
-1.9033960937562315
30
45
10
-21.861668617651336
20
-2.46321847427277
30
45
10
-21.861668617651336
20
-2.46321847427277
30
25
10
-13.911970938505396
20
-1.5675026654463082
30
25
10
-13.911970938505396
20
-1.5675026654463082
30
0
10
-10.724207034000061
20
-2.4477302735194524
30
145
10
-10.724207034000061
20
-2.4477302735194524
30
105
10
-16.573774507091002
20
-3.7828558772573353
30
105
10
-16.573774507091002
20
-3.7828558772573353
30
45
10
-21.448414068000123
20
-4.895460547038905
30
45
10
-21.448414068000123
20
-4.895460547038905
30
25
10
-13.648990770545533
20
-3.1152930753883936
30
25
10
-13.648990770545533
20
-3.1152930753883936
30
0
10
-10.382716633392043
20
-3.633069681506836
30
145
10
-10.382716633392043
20
-3.633069681506836
30
105
10
-16.046016615242248
20
-5.614744053237838
30
105
10
-16.046016615242248
20
-5.614744053237838
30
45
10
-20.765433266784086
20
-7.266139363013672
30
45
10
-20.765433266784086
20
-7.266139363013672
30
25
10
-13.214366624317146
20
-4.623906867372337
30
25
10
-13.214366624317146
20
-4.623906867372337
30
0
10
-9.910657546926611
20
-4.772721130293138
30
145
10
-9.910657546926611
20
-4.772721130293138
30
105
10
-15.316470754341125
20
-7.376023564998486
30
105
10
-15.316470754341125
20
-7.376023564998486
30
45
10
-19.821315093853222
20
-9.545442260586276
30
45
10
-19.821315093853222
20
-9.545442260586276
30
25
10
-12.613564150633868
20
-6.074372347645812
30
25
10
-12.613564150633868
20
-6.074372347645812
30
0
10
-9.313966191511126
20
-5.852352841668701
30
145
10
-9.313966191511126
20
-5.852352841668701
30
105
10
-14.394311386880831
20
-9.04454530076072
30
105
10
-14.394311386880831
20
-9.04454530076072
30
45
10
-18.62793238302225
20
-11.704705683337401
30
45
10
-18.62793238302225
20
-11.704705683337401
30
25
10
-11.854138789195979
20
-7.448449071214711
30
25
10
-11.854138789195979
20
-7.448449071214711
30
0
10
-8.600146307148325
20
-6.858387820446072
30
145
10
-8.600146307148325
20
-6.858387820446072
30
105
10
-13.291135201956504
20
-10.599326631598474
30
105
10
-13.291135201956504
20
-10.599326631598474
30
45
10
-17.20029261429665
20
-13.716775640892145
30
45
10
-17.20029261429665
20
-13.716775640892145
30
25
10
-10.945640754552414
20
-8.728857226022274
30
25
10
-10.945640754552414
20
-8.728857226022274
30
0
10
-7.778174593052024
20
-7.778174593052022
30
145
10
-7.778174593052024
20
-7.778174593052022
30
105
10
-12.02081528017131
20
-12.020815280171307
30
105
10
-12.02081528017131
20
-12.020815280171307
30
45
10
-15.556349186104049
20
-15.556349186104043
30
45
10
-15.556349186104049
20
-15.556349186104043
30
25
10
-9.899494936611667
20
-9.899494936611664
30
25
10
-9.899494936611667
20
-9.899494936611664
30
0
10
-6.858387820446071
20
-8.600146307148327
30
145
10
-6.858387820446071
20
-8.600146307148327
30
105
10
-10.599326631598473
20
-13.291135201956505
30
105
10
-10.599326631598473
20
-13.291135201956505
30
45
10
-13.716775640892141
20
-17.200292614296654
30
45
10
-13.716775640892141
20
-17.200292614296654
30
25
10
-8.728857226022273
20
-10.945640754552416
30
25
10
-8.728857226022273
20
-10.945640754552416
30
0
10
-5.852352841668703
20
-9.313966191511126
30
145
10
-5.852352841668703
20
-9.313966191511126
30
105
10
-9.044545300760724
20
-14.39431138688083
30
105
10
-9.044545300760724
20
-14.39431138688083
30
45
10
-11.704705683337407
20
-18.62793238302225
30
45
10
-11.704705683337407
20
-18.62793238302225
30
25
10
-7.448449071214713
20
-11.854138789195979
30
25
10
-7.448449071214713
20
-11.854138789195979
30
0
10
-4.772721130293141
20
-9.91065754692661
30
145
10
-4.772721130293141
20
-9.91065754692661
30
105
10
-7.376023564998491
20
-15.316470754341124
30
105
10
-7.376023564998491
20
-15.316470754341124
30
45
10
-9.545442260586283
20
-19.82131509385322
30
45
10
-9.545442260586283
20
-19.82131509385322
30
25
10
-6.0743723476458165
20
-12.613564150633866
30
25
10
-6.0743723476458165
20
-12.613564150633866
30
0
10
-3.6330696815068397
20
-10.382716633392041
30
145
10
-3.6330696815068397
20
-10.382716633392041
30
105
10
-5.614744053237843
20
-16.046016615242248
30
105
10
-5.614744053237843
20
-16.046016615242248
30
45
10
-7.2661393630136795
20
-20.765433266784083
30
45
10
-7.2661393630136795
20
-20.765433266784083
30
25
10
-4.623906867372342
20
-13.214366624317144
30
25
10
-4.623906867372342
20
-13.214366624317144
30
0
10
-2.4477302735194604
20
-10.72420703400006
30
145
10
-2.4477302735194604
20
-10.72420703400006
30
105
10
-3.782855877257348
20
-16.573774507091002
30
105
10
-3.782855877257348
20
-16.573774507091002
30
45
10
-4.895460547038921
20
-21.44841406800012
30
45
10
-4.895460547038921
20
-21.44841406800012
30
25
10
-3.1152930753884043
20
-13.648990770545531
30
25
10
-3.1152930753884043
20
-13.648990770545531
30
0
10
-1.2316092371363885
20
-10.930834308825668
30
145
10
-1.2316092371363885
20
-10.930834308825668
30
105
10
-1.9033960937562366
20
-16.893107568185123
30
105
10
-1.9033960937562366
20
-16.893107568185123
30
45
10
-2.463218474272777
20
-21.861668617651336
30
45
10
-2.463218474272777
20
-21.861668617651336
30
25
10
-1.5675026654463124
20
-13.911970938505396
30
25
10
-1.5675026654463124
20
-13.911970938505396
30
0
10
-2.0206672185931327e-15
20
-11
30
145
10
-2.0206672185931327e-15
20
-11
30
105
10
-3.1228493378257506e-15
20
-17
30
105
10
-3.1228493378257506e-15
20
-17
30
45
10
-4.0413344371862654e-15
20
-22
30
45
10
-4.0413344371862654e-15
20
-22
30
25
10
-2.5717582782094417e-15
20
-14
30
25
10
-2.5717582782094417e-15
20
-14
30
0
10
1.2316092371363845
20
-10.930834308825668
30
145
10
1.2316092371363845
20
-10.930834308825668
30
105
10
1.9033960937562304
20
-16.893107568185123
30
105
10
1.9033960937562304
20
-16.893107568185123
30
45
10
2.463218474272769
20
-21.861668617651336
30
45
10
2.463218474272769
20
-21.861668617651336
30
25
10
1.5675026654463076
20
-13.911970938505396
30
25
10
1.5675026654463076
20
-13.911970938505396
30
0
10
2.4477302735194466
20
-10.724207034000063
30
145
10
2.4477302735194466
20
-10.724207034000063
30
105
10
3.782855877257327
20
-16.573774507091006
30
105
10
3.782855877257327
20
-16.573774507091006
30
45
10
4.895460547038893
20
-21.448414068000126
30
45
10
4.895460547038893
20
-21.448414068000126
30
25
10
3.1152930753883865
20
-13.648990770545534
30
25
10
3.1152930753883865
20
-13.648990770545534
30
0
10
3.6330696815068357
20
-10.382716633392043
30
145
10
3.6330696815068357
20
-10.382716633392043
30
105
10
5.614744053237837
20
-16.046016615242248
30
105
10
5.614744053237837
20
-16.046016615242248
30
45
10
7.2661393630136715
20
-20.765433266784086
30
45
10
7.2661393630136715
20
-20.765433266784086
30
25
10
4.6239068673723365
20
-13.214366624317146
30
25
10
4.6239068673723365
20
-13.214366624317146
30
0
10
4.772721130293138
20
-9.910657546926611
30
145
10
4.772721130293138
20
-9.910657546926611
30
105
10
7.376023564998485
20
-15.316470754341127
30
105
10
7.376023564998485
20
-15.316470754341127
30
45
10
9.545442260586276
20
-19.821315093853222
30
45
10
9.545442260586276
20
-19.821315093853222
30
25
10
6.074372347645811
20
-12.61356415063387
30
25
10
6.074372347645811
20
-12.61356415063387
30
0
10
5.8523528416687
20
-9.313966191511126
30
145
10
5.8523528416687
20
-9.313966191511126
30
105
10
9.044545300760717
20
-14.394311386880831
30
105
10
9.044545300760717
20
-14.394311386880831
30
45
10
11.7047056833374
20
-18.62793238302225
30
45
10
11.7047056833374
20
-18.62793238302225
30
25
10
7.448449071214709
20
-11.854138789195979
30
25
10
7.448449071214709
20
-11.854138789195979
30
0
10
6.858387820446067
20
-8.600146307148329
30
145
10
6.858387820446067
20
-8.600146307148329
30
105
10
10.599326631598467
20
-13.291135201956509
30
105
10
10.599326631598467
20
-13.291135201956509
30
45
10
13.716775640892134
20
-17.200292614296657
30
45
10
13.716775640892134
20
-17.200292614296657
30
25
10
8.728857226022267
20
-10.945640754552418
30
25
10
8.728857226022267
20
-10.945640754552418
30
0
10
7.778174593052021
20
-7.778174593052024
30
145
10
7.778174593052021
20
-7.778174593052024
30
105
10
12.020815280171306
20
-12.02081528017131
30
105
10
12.020815280171306
20
-12.02081528017131
30
45
10
15.556349186104041
20
-15.556349186104049
30
45
10
15.556349186104041
20
-15.556349186104049
30
25
10
9.899494936611664
20
-9.899494936611667
30
25
10
9.899494936611664
20
-9.899494936611667
30
0
10
8.600146307148327
20
-6.858387820446071
30
145
10
8.600146307148327
20
-6.858387820446071
30
105
10
13.291135201956505
20
-10.599326631598473
30
105
10
13.291135201956505
20
-10.599326631598473
30
45
10
17.200292614296654
20
-13.716775640892141
30
45
10
17.200292614296654
20
-13.716775640892141
30
25
10
10.945640754552416
20
-8.728857226022273
30
25
10
10.945640754552416
20
-8.728857226022273
30
0
10
9.313966191511124
20
-5.852352841668704
30
145
10
9.313966191511124
20
-5.852352841668704
30
105
10
14.394311386880828
20
-9.044545300760726
30
105
10
14.394311386880828
20
-9.044545300760726
30
45
10
18.627932383022248
20
-11.704705683337409
30
45
10
18.627932383022248
20
-11.704705683337409
30
25
10
11.854138789195977
20
-7.448449071214715
30
25
10
11.854138789195977
20
-7.448449071214715
30
0
10
9.910657546926613
20
-4.7727211302931325
30
145
10
9.910657546926613
20
-4.7727211302931325
30
105
10
15.316470754341129
20
-7.376023564998477
30
105
10
15.316470754341129
20
-7.376023564998477
30
45
10
19.821315093853226
20
-9.545442260586265
30
45
10
19.821315093853226
20
-9.545442260586265
30
25
10
12.613564150633872
20
-6.074372347645805
30
25
10
12.613564150633872
20
-6.074372347645805
30
0
10
10.382716633392041
20
-3.6330696815068406
30
145
10
10.382716633392041
20
-3.6330696815068406
30
105
10
16.046016615242248
20
-5.614744053237844
30
105
10
16.046016615242248
20
-5.614744053237844
30
45
10
20.765433266784083
20
-7.266139363013681
30
45
10
20.765433266784083
20
-7.266139363013681
30
25
10
13.214366624317144
20
-4.623906867372343
30
25
10
13.214366624317144
20
-4.623906867372343
30
0
10
10.72420703400006
20
-2.4477302735194613
30
145
10
10.72420703400006
20
-2.4477302735194613
30
105
10
16.573774507091
20
-3.782855877257349
30
105
10
16.573774507091
20
-3.782855877257349
30
45
10
21.44841406800012
20
-4.8954605470389225
30
45
10
21.44841406800012
20
-4.8954605470389225
30
25
10
13.64899077054553
20
-3.115293075388405
30
25
10
13.64899077054553
20
-3.115293075388405
30
0
10
10.930834308825668
20
-1.231609237136389
30
145
10
10.930834308825668
20
-1.231609237136389
30
105
10
16.893107568185123
20
-1.9033960937562375
30
105
10
16.893107568185123
20
-1.9033960937562375
30
45
10
21.861668617651336
20
-2.463218474272778
30
45
10
21.861668617651336
20
-2.463218474272778
30
25
10
13.911970938505396
20
-1.5675026654463133
30
25
10
13.911970938505396
20
-1.5675026654463133
30
0
93
2408
90
3
90
0
90
1
90
10
90
4
90
1
90
2
90
11
90
10
90
4
90
2
90
3
90
12
90
11
90
4
90
3
90
4
90
13
90
12
90
4
90
4
90
5
90
14
90
13
90
4
90
5
90
6
90
15
90
14
90
4
90
6
90
7
90
16
90
15
90
4
90
7
90
8
90
17
90
16
90
3
90
8
90
9
90
17
90
3
90
0
90
10
90
18
90
4
90
10
90
11
90
19
90
18
90
4
90
11
90
12
90
20
90
19
90
4
90
12
90
13
90
21
90
20
90
4
90
13
90
14
90
22
90
21
90
4
90
14
90
15
90
23
90
22
90
4
90
15
90
16
90
24
90
23
90
4
90
16
90
17
90
25
90
24
90
3
90
17
90
9
90
25
90
3
90
0
90
18
90
26
90
4
90
18
90
19
90
27
90
26
90
4
90
19
90
20
90
28
90
27
90
4
90
20
90
21
90
29
90
28
90
4
90
21
90
22
90
30
90
29
90
4
90
22
90
23
90
31
90
30
90
4
90
23
90
24
90
32
90
31
90
4
90
24
90
25
90
33
90
32
90
3
90
25
90
9
90
33
90
3
90
0
90
26
90
34
90
4
90
26
90
27
90
35
90
34
90
4
90
27
90
28
90
36
90
35
90
4
90
28
90
29
90
37
90
36
90
4
90
29
90
30
90
38
90
37
90
4
90
30
90
31
90
39
90
38
90
4
90
31
90
32
90
40
90
39
90
4
90
32
90
33
90
41
90
40
90
3
90
33
90
9
90
41
90
3
90
0
90
34
90
42
90
4
90
34
90
35
90
43
90
42
90
4
90
35
90
36
90
44
90
43
90
4
90
36
90
37
90
45
90
44
90
4
90
37
90
38
90
46
90
45
90
4
90
38
90
39
90
47
90
46
90
4
90
39
90
40
90
48
90
47
90
4
90
40
90
41
90
49
90
48
90
3
90
41
90
9
90
49
90
3
90
0
90
42
90
50
90
4
90
42
90
43
90
51
90
50
90
4
90
43
90
44
90
52
90
51
90
4
90
44
90
45
90
53
90
52
90
4
90
45
90
46
90
54
90
53
90
4
90
46
90
47
90
55
90
54
90
4
90
47
90
48
90
56
90
55
90
4
90
48
90
49
90
57
90
56
90
3
90
49
90
9
90
57
90
3
90
0
90
50
90
58
90
4
90
50
90
51
90
59
90
58
90
4
90
51
90
52
90
60
90
59
90
4
90
52
90
53
90
61
90
60
90
4
90
53
90
54
90
62
90
61
90
4
90
54
90
55
90
63
90
62
90
4
90
55
90
56
90
64
90
63
90
4
90
56
90
57
90
65
90
64
90
3
90
57
90
9
90
65
90
3
90
0
90
58
90
66
90
4
90
58
90
59
90
67
90
66
90
4
90
59
90
60
90
68
90
67
90
4
90
60
90
61
90
69
90
68
90
4
90
61
90
62
90
70
90
69
90
4
90
62
90
63
90
71
90
70
90
4
90
63
90
64
90
72
90
71
90
4
90
64
90
65
90
73
90
72
90
3
90
65
90
9
90
73
90
3
90
0
90
66
90
74
90
4
90
66
90
67
90
75
90
74
90
4
90
67
90
68
90
76
90
75
90
4
90
68
90
69
90
77
90
76
90
4
90
69
90
70
90
78
90
77
90
4
90
70
90
71
90
79
90
78
90
4
90
71
90
72
90
80
90
79
90
4
90
72
90
73
90
81
90
80
90
3
90
73
90
9
90
81
90
3
90
0
90
74
90
82
90
4
90
74
90
75
90
83
90
82
90
4
90
75
90
76
90
84
90
83
90
4
90
76
90
77
90
85
90
84
90
4
90
77
90
78
90
86
90
85
90
4
90
78
90
79
90
87
90
86
90
4
90
79
90
80
90
88
90
87
90
4
90
80
90
81
90
89
90
88
90
3
90
81
90
9
90
89
90
3
90
0
90
82
90
90
90
4
90
82
90
83
90
91
90
90
90
4
90
83
90
84
90
92
90
91
90
4
90
84
90
85
90
93
90
92
90
4
90
85
90
86
90
94
90
93
90
4
90
86
90
87
90
95
90
94
90
4
90
87
90
88
90
96
90
95
90
4
90
88
90
89
90
97
90
96
90
3
90
89
90
9
90
97
90
3
90
0
90
90
90
98
90
4
90
90
90
91
90
99
90
98
90
4
90
91
90
92
90
100
90
99
90
4
90
92
90
93
90
101
90
100
90
4
90
93
90
94
90
102
90
101
90
4
90
94
90
95
90
103
90
102
90
4
90
95
90
96
90
104
90
103
90
4
90
96
90
97
90
105
90
104
90
3
90
97
90
9
90
105
90
3
90
0
90
98
90
106
90
4
90
98
90
99
90
107
90
106
90
4
90
99
90
100
90
108
90
107
90
4
90
100
90
101
90
109
90
108
90
4
90
101
90
102
90
110
90
109
90
4
90
102
90
103
90
111
90
110
90
4
90
103
90
104
90
112
90
111
90
4
90
104
90
105
90
113
90
112
90
3
90
105
90
9
90
113
90
3
90
0
90
106
90
114
90
4
90
106
90
107
90
115
90
114
90
4
90
107
90
108
90
116
90
115
90
4
90
108
90
109
90
117
90
116
90
4
90
109
90
110
90
118
90
117
90
4
90
110
90
111
90
119
90
118
90
4
90
111
90
112
90
120
90
119
90
4
90
112
90
113
90
121
90
120
90
3
90
113
90
9
90
121
90
3
90
0
90
114
90
122
90
4
90
114
90
115
90
123
90
122
90
4
90
115
90
116
90
124
90
123
90
4
90
116
90
117
90
125
90
124
90
4
90
117
90
118
90
126
90
125
90
4
90
118
90
119
90
127
90
126
90
4
90
119
90
120
90
128
90
127
90
4
90
120
90
121
90
129
90
128
90
3
90
121
90
9
90
129
90
3
90
0
90
122
90
130
90
4
90
122
90
123
90
131
90
130
90
4
90
123
90
124
90
132
90
131
90
4
90
124
90
125
90
133
90
132
90
4
90
125
90
126
90
134
90
133
90
4
90
126
90
127
90
135
90
134
90
4
90
127
90
128
90
136
90
135
90
4
90
128
90
129
90
137
90
136
90
3
90
129
90
9
90
137
90
3
90
0
90
130
90
138
90
4
90
130
90
131
90
139
90
138
90
4
90
131
90
132
90
140
90
139
90
4
90
132
90
133
90
141
90
140
90
4
90
133
90
134
90
142
90
141
90
4
90
134
90
135
90
143
90
142
90
4
90
135
90
136
90
144
90
143
90
4
90
136
90
137
90
145
90
144
90
3
90
137
90
9
90
145
90
3
90
0
90
138
90
146
90
4
90
138
90
139
90
147
90
146
90
4
90
139
90
140
90
148
90
147
90
4
90
140
90
141
90
149
90
148
90
4
90
141
90
142
90
150
90
149
90
4
90
142
90
143
90
151
90
150
90
4
90
143
90
144
90
152
90
151
90
4
90
144
90
145
90
153
90
152
90
3
90
145
90
9
90
153
90
3
90
0
90
146
90
154
90
4
90
146
90
147
90
155
90
154
90
4
90
147
90
148
90
156
90
155
90
4
90
148
90
149
90
157
90
156
90
4
90
149
90
150
90
158
90
157
90
4
90
150
90
151
90
159
90
158
90
4
90
151
90
152
90
160
90
159
90
4
90
152
90
153
90
161
90
160
90
3
90
153
90
9
90
161
90
3
90
0
90
154
90
162
90
4
90
154
90
155
90
163
90
162
90
4
90
155
90
156
90
164
90
163
90
4
90
156
90
157
90
165
90
164
90
4
90
157
90
158
90
166
90
165
90
4
90
158
90
159
90
167
90
166
90
4
90
159
90
160
90
168
90
167
90
4
90
160
90
161
90
169
90
168
90
3
90
161
90
9
90
169
90
3
90
0
90
162
90
170
90
4
90
162
90
163
90
171
90
170
90
4
90
163
90
164
90
172
90
171
90
4
90
164
90
165
90
173
90
172
90
4
90
165
90
166
90
174
90
173
90
4
90
166
90
167
90
175
90
174
90
4
90
167
90
168
90
176
90
175
90
4
90
168
90
169
90
177
90
176
90
3
90
169
90
9
90
177
90
3
90
0
90
170
90
178
90
4
90
170
90
171
90
179
90
178
90
4
90
171
90
172
90
180
90
179
90
4
90
172
90
173
90
181
90
180
90
4
90
173
90
174
90
182
90
181
90
4
90
174
90
175
90
183
90
182
90
4
90
175
90
176
90
184
90
183
90
4
90
176
90
177
90
185
90
184
90
3
90
177
90
9
90
185
90
3
90
0
90
178
90
186
90
4
90
178
90
179
90
187
90
186
90
4
90
179
90
180
90
188
90
187
90
4
90
180
90
181
90
189
90
188
90
4
90
181
90
182
90
190
90
189
90
4
90
182
90
183
90
191
90
190
90
4
90
183
90
184
90
192
90
191
90
4
90
184
90
185
90
193
90
192
90
3
90
185
90
9
90
193
90
3
90
0
90
186
90
194
90
4
90
186
90
187
90
195
90
194
90
4
90
187
90
188
90
196
90
195
90
4
90
188
90
189
90
197
90
196
90
4
90
189
90
190
90
198
90
197
90
4
90
190
90
191
90
199
90
198
90
4
90
191
90
192
90
200
90
199
90
4
90
192
90
193
90
201
90
200
90
3
90
193
90
9
90
201
90
3
90
0
90
194
90
202
90
4
90
194
90
195
90
203
90
202
90
4
90
195
90
196
90
204
90
203
90
4
90
196
90
197
90
205
90
204
90
4
90
197
90
198
90
206
90
205
90
4
90
198
90
199
90
207
90
206
90
4
90
199
90
200
90
208
90
207
90
4
90
200
90
201
90
209
90
208
90
3
90
201
90
9
90
209
90
3
90
0
90
202
90
210
90
4
90
202
90
203
90
211
90
210
90
4
90
203
90
204
90
212
90
211
90
4
90
204
90
205
90
213
90
212
90
4
90
205
90
206
90
214
90
213
90
4
90
206
90
207
90
215
90
214
90
4
90
207
90
208
90
216
90
215
90
4
90
208
90
209
90
217
90
216
90
3
90
209
90
9
90
217
90
3
90
0
90
210
90
218
90
4
90
210
90
211
90
219
90
218
90
4
90
211
90
212
90
220
90
219
90
4
90
212
90
213
90
221
90
220
90
4
90
213
90
214
90
222
90
221
90
4
90
214
90
215
90
223
90
222
90
4
90
215
90
216
90
224
90
223
90
4
90
216
90
217
90
225
90
224
90
3
90
217
90
9
90
225
90
3
90
0
90
218
90
226
90
4
90
218
90
219
90
227
90
226
90
4
90
219
90
220
90
228
90
227
90
4
90
220
90
221
90
229
90
228
90
4
90
221
90
222
90
230
90
229
90
4
90
222
90
223
90
231
90
230
90
4
90
223
90
224
90
232
90
231
90
4
90
224
90
225
90
233
90
232
90
3
90
225
90
9
90
233
90
3
90
0
90
226
90
234
90
4
90
226
90
227
90
235
90
234
90
4
90
227
90
228
90
236
90
235
90
4
90
228
90
229
90
237
90
236
90
4
90
229
90
230
90
238
90
237
90
4
90
230
90
231
90
239
90
238
90
4
90
231
90
232
90
240
90
239
90
4
90
232
90
233
90
241
90
240
90
3
90
233
90
9
90
241
90
3
90
0
90
234
90
242
90
4
90
234
90
235
90
243
90
242
90
4
90
235
90
236
90
244
90
243
90
4
90
236
90
237
90
245
90
244
90
4
90
237
90
238
90
246
90
245
90
4
90
238
90
239
90
247
90
246
90
4
90
239
90
240
90
248
90
247
90
4
90
240
90
241
90
249
90
248
90
3
90
241
90
9
90
249
90
3
90
0
90
242
90
250
90
4
90
242
90
243
90
251
90
250
90
4
90
243
90
244
90
252
90
251
90
4
90
244
90
245
90
253
90
252
90
4
90
245
90
246
90
254
90
253
90
4
90
246
90
247
90
255
90
254
90
4
90
247
90
248
90
256
90
255
90
4
90
248
90
249
90
257
90
256
90
3
90
249
90
9
90
257
90
3
90
0
90
250
90
258
90
4
90
250
90
251
90
259
90
258
90
4
90
251
90
252
90
260
90
259
90
4
90
252
90
253
90
261
90
260
90
4
90
253
90
254
90
262
90
261
90
4
90
254
90
255
90
263
90
262
90
4
90
255
90
256
90
264
90
263
90
4
90
256
90
257
90
265
90
264
90
3
90
257
90
9
90
265
90
3
90
0
90
258
90
266
90
4
90
258
90
259
90
267
90
266
90
4
90
259
90
260
90
268
90
267
90
4
90
260
90
261
90
269
90
268
90
4
90
261
90
262
90
270
90
269
90
4
90
262
90
263
90
271
90
270
90
4
90
263
90
264
90
272
90
271
90
4
90
264
90
265
90
273
90
272
90
3
90
265
90
9
90
273
90
3
90
0
90
266
90
274
90
4
90
266
90
267
90
275
90
274
90
4
90
267
90
268
90
276
90
275
90
4
90
268
90
269
90
277
90
276
90
4
90
269
90
270
90
278
90
277
90
4
90
270
90
271
90
279
90
278
90
4
90
271
90
272
90
280
90
279
90
4
90
272
90
273
90
281
90
280
90
3
90
273
90
9
90
281
90
3
90
0
90
274
90
282
90
4
90
274
90
275
90
283
90
282
90
4
90
275
90
276
90
284
90
283
90
4
90
276
90
277
90
285
90
284
90
4
90
277
90
278
90
286
90
285
90
4
90
278
90
279
90
287
90
286
90
4
90
279
90
280
90
288
90
287
90
4
90
280
90
281
90
289
90
288
90
3
90
281
90
9
90
289
90
3
90
0
90
282
90
290
90
4
90
282
90
283
90
291
90
290
90
4
90
283
90
284
90
292
90
291
90
4
90
284
90
285
90
293
90
292
90
4
90
285
90
286
90
294
90
293
90
4
90
286
90
287
90
295
90
294
90
4
90
287
90
288
90
296
90
295
90
4
90
288
90
289
90
297
90
296
90
3
90
289
90
9
90
297
90
3
90
0
90
290
90
298
90
4
90
290
90
291
90
299
90
298
90
4
90
291
90
292
90
300
90
299
90
4
90
292
90
293
90
301
90
300
90
4
90
293
90
294
90
302
90
301
90
4
90
294
90
295
90
303
90
302
90
4
90
295
90
296
90
304
90
303
90
4
90
296
90
297
90
305
90
304
90
3
90
297
90
9
90
305
90
3
90
0
90
298
90
306
90
4
90
298
90
299
90
307
90
306
90
4
90
299
90
300
90
308
90
307
90
4
90
300
90
301
90
309
90
308
90
4
90
301
90
302
90
310
90
309
90
4
90
302
90
303
90
311
90
310
90
4
90
303
90
304
90
312
90
311
90
4
90
304
90
305
90
313
90
312
90
3
90
305
90
9
90
313
90
3
90
0
90
306
90
314
90
4
90
306
90
307
90
315
90
314
90
4
90
307
90
308
90
316
90
315
90
4
90
308
90
309
90
317
90
316
90
4
90
309
90
310
90
318
90
317
90
4
90
310
90
311
90
319
90
318
90
4
90
311
90
312
90
320
90
319
90
4
90
312
90
313
90
321
90
320
90
3
90
313
90
9
90
321
90
3
90
0
90
314
90
322
90
4
90
314
90
315
90
323
90
322
90
4
90
315
90
316
90
324
90
323
90
4
90
316
90
317
90
325
90
324
90
4
90
317
90
318
90
326
90
325
90
4
90
318
90
319
90
327
90
326
90
4
90
319
90
320
90
328
90
327
90
4
90
320
90
321
90
329
90
328
90
3
90
321
90
9
90
329
90
3
90
0
90
322
90
330
90
4
90
322
90
323
90
331
90
330
90
4
90
323
90
324
90
332
90
331
90
4
90
324
90
325
90
333
90
332
90
4
90
325
90
326
90
334
90
333
90
4
90
326
90
327
90
335
90
334
90
4
90
327
90
328
90
336
90
335
90
4
90
328
90
329
90
337
90
336
90
3
90
329
90
9
90
337
90
3
90
0
90
330
90
338
90
4
90
330
90
331
90
339
90
338
90
4
90
331
90
332
90
340
90
339
90
4
90
332
90
333
90
341
90
340
90
4
90
333
90
334
90
342
90
341
90
4
90
334
90
335
90
343
90
342
90
4
90
335
90
336
90
344
90
343
90
4
90
336
90
337
90
345
90
344
90
3
90
337
90
9
90
345
90
3
90
0
90
338
90
346
90
4
90
338
90
339
90
347
90
346
90
4
90
339
90
340
90
348
90
347
90
4
90
340
90
341
90
349
90
348
90
4
90
341
90
342
90
350
90
349
90
4
90
342
90
343
90
351
90
350
90
4
90
343
90
344
90
352
90
351
90
4
90
344
90
345
90
353
90
352
90
3
90
345
90
9
90
353
90
3
90
0
90
346
90
354
90
4
90
346
90
347
90
355
90
354
90
4
90
347
90
348
90
356
90
355
90
4
90
348
90
349
90
357
90
356
90
4
90
349
90
350
90
358
90
357
90
4
90
350
90
351
90
359
90
358
90
4
90
351
90
352
90
360
90
359
90
4
90
352
90
353
90
361
90
360
90
3
90
353
90
9
90
361
90
3
90
0
90
354
90
362
90
4
90
354
90
355
90
363
90
362
90
4
90
355
90
356
90
364
90
363
90
4
90
356
90
357
90
365
90
364
90
4
90
357
90
358
90
366
90
365
90
4
90
358
90
359
90
367
90
366
90
4
90
359
90
360
90
368
90
367
90
4
90
360
90
361
90
369
90
368
90
3
90
361
90
9
90
369
90
3
90
0
90
362
90
370
90
4
90
362
90
363
90
371
90
370
90
4
90
363
90
364
90
372
90
371
90
4
90
364
90
365
90
373
90
372
90
4
90
365
90
366
90
374
90
373
90
4
90
366
90
367
90
375
90
374
90
4
90
367
90
368
90
376
90
375
90
4
90
368
90
369
90
377
90
376
90
3
90
369
90
9
90
377
90
3
90
0
90
370
90
378
90
4
90
370
90
371
90
379
90
378
90
4
90
371
90
372
90
380
90
379
90
4
90
372
90
373
90
381
90
380
90
4
90
373
90
374
90
382
90
381
90
4
90
374
90
375
90
383
90
382
90
4
90
375
90
376
90
384
90
383
90
4
90
376
90
377
90
385
90
384
90
3
90
377
90
9
90
385
90
3
90
0
90
378
90
386
90
4
90
378
90
379
90
387
90
386
90
4
90
379
90
380
90
388
90
387
90
4
90
380
90
381
90
389
90
388
90
4
90
381
90
382
90
390
90
389
90
4
90
382
90
383
90
391
90
390
90
4
90
383
90
384
90
392
90
391
90
4
90
384
90
385
90
393
90
392
90
3
90
385
90
9
90
393
90
3
90
0
90
386
90
394
90
4
90
386
90
387
90
395
90
394
90
4
90
387
90
388
90
396
90
395
90
4
90
388
90
389
90
397
90
396
90
4
90
389
90
390
90
398
90
397
90
4
90
390
90
391
90
399
90
398
90
4
90
391
90
392
90
400
90
399
90
4
90
392
90
393
90
401
90
400
90
3
90
393
90
9
90
401
90
3
90
0
90
394
90
402
90
4
90
394
90
395
90
403
90
402
90
4
90
395
90
396
90
404
90
403
90
4
90
396
90
397
90
405
90
404
90
4
90
397
90
398
90
406
90
405
90
4
90
398
90
399
90
407
90
406
90
4
90
399
90
400
90
408
90
407
90
4
90
400
90
401
90
409
90
408
90
3
90
401
90
9
90
409
90
3
90
0
90
402
90
410
90
4
90
402
90
403
90
411
90
410
90
4
90
403
90
404
90
412
90
411
90
4
90
404
90
405
90
413
90
412
90
4
90
405
90
406
90
414
90
413
90
4
90
406
90
407
90
415
90
414
90
4
90
407
90
408
90
416
90
415
90
4
90
408
90
409
90
417
90
416
90
3
90
409
90
9
90
417
90
3
90
0
90
410
90
418
90
4
90
410
90
411
90
419
90
418
90
4
90
411
90
412
90
420
90
419
90
4
90
412
90
413
90
421
90
420
90
4
90
413
90
414
90
422
90
421
90
4
90
414
90
415
90
423
90
422
90
4
90
415
90
416
90
424
90
423
90
4
90
416
90
417
90
425
90
424
90
3
90
417
90
9
90
425
90
3
90
0
90
418
90
426
90
4
90
418
90
419
90
427
90
426
90
4
90
419
90
420
90
428
90
427
90
4
90
420
90
421
90
429
90
428
90
4
90
421
90
422
90
430
90
429
90
4
90
422
90
423
90
431
90
430
90
4
90
423
90
424
90
432
90
431
90
4
90
424
90
425
90
433
90
432
90
3
90
425
90
9
90
433
90
3
90
0
90
426
90
434
90
4
90
426
90
427
90
435
90
434
90
4
90
427
90
428
90
436
90
435
90
4
90
428
90
429
90
437
90
436
90
4
90
429
90
430
90
438
90
437
90
4
90
430
90
431
90
439
90
438
90
4
90
431
90
432
90
440
90
439
90
4
90
432
90
433
90
441
90
440
90
3
90
433
90
9
90
441
90
3
90
0
90
434
90
442
90
4
90
434
90
435
90
443
90
442
90
4
90
435
90
436
90
444
90
443
90
4
90
436
90
437
90
445
90
444
90
4
90
437
90
438
90
446
90
445
90
4
90
438
90
439
90
447
90
446
90
4
90
439
90
440
90
448
90
447
90
4
90
440
90
441
90
449
90
448
90
3
90
441
90
9
90
449
90
3
90
0
90
442
90
1
90
4
90
442
90
443
90
2
90
1
90
4
90
443
90
444
90
3
90
2
90
4
90
444
90
445
90
4
90
3
90
4
90
445
90
446
90
5
90
4
90
4
90
446
90
447
90
6
90
5
90
4
90
447
90
448
90
7
90
6
90
4
90
448
90
449
90
8
90
7
90
3
90
449
90
9
90
8
94
0
95
0
90
0
1001
CONDUITCAD
1000
{"id":"3d-shaft-002","label":"Stepped shaft","feature3d":{"version":1,"kind":"revolve","parameters":{"segments":56},"inputs":["3d-shaft-001"],"suppressed":false},"model3dConsumed":false,"model3dUserHi
1000
dden":false}
0
ENDSEC
0
SECTION
2
OBJECTS
0
DICTIONARY
5
11F
330
0
100
AcDbDictionary
281
1
3
ACAD_LAYOUT
350
120
3
ACAD_GROUP
350
121
3
CONDUITCAD_METADATA
350
124
0
DICTIONARY
5
120
330
11F
100
AcDbDictionary
281
1
3
Model
350
122
3
Layout1
350
123
0
DICTIONARY
5
121
330
11F
100
AcDbDictionary
281
1
0
LAYOUT
5
122
330
120
100
AcDbPlotSettings
1

2

4

6

40
0
41
0
42
0
43
0
44
420
45
297
46
0
47
0
48
0
49
0
140
0
141
0
142
1
143
1
70
0
72
1
73
0
74
5
7

75
16
76
0
77
0
78
300
147
1
148
0
149
0
100
AcDbLayout
1
Model
70
1
71
0
10
0
20
0
11
420
21
297
12
0
22
0
32
0
14
0
24
0
34
0
15
420
25
297
35
0
146
0
13
0
23
0
33
0
16
1
26
0
36
0
17
0
27
1
37
0
76
0
330
113
0
LAYOUT
5
123
330
120
100
AcDbPlotSettings
1

2

4

6

40
0
41
0
42
0
43
0
44
420
45
297
46
0
47
0
48
0
49
0
140
0
141
0
142
1
143
1
70
0
72
1
73
0
74
5
7

75
16
76
0
77
0
78
300
147
1
148
0
149
0
100
AcDbLayout
1
Layout1
70
1
71
1
10
0
20
0
11
420
21
297
12
0
22
0
32
0
14
0
24
0
34
0
15
420
25
297
35
0
146
0
13
0
23
0
33
0
16
1
26
0
36
0
17
0
27
1
37
0
76
0
330
114
0
XRECORD
5
124
330
11F
100
AcDbXrecord
280
1
1
{"parameters":{"grid":"10"},"constraints":[],"metadata":{"description":"A closed radius/height sketch creates a turned profile. Change the revolve angle for inspection.","modeling":{"version":1,"prefe
1
rredMode":"3d","example":"shaft","notes":"Editable faceted concept model. Not certified or construction-approved."}}}
0
ENDSEC
0
EOF
