0
SECTION
2
HEADER
9
$ACADVER
1
AC1032
9
$INSUNITS
70
4
9
$LTSCALE
40
1
9
$MEASUREMENT
70
1
999
CONDUIT:{"parameters":{"grid":"10"},"constraints":[],"metadata":{"description":"Two editable native profiles drive a resampled faceted loft. Inspect source profiles in 2D.","modeling":{"ve
999
CONDUIT:rsion":1,"preferredMode":"3d","example":"transition","notes":"Editable faceted concept model. Not certified or construction-approved."}}}
9
$HANDSEED
5
126
9
$DWGCODEPAGE
3
ANSI_1252
9
$CLAYER
8
0
9
$TILEMODE
70
1
0
ENDSEC
0
SECTION
2
TABLES
0
TABLE
2
LTYPE
5
103
330
0
100
AcDbSymbolTable
70
4
0
LTYPE
5
104
100
AcDbSymbolTableRecord
100
AcDbLinetypeTableRecord
2
CONTINUOUS
70
0
3
Solid line
72
65
73
0
40
0
330
103
0
LTYPE
5
105
100
AcDbSymbolTableRecord
100
AcDbLinetypeTableRecord
2
DASHED
70
0
3
DASHED
72
65
73
2
40
12
49
8
74
0
49
-4
74
0
330
103
0
LTYPE
5
106
100
AcDbSymbolTableRecord
100
AcDbLinetypeTableRecord
2
CENTER
70
0
3
CENTER
72
65
73
4
40
20
49
12
74
0
49
-3
74
0
49
2
74
0
49
-3
74
0
330
103
0
LTYPE
5
107
100
AcDbSymbolTableRecord
100
AcDbLinetypeTableRecord
2
HIDDEN
70
0
3
HIDDEN
72
65
73
2
40
7
49
4
74
0
49
-3
74
0
330
103
0
ENDTAB
0
TABLE
2
LAYER
5
108
330
0
100
AcDbSymbolTable
70
6
0
LAYER
5
109
100
AcDbSymbolTableRecord
100
AcDbLayerTableRecord
2
0
70
0
62
7
420
3426133
6
CONTINUOUS
330
108
0
LAYER
5
10A
100
AcDbSymbolTableRecord
100
AcDbLayerTableRecord
2
Equipment
70
0
62
7
420
3495011
6
CONTINUOUS
330
108
0
LAYER
5
10B
100
AcDbSymbolTableRecord
100
AcDbLayerTableRecord
2
Process
70
0
62
7
420
1342583
6
CONTINUOUS
330
108
0
LAYER
5
10C
100
AcDbSymbolTableRecord
100
AcDbLayerTableRecord
2
Instruments
70
0
62
7
420
10187334
6
CONTINUOUS
330
108
0
LAYER
5
10D
100
AcDbSymbolTableRecord
100
AcDbLayerTableRecord
2
Electrical
70
0
62
7
420
6584250
6
CONTINUOUS
330
108
0
LAYER
5
10E
100
AcDbSymbolTableRecord
100
AcDbLayerTableRecord
2
Annotations
70
0
62
7
420
7438474
6
CONTINUOUS
330
108
0
ENDTAB
0
TABLE
2
STYLE
5
10F
330
0
100
AcDbSymbolTable
70
1
0
STYLE
5
110
100
AcDbSymbolTableRecord
100
AcDbTextStyleTableRecord
2
STANDARD
70
0
40
0
41
1
50
0
71
0
42
2.5
3
txt
4

330
10F
0
ENDTAB
0
TABLE
2
APPID
5
111
330
0
100
AcDbSymbolTable
70
2
0
APPID
5
112
100
AcDbSymbolTableRecord
100
AcDbRegAppTableRecord
2
CONDUITCAD
70
0
330
111
0
APPID
5
11F
100
AcDbSymbolTableRecord
100
AcDbRegAppTableRecord
2
ACAD
70
0
330
111
0
ENDTAB
0
TABLE
2
BLOCK_RECORD
5
113
330
0
100
AcDbSymbolTable
70
2
0
BLOCK_RECORD
5
114
100
AcDbSymbolTableRecord
100
AcDbBlockTableRecord
2
*Model_Space
340
123
330
113
0
BLOCK_RECORD
5
115
100
AcDbSymbolTableRecord
100
AcDbBlockTableRecord
2
*Paper_Space
340
124
330
113
0
ENDTAB
0
TABLE
2
VPORT
5
11A
330
0
100
AcDbSymbolTable
70
0
0
ENDTAB
0
TABLE
2
VIEW
5
11B
330
0
100
AcDbSymbolTable
70
0
0
ENDTAB
0
TABLE
2
UCS
5
11C
330
0
100
AcDbSymbolTable
70
0
0
ENDTAB
0
TABLE
2
DIMSTYLE
5
11D
330
0
100
AcDbSymbolTable
70
1
100
AcDbDimStyleTable
71
0
0
DIMSTYLE
105
11E
330
11D
100
AcDbSymbolTableRecord
100
AcDbDimStyleTableRecord
2
STANDARD
70
0
340
110
0
ENDTAB
0
ENDSEC
0
SECTION
2
BLOCKS
0
BLOCK
5
116
330
114
100
AcDbEntity
8
0
100
AcDbBlockBegin
2
*Model_Space
70
1
10
0
20
0
30
0
3
*Model_Space
1

1001
CONDUITCAD
1000
{"ports":[]}
0
ENDBLK
5
117
330
114
100
AcDbEntity
8
0
100
AcDbBlockEnd
0
BLOCK
5
118
330
115
100
AcDbEntity
8
0
100
AcDbBlockBegin
2
*Paper_Space
70
1
10
0
20
0
30
0
3
*Paper_Space
1

1001
CONDUITCAD
1000
{"ports":[]}
0
ENDBLK
5
119
330
115
100
AcDbEntity
8
0
100
AcDbBlockEnd
0
ENDSEC
0
SECTION
2
ENTITIES
0
LWPOLYLINE
5
100
330
114
100
AcDbEntity
8
Annotations
60
1
100
AcDbPolyline
90
4
70
1
10
-65
20
-45
10
65
20
-45
10
65
20
45
10
-65
20
45
1001
CONDUITCAD
1000
{"id":"3d-transition-001","label":"Rectangular inlet","model3dConsumed":true,"model3dUserHidden":false}
0
CIRCLE
5
101
330
114
100
AcDbEntity
8
Annotations
60
1
100
AcDbCircle
10
25
20
15
30
115
40
35
1001
CONDUITCAD
1000
{"id":"3d-transition-002","label":"Round outlet","model3dConsumed":true,"model3dUserHidden":false}
0
MESH
5
102
330
114
100
AcDbEntity
8
Equipment
62
7
420
7510685
100
AcDbSubDMesh
71
2
72
0
91
0
92
96
10
-65
20
-45
30
0
10
-55.833333333333336
20
-45
30
0
10
-46.66666666666667
20
-45
30
0
10
-37.5
20
-45
30
0
10
-28.333333333333336
20
-45
30
0
10
-19.166666666666664
20
-45
30
0
10
-10
20
-45
30
0
10
-0.8333333333333286
20
-45
30
0
10
8.333333333333329
20
-45
30
0
10
17.5
20
-45
30
0
10
26.66666666666667
20
-45
30
0
10
35.833333333333314
20
-45
30
0
10
45
20
-45
30
0
10
54.16666666666667
20
-45
30
0
10
63.33333333333334
20
-45
30
0
10
65
20
-37.5
30
0
10
65
20
-28.333333333333343
30
0
10
65
20
-19.166666666666657
30
0
10
65
20
-10
30
0
10
65
20
-0.8333333333333428
30
0
10
65
20
8.333333333333343
30
0
10
65
20
17.5
30
0
10
65
20
26.666666666666657
30
0
10
65
20
35.83333333333334
30
0
10
65
20
45
30
0
10
55.83333333333334
20
45
30
0
10
46.66666666666666
20
45
30
0
10
37.5
20
45
30
0
10
28.333333333333314
20
45
30
0
10
19.166666666666686
20
45
30
0
10
10
20
45
30
0
10
0.8333333333333144
20
45
30
0
10
-8.333333333333314
20
45
30
0
10
-17.5
20
45
30
0
10
-26.666666666666686
20
45
30
0
10
-35.833333333333314
20
45
30
0
10
-45
20
45
30
0
10
-54.166666666666686
20
45
30
0
10
-63.333333333333314
20
45
30
0
10
-65
20
37.5
30
0
10
-65
20
28.333333333333314
30
0
10
-65
20
19.166666666666686
30
0
10
-65
20
10
30
0
10
-65
20
0.8333333333333144
30
0
10
-65
20
-8.333333333333307
30
0
10
-65
20
-17.5
30
0
10
-65
20
-26.666666666666686
30
0
10
-65
20
-35.833333333333314
30
0
10
60
20
15
30
115
10
59.700570148083365
20
19.568416727701802
30
115
10
58.80740392011739
20
24.058666578588216
30
115
10
57.33578363789504
20
28.393920132778128
30
115
10
55.310889132455365
20
32.499999999999986
30
115
10
52.767366910193246
20
36.30665001530521
30
115
10
49.748737341529186
20
39.74873734152914
30
115
10
46.30665001530525
20
42.76736691019321
30
115
10
42.50000000000003
20
45.31088913245533
30
115
10
38.39392013277818
20
47.33578363789502
30
115
10
34.058666578588266
20
48.80740392011738
30
115
10
29.568416727701855
20
49.70057014808336
30
115
10
25.000000000000057
20
50
30
115
10
20.431583272298248
20
49.70057014808337
30
115
10
15.941333421411834
20
48.8074039201174
30
115
10
11.60607986722192
20
47.33578363789506
30
115
10
7.500000000000062
20
45.31088913245539
30
115
10
3.6933499846948474
20
42.76736691019328
30
115
10
0.25126265847089657
20
39.74873734152922
30
115
10
-2.767366910193171
20
36.3066500153053
30
115
10
-5.310889132455305
20
32.50000000000008
30
115
10
-7.33578363789499
20
28.39392013277824
30
115
10
-8.80740392011736
20
24.058666578588323
30
115
10
-9.70057014808335
20
19.56841672770191
30
115
10
-9.999999999999996
20
15.000000000000112
30
115
10
-9.700570148083376
20
10.431583272298294
30
115
10
-8.807403920117412
20
5.941333421411878
30
115
10
-7.335783637895078
20
1.6060798672219607
30
115
10
-5.310889132455401
20
-2.4999999999999103
30
115
10
-2.7673669101933007
20
-6.306650015305127
30
115
10
0.25126265847076024
20
-9.748737341529084
30
115
10
3.6933499846946884
20
-12.767366910193157
30
115
10
7.499999999999906
20
-15.310889132455298
30
115
10
11.606079867221755
20
-17.33578363789499
30
115
10
15.941333421411663
20
-18.807403920117352
30
115
10
20.431583272298102
20
-19.70057014808335
30
115
10
24.99999999999993
20
-19.999999999999996
30
115
10
29.56841672770173
20
-19.700570148083372
30
115
10
34.05866657858818
20
-18.8074039201174
30
115
10
38.393920132778085
20
-17.335783637895055
30
115
10
42.49999999999997
20
-15.310889132455365
30
115
10
46.306650015305166
20
-12.767366910193267
30
115
10
49.748737341529136
20
-9.74873734152919
30
115
10
52.76736691019322
20
-6.306650015305237
30
115
10
55.31088913245534
20
-2.500000000000023
30
115
10
57.33578363789504
20
1.6060798672218595
30
115
10
58.80740392011739
20
5.941333421411772
30
115
10
59.700570148083365
20
10.43158327229822
30
115
93
752
90
3
90
0
90
1
90
49
90
3
90
0
90
49
90
48
90
3
90
1
90
2
90
50
90
3
90
1
90
50
90
49
90
3
90
2
90
3
90
51
90
3
90
2
90
51
90
50
90
3
90
3
90
4
90
52
90
3
90
3
90
52
90
51
90
3
90
4
90
5
90
53
90
3
90
4
90
53
90
52
90
3
90
5
90
6
90
54
90
3
90
5
90
54
90
53
90
3
90
6
90
7
90
55
90
3
90
6
90
55
90
54
90
3
90
7
90
8
90
56
90
3
90
7
90
56
90
55
90
3
90
8
90
9
90
57
90
3
90
8
90
57
90
56
90
3
90
9
90
10
90
58
90
3
90
9
90
58
90
57
90
3
90
10
90
11
90
59
90
3
90
10
90
59
90
58
90
3
90
11
90
12
90
60
90
3
90
11
90
60
90
59
90
3
90
12
90
13
90
61
90
3
90
12
90
61
90
60
90
3
90
13
90
14
90
62
90
3
90
13
90
62
90
61
90
3
90
14
90
15
90
63
90
3
90
14
90
63
90
62
90
3
90
15
90
16
90
64
90
3
90
15
90
64
90
63
90
3
90
16
90
17
90
65
90
3
90
16
90
65
90
64
90
3
90
17
90
18
90
66
90
3
90
17
90
66
90
65
90
3
90
18
90
19
90
67
90
3
90
18
90
67
90
66
90
3
90
19
90
20
90
68
90
3
90
19
90
68
90
67
90
3
90
20
90
21
90
69
90
3
90
20
90
69
90
68
90
3
90
21
90
22
90
70
90
3
90
21
90
70
90
69
90
3
90
22
90
23
90
71
90
3
90
22
90
71
90
70
90
3
90
23
90
24
90
72
90
3
90
23
90
72
90
71
90
3
90
24
90
25
90
73
90
3
90
24
90
73
90
72
90
3
90
25
90
26
90
74
90
3
90
25
90
74
90
73
90
3
90
26
90
27
90
75
90
3
90
26
90
75
90
74
90
3
90
27
90
28
90
76
90
3
90
27
90
76
90
75
90
3
90
28
90
29
90
77
90
3
90
28
90
77
90
76
90
3
90
29
90
30
90
78
90
3
90
29
90
78
90
77
90
3
90
30
90
31
90
79
90
3
90
30
90
79
90
78
90
3
90
31
90
32
90
80
90
3
90
31
90
80
90
79
90
3
90
32
90
33
90
81
90
3
90
32
90
81
90
80
90
3
90
33
90
34
90
82
90
3
90
33
90
82
90
81
90
3
90
34
90
35
90
83
90
3
90
34
90
83
90
82
90
3
90
35
90
36
90
84
90
3
90
35
90
84
90
83
90
3
90
36
90
37
90
85
90
3
90
36
90
85
90
84
90
3
90
37
90
38
90
86
90
3
90
37
90
86
90
85
90
3
90
38
90
39
90
87
90
3
90
38
90
87
90
86
90
3
90
39
90
40
90
88
90
3
90
39
90
88
90
87
90
3
90
40
90
41
90
89
90
3
90
40
90
89
90
88
90
3
90
41
90
42
90
90
90
3
90
41
90
90
90
89
90
3
90
42
90
43
90
91
90
3
90
42
90
91
90
90
90
3
90
43
90
44
90
92
90
3
90
43
90
92
90
91
90
3
90
44
90
45
90
93
90
3
90
44
90
93
90
92
90
3
90
45
90
46
90
94
90
3
90
45
90
94
90
93
90
3
90
46
90
47
90
95
90
3
90
46
90
95
90
94
90
3
90
47
90
0
90
48
90
3
90
47
90
48
90
95
90
3
90
40
90
39
90
38
90
3
90
41
90
40
90
38
90
3
90
42
90
41
90
38
90
3
90
43
90
42
90
38
90
3
90
44
90
43
90
38
90
3
90
45
90
44
90
38
90
3
90
46
90
45
90
38
90
3
90
47
90
46
90
38
90
3
90
0
90
47
90
38
90
3
90
0
90
38
90
37
90
3
90
0
90
37
90
36
90
3
90
0
90
36
90
35
90
3
90
0
90
35
90
34
90
3
90
0
90
34
90
33
90
3
90
0
90
33
90
32
90
3
90
0
90
32
90
31
90
3
90
0
90
31
90
30
90
3
90
0
90
30
90
29
90
3
90
0
90
29
90
28
90
3
90
0
90
28
90
27
90
3
90
0
90
27
90
26
90
3
90
0
90
26
90
25
90
3
90
0
90
25
90
24
90
3
90
0
90
24
90
23
90
3
90
0
90
23
90
22
90
3
90
0
90
22
90
21
90
3
90
0
90
21
90
20
90
3
90
0
90
20
90
19
90
3
90
0
90
19
90
18
90
3
90
0
90
18
90
17
90
3
90
0
90
17
90
16
90
3
90
0
90
16
90
15
90
3
90
15
90
14
90
13
90
3
90
15
90
13
90
12
90
3
90
15
90
12
90
11
90
3
90
15
90
11
90
10
90
3
90
15
90
10
90
9
90
3
90
15
90
9
90
8
90
3
90
15
90
8
90
7
90
3
90
15
90
7
90
6
90
3
90
15
90
6
90
5
90
3
90
15
90
5
90
4
90
3
90
15
90
4
90
3
90
3
90
15
90
3
90
2
90
3
90
15
90
2
90
1
90
3
90
15
90
1
90
0
90
3
90
95
90
48
90
49
90
3
90
95
90
49
90
50
90
3
90
95
90
50
90
51
90
3
90
95
90
51
90
52
90
3
90
95
90
52
90
53
90
3
90
95
90
53
90
54
90
3
90
95
90
54
90
55
90
3
90
95
90
55
90
56
90
3
90
95
90
56
90
57
90
3
90
95
90
57
90
58
90
3
90
95
90
58
90
59
90
3
90
95
90
59
90
60
90
3
90
95
90
60
90
61
90
3
90
95
90
61
90
62
90
3
90
95
90
62
90
63
90
3
90
95
90
63
90
64
90
3
90
95
90
64
90
65
90
3
90
95
90
65
90
66
90
3
90
95
90
66
90
67
90
3
90
95
90
67
90
68
90
3
90
95
90
68
90
69
90
3
90
95
90
69
90
70
90
3
90
95
90
70
90
71
90
3
90
95
90
71
90
72
90
3
90
95
90
72
90
73
90
3
90
95
90
73
90
74
90
3
90
95
90
74
90
75
90
3
90
95
90
75
90
76
90
3
90
95
90
76
90
77
90
3
90
95
90
77
90
78
90
3
90
95
90
78
90
79
90
3
90
95
90
79
90
80
90
3
90
95
90
80
90
81
90
3
90
95
90
81
90
82
90
3
90
95
90
82
90
83
90
3
90
95
90
83
90
84
90
3
90
95
90
84
90
85
90
3
90
95
90
85
90
86
90
3
90
95
90
86
90
87
90
3
90
95
90
87
90
88
90
3
90
95
90
88
90
89
90
3
90
95
90
89
90
90
90
3
90
95
90
90
90
91
90
3
90
95
90
91
90
92
90
3
90
95
90
92
90
93
90
3
90
93
90
94
90
95
94
0
95
0
90
0
1001
CONDUITCAD
1000
{"id":"3d-transition-003","label":"Transition duct","feature3d":{"version":1,"kind":"loft","parameters":{"samples":48},"inputs":["3d-transition-001","3d-transition-002"],"suppressed":false},"model3dCo
1000
nsumed":false,"model3dUserHidden":false}
0
ENDSEC
0
SECTION
2
OBJECTS
0
DICTIONARY
5
120
330
0
100
AcDbDictionary
281
1
3
ACAD_LAYOUT
350
121
3
ACAD_GROUP
350
122
3
CONDUITCAD_METADATA
350
125
0
DICTIONARY
5
121
330
120
100
AcDbDictionary
281
1
3
Model
350
123
3
Layout1
350
124
0
DICTIONARY
5
122
330
120
100
AcDbDictionary
281
1
0
LAYOUT
5
123
330
121
100
AcDbPlotSettings
1

2

4

6

40
0
41
0
42
0
43
0
44
420
45
297
46
0
47
0
48
0
49
0
140
0
141
0
142
1
143
1
70
0
72
1
73
0
74
5
7

75
16
76
0
77
0
78
300
147
1
148
0
149
0
100
AcDbLayout
1
Model
70
1
71
0
10
0
20
0
11
420
21
297
12
0
22
0
32
0
14
0
24
0
34
0
15
420
25
297
35
0
146
0
13
0
23
0
33
0
16
1
26
0
36
0
17
0
27
1
37
0
76
0
330
114
0
LAYOUT
5
124
330
121
100
AcDbPlotSettings
1

2

4

6

40
0
41
0
42
0
43
0
44
420
45
297
46
0
47
0
48
0
49
0
140
0
141
0
142
1
143
1
70
0
72
1
73
0
74
5
7

75
16
76
0
77
0
78
300
147
1
148
0
149
0
100
AcDbLayout
1
Layout1
70
1
71
1
10
0
20
0
11
420
21
297
12
0
22
0
32
0
14
0
24
0
34
0
15
420
25
297
35
0
146
0
13
0
23
0
33
0
16
1
26
0
36
0
17
0
27
1
37
0
76
0
330
115
0
XRECORD
5
125
330
120
100
AcDbXrecord
280
1
1
{"parameters":{"grid":"10"},"constraints":[],"metadata":{"description":"Two editable native profiles drive a resampled faceted loft. Inspect source profiles in 2D.","modeling":{"version":1,"preferredM
1
ode":"3d","example":"transition","notes":"Editable faceted concept model. Not certified or construction-approved."}}}
0
ENDSEC
0
EOF
