0
SECTION
2
HEADER
9
$ACADVER
1
AC1032
9
$INSUNITS
70
4
9
$LTSCALE
40
1
9
$MEASUREMENT
70
1
999
CONDUIT:{"parameters":{"grid":"10","NozzleHeight":"100"},"constraints":[],"metadata":{"description":"Revolved vessel, support legs and nozzle bodies. A concept model, not a pressure-vessel
999
CONDUIT: design.","modeling":{"version":1,"preferredMode":"3d","example":"vessel","notes":"Editable faceted concept model. Not certified or construction-approved."}}}
9
$HANDSEED
5
12A
9
$DWGCODEPAGE
3
ANSI_1252
9
$CLAYER
8
0
9
$TILEMODE
70
1
0
ENDSEC
0
SECTION
2
TABLES
0
TABLE
2
LTYPE
5
107
330
0
100
AcDbSymbolTable
70
4
0
LTYPE
5
108
100
AcDbSymbolTableRecord
100
AcDbLinetypeTableRecord
2
CONTINUOUS
70
0
3
Solid line
72
65
73
0
40
0
330
107
0
LTYPE
5
109
100
AcDbSymbolTableRecord
100
AcDbLinetypeTableRecord
2
DASHED
70
0
3
DASHED
72
65
73
2
40
12
49
8
74
0
49
-4
74
0
330
107
0
LTYPE
5
10A
100
AcDbSymbolTableRecord
100
AcDbLinetypeTableRecord
2
CENTER
70
0
3
CENTER
72
65
73
4
40
20
49
12
74
0
49
-3
74
0
49
2
74
0
49
-3
74
0
330
107
0
LTYPE
5
10B
100
AcDbSymbolTableRecord
100
AcDbLinetypeTableRecord
2
HIDDEN
70
0
3
HIDDEN
72
65
73
2
40
7
49
4
74
0
49
-3
74
0
330
107
0
ENDTAB
0
TABLE
2
LAYER
5
10C
330
0
100
AcDbSymbolTable
70
6
0
LAYER
5
10D
100
AcDbSymbolTableRecord
100
AcDbLayerTableRecord
2
0
70
0
62
7
420
3426133
6
CONTINUOUS
330
10C
0
LAYER
5
10E
100
AcDbSymbolTableRecord
100
AcDbLayerTableRecord
2
Equipment
70
0
62
7
420
3495011
6
CONTINUOUS
330
10C
0
LAYER
5
10F
100
AcDbSymbolTableRecord
100
AcDbLayerTableRecord
2
Process
70
0
62
7
420
1342583
6
CONTINUOUS
330
10C
0
LAYER
5
110
100
AcDbSymbolTableRecord
100
AcDbLayerTableRecord
2
Instruments
70
0
62
7
420
10187334
6
CONTINUOUS
330
10C
0
LAYER
5
111
100
AcDbSymbolTableRecord
100
AcDbLayerTableRecord
2
Electrical
70
0
62
7
420
6584250
6
CONTINUOUS
330
10C
0
LAYER
5
112
100
AcDbSymbolTableRecord
100
AcDbLayerTableRecord
2
Annotations
70
0
62
7
420
7438474
6
CONTINUOUS
330
10C
0
ENDTAB
0
TABLE
2
STYLE
5
113
330
0
100
AcDbSymbolTable
70
1
0
STYLE
5
114
100
AcDbSymbolTableRecord
100
AcDbTextStyleTableRecord
2
STANDARD
70
0
40
0
41
1
50
0
71
0
42
2.5
3
txt
4

330
113
0
ENDTAB
0
TABLE
2
APPID
5
115
330
0
100
AcDbSymbolTable
70
2
0
APPID
5
116
100
AcDbSymbolTableRecord
100
AcDbRegAppTableRecord
2
CONDUITCAD
70
0
330
115
0
APPID
5
123
100
AcDbSymbolTableRecord
100
AcDbRegAppTableRecord
2
ACAD
70
0
330
115
0
ENDTAB
0
TABLE
2
BLOCK_RECORD
5
117
330
0
100
AcDbSymbolTable
70
2
0
BLOCK_RECORD
5
118
100
AcDbSymbolTableRecord
100
AcDbBlockTableRecord
2
*Model_Space
340
127
330
117
0
BLOCK_RECORD
5
119
100
AcDbSymbolTableRecord
100
AcDbBlockTableRecord
2
*Paper_Space
340
128
330
117
0
ENDTAB
0
TABLE
2
VPORT
5
11E
330
0
100
AcDbSymbolTable
70
0
0
ENDTAB
0
TABLE
2
VIEW
5
11F
330
0
100
AcDbSymbolTable
70
0
0
ENDTAB
0
TABLE
2
UCS
5
120
330
0
100
AcDbSymbolTable
70
0
0
ENDTAB
0
TABLE
2
DIMSTYLE
5
121
330
0
100
AcDbSymbolTable
70
1
100
AcDbDimStyleTable
71
0
0
DIMSTYLE
105
122
330
121
100
AcDbSymbolTableRecord
100
AcDbDimStyleTableRecord
2
STANDARD
70
0
340
114
0
ENDTAB
0
ENDSEC
0
SECTION
2
BLOCKS
0
BLOCK
5
11A
330
118
100
AcDbEntity
8
0
100
AcDbBlockBegin
2
*Model_Space
70
1
10
0
20
0
30
0
3
*Model_Space
1

1001
CONDUITCAD
1000
{"ports":[]}
0
ENDBLK
5
11B
330
118
100
AcDbEntity
8
0
100
AcDbBlockEnd
0
BLOCK
5
11C
330
119
100
AcDbEntity
8
0
100
AcDbBlockBegin
2
*Paper_Space
70
1
10
0
20
0
30
0
3
*Paper_Space
1

1001
CONDUITCAD
1000
{"ports":[]}
0
ENDBLK
5
11D
330
119
100
AcDbEntity
8
0
100
AcDbBlockEnd
0
ENDSEC
0
SECTION
2
ENTITIES
0
LWPOLYLINE
5
100
330
118
100
AcDbEntity
8
Annotations
60
1
100
AcDbPolyline
90
8
70
1
10
0
20
25
10
23
20
25
10
42
20
45
10
42
20
155
10
22
20
178
10
12
20
178
10
12
20
195
10
0
20
195
1001
CONDUITCAD
1000
{"id":"3d-vessel-001","label":"Vessel silhouette","model3dConsumed":true,"model3dUserHidden":false}
0
MESH
5
101
330
118
100
AcDbEntity
8
Equipment
62
7
420
9086381
100
AcDbSubDMesh
71
2
72
0
91
0
92
290
10
0
20
0
30
195
10
12
20
0
30
195
10
12
20
0
30
178
10
22
20
0
30
178
10
42
20
0
30
155
10
42
20
0
30
45
10
23
20
0
30
25
10
0
20
0
30
25
10
11.897338336485724
20
1.5663143066406189
30
195
10
11.897338336485724
20
1.5663143066406189
30
178
10
21.81178695022383
20
2.8715762288411346
30
178
10
41.64068417770004
20
5.482100073242166
30
155
10
41.64068417770004
20
5.482100073242166
30
45
10
22.803231811597637
20
3.002102421061186
30
25
10
11.59110991546882
20
3.105828541230249
30
195
10
11.59110991546882
20
3.105828541230249
30
178
10
21.2503681783595
20
5.694018992255456
30
178
10
40.56888470414087
20
10.870399894305871
30
155
10
40.56888470414087
20
10.870399894305871
30
45
10
22.21629400464857
20
5.952838037357977
30
25
10
11.08655439013544
20
4.592201188381077
30
195
10
11.08655439013544
20
4.592201188381077
30
178
10
20.325349715248308
20
8.419035512031975
30
178
10
38.80294036547404
20
16.07270415933377
30
155
10
38.80294036547404
20
16.07270415933377
30
45
10
21.249229247759594
20
8.801718944397065
30
25
10
10.392304845413264
20
5.999999999999999
30
195
10
10.392304845413264
20
5.999999999999999
30
178
10
19.052558883257653
20
10.999999999999998
30
178
10
36.373066958946424
20
20.999999999999996
30
155
10
36.373066958946424
20
20.999999999999996
30
45
10
19.91858428704209
20
11.499999999999998
30
25
10
9.520240083494823
20
7.305137148104648
30
195
10
9.520240083494823
20
7.305137148104648
30
178
10
17.453773486407172
20
13.392751438191855
30
178
10
33.32084029223188
20
25.567980018366267
30
155
10
33.32084029223188
20
25.567980018366267
30
45
10
18.24712682669841
20
14.001512867200574
30
25
10
8.485281374238571
20
8.48528137423857
30
195
10
8.485281374238571
20
8.48528137423857
30
178
10
15.556349186104047
20
15.556349186104043
30
178
10
29.698484809834998
20
29.698484809834994
30
155
10
29.698484809834998
20
29.698484809834994
30
45
10
16.263455967290593
20
16.263455967290593
30
25
10
7.305137148104648
20
9.520240083494823
30
195
10
7.305137148104648
20
9.520240083494823
30
178
10
13.392751438191855
20
17.453773486407172
30
178
10
25.567980018366267
20
33.32084029223188
30
155
10
25.567980018366267
20
33.32084029223188
30
45
10
14.001512867200574
20
18.24712682669841
30
25
10
6.000000000000002
20
10.392304845413264
30
195
10
6.000000000000002
20
10.392304845413264
30
178
10
11.000000000000002
20
19.05255888325765
30
178
10
21.000000000000004
20
36.373066958946424
30
155
10
21.000000000000004
20
36.373066958946424
30
45
10
11.500000000000002
20
19.918584287042087
30
25
10
4.592201188381078
20
11.08655439013544
30
195
10
4.592201188381078
20
11.08655439013544
30
178
10
8.419035512031977
20
20.325349715248308
30
178
10
16.072704159333774
20
38.80294036547404
30
155
10
16.072704159333774
20
38.80294036547404
30
45
10
8.801718944397066
20
21.249229247759594
30
25
10
3.105828541230249
20
11.59110991546882
30
195
10
3.105828541230249
20
11.59110991546882
30
178
10
5.694018992255456
20
21.2503681783595
30
178
10
10.870399894305871
20
40.56888470414087
30
155
10
10.870399894305871
20
40.56888470414087
30
45
10
5.952838037357977
20
22.21629400464857
30
25
10
1.5663143066406207
20
11.897338336485724
30
195
10
1.5663143066406207
20
11.897338336485724
30
178
10
2.8715762288411377
20
21.81178695022383
30
178
10
5.482100073242172
20
41.64068417770004
30
155
10
5.482100073242172
20
41.64068417770004
30
45
10
3.0021024210611893
20
22.803231811597637
30
25
10
7.347880794884119e-16
20
12
30
195
10
7.347880794884119e-16
20
12
30
178
10
1.3471114790620886e-15
20
22
30
178
10
2.5717582782094417e-15
20
42
30
155
10
2.5717582782094417e-15
20
42
30
45
10
1.4083438190194562e-15
20
23
30
25
10
-1.5663143066406193
20
11.897338336485724
30
195
10
-1.5663143066406193
20
11.897338336485724
30
178
10
-2.871576228841135
20
21.81178695022383
30
178
10
-5.482100073242167
20
41.64068417770004
30
155
10
-5.482100073242167
20
41.64068417770004
30
45
10
-3.0021024210611866
20
22.803231811597637
30
25
10
-3.1058285412302475
20
11.59110991546882
30
195
10
-3.1058285412302475
20
11.59110991546882
30
178
10
-5.694018992255454
20
21.2503681783595
30
178
10
-10.870399894305866
20
40.56888470414087
30
155
10
-10.870399894305866
20
40.56888470414087
30
45
10
-5.952838037357974
20
22.21629400464857
30
25
10
-4.592201188381074
20
11.086554390135442
30
195
10
-4.592201188381074
20
11.086554390135442
30
178
10
-8.41903551203197
20
20.32534971524831
30
178
10
-16.07270415933376
20
38.80294036547405
30
155
10
-16.07270415933376
20
38.80294036547405
30
45
10
-8.80171894439706
20
21.249229247759597
30
25
10
-5.999999999999997
20
10.392304845413264
30
195
10
-5.999999999999997
20
10.392304845413264
30
178
10
-10.999999999999995
20
19.052558883257653
30
178
10
-20.99999999999999
20
36.373066958946424
30
155
10
-20.99999999999999
20
36.373066958946424
30
45
10
-11.499999999999995
20
19.91858428704209
30
25
10
-7.305137148104648
20
9.520240083494823
30
195
10
-7.305137148104648
20
9.520240083494823
30
178
10
-13.392751438191855
20
17.453773486407172
30
178
10
-25.567980018366267
20
33.32084029223188
30
155
10
-25.567980018366267
20
33.32084029223188
30
45
10
-14.001512867200574
20
18.24712682669841
30
25
10
-8.48528137423857
20
8.485281374238571
30
195
10
-8.48528137423857
20
8.485281374238571
30
178
10
-15.556349186104043
20
15.556349186104047
30
178
10
-29.698484809834994
20
29.698484809834998
30
155
10
-29.698484809834994
20
29.698484809834998
30
45
10
-16.263455967290593
20
16.263455967290593
30
25
10
-9.520240083494821
20
7.3051371481046505
30
195
10
-9.520240083494821
20
7.3051371481046505
30
178
10
-17.453773486407172
20
13.392751438191858
30
178
10
-33.32084029223187
20
25.567980018366278
30
155
10
-33.32084029223187
20
25.567980018366278
30
45
10
-18.247126826698405
20
14.00151286720058
30
25
10
-10.392304845413264
20
5.999999999999999
30
195
10
-10.392304845413264
20
5.999999999999999
30
178
10
-19.052558883257653
20
10.999999999999998
30
178
10
-36.373066958946424
20
20.999999999999996
30
155
10
-36.373066958946424
20
20.999999999999996
30
45
10
-19.91858428704209
20
11.499999999999998
30
25
10
-11.08655439013544
20
4.592201188381079
30
195
10
-11.08655439013544
20
4.592201188381079
30
178
10
-20.325349715248308
20
8.419035512031977
30
178
10
-38.80294036547404
20
16.072704159333774
30
155
10
-38.80294036547404
20
16.072704159333774
30
45
10
-21.249229247759594
20
8.801718944397068
30
25
10
-11.591109915468818
20
3.1058285412302524
30
195
10
-11.591109915468818
20
3.1058285412302524
30
178
10
-21.2503681783595
20
5.6940189922554625
30
178
10
-40.568884704140864
20
10.870399894305883
30
155
10
-40.568884704140864
20
10.870399894305883
30
45
10
-22.216294004648567
20
5.952838037357983
30
25
10
-11.897338336485724
20
1.5663143066406238
30
195
10
-11.897338336485724
20
1.5663143066406238
30
178
10
-21.81178695022383
20
2.871576228841144
30
178
10
-41.64068417770004
20
5.482100073242184
30
155
10
-41.64068417770004
20
5.482100073242184
30
45
10
-22.803231811597637
20
3.002102421061196
30
25
10
-12
20
1.4695761589768238e-15
30
195
10
-12
20
1.4695761589768238e-15
30
178
10
-22
20
2.6942229581241772e-15
30
178
10
-42
20
5.143516556418883e-15
30
155
10
-42
20
5.143516556418883e-15
30
45
10
-23
20
2.8166876380389124e-15
30
25
10
-11.897338336485724
20
-1.566314306640621
30
195
10
-11.897338336485724
20
-1.566314306640621
30
178
10
-21.81178695022383
20
-2.871576228841139
30
178
10
-41.64068417770004
20
-5.482100073242174
30
155
10
-41.64068417770004
20
-5.482100073242174
30
45
10
-22.803231811597637
20
-3.0021024210611906
30
25
10
-11.59110991546882
20
-3.1058285412302498
30
195
10
-11.59110991546882
20
-3.1058285412302498
30
178
10
-21.2503681783595
20
-5.694018992255457
30
178
10
-40.56888470414087
20
-10.870399894305873
30
155
10
-40.56888470414087
20
-10.870399894305873
30
45
10
-22.21629400464857
20
-5.952838037357978
30
25
10
-11.086554390135442
20
-4.592201188381076
30
195
10
-11.086554390135442
20
-4.592201188381076
30
178
10
-20.32534971524831
20
-8.419035512031973
30
178
10
-38.80294036547405
20
-16.072704159333767
30
155
10
-38.80294036547405
20
-16.072704159333767
30
45
10
-21.249229247759597
20
-8.801718944397063
30
25
10
-10.392304845413266
20
-5.9999999999999964
30
195
10
-10.392304845413266
20
-5.9999999999999964
30
178
10
-19.052558883257653
20
-10.999999999999995
30
178
10
-36.37306695894643
20
-20.99999999999999
30
155
10
-36.37306695894643
20
-20.99999999999999
30
45
10
-19.918584287042094
20
-11.499999999999993
30
25
10
-9.520240083494823
20
-7.305137148104648
30
195
10
-9.520240083494823
20
-7.305137148104648
30
178
10
-17.453773486407172
20
-13.392751438191855
30
178
10
-33.32084029223188
20
-25.567980018366267
30
155
10
-33.32084029223188
20
-25.567980018366267
30
45
10
-18.24712682669841
20
-14.001512867200574
30
25
10
-8.485281374238575
20
-8.485281374238566
30
195
10
-8.485281374238575
20
-8.485281374238566
30
178
10
-15.556349186104054
20
-15.556349186104036
30
178
10
-29.698484809835012
20
-29.69848480983498
30
155
10
-29.698484809835012
20
-29.69848480983498
30
45
10
-16.263455967290604
20
-16.263455967290582
30
25
10
-7.3051371481046505
20
-9.52024008349482
30
195
10
-7.3051371481046505
20
-9.52024008349482
30
178
10
-13.392751438191858
20
-17.45377348640717
30
178
10
-25.567980018366278
20
-33.320840292231864
30
155
10
-25.567980018366278
20
-33.320840292231864
30
45
10
-14.00151286720058
20
-18.247126826698405
30
25
10
-6.000000000000005
20
-10.392304845413262
30
195
10
-6.000000000000005
20
-10.392304845413262
30
178
10
-11.00000000000001
20
-19.052558883257646
30
178
10
-21.000000000000018
20
-36.37306695894642
30
155
10
-21.000000000000018
20
-36.37306695894642
30
45
10
-11.50000000000001
20
-19.918584287042084
30
25
10
-4.592201188381074
20
-11.086554390135442
30
195
10
-4.592201188381074
20
-11.086554390135442
30
178
10
-8.41903551203197
20
-20.32534971524831
30
178
10
-16.07270415933376
20
-38.80294036547405
30
155
10
-16.07270415933376
20
-38.80294036547405
30
45
10
-8.80171894439706
20
-21.249229247759597
30
25
10
-3.1058285412302475
20
-11.59110991546882
30
195
10
-3.1058285412302475
20
-11.59110991546882
30
178
10
-5.694018992255454
20
-21.2503681783595
30
178
10
-10.870399894305866
20
-40.56888470414087
30
155
10
-10.870399894305866
20
-40.56888470414087
30
45
10
-5.952838037357974
20
-22.21629400464857
30
25
10
-1.5663143066406195
20
-11.897338336485724
30
195
10
-1.5663143066406195
20
-11.897338336485724
30
178
10
-2.871576228841136
20
-21.81178695022383
30
178
10
-5.482100073242169
20
-41.64068417770004
30
155
10
-5.482100073242169
20
-41.64068417770004
30
45
10
-3.0021024210611875
20
-22.803231811597637
30
25
10
-2.204364238465236e-15
20
-12
30
195
10
-2.204364238465236e-15
20
-12
30
178
10
-4.0413344371862654e-15
20
-22
30
178
10
-7.715274834628325e-15
20
-42
30
155
10
-7.715274834628325e-15
20
-42
30
45
10
-4.225031457058368e-15
20
-23
30
25
10
1.5663143066406153
20
-11.897338336485726
30
195
10
1.5663143066406153
20
-11.897338336485726
30
178
10
2.871576228841128
20
-21.81178695022383
30
178
10
5.482100073242154
20
-41.64068417770004
30
155
10
5.482100073242154
20
-41.64068417770004
30
45
10
3.002102421061179
20
-22.80323181159764
30
25
10
3.1058285412302435
20
-11.59110991546882
30
195
10
3.1058285412302435
20
-11.59110991546882
30
178
10
5.6940189922554465
20
-21.250368178359505
30
178
10
10.870399894305852
20
-40.56888470414087
30
155
10
10.870399894305852
20
-40.56888470414087
30
45
10
5.952838037357967
20
-22.216294004648574
30
25
10
4.59220118838107
20
-11.086554390135444
30
195
10
4.59220118838107
20
-11.086554390135444
30
178
10
8.41903551203196
20
-20.325349715248315
30
178
10
16.072704159333746
20
-38.80294036547405
30
155
10
16.072704159333746
20
-38.80294036547405
30
45
10
8.80171894439705
20
-21.2492292477596
30
25
10
6.000000000000002
20
-10.392304845413264
30
195
10
6.000000000000002
20
-10.392304845413264
30
178
10
11.000000000000002
20
-19.05255888325765
30
178
10
21.000000000000004
20
-36.373066958946424
30
155
10
21.000000000000004
20
-36.373066958946424
30
45
10
11.500000000000002
20
-19.918584287042087
30
25
10
7.305137148104638
20
-9.520240083494828
30
195
10
7.305137148104638
20
-9.520240083494828
30
178
10
13.392751438191837
20
-17.453773486407187
30
178
10
25.567980018366235
20
-33.3208402922319
30
155
10
25.567980018366235
20
-33.3208402922319
30
45
10
14.001512867200557
20
-18.247126826698423
30
25
10
8.485281374238568
20
-8.485281374238571
30
195
10
8.485281374238568
20
-8.485281374238571
30
178
10
15.556349186104041
20
-15.556349186104049
30
178
10
29.698484809834987
20
-29.698484809835
30
155
10
29.698484809834987
20
-29.698484809835
30
45
10
16.26345596729059
20
-16.263455967290597
30
25
10
9.52024008349482
20
-7.3051371481046505
30
195
10
9.52024008349482
20
-7.3051371481046505
30
178
10
17.45377348640717
20
-13.392751438191858
30
178
10
33.320840292231864
20
-25.567980018366278
30
155
10
33.320840292231864
20
-25.567980018366278
30
45
10
18.247126826698405
20
-14.00151286720058
30
25
10
10.39230484541326
20
-6.000000000000005
30
195
10
10.39230484541326
20
-6.000000000000005
30
178
10
19.052558883257646
20
-11.00000000000001
30
178
10
36.37306695894641
20
-21.000000000000018
30
155
10
36.37306695894641
20
-21.000000000000018
30
45
10
19.918584287042084
20
-11.50000000000001
30
25
10
11.086554390135442
20
-4.5922011883810745
30
195
10
11.086554390135442
20
-4.5922011883810745
30
178
10
20.32534971524831
20
-8.41903551203197
30
178
10
38.80294036547405
20
-16.07270415933376
30
155
10
38.80294036547405
20
-16.07270415933376
30
45
10
21.249229247759597
20
-8.80171894439706
30
25
10
11.591109915468817
20
-3.1058285412302586
30
195
10
11.591109915468817
20
-3.1058285412302586
30
178
10
21.250368178359498
20
-5.694018992255475
30
178
10
40.56888470414086
20
-10.870399894305907
30
155
10
40.56888470414086
20
-10.870399894305907
30
45
10
22.216294004648567
20
-5.9528380373579965
30
25
10
11.897338336485724
20
-1.5663143066406202
30
195
10
11.897338336485724
20
-1.5663143066406202
30
178
10
21.81178695022383
20
-2.8715762288411373
30
178
10
41.64068417770004
20
-5.4821000732421705
30
155
10
41.64068417770004
20
-5.4821000732421705
30
45
10
22.803231811597637
20
-3.002102421061189
30
25
93
1584
90
3
90
0
90
1
90
8
90
4
90
1
90
2
90
9
90
8
90
4
90
2
90
3
90
10
90
9
90
4
90
3
90
4
90
11
90
10
90
4
90
4
90
5
90
12
90
11
90
4
90
5
90
6
90
13
90
12
90
3
90
6
90
7
90
13
90
3
90
0
90
8
90
14
90
4
90
8
90
9
90
15
90
14
90
4
90
9
90
10
90
16
90
15
90
4
90
10
90
11
90
17
90
16
90
4
90
11
90
12
90
18
90
17
90
4
90
12
90
13
90
19
90
18
90
3
90
13
90
7
90
19
90
3
90
0
90
14
90
20
90
4
90
14
90
15
90
21
90
20
90
4
90
15
90
16
90
22
90
21
90
4
90
16
90
17
90
23
90
22
90
4
90
17
90
18
90
24
90
23
90
4
90
18
90
19
90
25
90
24
90
3
90
19
90
7
90
25
90
3
90
0
90
20
90
26
90
4
90
20
90
21
90
27
90
26
90
4
90
21
90
22
90
28
90
27
90
4
90
22
90
23
90
29
90
28
90
4
90
23
90
24
90
30
90
29
90
4
90
24
90
25
90
31
90
30
90
3
90
25
90
7
90
31
90
3
90
0
90
26
90
32
90
4
90
26
90
27
90
33
90
32
90
4
90
27
90
28
90
34
90
33
90
4
90
28
90
29
90
35
90
34
90
4
90
29
90
30
90
36
90
35
90
4
90
30
90
31
90
37
90
36
90
3
90
31
90
7
90
37
90
3
90
0
90
32
90
38
90
4
90
32
90
33
90
39
90
38
90
4
90
33
90
34
90
40
90
39
90
4
90
34
90
35
90
41
90
40
90
4
90
35
90
36
90
42
90
41
90
4
90
36
90
37
90
43
90
42
90
3
90
37
90
7
90
43
90
3
90
0
90
38
90
44
90
4
90
38
90
39
90
45
90
44
90
4
90
39
90
40
90
46
90
45
90
4
90
40
90
41
90
47
90
46
90
4
90
41
90
42
90
48
90
47
90
4
90
42
90
43
90
49
90
48
90
3
90
43
90
7
90
49
90
3
90
0
90
44
90
50
90
4
90
44
90
45
90
51
90
50
90
4
90
45
90
46
90
52
90
51
90
4
90
46
90
47
90
53
90
52
90
4
90
47
90
48
90
54
90
53
90
4
90
48
90
49
90
55
90
54
90
3
90
49
90
7
90
55
90
3
90
0
90
50
90
56
90
4
90
50
90
51
90
57
90
56
90
4
90
51
90
52
90
58
90
57
90
4
90
52
90
53
90
59
90
58
90
4
90
53
90
54
90
60
90
59
90
4
90
54
90
55
90
61
90
60
90
3
90
55
90
7
90
61
90
3
90
0
90
56
90
62
90
4
90
56
90
57
90
63
90
62
90
4
90
57
90
58
90
64
90
63
90
4
90
58
90
59
90
65
90
64
90
4
90
59
90
60
90
66
90
65
90
4
90
60
90
61
90
67
90
66
90
3
90
61
90
7
90
67
90
3
90
0
90
62
90
68
90
4
90
62
90
63
90
69
90
68
90
4
90
63
90
64
90
70
90
69
90
4
90
64
90
65
90
71
90
70
90
4
90
65
90
66
90
72
90
71
90
4
90
66
90
67
90
73
90
72
90
3
90
67
90
7
90
73
90
3
90
0
90
68
90
74
90
4
90
68
90
69
90
75
90
74
90
4
90
69
90
70
90
76
90
75
90
4
90
70
90
71
90
77
90
76
90
4
90
71
90
72
90
78
90
77
90
4
90
72
90
73
90
79
90
78
90
3
90
73
90
7
90
79
90
3
90
0
90
74
90
80
90
4
90
74
90
75
90
81
90
80
90
4
90
75
90
76
90
82
90
81
90
4
90
76
90
77
90
83
90
82
90
4
90
77
90
78
90
84
90
83
90
4
90
78
90
79
90
85
90
84
90
3
90
79
90
7
90
85
90
3
90
0
90
80
90
86
90
4
90
80
90
81
90
87
90
86
90
4
90
81
90
82
90
88
90
87
90
4
90
82
90
83
90
89
90
88
90
4
90
83
90
84
90
90
90
89
90
4
90
84
90
85
90
91
90
90
90
3
90
85
90
7
90
91
90
3
90
0
90
86
90
92
90
4
90
86
90
87
90
93
90
92
90
4
90
87
90
88
90
94
90
93
90
4
90
88
90
89
90
95
90
94
90
4
90
89
90
90
90
96
90
95
90
4
90
90
90
91
90
97
90
96
90
3
90
91
90
7
90
97
90
3
90
0
90
92
90
98
90
4
90
92
90
93
90
99
90
98
90
4
90
93
90
94
90
100
90
99
90
4
90
94
90
95
90
101
90
100
90
4
90
95
90
96
90
102
90
101
90
4
90
96
90
97
90
103
90
102
90
3
90
97
90
7
90
103
90
3
90
0
90
98
90
104
90
4
90
98
90
99
90
105
90
104
90
4
90
99
90
100
90
106
90
105
90
4
90
100
90
101
90
107
90
106
90
4
90
101
90
102
90
108
90
107
90
4
90
102
90
103
90
109
90
108
90
3
90
103
90
7
90
109
90
3
90
0
90
104
90
110
90
4
90
104
90
105
90
111
90
110
90
4
90
105
90
106
90
112
90
111
90
4
90
106
90
107
90
113
90
112
90
4
90
107
90
108
90
114
90
113
90
4
90
108
90
109
90
115
90
114
90
3
90
109
90
7
90
115
90
3
90
0
90
110
90
116
90
4
90
110
90
111
90
117
90
116
90
4
90
111
90
112
90
118
90
117
90
4
90
112
90
113
90
119
90
118
90
4
90
113
90
114
90
120
90
119
90
4
90
114
90
115
90
121
90
120
90
3
90
115
90
7
90
121
90
3
90
0
90
116
90
122
90
4
90
116
90
117
90
123
90
122
90
4
90
117
90
118
90
124
90
123
90
4
90
118
90
119
90
125
90
124
90
4
90
119
90
120
90
126
90
125
90
4
90
120
90
121
90
127
90
126
90
3
90
121
90
7
90
127
90
3
90
0
90
122
90
128
90
4
90
122
90
123
90
129
90
128
90
4
90
123
90
124
90
130
90
129
90
4
90
124
90
125
90
131
90
130
90
4
90
125
90
126
90
132
90
131
90
4
90
126
90
127
90
133
90
132
90
3
90
127
90
7
90
133
90
3
90
0
90
128
90
134
90
4
90
128
90
129
90
135
90
134
90
4
90
129
90
130
90
136
90
135
90
4
90
130
90
131
90
137
90
136
90
4
90
131
90
132
90
138
90
137
90
4
90
132
90
133
90
139
90
138
90
3
90
133
90
7
90
139
90
3
90
0
90
134
90
140
90
4
90
134
90
135
90
141
90
140
90
4
90
135
90
136
90
142
90
141
90
4
90
136
90
137
90
143
90
142
90
4
90
137
90
138
90
144
90
143
90
4
90
138
90
139
90
145
90
144
90
3
90
139
90
7
90
145
90
3
90
0
90
140
90
146
90
4
90
140
90
141
90
147
90
146
90
4
90
141
90
142
90
148
90
147
90
4
90
142
90
143
90
149
90
148
90
4
90
143
90
144
90
150
90
149
90
4
90
144
90
145
90
151
90
150
90
3
90
145
90
7
90
151
90
3
90
0
90
146
90
152
90
4
90
146
90
147
90
153
90
152
90
4
90
147
90
148
90
154
90
153
90
4
90
148
90
149
90
155
90
154
90
4
90
149
90
150
90
156
90
155
90
4
90
150
90
151
90
157
90
156
90
3
90
151
90
7
90
157
90
3
90
0
90
152
90
158
90
4
90
152
90
153
90
159
90
158
90
4
90
153
90
154
90
160
90
159
90
4
90
154
90
155
90
161
90
160
90
4
90
155
90
156
90
162
90
161
90
4
90
156
90
157
90
163
90
162
90
3
90
157
90
7
90
163
90
3
90
0
90
158
90
164
90
4
90
158
90
159
90
165
90
164
90
4
90
159
90
160
90
166
90
165
90
4
90
160
90
161
90
167
90
166
90
4
90
161
90
162
90
168
90
167
90
4
90
162
90
163
90
169
90
168
90
3
90
163
90
7
90
169
90
3
90
0
90
164
90
170
90
4
90
164
90
165
90
171
90
170
90
4
90
165
90
166
90
172
90
171
90
4
90
166
90
167
90
173
90
172
90
4
90
167
90
168
90
174
90
173
90
4
90
168
90
169
90
175
90
174
90
3
90
169
90
7
90
175
90
3
90
0
90
170
90
176
90
4
90
170
90
171
90
177
90
176
90
4
90
171
90
172
90
178
90
177
90
4
90
172
90
173
90
179
90
178
90
4
90
173
90
174
90
180
90
179
90
4
90
174
90
175
90
181
90
180
90
3
90
175
90
7
90
181
90
3
90
0
90
176
90
182
90
4
90
176
90
177
90
183
90
182
90
4
90
177
90
178
90
184
90
183
90
4
90
178
90
179
90
185
90
184
90
4
90
179
90
180
90
186
90
185
90
4
90
180
90
181
90
187
90
186
90
3
90
181
90
7
90
187
90
3
90
0
90
182
90
188
90
4
90
182
90
183
90
189
90
188
90
4
90
183
90
184
90
190
90
189
90
4
90
184
90
185
90
191
90
190
90
4
90
185
90
186
90
192
90
191
90
4
90
186
90
187
90
193
90
192
90
3
90
187
90
7
90
193
90
3
90
0
90
188
90
194
90
4
90
188
90
189
90
195
90
194
90
4
90
189
90
190
90
196
90
195
90
4
90
190
90
191
90
197
90
196
90
4
90
191
90
192
90
198
90
197
90
4
90
192
90
193
90
199
90
198
90
3
90
193
90
7
90
199
90
3
90
0
90
194
90
200
90
4
90
194
90
195
90
201
90
200
90
4
90
195
90
196
90
202
90
201
90
4
90
196
90
197
90
203
90
202
90
4
90
197
90
198
90
204
90
203
90
4
90
198
90
199
90
205
90
204
90
3
90
199
90
7
90
205
90
3
90
0
90
200
90
206
90
4
90
200
90
201
90
207
90
206
90
4
90
201
90
202
90
208
90
207
90
4
90
202
90
203
90
209
90
208
90
4
90
203
90
204
90
210
90
209
90
4
90
204
90
205
90
211
90
210
90
3
90
205
90
7
90
211
90
3
90
0
90
206
90
212
90
4
90
206
90
207
90
213
90
212
90
4
90
207
90
208
90
214
90
213
90
4
90
208
90
209
90
215
90
214
90
4
90
209
90
210
90
216
90
215
90
4
90
210
90
211
90
217
90
216
90
3
90
211
90
7
90
217
90
3
90
0
90
212
90
218
90
4
90
212
90
213
90
219
90
218
90
4
90
213
90
214
90
220
90
219
90
4
90
214
90
215
90
221
90
220
90
4
90
215
90
216
90
222
90
221
90
4
90
216
90
217
90
223
90
222
90
3
90
217
90
7
90
223
90
3
90
0
90
218
90
224
90
4
90
218
90
219
90
225
90
224
90
4
90
219
90
220
90
226
90
225
90
4
90
220
90
221
90
227
90
226
90
4
90
221
90
222
90
228
90
227
90
4
90
222
90
223
90
229
90
228
90
3
90
223
90
7
90
229
90
3
90
0
90
224
90
230
90
4
90
224
90
225
90
231
90
230
90
4
90
225
90
226
90
232
90
231
90
4
90
226
90
227
90
233
90
232
90
4
90
227
90
228
90
234
90
233
90
4
90
228
90
229
90
235
90
234
90
3
90
229
90
7
90
235
90
3
90
0
90
230
90
236
90
4
90
230
90
231
90
237
90
236
90
4
90
231
90
232
90
238
90
237
90
4
90
232
90
233
90
239
90
238
90
4
90
233
90
234
90
240
90
239
90
4
90
234
90
235
90
241
90
240
90
3
90
235
90
7
90
241
90
3
90
0
90
236
90
242
90
4
90
236
90
237
90
243
90
242
90
4
90
237
90
238
90
244
90
243
90
4
90
238
90
239
90
245
90
244
90
4
90
239
90
240
90
246
90
245
90
4
90
240
90
241
90
247
90
246
90
3
90
241
90
7
90
247
90
3
90
0
90
242
90
248
90
4
90
242
90
243
90
249
90
248
90
4
90
243
90
244
90
250
90
249
90
4
90
244
90
245
90
251
90
250
90
4
90
245
90
246
90
252
90
251
90
4
90
246
90
247
90
253
90
252
90
3
90
247
90
7
90
253
90
3
90
0
90
248
90
254
90
4
90
248
90
249
90
255
90
254
90
4
90
249
90
250
90
256
90
255
90
4
90
250
90
251
90
257
90
256
90
4
90
251
90
252
90
258
90
257
90
4
90
252
90
253
90
259
90
258
90
3
90
253
90
7
90
259
90
3
90
0
90
254
90
260
90
4
90
254
90
255
90
261
90
260
90
4
90
255
90
256
90
262
90
261
90
4
90
256
90
257
90
263
90
262
90
4
90
257
90
258
90
264
90
263
90
4
90
258
90
259
90
265
90
264
90
3
90
259
90
7
90
265
90
3
90
0
90
260
90
266
90
4
90
260
90
261
90
267
90
266
90
4
90
261
90
262
90
268
90
267
90
4
90
262
90
263
90
269
90
268
90
4
90
263
90
264
90
270
90
269
90
4
90
264
90
265
90
271
90
270
90
3
90
265
90
7
90
271
90
3
90
0
90
266
90
272
90
4
90
266
90
267
90
273
90
272
90
4
90
267
90
268
90
274
90
273
90
4
90
268
90
269
90
275
90
274
90
4
90
269
90
270
90
276
90
275
90
4
90
270
90
271
90
277
90
276
90
3
90
271
90
7
90
277
90
3
90
0
90
272
90
278
90
4
90
272
90
273
90
279
90
278
90
4
90
273
90
274
90
280
90
279
90
4
90
274
90
275
90
281
90
280
90
4
90
275
90
276
90
282
90
281
90
4
90
276
90
277
90
283
90
282
90
3
90
277
90
7
90
283
90
3
90
0
90
278
90
284
90
4
90
278
90
279
90
285
90
284
90
4
90
279
90
280
90
286
90
285
90
4
90
280
90
281
90
287
90
286
90
4
90
281
90
282
90
288
90
287
90
4
90
282
90
283
90
289
90
288
90
3
90
283
90
7
90
289
90
3
90
0
90
284
90
1
90
4
90
284
90
285
90
2
90
1
90
4
90
285
90
286
90
3
90
2
90
4
90
286
90
287
90
4
90
3
90
4
90
287
90
288
90
5
90
4
90
4
90
288
90
289
90
6
90
5
90
3
90
289
90
7
90
6
94
0
95
0
90
0
1001
CONDUITCAD
1000
{"id":"3d-vessel-002","label":"Vessel body","feature3d":{"version":1,"kind":"revolve","parameters":{"segments":48},"inputs":["3d-vessel-001"],"suppressed":false},"model3dConsumed":false,"model3dUserHi
1000
dden":false}
0
MESH
5
102
330
118
100
AcDbEntity
8
Equipment
62
7
420
7637147
60
1
100
AcDbSubDMesh
71
2
72
0
91
0
92
32
10
-18
20
-23
30
0
10
-18.380602337443566
20
-21.08658283817455
30
0
10
-19.464466094067262
20
-19.464466094067262
30
0
10
-21.08658283817455
20
-18.380602337443566
30
0
10
-23
20
-18
30
0
10
-24.91341716182545
20
-18.380602337443566
30
0
10
-26.535533905932738
20
-19.464466094067262
30
0
10
-27.619397662556434
20
-21.08658283817455
30
0
10
-28
20
-23
30
0
10
-27.619397662556434
20
-24.91341716182545
30
0
10
-26.535533905932738
20
-26.535533905932738
30
0
10
-24.91341716182545
20
-27.61939766255643
30
0
10
-23
20
-28
30
0
10
-21.08658283817455
20
-27.619397662556434
30
0
10
-19.464466094067262
20
-26.535533905932738
30
0
10
-18.38060233744357
20
-24.913417161825453
30
0
10
-18
20
-23
30
40
10
-18.380602337443566
20
-21.08658283817455
30
40
10
-19.464466094067262
20
-19.464466094067262
30
40
10
-21.08658283817455
20
-18.380602337443566
30
40
10
-23
20
-18
30
40
10
-24.91341716182545
20
-18.380602337443566
30
40
10
-26.535533905932738
20
-19.464466094067262
30
40
10
-27.619397662556434
20
-21.08658283817455
30
40
10
-28
20
-23
30
40
10
-27.619397662556434
20
-24.91341716182545
30
40
10
-26.535533905932738
20
-26.535533905932738
30
40
10
-24.91341716182545
20
-27.61939766255643
30
40
10
-23
20
-28
30
40
10
-21.08658283817455
20
-27.619397662556434
30
40
10
-19.464466094067262
20
-26.535533905932738
30
40
10
-18.38060233744357
20
-24.913417161825453
30
40
93
114
90
16
90
15
90
14
90
13
90
12
90
11
90
10
90
9
90
8
90
7
90
6
90
5
90
4
90
3
90
2
90
1
90
0
90
16
90
16
90
17
90
18
90
19
90
20
90
21
90
22
90
23
90
24
90
25
90
26
90
27
90
28
90
29
90
30
90
31
90
4
90
0
90
1
90
17
90
16
90
4
90
1
90
2
90
18
90
17
90
4
90
2
90
3
90
19
90
18
90
4
90
3
90
4
90
20
90
19
90
4
90
4
90
5
90
21
90
20
90
4
90
5
90
6
90
22
90
21
90
4
90
6
90
7
90
23
90
22
90
4
90
7
90
8
90
24
90
23
90
4
90
8
90
9
90
25
90
24
90
4
90
9
90
10
90
26
90
25
90
4
90
10
90
11
90
27
90
26
90
4
90
11
90
12
90
28
90
27
90
4
90
12
90
13
90
29
90
28
90
4
90
13
90
14
90
30
90
29
90
4
90
14
90
15
90
31
90
30
90
4
90
15
90
0
90
16
90
31
94
0
95
0
90
0
1001
CONDUITCAD
1000
{"id":"3d-vessel-003","label":"Support leg","feature3d":{"version":1,"kind":"cylinder","parameters":{"radius":5,"height":40,"x":-23,"y":-23,"segments":16},"inputs":[],"suppressed":false},"model3dConsu
1000
med":true,"model3dUserHidden":false}
0
MESH
5
103
330
118
100
AcDbEntity
8
Equipment
62
7
420
5543588
60
1
100
AcDbSubDMesh
71
2
72
0
91
0
92
64
10
-18
20
-23
30
0
10
-18.380602337443566
20
-21.08658283817455
30
0
10
-19.464466094067262
20
-19.464466094067262
30
0
10
-21.08658283817455
20
-18.380602337443566
30
0
10
-23
20
-18
30
0
10
-24.91341716182545
20
-18.380602337443566
30
0
10
-26.535533905932738
20
-19.464466094067262
30
0
10
-27.619397662556434
20
-21.08658283817455
30
0
10
-28
20
-23
30
0
10
-27.619397662556434
20
-24.91341716182545
30
0
10
-26.535533905932738
20
-26.535533905932738
30
0
10
-24.91341716182545
20
-27.61939766255643
30
0
10
-23
20
-28
30
0
10
-21.08658283817455
20
-27.619397662556434
30
0
10
-19.464466094067262
20
-26.535533905932738
30
0
10
-18.38060233744357
20
-24.913417161825453
30
0
10
-18
20
-23
30
40
10
-18.380602337443566
20
-21.08658283817455
30
40
10
-19.464466094067262
20
-19.464466094067262
30
40
10
-21.08658283817455
20
-18.380602337443566
30
40
10
-23
20
-18
30
40
10
-24.91341716182545
20
-18.380602337443566
30
40
10
-26.535533905932738
20
-19.464466094067262
30
40
10
-27.619397662556434
20
-21.08658283817455
30
40
10
-28
20
-23
30
40
10
-27.619397662556434
20
-24.91341716182545
30
40
10
-26.535533905932738
20
-26.535533905932738
30
40
10
-24.91341716182545
20
-27.61939766255643
30
40
10
-23
20
-28
30
40
10
-21.08658283817455
20
-27.619397662556434
30
40
10
-19.464466094067262
20
-26.535533905932738
30
40
10
-18.38060233744357
20
-24.913417161825453
30
40
10
28
20
-23
30
0
10
27.619397662556434
20
-21.08658283817455
30
0
10
26.535533905932738
20
-19.464466094067262
30
0
10
24.91341716182545
20
-18.380602337443566
30
0
10
23
20
-18
30
0
10
21.08658283817455
20
-18.380602337443566
30
0
10
19.464466094067262
20
-19.464466094067262
30
0
10
18.380602337443566
20
-21.08658283817455
30
0
10
18
20
-23
30
0
10
18.380602337443566
20
-24.91341716182545
30
0
10
19.464466094067262
20
-26.535533905932738
30
0
10
21.08658283817455
20
-27.61939766255643
30
0
10
23
20
-28
30
0
10
24.91341716182545
20
-27.619397662556434
30
0
10
26.535533905932738
20
-26.535533905932738
30
0
10
27.61939766255643
20
-24.913417161825453
30
0
10
28
20
-23
30
40
10
27.619397662556434
20
-21.08658283817455
30
40
10
26.535533905932738
20
-19.464466094067262
30
40
10
24.91341716182545
20
-18.380602337443566
30
40
10
23
20
-18
30
40
10
21.08658283817455
20
-18.380602337443566
30
40
10
19.464466094067262
20
-19.464466094067262
30
40
10
18.380602337443566
20
-21.08658283817455
30
40
10
18
20
-23
30
40
10
18.380602337443566
20
-24.91341716182545
30
40
10
19.464466094067262
20
-26.535533905932738
30
40
10
21.08658283817455
20
-27.61939766255643
30
40
10
23
20
-28
30
40
10
24.91341716182545
20
-27.619397662556434
30
40
10
26.535533905932738
20
-26.535533905932738
30
40
10
27.61939766255643
20
-24.913417161825453
30
40
93
228
90
16
90
15
90
14
90
13
90
12
90
11
90
10
90
9
90
8
90
7
90
6
90
5
90
4
90
3
90
2
90
1
90
0
90
16
90
16
90
17
90
18
90
19
90
20
90
21
90
22
90
23
90
24
90
25
90
26
90
27
90
28
90
29
90
30
90
31
90
4
90
0
90
1
90
17
90
16
90
4
90
1
90
2
90
18
90
17
90
4
90
2
90
3
90
19
90
18
90
4
90
3
90
4
90
20
90
19
90
4
90
4
90
5
90
21
90
20
90
4
90
5
90
6
90
22
90
21
90
4
90
6
90
7
90
23
90
22
90
4
90
7
90
8
90
24
90
23
90
4
90
8
90
9
90
25
90
24
90
4
90
9
90
10
90
26
90
25
90
4
90
10
90
11
90
27
90
26
90
4
90
11
90
12
90
28
90
27
90
4
90
12
90
13
90
29
90
28
90
4
90
13
90
14
90
30
90
29
90
4
90
14
90
15
90
31
90
30
90
4
90
15
90
0
90
16
90
31
90
16
90
47
90
46
90
45
90
44
90
43
90
42
90
41
90
40
90
39
90
38
90
37
90
36
90
35
90
34
90
33
90
32
90
16
90
48
90
49
90
50
90
51
90
52
90
53
90
54
90
55
90
56
90
57
90
58
90
59
90
60
90
61
90
62
90
63
90
4
90
32
90
33
90
49
90
48
90
4
90
33
90
34
90
50
90
49
90
4
90
34
90
35
90
51
90
50
90
4
90
35
90
36
90
52
90
51
90
4
90
36
90
37
90
53
90
52
90
4
90
37
90
38
90
54
90
53
90
4
90
38
90
39
90
55
90
54
90
4
90
39
90
40
90
56
90
55
90
4
90
40
90
41
90
57
90
56
90
4
90
41
90
42
90
58
90
57
90
4
90
42
90
43
90
59
90
58
90
4
90
43
90
44
90
60
90
59
90
4
90
44
90
45
90
61
90
60
90
4
90
45
90
46
90
62
90
61
90
4
90
46
90
47
90
63
90
62
90
4
90
47
90
32
90
48
90
63
94
0
95
0
90
0
1001
CONDUITCAD
1000
{"id":"3d-vessel-004","label":"Leg row","feature3d":{"version":1,"kind":"linear-pattern","parameters":{"count":2,"dx":46},"inputs":["3d-vessel-003"],"suppressed":false},"model3dConsumed":true,"model3d
1000
UserHidden":false}
0
MESH
5
104
330
118
100
AcDbEntity
8
Equipment
62
7
420
5543588
100
AcDbSubDMesh
71
2
72
0
91
0
92
128
10
-18
20
-23
30
0
10
-18.380602337443566
20
-21.08658283817455
30
0
10
-19.464466094067262
20
-19.464466094067262
30
0
10
-21.08658283817455
20
-18.380602337443566
30
0
10
-23
20
-18
30
0
10
-24.91341716182545
20
-18.380602337443566
30
0
10
-26.535533905932738
20
-19.464466094067262
30
0
10
-27.619397662556434
20
-21.08658283817455
30
0
10
-28
20
-23
30
0
10
-27.619397662556434
20
-24.91341716182545
30
0
10
-26.535533905932738
20
-26.535533905932738
30
0
10
-24.91341716182545
20
-27.61939766255643
30
0
10
-23
20
-28
30
0
10
-21.08658283817455
20
-27.619397662556434
30
0
10
-19.464466094067262
20
-26.535533905932738
30
0
10
-18.38060233744357
20
-24.913417161825453
30
0
10
-18
20
-23
30
40
10
-18.380602337443566
20
-21.08658283817455
30
40
10
-19.464466094067262
20
-19.464466094067262
30
40
10
-21.08658283817455
20
-18.380602337443566
30
40
10
-23
20
-18
30
40
10
-24.91341716182545
20
-18.380602337443566
30
40
10
-26.535533905932738
20
-19.464466094067262
30
40
10
-27.619397662556434
20
-21.08658283817455
30
40
10
-28
20
-23
30
40
10
-27.619397662556434
20
-24.91341716182545
30
40
10
-26.535533905932738
20
-26.535533905932738
30
40
10
-24.91341716182545
20
-27.61939766255643
30
40
10
-23
20
-28
30
40
10
-21.08658283817455
20
-27.619397662556434
30
40
10
-19.464466094067262
20
-26.535533905932738
30
40
10
-18.38060233744357
20
-24.913417161825453
30
40
10
28
20
-23
30
0
10
27.619397662556434
20
-21.08658283817455
30
0
10
26.535533905932738
20
-19.464466094067262
30
0
10
24.91341716182545
20
-18.380602337443566
30
0
10
23
20
-18
30
0
10
21.08658283817455
20
-18.380602337443566
30
0
10
19.464466094067262
20
-19.464466094067262
30
0
10
18.380602337443566
20
-21.08658283817455
30
0
10
18
20
-23
30
0
10
18.380602337443566
20
-24.91341716182545
30
0
10
19.464466094067262
20
-26.535533905932738
30
0
10
21.08658283817455
20
-27.61939766255643
30
0
10
23
20
-28
30
0
10
24.91341716182545
20
-27.619397662556434
30
0
10
26.535533905932738
20
-26.535533905932738
30
0
10
27.61939766255643
20
-24.913417161825453
30
0
10
28
20
-23
30
40
10
27.619397662556434
20
-21.08658283817455
30
40
10
26.535533905932738
20
-19.464466094067262
30
40
10
24.91341716182545
20
-18.380602337443566
30
40
10
23
20
-18
30
40
10
21.08658283817455
20
-18.380602337443566
30
40
10
19.464466094067262
20
-19.464466094067262
30
40
10
18.380602337443566
20
-21.08658283817455
30
40
10
18
20
-23
30
40
10
18.380602337443566
20
-24.91341716182545
30
40
10
19.464466094067262
20
-26.535533905932738
30
40
10
21.08658283817455
20
-27.61939766255643
30
40
10
23
20
-28
30
40
10
24.91341716182545
20
-27.619397662556434
30
40
10
26.535533905932738
20
-26.535533905932738
30
40
10
27.61939766255643
20
-24.913417161825453
30
40
10
-18
20
23
30
0
10
-18.380602337443566
20
24.91341716182545
30
0
10
-19.464466094067262
20
26.535533905932738
30
0
10
-21.08658283817455
20
27.619397662556434
30
0
10
-23
20
28
30
0
10
-24.91341716182545
20
27.619397662556434
30
0
10
-26.535533905932738
20
26.535533905932738
30
0
10
-27.619397662556434
20
24.91341716182545
30
0
10
-28
20
23
30
0
10
-27.619397662556434
20
21.08658283817455
30
0
10
-26.535533905932738
20
19.464466094067262
30
0
10
-24.91341716182545
20
18.38060233744357
30
0
10
-23
20
18
30
0
10
-21.08658283817455
20
18.380602337443566
30
0
10
-19.464466094067262
20
19.464466094067262
30
0
10
-18.38060233744357
20
21.086582838174547
30
0
10
-18
20
23
30
40
10
-18.380602337443566
20
24.91341716182545
30
40
10
-19.464466094067262
20
26.535533905932738
30
40
10
-21.08658283817455
20
27.619397662556434
30
40
10
-23
20
28
30
40
10
-24.91341716182545
20
27.619397662556434
30
40
10
-26.535533905932738
20
26.535533905932738
30
40
10
-27.619397662556434
20
24.91341716182545
30
40
10
-28
20
23
30
40
10
-27.619397662556434
20
21.08658283817455
30
40
10
-26.535533905932738
20
19.464466094067262
30
40
10
-24.91341716182545
20
18.38060233744357
30
40
10
-23
20
18
30
40
10
-21.08658283817455
20
18.380602337443566
30
40
10
-19.464466094067262
20
19.464466094067262
30
40
10
-18.38060233744357
20
21.086582838174547
30
40
10
28
20
23
30
0
10
27.619397662556434
20
24.91341716182545
30
0
10
26.535533905932738
20
26.535533905932738
30
0
10
24.91341716182545
20
27.619397662556434
30
0
10
23
20
28
30
0
10
21.08658283817455
20
27.619397662556434
30
0
10
19.464466094067262
20
26.535533905932738
30
0
10
18.380602337443566
20
24.91341716182545
30
0
10
18
20
23
30
0
10
18.380602337443566
20
21.08658283817455
30
0
10
19.464466094067262
20
19.464466094067262
30
0
10
21.08658283817455
20
18.38060233744357
30
0
10
23
20
18
30
0
10
24.91341716182545
20
18.380602337443566
30
0
10
26.535533905932738
20
19.464466094067262
30
0
10
27.61939766255643
20
21.086582838174547
30
0
10
28
20
23
30
40
10
27.619397662556434
20
24.91341716182545
30
40
10
26.535533905932738
20
26.535533905932738
30
40
10
24.91341716182545
20
27.619397662556434
30
40
10
23
20
28
30
40
10
21.08658283817455
20
27.619397662556434
30
40
10
19.464466094067262
20
26.535533905932738
30
40
10
18.380602337443566
20
24.91341716182545
30
40
10
18
20
23
30
40
10
18.380602337443566
20
21.08658283817455
30
40
10
19.464466094067262
20
19.464466094067262
30
40
10
21.08658283817455
20
18.38060233744357
30
40
10
23
20
18
30
40
10
24.91341716182545
20
18.380602337443566
30
40
10
26.535533905932738
20
19.464466094067262
30
40
10
27.61939766255643
20
21.086582838174547
30
40
93
456
90
16
90
15
90
14
90
13
90
12
90
11
90
10
90
9
90
8
90
7
90
6
90
5
90
4
90
3
90
2
90
1
90
0
90
16
90
16
90
17
90
18
90
19
90
20
90
21
90
22
90
23
90
24
90
25
90
26
90
27
90
28
90
29
90
30
90
31
90
4
90
0
90
1
90
17
90
16
90
4
90
1
90
2
90
18
90
17
90
4
90
2
90
3
90
19
90
18
90
4
90
3
90
4
90
20
90
19
90
4
90
4
90
5
90
21
90
20
90
4
90
5
90
6
90
22
90
21
90
4
90
6
90
7
90
23
90
22
90
4
90
7
90
8
90
24
90
23
90
4
90
8
90
9
90
25
90
24
90
4
90
9
90
10
90
26
90
25
90
4
90
10
90
11
90
27
90
26
90
4
90
11
90
12
90
28
90
27
90
4
90
12
90
13
90
29
90
28
90
4
90
13
90
14
90
30
90
29
90
4
90
14
90
15
90
31
90
30
90
4
90
15
90
0
90
16
90
31
90
16
90
47
90
46
90
45
90
44
90
43
90
42
90
41
90
40
90
39
90
38
90
37
90
36
90
35
90
34
90
33
90
32
90
16
90
48
90
49
90
50
90
51
90
52
90
53
90
54
90
55
90
56
90
57
90
58
90
59
90
60
90
61
90
62
90
63
90
4
90
32
90
33
90
49
90
48
90
4
90
33
90
34
90
50
90
49
90
4
90
34
90
35
90
51
90
50
90
4
90
35
90
36
90
52
90
51
90
4
90
36
90
37
90
53
90
52
90
4
90
37
90
38
90
54
90
53
90
4
90
38
90
39
90
55
90
54
90
4
90
39
90
40
90
56
90
55
90
4
90
40
90
41
90
57
90
56
90
4
90
41
90
42
90
58
90
57
90
4
90
42
90
43
90
59
90
58
90
4
90
43
90
44
90
60
90
59
90
4
90
44
90
45
90
61
90
60
90
4
90
45
90
46
90
62
90
61
90
4
90
46
90
47
90
63
90
62
90
4
90
47
90
32
90
48
90
63
90
16
90
79
90
78
90
77
90
76
90
75
90
74
90
73
90
72
90
71
90
70
90
69
90
68
90
67
90
66
90
65
90
64
90
16
90
80
90
81
90
82
90
83
90
84
90
85
90
86
90
87
90
88
90
89
90
90
90
91
90
92
90
93
90
94
90
95
90
4
90
64
90
65
90
81
90
80
90
4
90
65
90
66
90
82
90
81
90
4
90
66
90
67
90
83
90
82
90
4
90
67
90
68
90
84
90
83
90
4
90
68
90
69
90
85
90
84
90
4
90
69
90
70
90
86
90
85
90
4
90
70
90
71
90
87
90
86
90
4
90
71
90
72
90
88
90
87
90
4
90
72
90
73
90
89
90
88
90
4
90
73
90
74
90
90
90
89
90
4
90
74
90
75
90
91
90
90
90
4
90
75
90
76
90
92
90
91
90
4
90
76
90
77
90
93
90
92
90
4
90
77
90
78
90
94
90
93
90
4
90
78
90
79
90
95
90
94
90
4
90
79
90
64
90
80
90
95
90
16
90
111
90
110
90
109
90
108
90
107
90
106
90
105
90
104
90
103
90
102
90
101
90
100
90
99
90
98
90
97
90
96
90
16
90
112
90
113
90
114
90
115
90
116
90
117
90
118
90
119
90
120
90
121
90
122
90
123
90
124
90
125
90
126
90
127
90
4
90
96
90
97
90
113
90
112
90
4
90
97
90
98
90
114
90
113
90
4
90
98
90
99
90
115
90
114
90
4
90
99
90
100
90
116
90
115
90
4
90
100
90
101
90
117
90
116
90
4
90
101
90
102
90
118
90
117
90
4
90
102
90
103
90
119
90
118
90
4
90
103
90
104
90
120
90
119
90
4
90
104
90
105
90
121
90
120
90
4
90
105
90
106
90
122
90
121
90
4
90
106
90
107
90
123
90
122
90
4
90
107
90
108
90
124
90
123
90
4
90
108
90
109
90
125
90
124
90
4
90
109
90
110
90
126
90
125
90
4
90
110
90
111
90
127
90
126
90
4
90
111
90
96
90
112
90
127
94
0
95
0
90
0
1001
CONDUITCAD
1000
{"id":"3d-vessel-005","label":"Four supports","feature3d":{"version":1,"kind":"linear-pattern","parameters":{"count":2,"dx":0,"dy":46},"inputs":["3d-vessel-004"],"suppressed":false},"model3dConsumed":
1000
false,"model3dUserHidden":false}
0
MESH
5
105
330
118
100
AcDbEntity
8
Equipment
62
7
420
5543588
60
1
100
AcDbSubDMesh
71
2
72
0
91
0
92
48
10
9
20
0
30
0
10
8.693332436601615
20
2.3293714059226867
30
0
10
7.794228634059948
20
4.499999999999999
30
0
10
6.3639610306789285
20
6.363961030678928
30
0
10
4.500000000000001
20
7.794228634059947
30
0
10
2.3293714059226867
20
8.693332436601615
30
0
10
5.51091059616309e-16
20
9
30
0
10
-2.3293714059226858
20
8.693332436601615
30
0
10
-4.499999999999998
20
7.794228634059948
30
0
10
-6.363961030678928
20
6.3639610306789285
30
0
10
-7.794228634059948
20
4.499999999999999
30
0
10
-8.693332436601613
20
2.3293714059226893
30
0
10
-9
20
1.102182119232618e-15
30
0
10
-8.693332436601615
20
-2.329371405922687
30
0
10
-7.79422863405995
20
-4.499999999999997
30
0
10
-6.363961030678931
20
-6.363961030678924
30
0
10
-4.5000000000000036
20
-7.794228634059946
30
0
10
-2.3293714059226858
20
-8.693332436601615
30
0
10
-1.6532731788489267e-15
20
-9
30
0
10
2.3293714059226827
20
-8.693332436601615
30
0
10
4.500000000000001
20
-7.794228634059947
30
0
10
6.363961030678926
20
-6.363961030678929
30
0
10
7.794228634059945
20
-4.5000000000000036
30
0
10
8.693332436601613
20
-2.329371405922694
30
0
10
9
20
0
30
40
10
8.693332436601615
20
2.3293714059226867
30
40
10
7.794228634059948
20
4.499999999999999
30
40
10
6.3639610306789285
20
6.363961030678928
30
40
10
4.500000000000001
20
7.794228634059947
30
40
10
2.3293714059226867
20
8.693332436601615
30
40
10
5.51091059616309e-16
20
9
30
40
10
-2.3293714059226858
20
8.693332436601615
30
40
10
-4.499999999999998
20
7.794228634059948
30
40
10
-6.363961030678928
20
6.3639610306789285
30
40
10
-7.794228634059948
20
4.499999999999999
30
40
10
-8.693332436601613
20
2.3293714059226893
30
40
10
-9
20
1.102182119232618e-15
30
40
10
-8.693332436601615
20
-2.329371405922687
30
40
10
-7.79422863405995
20
-4.499999999999997
30
40
10
-6.363961030678931
20
-6.363961030678924
30
40
10
-4.5000000000000036
20
-7.794228634059946
30
40
10
-2.3293714059226858
20
-8.693332436601615
30
40
10
-1.6532731788489267e-15
20
-9
30
40
10
2.3293714059226827
20
-8.693332436601615
30
40
10
4.500000000000001
20
-7.794228634059947
30
40
10
6.363961030678926
20
-6.363961030678929
30
40
10
7.794228634059945
20
-4.5000000000000036
30
40
10
8.693332436601613
20
-2.329371405922694
30
40
93
170
90
24
90
23
90
22
90
21
90
20
90
19
90
18
90
17
90
16
90
15
90
14
90
13
90
12
90
11
90
10
90
9
90
8
90
7
90
6
90
5
90
4
90
3
90
2
90
1
90
0
90
24
90
24
90
25
90
26
90
27
90
28
90
29
90
30
90
31
90
32
90
33
90
34
90
35
90
36
90
37
90
38
90
39
90
40
90
41
90
42
90
43
90
44
90
45
90
46
90
47
90
4
90
0
90
1
90
25
90
24
90
4
90
1
90
2
90
26
90
25
90
4
90
2
90
3
90
27
90
26
90
4
90
3
90
4
90
28
90
27
90
4
90
4
90
5
90
29
90
28
90
4
90
5
90
6
90
30
90
29
90
4
90
6
90
7
90
31
90
30
90
4
90
7
90
8
90
32
90
31
90
4
90
8
90
9
90
33
90
32
90
4
90
9
90
10
90
34
90
33
90
4
90
10
90
11
90
35
90
34
90
4
90
11
90
12
90
36
90
35
90
4
90
12
90
13
90
37
90
36
90
4
90
13
90
14
90
38
90
37
90
4
90
14
90
15
90
39
90
38
90
4
90
15
90
16
90
40
90
39
90
4
90
16
90
17
90
41
90
40
90
4
90
17
90
18
90
42
90
41
90
4
90
18
90
19
90
43
90
42
90
4
90
19
90
20
90
44
90
43
90
4
90
20
90
21
90
45
90
44
90
4
90
21
90
22
90
46
90
45
90
4
90
22
90
23
90
47
90
46
90
4
90
23
90
0
90
24
90
47
94
0
95
0
90
0
1001
CONDUITCAD
1000
{"id":"3d-vessel-006","label":"Nozzle","feature3d":{"version":1,"kind":"cylinder","parameters":{"radius":9,"height":40,"segments":24},"inputs":[],"suppressed":false},"model3dConsumed":true,"model3dUse
1000
rHidden":false}
0
MESH
5
106
330
118
100
AcDbEntity
8
Equipment
62
7
420
13932626
100
AcDbSubDMesh
71
2
72
0
91
0
92
48
10
35
20
0
30
91
10
35
20
2.3293714059226867
30
91.30666756339838
10
35
20
4.499999999999999
30
92.20577136594005
10
35
20
6.363961030678928
30
93.63603896932108
10
35
20
7.794228634059947
30
95.5
10
35
20
8.693332436601615
30
97.67062859407731
10
35
20
9
30
100
10
35
20
8.693332436601615
30
102.32937140592269
10
35
20
7.794228634059948
30
104.5
10
35
20
6.3639610306789285
30
106.36396103067892
10
35
20
4.499999999999999
30
107.79422863405995
10
35
20
2.3293714059226893
30
108.69333243660161
10
35
20
1.102182119232618e-15
30
109
10
35
20
-2.329371405922687
30
108.69333243660162
10
35
20
-4.499999999999997
30
107.79422863405995
10
35
20
-6.363961030678924
30
106.36396103067894
10
35
20
-7.794228634059946
30
104.5
10
35
20
-8.693332436601615
30
102.32937140592269
10
35
20
-9
30
100
10
35
20
-8.693332436601615
30
97.67062859407731
10
35
20
-7.794228634059947
30
95.5
10
35
20
-6.363961030678929
30
93.63603896932108
10
35
20
-4.5000000000000036
30
92.20577136594005
10
35
20
-2.329371405922694
30
91.30666756339839
10
75
20
0
30
91
10
75
20
2.3293714059226867
30
91.30666756339839
10
75
20
4.499999999999999
30
92.20577136594005
10
75
20
6.363961030678928
30
93.63603896932108
10
75
20
7.794228634059947
30
95.5
10
75
20
8.693332436601615
30
97.67062859407731
10
75
20
9
30
100
10
75
20
8.693332436601615
30
102.32937140592269
10
75
20
7.794228634059948
30
104.5
10
75
20
6.3639610306789285
30
106.36396103067894
10
75
20
4.499999999999999
30
107.79422863405995
10
75
20
2.3293714059226893
30
108.69333243660162
10
75
20
1.102182119232618e-15
30
109
10
75
20
-2.329371405922687
30
108.69333243660162
10
75
20
-4.499999999999997
30
107.79422863405995
10
75
20
-6.363961030678924
30
106.36396103067894
10
75
20
-7.794228634059946
30
104.5
10
75
20
-8.693332436601615
30
102.32937140592269
10
75
20
-9
30
100
10
75
20
-8.693332436601615
30
97.67062859407731
10
75
20
-7.794228634059947
30
95.5
10
75
20
-6.363961030678929
30
93.63603896932108
10
75
20
-4.5000000000000036
30
92.20577136594005
10
75
20
-2.329371405922694
30
91.30666756339839
93
170
90
24
90
23
90
22
90
21
90
20
90
19
90
18
90
17
90
16
90
15
90
14
90
13
90
12
90
11
90
10
90
9
90
8
90
7
90
6
90
5
90
4
90
3
90
2
90
1
90
0
90
24
90
24
90
25
90
26
90
27
90
28
90
29
90
30
90
31
90
32
90
33
90
34
90
35
90
36
90
37
90
38
90
39
90
40
90
41
90
42
90
43
90
44
90
45
90
46
90
47
90
4
90
0
90
1
90
25
90
24
90
4
90
1
90
2
90
26
90
25
90
4
90
2
90
3
90
27
90
26
90
4
90
3
90
4
90
28
90
27
90
4
90
4
90
5
90
29
90
28
90
4
90
5
90
6
90
30
90
29
90
4
90
6
90
7
90
31
90
30
90
4
90
7
90
8
90
32
90
31
90
4
90
8
90
9
90
33
90
32
90
4
90
9
90
10
90
34
90
33
90
4
90
10
90
11
90
35
90
34
90
4
90
11
90
12
90
36
90
35
90
4
90
12
90
13
90
37
90
36
90
4
90
13
90
14
90
38
90
37
90
4
90
14
90
15
90
39
90
38
90
4
90
15
90
16
90
40
90
39
90
4
90
16
90
17
90
41
90
40
90
4
90
17
90
18
90
42
90
41
90
4
90
18
90
19
90
43
90
42
90
4
90
19
90
20
90
44
90
43
90
4
90
20
90
21
90
45
90
44
90
4
90
21
90
22
90
46
90
45
90
4
90
22
90
23
90
47
90
46
90
4
90
23
90
0
90
24
90
47
94
0
95
0
90
0
1001
CONDUITCAD
1000
{"id":"3d-vessel-007","label":"Side nozzle","feature3d":{"version":1,"kind":"transform","parameters":{"ry":90,"dx":35,"dz":"NozzleHeight"},"inputs":["3d-vessel-006"],"suppressed":false},"model3dConsum
1000
ed":false,"model3dUserHidden":false}
0
ENDSEC
0
SECTION
2
OBJECTS
0
DICTIONARY
5
124
330
0
100
AcDbDictionary
281
1
3
ACAD_LAYOUT
350
125
3
ACAD_GROUP
350
126
3
CONDUITCAD_METADATA
350
129
0
DICTIONARY
5
125
330
124
100
AcDbDictionary
281
1
3
Model
350
127
3
Layout1
350
128
0
DICTIONARY
5
126
330
124
100
AcDbDictionary
281
1
0
LAYOUT
5
127
330
125
100
AcDbPlotSettings
1

2

4

6

40
0
41
0
42
0
43
0
44
420
45
297
46
0
47
0
48
0
49
0
140
0
141
0
142
1
143
1
70
0
72
1
73
0
74
5
7

75
16
76
0
77
0
78
300
147
1
148
0
149
0
100
AcDbLayout
1
Model
70
1
71
0
10
0
20
0
11
420
21
297
12
0
22
0
32
0
14
0
24
0
34
0
15
420
25
297
35
0
146
0
13
0
23
0
33
0
16
1
26
0
36
0
17
0
27
1
37
0
76
0
330
118
0
LAYOUT
5
128
330
125
100
AcDbPlotSettings
1

2

4

6

40
0
41
0
42
0
43
0
44
420
45
297
46
0
47
0
48
0
49
0
140
0
141
0
142
1
143
1
70
0
72
1
73
0
74
5
7

75
16
76
0
77
0
78
300
147
1
148
0
149
0
100
AcDbLayout
1
Layout1
70
1
71
1
10
0
20
0
11
420
21
297
12
0
22
0
32
0
14
0
24
0
34
0
15
420
25
297
35
0
146
0
13
0
23
0
33
0
16
1
26
0
36
0
17
0
27
1
37
0
76
0
330
119
0
XRECORD
5
129
330
124
100
AcDbXrecord
280
1
1
{"parameters":{"grid":"10","NozzleHeight":"100"},"constraints":[],"metadata":{"description":"Revolved vessel, support legs and nozzle bodies. A concept model, not a pressure-vessel design.","modeling"
1
:{"version":1,"preferredMode":"3d","example":"vessel","notes":"Editable faceted concept model. Not certified or construction-approved."}}}
0
ENDSEC
0
EOF
