0
SECTION
2
HEADER
9
$ACADVER
1
AC1024
9
$INSUNITS
70
4
9
$LTSCALE
40
1
9
$MEASUREMENT
70
1
9
$HANDSEED
5
185
9
$DWGCODEPAGE
3
ANSI_1252
9
$CLAYER
8
0
9
$TILEMODE
70
1
0
ENDSEC
0
SECTION
2
TABLES
0
TABLE
2
LTYPE
5
148
330
0
100
AcDbSymbolTable
70
4
0
LTYPE
5
149
100
AcDbSymbolTableRecord
100
AcDbLinetypeTableRecord
2
CONTINUOUS
70
0
3
Solid line
72
65
73
0
40
0
330
148
0
LTYPE
5
14A
100
AcDbSymbolTableRecord
100
AcDbLinetypeTableRecord
2
DASHED
70
0
3
DASHED
72
65
73
2
40
12
49
8
74
0
49
-4
74
0
330
148
0
LTYPE
5
14B
100
AcDbSymbolTableRecord
100
AcDbLinetypeTableRecord
2
CENTER
70
0
3
CENTER
72
65
73
4
40
20
49
12
74
0
49
-3
74
0
49
2
74
0
49
-3
74
0
330
148
0
LTYPE
5
14C
100
AcDbSymbolTableRecord
100
AcDbLinetypeTableRecord
2
HIDDEN
70
0
3
HIDDEN
72
65
73
2
40
7
49
4
74
0
49
-3
74
0
330
148
0
ENDTAB
0
TABLE
2
LAYER
5
14D
330
0
100
AcDbSymbolTable
70
6
0
LAYER
5
14E
100
AcDbSymbolTableRecord
100
AcDbLayerTableRecord
2
0
70
0
62
7
420
3426133
6
CONTINUOUS
330
14D
0
LAYER
5
14F
100
AcDbSymbolTableRecord
100
AcDbLayerTableRecord
2
Equipment
70
0
62
7
420
3495011
6
CONTINUOUS
330
14D
0
LAYER
5
150
100
AcDbSymbolTableRecord
100
AcDbLayerTableRecord
2
Process
70
0
62
7
420
1342583
6
CONTINUOUS
330
14D
0
LAYER
5
151
100
AcDbSymbolTableRecord
100
AcDbLayerTableRecord
2
Instruments
70
0
62
7
420
10187334
6
CONTINUOUS
330
14D
0
LAYER
5
152
100
AcDbSymbolTableRecord
100
AcDbLayerTableRecord
2
Electrical
70
0
62
7
420
6584250
6
CONTINUOUS
330
14D
0
LAYER
5
153
100
AcDbSymbolTableRecord
100
AcDbLayerTableRecord
2
Annotations
70
0
62
7
420
7438474
6
CONTINUOUS
330
14D
0
ENDTAB
0
TABLE
2
STYLE
5
154
330
0
100
AcDbSymbolTable
70
1
0
STYLE
5
155
100
AcDbSymbolTableRecord
100
AcDbTextStyleTableRecord
2
STANDARD
70
0
40
0
41
1
50
0
71
0
42
2.5
3
txt
4

330
154
0
ENDTAB
0
TABLE
2
APPID
5
156
330
0
100
AcDbSymbolTable
70
2
0
APPID
5
157
100
AcDbSymbolTableRecord
100
AcDbRegAppTableRecord
2
CONDUITCAD
70
0
330
156
0
APPID
5
17F
100
AcDbSymbolTableRecord
100
AcDbRegAppTableRecord
2
ACAD
70
0
330
156
0
ENDTAB
0
TABLE
2
BLOCK_RECORD
5
158
330
0
100
AcDbSymbolTable
70
11
0
BLOCK_RECORD
5
159
100
AcDbSymbolTableRecord
100
AcDbBlockTableRecord
2
*Model_Space
340
183
330
158
0
BLOCK_RECORD
5
15A
100
AcDbSymbolTableRecord
100
AcDbBlockTableRecord
2
*Paper_Space
340
184
330
158
0
BLOCK_RECORD
5
15B
100
AcDbSymbolTableRecord
100
AcDbBlockTableRecord
2
*DCC1
330
158
0
BLOCK_RECORD
5
15C
100
AcDbSymbolTableRecord
100
AcDbBlockTableRecord
2
*DCC2
330
158
0
BLOCK_RECORD
5
15D
100
AcDbSymbolTableRecord
100
AcDbBlockTableRecord
2
*DCC3
330
158
0
BLOCK_RECORD
5
15E
100
AcDbSymbolTableRecord
100
AcDbBlockTableRecord
2
*DCC4
330
158
0
BLOCK_RECORD
5
15F
100
AcDbSymbolTableRecord
100
AcDbBlockTableRecord
2
*DCC5
330
158
0
BLOCK_RECORD
5
160
100
AcDbSymbolTableRecord
100
AcDbBlockTableRecord
2
*DCC6
330
158
0
BLOCK_RECORD
5
161
100
AcDbSymbolTableRecord
100
AcDbBlockTableRecord
2
*DCC7
330
158
0
BLOCK_RECORD
5
162
100
AcDbSymbolTableRecord
100
AcDbBlockTableRecord
2
*DCC8
330
158
0
BLOCK_RECORD
5
163
100
AcDbSymbolTableRecord
100
AcDbBlockTableRecord
2
*DCC9
330
158
0
ENDTAB
0
TABLE
2
VPORT
5
17A
330
0
100
AcDbSymbolTable
70
0
0
ENDTAB
0
TABLE
2
VIEW
5
17B
330
0
100
AcDbSymbolTable
70
0
0
ENDTAB
0
TABLE
2
UCS
5
17C
330
0
100
AcDbSymbolTable
70
0
0
ENDTAB
0
TABLE
2
DIMSTYLE
5
17D
330
0
100
AcDbSymbolTable
70
1
100
AcDbDimStyleTable
71
0
0
DIMSTYLE
105
17E
330
17D
100
AcDbSymbolTableRecord
100
AcDbDimStyleTableRecord
2
STANDARD
70
0
340
155
0
ENDTAB
0
ENDSEC
0
SECTION
2
BLOCKS
0
BLOCK
5
164
330
159
100
AcDbEntity
8
0
100
AcDbBlockBegin
2
*Model_Space
70
1
10
0
20
0
30
0
3
*Model_Space
1

0
ENDBLK
5
165
330
159
100
AcDbEntity
8
0
100
AcDbBlockEnd
0
BLOCK
5
166
330
15A
100
AcDbEntity
8
0
100
AcDbBlockBegin
2
*Paper_Space
70
1
10
0
20
0
30
0
3
*Paper_Space
1

0
ENDBLK
5
167
330
15A
100
AcDbEntity
8
0
100
AcDbBlockEnd
0
BLOCK
5
168
330
15B
100
AcDbEntity
8
0
100
AcDbBlockBegin
2
*DCC1
70
1
10
0
20
0
30
0
3
*DCC1
1

0
LINE
5
11D
330
15B
100
AcDbEntity
8
0
62
0
6
CONTINUOUS
100
AcDbLine
10
-0.447213595499958
20
0.894427190999916
30
0
11
-18.236067977499793
21
36.47213595499959
31
0
0
LINE
5
11E
330
15B
100
AcDbEntity
8
0
62
0
6
CONTINUOUS
100
AcDbLine
10
99.55278640450004
20
50.89442719099991
30
0
11
81.76393202250023
21
86.4721359549996
31
0
0
LINE
5
11F
330
15B
100
AcDbEntity
8
0
62
0
6
CONTINUOUS
100
AcDbLine
10
-16.000000000000004
20
32.00000000000001
30
0
11
84.00000000000001
21
82.00000000000001
31
0
0
SOLID
5
120
330
15B
100
AcDbEntity
8
0
62
0
6
CONTINUOUS
100
AcDbTrace
10
-16.000000000000004
20
32.00000000000001
30
0
11
-12.153963078700365
21
35.48826604489968
31
0
12
-10.901765011300483
22
32.98386991009991
32
0
13
-10.901765011300483
23
32.98386991009991
33
0
0
SOLID
5
121
330
15B
100
AcDbEntity
8
0
62
0
6
CONTINUOUS
100
AcDbTrace
10
84.00000000000001
20
82.00000000000001
30
0
11
80.15396307870037
21
78.51173395510034
31
0
12
78.9017650113005
22
81.0161300899001
32
0
13
78.9017650113005
23
81.0161300899001
33
0
0
TEXT
5
122
330
15B
100
AcDbEntity
8
0
62
0
6
CONTINUOUS
100
AcDbText
10
29.975077640500384
20
65.04984471899925
30
0
40
12
1
111.8
50
26.56505117707799
41
1
7
STANDARD
72
1
11
29.975077640500384
21
65.04984471899925
31
0
100
AcDbText
73
2
0
ENDBLK
5
169
330
15B
100
AcDbEntity
8
0
100
AcDbBlockEnd
0
BLOCK
5
16A
330
15C
100
AcDbEntity
8
0
100
AcDbBlockBegin
2
*DCC2
70
1
10
0
20
0
30
0
3
*DCC2
1

0
LINE
5
123
330
15C
100
AcDbEntity
8
0
62
0
6
CONTINUOUS
100
AcDbLine
10
0
20
1
30
0
11
0
21
85
31
0
0
LINE
5
124
330
15C
100
AcDbEntity
8
0
62
0
6
CONTINUOUS
100
AcDbLine
10
100
20
51
30
0
11
100
21
85
31
0
0
LINE
5
125
330
15C
100
AcDbEntity
8
0
62
0
6
CONTINUOUS
100
AcDbLine
10
0
20
80
30
0
11
100
21
80
31
0
0
SOLID
5
126
330
15C
100
AcDbEntity
8
0
62
0
6
CONTINUOUS
100
AcDbTrace
10
0
20
80
30
0
11
5
21
81.4
31
0
12
5
22
78.6
32
0
13
5
23
78.6
33
0
0
SOLID
5
127
330
15C
100
AcDbEntity
8
0
62
0
6
CONTINUOUS
100
AcDbTrace
10
100
20
80
30
0
11
95
21
78.6
31
0
12
95
22
81.4
32
0
13
95
23
81.4
33
0
0
TEXT
5
128
330
15C
100
AcDbEntity
8
0
62
0
6
CONTINUOUS
100
AcDbText
10
50
20
89
30
0
40
12
1
100.0
50
0
41
1
7
STANDARD
72
1
11
50
21
89
31
0
100
AcDbText
73
2
0
ENDBLK
5
16B
330
15C
100
AcDbEntity
8
0
100
AcDbBlockEnd
0
BLOCK
5
16C
330
15D
100
AcDbEntity
8
0
100
AcDbBlockBegin
2
*DCC3
70
1
10
0
20
0
30
0
3
*DCC3
1

0
LINE
5
129
330
15D
100
AcDbEntity
8
0
62
0
6
CONTINUOUS
100
AcDbLine
10
-1
20
6.123233995736766e-17
30
0
11
-45
21
2.7554552980815448e-15
31
0
0
LINE
5
12A
330
15D
100
AcDbEntity
8
0
62
0
6
CONTINUOUS
100
AcDbLine
10
99
20
50
30
0
11
-45
21
50.00000000000001
31
0
0
LINE
5
12B
330
15D
100
AcDbEntity
8
0
62
0
6
CONTINUOUS
100
AcDbLine
10
-40
20
2.4492935982947065e-15
30
0
11
-40
21
50.00000000000001
31
0
0
SOLID
5
12C
330
15D
100
AcDbEntity
8
0
62
0
6
CONTINUOUS
100
AcDbTrace
10
-40
20
2.4492935982947065e-15
30
0
11
-41.4
21
5.000000000000003
31
0
12
-38.6
22
5.000000000000003
32
0
13
-38.6
23
5.000000000000003
33
0
0
SOLID
5
12D
330
15D
100
AcDbEntity
8
0
62
0
6
CONTINUOUS
100
AcDbTrace
10
-40
20
50.00000000000001
30
0
11
-38.6
21
45.00000000000001
31
0
12
-41.4
22
45.00000000000001
32
0
13
-41.4
23
45.00000000000001
33
0
0
TEXT
5
12E
330
15D
100
AcDbEntity
8
0
62
0
6
CONTINUOUS
100
AcDbText
10
-49
20
25.000000000000004
30
0
40
12
1
50.0
50
90
41
1
7
STANDARD
72
1
11
-49
21
25.000000000000004
31
0
100
AcDbText
73
2
0
ENDBLK
5
16D
330
15D
100
AcDbEntity
8
0
100
AcDbBlockEnd
0
BLOCK
5
16E
330
15E
100
AcDbEntity
8
0
100
AcDbBlockBegin
2
*DCC4
70
1
10
0
20
0
30
0
3
*DCC4
1

0
LINE
5
12F
330
15E
100
AcDbEntity
8
0
62
0
6
CONTINUOUS
100
AcDbLine
10
0
20
0
30
0
11
40
21
0
31
0
0
SOLID
5
130
330
15E
100
AcDbEntity
8
0
62
0
6
CONTINUOUS
100
AcDbTrace
10
40
20
0
30
0
11
35
21
-1.4000000000000001
31
0
12
35
22
1.4000000000000001
32
0
13
35
23
1.4000000000000001
33
0
0
TEXT
5
131
330
15E
100
AcDbEntity
8
0
62
0
6
CONTINUOUS
100
AcDbText
10
40
20
9
30
0
40
12
1
R40.0
50
0
41
1
7
STANDARD
72
1
11
40
21
9
31
0
100
AcDbText
73
2
0
ENDBLK
5
16F
330
15E
100
AcDbEntity
8
0
100
AcDbBlockEnd
0
BLOCK
5
170
330
15F
100
AcDbEntity
8
0
100
AcDbBlockBegin
2
*DCC5
70
1
10
0
20
0
30
0
3
*DCC5
1

0
LINE
5
132
330
15F
100
AcDbEntity
8
0
62
0
6
CONTINUOUS
100
AcDbLine
10
0
20
0
30
0
11
80
21
0
31
0
0
SOLID
5
133
330
15F
100
AcDbEntity
8
0
62
0
6
CONTINUOUS
100
AcDbTrace
10
80
20
0
30
0
11
75
21
-1.4000000000000001
31
0
12
75
22
1.4000000000000001
32
0
13
75
23
1.4000000000000001
33
0
0
SOLID
5
134
330
15F
100
AcDbEntity
8
0
62
0
6
CONTINUOUS
100
AcDbTrace
10
0
20
0
30
0
11
5
21
1.4000000000000001
31
0
12
5
22
-1.4000000000000001
32
0
13
5
23
-1.4000000000000001
33
0
0
TEXT
5
135
330
15F
100
AcDbEntity
8
0
62
0
6
CONTINUOUS
100
AcDbText
10
40
20
9
30
0
40
12
1
⌀80.0
50
0
41
1
7
STANDARD
72
1
11
40
21
9
31
0
100
AcDbText
73
2
0
ENDBLK
5
171
330
15F
100
AcDbEntity
8
0
100
AcDbBlockEnd
0
BLOCK
5
172
330
160
100
AcDbEntity
8
0
100
AcDbBlockBegin
2
*DCC6
70
1
10
0
20
0
30
0
3
*DCC6
1

0
LINE
5
136
330
160
100
AcDbEntity
8
0
62
0
6
CONTINUOUS
100
AcDbLine
10
81
20
0
30
0
11
47.42640687119285
21
0
31
0
0
LINE
5
137
330
160
100
AcDbEntity
8
0
62
0
6
CONTINUOUS
100
AcDbLine
10
6.123233995736766e-17
20
81
30
0
11
2.9040298684933183e-15
21
47.42640687119285
31
0
0
ARC
5
138
330
160
100
AcDbEntity
8
0
62
0
6
CONTINUOUS
100
AcDbCircle
10
0
20
0
30
0
40
42.42640687119285
100
AcDbArc
50
0
51
90
0
SOLID
5
139
330
160
100
AcDbEntity
8
0
62
0
6
CONTINUOUS
100
AcDbTrace
10
42.42640687119285
20
0
30
0
11
41.026406871192854
21
5
31
0
12
43.82640687119285
22
5
32
0
13
43.82640687119285
23
5
33
0
0
SOLID
5
13A
330
160
100
AcDbEntity
8
0
62
0
6
CONTINUOUS
100
AcDbTrace
10
2.59786816870648e-15
20
42.42640687119285
30
0
11
5.000000000000003
21
43.82640687119285
31
0
12
5.000000000000003
22
41.026406871192854
32
0
13
5.000000000000003
23
41.026406871192854
33
0
0
TEXT
5
13B
330
160
100
AcDbEntity
8
0
62
0
6
CONTINUOUS
100
AcDbText
10
36.36396103067893
20
36.36396103067892
30
0
40
12
1
90.0°
50
0
41
1
7
STANDARD
72
1
11
36.36396103067893
21
36.36396103067892
31
0
100
AcDbText
73
2
0
ENDBLK
5
173
330
160
100
AcDbEntity
8
0
100
AcDbBlockEnd
0
BLOCK
5
174
330
161
100
AcDbEntity
8
0
100
AcDbBlockBegin
2
*DCC7
70
1
10
0
20
0
30
0
3
*DCC7
1

0
LINE
5
13C
330
161
100
AcDbEntity
8
0
62
0
6
CONTINUOUS
100
AcDbLine
10
81
20
0
30
0
11
47.42640687119285
21
0
31
0
0
LINE
5
13D
330
161
100
AcDbEntity
8
0
62
0
6
CONTINUOUS
100
AcDbLine
10
6.123233995736766e-17
20
81
30
0
11
2.9040298684933183e-15
21
47.42640687119285
31
0
0
ARC
5
13E
330
161
100
AcDbEntity
8
0
62
0
6
CONTINUOUS
100
AcDbCircle
10
0
20
0
30
0
40
42.42640687119285
100
AcDbArc
50
0
51
90
0
SOLID
5
13F
330
161
100
AcDbEntity
8
0
62
0
6
CONTINUOUS
100
AcDbTrace
10
42.42640687119285
20
0
30
0
11
41.026406871192854
21
5
31
0
12
43.82640687119285
22
5
32
0
13
43.82640687119285
23
5
33
0
0
SOLID
5
140
330
161
100
AcDbEntity
8
0
62
0
6
CONTINUOUS
100
AcDbTrace
10
2.59786816870648e-15
20
42.42640687119285
30
0
11
5.000000000000003
21
43.82640687119285
31
0
12
5.000000000000003
22
41.026406871192854
32
0
13
5.000000000000003
23
41.026406871192854
33
0
0
TEXT
5
141
330
161
100
AcDbEntity
8
0
62
0
6
CONTINUOUS
100
AcDbText
10
36.36396103067893
20
36.36396103067892
30
0
40
12
1
90.0°
50
0
41
1
7
STANDARD
72
1
11
36.36396103067893
21
36.36396103067892
31
0
100
AcDbText
73
2
0
ENDBLK
5
175
330
161
100
AcDbEntity
8
0
100
AcDbBlockEnd
0
BLOCK
5
176
330
162
100
AcDbEntity
8
0
100
AcDbBlockBegin
2
*DCC8
70
1
10
0
20
0
30
0
3
*DCC8
1

0
LINE
5
142
330
162
100
AcDbEntity
8
0
62
0
6
CONTINUOUS
100
AcDbLine
10
40
20
50
30
0
11
40
21
90
31
0
0
LINE
5
143
330
162
100
AcDbEntity
8
0
62
0
6
CONTINUOUS
100
AcDbLine
10
40
20
90
30
0
11
70
21
90
31
0
0
TEXT
5
144
330
162
100
AcDbEntity
8
0
62
0
6
CONTINUOUS
100
AcDbText
10
79
20
99
30
0
40
12
1
40.0
50
0
41
1
7
STANDARD
72
1
11
79
21
99
31
0
100
AcDbText
73
2
0
ENDBLK
5
177
330
162
100
AcDbEntity
8
0
100
AcDbBlockEnd
0
BLOCK
5
178
330
163
100
AcDbEntity
8
0
100
AcDbBlockBegin
2
*DCC9
70
1
10
0
20
0
30
0
3
*DCC9
1

0
LINE
5
145
330
163
100
AcDbEntity
8
0
62
0
6
CONTINUOUS
100
AcDbLine
10
40
20
50
30
0
11
70
21
50
31
0
0
LINE
5
146
330
163
100
AcDbEntity
8
0
62
0
6
CONTINUOUS
100
AcDbLine
10
70
20
50
30
0
11
70
21
90
31
0
0
TEXT
5
147
330
163
100
AcDbEntity
8
0
62
0
6
CONTINUOUS
100
AcDbText
10
79
20
99
30
0
40
12
1
50.0
50
0
41
1
7
STANDARD
72
1
11
79
21
99
31
0
100
AcDbText
73
2
0
ENDBLK
5
179
330
163
100
AcDbEntity
8
0
100
AcDbBlockEnd
0
ENDSEC
0
SECTION
2
ENTITIES
0
ARC
5
100
330
159
100
AcDbEntity
8
0
100
AcDbCircle
10
50
20
0
30
0
40
50
100
AcDbArc
50
0
51
180
0
ARC
5
101
330
159
100
AcDbEntity
8
0
100
AcDbCircle
10
0
20
0
30
0
40
40
100
AcDbArc
50
0
51
90
0
CIRCLE
5
102
330
159
100
AcDbEntity
8
0
100
AcDbCircle
10
50
20
0
30
0
40
50
0
CIRCLE
5
103
330
159
100
AcDbEntity
8
0
100
AcDbCircle
10
50
20
0
30
0
40
50
0
ELLIPSE
5
104
330
159
100
AcDbEntity
8
0
100
AcDbEllipse
10
0
20
0
30
0
11
80
21
0
31
0
40
0.5
41
0
42
6.283185307179586
0
ELLIPSE
5
105
330
159
100
AcDbEntity
8
0
100
AcDbEllipse
10
0
20
0
30
0
11
80
21
0
31
0
40
0.5
41
0
42
1.5707963267948966
0
SPLINE
5
106
330
159
100
AcDbEntity
8
0
100
AcDbSpline
70
8
71
3
72
14
73
10
74
0
40
0
40
0
40
0
40
0
40
1
40
1
40
1
40
2
40
2
40
2
40
3
40
3
40
3
40
3
10
0
20
0
30
0
10
10
20
16.666666666666664
30
0
10
15
20
51.666666666666664
30
0
10
30
20
50
30
0
10
45
20
48.333333333333336
30
0
10
71.66666666666667
20
-5
30
0
10
90
20
-10
30
0
10
108.33333333333333
20
-15
30
0
10
123.33333333333334
20
10
30
0
10
140
20
20
30
0
0
SPLINE
5
107
330
159
100
AcDbEntity
8
0
100
AcDbSpline
70
8
71
3
72
8
73
4
74
0
40
0
40
0
40
0
40
0
40
1
40
1
40
1
40
1
10
0
20
0
30
0
10
30
20
80
30
0
10
70
20
-50
30
0
10
100
20
0
30
0
0
LWPOLYLINE
5
108
330
159
100
AcDbEntity
8
0
100
AcDbPolyline
90
6
70
1
10
50
20
0
10
25.000000000000007
20
43.30127018922193
10
-24.99999999999999
20
43.30127018922194
10
-50
20
6.123233995736766e-15
10
-25.00000000000002
20
-43.301270189221924
10
25.000000000000007
20
-43.30127018922193
0
LWPOLYLINE
5
109
330
159
100
AcDbEntity
8
0
100
AcDbPolyline
90
2
70
1
43
20
10
-30
20
0
42
1
10
30
20
0
42
1
0
SOLID
5
10A
330
159
100
AcDbEntity
8
0
100
AcDbTrace
10
0
20
0
30
0
11
80
21
0
31
0
12
10
22
40
32
0
13
70
23
50
33
0
0
3DFACE
5
10B
330
159
100
AcDbEntity
8
0
100
AcDbFace
70
0
10
0
20
0
30
0
11
80
21
0
31
0
12
70
22
50
32
0
13
10
23
40
33
0
0
HATCH
5
10C
330
159
100
AcDbEntity
8
0
100
AcDbHatch
10
0
20
0
30
0
210
0
220
0
230
1
2
USER
70
0
71
0
91
1
92
2
72
0
73
1
93
4
10
0
20
0
10
80
20
0
10
60
20
50
10
0
20
40
97
0
75
0
76
0
52
29.999999999999996
41
1
77
0
78
2
53
29.999999999999996
43
0
44
0
45
-4.999999999999999
46
8.660254037844387
79
0
53
119.99999999999999
43
0
44
0
45
-8.660254037844387
46
-4.999999999999998
79
0
98
0
0
WIPEOUT
5
10D
330
159
100
AcDbEntity
8
0
100
AcDbWipeout
90
0
10
0
20
0
30
0
11
80
21
0
31
0
12
0
22
80
32
0
13
1
23
1
70
7
280
1
281
50
282
50
283
0
71
2
91
5
14
-0.5
24
0.5
14
0.5
24
0.5
14
0.25
24
-0.125
14
-0.5
24
0
14
-0.5
24
0.5
0
POINT
5
10E
330
159
100
AcDbEntity
8
0
100
AcDbPoint
10
12
20
23
30
0
0
RAY
5
10F
330
159
100
AcDbEntity
8
0
100
AcDbRay
10
0
20
0
30
0
11
0.8944271909999157
21
0.44721359549995787
31
0
0
XLINE
5
110
330
159
100
AcDbEntity
8
0
100
AcDbXline
10
0
20
0
30
0
11
0.8944271909999157
21
0.44721359549995787
31
0
0
MTEXT
5
111
330
159
100
AcDbEntity
8
0
100
AcDbMText
10
0
20
60
30
0
40
10
41
100
71
1
7
STANDARD
1
Native MTEXT\PSecond line
11
1
21
0
31
0
73
1
44
1
0
LEADER
5
112
330
159
100
AcDbEntity
8
0
100
AcDbLeader
3
STANDARD
71
1
72
0
73
3
74
0
75
0
76
3
10
0
20
0
30
0
10
40
20
40
30
0
10
100
20
40
30
0
0
DIMENSION
5
113
330
159
100
AcDbEntity
8
0
100
AcDbDimension
2
*DCC1
10
84.00000000000001
20
82.00000000000001
30
0
11
29.975077640500384
21
65.04984471899925
31
0
70
33
1
<>
3
STANDARD
42
111.80339887498948
100
AcDbAlignedDimension
13
0
23
0
33
0
14
100
24
50
34
0
1001
ACAD
1000
DSTYLE
1002
{
1070
140
1040
12
1070
41
1040
5
1070
44
1040
5
1070
42
1040
1
1070
147
1040
3
1070
40
1040
1
1070
144
1040
1
1070
271
1070
1
1070
45
1040
0
1070
3
1000
<>
1070
78
1070
0
1002
}
0
DIMENSION
5
114
330
159
100
AcDbEntity
8
0
100
AcDbDimension
2
*DCC2
10
100
20
80
30
0
11
50
21
89
31
0
70
32
1
<>
3
STANDARD
42
100
100
AcDbAlignedDimension
13
0
23
0
33
0
14
100
24
50
34
0
50
0
100
AcDbRotatedDimension
1001
ACAD
1000
DSTYLE
1002
{
1070
140
1040
12
1070
41
1040
5
1070
44
1040
5
1070
42
1040
1
1070
147
1040
3
1070
40
1040
1
1070
144
1040
1
1070
271
1070
1
1070
45
1040
0
1070
3
1000
<>
1070
78
1070
0
1002
}
0
DIMENSION
5
115
330
159
100
AcDbEntity
8
0
100
AcDbDimension
2
*DCC3
10
-40
20
50.00000000000001
30
0
11
-49
21
25.000000000000004
31
0
70
32
1
<>
3
STANDARD
42
50.00000000000001
100
AcDbAlignedDimension
13
0
23
0
33
0
14
100
24
50
34
0
50
90
100
AcDbRotatedDimension
1001
ACAD
1000
DSTYLE
1002
{
1070
140
1040
12
1070
41
1040
5
1070
44
1040
5
1070
42
1040
1
1070
147
1040
3
1070
40
1040
1
1070
144
1040
1
1070
271
1070
1
1070
45
1040
0
1070
3
1000
<>
1070
78
1070
0
1002
}
0
DIMENSION
5
116
330
159
100
AcDbEntity
8
0
100
AcDbDimension
2
*DCC4
10
0
20
0
30
0
11
40
21
9
31
0
70
36
1
<>
3
STANDARD
42
40
100
AcDbRadialDimension
15
40
25
0
35
0
40
0
1001
ACAD
1000
DSTYLE
1002
{
1070
140
1040
12
1070
41
1040
5
1070
44
1040
5
1070
42
1040
1
1070
147
1040
3
1070
40
1040
1
1070
144
1040
1
1070
271
1070
1
1070
45
1040
0
1070
3
1000
<>
1070
78
1070
0
1002
}
0
DIMENSION
5
117
330
159
100
AcDbEntity
8
0
100
AcDbDimension
2
*DCC5
10
0
20
0
30
0
11
40
21
9
31
0
70
35
1
<>
3
STANDARD
42
80
100
AcDbDiametricDimension
15
80
25
0
35
0
40
0
1001
ACAD
1000
DSTYLE
1002
{
1070
140
1040
12
1070
41
1040
5
1070
44
1040
5
1070
42
1040
1
1070
147
1040
3
1070
40
1040
1
1070
144
1040
1
1070
271
1070
1
1070
45
1040
0
1070
3
1000
<>
1070
78
1070
0
1002
}
0
DIMENSION
5
118
330
159
100
AcDbEntity
8
0
100
AcDbDimension
2
*DCC6
10
30
20
30
30
0
11
36.36396103067893
21
36.36396103067892
31
0
70
37
1
<>
3
STANDARD
42
90
100
AcDb3PointAngularDimension
13
80
23
0
33
0
14
0
24
80
34
0
15
0
25
0
35
0
1001
ACAD
1000
DSTYLE
1002
{
1070
140
1040
12
1070
41
1040
5
1070
44
1040
5
1070
42
1040
1
1070
147
1040
3
1070
40
1040
1
1070
144
1040
1
1070
271
1070
1
1070
45
1040
0
1070
3
1000
<>
1070
78
1070
0
1002
}
0
DIMENSION
5
119
330
159
100
AcDbEntity
8
0
100
AcDbDimension
2
*DCC7
10
0
20
80
30
0
11
36.36396103067893
21
36.36396103067892
31
0
70
34
1
<>
3
STANDARD
42
90
100
AcDb2LineAngularDimension
13
0
23
0
33
0
14
80
24
0
34
0
15
0
25
0
35
0
16
30
26
30
36
0
1001
ACAD
1000
DSTYLE
1002
{
1070
140
1040
12
1070
41
1040
5
1070
44
1040
5
1070
42
1040
1
1070
147
1040
3
1070
40
1040
1
1070
144
1040
1
1070
271
1070
1
1070
45
1040
0
1070
3
1000
<>
1070
78
1070
0
1002
}
0
DIMENSION
5
11A
330
159
100
AcDbEntity
8
0
100
AcDbDimension
2
*DCC8
10
0
20
0
30
0
11
79
21
99
31
0
70
102
1
<>
3
STANDARD
42
40
100
AcDbOrdinateDimension
13
40
23
50
33
0
14
70
24
90
34
0
1001
ACAD
1000
DSTYLE
1002
{
1070
140
1040
12
1070
41
1040
5
1070
44
1040
5
1070
42
1040
1
1070
147
1040
3
1070
40
1040
1
1070
144
1040
1
1070
271
1070
1
1070
45
1040
0
1070
3
1000
<>
1070
78
1070
0
1002
}
0
DIMENSION
5
11B
330
159
100
AcDbEntity
8
0
100
AcDbDimension
2
*DCC9
10
0
20
0
30
0
11
79
21
99
31
0
70
38
1
<>
3
STANDARD
42
50
100
AcDbOrdinateDimension
13
40
23
50
33
0
14
70
24
90
34
0
1001
ACAD
1000
DSTYLE
1002
{
1070
140
1040
12
1070
41
1040
5
1070
44
1040
5
1070
42
1040
1
1070
147
1040
3
1070
40
1040
1
1070
144
1040
1
1070
271
1070
1
1070
45
1040
0
1070
3
1000
<>
1070
78
1070
0
1002
}
0
HATCH
5
11C
330
159
100
AcDbEntity
8
0
100
AcDbHatch
10
0
20
0
30
0
210
0
220
0
230
1
2
USER
70
0
71
0
91
2
92
0
93
1
72
2
10
0
20
0
40
80
50
0
51
360
73
1
97
0
92
0
93
1
72
3
10
0
20
0
11
30
21
0
40
0.5
50
0
51
360
73
1
97
0
75
0
76
0
52
25
41
1
77
0
78
1
53
25
43
0
44
0
45
-3.3809460939255955
46
7.2504622962931995
79
0
98
0
0
ENDSEC
0
SECTION
2
OBJECTS
0
DICTIONARY
5
180
330
0
100
AcDbDictionary
281
1
3
ACAD_LAYOUT
350
181
3
ACAD_GROUP
350
182
0
DICTIONARY
5
181
330
180
100
AcDbDictionary
281
1
3
Model
350
183
3
Layout1
350
184
0
DICTIONARY
5
182
330
180
100
AcDbDictionary
281
1
0
LAYOUT
5
183
330
181
100
AcDbPlotSettings
1

2

4

6

40
0
41
0
42
0
43
0
44
420
45
297
46
0
47
0
48
0
49
0
140
0
141
0
142
1
143
1
70
0
72
1
73
0
74
5
7

75
16
76
0
77
0
78
300
147
1
148
0
149
0
100
AcDbLayout
1
Model
70
1
71
0
10
0
20
0
11
420
21
297
12
0
22
0
32
0
14
0
24
0
34
0
15
420
25
297
35
0
146
0
13
0
23
0
33
0
16
1
26
0
36
0
17
0
27
1
37
0
76
0
330
159
0
LAYOUT
5
184
330
181
100
AcDbPlotSettings
1

2

4

6

40
0
41
0
42
0
43
0
44
420
45
297
46
0
47
0
48
0
49
0
140
0
141
0
142
1
143
1
70
0
72
1
73
0
74
5
7

75
16
76
0
77
0
78
300
147
1
148
0
149
0
100
AcDbLayout
1
Layout1
70
1
71
1
10
0
20
0
11
420
21
297
12
0
22
0
32
0
14
0
24
0
34
0
15
420
25
297
35
0
146
0
13
0
23
0
33
0
16
1
26
0
36
0
17
0
27
1
37
0
76
0
330
15A
0
ENDSEC
0
EOF
