0
SECTION
2
HEADER
9
$ACADVER
1
AC1024
9
$INSUNITS
70
4
9
$LTSCALE
40
1
9
$MEASUREMENT
70
1
999
CONDUIT:{"parameters":{"grid":"10","pipeWidth":"2","valveSize":"64"},"constraints":[],"metadata":{"author":"","description":""}}
9
$HANDSEED
5
16E
9
$DWGCODEPAGE
3
ANSI_1252
9
$CLAYER
8
0
9
$TILEMODE
70
1
0
ENDSEC
0
SECTION
2
TABLES
0
TABLE
2
LTYPE
5
12D
330
0
100
AcDbSymbolTable
70
4
0
LTYPE
5
12E
100
AcDbSymbolTableRecord
100
AcDbLinetypeTableRecord
2
CONTINUOUS
70
0
3
Solid line
72
65
73
0
40
0
330
12D
0
LTYPE
5
12F
100
AcDbSymbolTableRecord
100
AcDbLinetypeTableRecord
2
DASHED
70
0
3
DASHED
72
65
73
2
40
12
49
8
74
0
49
-4
74
0
330
12D
0
LTYPE
5
130
100
AcDbSymbolTableRecord
100
AcDbLinetypeTableRecord
2
CENTER
70
0
3
CENTER
72
65
73
4
40
20
49
12
74
0
49
-3
74
0
49
2
74
0
49
-3
74
0
330
12D
0
LTYPE
5
131
100
AcDbSymbolTableRecord
100
AcDbLinetypeTableRecord
2
HIDDEN
70
0
3
HIDDEN
72
65
73
2
40
7
49
4
74
0
49
-3
74
0
330
12D
0
ENDTAB
0
TABLE
2
LAYER
5
132
330
0
100
AcDbSymbolTable
70
6
0
LAYER
5
133
100
AcDbSymbolTableRecord
100
AcDbLayerTableRecord
2
0
70
0
62
7
420
3426133
6
CONTINUOUS
330
132
0
LAYER
5
134
100
AcDbSymbolTableRecord
100
AcDbLayerTableRecord
2
Equipment
70
0
62
7
420
3495011
6
CONTINUOUS
330
132
0
LAYER
5
135
100
AcDbSymbolTableRecord
100
AcDbLayerTableRecord
2
Process
70
0
62
7
420
1342583
6
CONTINUOUS
330
132
0
LAYER
5
136
100
AcDbSymbolTableRecord
100
AcDbLayerTableRecord
2
Instruments
70
0
62
7
420
10187334
6
CONTINUOUS
330
132
0
LAYER
5
137
100
AcDbSymbolTableRecord
100
AcDbLayerTableRecord
2
Electrical
70
0
62
7
420
6584250
6
CONTINUOUS
330
132
0
LAYER
5
138
100
AcDbSymbolTableRecord
100
AcDbLayerTableRecord
2
Annotations
70
0
62
7
420
7438474
6
CONTINUOUS
330
132
0
ENDTAB
0
TABLE
2
STYLE
5
139
330
0
100
AcDbSymbolTable
70
1
0
STYLE
5
13A
100
AcDbSymbolTableRecord
100
AcDbTextStyleTableRecord
2
STANDARD
70
0
40
0
41
1
50
0
71
0
42
2.5
3
txt
4

330
139
0
ENDTAB
0
TABLE
2
APPID
5
13B
330
0
100
AcDbSymbolTable
70
2
0
APPID
5
13C
100
AcDbSymbolTableRecord
100
AcDbRegAppTableRecord
2
CONDUITCAD
70
0
330
13B
0
APPID
5
167
100
AcDbSymbolTableRecord
100
AcDbRegAppTableRecord
2
ACAD
70
0
330
13B
0
ENDTAB
0
TABLE
2
BLOCK_RECORD
5
13D
330
0
100
AcDbSymbolTable
70
12
0
BLOCK_RECORD
5
13E
100
AcDbSymbolTableRecord
100
AcDbBlockTableRecord
2
*Model_Space
340
16B
330
13D
0
BLOCK_RECORD
5
13F
100
AcDbSymbolTableRecord
100
AcDbBlockTableRecord
2
*Paper_Space
340
16C
330
13D
0
BLOCK_RECORD
5
140
100
AcDbSymbolTableRecord
100
AcDbBlockTableRecord
2
Variable
330
13D
0
BLOCK_RECORD
5
141
100
AcDbSymbolTableRecord
100
AcDbBlockTableRecord
2
*UCC1
330
13D
0
BLOCK_RECORD
5
142
100
AcDbSymbolTableRecord
100
AcDbBlockTableRecord
2
*UCC2
330
13D
0
BLOCK_RECORD
5
143
100
AcDbSymbolTableRecord
100
AcDbBlockTableRecord
2
*DCC1
330
13D
0
BLOCK_RECORD
5
144
100
AcDbSymbolTableRecord
100
AcDbBlockTableRecord
2
*DCC2
330
13D
0
BLOCK_RECORD
5
145
100
AcDbSymbolTableRecord
100
AcDbBlockTableRecord
2
*DCC3
330
13D
0
BLOCK_RECORD
5
146
100
AcDbSymbolTableRecord
100
AcDbBlockTableRecord
2
*DCC4
330
13D
0
BLOCK_RECORD
5
147
100
AcDbSymbolTableRecord
100
AcDbBlockTableRecord
2
*DCC5
330
13D
0
BLOCK_RECORD
5
148
100
AcDbSymbolTableRecord
100
AcDbBlockTableRecord
2
*DCC6
330
13D
0
BLOCK_RECORD
5
149
100
AcDbSymbolTableRecord
100
AcDbBlockTableRecord
2
*DCC7
330
13D
0
ENDTAB
0
TABLE
2
VPORT
5
162
330
0
100
AcDbSymbolTable
70
0
0
ENDTAB
0
TABLE
2
VIEW
5
163
330
0
100
AcDbSymbolTable
70
0
0
ENDTAB
0
TABLE
2
UCS
5
164
330
0
100
AcDbSymbolTable
70
0
0
ENDTAB
0
TABLE
2
DIMSTYLE
5
165
330
0
100
AcDbSymbolTable
70
1
100
AcDbDimStyleTable
71
0
0
DIMSTYLE
105
166
330
165
100
AcDbSymbolTableRecord
100
AcDbDimStyleTableRecord
2
STANDARD
70
0
340
13A
0
ENDTAB
0
ENDSEC
0
SECTION
2
BLOCKS
0
BLOCK
5
14A
330
13E
100
AcDbEntity
8
0
100
AcDbBlockBegin
2
*Model_Space
70
1
10
0
20
0
30
0
3
*Model_Space
1

1001
CONDUITCAD
1000
{"ports":[]}
0
ENDBLK
5
14B
330
13E
100
AcDbEntity
8
0
100
AcDbBlockEnd
0
BLOCK
5
14C
330
13F
100
AcDbEntity
8
0
100
AcDbBlockBegin
2
*Paper_Space
70
1
10
0
20
0
30
0
3
*Paper_Space
1

1001
CONDUITCAD
1000
{"ports":[]}
0
ENDBLK
5
14D
330
13F
100
AcDbEntity
8
0
100
AcDbBlockEnd
0
BLOCK
5
14E
330
140
100
AcDbEntity
8
0
100
AcDbBlockBegin
2
Variable
70
0
10
0
20
0
30
0
3
Variable
1

1001
CONDUITCAD
1000
{"ports":[],"dynamic":{"version":1,"parameters":[{"name":"Length","type":"distance","default":100,"min":1,"max":500}],"actions":[{"type":"stretch","parameter":"Length","box":{"minX":50,"minY":-1,"maxX
1000
":500,"maxY":21},"direction":{"x":1,"y":0}}]}}
0
LWPOLYLINE
5
109
330
140
100
AcDbEntity
8
0
100
AcDbPolyline
90
4
70
1
10
0
20
0
10
100
20
0
10
100
20
20
10
0
20
20
1001
CONDUITCAD
1000
{"id":"body"}
0
ENDBLK
5
14F
330
140
100
AcDbEntity
8
0
100
AcDbBlockEnd
0
BLOCK
5
150
330
141
100
AcDbEntity
8
0
100
AcDbBlockBegin
2
*UCC1
70
1
10
0
20
0
30
0
3
*UCC1
1

1001
CONDUITCAD
1000
{"ports":[],"dynamicInstance":{"master":"Variable","values":{"Length":125}}}
0
LWPOLYLINE
5
10A
330
141
100
AcDbEntity
8
0
100
AcDbPolyline
90
4
70
1
10
0
20
0
10
125
20
0
10
125
20
20
10
0
20
20
1001
CONDUITCAD
1000
{"id":"body"}
0
ENDBLK
5
151
330
141
100
AcDbEntity
8
0
100
AcDbBlockEnd
0
BLOCK
5
152
330
142
100
AcDbEntity
8
0
100
AcDbBlockBegin
2
*UCC2
70
1
10
0
20
0
30
0
3
*UCC2
1

1001
CONDUITCAD
1000
{"ports":[],"dynamicInstance":{"master":"Variable","values":{"Length":250}}}
0
LWPOLYLINE
5
10B
330
142
100
AcDbEntity
8
0
100
AcDbPolyline
90
4
70
1
10
0
20
0
10
250
20
0
10
250
20
20
10
0
20
20
1001
CONDUITCAD
1000
{"id":"body"}
0
ENDBLK
5
153
330
142
100
AcDbEntity
8
0
100
AcDbBlockEnd
0
BLOCK
5
154
330
143
100
AcDbEntity
8
0
100
AcDbBlockBegin
2
*DCC1
70
1
10
0
20
0
30
0
3
*DCC1
1

1001
CONDUITCAD
1000
{"ports":[],"dimensionPicture":{"version":1,"ownerId":"e-muhyq5p3-1"}}
0
LINE
5
10C
330
143
100
AcDbEntity
8
0
62
0
6
CONTINUOUS
100
AcDbLine
10
0
20
1
30
0
11
0
21
75
31
0
1001
CONDUITCAD
1000
{"id":"e-muhyq5p3-1:picture:0"}
0
LINE
5
10D
330
143
100
AcDbEntity
8
0
62
0
6
CONTINUOUS
100
AcDbLine
10
80
20
51
30
0
11
80
21
75
31
0
1001
CONDUITCAD
1000
{"id":"e-muhyq5p3-1:picture:1"}
0
LINE
5
10E
330
143
100
AcDbEntity
8
0
62
0
6
CONTINUOUS
100
AcDbLine
10
0
20
70
30
0
11
80
21
70
31
0
1001
CONDUITCAD
1000
{"id":"e-muhyq5p3-1:picture:2"}
0
SOLID
5
10F
330
143
100
AcDbEntity
8
0
62
0
6
CONTINUOUS
100
AcDbTrace
10
0
20
70
30
0
11
2
21
70.56
31
0
12
2
22
69.44
32
0
13
2
23
69.44
33
0
1001
CONDUITCAD
1000
{"id":"e-muhyq5p3-1:picture:3"}
0
SOLID
5
110
330
143
100
AcDbEntity
8
0
62
0
6
CONTINUOUS
100
AcDbTrace
10
80
20
70
30
0
11
78
21
69.44
31
0
12
78
22
70.56
32
0
13
78
23
70.56
33
0
1001
CONDUITCAD
1000
{"id":"e-muhyq5p3-1:picture:4"}
0
TEXT
5
111
330
143
100
AcDbEntity
8
0
62
0
6
CONTINUOUS
100
AcDbText
10
40
20
75
30
0
40
4
1
80.00
50
0
41
1
7
STANDARD
72
1
11
40
21
75
31
0
100
AcDbText
73
2
1001
CONDUITCAD
1000
{"id":"e-muhyq5p3-1:picture:5"}
0
ENDBLK
5
155
330
143
100
AcDbEntity
8
0
100
AcDbBlockEnd
0
BLOCK
5
156
330
144
100
AcDbEntity
8
0
100
AcDbBlockBegin
2
*DCC2
70
1
10
0
20
0
30
0
3
*DCC2
1

1001
CONDUITCAD
1000
{"ports":[],"dimensionPicture":{"version":1,"ownerId":"e-muhyq5p4-2"}}
0
LINE
5
112
330
144
100
AcDbEntity
8
0
62
0
6
CONTINUOUS
100
AcDbLine
10
-0.6
20
0.8
30
0
11
-21
21
28
31
0
1001
CONDUITCAD
1000
{"id":"e-muhyq5p4-2:picture:0"}
0
LINE
5
113
330
144
100
AcDbEntity
8
0
62
0
6
CONTINUOUS
100
AcDbLine
10
79.4
20
60.8
30
0
11
59
21
88
31
0
1001
CONDUITCAD
1000
{"id":"e-muhyq5p4-2:picture:1"}
0
LINE
5
114
330
144
100
AcDbEntity
8
0
62
0
6
CONTINUOUS
100
AcDbLine
10
-18
20
24
30
0
11
62
21
84
31
0
1001
CONDUITCAD
1000
{"id":"e-muhyq5p4-2:picture:2"}
0
SOLID
5
115
330
144
100
AcDbEntity
8
0
62
0
6
CONTINUOUS
100
AcDbTrace
10
-18
20
24
30
0
11
-16.736
21
25.648
31
0
12
-16.064
22
24.752
32
0
13
-16.064
23
24.752
33
0
1001
CONDUITCAD
1000
{"id":"e-muhyq5p4-2:picture:3"}
0
SOLID
5
116
330
144
100
AcDbEntity
8
0
62
0
6
CONTINUOUS
100
AcDbTrace
10
62
20
84
30
0
11
60.736
21
82.352
31
0
12
60.064
22
83.248
32
0
13
60.064
23
83.248
33
0
1001
CONDUITCAD
1000
{"id":"e-muhyq5p4-2:picture:4"}
0
TEXT
5
117
330
144
100
AcDbEntity
8
0
62
0
6
CONTINUOUS
100
AcDbText
10
19
20
58
30
0
40
4
1
100.00
50
36.86989764584401
41
1
7
STANDARD
72
1
11
19
21
58
31
0
100
AcDbText
73
2
1001
CONDUITCAD
1000
{"id":"e-muhyq5p4-2:picture:5"}
0
ENDBLK
5
157
330
144
100
AcDbEntity
8
0
100
AcDbBlockEnd
0
BLOCK
5
158
330
145
100
AcDbEntity
8
0
100
AcDbBlockBegin
2
*DCC3
70
1
10
0
20
0
30
0
3
*DCC3
1

1001
CONDUITCAD
1000
{"ports":[],"dimensionPicture":{"version":1,"ownerId":"e-muhyq5p4-3"}}
0
LINE
5
118
330
145
100
AcDbEntity
8
0
62
0
6
CONTINUOUS
100
AcDbLine
10
101
20
0
30
0
11
33.2842712474619
21
0
31
0
1001
CONDUITCAD
1000
{"id":"e-muhyq5p4-3:picture:0"}
0
LINE
5
119
330
145
100
AcDbEntity
8
0
62
0
6
CONTINUOUS
100
AcDbLine
10
6.123233995736766e-17
20
101
30
0
11
2.038073812257825e-15
21
33.2842712474619
31
0
1001
CONDUITCAD
1000
{"id":"e-muhyq5p4-3:picture:1"}
0
ARC
5
11A
330
145
100
AcDbEntity
8
0
62
0
6
CONTINUOUS
100
AcDbCircle
10
0
20
0
30
0
40
28.284271247461902
100
AcDbArc
50
0
51
90
1001
CONDUITCAD
1000
{"id":"e-muhyq5p4-3:picture:2"}
0
SOLID
5
11B
330
145
100
AcDbEntity
8
0
62
0
6
CONTINUOUS
100
AcDbTrace
10
28.284271247461902
20
0
30
0
11
27.724271247461903
21
2
31
0
12
28.8442712474619
22
2
32
0
13
28.8442712474619
23
2
33
0
1001
CONDUITCAD
1000
{"id":"e-muhyq5p4-3:picture:3"}
0
SOLID
5
11C
330
145
100
AcDbEntity
8
0
62
0
6
CONTINUOUS
100
AcDbTrace
10
1.7319121124709867e-15
20
28.284271247461902
30
0
11
2.0000000000000018
21
28.8442712474619
31
0
12
2.0000000000000018
22
27.724271247461903
32
0
13
2.0000000000000018
23
27.724271247461903
33
0
1001
CONDUITCAD
1000
{"id":"e-muhyq5p4-3:picture:4"}
0
TEXT
5
11D
330
145
100
AcDbEntity
8
0
62
0
6
CONTINUOUS
100
AcDbText
10
23.53553390593274
20
23.535533905932738
30
0
40
4
1
90.00°
50
0
41
1
7
STANDARD
72
1
11
23.53553390593274
21
23.535533905932738
31
0
100
AcDbText
73
2
1001
CONDUITCAD
1000
{"id":"e-muhyq5p4-3:picture:5"}
0
ENDBLK
5
159
330
145
100
AcDbEntity
8
0
100
AcDbBlockEnd
0
BLOCK
5
15A
330
146
100
AcDbEntity
8
0
100
AcDbBlockBegin
2
*DCC4
70
1
10
0
20
0
30
0
3
*DCC4
1

1001
CONDUITCAD
1000
{"ports":[],"dimensionPicture":{"version":1,"ownerId":"e-muhyq5p4-4"}}
0
LINE
5
11E
330
146
100
AcDbEntity
8
0
62
0
6
CONTINUOUS
100
AcDbLine
10
-40
20
0
30
0
11
40
21
0
31
0
1001
CONDUITCAD
1000
{"id":"e-muhyq5p4-4:picture:0"}
0
SOLID
5
11F
330
146
100
AcDbEntity
8
0
62
0
6
CONTINUOUS
100
AcDbTrace
10
40
20
0
30
0
11
38
21
-0.56
31
0
12
38
22
0.56
32
0
13
38
23
0.56
33
0
1001
CONDUITCAD
1000
{"id":"e-muhyq5p4-4:picture:1"}
0
SOLID
5
120
330
146
100
AcDbEntity
8
0
62
0
6
CONTINUOUS
100
AcDbTrace
10
-40
20
0
30
0
11
-38
21
0.56
31
0
12
-38
22
-0.56
32
0
13
-38
23
-0.56
33
0
1001
CONDUITCAD
1000
{"id":"e-muhyq5p4-4:picture:2"}
0
TEXT
5
121
330
146
100
AcDbEntity
8
0
62
0
6
CONTINUOUS
100
AcDbText
10
0
20
5
30
0
40
4
1
⌀80.00
50
0
41
1
7
STANDARD
72
1
11
0
21
5
31
0
100
AcDbText
73
2
1001
CONDUITCAD
1000
{"id":"e-muhyq5p4-4:picture:3"}
0
ENDBLK
5
15B
330
146
100
AcDbEntity
8
0
100
AcDbBlockEnd
0
BLOCK
5
15C
330
147
100
AcDbEntity
8
0
100
AcDbBlockBegin
2
*DCC5
70
1
10
0
20
0
30
0
3
*DCC5
1

1001
CONDUITCAD
1000
{"ports":[],"dimensionPicture":{"version":1,"ownerId":"e-muhyq5p4-5"}}
0
LINE
5
122
330
147
100
AcDbEntity
8
0
62
0
6
CONTINUOUS
100
AcDbLine
10
0
20
0
30
0
11
40
21
0
31
0
1001
CONDUITCAD
1000
{"id":"e-muhyq5p4-5:picture:0"}
0
SOLID
5
123
330
147
100
AcDbEntity
8
0
62
0
6
CONTINUOUS
100
AcDbTrace
10
40
20
0
30
0
11
38
21
-0.56
31
0
12
38
22
0.56
32
0
13
38
23
0.56
33
0
1001
CONDUITCAD
1000
{"id":"e-muhyq5p4-5:picture:1"}
0
TEXT
5
124
330
147
100
AcDbEntity
8
0
62
0
6
CONTINUOUS
100
AcDbText
10
40
20
5
30
0
40
4
1
R40.00
50
0
41
1
7
STANDARD
72
1
11
40
21
5
31
0
100
AcDbText
73
2
1001
CONDUITCAD
1000
{"id":"e-muhyq5p4-5:picture:2"}
0
ENDBLK
5
15D
330
147
100
AcDbEntity
8
0
100
AcDbBlockEnd
0
BLOCK
5
15E
330
148
100
AcDbEntity
8
0
100
AcDbBlockBegin
2
*DCC6
70
1
10
0
20
0
30
0
3
*DCC6
1

1001
CONDUITCAD
1000
{"ports":[],"dimensionPicture":{"version":1,"ownerId":"e-muhyq5p5-6"}}
0
LINE
5
125
330
148
100
AcDbEntity
8
0
62
0
6
CONTINUOUS
100
AcDbLine
10
101
20
0
30
0
11
33.2842712474619
21
0
31
0
1001
CONDUITCAD
1000
{"id":"e-muhyq5p5-6:picture:0"}
0
LINE
5
126
330
148
100
AcDbEntity
8
0
62
0
6
CONTINUOUS
100
AcDbLine
10
6.123233995736766e-17
20
101
30
0
11
2.038073812257825e-15
21
33.2842712474619
31
0
1001
CONDUITCAD
1000
{"id":"e-muhyq5p5-6:picture:1"}
0
ARC
5
127
330
148
100
AcDbEntity
8
0
62
0
6
CONTINUOUS
100
AcDbCircle
10
0
20
0
30
0
40
28.284271247461902
100
AcDbArc
50
0
51
90
1001
CONDUITCAD
1000
{"id":"e-muhyq5p5-6:picture:2"}
0
SOLID
5
128
330
148
100
AcDbEntity
8
0
62
0
6
CONTINUOUS
100
AcDbTrace
10
28.284271247461902
20
0
30
0
11
27.724271247461903
21
2
31
0
12
28.8442712474619
22
2
32
0
13
28.8442712474619
23
2
33
0
1001
CONDUITCAD
1000
{"id":"e-muhyq5p5-6:picture:3"}
0
SOLID
5
129
330
148
100
AcDbEntity
8
0
62
0
6
CONTINUOUS
100
AcDbTrace
10
1.7319121124709867e-15
20
28.284271247461902
30
0
11
2.0000000000000018
21
28.8442712474619
31
0
12
2.0000000000000018
22
27.724271247461903
32
0
13
2.0000000000000018
23
27.724271247461903
33
0
1001
CONDUITCAD
1000
{"id":"e-muhyq5p5-6:picture:4"}
0
TEXT
5
12A
330
148
100
AcDbEntity
8
0
62
0
6
CONTINUOUS
100
AcDbText
10
23.53553390593274
20
23.535533905932738
30
0
40
4
1
90.00°
50
0
41
1
7
STANDARD
72
1
11
23.53553390593274
21
23.535533905932738
31
0
100
AcDbText
73
2
1001
CONDUITCAD
1000
{"id":"e-muhyq5p5-6:picture:5"}
0
ENDBLK
5
15F
330
148
100
AcDbEntity
8
0
100
AcDbBlockEnd
0
BLOCK
5
160
330
149
100
AcDbEntity
8
0
100
AcDbBlockBegin
2
*DCC7
70
1
10
0
20
0
30
0
3
*DCC7
1

1001
CONDUITCAD
1000
{"ports":[],"dimensionPicture":{"version":1,"ownerId":"e-muhyq5p5-7"}}
0
LINE
5
12B
330
149
100
AcDbEntity
8
0
62
0
6
CONTINUOUS
100
AcDbLine
10
80
20
50
30
0
11
80
21
90
31
0
1001
CONDUITCAD
1000
{"id":"e-muhyq5p5-7:picture:0"}
0
TEXT
5
12C
330
149
100
AcDbEntity
8
0
62
0
6
CONTINUOUS
100
AcDbText
10
85
20
95
30
0
40
4
1
80.00
50
0
41
1
7
STANDARD
72
1
11
85
21
95
31
0
100
AcDbText
73
2
1001
CONDUITCAD
1000
{"id":"e-muhyq5p5-7:picture:1"}
0
ENDBLK
5
161
330
149
100
AcDbEntity
8
0
100
AcDbBlockEnd
0
ENDSEC
0
SECTION
2
ENTITIES
0
DIMENSION
5
100
330
13E
100
AcDbEntity
8
0
100
AcDbDimension
2
*DCC1
10
80
20
70
30
0
11
40
21
75
31
0
70
32
1
<>
3
STANDARD
42
80
100
AcDbAlignedDimension
13
0
23
0
33
0
14
80
24
50
34
0
50
0
100
AcDbRotatedDimension
1001
ACAD
1000
DSTYLE
1002
{
1070
140
1040
4
1070
41
1040
2
1070
44
1040
5
1070
42
1040
1
1070
147
1040
3
1070
40
1040
1
1070
144
1040
1
1070
271
1070
2
1070
45
1040
0
1070
3
1000
<>
1070
78
1070
0
1002
}
1001
CONDUITCAD
1000
{"id":"e-muhyq5p3-1","dimension":{"version":1,"manualText":false,"style":{"dimtxt":4,"dimasz":2,"dimdec":2},"resolvedScale":1}}
0
DIMENSION
5
101
330
13E
100
AcDbEntity
8
0
100
AcDbDimension
2
*DCC2
10
62
20
84
30
0
11
19
21
58
31
0
70
33
1
<>
3
STANDARD
42
100
100
AcDbAlignedDimension
13
0
23
0
33
0
14
80
24
60
34
0
1001
ACAD
1000
DSTYLE
1002
{
1070
140
1040
4
1070
41
1040
2
1070
44
1040
5
1070
42
1040
1
1070
147
1040
3
1070
40
1040
1
1070
144
1040
1
1070
271
1070
2
1070
45
1040
0
1070
3
1000
<>
1070
78
1070
0
1002
}
1001
CONDUITCAD
1000
{"id":"e-muhyq5p4-2","dimension":{"version":1,"manualText":false,"style":{"dimtxt":4,"dimasz":2,"dimdec":2},"resolvedScale":1}}
0
DIMENSION
5
102
330
13E
100
AcDbEntity
8
0
100
AcDbDimension
2
*DCC3
10
0
20
100
30
0
11
23.53553390593274
21
23.535533905932738
31
0
70
34
1
<>
3
STANDARD
42
90
100
AcDb2LineAngularDimension
13
0
23
0
33
0
14
100
24
0
34
0
15
0
25
0
35
0
16
20
26
20
36
0
1001
ACAD
1000
DSTYLE
1002
{
1070
140
1040
4
1070
41
1040
2
1070
44
1040
5
1070
42
1040
1
1070
147
1040
3
1070
40
1040
1
1070
144
1040
1
1070
271
1070
2
1070
45
1040
0
1070
3
1000
<>
1070
78
1070
0
1002
}
1001
CONDUITCAD
1000
{"id":"e-muhyq5p4-3","dimension":{"version":1,"manualText":false,"style":{"dimtxt":4,"dimasz":2,"dimdec":2},"resolvedScale":1}}
0
DIMENSION
5
103
330
13E
100
AcDbEntity
8
0
100
AcDbDimension
2
*DCC4
10
-40
20
0
30
0
11
0
21
5
31
0
70
35
1
<>
3
STANDARD
42
80
100
AcDbDiametricDimension
15
40
25
0
35
0
40
0
1001
ACAD
1000
DSTYLE
1002
{
1070
140
1040
4
1070
41
1040
2
1070
44
1040
5
1070
42
1040
1
1070
147
1040
3
1070
40
1040
1
1070
144
1040
1
1070
271
1070
2
1070
45
1040
0
1070
3
1000
<>
1070
78
1070
0
1002
}
1001
CONDUITCAD
1000
{"id":"e-muhyq5p4-4","dimension":{"version":1,"manualText":false,"style":{"dimtxt":4,"dimasz":2,"dimdec":2},"resolvedScale":1}}
0
DIMENSION
5
104
330
13E
100
AcDbEntity
8
0
100
AcDbDimension
2
*DCC5
10
0
20
0
30
0
11
40
21
5
31
0
70
36
1
<>
3
STANDARD
42
40
100
AcDbRadialDimension
15
40
25
0
35
0
40
0
1001
ACAD
1000
DSTYLE
1002
{
1070
140
1040
4
1070
41
1040
2
1070
44
1040
5
1070
42
1040
1
1070
147
1040
3
1070
40
1040
1
1070
144
1040
1
1070
271
1070
2
1070
45
1040
0
1070
3
1000
<>
1070
78
1070
0
1002
}
1001
CONDUITCAD
1000
{"id":"e-muhyq5p4-5","dimension":{"version":1,"manualText":false,"style":{"dimtxt":4,"dimasz":2,"dimdec":2},"resolvedScale":1}}
0
DIMENSION
5
105
330
13E
100
AcDbEntity
8
0
100
AcDbDimension
2
*DCC6
10
20
20
20
30
0
11
23.53553390593274
21
23.535533905932738
31
0
70
37
1
<>
3
STANDARD
42
90
100
AcDb3PointAngularDimension
13
100
23
0
33
0
14
0
24
100
34
0
15
0
25
0
35
0
1001
ACAD
1000
DSTYLE
1002
{
1070
140
1040
4
1070
41
1040
2
1070
44
1040
5
1070
42
1040
1
1070
147
1040
3
1070
40
1040
1
1070
144
1040
1
1070
271
1070
2
1070
45
1040
0
1070
3
1000
<>
1070
78
1070
0
1002
}
1001
CONDUITCAD
1000
{"id":"e-muhyq5p5-6","dimension":{"version":1,"manualText":false,"style":{"dimtxt":4,"dimasz":2,"dimdec":2},"resolvedScale":1}}
0
DIMENSION
5
106
330
13E
100
AcDbEntity
8
0
100
AcDbDimension
2
*DCC7
10
0
20
0
30
0
11
85
21
95
31
0
70
102
1
<>
3
STANDARD
42
80
100
AcDbOrdinateDimension
13
80
23
50
33
0
14
80
24
90
34
0
1001
ACAD
1000
DSTYLE
1002
{
1070
140
1040
4
1070
41
1040
2
1070
44
1040
5
1070
42
1040
1
1070
147
1040
3
1070
40
1040
1
1070
144
1040
1
1070
271
1070
2
1070
45
1040
0
1070
3
1000
<>
1070
78
1070
0
1002
}
1001
CONDUITCAD
1000
{"id":"e-muhyq5p5-7","dimension":{"version":1,"manualText":false,"style":{"dimtxt":4,"dimasz":2,"dimdec":2},"resolvedScale":1}}
0
INSERT
5
107
330
13E
100
AcDbEntity
8
0
100
AcDbBlockReference
2
*UCC1
10
0
20
200
30
0
41
1
42
1
43
1
50
0
1001
CONDUITCAD
1000
{"id":"e-muhyq5p5-9","dynamicParameters":{"Length":125},"dynamicSource":"Variable"}
0
INSERT
5
108
330
13E
100
AcDbEntity
8
0
100
AcDbBlockReference
2
*UCC2
10
0
20
250
30
0
41
1
42
1
43
1
50
0
1001
CONDUITCAD
1000
{"id":"e-muhyq5p5-a","dynamicParameters":{"Length":250},"dynamicSource":"Variable"}
0
ENDSEC
0
SECTION
2
OBJECTS
0
DICTIONARY
5
168
330
0
100
AcDbDictionary
281
1
3
ACAD_LAYOUT
350
169
3
ACAD_GROUP
350
16A
3
CONDUITCAD_METADATA
350
16D
0
DICTIONARY
5
169
330
168
100
AcDbDictionary
281
1
3
Model
350
16B
3
Layout1
350
16C
0
DICTIONARY
5
16A
330
168
100
AcDbDictionary
281
1
0
LAYOUT
5
16B
330
169
100
AcDbPlotSettings
1

2

4

6

40
0
41
0
42
0
43
0
44
420
45
297
46
0
47
0
48
0
49
0
140
0
141
0
142
1
143
1
70
0
72
1
73
0
74
5
7

75
16
76
0
77
0
78
300
147
1
148
0
149
0
100
AcDbLayout
1
Model
70
1
71
0
10
0
20
0
11
420
21
297
12
0
22
0
32
0
14
0
24
0
34
0
15
420
25
297
35
0
146
0
13
0
23
0
33
0
16
1
26
0
36
0
17
0
27
1
37
0
76
0
330
13E
0
LAYOUT
5
16C
330
169
100
AcDbPlotSettings
1

2

4

6

40
0
41
0
42
0
43
0
44
420
45
297
46
0
47
0
48
0
49
0
140
0
141
0
142
1
143
1
70
0
72
1
73
0
74
5
7

75
16
76
0
77
0
78
300
147
1
148
0
149
0
100
AcDbLayout
1
Layout1
70
1
71
1
10
0
20
0
11
420
21
297
12
0
22
0
32
0
14
0
24
0
34
0
15
420
25
297
35
0
146
0
13
0
23
0
33
0
16
1
26
0
36
0
17
0
27
1
37
0
76
0
330
13F
0
XRECORD
5
16D
330
168
100
AcDbXrecord
280
1
1
{"parameters":{"grid":"10","pipeWidth":"2","valveSize":"64"},"constraints":[],"metadata":{"author":"","description":""}}
0
ENDSEC
0
EOF
