0
SECTION
2
HEADER
9
$ACADVER
1
AC1024
9
$INSUNITS
70
6
9
$LTSCALE
40
2.5
9
$MEASUREMENT
70
1
999
CONDUIT:{"parameters":{"grid":"10","pipeWidth":"2","valveSize":"64"},"constraints":[],"metadata":{"author":"","description":""}}
0
ENDSEC
0
SECTION
2
TABLES
0
TABLE
2
LTYPE
5
100
330
0
100
AcDbSymbolTable
70
1
0
LTYPE
5
101
100
AcDbSymbolTableRecord
100
AcDbLinetypeTableRecord
2
CONTINUOUS
70
0
3
Solid line
72
65
73
0
40
0
0
LTYPE
5
102
100
AcDbSymbolTableRecord
100
AcDbLinetypeTableRecord
2
LEADING_DOTS
70
0
3
LEADING_DOTS
72
65
73
5
40
16
49
-3
74
0
49
0
74
0
49
-3
74
0
49
5
74
0
49
-5
74
0
0
ENDTAB
0
TABLE
2
LAYER
5
103
330
0
100
AcDbSymbolTable
70
2
0
LAYER
5
104
100
AcDbSymbolTableRecord
100
AcDbLayerTableRecord
2
0
70
0
62
7
6
Continuous
370
-3
0
LAYER
5
105
100
AcDbSymbolTableRecord
100
AcDbLayerTableRecord
2
Defpoints
70
0
62
7
6
Continuous
370
-3
0
ENDTAB
0
TABLE
2
STYLE
5
106
330
0
100
AcDbSymbolTable
70
3
0
STYLE
5
107
100
AcDbSymbolTableRecord
100
AcDbTextStyleTableRecord
2
STANDARD
70
0
40
0
41
1
50
0
71
0
42
2.5
3
txt
4

0
STYLE
5
108
100
AcDbSymbolTableRecord
100
AcDbTextStyleTableRecord
2
Standard
70
0
40
0
41
1
50
0
71
0
42
2.5
3
txt
4

0
STYLE
5
109
100
AcDbSymbolTableRecord
100
AcDbTextStyleTableRecord
2
FIDELITY
70
0
40
0
41
0.8
50
12
71
0
42
2.5
3
DejaVuSans.ttf
4

0
ENDTAB
0
TABLE
2
APPID
5
10A
330
0
100
AcDbSymbolTable
70
1
0
APPID
5
10B
100
AcDbSymbolTableRecord
100
AcDbRegAppTableRecord
2
CONDUITCAD
70
0
0
ENDTAB
0
TABLE
2
BLOCK_RECORD
5
10C
330
0
100
AcDbSymbolTable
70
4
0
BLOCK_RECORD
5
10D
100
AcDbSymbolTableRecord
100
AcDbBlockTableRecord
2
*Model_Space
0
BLOCK_RECORD
5
10E
100
AcDbSymbolTableRecord
100
AcDbBlockTableRecord
2
*Paper_Space
0
ENDTAB
0
ENDSEC
0
SECTION
2
BLOCKS
0
BLOCK
5
10F
330
10D
100
AcDbEntity
8
0
100
AcDbBlockBegin
2
*Model_Space
70
0
10
0
20
0
30
0
3
*Model_Space
1

1001
CONDUITCAD
1000
{"ports":[]}
0
ENDBLK
5
110
330
10D
100
AcDbEntity
8
0
100
AcDbBlockEnd
0
BLOCK
5
111
330
10E
100
AcDbEntity
8
0
100
AcDbBlockBegin
2
*Paper_Space
70
0
10
0
20
0
30
0
3
*Paper_Space
1

1001
CONDUITCAD
1000
{"ports":[]}
0
ENDBLK
5
112
330
10E
100
AcDbEntity
8
0
100
AcDbBlockEnd
0
ENDSEC
0
SECTION
2
ENTITIES
0
HATCH
5
113
330
10D
100
AcDbEntity
8
0
62
1
48
1
370
-1
100
AcDbHatch
10
0
20
0
30
0
210
0
220
0
230
1
2
SOLID
70
1
71
0
91
3
92
3
72
0
73
1
93
4
10
0
20
0
10
100
20
0
10
100
20
100
10
0
20
100
97
0
92
2
72
0
73
1
93
4
10
20
20
20
10
80
20
20
10
80
20
80
10
20
20
80
97
0
92
2
72
0
73
1
93
4
10
35
20
35
10
65
20
35
10
65
20
65
10
35
20
65
97
0
75
0
76
1
98
0
1001
CONDUITCAD
1000
{"id":"dxf-2F"}
0
HATCH
5
114
330
10D
100
AcDbEntity
8
0
62
1
48
1
370
-1
100
AcDbHatch
10
0
20
0
30
0
210
0
220
0
230
1
2
SOLID
70
1
71
0
91
3
92
3
72
0
73
1
93
4
10
130
20
0
10
230
20
0
10
230
20
100
10
130
20
100
97
0
92
2
72
0
73
1
93
4
10
150
20
20
10
210
20
20
10
210
20
80
10
150
20
80
97
0
92
2
72
0
73
1
93
4
10
165
20
35
10
195
20
35
10
195
20
65
10
165
20
65
97
0
75
1
76
1
98
0
1001
CONDUITCAD
1000
{"id":"dxf-30"}
0
HATCH
5
115
330
10D
100
AcDbEntity
8
0
62
1
48
1
370
-1
100
AcDbHatch
10
0
20
0
30
0
210
0
220
0
230
1
2
SOLID
70
1
71
0
91
3
92
3
72
0
73
1
93
4
10
260
20
0
10
360
20
0
10
360
20
100
10
260
20
100
97
0
92
2
72
0
73
1
93
4
10
280
20
20
10
340
20
20
10
340
20
80
10
280
20
80
97
0
92
2
72
0
73
1
93
4
10
295
20
35
10
325
20
35
10
325
20
65
10
295
20
65
97
0
75
2
76
1
98
0
1001
CONDUITCAD
1000
{"id":"dxf-31"}
0
HATCH
5
116
330
10D
100
AcDbEntity
8
0
62
7
48
1
370
-1
100
AcDbHatch
10
0
20
0
30
0
210
0
220
0
230
1
2
USER
70
0
71
0
91
2
92
3
72
0
73
1
93
4
10
0
20
150
10
130
20
150
10
130
20
250
10
0
20
250
97
0
92
2
72
0
73
1
93
4
10
35
20
175
10
95
20
175
10
95
20
225
10
35
20
225
97
0
75
0
76
1
52
0
41
1
77
0
78
1
53
29.999999999999996
43
0
44
0
45
-5
46
8.660254037844387
79
4
49
10
49
-5
49
0
49
-5
98
0
1001
CONDUITCAD
1000
{"id":"dxf-32"}
0
HATCH
5
117
330
10D
100
AcDbEntity
8
0
62
4
48
1
370
-1
100
AcDbHatch
10
0
20
0
30
0
210
0
220
0
230
1
2
SOLID
70
1
71
0
91
1
92
1
93
2
72
2
10
180
20
190
40
40
50
25
51
150.00000000000003
73
1
72
1
10
145.35898384862244
20
210
11
216.252311481466
21
206.90473046962796
97
0
75
0
76
1
98
0
1001
CONDUITCAD
1000
{"id":"dxf-33"}
0
HATCH
5
118
330
10D
100
AcDbEntity
8
0
62
4
48
1
370
-1
100
AcDbHatch
10
0
20
0
30
0
210
0
220
0
230
1
2
SOLID
70
1
71
0
91
1
92
1
93
2
72
2
10
320
20
190
40
40
50
210
51
335
73
0
72
1
10
356.252311481466
20
206.90473046962796
11
285.3589838486225
21
210
97
0
75
0
76
1
98
0
1001
CONDUITCAD
1000
{"id":"dxf-34"}
0
HATCH
5
119
330
10D
100
AcDbEntity
8
0
62
5
48
1
370
-1
100
AcDbHatch
10
0
20
0
30
0
210
0
220
0
230
1
2
SOLID
70
1
71
0
91
1
92
1
93
2
72
3
10
60
20
310
11
55
21
12
40
0.45
50
20
51
200
73
1
72
1
10
20.632766542031273
20
285.1053587744023
11
99.36723345796874
21
334.8946412255977
97
0
75
0
76
1
98
0
1001
CONDUITCAD
1000
{"id":"dxf-35"}
0
HATCH
5
11A
330
10D
100
AcDbEntity
8
0
62
5
48
1
370
-1
100
AcDbHatch
10
0
20
0
30
0
210
0
220
0
230
1
2
SOLID
70
1
71
0
91
1
92
1
93
2
72
3
10
230
20
310
11
55
21
12
40
0.45
50
160
51
340
73
0
72
1
10
269.3672334579687
20
334.8946412255977
11
190.63276654203128
21
285.1053587744023
97
0
75
0
76
1
98
0
1001
CONDUITCAD
1000
{"id":"dxf-36"}
0
HATCH
5
11B
330
10D
100
AcDbEntity
8
0
62
6
48
1
370
-1
100
AcDbHatch
10
0
20
0
30
0
210
0
220
0
230
1
2
SOLID
70
1
71
0
91
1
92
1
93
2
72
4
94
2
73
1
74
0
95
6
96
3
40
0
40
0
40
0
40
1
40
1
40
1
10
340
20
280
42
1
10
370
20
360
42
0.5
10
400
20
280
42
1
97
0
72
1
10
400
20
280
11
340
21
280
97
0
75
0
76
1
98
0
1001
CONDUITCAD
1000
{"id":"dxf-37"}
0
HATCH
5
11C
330
10D
100
AcDbEntity
8
0
62
7
48
1
370
-1
100
AcDbHatch
10
0
20
0
30
0
210
0
220
0
230
1
2
SOLID
70
1
71
0
91
1
92
3
72
0
73
1
93
4
10
440
20
0
10
530
20
0
10
530
20
90
10
440
20
90
97
0
75
0
76
1
98
0
450
1
451
0
460
0.6108652381980153
461
0
452
0
462
0
453
2
463
0
421
13109780
463
1
421
660680
470
LINEAR
1001
CONDUITCAD
1000
{"id":"dxf-38"}
0
LWPOLYLINE
5
11D
330
10D
100
AcDbEntity
8
0
48
1
370
-1
100
AcDbPolyline
90
2
70
0
10
0
20
420
40
4
41
18
42
0.7
10
100
20
420
210
0
220
0
230
1
1001
CONDUITCAD
1000
{"id":"dxf-39"}
0
POLYLINE
5
11E
330
10D
100
AcDbEntity
8
0
48
1
370
-1
100
AcDb3dPolyline
66
1
10
0
20
0
30
0
70
9
210
0
220
0
230
1
1001
CONDUITCAD
1000
{"id":"dxf-3A"}
0
VERTEX
5
11F
330
11E
100
AcDbEntity
8
0
100
AcDbVertex
100
AcDb3dPolylineVertex
10
160
20
410
30
3
70
32
0
VERTEX
5
120
330
11E
100
AcDbEntity
8
0
100
AcDbVertex
100
AcDb3dPolylineVertex
10
200
20
450
30
7
70
32
0
VERTEX
5
121
330
11E
100
AcDbEntity
8
0
100
AcDbVertex
100
AcDb3dPolylineVertex
10
250
20
410
30
12
70
32
0
SEQEND
5
122
330
11E
100
AcDbEntity
8
0
0
POLYLINE
5
123
330
10D
100
AcDbEntity
8
0
48
1
370
-1
100
AcDbPolyFaceMesh
66
1
10
0
20
0
30
0
70
64
71
4
72
1
210
0
220
0
230
1
1001
CONDUITCAD
1000
{"id":"dxf-3F"}
0
VERTEX
5
124
330
123
100
AcDbEntity
8
0
100
AcDbVertex
100
AcDbPolyFaceMeshVertex
10
280
20
410
30
0
70
192
0
VERTEX
5
125
330
123
100
AcDbEntity
8
0
100
AcDbVertex
100
AcDbPolyFaceMeshVertex
10
325
20
410
30
8
70
192
0
VERTEX
5
126
330
123
100
AcDbEntity
8
0
100
AcDbVertex
100
AcDbPolyFaceMeshVertex
10
325
20
455
30
16
70
192
0
VERTEX
5
127
330
123
100
AcDbEntity
8
0
100
AcDbVertex
100
AcDbPolyFaceMeshVertex
10
280
20
455
30
8
70
192
0
VERTEX
5
128
330
123
100
AcDbEntity
8
0
100
AcDbFaceRecord
10
0
20
0
30
0
70
128
71
1
72
2
73
3
74
4
0
SEQEND
5
129
330
123
100
AcDbEntity
8
0
0
POLYLINE
5
12A
330
10D
100
AcDbEntity
8
0
48
1
370
-1
100
AcDbPolygonMesh
66
1
10
0
20
0
30
0
70
16
71
2
72
3
210
0
220
0
230
1
1001
CONDUITCAD
1000
{"id":"dxf-46"}
0
VERTEX
5
12B
330
12A
100
AcDbEntity
8
0
100
AcDbVertex
100
AcDbPolygonMeshVertex
10
360
20
400
30
0
70
64
0
VERTEX
5
12C
330
12A
100
AcDbEntity
8
0
100
AcDbVertex
100
AcDbPolygonMeshVertex
10
360
20
425
30
1
70
64
0
VERTEX
5
12D
330
12A
100
AcDbEntity
8
0
100
AcDbVertex
100
AcDbPolygonMeshVertex
10
360
20
450
30
2
70
64
0
VERTEX
5
12E
330
12A
100
AcDbEntity
8
0
100
AcDbVertex
100
AcDbPolygonMeshVertex
10
400
20
400
30
2
70
64
0
VERTEX
5
12F
330
12A
100
AcDbEntity
8
0
100
AcDbVertex
100
AcDbPolygonMeshVertex
10
400
20
425
30
3
70
64
0
VERTEX
5
130
330
12A
100
AcDbEntity
8
0
100
AcDbVertex
100
AcDbPolygonMeshVertex
10
400
20
450
30
4
70
64
0
SEQEND
5
131
330
12A
100
AcDbEntity
8
0
0
3DFACE
5
132
330
10D
100
AcDbEntity
8
0
48
1
370
-1
100
AcDbFace
70
2
10
450
20
410
30
3
11
500
21
410
31
4
12
500
22
455
32
5
13
450
23
455
33
6
210
0
220
0
230
1
1001
CONDUITCAD
1000
{"id":"dxf-4E"}
0
CIRCLE
5
133
330
10D
100
AcDbEntity
8
0
48
1
370
-1
100
AcDbCircle
10
30
20
520
30
8
40
20
210
0
220
0
230
-1
1001
CONDUITCAD
1000
{"id":"dxf-4F"}
0
CIRCLE
5
134
330
10D
100
AcDbEntity
8
0
48
1
370
-1
100
AcDbCircle
10
55
20
0
30
12
40
20
210
0.3
220
0.4
230
0.8660254037844386
1001
CONDUITCAD
1000
{"id":"dxf-50"}
0
ELLIPSE
5
135
330
10D
100
AcDbEntity
8
0
48
1
370
-1
100
AcDbEllipse
10
100
20
530
30
3
11
30
21
0
31
0
40
0.4
41
0
42
3.141592653589793
210
0
220
0
230
-1
1001
CONDUITCAD
1000
{"id":"dxf-51"}
0
MTEXT
5
136
330
10D
100
AcDbEntity
8
0
48
1
370
-1
100
AcDbMText
10
550
20
40
30
0
40
10
41
120
71
1
7
FIDELITY
1
{\C1;CONTROL} \H1.3x;VALVE\P100 % OPEN
11
0.9659258262890683
21
0.25881904510252074
31
0
73
1
44
1
210
0
220
0
230
1
1001
CONDUITCAD
1000
{"id":"dxf-53"}
0
MTEXT
5
137
330
10D
100
AcDbEntity
8
0
48
1
370
-1
100
AcDbMText
10
710
20
40
30
0
40
10
41
120
71
2
7
FIDELITY
1
{\C1;CONTROL} \H1.3x;VALVE\P100 % OPEN
11
0.9659258262890683
21
0.25881904510252074
31
0
73
1
44
1
210
0
220
0
230
1
1001
CONDUITCAD
1000
{"id":"dxf-54"}
0
MTEXT
5
138
330
10D
100
AcDbEntity
8
0
48
1
370
-1
100
AcDbMText
10
870
20
40
30
0
40
10
41
120
71
3
7
FIDELITY
1
{\C1;CONTROL} \H1.3x;VALVE\P100 % OPEN
11
0.9659258262890683
21
0.25881904510252074
31
0
73
1
44
1
210
0
220
0
230
1
1001
CONDUITCAD
1000
{"id":"dxf-55"}
0
MTEXT
5
139
330
10D
100
AcDbEntity
8
0
48
1
370
-1
100
AcDbMText
10
550
20
140
30
0
40
10
41
120
71
4
7
FIDELITY
1
{\C1;CONTROL} \H1.3x;VALVE\P100 % OPEN
11
0.9659258262890683
21
0.25881904510252074
31
0
73
1
44
1
210
0
220
0
230
1
1001
CONDUITCAD
1000
{"id":"dxf-56"}
0
MTEXT
5
13A
330
10D
100
AcDbEntity
8
0
48
1
370
-1
100
AcDbMText
10
710
20
140
30
0
40
10
41
120
71
5
7
FIDELITY
1
{\C1;CONTROL} \H1.3x;VALVE\P100 % OPEN
11
0.9659258262890683
21
0.25881904510252074
31
0
73
1
44
1
210
0
220
0
230
1
1001
CONDUITCAD
1000
{"id":"dxf-57"}
0
MTEXT
5
13B
330
10D
100
AcDbEntity
8
0
48
1
370
-1
100
AcDbMText
10
870
20
140
30
0
40
10
41
120
71
6
7
FIDELITY
1
{\C1;CONTROL} \H1.3x;VALVE\P100 % OPEN
11
0.9659258262890683
21
0.25881904510252074
31
0
73
1
44
1
210
0
220
0
230
1
1001
CONDUITCAD
1000
{"id":"dxf-58"}
0
MTEXT
5
13C
330
10D
100
AcDbEntity
8
0
48
1
370
-1
100
AcDbMText
10
550
20
240
30
0
40
10
41
120
71
7
7
FIDELITY
1
{\C1;CONTROL} \H1.3x;VALVE\P100 % OPEN
11
0.9659258262890683
21
0.25881904510252074
31
0
73
1
44
1
210
0
220
0
230
1
1001
CONDUITCAD
1000
{"id":"dxf-59"}
0
MTEXT
5
13D
330
10D
100
AcDbEntity
8
0
48
1
370
-1
100
AcDbMText
10
710
20
240
30
0
40
10
41
120
71
8
7
FIDELITY
1
{\C1;CONTROL} \H1.3x;VALVE\P100 % OPEN
11
0.9659258262890683
21
0.25881904510252074
31
0
73
1
44
1
210
0
220
0
230
1
1001
CONDUITCAD
1000
{"id":"dxf-5A"}
0
MTEXT
5
13E
330
10D
100
AcDbEntity
8
0
48
1
370
-1
100
AcDbMText
10
870
20
240
30
0
40
10
41
120
71
9
7
FIDELITY
1
{\C1;CONTROL} \H1.3x;VALVE\P100 % OPEN
11
0.9659258262890683
21
0.25881904510252074
31
0
73
1
44
1
210
0
220
0
230
1
1001
CONDUITCAD
1000
{"id":"dxf-5B"}
0
MTEXT
5
13F
330
10D
100
AcDbEntity
8
0
62
3
48
1
370
-1
100
AcDbMText
10
600
20
380
30
0
40
14
41
150
71
1
7
STANDARD
1
BACKGROUND
11
1
21
0
31
0
73
1
44
1
90
1
45
1.2
63
7
421
15454875
210
0
220
0
230
1
1001
CONDUITCAD
1000
{"id":"dxf-5C"}
0
TEXT
5
140
330
10D
100
AcDbEntity
8
0
48
1
370
-1
100
AcDbText
10
600
20
587
30
0
40
12
1
ΔP 25 bar
50
20
41
0.8
7
FIDELITY
72
1
11
600
21
587
31
0
100
AcDbText
73
2
210
0
220
0
230
1
1001
CONDUITCAD
1000
{"id":"dxf-5D"}
0
TEXT
5
141
330
10D
100
AcDbEntity
8
0
48
1
370
-1
100
AcDbText
10
600
20
590
30
0
40
12
1
ΔP 25 bar
50
20
41
0.8
7
FIDELITY
72
2
11
600
21
590
31
0
100
AcDbText
73
0
210
0
220
0
230
1
1001
CONDUITCAD
1000
{"id":"dxf-5E"}
0
TEXT
5
142
330
10D
100
AcDbEntity
8
0
48
1
370
-1
100
AcDbText
10
600
20
593
30
0
40
12
1
ΔP 25 bar
50
20
41
0.8
7
FIDELITY
72
3
11
800
21
593
31
0
100
AcDbText
73
0
210
0
220
0
230
1
1001
CONDUITCAD
1000
{"id":"dxf-5F"}
0
TEXT
5
143
330
10D
100
AcDbEntity
8
0
48
1
370
-1
100
AcDbText
10
600
20
596
30
0
40
12
1
ΔP 25 bar
50
20
41
0.8
7
FIDELITY
72
5
11
800
21
596
31
0
100
AcDbText
73
0
210
0
220
0
230
1
1001
CONDUITCAD
1000
{"id":"dxf-60"}
0
LINE
5
144
330
10D
100
AcDbEntity
8
0
48
2
370
50
6
LEADING_DOTS
100
AcDbLine
10
440
20
200
30
0
11
520
21
200
31
0
210
0
220
0
230
1
1001
CONDUITCAD
1000
{"id":"dxf-62"}
0
LINE
5
145
330
10D
100
AcDbEntity
8
0
62
2
440
33554585
48
1
370
-1
100
AcDbLine
10
440
20
225
30
0
11
520
21
225
31
0
210
0
220
0
230
1
1001
CONDUITCAD
1000
{"id":"dxf-63"}
0
LEADER
5
146
330
10D
100
AcDbEntity
8
0
48
1
370
-1
100
AcDbLeader
3
Standard
71
1
72
0
73
3
74
0
75
0
76
3
10
450
20
270
30
0
10
480
20
305
30
0
10
520
20
305
30
0
210
0
220
0
230
1
1001
CONDUITCAD
1000
{"id":"dxf-64"}
0
RAY
5
147
330
10D
100
AcDbEntity
8
0
48
1
370
-1
100
AcDbRay
10
0
20
-70
30
0
11
0.9805806756909201
21
0.19611613513818404
31
0
210
0
220
0
230
1
1001
CONDUITCAD
1000
{"id":"dxf-65"}
0
XLINE
5
148
330
10D
100
AcDbEntity
8
0
48
1
370
-1
100
AcDbXline
10
0
20
-100
30
0
11
1
21
0
31
0
210
0
220
0
230
1
1001
CONDUITCAD
1000
{"id":"dxf-66"}
0
ENDSEC
0
EOF
