0
SECTION
2
HEADER
9
$ACADVER
1
AC1024
9
$INSUNITS
70
4
9
$LTSCALE
40
1
9
$MEASUREMENT
70
1
999
CONDUIT:{"parameters":{"grid":"10","pipeWidth":"2","valveSize":"64"},"constraints":[],"metadata":{"author":"","description":""}}
9
$HANDSEED
5
195
9
$DWGCODEPAGE
3
ANSI_1252
9
$CLAYER
8
0
9
$TILEMODE
70
1
0
ENDSEC
0
SECTION
2
TABLES
0
TABLE
2
LTYPE
5
156
330
0
100
AcDbSymbolTable
70
1
0
LTYPE
5
157
100
AcDbSymbolTableRecord
100
AcDbLinetypeTableRecord
2
CONTINUOUS
70
0
3
Solid line
72
65
73
0
40
0
330
156
0
ENDTAB
0
TABLE
2
LAYER
5
158
330
0
100
AcDbSymbolTable
70
3
0
LAYER
5
159
100
AcDbSymbolTableRecord
100
AcDbLayerTableRecord
2
0
70
0
62
7
6
Continuous
370
-3
330
158
0
LAYER
5
15A
100
AcDbSymbolTableRecord
100
AcDbLayerTableRecord
2
Defpoints
70
0
62
7
6
Continuous
370
-3
330
158
0
LAYER
5
15B
100
AcDbSymbolTableRecord
100
AcDbLayerTableRecord
2
Frozen
70
0
62
1
6
Continuous
370
-3
330
158
0
ENDTAB
0
TABLE
2
STYLE
5
15C
330
0
100
AcDbSymbolTable
70
2
0
STYLE
5
15D
100
AcDbSymbolTableRecord
100
AcDbTextStyleTableRecord
2
Standard
70
0
40
0
41
1
50
0
71
0
42
2.5
3
txt
4

330
15C
0
STYLE
5
15E
100
AcDbSymbolTableRecord
100
AcDbTextStyleTableRecord
2
UnicodeStyle
70
0
40
0
41
1
50
0
71
0
42
2.5
3
sans-serif.ttf
4

330
15C
0
ENDTAB
0
TABLE
2
APPID
5
15F
330
0
100
AcDbSymbolTable
70
2
0
APPID
5
160
100
AcDbSymbolTableRecord
100
AcDbRegAppTableRecord
2
CONDUITCAD
70
0
330
15F
0
APPID
5
186
100
AcDbSymbolTableRecord
100
AcDbRegAppTableRecord
2
ACAD
70
0
330
15F
0
ENDTAB
0
TABLE
2
BLOCK_RECORD
5
161
330
0
100
AcDbSymbolTable
70
12
0
BLOCK_RECORD
5
162
100
AcDbSymbolTableRecord
100
AcDbBlockTableRecord
2
*Model_Space
340
190
330
161
0
BLOCK_RECORD
5
163
100
AcDbSymbolTableRecord
100
AcDbBlockTableRecord
2
*Paper_Space
340
191
330
161
0
BLOCK_RECORD
5
164
100
AcDbSymbolTableRecord
100
AcDbBlockTableRecord
2
*D1
330
161
0
BLOCK_RECORD
5
165
100
AcDbSymbolTableRecord
100
AcDbBlockTableRecord
2
_CLOSEDFILLED
330
161
0
BLOCK_RECORD
5
166
100
AcDbSymbolTableRecord
100
AcDbBlockTableRecord
2
*D2
330
161
0
BLOCK_RECORD
5
167
100
AcDbSymbolTableRecord
100
AcDbBlockTableRecord
2
*D3
330
161
0
BLOCK_RECORD
5
168
100
AcDbSymbolTableRecord
100
AcDbBlockTableRecord
2
*D4
330
161
0
BLOCK_RECORD
5
169
100
AcDbSymbolTableRecord
100
AcDbBlockTableRecord
2
*D5
330
161
0
BLOCK_RECORD
5
16A
100
AcDbSymbolTableRecord
100
AcDbBlockTableRecord
2
*D6
330
161
0
BLOCK_RECORD
5
16B
100
AcDbSymbolTableRecord
100
AcDbBlockTableRecord
2
*D7
330
161
0
BLOCK_RECORD
5
187
100
AcDbSymbolTableRecord
100
AcDbBlockTableRecord
2
*Paper_Space1
70
0
280
1
281
0
340
192
330
161
0
BLOCK_RECORD
5
18A
100
AcDbSymbolTableRecord
100
AcDbBlockTableRecord
2
*Paper_Space2
70
0
280
1
281
0
340
193
330
161
0
ENDTAB
0
TABLE
2
VPORT
5
180
330
0
100
AcDbSymbolTable
70
0
0
ENDTAB
0
TABLE
2
VIEW
5
181
330
0
100
AcDbSymbolTable
70
0
0
ENDTAB
0
TABLE
2
UCS
5
182
330
0
100
AcDbSymbolTable
70
0
0
ENDTAB
0
TABLE
2
DIMSTYLE
5
183
330
0
100
AcDbSymbolTable
70
2
100
AcDbDimStyleTable
71
0
0
DIMSTYLE
105
184
330
183
100
AcDbSymbolTableRecord
100
AcDbDimStyleTableRecord
2
STANDARD
70
0
0
DIMSTYLE
105
185
330
183
100
AcDbSymbolTableRecord
100
AcDbDimStyleTableRecord
2
Standard
70
0
40
1
41
2.5
42
0.625
43
3.75
44
1.25
45
0
46
0
47
0
48
0
140
2.5
141
2.5
142
0
143
0.03937007874
144
1
145
0
146
1
147
0.625
77
1
78
8
271
2
272
2
273
2
277
2
278
44
176
0
177
0
178
0
0
ENDTAB
0
ENDSEC
0
SECTION
2
BLOCKS
0
BLOCK
5
16C
330
162
100
AcDbEntity
8
0
100
AcDbBlockBegin
2
*Model_Space
70
1
10
0
20
0
30
0
3
*Model_Space
1

1001
CONDUITCAD
1000
{"ports":[]}
0
ENDBLK
5
16D
330
162
100
AcDbEntity
8
0
100
AcDbBlockEnd
0
BLOCK
5
16E
330
163
100
AcDbEntity
8
0
100
AcDbBlockBegin
2
*Paper_Space
70
1
10
0
20
0
30
0
3
*Paper_Space
1

1001
CONDUITCAD
1000
{"ports":[]}
0
ENDBLK
5
16F
330
163
100
AcDbEntity
8
0
100
AcDbBlockEnd
0
BLOCK
5
170
330
164
100
AcDbEntity
8
0
100
AcDbBlockBegin
2
*D1
70
1
10
0
20
0
30
0
3
*D1
1

1001
CONDUITCAD
1000
{"ports":[]}
0
LINE
5
116
330
164
100
AcDbEntity
8
0
48
1
370
-1
100
AcDbLine
10
0
20
0
30
0
11
0
21
20
31
0
210
0
220
0
230
1
1001
CONDUITCAD
1000
{"id":"dxf-3F"}
0
LINE
5
117
330
164
100
AcDbEntity
8
0
48
1
370
-1
100
AcDbLine
10
40
20
0
30
0
11
40
21
20
31
0
210
0
220
0
230
1
1001
CONDUITCAD
1000
{"id":"dxf-40"}
0
INSERT
5
118
330
164
100
AcDbEntity
8
0
48
1
370
-1
100
AcDbBlockReference
2
_CLOSEDFILLED
10
0
20
20
30
0
41
0.25
42
0.25
43
1
50
180
210
0
220
0
230
1
1001
CONDUITCAD
1000
{"id":"dxf-45"}
0
INSERT
5
119
330
164
100
AcDbEntity
8
0
48
1
370
-1
100
AcDbBlockReference
2
_CLOSEDFILLED
10
40
20
20
30
0
41
0.25
42
0.25
43
1
50
0
210
0
220
0
230
1
1001
CONDUITCAD
1000
{"id":"dxf-47"}
0
LINE
5
11A
330
164
100
AcDbEntity
8
0
48
1
370
-1
100
AcDbLine
10
0.25
20
20
30
0
11
19
21
20
31
0
210
0
220
0
230
1
1001
CONDUITCAD
1000
{"id":"dxf-49"}
0
LINE
5
11B
330
164
100
AcDbEntity
8
0
48
1
370
-1
100
AcDbLine
10
21
20
20
30
0
11
39.75
21
20
31
0
210
0
220
0
230
1
1001
CONDUITCAD
1000
{"id":"dxf-4A"}
0
MTEXT
5
11C
330
164
100
AcDbEntity
8
0
48
1
370
-1
100
AcDbMText
10
20
20
20
30
0
40
1
41
0
71
5
7
STANDARD
1
40
11
1
21
0
31
0
73
1
44
1
210
0
220
0
230
1
1001
CONDUITCAD
1000
{"id":"dxf-4B"}
0
POINT
5
11D
330
164
100
AcDbEntity
8
Defpoints
48
1
370
-1
100
AcDbPoint
10
0
20
20
30
0
210
0
220
0
230
1
1001
CONDUITCAD
1000
{"id":"dxf-4C"}
0
POINT
5
11E
330
164
100
AcDbEntity
8
Defpoints
48
1
370
-1
100
AcDbPoint
10
0
20
0
30
0
210
0
220
0
230
1
1001
CONDUITCAD
1000
{"id":"dxf-4D"}
0
POINT
5
11F
330
164
100
AcDbEntity
8
Defpoints
48
1
370
-1
100
AcDbPoint
10
40
20
0
30
0
210
0
220
0
230
1
1001
CONDUITCAD
1000
{"id":"dxf-4E"}
0
ENDBLK
5
171
330
164
100
AcDbEntity
8
0
100
AcDbBlockEnd
0
BLOCK
5
172
330
165
100
AcDbEntity
8
0
100
AcDbBlockBegin
2
_CLOSEDFILLED
70
0
10
0
20
0
30
0
3
_CLOSEDFILLED
1

1001
CONDUITCAD
1000
{"ports":[]}
0
SOLID
5
120
330
165
100
AcDbEntity
8
0
62
0
48
1
370
-1
6
BYBLOCK
100
AcDbTrace
10
-1
20
0.16439898372402537
30
0
11
0
21
0
31
0
12
-1
22
-0.16439898372402537
32
0
13
-1
23
-0.16439898372402537
33
0
210
0
220
0
230
1
1001
CONDUITCAD
1000
{"id":"dxf-44"}
0
ENDBLK
5
173
330
165
100
AcDbEntity
8
0
100
AcDbBlockEnd
0
BLOCK
5
174
330
166
100
AcDbEntity
8
0
100
AcDbBlockBegin
2
*D2
70
1
10
0
20
0
30
0
3
*D2
1

1001
CONDUITCAD
1000
{"ports":[]}
0
LINE
5
121
330
166
100
AcDbEntity
8
0
48
1
370
-1
100
AcDbLine
10
50
20
0
30
0
11
42.97753116823216
21
18.726583551380887
31
0
210
0
220
0
230
1
1001
CONDUITCAD
1000
{"id":"dxf-52"}
0
LINE
5
122
330
166
100
AcDbEntity
8
0
48
1
370
-1
100
AcDbLine
10
90
20
15
30
0
11
82.97753116823216
21
33.726583551380884
31
0
210
0
220
0
230
1
1001
CONDUITCAD
1000
{"id":"dxf-53"}
0
INSERT
5
123
330
166
100
AcDbEntity
8
0
48
1
370
-1
100
AcDbBlockReference
2
_CLOSEDFILLED
10
42.97753116823216
20
18.726583551380887
30
0
41
0.25
42
0.25
43
1
50
200.55604521958347
210
0
220
0
230
1
1001
CONDUITCAD
1000
{"id":"dxf-54"}
0
INSERT
5
124
330
166
100
AcDbEntity
8
0
48
1
370
-1
100
AcDbBlockReference
2
_CLOSEDFILLED
10
82.97753116823216
20
33.726583551380884
30
0
41
0.25
42
0.25
43
1
50
20.556045219583467
210
0
220
0
230
1
1001
CONDUITCAD
1000
{"id":"dxf-56"}
0
LINE
5
125
330
166
100
AcDbEntity
8
0
48
1
370
-1
100
AcDbLine
10
43.21161346262442
20
18.814364411777984
30
0
11
60.636708224309544
21
25.348774947409908
31
0
210
0
220
0
230
1
1001
CONDUITCAD
1000
{"id":"dxf-58"}
0
LINE
5
126
330
166
100
AcDbEntity
8
0
48
1
370
-1
100
AcDbLine
10
65.31835411215478
20
27.104392155351867
30
0
11
82.7434488738399
21
33.63880269098379
31
0
210
0
220
0
230
1
1001
CONDUITCAD
1000
{"id":"dxf-59"}
0
MTEXT
5
127
330
166
100
AcDbEntity
8
0
48
1
370
-1
100
AcDbMText
10
62.97753116823216
20
26.226583551380884
30
0
40
1
41
0
71
5
7
STANDARD
1
42,72
11
0.9363291775690444
21
0.35112344158839176
31
0
73
1
44
1
210
0
220
0
230
1
1001
CONDUITCAD
1000
{"id":"dxf-5A"}
0
POINT
5
128
330
166
100
AcDbEntity
8
Defpoints
48
1
370
-1
100
AcDbPoint
10
42.97753116823216
20
18.726583551380887
30
0
210
0
220
0
230
1
1001
CONDUITCAD
1000
{"id":"dxf-5B"}
0
POINT
5
129
330
166
100
AcDbEntity
8
Defpoints
48
1
370
-1
100
AcDbPoint
10
50
20
0
30
0
210
0
220
0
230
1
1001
CONDUITCAD
1000
{"id":"dxf-5C"}
0
POINT
5
12A
330
166
100
AcDbEntity
8
Defpoints
48
1
370
-1
100
AcDbPoint
10
90
20
15
30
0
210
0
220
0
230
1
1001
CONDUITCAD
1000
{"id":"dxf-5D"}
0
ENDBLK
5
175
330
166
100
AcDbEntity
8
0
100
AcDbBlockEnd
0
BLOCK
5
176
330
167
100
AcDbEntity
8
0
100
AcDbBlockBegin
2
*D3
70
1
10
0
20
0
30
0
3
*D3
1

1001
CONDUITCAD
1000
{"ports":[]}
0
LINE
5
12B
330
167
100
AcDbEntity
8
0
48
1
370
-1
100
AcDbLine
10
30
20
30
30
0
11
31.622776601683793
21
31.622776601683793
31
0
210
0
220
0
230
1
1001
CONDUITCAD
1000
{"id":"dxf-61"}
0
LINE
5
12C
330
167
100
AcDbEntity
8
0
48
1
370
-1
100
AcDbLine
10
40
20
0
30
0
11
44.721359549995796
21
0
31
0
210
0
220
0
230
1
1001
CONDUITCAD
1000
{"id":"dxf-62"}
0
INSERT
5
12D
330
167
100
AcDbEntity
8
0
48
1
370
-1
100
AcDbBlockReference
2
_CLOSEDFILLED
10
31.622776601683793
20
31.622776601683793
30
0
41
0.25
42
0.25
43
1
50
315.16014657226884
210
0
220
0
230
1
1001
CONDUITCAD
1000
{"id":"dxf-63"}
0
INSERT
5
12E
330
167
100
AcDbEntity
8
0
48
1
370
-1
100
AcDbBlockReference
2
_CLOSEDFILLED
10
44.721359549995796
20
0
30
0
41
0.25
42
0.25
43
1
50
89.83985342773113
210
0
220
0
230
1
1001
CONDUITCAD
1000
{"id":"dxf-65"}
0
MTEXT
5
12F
330
167
100
AcDbEntity
8
0
48
1
370
-1
100
AcDbMText
10
-41.31714875431929
20
-17.114123372625674
30
0
40
1
41
0
71
5
7
STANDARD
1
315°
11
0.38268343236509
21
-0.9238795325112866
31
0
73
1
44
1
210
0
220
0
230
1
1001
CONDUITCAD
1000
{"id":"dxf-67"}
0
ARC
5
130
330
167
100
AcDbEntity
8
0
48
1
370
-1
100
AcDbCircle
10
0
20
0
30
0
40
44.721359549995796
100
AcDbArc
50
45.32029314453773
51
199.9367999590261
210
0
220
0
230
1
1001
CONDUITCAD
1000
{"id":"dxf-68"}
0
ARC
5
131
330
167
100
AcDbEntity
8
0
48
1
370
-1
100
AcDbCircle
10
0
20
0
30
0
40
44.721359549995796
100
AcDbArc
50
205.06320004097384
51
359.67970685546226
210
0
220
0
230
1
1001
CONDUITCAD
1000
{"id":"dxf-69"}
0
POINT
5
132
330
167
100
AcDbEntity
8
Defpoints
48
1
370
-1
100
AcDbPoint
10
30
20
30
30
0
210
0
220
0
230
1
1001
CONDUITCAD
1000
{"id":"dxf-6A"}
0
POINT
5
133
330
167
100
AcDbEntity
8
Defpoints
48
1
370
-1
100
AcDbPoint
10
0
20
0
30
0
210
0
220
0
230
1
1001
CONDUITCAD
1000
{"id":"dxf-6B"}
0
POINT
5
134
330
167
100
AcDbEntity
8
Defpoints
48
1
370
-1
100
AcDbPoint
10
40
20
0
30
0
210
0
220
0
230
1
1001
CONDUITCAD
1000
{"id":"dxf-6C"}
0
POINT
5
135
330
167
100
AcDbEntity
8
Defpoints
48
1
370
-1
100
AcDbPoint
10
0
20
0
30
0
210
0
220
0
230
1
1001
CONDUITCAD
1000
{"id":"dxf-6D"}
0
POINT
5
136
330
167
100
AcDbEntity
8
Defpoints
48
1
370
-1
100
AcDbPoint
10
20
20
40
30
0
210
0
220
0
230
1
1001
CONDUITCAD
1000
{"id":"dxf-6E"}
0
ENDBLK
5
177
330
167
100
AcDbEntity
8
0
100
AcDbBlockEnd
0
BLOCK
5
178
330
168
100
AcDbEntity
8
0
100
AcDbBlockBegin
2
*D4
70
1
10
0
20
0
30
0
3
*D4
1

1001
CONDUITCAD
1000
{"ports":[]}
0
INSERT
5
137
330
168
100
AcDbEntity
8
0
48
1
370
-1
100
AcDbBlockReference
2
_CLOSEDFILLED
10
130
20
0
30
0
41
0.25
42
0.25
43
1
50
360
210
0
220
0
230
1
1001
CONDUITCAD
1000
{"id":"dxf-72"}
0
INSERT
5
138
330
168
100
AcDbEntity
8
0
48
1
370
-1
100
AcDbBlockReference
2
_CLOSEDFILLED
10
170
20
0
30
0
41
0.25
42
0.25
43
1
50
360
210
0
220
0
230
1
1001
CONDUITCAD
1000
{"id":"dxf-74"}
0
LINE
5
139
330
168
100
AcDbEntity
8
0
48
1
370
-1
100
AcDbLine
10
129.75
20
6.123233995736766e-17
30
0
11
169.75
21
6.123233995736766e-17
31
0
210
0
220
0
230
1
1001
CONDUITCAD
1000
{"id":"dxf-76"}
0
LINE
5
13A
330
168
100
AcDbEntity
8
0
48
1
370
-1
100
AcDbLine
10
129.125
20
6.123233995736766e-17
30
0
11
129.75
21
6.123233995736766e-17
31
0
210
0
220
0
230
1
1001
CONDUITCAD
1000
{"id":"dxf-77"}
0
MTEXT
5
13B
330
168
100
AcDbEntity
8
0
48
1
370
-1
100
AcDbMText
10
127.625
20
0
30
0
40
1
41
0
71
5
7
STANDARD
1
%%c40
11
1
21
0
31
0
73
1
44
1
210
0
220
0
230
1
1001
CONDUITCAD
1000
{"id":"dxf-78"}
0
POINT
5
13C
330
168
100
AcDbEntity
8
Defpoints
48
1
370
-1
100
AcDbPoint
10
150
20
0
30
0
210
0
220
0
230
1
1001
CONDUITCAD
1000
{"id":"dxf-79"}
0
POINT
5
13D
330
168
100
AcDbEntity
8
Defpoints
48
1
370
-1
100
AcDbPoint
10
130
20
0
30
0
210
0
220
0
230
1
1001
CONDUITCAD
1000
{"id":"dxf-7A"}
0
ENDBLK
5
179
330
168
100
AcDbEntity
8
0
100
AcDbBlockEnd
0
BLOCK
5
17A
330
169
100
AcDbEntity
8
0
100
AcDbBlockBegin
2
*D5
70
1
10
0
20
0
30
0
3
*D5
1

1001
CONDUITCAD
1000
{"ports":[]}
0
INSERT
5
13E
330
169
100
AcDbEntity
8
0
48
1
370
-1
100
AcDbBlockReference
2
_CLOSEDFILLED
10
217.32050807568876
20
9.999999999999998
30
0
41
0.25
42
0.25
43
1
50
210
210
0
220
0
230
1
1001
CONDUITCAD
1000
{"id":"dxf-7E"}
0
LINE
5
13F
330
169
100
AcDbEntity
8
0
48
1
370
-1
100
AcDbLine
10
200
20
0
30
0
11
217.32050807568876
21
9.999999999999998
31
0
210
0
220
0
230
1
1001
CONDUITCAD
1000
{"id":"dxf-80"}
0
LINE
5
140
330
169
100
AcDbEntity
8
0
48
1
370
-1
100
AcDbLine
10
218.07828030400015
20
10.437499999999998
30
0
11
217.53701442663487
21
10.124999999999998
31
0
210
0
220
0
230
1
1001
CONDUITCAD
1000
{"id":"dxf-81"}
0
MTEXT
5
141
330
169
100
AcDbEntity
8
0
48
1
370
-1
100
AcDbMText
10
219.3773184096768
20
11.187499999999998
30
0
40
1
41
0
71
5
7
STANDARD
1
R20
11
0.8660254037844386
21
0.5000000000000001
31
0
73
1
44
1
210
0
220
0
230
1
1001
CONDUITCAD
1000
{"id":"dxf-82"}
0
POINT
5
142
330
169
100
AcDbEntity
8
Defpoints
48
1
370
-1
100
AcDbPoint
10
200
20
0
30
0
210
0
220
0
230
1
1001
CONDUITCAD
1000
{"id":"dxf-83"}
0
POINT
5
143
330
169
100
AcDbEntity
8
Defpoints
48
1
370
-1
100
AcDbPoint
10
217.32050807568876
20
9.999999999999998
30
0
210
0
220
0
230
1
1001
CONDUITCAD
1000
{"id":"dxf-84"}
0
ENDBLK
5
17B
330
169
100
AcDbEntity
8
0
100
AcDbBlockEnd
0
BLOCK
5
17C
330
16A
100
AcDbEntity
8
0
100
AcDbBlockBegin
2
*D6
70
1
10
0
20
0
30
0
3
*D6
1

1001
CONDUITCAD
1000
{"ports":[]}
0
LINE
5
144
330
16A
100
AcDbEntity
8
0
48
1
370
-1
100
AcDbLine
10
260
20
0
30
0
11
261.62277660168377
21
0
31
0
210
0
220
0
230
1
1001
CONDUITCAD
1000
{"id":"dxf-88"}
0
LINE
5
145
330
16A
100
AcDbEntity
8
0
48
1
370
-1
100
AcDbLine
10
230
20
30
30
0
11
230
21
31.622776601683793
31
0
210
0
220
0
230
1
1001
CONDUITCAD
1000
{"id":"dxf-89"}
0
INSERT
5
146
330
16A
100
AcDbEntity
8
0
48
1
370
-1
100
AcDbBlockReference
2
_CLOSEDFILLED
10
261.62277660168377
20
0
30
0
41
0.25
42
0.25
43
1
50
270.2264814544702
210
0
220
0
230
1
1001
CONDUITCAD
1000
{"id":"dxf-8A"}
0
INSERT
5
147
330
16A
100
AcDbEntity
8
0
48
1
370
-1
100
AcDbBlockReference
2
_CLOSEDFILLED
10
230
20
31.622776601683793
30
0
41
0.25
42
0.25
43
1
50
179.7735185455298
210
0
220
0
230
1
1001
CONDUITCAD
1000
{"id":"dxf-8C"}
0
MTEXT
5
148
330
16A
100
AcDbEntity
8
0
48
1
370
-1
100
AcDbMText
10
252.3606797749979
20
22.360679774997894
30
0
40
1
41
0
71
5
7
STANDARD
1
90°
11
0.7071067811865474
21
-0.7071067811865477
31
0
73
1
44
1
210
0
220
0
230
1
1001
CONDUITCAD
1000
{"id":"dxf-8E"}
0
ARC
5
149
330
16A
100
AcDbEntity
8
0
48
1
370
-1
100
AcDbCircle
10
230
20
0
30
0
40
31.622776601683793
100
AcDbArc
50
0.45296290894038327
51
42.281202346522456
210
0
220
0
230
1
1001
CONDUITCAD
1000
{"id":"dxf-8F"}
0
ARC
5
14A
330
16A
100
AcDbEntity
8
0
48
1
370
-1
100
AcDbCircle
10
230
20
0
30
0
40
31.622776601683793
100
AcDbArc
50
47.71879765347785
51
89.54703709105962
210
0
220
0
230
1
1001
CONDUITCAD
1000
{"id":"dxf-90"}
0
POINT
5
14B
330
16A
100
AcDbEntity
8
Defpoints
48
1
370
-1
100
AcDbPoint
10
240
20
30
30
0
210
0
220
0
230
1
1001
CONDUITCAD
1000
{"id":"dxf-91"}
0
POINT
5
14C
330
16A
100
AcDbEntity
8
Defpoints
48
1
370
-1
100
AcDbPoint
10
260
20
0
30
0
210
0
220
0
230
1
1001
CONDUITCAD
1000
{"id":"dxf-92"}
0
POINT
5
14D
330
16A
100
AcDbEntity
8
Defpoints
48
1
370
-1
100
AcDbPoint
10
230
20
30
30
0
210
0
220
0
230
1
1001
CONDUITCAD
1000
{"id":"dxf-93"}
0
POINT
5
14E
330
16A
100
AcDbEntity
8
Defpoints
48
1
370
-1
100
AcDbPoint
10
230
20
0
30
0
210
0
220
0
230
1
1001
CONDUITCAD
1000
{"id":"dxf-94"}
0
ENDBLK
5
17D
330
16A
100
AcDbEntity
8
0
100
AcDbBlockEnd
0
BLOCK
5
17E
330
16B
100
AcDbEntity
8
0
100
AcDbBlockBegin
2
*D7
70
1
10
0
20
0
30
0
3
*D7
1

1001
CONDUITCAD
1000
{"ports":[]}
0
LINE
5
14F
330
16B
100
AcDbEntity
8
0
48
1
370
-1
100
AcDbLine
10
30
20
80
30
0
11
30
21
99
31
0
210
0
220
0
230
1
1001
CONDUITCAD
1000
{"id":"dxf-98"}
0
LINE
5
150
330
16B
100
AcDbEntity
8
0
48
1
370
-1
100
AcDbLine
10
30
20
99
30
0
11
29.999999999999996
21
99.5
31
0
210
0
220
0
230
1
1001
CONDUITCAD
1000
{"id":"dxf-99"}
0
LINE
5
151
330
16B
100
AcDbEntity
8
0
48
1
370
-1
100
AcDbLine
10
29.999999999999996
20
99.5
30
0
11
29.999999999999996
21
100
31
0
210
0
220
0
230
1
1001
CONDUITCAD
1000
{"id":"dxf-9A"}
0
MTEXT
5
152
330
16B
100
AcDbEntity
8
0
48
1
370
-1
100
AcDbMText
10
29.999999999999996
20
101
30
0
40
1
41
0
71
5
7
STANDARD
1
30
11
6.123233995736766e-17
21
1
31
0
73
1
44
1
210
0
220
0
230
1
1001
CONDUITCAD
1000
{"id":"dxf-9B"}
0
POINT
5
153
330
16B
100
AcDbEntity
8
Defpoints
48
1
370
-1
100
AcDbPoint
10
0
20
0
30
0
210
0
220
0
230
1
1001
CONDUITCAD
1000
{"id":"dxf-9C"}
0
POINT
5
154
330
16B
100
AcDbEntity
8
Defpoints
48
1
370
-1
100
AcDbPoint
10
30
20
80
30
0
210
0
220
0
230
1
1001
CONDUITCAD
1000
{"id":"dxf-9D"}
0
POINT
5
155
330
16B
100
AcDbEntity
8
Defpoints
48
1
370
-1
100
AcDbPoint
10
29.999999999999996
20
100
30
0
210
0
220
0
230
1
1001
CONDUITCAD
1000
{"id":"dxf-9E"}
0
ENDBLK
5
17F
330
16B
100
AcDbEntity
8
0
100
AcDbBlockEnd
0
BLOCK
5
188
330
187
100
AcDbEntity
8
0
100
AcDbBlockBegin
2
*Paper_Space1
70
0
10
0
20
0
30
0
3
*Paper_Space1
1

0
VIEWPORT
5
10F
330
187
100
AcDbEntity
8
VIEWPORTS
67
1
410
Sheet A
48
1
370
-1
100
AcDbViewport
10
100
20
69
30
0
40
231.00000000000003
41
162.8
68
1
69
1
12
100
22
69
16
0
26
0
36
1
17
0
27
0
37
0
45
162.8
51
0
90
557088
281
0
210
0
220
0
230
1
1001
CONDUITCAD
1000
{"id":"dxf-AD"}
0
TEXT
5
110
330
187
100
AcDbEntity
8
0
67
1
410
Sheet A
48
1
370
-1
100
AcDbText
10
10
20
130
30
0
40
5
1
Sheet A
50
0
41
1
7
STANDARD
100
AcDbText
73
0
210
0
220
0
230
1
1001
CONDUITCAD
1000
{"id":"dxf-AE"}
0
VIEWPORT
5
111
330
187
100
AcDbEntity
8
VIEWPORTS
67
1
410
Sheet A
48
1
370
-1
100
AcDbViewport
10
100
20
65
30
0
40
130
41
100
68
2
69
3
12
20
22
0
16
0
26
0
36
1
17
15
27
5
37
0
45
180
51
0
90
0
331
15B
281
0
210
0
220
0
230
1
1001
CONDUITCAD
1000
{"id":"dxf-AF"}
0
ENDBLK
5
189
330
187
100
AcDbEntity
8
0
100
AcDbBlockEnd
0
BLOCK
5
18B
330
18A
100
AcDbEntity
8
0
100
AcDbBlockBegin
2
*Paper_Space2
70
0
10
0
20
0
30
0
3
*Paper_Space2
1

0
VIEWPORT
5
112
330
18A
100
AcDbEntity
8
VIEWPORTS
67
1
410
Sheet B
48
1
370
-1
100
AcDbViewport
10
100
20
69
30
0
40
231.00000000000003
41
162.8
68
1
69
1
12
100
22
69
16
0
26
0
36
1
17
0
27
0
37
0
45
162.8
51
0
90
557088
281
0
210
0
220
0
230
1
1001
CONDUITCAD
1000
{"id":"dxf-B4"}
0
TEXT
5
113
330
18A
100
AcDbEntity
8
0
67
1
410
Sheet B
48
1
370
-1
100
AcDbText
10
10
20
130
30
0
40
5
1
Sheet B
50
0
41
1
7
STANDARD
100
AcDbText
73
0
210
0
220
0
230
1
1001
CONDUITCAD
1000
{"id":"dxf-B5"}
0
VIEWPORT
5
114
330
18A
100
AcDbEntity
8
VIEWPORTS
67
1
410
Sheet B
48
1
370
-1
100
AcDbViewport
10
100
20
65
30
0
40
130
41
100
68
2
69
3
12
20
22
0
16
0
26
0
36
1
17
15
27
5
37
0
45
180
51
30
90
65536
331
15B
340
115
281
0
210
0
220
0
230
1
1001
CONDUITCAD
1000
{"id":"dxf-B6"}
0
LWPOLYLINE
5
115
330
18A
100
AcDbEntity
8
0
67
1
410
Sheet B
48
1
370
-1
100
AcDbPolyline
90
4
70
1
10
50
20
20
10
150
20
20
10
110
20
100
10
70
20
100
210
0
220
0
230
1
1001
CONDUITCAD
1000
{"id":"dxf-B7"}
0
ENDBLK
5
18C
330
18A
100
AcDbEntity
8
0
100
AcDbBlockEnd
0
ENDSEC
0
SECTION
2
ENTITIES
0
LINE
5
100
330
162
100
AcDbEntity
8
0
62
5
48
1
370
-1
100
AcDbLine
10
-100
20
0
30
3
11
100
21
0
31
7
210
0
220
0
230
1
1001
CONDUITCAD
1000
{"id":"dxf-31"}
0
CIRCLE
5
101
330
162
100
AcDbEntity
8
Frozen
48
1
370
-1
100
AcDbCircle
10
0
20
0
30
0
40
30
210
0
220
0
230
1
1001
CONDUITCAD
1000
{"id":"dxf-32"}
0
TEXT
5
102
330
162
100
AcDbEntity
8
0
48
1
370
-1
100
AcDbText
10
0
20
60
30
0
40
8
1
Zażółć ΔP 温度 😀
50
0
41
1
7
UnicodeStyle
100
AcDbText
73
0
210
0
220
0
230
1
1001
CONDUITCAD
1000
{"id":"dxf-33"}
0
MTEXT
5
103
330
162
100
AcDbEntity
8
0
48
1
370
-1
100
AcDbMText
10
0
20
90
30
0
40
3
41
100
71
1
7
STANDARD
3
Αβ 日本語 😀 Αβ 日本語 😀 Αβ 日本語 😀 Αβ 日本語 😀 Αβ 日本語 😀 Αβ 日本語 😀 Αβ 日本語 😀 Αβ 日本語 😀 Αβ 日本語 😀 Αβ 日本語 😀 Αβ 日本語 😀 Αβ 日本語 😀 Αβ 日
3
本語 😀 Αβ 日本語 😀 Αβ 日本語 😀 Αβ 日本語 😀 Αβ 日本語 😀 Αβ 日本語 😀 Αβ 日本語 😀 Αβ 日本語 😀 Αβ 日本語 😀 Αβ 日本語 😀 Αβ 日本語 😀 Αβ 日本語 😀 Αβ 日本語 
3
😀 Αβ 日本語 😀 Αβ 日本語 😀 Αβ 日本語 😀 Αβ 日本語 😀 Αβ 日本語 😀 Αβ 日本語 😀 Αβ 日本語 😀 Αβ 日本語 😀 Αβ 日本語 😀 Αβ 日本語 😀 Αβ 日本語 😀 Αβ 日本語 😀 Αβ 
3
日本語 😀 Αβ 日本語 😀 Αβ 日本語 😀 Αβ 日本語 😀 Αβ 日本語 😀 Αβ 日本語 😀 Αβ 日本語 😀 Αβ 日本語 😀 Αβ 日本語 😀 Αβ 日本語 😀 Αβ 日本語 😀 Αβ 日本語 😀 Αβ 日本語 
1
😀 
11
1
21
0
31
0
73
1
44
1
210
0
220
0
230
1
1001
CONDUITCAD
1000
{"id":"dxf-34"}
0
DIMENSION
5
104
330
162
100
AcDbEntity
8
0
48
1
370
-1
100
AcDbDimension
2
*D1
10
0
20
20
30
0
11
20
21
20
31
0
70
32
1
<>
3
Standard
71
5
280
0
100
AcDbAlignedDimension
13
0
23
0
33
0
14
40
24
0
34
0
50
0
100
AcDbRotatedDimension
210
0
220
0
230
1
1001
CONDUITCAD
1000
{"id":"dxf-35"}
0
DIMENSION
5
105
330
162
100
AcDbEntity
8
0
48
1
370
-1
100
AcDbDimension
2
*D2
10
42.97753116823216
20
18.726583551380887
30
0
11
62.97753116823216
21
26.226583551380884
31
0
70
33
1
<>
3
Standard
71
5
280
0
100
AcDbAlignedDimension
13
50
23
0
33
0
14
90
24
15
34
0
210
0
220
0
230
1
1001
CONDUITCAD
1000
{"id":"dxf-36"}
0
DIMENSION
5
106
330
162
100
AcDbEntity
8
0
48
1
370
-1
100
AcDbDimension
2
*D3
10
30
20
30
30
0
11
-41.31714875431929
21
-17.114123372625674
31
0
70
34
1
<>
3
Standard
71
5
280
0
100
AcDb2LineAngularDimension
13
0
23
0
33
0
14
40
24
0
34
0
15
0
25
0
35
0
16
20
26
40
36
0
210
0
220
0
230
1
1001
CONDUITCAD
1000
{"id":"dxf-37"}
0
DIMENSION
5
107
330
162
100
AcDbEntity
8
0
48
1
370
-1
100
AcDbDimension
2
*D4
10
170
20
0
30
0
11
127.625
21
0
31
0
70
35
1
<>
3
Standard
71
5
280
0
100
AcDbDiametricDimension
15
130
25
0
35
0
40
0
210
0
220
0
230
1
1001
CONDUITCAD
1000
{"id":"dxf-38"}
0
DIMENSION
5
108
330
162
100
AcDbEntity
8
0
48
1
370
-1
100
AcDbDimension
2
*D5
10
200
20
0
30
0
11
219.3773184096768
21
11.187499999999998
31
0
70
36
1
<>
3
Standard
71
5
280
0
100
AcDbRadialDimension
15
217.32050807568876
25
9.999999999999998
35
0
40
0
210
0
220
0
230
1
1001
CONDUITCAD
1000
{"id":"dxf-39"}
0
DIMENSION
5
109
330
162
100
AcDbEntity
8
0
48
1
370
-1
100
AcDbDimension
2
*D6
10
240
20
30
30
0
11
252.3606797749979
21
22.360679774997894
31
0
70
37
1
<>
3
Standard
71
5
280
0
100
AcDb3PointAngularDimension
13
260
23
0
33
0
14
230
24
30
34
0
15
230
25
0
35
0
210
0
220
0
230
1
1001
CONDUITCAD
1000
{"id":"dxf-3A"}
0
DIMENSION
5
10A
330
162
100
AcDbEntity
8
0
48
1
370
-1
100
AcDbDimension
2
*D7
10
0
20
0
30
0
11
29.999999999999996
21
101
31
0
70
102
1
<>
3
Standard
71
5
280
0
100
AcDbOrdinateDimension
13
30
23
80
33
0
14
29.999999999999996
24
100
34
0
210
0
220
0
230
1
1001
CONDUITCAD
1000
{"id":"dxf-3B"}
0
MESH
5
10B
330
162
100
AcDbEntity
8
0
48
1
370
-1
100
AcDbSubDMesh
71
2
72
0
91
0
92
5
10
0
20
-80
30
0
10
30
20
-80
30
0
10
30
20
-50
30
0
10
0
20
-50
30
0
10
15
20
-65
30
25
93
21
90
3
90
0
90
1
90
4
90
3
90
1
90
2
90
4
90
3
90
2
90
3
90
4
90
3
90
3
90
0
90
4
90
4
90
3
90
2
90
1
90
0
94
2
90
0
90
1
90
1
90
2
95
2
140
0
140
1
90
0
210
0
220
0
230
1
1001
CONDUITCAD
1000
{"id":"dxf-9F"}
0
HELIX
5
10C
330
162
100
AcDbEntity
8
0
48
1
370
-1
100
AcDbSpline
70
0
71
3
72
41
73
37
74
0
40
0
40
0
40
0
40
0
40
1
40
1
40
1
40
2
40
2
40
2
40
3
40
3
40
3
40
4
40
4
40
4
40
5
40
5
40
5
40
6
40
6
40
6
40
7
40
7
40
7
40
8
40
8
40
8
40
9
40
9
40
9
40
10
40
10
40
10
40
11
40
11
40
11
40
12
40
12
40
12
40
12
10
92
20
-70
30
0
10
92
20
-63.37258300203048
30
0.6226295222633873
10
86.62741699796952
20
-58
30
1.127370477736613
10
80
20
-58
30
1.7500000000000002
10
73.37258300203048
20
-58
30
2.3726295222633875
10
68
20
-63.37258300203048
30
2.8773704777366134
10
68
20
-70
30
3.5000000000000004
10
68
20
-76.62741699796952
30
4.122629522263388
10
73.37258300203048
20
-82
30
4.627370477736614
10
80
20
-82
30
5.250000000000001
10
86.62741699796952
20
-82
30
5.872629522263388
10
92
20
-76.62741699796952
30
6.377370477736614
10
92
20
-70
30
7.000000000000001
10
92
20
-63.37258300203048
30
7.622629522263388
10
86.62741699796952
20
-58
30
8.127370477736614
10
80
20
-58
30
8.750000000000002
10
73.37258300203048
20
-58
30
9.372629522263388
10
68
20
-63.37258300203048
30
9.877370477736614
10
68
20
-70
30
10.500000000000002
10
68
20
-76.62741699796952
30
11.122629522263388
10
73.37258300203048
20
-82
30
11.627370477736616
10
80
20
-82
30
12.250000000000002
10
86.62741699796952
20
-82
30
12.872629522263388
10
92
20
-76.62741699796952
30
13.377370477736616
10
92
20
-70
30
14.000000000000002
10
92
20
-63.37258300203048
30
14.62262952226339
10
86.62741699796952
20
-58
30
15.127370477736616
10
80
20
-58
30
15.750000000000002
10
73.37258300203048
20
-58
30
16.372629522263388
10
68
20
-63.37258300203048
30
16.877370477736616
10
68
20
-70
30
17.500000000000004
10
68
20
-76.62741699796952
30
18.122629522263388
10
73.37258300203048
20
-82
30
18.627370477736616
10
80
20
-82
30
19.250000000000004
10
86.62741699796952
20
-82
30
19.872629522263388
10
92
20
-76.62741699796952
30
20.377370477736616
10
92
20
-70
30
21.000000000000004
100
AcDbHelix
90
29
91
63
10
80
20
-70
30
0
11
92
21
-70
31
0
12
0
22
0
32
1
40
12
41
3
42
7
290
1
280
1
210
0
220
0
230
1
1001
CONDUITCAD
1000
{"id":"dxf-A0"}
0
WIPEOUT
5
10D
330
162
100
AcDbEntity
8
0
48
1
370
-1
100
AcDbWipeout
90
0
10
115
20
-85
30
0
11
30
21
0
31
0
12
0
22
30
32
0
13
1
23
1
70
7
280
1
281
50
282
50
283
0
71
2
91
5
14
-0.5
24
0.5
14
0.5
24
0.5
14
0.5
24
-0.5
14
-0.16666666666666669
24
-0.33333333333333337
14
-0.5
24
0.5
210
0
220
0
230
1
1001
CONDUITCAD
1000
{"id":"dxf-A1"}
0
LINE
5
10E
330
162
100
AcDbEntity
8
0
48
1
370
-1
100
AcDbLine
10
300
20
0
30
0
11
350
21
10
31
0
210
0
220
0
230
1
1001
CONDUITCAD
1000
{"id":"dxf-A6"}
0
ENDSEC
0
SECTION
2
OBJECTS
0
DICTIONARY
5
18D
330
0
100
AcDbDictionary
281
1
3
ACAD_LAYOUT
350
18E
3
ACAD_GROUP
350
18F
3
CONDUITCAD_METADATA
350
194
0
DICTIONARY
5
18E
330
18D
100
AcDbDictionary
281
1
3
Model
350
190
3
Layout1
350
191
3
Sheet A
350
192
3
Sheet B
350
193
0
DICTIONARY
5
18F
330
18D
100
AcDbDictionary
281
1
0
LAYOUT
5
190
330
18E
100
AcDbPlotSettings
1

2

4

6

40
0
41
0
42
0
43
0
44
420
45
297
46
0
47
0
48
0
49
0
140
0
141
0
142
1
143
1
70
0
72
1
73
0
74
5
7

75
16
76
0
77
0
78
300
147
1
148
0
149
0
100
AcDbLayout
1
Model
70
1
71
0
10
0
20
0
11
420
21
297
12
0
22
0
32
0
14
0
24
0
34
0
15
420
25
297
35
0
146
0
13
0
23
0
33
0
16
1
26
0
36
0
17
0
27
1
37
0
76
0
330
162
0
LAYOUT
5
191
330
18E
100
AcDbPlotSettings
1

2

4

6

40
0
41
0
42
0
43
0
44
420
45
297
46
0
47
0
48
0
49
0
140
0
141
0
142
1
143
1
70
0
72
1
73
0
74
5
7

75
16
76
0
77
0
78
300
147
1
148
0
149
0
100
AcDbLayout
1
Layout1
70
1
71
1
10
0
20
0
11
420
21
297
12
0
22
0
32
0
14
0
24
0
34
0
15
420
25
297
35
0
146
0
13
0
23
0
33
0
16
1
26
0
36
0
17
0
27
1
37
0
76
0
330
163
0
LAYOUT
5
192
330
18E
100
AcDbPlotSettings
1

2

4

6

40
0
41
0
42
0
43
0
44
210
45
148
46
0
47
0
48
0
49
0
140
0
141
0
142
1
143
1
70
0
72
1
73
0
74
5
7

75
16
76
0
77
0
78
300
147
1
148
0
149
0
100
AcDbLayout
1
Sheet A
70
1
71
2
10
0
20
0
11
210
21
148
12
0
22
0
32
0
14
0
24
0
34
0
15
210
25
148
35
0
146
0
13
0
23
0
33
0
16
1
26
0
36
0
17
0
27
1
37
0
76
0
330
187
0
LAYOUT
5
193
330
18E
100
AcDbPlotSettings
1

2

4

6

40
0
41
0
42
0
43
0
44
210
45
148
46
0
47
0
48
0
49
0
140
0
141
0
142
1
143
1
70
0
72
1
73
0
74
5
7

75
16
76
0
77
0
78
300
147
1
148
0
149
0
100
AcDbLayout
1
Sheet B
70
1
71
3
10
0
20
0
11
210
21
148
12
0
22
0
32
0
14
0
24
0
34
0
15
210
25
148
35
0
146
0
13
0
23
0
33
0
16
1
26
0
36
0
17
0
27
1
37
0
76
0
330
18A
0
XRECORD
5
194
330
18D
100
AcDbXrecord
280
1
1
{"parameters":{"grid":"10","pipeWidth":"2","valveSize":"64"},"constraints":[],"metadata":{"author":"","description":""}}
0
ENDSEC
0
EOF
