0
SECTION
2
HEADER
9
$ACADVER
1
AC1024
9
$INSUNITS
70
4
9
$LTSCALE
40
1
9
$MEASUREMENT
70
1
999
CONDUIT:{"parameters":{"Width":"80","Rise":"30","Half":"Width/2"},"constraints":[],"metadata":{"description":"Six editable primitive features plus a 2D reference outline. Try face selectio
999
CONDUIT:n, XYZ edits and section analysis.","modeling":{"version":1,"preferredMode":"3d","example":"primitives","notes":"Editable faceted concept model. Not certified or construction-appro
999
CONDUIT:ved."}}}
9
$HANDSEED
5
125
9
$DWGCODEPAGE
3
ANSI_1252
9
$CLAYER
8
0
9
$TILEMODE
70
1
0
ENDSEC
0
SECTION
2
TABLES
0
TABLE
2
LTYPE
5
102
330
0
100
AcDbSymbolTable
70
4
0
LTYPE
5
103
100
AcDbSymbolTableRecord
100
AcDbLinetypeTableRecord
2
CONTINUOUS
70
0
3
Solid line
72
65
73
0
40
0
330
102
0
LTYPE
5
104
100
AcDbSymbolTableRecord
100
AcDbLinetypeTableRecord
2
DASHED
70
0
3
DASHED
72
65
73
2
40
12
49
8
74
0
49
-4
74
0
330
102
0
LTYPE
5
105
100
AcDbSymbolTableRecord
100
AcDbLinetypeTableRecord
2
CENTER
70
0
3
CENTER
72
65
73
4
40
20
49
12
74
0
49
-3
74
0
49
2
74
0
49
-3
74
0
330
102
0
LTYPE
5
106
100
AcDbSymbolTableRecord
100
AcDbLinetypeTableRecord
2
HIDDEN
70
0
3
HIDDEN
72
65
73
2
40
7
49
4
74
0
49
-3
74
0
330
102
0
ENDTAB
0
TABLE
2
LAYER
5
107
330
0
100
AcDbSymbolTable
70
6
0
LAYER
5
108
100
AcDbSymbolTableRecord
100
AcDbLayerTableRecord
2
0
70
0
62
7
420
3426133
6
CONTINUOUS
330
107
0
LAYER
5
109
100
AcDbSymbolTableRecord
100
AcDbLayerTableRecord
2
Equipment
70
0
62
7
420
3495011
6
CONTINUOUS
330
107
0
LAYER
5
10A
100
AcDbSymbolTableRecord
100
AcDbLayerTableRecord
2
Process
70
0
62
7
420
1342583
6
CONTINUOUS
330
107
0
LAYER
5
10B
100
AcDbSymbolTableRecord
100
AcDbLayerTableRecord
2
Instruments
70
0
62
7
420
10187334
6
CONTINUOUS
330
107
0
LAYER
5
10C
100
AcDbSymbolTableRecord
100
AcDbLayerTableRecord
2
Electrical
70
0
62
7
420
6584250
6
CONTINUOUS
330
107
0
LAYER
5
10D
100
AcDbSymbolTableRecord
100
AcDbLayerTableRecord
2
Annotations
70
0
62
7
420
7438474
6
CONTINUOUS
330
107
0
ENDTAB
0
TABLE
2
STYLE
5
10E
330
0
100
AcDbSymbolTable
70
1
0
STYLE
5
10F
100
AcDbSymbolTableRecord
100
AcDbTextStyleTableRecord
2
STANDARD
70
0
40
0
41
1
50
0
71
0
42
2.5
3
txt
4

330
10E
0
ENDTAB
0
TABLE
2
APPID
5
110
330
0
100
AcDbSymbolTable
70
2
0
APPID
5
111
100
AcDbSymbolTableRecord
100
AcDbRegAppTableRecord
2
CONDUITCAD
70
0
330
110
0
APPID
5
11E
100
AcDbSymbolTableRecord
100
AcDbRegAppTableRecord
2
ACAD
70
0
330
110
0
ENDTAB
0
TABLE
2
BLOCK_RECORD
5
112
330
0
100
AcDbSymbolTable
70
2
0
BLOCK_RECORD
5
113
100
AcDbSymbolTableRecord
100
AcDbBlockTableRecord
2
*Model_Space
340
122
330
112
0
BLOCK_RECORD
5
114
100
AcDbSymbolTableRecord
100
AcDbBlockTableRecord
2
*Paper_Space
340
123
330
112
0
ENDTAB
0
TABLE
2
VPORT
5
119
330
0
100
AcDbSymbolTable
70
0
0
ENDTAB
0
TABLE
2
VIEW
5
11A
330
0
100
AcDbSymbolTable
70
0
0
ENDTAB
0
TABLE
2
UCS
5
11B
330
0
100
AcDbSymbolTable
70
0
0
ENDTAB
0
TABLE
2
DIMSTYLE
5
11C
330
0
100
AcDbSymbolTable
70
1
100
AcDbDimStyleTable
71
0
0
DIMSTYLE
105
11D
330
11C
100
AcDbSymbolTableRecord
100
AcDbDimStyleTableRecord
2
STANDARD
70
0
340
10F
0
ENDTAB
0
ENDSEC
0
SECTION
2
BLOCKS
0
BLOCK
5
115
330
113
100
AcDbEntity
8
0
100
AcDbBlockBegin
2
*Model_Space
70
1
10
0
20
0
30
0
3
*Model_Space
1

1001
CONDUITCAD
1000
{"ports":[]}
0
ENDBLK
5
116
330
113
100
AcDbEntity
8
0
100
AcDbBlockEnd
0
BLOCK
5
117
330
114
100
AcDbEntity
8
0
100
AcDbBlockBegin
2
*Paper_Space
70
1
10
0
20
0
30
0
3
*Paper_Space
1

1001
CONDUITCAD
1000
{"ports":[]}
0
ENDBLK
5
118
330
114
100
AcDbEntity
8
0
100
AcDbBlockEnd
0
ENDSEC
0
SECTION
2
ENTITIES
0
MESH
5
100
330
113
100
AcDbEntity
8
Equipment
62
7
420
5671313
100
AcDbSubDMesh
71
2
72
0
91
0
92
8
10
25
20
0
30
0
10
105
20
0
30
0
10
105
20
45
30
0
10
25
20
45
30
0
10
25
20
0
30
30
10
105
20
0
30
30
10
105
20
45
30
30
10
25
20
45
30
30
93
30
90
4
90
0
90
3
90
2
90
1
90
4
90
4
90
5
90
6
90
7
90
4
90
0
90
1
90
5
90
4
90
4
90
1
90
2
90
6
90
5
90
4
90
2
90
3
90
7
90
6
90
4
90
3
90
0
90
4
90
7
94
0
95
0
90
0
1001
CONDUITCAD
1000
{"id":"3d-primitives-001","label":"Box","feature3d":{"version":1,"kind":"box","parameters":{"width":"Width","depth":45,"height":"Rise","x":25},"inputs":[],"suppressed":false},"model3dConsumed":false,"
1000
model3dUserHidden":false}
0
CIRCLE
5
101
330
113
100
AcDbEntity
8
0
100
AcDbCircle
10
-35
20
0
30
0
40
40
1001
CONDUITCAD
1000
{"id":"circle-live","parametric":{"radius":"Width/2"},"model3dConsumed":false}
0
ENDSEC
0
SECTION
2
OBJECTS
0
DICTIONARY
5
11F
330
0
100
AcDbDictionary
281
1
3
ACAD_LAYOUT
350
120
3
ACAD_GROUP
350
121
3
CONDUITCAD_METADATA
350
124
0
DICTIONARY
5
120
330
11F
100
AcDbDictionary
281
1
3
Model
350
122
3
Layout1
350
123
0
DICTIONARY
5
121
330
11F
100
AcDbDictionary
281
1
0
LAYOUT
5
122
330
120
100
AcDbPlotSettings
1

2

4

6

40
0
41
0
42
0
43
0
44
420
45
297
46
0
47
0
48
0
49
0
140
0
141
0
142
1
143
1
70
0
72
1
73
0
74
5
7

75
16
76
0
77
0
78
300
147
1
148
0
149
0
100
AcDbLayout
1
Model
70
1
71
0
10
0
20
0
11
420
21
297
12
0
22
0
32
0
14
0
24
0
34
0
15
420
25
297
35
0
146
0
13
0
23
0
33
0
16
1
26
0
36
0
17
0
27
1
37
0
76
0
330
113
0
LAYOUT
5
123
330
120
100
AcDbPlotSettings
1

2

4

6

40
0
41
0
42
0
43
0
44
420
45
297
46
0
47
0
48
0
49
0
140
0
141
0
142
1
143
1
70
0
72
1
73
0
74
5
7

75
16
76
0
77
0
78
300
147
1
148
0
149
0
100
AcDbLayout
1
Layout1
70
1
71
1
10
0
20
0
11
420
21
297
12
0
22
0
32
0
14
0
24
0
34
0
15
420
25
297
35
0
146
0
13
0
23
0
33
0
16
1
26
0
36
0
17
0
27
1
37
0
76
0
330
114
0
XRECORD
5
124
330
11F
100
AcDbXrecord
280
1
1
{"parameters":{"Width":"80","Rise":"30","Half":"Width/2"},"constraints":[],"metadata":{"description":"Six editable primitive features plus a 2D reference outline. Try face selection, XYZ edits and sec
1
tion analysis.","modeling":{"version":1,"preferredMode":"3d","example":"primitives","notes":"Editable faceted concept model. Not certified or construction-approved."}}}
0
ENDSEC
0
EOF
