0
SECTION
2
HEADER
9
$ACADVER
1
AC1024
9
$INSUNITS
70
4
9
$LTSCALE
40
1
9
$MEASUREMENT
70
1
999
CONDUIT:{"parameters":{"grid":"10","pipeWidth":"2","valveSize":"64"},"constraints":[],"metadata":{"author":"","description":""}}
9
$HANDSEED
5
159
9
$DWGCODEPAGE
3
ANSI_1252
9
$CLAYER
8
0
9
$TILEMODE
70
1
0
ENDSEC
0
SECTION
2
TABLES
0
TABLE
2
LTYPE
5
11C
330
0
100
AcDbSymbolTable
70
4
0
LTYPE
5
11D
100
AcDbSymbolTableRecord
100
AcDbLinetypeTableRecord
2
CONTINUOUS
70
0
3
Solid line
72
65
73
0
40
0
330
11C
0
LTYPE
5
11E
100
AcDbSymbolTableRecord
100
AcDbLinetypeTableRecord
2
DASHED
70
0
3
DASHED
72
65
73
2
40
12
49
8
74
0
49
-4
74
0
330
11C
0
LTYPE
5
11F
100
AcDbSymbolTableRecord
100
AcDbLinetypeTableRecord
2
CENTER
70
0
3
CENTER
72
65
73
4
40
20
49
12
74
0
49
-3
74
0
49
2
74
0
49
-3
74
0
330
11C
0
LTYPE
5
120
100
AcDbSymbolTableRecord
100
AcDbLinetypeTableRecord
2
HIDDEN
70
0
3
HIDDEN
72
65
73
2
40
7
49
4
74
0
49
-3
74
0
330
11C
0
ENDTAB
0
TABLE
2
LAYER
5
121
330
0
100
AcDbSymbolTable
70
6
0
LAYER
5
122
100
AcDbSymbolTableRecord
100
AcDbLayerTableRecord
2
0
70
0
62
7
420
3426133
6
CONTINUOUS
330
121
0
LAYER
5
123
100
AcDbSymbolTableRecord
100
AcDbLayerTableRecord
2
Equipment
70
0
62
7
420
3495011
6
CONTINUOUS
330
121
0
LAYER
5
124
100
AcDbSymbolTableRecord
100
AcDbLayerTableRecord
2
Process
70
0
62
7
420
1342583
6
CONTINUOUS
330
121
0
LAYER
5
125
100
AcDbSymbolTableRecord
100
AcDbLayerTableRecord
2
Instruments
70
0
62
7
420
10187334
6
CONTINUOUS
330
121
0
LAYER
5
126
100
AcDbSymbolTableRecord
100
AcDbLayerTableRecord
2
Electrical
70
0
62
7
420
6584250
6
CONTINUOUS
330
121
0
LAYER
5
127
100
AcDbSymbolTableRecord
100
AcDbLayerTableRecord
2
Annotations
70
0
62
7
420
7438474
6
CONTINUOUS
330
121
0
ENDTAB
0
TABLE
2
STYLE
5
128
330
0
100
AcDbSymbolTable
70
1
0
STYLE
5
129
100
AcDbSymbolTableRecord
100
AcDbTextStyleTableRecord
2
STANDARD
70
0
40
0
41
1
50
0
71
0
42
2.5
3
txt
4

330
128
0
ENDTAB
0
TABLE
2
APPID
5
12A
330
0
100
AcDbSymbolTable
70
2
0
APPID
5
12B
100
AcDbSymbolTableRecord
100
AcDbRegAppTableRecord
2
CONDUITCAD
70
0
330
12A
0
APPID
5
152
100
AcDbSymbolTableRecord
100
AcDbRegAppTableRecord
2
ACAD
70
0
330
12A
0
ENDTAB
0
TABLE
2
BLOCK_RECORD
5
12C
330
0
100
AcDbSymbolTable
70
8
0
BLOCK_RECORD
5
12D
100
AcDbSymbolTableRecord
100
AcDbBlockTableRecord
2
*Model_Space
340
156
330
12C
0
BLOCK_RECORD
5
12E
100
AcDbSymbolTableRecord
100
AcDbBlockTableRecord
2
*Paper_Space
340
157
330
12C
0
BLOCK_RECORD
5
12F
100
AcDbSymbolTableRecord
100
AcDbBlockTableRecord
2
Shared
330
12C
0
BLOCK_RECORD
5
130
100
AcDbSymbolTableRecord
100
AcDbBlockTableRecord
2
Wrapper
330
12C
0
BLOCK_RECORD
5
131
100
AcDbSymbolTableRecord
100
AcDbBlockTableRecord
2
Constrained
330
12C
0
BLOCK_RECORD
5
132
100
AcDbSymbolTableRecord
100
AcDbBlockTableRecord
2
*UCC1
330
12C
0
BLOCK_RECORD
5
133
100
AcDbSymbolTableRecord
100
AcDbBlockTableRecord
2
*DCC1
330
12C
0
BLOCK_RECORD
5
134
100
AcDbSymbolTableRecord
100
AcDbBlockTableRecord
2
*DCC2
330
12C
0
ENDTAB
0
TABLE
2
VPORT
5
14D
330
0
100
AcDbSymbolTable
70
0
0
ENDTAB
0
TABLE
2
VIEW
5
14E
330
0
100
AcDbSymbolTable
70
0
0
ENDTAB
0
TABLE
2
UCS
5
14F
330
0
100
AcDbSymbolTable
70
0
0
ENDTAB
0
TABLE
2
DIMSTYLE
5
150
330
0
100
AcDbSymbolTable
70
1
100
AcDbDimStyleTable
71
0
0
DIMSTYLE
105
151
330
150
100
AcDbSymbolTableRecord
100
AcDbDimStyleTableRecord
2
STANDARD
70
0
340
129
0
ENDTAB
0
ENDSEC
0
SECTION
2
BLOCKS
0
BLOCK
5
135
330
12D
100
AcDbEntity
8
0
100
AcDbBlockBegin
2
*Model_Space
70
1
10
0
20
0
30
0
3
*Model_Space
1

1001
CONDUITCAD
1000
{"ports":[]}
0
ENDBLK
5
136
330
12D
100
AcDbEntity
8
0
100
AcDbBlockEnd
0
BLOCK
5
137
330
12E
100
AcDbEntity
8
0
100
AcDbBlockBegin
2
*Paper_Space
70
1
10
0
20
0
30
0
3
*Paper_Space
1

1001
CONDUITCAD
1000
{"ports":[]}
0
ENDBLK
5
138
330
12E
100
AcDbEntity
8
0
100
AcDbBlockEnd
0
BLOCK
5
139
330
12F
100
AcDbEntity
8
0
100
AcDbBlockBegin
2
Shared
70
0
10
0
20
0
30
0
3
Shared
1

1001
CONDUITCAD
1000
{"ports":[{"name":"out","x":150,"y":0,"dx":1,"dy":0,"anchor":{"entityId":"edge","point":"b"}}],"parameters":{},"constraints":[],"revision":1}
0
LINE
5
104
330
12F
100
AcDbEntity
8
0
100
AcDbLine
10
0
20
0
30
0
11
150
21
0
31
0
1001
CONDUITCAD
1000
{"id":"edge"}
0
ATTDEF
5
105
330
12F
100
AcDbEntity
8
0
100
AcDbText
10
20
20
10
30
0
40
4
1
DEFAULT
50
0
41
1
7
STANDARD
100
AcDbAttributeDefinition
2
PART_NO
3
Part number
70
8
74
0
1001
CONDUITCAD
1000
{"id":"part"}
0
ATTDEF
5
106
330
12F
100
AcDbEntity
8
0
100
AcDbText
10
10
20
30
30
0
40
4
1
CONSTANT
50
0
41
1
7
STANDARD
100
AcDbAttributeDefinition
2
FIXED_LABEL
3
Equipment tag
70
2
74
0
1001
CONDUITCAD
1000
{"id":"e-muhdyipm-9"}
0
ENDBLK
5
13A
330
12F
100
AcDbEntity
8
0
100
AcDbBlockEnd
0
BLOCK
5
13B
330
130
100
AcDbEntity
8
0
100
AcDbBlockBegin
2
Wrapper
70
0
10
0
20
0
30
0
3
Wrapper
1

1001
CONDUITCAD
1000
{"ports":[],"revision":0}
0
INSERT
5
107
330
130
100
AcDbEntity
8
0
100
AcDbBlockReference
2
Shared
10
5
20
6
30
0
41
1
42
1
43
1
50
0
66
1
1001
CONDUITCAD
1000
{"id":"e-muhdyipl-3"}
0
ATTRIB
5
13C
330
107
100
AcDbEntity
8
0
100
AcDbText
10
25
20
16
30
0
40
4
1
DEFAULT
50
0
41
1
7
STANDARD
100
AcDbAttribute
2
PART_NO
70
8
74
0
1001
CONDUITCAD
1000
{"id":"attribute-muhdyipn-a","tag":"PART_NO"}
0
SEQEND
5
13D
330
107
100
AcDbEntity
8
0
0
ENDBLK
5
13E
330
130
100
AcDbEntity
8
0
100
AcDbBlockEnd
0
BLOCK
5
13F
330
131
100
AcDbEntity
8
0
100
AcDbBlockBegin
2
Constrained
70
0
10
0
20
0
30
0
3
Constrained
1

1001
CONDUITCAD
1000
{"ports":[],"dynamic":{"version":2,"parameters":[{"name":"Width","type":"distance","default":100,"min":10,"max":500},{"name":"HalfWidth","type":"distance","default":50,"expression":"Width/2"}],"action
1000
s":[{"type":"move","parameter":"Width","entities":["calc-attribute"],"direction":{"x":1,"y":0}}],"constraints":[{"type":"fixed-point","entityId":"driven","pointA":"a","target":{"x":0,"y":0}},{"type":"
1000
horizontal","entityId":"driven"},{"type":"length","entityId":"driven","name":"spanMeasured","value":"Width"}]},"revision":0}
0
LINE
5
108
330
131
100
AcDbEntity
8
0
100
AcDbLine
10
0
20
0
30
0
11
100
21
0
31
0
1001
CONDUITCAD
1000
{"id":"driven"}
0
DIMENSION
5
109
330
131
100
AcDbEntity
8
0
100
AcDbDimension
2
*DCC1
10
100
20
25
30
0
11
50
21
34
31
0
70
33
1
<>
3
STANDARD
42
100
100
AcDbAlignedDimension
13
0
23
0
33
0
14
100
24
0
34
0
1001
ACAD
1000
DSTYLE
1002
{
1070
140
1040
12
1070
41
1040
5
1070
44
1040
5
1070
42
1040
1
1070
147
1040
3
1070
40
1040
1
1070
144
1040
1
1070
271
1070
1
1070
45
1040
0
1070
3
1000
<>
1070
78
1070
0
1002
}
1001
CONDUITCAD
1000
{"id":"dim","dimension":{"version":1,"manualText":false,"resolvedScale":1,"references":{"a":{"entityId":"driven","point":"a"},"b":{"entityId":"driven","point":"b"}}}}
0
TEXT
5
10A
330
131
100
AcDbEntity
8
0
100
AcDbText
10
0
20
-20
30
0
40
5
1

50
0
41
1
7
STANDARD
100
AcDbText
73
0
1001
CONDUITCAD
1000
{"id":"label","calculation":{"expression":"Width","precision":0,"prefix":"Span="}}
0
ATTDEF
5
10B
330
131
100
AcDbEntity
8
0
100
AcDbText
10
25
20
10
30
0
40
4
1

50
0
41
1
7
STANDARD
100
AcDbAttributeDefinition
2
CALCULATED
3
Equipment tag
70
0
74
0
1001
CONDUITCAD
1000
{"id":"calc-attribute","calculation":{"expression":"Width*2","precision":0}}
0
ENDBLK
5
140
330
131
100
AcDbEntity
8
0
100
AcDbBlockEnd
0
BLOCK
5
141
330
132
100
AcDbEntity
8
0
100
AcDbBlockBegin
2
*UCC1
70
1
10
0
20
0
30
0
3
*UCC1
1

1001
CONDUITCAD
1000
{"ports":[],"revision":0,"dynamicInstance":{"master":"Constrained","values":{"Width":180,"HalfWidth":90}}}
0
LINE
5
10C
330
132
100
AcDbEntity
8
0
100
AcDbLine
10
-1.742153489296565e-8
20
2.4034429825355668e-20
30
0
11
179.99999997511117
21
4.532509037113665e-20
31
0
1001
CONDUITCAD
1000
{"id":"driven"}
0
DIMENSION
5
10D
330
132
100
AcDbEntity
8
0
100
AcDbDimension
2
*DCC2
10
179.99999997511117
20
25
30
0
11
89.99999997884481
21
34
31
0
70
33
1
<>
3
STANDARD
42
179.9999999925327
100
AcDbAlignedDimension
13
-1.742153489296565e-8
23
2.4034429825355668e-20
33
0
14
179.99999997511117
24
4.532509037113665e-20
34
0
1001
ACAD
1000
DSTYLE
1002
{
1070
140
1040
12
1070
41
1040
5
1070
44
1040
5
1070
42
1040
1
1070
147
1040
3
1070
40
1040
1
1070
144
1040
1
1070
271
1070
1
1070
45
1040
0
1070
3
1000
<>
1070
78
1070
0
1002
}
1001
CONDUITCAD
1000
{"id":"dim","dimension":{"version":1,"manualText":false,"resolvedScale":1,"references":{"a":{"entityId":"driven","point":"a"},"b":{"entityId":"driven","point":"b"}}}}
0
TEXT
5
10E
330
132
100
AcDbEntity
8
0
100
AcDbText
10
0
20
-20
30
0
40
5
1
Span=180
50
0
41
1
7
STANDARD
100
AcDbText
73
0
1001
CONDUITCAD
1000
{"id":"label","calculation":{"expression":"Width","precision":0,"prefix":"Span=","value":180}}
0
ATTDEF
5
10F
330
132
100
AcDbEntity
8
0
100
AcDbText
10
105
20
10
30
0
40
4
1
360
50
0
41
1
7
STANDARD
100
AcDbAttributeDefinition
2
CALCULATED
3
Equipment tag
70
0
74
0
1001
CONDUITCAD
1000
{"id":"calc-attribute","calculation":{"expression":"Width*2","precision":0,"value":360}}
0
ENDBLK
5
142
330
132
100
AcDbEntity
8
0
100
AcDbBlockEnd
0
BLOCK
5
143
330
133
100
AcDbEntity
8
0
100
AcDbBlockBegin
2
*DCC1
70
1
10
0
20
0
30
0
3
*DCC1
1

1001
CONDUITCAD
1000
{"ports":[],"dimensionPicture":{"version":1,"ownerId":"dim"}}
0
LINE
5
110
330
133
100
AcDbEntity
8
0
62
0
6
CONTINUOUS
100
AcDbLine
10
0
20
1
30
0
11
0
21
30
31
0
1001
CONDUITCAD
1000
{"id":"dim:picture:0"}
0
LINE
5
111
330
133
100
AcDbEntity
8
0
62
0
6
CONTINUOUS
100
AcDbLine
10
100
20
1
30
0
11
100
21
30
31
0
1001
CONDUITCAD
1000
{"id":"dim:picture:1"}
0
LINE
5
112
330
133
100
AcDbEntity
8
0
62
0
6
CONTINUOUS
100
AcDbLine
10
0
20
25
30
0
11
100
21
25
31
0
1001
CONDUITCAD
1000
{"id":"dim:picture:2"}
0
SOLID
5
113
330
133
100
AcDbEntity
8
0
62
0
6
CONTINUOUS
100
AcDbTrace
10
0
20
25
30
0
11
5
21
26.4
31
0
12
5
22
23.6
32
0
13
5
23
23.6
33
0
1001
CONDUITCAD
1000
{"id":"dim:picture:3"}
0
SOLID
5
114
330
133
100
AcDbEntity
8
0
62
0
6
CONTINUOUS
100
AcDbTrace
10
100
20
25
30
0
11
95
21
23.6
31
0
12
95
22
26.4
32
0
13
95
23
26.4
33
0
1001
CONDUITCAD
1000
{"id":"dim:picture:4"}
0
TEXT
5
115
330
133
100
AcDbEntity
8
0
62
0
6
CONTINUOUS
100
AcDbText
10
50
20
34
30
0
40
12
1
100.0
50
0
41
1
7
STANDARD
72
1
11
50
21
34
31
0
100
AcDbText
73
2
1001
CONDUITCAD
1000
{"id":"dim:picture:5"}
0
ENDBLK
5
144
330
133
100
AcDbEntity
8
0
100
AcDbBlockEnd
0
BLOCK
5
145
330
134
100
AcDbEntity
8
0
100
AcDbBlockBegin
2
*DCC2
70
1
10
0
20
0
30
0
3
*DCC2
1

1001
CONDUITCAD
1000
{"ports":[],"dimensionPicture":{"version":1,"ownerId":"dim"}}
0
LINE
5
116
330
134
100
AcDbEntity
8
0
62
0
6
CONTINUOUS
100
AcDbLine
10
-1.742153489296577e-8
20
1
30
0
11
-1.74215348929692e-8
21
30
31
0
1001
CONDUITCAD
1000
{"id":"dim:picture:0"}
0
LINE
5
117
330
134
100
AcDbEntity
8
0
62
0
6
CONTINUOUS
100
AcDbLine
10
179.99999997511117
20
1
30
0
11
179.99999997511117
21
30
31
0
1001
CONDUITCAD
1000
{"id":"dim:picture:1"}
0
LINE
5
118
330
134
100
AcDbEntity
8
0
62
0
6
CONTINUOUS
100
AcDbLine
10
-1.742153489296861e-8
20
25
30
0
11
179.99999997511117
21
25
31
0
1001
CONDUITCAD
1000
{"id":"dim:picture:2"}
0
SOLID
5
119
330
134
100
AcDbEntity
8
0
62
0
6
CONTINUOUS
100
AcDbTrace
10
-1.742153489296861e-8
20
25
30
0
11
4.999999982578465
21
26.4
31
0
12
4.999999982578465
22
23.6
32
0
13
4.999999982578465
23
23.6
33
0
1001
CONDUITCAD
1000
{"id":"dim:picture:3"}
0
SOLID
5
11A
330
134
100
AcDbEntity
8
0
62
0
6
CONTINUOUS
100
AcDbTrace
10
179.99999997511117
20
25
30
0
11
174.99999997511117
21
23.6
31
0
12
174.99999997511117
22
26.4
32
0
13
174.99999997511117
23
26.4
33
0
1001
CONDUITCAD
1000
{"id":"dim:picture:4"}
0
TEXT
5
11B
330
134
100
AcDbEntity
8
0
62
0
6
CONTINUOUS
100
AcDbText
10
89.99999997884481
20
34
30
0
40
12
1
180.0
50
6.777027735386412e-21
41
1
7
STANDARD
72
1
11
89.99999997884481
21
34
31
0
100
AcDbText
73
2
1001
CONDUITCAD
1000
{"id":"dim:picture:5"}
0
ENDBLK
5
146
330
134
100
AcDbEntity
8
0
100
AcDbBlockEnd
0
ENDSEC
0
SECTION
2
ENTITIES
0
INSERT
5
100
330
12D
100
AcDbEntity
8
0
100
AcDbBlockReference
2
Shared
10
10
20
20
30
0
41
1
42
1
43
1
50
0
66
1
1001
CONDUITCAD
1000
{"id":"e-muhdyipl-4"}
0
ATTRIB
5
147
330
100
100
AcDbEntity
8
0
100
AcDbText
10
30
20
30
30
0
40
4
1
SOURCE-CUSTOM
50
0
41
1
7
STANDARD
100
AcDbAttribute
2
PART_NO
70
8
74
0
1001
CONDUITCAD
1000
{"id":"attribute-muhdyipm-5","tag":"PART_NO"}
0
SEQEND
5
148
330
100
100
AcDbEntity
8
0
0
INSERT
5
101
330
12D
100
AcDbEntity
8
0
100
AcDbBlockReference
2
Shared
10
210
20
20
30
0
41
1
42
1
43
1
50
0
66
1
1001
CONDUITCAD
1000
{"id":"e-muhdyipm-6"}
0
ATTRIB
5
149
330
101
100
AcDbEntity
8
0
100
AcDbText
10
230
20
30
30
0
40
4
1
DEFAULT
50
0
41
1
7
STANDARD
100
AcDbAttribute
2
PART_NO
70
8
74
0
1001
CONDUITCAD
1000
{"id":"attribute-muhdyipm-7","tag":"PART_NO"}
0
SEQEND
5
14A
330
101
100
AcDbEntity
8
0
0
INSERT
5
102
330
12D
100
AcDbEntity
8
0
100
AcDbBlockReference
2
Wrapper
10
410
20
20
30
0
41
1
42
1
43
1
50
0
1001
CONDUITCAD
1000
{"id":"e-muhdyipm-8"}
0
INSERT
5
103
330
12D
100
AcDbEntity
8
0
100
AcDbBlockReference
2
*UCC1
10
10
20
200
30
0
41
1
42
1
43
1
50
0
66
1
1001
CONDUITCAD
1000
{"id":"e-muhdyipw-f","dynamicParameters":{"Width":180,"HalfWidth":90},"dynamicSource":"Constrained"}
0
ATTRIB
5
14B
330
103
100
AcDbEntity
8
0
100
AcDbText
10
115
20
210
30
0
40
4
1
360
50
0
41
1
7
STANDARD
100
AcDbAttribute
2
CALCULATED
70
0
74
0
1001
CONDUITCAD
1000
{"id":"attribute-muhdyipy-g","tag":"CALCULATED","calculation":{"expression":"Width*2","precision":0,"value":360}}
0
SEQEND
5
14C
330
103
100
AcDbEntity
8
0
0
ENDSEC
0
SECTION
2
OBJECTS
0
DICTIONARY
5
153
330
0
100
AcDbDictionary
281
1
3
ACAD_LAYOUT
350
154
3
ACAD_GROUP
350
155
3
CONDUITCAD_METADATA
350
158
0
DICTIONARY
5
154
330
153
100
AcDbDictionary
281
1
3
Model
350
156
3
Layout1
350
157
0
DICTIONARY
5
155
330
153
100
AcDbDictionary
281
1
0
LAYOUT
5
156
330
154
100
AcDbPlotSettings
1

2

4

6

40
0
41
0
42
0
43
0
44
420
45
297
46
0
47
0
48
0
49
0
140
0
141
0
142
1
143
1
70
0
72
1
73
0
74
5
7

75
16
76
0
77
0
78
300
147
1
148
0
149
0
100
AcDbLayout
1
Model
70
1
71
0
10
0
20
0
11
420
21
297
12
0
22
0
32
0
14
0
24
0
34
0
15
420
25
297
35
0
146
0
13
0
23
0
33
0
16
1
26
0
36
0
17
0
27
1
37
0
76
0
330
12D
0
LAYOUT
5
157
330
154
100
AcDbPlotSettings
1

2

4

6

40
0
41
0
42
0
43
0
44
420
45
297
46
0
47
0
48
0
49
0
140
0
141
0
142
1
143
1
70
0
72
1
73
0
74
5
7

75
16
76
0
77
0
78
300
147
1
148
0
149
0
100
AcDbLayout
1
Layout1
70
1
71
1
10
0
20
0
11
420
21
297
12
0
22
0
32
0
14
0
24
0
34
0
15
420
25
297
35
0
146
0
13
0
23
0
33
0
16
1
26
0
36
0
17
0
27
1
37
0
76
0
330
12E
0
XRECORD
5
158
330
153
100
AcDbXrecord
280
1
1
{"parameters":{"grid":"10","pipeWidth":"2","valveSize":"64"},"constraints":[],"metadata":{"author":"","description":""}}
0
ENDSEC
0
EOF
