0
SECTION
2
HEADER
9
$ACADVER
1
AC1024
9
$INSUNITS
70
4
9
$LTSCALE
40
1
9
$MEASUREMENT
70
1
999
CONDUIT:{"parameters":{"Width":"100","Height":"60","Radius":"22","BarLength":"80"},"constraints":[],"metadata":{"author":"","description":"","visualEditing":{"version":1,"description":"A n
999
CONDUIT:ative 2D editing workshop; select an object then Edit on canvas. Includes shared blocks and managed dimensions."}}}
9
$HANDSEED
5
12C
9
$DWGCODEPAGE
3
ANSI_1252
9
$CLAYER
8
0
9
$TILEMODE
70
1
0
ENDSEC
0
SECTION
2
TABLES
0
TABLE
2
LTYPE
5
106
330
0
100
AcDbSymbolTable
70
4
0
LTYPE
5
107
100
AcDbSymbolTableRecord
100
AcDbLinetypeTableRecord
2
CONTINUOUS
70
0
3
Solid line
72
65
73
0
40
0
330
106
0
LTYPE
5
108
100
AcDbSymbolTableRecord
100
AcDbLinetypeTableRecord
2
DASHED
70
0
3
DASHED
72
65
73
2
40
12
49
8
74
0
49
-4
74
0
330
106
0
LTYPE
5
109
100
AcDbSymbolTableRecord
100
AcDbLinetypeTableRecord
2
CENTER
70
0
3
CENTER
72
65
73
4
40
20
49
12
74
0
49
-3
74
0
49
2
74
0
49
-3
74
0
330
106
0
LTYPE
5
10A
100
AcDbSymbolTableRecord
100
AcDbLinetypeTableRecord
2
HIDDEN
70
0
3
HIDDEN
72
65
73
2
40
7
49
4
74
0
49
-3
74
0
330
106
0
ENDTAB
0
TABLE
2
LAYER
5
10B
330
0
100
AcDbSymbolTable
70
6
0
LAYER
5
10C
100
AcDbSymbolTableRecord
100
AcDbLayerTableRecord
2
0
70
0
62
7
420
3426133
6
CONTINUOUS
330
10B
0
LAYER
5
10D
100
AcDbSymbolTableRecord
100
AcDbLayerTableRecord
2
Equipment
70
0
62
7
420
3495011
6
CONTINUOUS
330
10B
0
LAYER
5
10E
100
AcDbSymbolTableRecord
100
AcDbLayerTableRecord
2
Process
70
0
62
7
420
1342583
6
CONTINUOUS
330
10B
0
LAYER
5
10F
100
AcDbSymbolTableRecord
100
AcDbLayerTableRecord
2
Instruments
70
0
62
7
420
10187334
6
CONTINUOUS
330
10B
0
LAYER
5
110
100
AcDbSymbolTableRecord
100
AcDbLayerTableRecord
2
Electrical
70
0
62
7
420
6584250
6
CONTINUOUS
330
10B
0
LAYER
5
111
100
AcDbSymbolTableRecord
100
AcDbLayerTableRecord
2
Annotations
70
0
62
7
420
7438474
6
CONTINUOUS
330
10B
0
ENDTAB
0
TABLE
2
STYLE
5
112
330
0
100
AcDbSymbolTable
70
1
0
STYLE
5
113
100
AcDbSymbolTableRecord
100
AcDbTextStyleTableRecord
2
STANDARD
70
0
40
0
41
1
50
0
71
0
42
2.5
3
txt
4

330
112
0
ENDTAB
0
TABLE
2
APPID
5
114
330
0
100
AcDbSymbolTable
70
2
0
APPID
5
115
100
AcDbSymbolTableRecord
100
AcDbRegAppTableRecord
2
CONDUITCAD
70
0
330
114
0
APPID
5
125
100
AcDbSymbolTableRecord
100
AcDbRegAppTableRecord
2
ACAD
70
0
330
114
0
ENDTAB
0
TABLE
2
BLOCK_RECORD
5
116
330
0
100
AcDbSymbolTable
70
3
0
BLOCK_RECORD
5
117
100
AcDbSymbolTableRecord
100
AcDbBlockTableRecord
2
*Model_Space
340
129
330
116
0
BLOCK_RECORD
5
118
100
AcDbSymbolTableRecord
100
AcDbBlockTableRecord
2
*Paper_Space
340
12A
330
116
0
BLOCK_RECORD
5
119
100
AcDbSymbolTableRecord
100
AcDbBlockTableRecord
2
AdjustableBar
330
116
0
ENDTAB
0
TABLE
2
VPORT
5
120
330
0
100
AcDbSymbolTable
70
0
0
ENDTAB
0
TABLE
2
VIEW
5
121
330
0
100
AcDbSymbolTable
70
0
0
ENDTAB
0
TABLE
2
UCS
5
122
330
0
100
AcDbSymbolTable
70
0
0
ENDTAB
0
TABLE
2
DIMSTYLE
5
123
330
0
100
AcDbSymbolTable
70
1
100
AcDbDimStyleTable
71
0
0
DIMSTYLE
105
124
330
123
100
AcDbSymbolTableRecord
100
AcDbDimStyleTableRecord
2
STANDARD
70
0
340
113
0
ENDTAB
0
ENDSEC
0
SECTION
2
BLOCKS
0
BLOCK
5
11A
330
117
100
AcDbEntity
8
0
100
AcDbBlockBegin
2
*Model_Space
70
1
10
0
20
0
30
0
3
*Model_Space
1

1001
CONDUITCAD
1000
{"ports":[]}
0
ENDBLK
5
11B
330
117
100
AcDbEntity
8
0
100
AcDbBlockEnd
0
BLOCK
5
11C
330
118
100
AcDbEntity
8
0
100
AcDbBlockBegin
2
*Paper_Space
70
1
10
0
20
0
30
0
3
*Paper_Space
1

1001
CONDUITCAD
1000
{"ports":[]}
0
ENDBLK
5
11D
330
118
100
AcDbEntity
8
0
100
AcDbBlockEnd
0
BLOCK
5
11E
330
119
100
AcDbEntity
8
0
100
AcDbBlockBegin
2
AdjustableBar
70
0
10
0
20
0
30
0
3
AdjustableBar
1

1001
CONDUITCAD
1000
{"ports":[],"dynamic":{"version":1,"parameters":[{"name":"Length","type":"distance","default":80,"min":10,"max":300,"grip":{"base":{"x":0,"y":0},"direction":{"x":1,"y":0}}}],"actions":[{"type":"stretc
1000
h","parameter":"Length","entities":["bar-edge","bar-end"],"direction":{"x":1,"y":0},"box":{"minX":79,"minY":-10,"maxX":81,"maxY":10}}]}}
0
LINE
5
103
330
119
100
AcDbEntity
8
0
100
AcDbLine
10
0
20
0
30
0
11
80
21
0
31
0
1001
CONDUITCAD
1000
{"id":"bar-edge"}
0
LINE
5
104
330
119
100
AcDbEntity
8
0
100
AcDbLine
10
0
20
-6
30
0
11
0
21
6
31
0
1001
CONDUITCAD
1000
{"id":"bar-start"}
0
LINE
5
105
330
119
100
AcDbEntity
8
0
100
AcDbLine
10
80
20
-6
30
0
11
80
21
6
31
0
1001
CONDUITCAD
1000
{"id":"bar-end"}
0
ENDBLK
5
11F
330
119
100
AcDbEntity
8
0
100
AcDbBlockEnd
0
ENDSEC
0
SECTION
2
ENTITIES
0
LINE
5
100
330
117
100
AcDbEntity
8
0
100
AcDbLine
10
100
20
0
30
0
11
15.000000000000002
21
0
31
0
1001
CONDUITCAD
1000
{"id":"a"}
0
LINE
5
101
330
117
100
AcDbEntity
8
0
100
AcDbLine
10
0
20
15.000000000000002
30
0
11
0
21
100
31
0
1001
CONDUITCAD
1000
{"id":"b"}
0
ARC
5
102
330
117
100
AcDbEntity
8
0
100
AcDbCircle
10
15
20
15
30
0
40
15
100
AcDbArc
50
180
51
-90
1001
CONDUITCAD
1000
{"id":"entity-mujr484z-12u"}
0
ENDSEC
0
SECTION
2
OBJECTS
0
DICTIONARY
5
126
330
0
100
AcDbDictionary
281
1
3
ACAD_LAYOUT
350
127
3
ACAD_GROUP
350
128
3
CONDUITCAD_METADATA
350
12B
0
DICTIONARY
5
127
330
126
100
AcDbDictionary
281
1
3
Model
350
129
3
Layout1
350
12A
0
DICTIONARY
5
128
330
126
100
AcDbDictionary
281
1
0
LAYOUT
5
129
330
127
100
AcDbPlotSettings
1

2

4

6

40
0
41
0
42
0
43
0
44
420
45
297
46
0
47
0
48
0
49
0
140
0
141
0
142
1
143
1
70
0
72
1
73
0
74
5
7

75
16
76
0
77
0
78
300
147
1
148
0
149
0
100
AcDbLayout
1
Model
70
1
71
0
10
0
20
0
11
420
21
297
12
0
22
0
32
0
14
0
24
0
34
0
15
420
25
297
35
0
146
0
13
0
23
0
33
0
16
1
26
0
36
0
17
0
27
1
37
0
76
0
330
117
0
LAYOUT
5
12A
330
127
100
AcDbPlotSettings
1

2

4

6

40
0
41
0
42
0
43
0
44
420
45
297
46
0
47
0
48
0
49
0
140
0
141
0
142
1
143
1
70
0
72
1
73
0
74
5
7

75
16
76
0
77
0
78
300
147
1
148
0
149
0
100
AcDbLayout
1
Layout1
70
1
71
1
10
0
20
0
11
420
21
297
12
0
22
0
32
0
14
0
24
0
34
0
15
420
25
297
35
0
146
0
13
0
23
0
33
0
16
1
26
0
36
0
17
0
27
1
37
0
76
0
330
118
0
XRECORD
5
12B
330
126
100
AcDbXrecord
280
1
1
{"parameters":{"Width":"100","Height":"60","Radius":"22","BarLength":"80"},"constraints":[],"metadata":{"author":"","description":"","visualEditing":{"version":1,"description":"A native 2D editing wor
1
kshop; select an object then Edit on canvas. Includes shared blocks and managed dimensions."}}}
0
ENDSEC
0
EOF
